G04 #@! TF.GenerationSoftware,KiCad,Pcbnew,(5.1.9-0-10_14)*
G04 #@! TF.CreationDate,2021-01-29T20:41:04-08:00*
G04 #@! TF.ProjectId,cart-ecp5,63617274-2d65-4637-9035-2e6b69636164,rev?*
G04 #@! TF.SameCoordinates,Original*
G04 #@! TF.FileFunction,Paste,Top*
G04 #@! TF.FilePolarity,Positive*
%FSLAX46Y46*%
G04 Gerber Fmt 4.6, Leading zero omitted, Abs format (unit mm)*
G04 Created by KiCad (PCBNEW (5.1.9-0-10_14)) date 2021-01-29 20:41:04*
%MOMM*%
%LPD*%
G01*
G04 APERTURE LIST*
%ADD10R,1.060000X0.650000*%
%ADD11R,0.650000X1.060000*%
%ADD12R,0.450000X0.700000*%
%ADD13R,0.800000X0.500000*%
%ADD14R,0.800000X0.400000*%
%ADD15R,0.500000X0.800000*%
%ADD16R,0.400000X0.800000*%
%ADD17C,0.400000*%
%ADD18R,2.800000X0.740000*%
%ADD19R,1.700000X0.650000*%
%ADD20R,1.900000X1.350000*%
%ADD21R,1.200000X1.000000*%
%ADD22R,1.550000X1.350000*%
%ADD23R,1.170000X1.800000*%
%ADD24R,0.750000X1.100000*%
%ADD25C,0.350000*%
G04 APERTURE END LIST*
D10*
X115535000Y-100355000D03*
X115535000Y-102255000D03*
X113335000Y-102255000D03*
X113335000Y-101305000D03*
X113335000Y-100355000D03*
D11*
X140970000Y-101520000D03*
X139070000Y-101520000D03*
X139070000Y-99320000D03*
X140020000Y-99320000D03*
X140970000Y-99320000D03*
G36*
G01*
X113235000Y-103465000D02*
X113235000Y-103835000D01*
G75*
G02*
X113100000Y-103970000I-135000J0D01*
G01*
X112830000Y-103970000D01*
G75*
G02*
X112695000Y-103835000I0J135000D01*
G01*
X112695000Y-103465000D01*
G75*
G02*
X112830000Y-103330000I135000J0D01*
G01*
X113100000Y-103330000D01*
G75*
G02*
X113235000Y-103465000I0J-135000D01*
G01*
G37*
G36*
G01*
X114255000Y-103465000D02*
X114255000Y-103835000D01*
G75*
G02*
X114120000Y-103970000I-135000J0D01*
G01*
X113850000Y-103970000D01*
G75*
G02*
X113715000Y-103835000I0J135000D01*
G01*
X113715000Y-103465000D01*
G75*
G02*
X113850000Y-103330000I135000J0D01*
G01*
X114120000Y-103330000D01*
G75*
G02*
X114255000Y-103465000I0J-135000D01*
G01*
G37*
G36*
G01*
X137860000Y-99210000D02*
X137490000Y-99210000D01*
G75*
G02*
X137355000Y-99075000I0J135000D01*
G01*
X137355000Y-98805000D01*
G75*
G02*
X137490000Y-98670000I135000J0D01*
G01*
X137860000Y-98670000D01*
G75*
G02*
X137995000Y-98805000I0J-135000D01*
G01*
X137995000Y-99075000D01*
G75*
G02*
X137860000Y-99210000I-135000J0D01*
G01*
G37*
G36*
G01*
X137860000Y-100230000D02*
X137490000Y-100230000D01*
G75*
G02*
X137355000Y-100095000I0J135000D01*
G01*
X137355000Y-99825000D01*
G75*
G02*
X137490000Y-99690000I135000J0D01*
G01*
X137860000Y-99690000D01*
G75*
G02*
X137995000Y-99825000I0J-135000D01*
G01*
X137995000Y-100095000D01*
G75*
G02*
X137860000Y-100230000I-135000J0D01*
G01*
G37*
G36*
G01*
X154885000Y-78860000D02*
X154515000Y-78860000D01*
G75*
G02*
X154380000Y-78725000I0J135000D01*
G01*
X154380000Y-78455000D01*
G75*
G02*
X154515000Y-78320000I135000J0D01*
G01*
X154885000Y-78320000D01*
G75*
G02*
X155020000Y-78455000I0J-135000D01*
G01*
X155020000Y-78725000D01*
G75*
G02*
X154885000Y-78860000I-135000J0D01*
G01*
G37*
G36*
G01*
X154885000Y-79880000D02*
X154515000Y-79880000D01*
G75*
G02*
X154380000Y-79745000I0J135000D01*
G01*
X154380000Y-79475000D01*
G75*
G02*
X154515000Y-79340000I135000J0D01*
G01*
X154885000Y-79340000D01*
G75*
G02*
X155020000Y-79475000I0J-135000D01*
G01*
X155020000Y-79745000D01*
G75*
G02*
X154885000Y-79880000I-135000J0D01*
G01*
G37*
G36*
G01*
X149485000Y-88327500D02*
X149485000Y-88672500D01*
G75*
G02*
X149337500Y-88820000I-147500J0D01*
G01*
X149042500Y-88820000D01*
G75*
G02*
X148895000Y-88672500I0J147500D01*
G01*
X148895000Y-88327500D01*
G75*
G02*
X149042500Y-88180000I147500J0D01*
G01*
X149337500Y-88180000D01*
G75*
G02*
X149485000Y-88327500I0J-147500D01*
G01*
G37*
G36*
G01*
X150455000Y-88327500D02*
X150455000Y-88672500D01*
G75*
G02*
X150307500Y-88820000I-147500J0D01*
G01*
X150012500Y-88820000D01*
G75*
G02*
X149865000Y-88672500I0J147500D01*
G01*
X149865000Y-88327500D01*
G75*
G02*
X150012500Y-88180000I147500J0D01*
G01*
X150307500Y-88180000D01*
G75*
G02*
X150455000Y-88327500I0J-147500D01*
G01*
G37*
G36*
G01*
X149865000Y-89672500D02*
X149865000Y-89327500D01*
G75*
G02*
X150012500Y-89180000I147500J0D01*
G01*
X150307500Y-89180000D01*
G75*
G02*
X150455000Y-89327500I0J-147500D01*
G01*
X150455000Y-89672500D01*
G75*
G02*
X150307500Y-89820000I-147500J0D01*
G01*
X150012500Y-89820000D01*
G75*
G02*
X149865000Y-89672500I0J147500D01*
G01*
G37*
G36*
G01*
X148895000Y-89672500D02*
X148895000Y-89327500D01*
G75*
G02*
X149042500Y-89180000I147500J0D01*
G01*
X149337500Y-89180000D01*
G75*
G02*
X149485000Y-89327500I0J-147500D01*
G01*
X149485000Y-89672500D01*
G75*
G02*
X149337500Y-89820000I-147500J0D01*
G01*
X149042500Y-89820000D01*
G75*
G02*
X148895000Y-89672500I0J147500D01*
G01*
G37*
G36*
G01*
X123077500Y-100640000D02*
X123422500Y-100640000D01*
G75*
G02*
X123570000Y-100787500I0J-147500D01*
G01*
X123570000Y-101082500D01*
G75*
G02*
X123422500Y-101230000I-147500J0D01*
G01*
X123077500Y-101230000D01*
G75*
G02*
X122930000Y-101082500I0J147500D01*
G01*
X122930000Y-100787500D01*
G75*
G02*
X123077500Y-100640000I147500J0D01*
G01*
G37*
G36*
G01*
X123077500Y-99670000D02*
X123422500Y-99670000D01*
G75*
G02*
X123570000Y-99817500I0J-147500D01*
G01*
X123570000Y-100112500D01*
G75*
G02*
X123422500Y-100260000I-147500J0D01*
G01*
X123077500Y-100260000D01*
G75*
G02*
X122930000Y-100112500I0J147500D01*
G01*
X122930000Y-99817500D01*
G75*
G02*
X123077500Y-99670000I147500J0D01*
G01*
G37*
G36*
G01*
X118077500Y-100640000D02*
X118422500Y-100640000D01*
G75*
G02*
X118570000Y-100787500I0J-147500D01*
G01*
X118570000Y-101082500D01*
G75*
G02*
X118422500Y-101230000I-147500J0D01*
G01*
X118077500Y-101230000D01*
G75*
G02*
X117930000Y-101082500I0J147500D01*
G01*
X117930000Y-100787500D01*
G75*
G02*
X118077500Y-100640000I147500J0D01*
G01*
G37*
G36*
G01*
X118077500Y-99670000D02*
X118422500Y-99670000D01*
G75*
G02*
X118570000Y-99817500I0J-147500D01*
G01*
X118570000Y-100112500D01*
G75*
G02*
X118422500Y-100260000I-147500J0D01*
G01*
X118077500Y-100260000D01*
G75*
G02*
X117930000Y-100112500I0J147500D01*
G01*
X117930000Y-99817500D01*
G75*
G02*
X118077500Y-99670000I147500J0D01*
G01*
G37*
G36*
G01*
X118872500Y-87110000D02*
X118527500Y-87110000D01*
G75*
G02*
X118380000Y-86962500I0J147500D01*
G01*
X118380000Y-86667500D01*
G75*
G02*
X118527500Y-86520000I147500J0D01*
G01*
X118872500Y-86520000D01*
G75*
G02*
X119020000Y-86667500I0J-147500D01*
G01*
X119020000Y-86962500D01*
G75*
G02*
X118872500Y-87110000I-147500J0D01*
G01*
G37*
G36*
G01*
X118872500Y-88080000D02*
X118527500Y-88080000D01*
G75*
G02*
X118380000Y-87932500I0J147500D01*
G01*
X118380000Y-87637500D01*
G75*
G02*
X118527500Y-87490000I147500J0D01*
G01*
X118872500Y-87490000D01*
G75*
G02*
X119020000Y-87637500I0J-147500D01*
G01*
X119020000Y-87932500D01*
G75*
G02*
X118872500Y-88080000I-147500J0D01*
G01*
G37*
G36*
G01*
X111272500Y-86410000D02*
X110927500Y-86410000D01*
G75*
G02*
X110780000Y-86262500I0J147500D01*
G01*
X110780000Y-85967500D01*
G75*
G02*
X110927500Y-85820000I147500J0D01*
G01*
X111272500Y-85820000D01*
G75*
G02*
X111420000Y-85967500I0J-147500D01*
G01*
X111420000Y-86262500D01*
G75*
G02*
X111272500Y-86410000I-147500J0D01*
G01*
G37*
G36*
G01*
X111272500Y-87380000D02*
X110927500Y-87380000D01*
G75*
G02*
X110780000Y-87232500I0J147500D01*
G01*
X110780000Y-86937500D01*
G75*
G02*
X110927500Y-86790000I147500J0D01*
G01*
X111272500Y-86790000D01*
G75*
G02*
X111420000Y-86937500I0J-147500D01*
G01*
X111420000Y-87232500D01*
G75*
G02*
X111272500Y-87380000I-147500J0D01*
G01*
G37*
G36*
G01*
X154527500Y-77365000D02*
X154872500Y-77365000D01*
G75*
G02*
X155020000Y-77512500I0J-147500D01*
G01*
X155020000Y-77807500D01*
G75*
G02*
X154872500Y-77955000I-147500J0D01*
G01*
X154527500Y-77955000D01*
G75*
G02*
X154380000Y-77807500I0J147500D01*
G01*
X154380000Y-77512500D01*
G75*
G02*
X154527500Y-77365000I147500J0D01*
G01*
G37*
G36*
G01*
X154527500Y-76395000D02*
X154872500Y-76395000D01*
G75*
G02*
X155020000Y-76542500I0J-147500D01*
G01*
X155020000Y-76837500D01*
G75*
G02*
X154872500Y-76985000I-147500J0D01*
G01*
X154527500Y-76985000D01*
G75*
G02*
X154380000Y-76837500I0J147500D01*
G01*
X154380000Y-76542500D01*
G75*
G02*
X154527500Y-76395000I147500J0D01*
G01*
G37*
D12*
X152850000Y-77100000D03*
X153500000Y-79100000D03*
X152200000Y-79100000D03*
G36*
G01*
X155768750Y-78450000D02*
X156281250Y-78450000D01*
G75*
G02*
X156500000Y-78668750I0J-218750D01*
G01*
X156500000Y-79106250D01*
G75*
G02*
X156281250Y-79325000I-218750J0D01*
G01*
X155768750Y-79325000D01*
G75*
G02*
X155550000Y-79106250I0J218750D01*
G01*
X155550000Y-78668750D01*
G75*
G02*
X155768750Y-78450000I218750J0D01*
G01*
G37*
G36*
G01*
X155768750Y-76875000D02*
X156281250Y-76875000D01*
G75*
G02*
X156500000Y-77093750I0J-218750D01*
G01*
X156500000Y-77531250D01*
G75*
G02*
X156281250Y-77750000I-218750J0D01*
G01*
X155768750Y-77750000D01*
G75*
G02*
X155550000Y-77531250I0J218750D01*
G01*
X155550000Y-77093750D01*
G75*
G02*
X155768750Y-76875000I218750J0D01*
G01*
G37*
G36*
G01*
X153810000Y-82344998D02*
X153810000Y-83455002D01*
G75*
G02*
X153560002Y-83705000I-249998J0D01*
G01*
X152689998Y-83705000D01*
G75*
G02*
X152440000Y-83455002I0J249998D01*
G01*
X152440000Y-82344998D01*
G75*
G02*
X152689998Y-82095000I249998J0D01*
G01*
X153560002Y-82095000D01*
G75*
G02*
X153810000Y-82344998I0J-249998D01*
G01*
G37*
G36*
G01*
X153810000Y-84344998D02*
X153810000Y-85455002D01*
G75*
G02*
X153560002Y-85705000I-249998J0D01*
G01*
X152689998Y-85705000D01*
G75*
G02*
X152440000Y-85455002I0J249998D01*
G01*
X152440000Y-84344998D01*
G75*
G02*
X152689998Y-84095000I249998J0D01*
G01*
X153560002Y-84095000D01*
G75*
G02*
X153810000Y-84344998I0J-249998D01*
G01*
G37*
G36*
G01*
X155510000Y-82344998D02*
X155510000Y-83455002D01*
G75*
G02*
X155260002Y-83705000I-249998J0D01*
G01*
X154389998Y-83705000D01*
G75*
G02*
X154140000Y-83455002I0J249998D01*
G01*
X154140000Y-82344998D01*
G75*
G02*
X154389998Y-82095000I249998J0D01*
G01*
X155260002Y-82095000D01*
G75*
G02*
X155510000Y-82344998I0J-249998D01*
G01*
G37*
G36*
G01*
X155510000Y-84344998D02*
X155510000Y-85455002D01*
G75*
G02*
X155260002Y-85705000I-249998J0D01*
G01*
X154389998Y-85705000D01*
G75*
G02*
X154140000Y-85455002I0J249998D01*
G01*
X154140000Y-84344998D01*
G75*
G02*
X154389998Y-84095000I249998J0D01*
G01*
X155260002Y-84095000D01*
G75*
G02*
X155510000Y-84344998I0J-249998D01*
G01*
G37*
G36*
G01*
X151700000Y-85680000D02*
X151700000Y-85930000D01*
G75*
G02*
X151575000Y-86055000I-125000J0D01*
G01*
X151050000Y-86055000D01*
G75*
G02*
X150925000Y-85930000I0J125000D01*
G01*
X150925000Y-85680000D01*
G75*
G02*
X151050000Y-85555000I125000J0D01*
G01*
X151575000Y-85555000D01*
G75*
G02*
X151700000Y-85680000I0J-125000D01*
G01*
G37*
G36*
G01*
X151700000Y-84410000D02*
X151700000Y-84660000D01*
G75*
G02*
X151575000Y-84785000I-125000J0D01*
G01*
X151050000Y-84785000D01*
G75*
G02*
X150925000Y-84660000I0J125000D01*
G01*
X150925000Y-84410000D01*
G75*
G02*
X151050000Y-84285000I125000J0D01*
G01*
X151575000Y-84285000D01*
G75*
G02*
X151700000Y-84410000I0J-125000D01*
G01*
G37*
G36*
G01*
X151700000Y-83140000D02*
X151700000Y-83390000D01*
G75*
G02*
X151575000Y-83515000I-125000J0D01*
G01*
X151050000Y-83515000D01*
G75*
G02*
X150925000Y-83390000I0J125000D01*
G01*
X150925000Y-83140000D01*
G75*
G02*
X151050000Y-83015000I125000J0D01*
G01*
X151575000Y-83015000D01*
G75*
G02*
X151700000Y-83140000I0J-125000D01*
G01*
G37*
G36*
G01*
X151700000Y-81870000D02*
X151700000Y-82120000D01*
G75*
G02*
X151575000Y-82245000I-125000J0D01*
G01*
X151050000Y-82245000D01*
G75*
G02*
X150925000Y-82120000I0J125000D01*
G01*
X150925000Y-81870000D01*
G75*
G02*
X151050000Y-81745000I125000J0D01*
G01*
X151575000Y-81745000D01*
G75*
G02*
X151700000Y-81870000I0J-125000D01*
G01*
G37*
G36*
G01*
X157025000Y-81870000D02*
X157025000Y-82120000D01*
G75*
G02*
X156900000Y-82245000I-125000J0D01*
G01*
X156375000Y-82245000D01*
G75*
G02*
X156250000Y-82120000I0J125000D01*
G01*
X156250000Y-81870000D01*
G75*
G02*
X156375000Y-81745000I125000J0D01*
G01*
X156900000Y-81745000D01*
G75*
G02*
X157025000Y-81870000I0J-125000D01*
G01*
G37*
G36*
G01*
X157025000Y-83140000D02*
X157025000Y-83390000D01*
G75*
G02*
X156900000Y-83515000I-125000J0D01*
G01*
X156375000Y-83515000D01*
G75*
G02*
X156250000Y-83390000I0J125000D01*
G01*
X156250000Y-83140000D01*
G75*
G02*
X156375000Y-83015000I125000J0D01*
G01*
X156900000Y-83015000D01*
G75*
G02*
X157025000Y-83140000I0J-125000D01*
G01*
G37*
G36*
G01*
X157025000Y-84410000D02*
X157025000Y-84660000D01*
G75*
G02*
X156900000Y-84785000I-125000J0D01*
G01*
X156375000Y-84785000D01*
G75*
G02*
X156250000Y-84660000I0J125000D01*
G01*
X156250000Y-84410000D01*
G75*
G02*
X156375000Y-84285000I125000J0D01*
G01*
X156900000Y-84285000D01*
G75*
G02*
X157025000Y-84410000I0J-125000D01*
G01*
G37*
G36*
G01*
X157025000Y-85680000D02*
X157025000Y-85930000D01*
G75*
G02*
X156900000Y-86055000I-125000J0D01*
G01*
X156375000Y-86055000D01*
G75*
G02*
X156250000Y-85930000I0J125000D01*
G01*
X156250000Y-85680000D01*
G75*
G02*
X156375000Y-85555000I125000J0D01*
G01*
X156900000Y-85555000D01*
G75*
G02*
X157025000Y-85680000I0J-125000D01*
G01*
G37*
D13*
X110300000Y-115700000D03*
D14*
X110300000Y-116500000D03*
D13*
X110300000Y-118100000D03*
D14*
X110300000Y-117300000D03*
D13*
X112100000Y-115700000D03*
D14*
X112100000Y-117300000D03*
X112100000Y-116500000D03*
D13*
X112100000Y-118100000D03*
X110300000Y-107700000D03*
D14*
X110300000Y-108500000D03*
D13*
X110300000Y-110100000D03*
D14*
X110300000Y-109300000D03*
D13*
X112100000Y-107700000D03*
D14*
X112100000Y-109300000D03*
X112100000Y-108500000D03*
D13*
X112100000Y-110100000D03*
G36*
G01*
X108050000Y-120156250D02*
X108050000Y-119643750D01*
G75*
G02*
X108268750Y-119425000I218750J0D01*
G01*
X108706250Y-119425000D01*
G75*
G02*
X108925000Y-119643750I0J-218750D01*
G01*
X108925000Y-120156250D01*
G75*
G02*
X108706250Y-120375000I-218750J0D01*
G01*
X108268750Y-120375000D01*
G75*
G02*
X108050000Y-120156250I0J218750D01*
G01*
G37*
G36*
G01*
X106475000Y-120156250D02*
X106475000Y-119643750D01*
G75*
G02*
X106693750Y-119425000I218750J0D01*
G01*
X107131250Y-119425000D01*
G75*
G02*
X107350000Y-119643750I0J-218750D01*
G01*
X107350000Y-120156250D01*
G75*
G02*
X107131250Y-120375000I-218750J0D01*
G01*
X106693750Y-120375000D01*
G75*
G02*
X106475000Y-120156250I0J218750D01*
G01*
G37*
G36*
G01*
X108050000Y-118156250D02*
X108050000Y-117643750D01*
G75*
G02*
X108268750Y-117425000I218750J0D01*
G01*
X108706250Y-117425000D01*
G75*
G02*
X108925000Y-117643750I0J-218750D01*
G01*
X108925000Y-118156250D01*
G75*
G02*
X108706250Y-118375000I-218750J0D01*
G01*
X108268750Y-118375000D01*
G75*
G02*
X108050000Y-118156250I0J218750D01*
G01*
G37*
G36*
G01*
X106475000Y-118156250D02*
X106475000Y-117643750D01*
G75*
G02*
X106693750Y-117425000I218750J0D01*
G01*
X107131250Y-117425000D01*
G75*
G02*
X107350000Y-117643750I0J-218750D01*
G01*
X107350000Y-118156250D01*
G75*
G02*
X107131250Y-118375000I-218750J0D01*
G01*
X106693750Y-118375000D01*
G75*
G02*
X106475000Y-118156250I0J218750D01*
G01*
G37*
G36*
G01*
X108050000Y-116156250D02*
X108050000Y-115643750D01*
G75*
G02*
X108268750Y-115425000I218750J0D01*
G01*
X108706250Y-115425000D01*
G75*
G02*
X108925000Y-115643750I0J-218750D01*
G01*
X108925000Y-116156250D01*
G75*
G02*
X108706250Y-116375000I-218750J0D01*
G01*
X108268750Y-116375000D01*
G75*
G02*
X108050000Y-116156250I0J218750D01*
G01*
G37*
G36*
G01*
X106475000Y-116156250D02*
X106475000Y-115643750D01*
G75*
G02*
X106693750Y-115425000I218750J0D01*
G01*
X107131250Y-115425000D01*
G75*
G02*
X107350000Y-115643750I0J-218750D01*
G01*
X107350000Y-116156250D01*
G75*
G02*
X107131250Y-116375000I-218750J0D01*
G01*
X106693750Y-116375000D01*
G75*
G02*
X106475000Y-116156250I0J218750D01*
G01*
G37*
G36*
G01*
X108050000Y-114156250D02*
X108050000Y-113643750D01*
G75*
G02*
X108268750Y-113425000I218750J0D01*
G01*
X108706250Y-113425000D01*
G75*
G02*
X108925000Y-113643750I0J-218750D01*
G01*
X108925000Y-114156250D01*
G75*
G02*
X108706250Y-114375000I-218750J0D01*
G01*
X108268750Y-114375000D01*
G75*
G02*
X108050000Y-114156250I0J218750D01*
G01*
G37*
G36*
G01*
X106475000Y-114156250D02*
X106475000Y-113643750D01*
G75*
G02*
X106693750Y-113425000I218750J0D01*
G01*
X107131250Y-113425000D01*
G75*
G02*
X107350000Y-113643750I0J-218750D01*
G01*
X107350000Y-114156250D01*
G75*
G02*
X107131250Y-114375000I-218750J0D01*
G01*
X106693750Y-114375000D01*
G75*
G02*
X106475000Y-114156250I0J218750D01*
G01*
G37*
G36*
G01*
X108050000Y-112156250D02*
X108050000Y-111643750D01*
G75*
G02*
X108268750Y-111425000I218750J0D01*
G01*
X108706250Y-111425000D01*
G75*
G02*
X108925000Y-111643750I0J-218750D01*
G01*
X108925000Y-112156250D01*
G75*
G02*
X108706250Y-112375000I-218750J0D01*
G01*
X108268750Y-112375000D01*
G75*
G02*
X108050000Y-112156250I0J218750D01*
G01*
G37*
G36*
G01*
X106475000Y-112156250D02*
X106475000Y-111643750D01*
G75*
G02*
X106693750Y-111425000I218750J0D01*
G01*
X107131250Y-111425000D01*
G75*
G02*
X107350000Y-111643750I0J-218750D01*
G01*
X107350000Y-112156250D01*
G75*
G02*
X107131250Y-112375000I-218750J0D01*
G01*
X106693750Y-112375000D01*
G75*
G02*
X106475000Y-112156250I0J218750D01*
G01*
G37*
G36*
G01*
X108050000Y-110156250D02*
X108050000Y-109643750D01*
G75*
G02*
X108268750Y-109425000I218750J0D01*
G01*
X108706250Y-109425000D01*
G75*
G02*
X108925000Y-109643750I0J-218750D01*
G01*
X108925000Y-110156250D01*
G75*
G02*
X108706250Y-110375000I-218750J0D01*
G01*
X108268750Y-110375000D01*
G75*
G02*
X108050000Y-110156250I0J218750D01*
G01*
G37*
G36*
G01*
X106475000Y-110156250D02*
X106475000Y-109643750D01*
G75*
G02*
X106693750Y-109425000I218750J0D01*
G01*
X107131250Y-109425000D01*
G75*
G02*
X107350000Y-109643750I0J-218750D01*
G01*
X107350000Y-110156250D01*
G75*
G02*
X107131250Y-110375000I-218750J0D01*
G01*
X106693750Y-110375000D01*
G75*
G02*
X106475000Y-110156250I0J218750D01*
G01*
G37*
G36*
G01*
X108050000Y-108156250D02*
X108050000Y-107643750D01*
G75*
G02*
X108268750Y-107425000I218750J0D01*
G01*
X108706250Y-107425000D01*
G75*
G02*
X108925000Y-107643750I0J-218750D01*
G01*
X108925000Y-108156250D01*
G75*
G02*
X108706250Y-108375000I-218750J0D01*
G01*
X108268750Y-108375000D01*
G75*
G02*
X108050000Y-108156250I0J218750D01*
G01*
G37*
G36*
G01*
X106475000Y-108156250D02*
X106475000Y-107643750D01*
G75*
G02*
X106693750Y-107425000I218750J0D01*
G01*
X107131250Y-107425000D01*
G75*
G02*
X107350000Y-107643750I0J-218750D01*
G01*
X107350000Y-108156250D01*
G75*
G02*
X107131250Y-108375000I-218750J0D01*
G01*
X106693750Y-108375000D01*
G75*
G02*
X106475000Y-108156250I0J218750D01*
G01*
G37*
G36*
G01*
X108050000Y-106156250D02*
X108050000Y-105643750D01*
G75*
G02*
X108268750Y-105425000I218750J0D01*
G01*
X108706250Y-105425000D01*
G75*
G02*
X108925000Y-105643750I0J-218750D01*
G01*
X108925000Y-106156250D01*
G75*
G02*
X108706250Y-106375000I-218750J0D01*
G01*
X108268750Y-106375000D01*
G75*
G02*
X108050000Y-106156250I0J218750D01*
G01*
G37*
G36*
G01*
X106475000Y-106156250D02*
X106475000Y-105643750D01*
G75*
G02*
X106693750Y-105425000I218750J0D01*
G01*
X107131250Y-105425000D01*
G75*
G02*
X107350000Y-105643750I0J-218750D01*
G01*
X107350000Y-106156250D01*
G75*
G02*
X107131250Y-106375000I-218750J0D01*
G01*
X106693750Y-106375000D01*
G75*
G02*
X106475000Y-106156250I0J218750D01*
G01*
G37*
D15*
X139300000Y-118600000D03*
D16*
X138500000Y-118600000D03*
D15*
X136900000Y-118600000D03*
D16*
X137700000Y-118600000D03*
D15*
X139300000Y-120400000D03*
D16*
X137700000Y-120400000D03*
X138500000Y-120400000D03*
D15*
X136900000Y-120400000D03*
D10*
X174275000Y-94925000D03*
X174275000Y-96825000D03*
X172075000Y-96825000D03*
X172075000Y-95875000D03*
X172075000Y-94925000D03*
G36*
G01*
X174915000Y-93747500D02*
X174915000Y-93402500D01*
G75*
G02*
X175062500Y-93255000I147500J0D01*
G01*
X175357500Y-93255000D01*
G75*
G02*
X175505000Y-93402500I0J-147500D01*
G01*
X175505000Y-93747500D01*
G75*
G02*
X175357500Y-93895000I-147500J0D01*
G01*
X175062500Y-93895000D01*
G75*
G02*
X174915000Y-93747500I0J147500D01*
G01*
G37*
G36*
G01*
X173945000Y-93747500D02*
X173945000Y-93402500D01*
G75*
G02*
X174092500Y-93255000I147500J0D01*
G01*
X174387500Y-93255000D01*
G75*
G02*
X174535000Y-93402500I0J-147500D01*
G01*
X174535000Y-93747500D01*
G75*
G02*
X174387500Y-93895000I-147500J0D01*
G01*
X174092500Y-93895000D01*
G75*
G02*
X173945000Y-93747500I0J147500D01*
G01*
G37*
G36*
G01*
X173015000Y-93747500D02*
X173015000Y-93402500D01*
G75*
G02*
X173162500Y-93255000I147500J0D01*
G01*
X173457500Y-93255000D01*
G75*
G02*
X173605000Y-93402500I0J-147500D01*
G01*
X173605000Y-93747500D01*
G75*
G02*
X173457500Y-93895000I-147500J0D01*
G01*
X173162500Y-93895000D01*
G75*
G02*
X173015000Y-93747500I0J147500D01*
G01*
G37*
G36*
G01*
X172045000Y-93747500D02*
X172045000Y-93402500D01*
G75*
G02*
X172192500Y-93255000I147500J0D01*
G01*
X172487500Y-93255000D01*
G75*
G02*
X172635000Y-93402500I0J-147500D01*
G01*
X172635000Y-93747500D01*
G75*
G02*
X172487500Y-93895000I-147500J0D01*
G01*
X172192500Y-93895000D01*
G75*
G02*
X172045000Y-93747500I0J147500D01*
G01*
G37*
G36*
G01*
X170731250Y-95325000D02*
X169818750Y-95325000D01*
G75*
G02*
X169575000Y-95081250I0J243750D01*
G01*
X169575000Y-94593750D01*
G75*
G02*
X169818750Y-94350000I243750J0D01*
G01*
X170731250Y-94350000D01*
G75*
G02*
X170975000Y-94593750I0J-243750D01*
G01*
X170975000Y-95081250D01*
G75*
G02*
X170731250Y-95325000I-243750J0D01*
G01*
G37*
G36*
G01*
X170731250Y-97200000D02*
X169818750Y-97200000D01*
G75*
G02*
X169575000Y-96956250I0J243750D01*
G01*
X169575000Y-96468750D01*
G75*
G02*
X169818750Y-96225000I243750J0D01*
G01*
X170731250Y-96225000D01*
G75*
G02*
X170975000Y-96468750I0J-243750D01*
G01*
X170975000Y-96956250D01*
G75*
G02*
X170731250Y-97200000I-243750J0D01*
G01*
G37*
G36*
G01*
X169240000Y-93722500D02*
X169240000Y-93377500D01*
G75*
G02*
X169387500Y-93230000I147500J0D01*
G01*
X169682500Y-93230000D01*
G75*
G02*
X169830000Y-93377500I0J-147500D01*
G01*
X169830000Y-93722500D01*
G75*
G02*
X169682500Y-93870000I-147500J0D01*
G01*
X169387500Y-93870000D01*
G75*
G02*
X169240000Y-93722500I0J147500D01*
G01*
G37*
G36*
G01*
X168270000Y-93722500D02*
X168270000Y-93377500D01*
G75*
G02*
X168417500Y-93230000I147500J0D01*
G01*
X168712500Y-93230000D01*
G75*
G02*
X168860000Y-93377500I0J-147500D01*
G01*
X168860000Y-93722500D01*
G75*
G02*
X168712500Y-93870000I-147500J0D01*
G01*
X168417500Y-93870000D01*
G75*
G02*
X168270000Y-93722500I0J147500D01*
G01*
G37*
G36*
G01*
X168318750Y-95925000D02*
X168831250Y-95925000D01*
G75*
G02*
X169050000Y-96143750I0J-218750D01*
G01*
X169050000Y-96581250D01*
G75*
G02*
X168831250Y-96800000I-218750J0D01*
G01*
X168318750Y-96800000D01*
G75*
G02*
X168100000Y-96581250I0J218750D01*
G01*
X168100000Y-96143750D01*
G75*
G02*
X168318750Y-95925000I218750J0D01*
G01*
G37*
G36*
G01*
X168318750Y-94350000D02*
X168831250Y-94350000D01*
G75*
G02*
X169050000Y-94568750I0J-218750D01*
G01*
X169050000Y-95006250D01*
G75*
G02*
X168831250Y-95225000I-218750J0D01*
G01*
X168318750Y-95225000D01*
G75*
G02*
X168100000Y-95006250I0J218750D01*
G01*
X168100000Y-94568750D01*
G75*
G02*
X168318750Y-94350000I218750J0D01*
G01*
G37*
G36*
G01*
X173015000Y-92747500D02*
X173015000Y-92402500D01*
G75*
G02*
X173162500Y-92255000I147500J0D01*
G01*
X173457500Y-92255000D01*
G75*
G02*
X173605000Y-92402500I0J-147500D01*
G01*
X173605000Y-92747500D01*
G75*
G02*
X173457500Y-92895000I-147500J0D01*
G01*
X173162500Y-92895000D01*
G75*
G02*
X173015000Y-92747500I0J147500D01*
G01*
G37*
G36*
G01*
X172045000Y-92747500D02*
X172045000Y-92402500D01*
G75*
G02*
X172192500Y-92255000I147500J0D01*
G01*
X172487500Y-92255000D01*
G75*
G02*
X172635000Y-92402500I0J-147500D01*
G01*
X172635000Y-92747500D01*
G75*
G02*
X172487500Y-92895000I-147500J0D01*
G01*
X172192500Y-92895000D01*
G75*
G02*
X172045000Y-92747500I0J147500D01*
G01*
G37*
G36*
G01*
X173610000Y-98027500D02*
X173610000Y-98372500D01*
G75*
G02*
X173462500Y-98520000I-147500J0D01*
G01*
X173167500Y-98520000D01*
G75*
G02*
X173020000Y-98372500I0J147500D01*
G01*
X173020000Y-98027500D01*
G75*
G02*
X173167500Y-97880000I147500J0D01*
G01*
X173462500Y-97880000D01*
G75*
G02*
X173610000Y-98027500I0J-147500D01*
G01*
G37*
G36*
G01*
X174580000Y-98027500D02*
X174580000Y-98372500D01*
G75*
G02*
X174432500Y-98520000I-147500J0D01*
G01*
X174137500Y-98520000D01*
G75*
G02*
X173990000Y-98372500I0J147500D01*
G01*
X173990000Y-98027500D01*
G75*
G02*
X174137500Y-97880000I147500J0D01*
G01*
X174432500Y-97880000D01*
G75*
G02*
X174580000Y-98027500I0J-147500D01*
G01*
G37*
D17*
X167300000Y-101600000D03*
X166300000Y-101600000D03*
X165300000Y-101600000D03*
X164300000Y-101600000D03*
X168300000Y-102600000D03*
X167300000Y-102600000D03*
X166300000Y-102600000D03*
X165300000Y-102600000D03*
X164300000Y-102600000D03*
X168300000Y-103600000D03*
X167300000Y-103600000D03*
X166300000Y-103600000D03*
X165300000Y-103600000D03*
X164300000Y-103600000D03*
X168300000Y-104600000D03*
X167300000Y-104600000D03*
X166300000Y-104600000D03*
X165300000Y-104600000D03*
X164300000Y-104600000D03*
X168300000Y-105600000D03*
X167300000Y-105600000D03*
X166300000Y-105600000D03*
X165300000Y-105600000D03*
X164300000Y-105600000D03*
G36*
G01*
X117250000Y-82468750D02*
X117250000Y-82981250D01*
G75*
G02*
X117031250Y-83200000I-218750J0D01*
G01*
X116593750Y-83200000D01*
G75*
G02*
X116375000Y-82981250I0J218750D01*
G01*
X116375000Y-82468750D01*
G75*
G02*
X116593750Y-82250000I218750J0D01*
G01*
X117031250Y-82250000D01*
G75*
G02*
X117250000Y-82468750I0J-218750D01*
G01*
G37*
G36*
G01*
X118825000Y-82468750D02*
X118825000Y-82981250D01*
G75*
G02*
X118606250Y-83200000I-218750J0D01*
G01*
X118168750Y-83200000D01*
G75*
G02*
X117950000Y-82981250I0J218750D01*
G01*
X117950000Y-82468750D01*
G75*
G02*
X118168750Y-82250000I218750J0D01*
G01*
X118606250Y-82250000D01*
G75*
G02*
X118825000Y-82468750I0J-218750D01*
G01*
G37*
G36*
G01*
X117250000Y-77268750D02*
X117250000Y-77781250D01*
G75*
G02*
X117031250Y-78000000I-218750J0D01*
G01*
X116593750Y-78000000D01*
G75*
G02*
X116375000Y-77781250I0J218750D01*
G01*
X116375000Y-77268750D01*
G75*
G02*
X116593750Y-77050000I218750J0D01*
G01*
X117031250Y-77050000D01*
G75*
G02*
X117250000Y-77268750I0J-218750D01*
G01*
G37*
G36*
G01*
X118825000Y-77268750D02*
X118825000Y-77781250D01*
G75*
G02*
X118606250Y-78000000I-218750J0D01*
G01*
X118168750Y-78000000D01*
G75*
G02*
X117950000Y-77781250I0J218750D01*
G01*
X117950000Y-77268750D01*
G75*
G02*
X118168750Y-77050000I218750J0D01*
G01*
X118606250Y-77050000D01*
G75*
G02*
X118825000Y-77268750I0J-218750D01*
G01*
G37*
G36*
G01*
X138160000Y-107077500D02*
X138160000Y-107422500D01*
G75*
G02*
X138012500Y-107570000I-147500J0D01*
G01*
X137717500Y-107570000D01*
G75*
G02*
X137570000Y-107422500I0J147500D01*
G01*
X137570000Y-107077500D01*
G75*
G02*
X137717500Y-106930000I147500J0D01*
G01*
X138012500Y-106930000D01*
G75*
G02*
X138160000Y-107077500I0J-147500D01*
G01*
G37*
G36*
G01*
X139130000Y-107077500D02*
X139130000Y-107422500D01*
G75*
G02*
X138982500Y-107570000I-147500J0D01*
G01*
X138687500Y-107570000D01*
G75*
G02*
X138540000Y-107422500I0J147500D01*
G01*
X138540000Y-107077500D01*
G75*
G02*
X138687500Y-106930000I147500J0D01*
G01*
X138982500Y-106930000D01*
G75*
G02*
X139130000Y-107077500I0J-147500D01*
G01*
G37*
G36*
G01*
X110110000Y-81852500D02*
X110110000Y-82197500D01*
G75*
G02*
X109962500Y-82345000I-147500J0D01*
G01*
X109667500Y-82345000D01*
G75*
G02*
X109520000Y-82197500I0J147500D01*
G01*
X109520000Y-81852500D01*
G75*
G02*
X109667500Y-81705000I147500J0D01*
G01*
X109962500Y-81705000D01*
G75*
G02*
X110110000Y-81852500I0J-147500D01*
G01*
G37*
G36*
G01*
X111080000Y-81852500D02*
X111080000Y-82197500D01*
G75*
G02*
X110932500Y-82345000I-147500J0D01*
G01*
X110637500Y-82345000D01*
G75*
G02*
X110490000Y-82197500I0J147500D01*
G01*
X110490000Y-81852500D01*
G75*
G02*
X110637500Y-81705000I147500J0D01*
G01*
X110932500Y-81705000D01*
G75*
G02*
X111080000Y-81852500I0J-147500D01*
G01*
G37*
G36*
G01*
X139106250Y-104900000D02*
X138593750Y-104900000D01*
G75*
G02*
X138375000Y-104681250I0J218750D01*
G01*
X138375000Y-104243750D01*
G75*
G02*
X138593750Y-104025000I218750J0D01*
G01*
X139106250Y-104025000D01*
G75*
G02*
X139325000Y-104243750I0J-218750D01*
G01*
X139325000Y-104681250D01*
G75*
G02*
X139106250Y-104900000I-218750J0D01*
G01*
G37*
G36*
G01*
X139106250Y-106475000D02*
X138593750Y-106475000D01*
G75*
G02*
X138375000Y-106256250I0J218750D01*
G01*
X138375000Y-105818750D01*
G75*
G02*
X138593750Y-105600000I218750J0D01*
G01*
X139106250Y-105600000D01*
G75*
G02*
X139325000Y-105818750I0J-218750D01*
G01*
X139325000Y-106256250D01*
G75*
G02*
X139106250Y-106475000I-218750J0D01*
G01*
G37*
G36*
G01*
X111006250Y-79675000D02*
X110493750Y-79675000D01*
G75*
G02*
X110275000Y-79456250I0J218750D01*
G01*
X110275000Y-79018750D01*
G75*
G02*
X110493750Y-78800000I218750J0D01*
G01*
X111006250Y-78800000D01*
G75*
G02*
X111225000Y-79018750I0J-218750D01*
G01*
X111225000Y-79456250D01*
G75*
G02*
X111006250Y-79675000I-218750J0D01*
G01*
G37*
G36*
G01*
X111006250Y-81250000D02*
X110493750Y-81250000D01*
G75*
G02*
X110275000Y-81031250I0J218750D01*
G01*
X110275000Y-80593750D01*
G75*
G02*
X110493750Y-80375000I218750J0D01*
G01*
X111006250Y-80375000D01*
G75*
G02*
X111225000Y-80593750I0J-218750D01*
G01*
X111225000Y-81031250D01*
G75*
G02*
X111006250Y-81250000I-218750J0D01*
G01*
G37*
G36*
G01*
X159915000Y-92222500D02*
X159915000Y-91877500D01*
G75*
G02*
X160062500Y-91730000I147500J0D01*
G01*
X160357500Y-91730000D01*
G75*
G02*
X160505000Y-91877500I0J-147500D01*
G01*
X160505000Y-92222500D01*
G75*
G02*
X160357500Y-92370000I-147500J0D01*
G01*
X160062500Y-92370000D01*
G75*
G02*
X159915000Y-92222500I0J147500D01*
G01*
G37*
G36*
G01*
X158945000Y-92222500D02*
X158945000Y-91877500D01*
G75*
G02*
X159092500Y-91730000I147500J0D01*
G01*
X159387500Y-91730000D01*
G75*
G02*
X159535000Y-91877500I0J-147500D01*
G01*
X159535000Y-92222500D01*
G75*
G02*
X159387500Y-92370000I-147500J0D01*
G01*
X159092500Y-92370000D01*
G75*
G02*
X158945000Y-92222500I0J147500D01*
G01*
G37*
G36*
G01*
X162897500Y-90010000D02*
X162552500Y-90010000D01*
G75*
G02*
X162405000Y-89862500I0J147500D01*
G01*
X162405000Y-89567500D01*
G75*
G02*
X162552500Y-89420000I147500J0D01*
G01*
X162897500Y-89420000D01*
G75*
G02*
X163045000Y-89567500I0J-147500D01*
G01*
X163045000Y-89862500D01*
G75*
G02*
X162897500Y-90010000I-147500J0D01*
G01*
G37*
G36*
G01*
X162897500Y-90980000D02*
X162552500Y-90980000D01*
G75*
G02*
X162405000Y-90832500I0J147500D01*
G01*
X162405000Y-90537500D01*
G75*
G02*
X162552500Y-90390000I147500J0D01*
G01*
X162897500Y-90390000D01*
G75*
G02*
X163045000Y-90537500I0J-147500D01*
G01*
X163045000Y-90832500D01*
G75*
G02*
X162897500Y-90980000I-147500J0D01*
G01*
G37*
G36*
G01*
X133815000Y-102822500D02*
X133815000Y-102477500D01*
G75*
G02*
X133962500Y-102330000I147500J0D01*
G01*
X134257500Y-102330000D01*
G75*
G02*
X134405000Y-102477500I0J-147500D01*
G01*
X134405000Y-102822500D01*
G75*
G02*
X134257500Y-102970000I-147500J0D01*
G01*
X133962500Y-102970000D01*
G75*
G02*
X133815000Y-102822500I0J147500D01*
G01*
G37*
G36*
G01*
X132845000Y-102822500D02*
X132845000Y-102477500D01*
G75*
G02*
X132992500Y-102330000I147500J0D01*
G01*
X133287500Y-102330000D01*
G75*
G02*
X133435000Y-102477500I0J-147500D01*
G01*
X133435000Y-102822500D01*
G75*
G02*
X133287500Y-102970000I-147500J0D01*
G01*
X132992500Y-102970000D01*
G75*
G02*
X132845000Y-102822500I0J147500D01*
G01*
G37*
G36*
G01*
X105740000Y-77597500D02*
X105740000Y-77252500D01*
G75*
G02*
X105887500Y-77105000I147500J0D01*
G01*
X106182500Y-77105000D01*
G75*
G02*
X106330000Y-77252500I0J-147500D01*
G01*
X106330000Y-77597500D01*
G75*
G02*
X106182500Y-77745000I-147500J0D01*
G01*
X105887500Y-77745000D01*
G75*
G02*
X105740000Y-77597500I0J147500D01*
G01*
G37*
G36*
G01*
X104770000Y-77597500D02*
X104770000Y-77252500D01*
G75*
G02*
X104917500Y-77105000I147500J0D01*
G01*
X105212500Y-77105000D01*
G75*
G02*
X105360000Y-77252500I0J-147500D01*
G01*
X105360000Y-77597500D01*
G75*
G02*
X105212500Y-77745000I-147500J0D01*
G01*
X104917500Y-77745000D01*
G75*
G02*
X104770000Y-77597500I0J147500D01*
G01*
G37*
G36*
G01*
X136693750Y-105500000D02*
X137606250Y-105500000D01*
G75*
G02*
X137850000Y-105743750I0J-243750D01*
G01*
X137850000Y-106231250D01*
G75*
G02*
X137606250Y-106475000I-243750J0D01*
G01*
X136693750Y-106475000D01*
G75*
G02*
X136450000Y-106231250I0J243750D01*
G01*
X136450000Y-105743750D01*
G75*
G02*
X136693750Y-105500000I243750J0D01*
G01*
G37*
G36*
G01*
X136693750Y-103625000D02*
X137606250Y-103625000D01*
G75*
G02*
X137850000Y-103868750I0J-243750D01*
G01*
X137850000Y-104356250D01*
G75*
G02*
X137606250Y-104600000I-243750J0D01*
G01*
X136693750Y-104600000D01*
G75*
G02*
X136450000Y-104356250I0J243750D01*
G01*
X136450000Y-103868750D01*
G75*
G02*
X136693750Y-103625000I243750J0D01*
G01*
G37*
G36*
G01*
X108593750Y-80275000D02*
X109506250Y-80275000D01*
G75*
G02*
X109750000Y-80518750I0J-243750D01*
G01*
X109750000Y-81006250D01*
G75*
G02*
X109506250Y-81250000I-243750J0D01*
G01*
X108593750Y-81250000D01*
G75*
G02*
X108350000Y-81006250I0J243750D01*
G01*
X108350000Y-80518750D01*
G75*
G02*
X108593750Y-80275000I243750J0D01*
G01*
G37*
G36*
G01*
X108593750Y-78400000D02*
X109506250Y-78400000D01*
G75*
G02*
X109750000Y-78643750I0J-243750D01*
G01*
X109750000Y-79131250D01*
G75*
G02*
X109506250Y-79375000I-243750J0D01*
G01*
X108593750Y-79375000D01*
G75*
G02*
X108350000Y-79131250I0J243750D01*
G01*
X108350000Y-78643750D01*
G75*
G02*
X108593750Y-78400000I243750J0D01*
G01*
G37*
D18*
X134825000Y-83890000D03*
X130825000Y-83890000D03*
X134825000Y-82620000D03*
X130825000Y-82620000D03*
X134825000Y-81350000D03*
X130825000Y-81350000D03*
X134825000Y-80080000D03*
X130825000Y-80080000D03*
X134825000Y-78810000D03*
X130825000Y-78810000D03*
G36*
G01*
X128452500Y-105790000D02*
X128797500Y-105790000D01*
G75*
G02*
X128945000Y-105937500I0J-147500D01*
G01*
X128945000Y-106232500D01*
G75*
G02*
X128797500Y-106380000I-147500J0D01*
G01*
X128452500Y-106380000D01*
G75*
G02*
X128305000Y-106232500I0J147500D01*
G01*
X128305000Y-105937500D01*
G75*
G02*
X128452500Y-105790000I147500J0D01*
G01*
G37*
G36*
G01*
X128452500Y-104820000D02*
X128797500Y-104820000D01*
G75*
G02*
X128945000Y-104967500I0J-147500D01*
G01*
X128945000Y-105262500D01*
G75*
G02*
X128797500Y-105410000I-147500J0D01*
G01*
X128452500Y-105410000D01*
G75*
G02*
X128305000Y-105262500I0J147500D01*
G01*
X128305000Y-104967500D01*
G75*
G02*
X128452500Y-104820000I147500J0D01*
G01*
G37*
G36*
G01*
X114760000Y-89977500D02*
X114760000Y-90322500D01*
G75*
G02*
X114612500Y-90470000I-147500J0D01*
G01*
X114317500Y-90470000D01*
G75*
G02*
X114170000Y-90322500I0J147500D01*
G01*
X114170000Y-89977500D01*
G75*
G02*
X114317500Y-89830000I147500J0D01*
G01*
X114612500Y-89830000D01*
G75*
G02*
X114760000Y-89977500I0J-147500D01*
G01*
G37*
G36*
G01*
X115730000Y-89977500D02*
X115730000Y-90322500D01*
G75*
G02*
X115582500Y-90470000I-147500J0D01*
G01*
X115287500Y-90470000D01*
G75*
G02*
X115140000Y-90322500I0J147500D01*
G01*
X115140000Y-89977500D01*
G75*
G02*
X115287500Y-89830000I147500J0D01*
G01*
X115582500Y-89830000D01*
G75*
G02*
X115730000Y-89977500I0J-147500D01*
G01*
G37*
G36*
G01*
X110472500Y-101610000D02*
X110127500Y-101610000D01*
G75*
G02*
X109980000Y-101462500I0J147500D01*
G01*
X109980000Y-101167500D01*
G75*
G02*
X110127500Y-101020000I147500J0D01*
G01*
X110472500Y-101020000D01*
G75*
G02*
X110620000Y-101167500I0J-147500D01*
G01*
X110620000Y-101462500D01*
G75*
G02*
X110472500Y-101610000I-147500J0D01*
G01*
G37*
G36*
G01*
X110472500Y-102580000D02*
X110127500Y-102580000D01*
G75*
G02*
X109980000Y-102432500I0J147500D01*
G01*
X109980000Y-102137500D01*
G75*
G02*
X110127500Y-101990000I147500J0D01*
G01*
X110472500Y-101990000D01*
G75*
G02*
X110620000Y-102137500I0J-147500D01*
G01*
X110620000Y-102432500D01*
G75*
G02*
X110472500Y-102580000I-147500J0D01*
G01*
G37*
G36*
G01*
X109522500Y-101610000D02*
X109177500Y-101610000D01*
G75*
G02*
X109030000Y-101462500I0J147500D01*
G01*
X109030000Y-101167500D01*
G75*
G02*
X109177500Y-101020000I147500J0D01*
G01*
X109522500Y-101020000D01*
G75*
G02*
X109670000Y-101167500I0J-147500D01*
G01*
X109670000Y-101462500D01*
G75*
G02*
X109522500Y-101610000I-147500J0D01*
G01*
G37*
G36*
G01*
X109522500Y-102580000D02*
X109177500Y-102580000D01*
G75*
G02*
X109030000Y-102432500I0J147500D01*
G01*
X109030000Y-102137500D01*
G75*
G02*
X109177500Y-101990000I147500J0D01*
G01*
X109522500Y-101990000D01*
G75*
G02*
X109670000Y-102137500I0J-147500D01*
G01*
X109670000Y-102432500D01*
G75*
G02*
X109522500Y-102580000I-147500J0D01*
G01*
G37*
G36*
G01*
X120077500Y-100640000D02*
X120422500Y-100640000D01*
G75*
G02*
X120570000Y-100787500I0J-147500D01*
G01*
X120570000Y-101082500D01*
G75*
G02*
X120422500Y-101230000I-147500J0D01*
G01*
X120077500Y-101230000D01*
G75*
G02*
X119930000Y-101082500I0J147500D01*
G01*
X119930000Y-100787500D01*
G75*
G02*
X120077500Y-100640000I147500J0D01*
G01*
G37*
G36*
G01*
X120077500Y-99670000D02*
X120422500Y-99670000D01*
G75*
G02*
X120570000Y-99817500I0J-147500D01*
G01*
X120570000Y-100112500D01*
G75*
G02*
X120422500Y-100260000I-147500J0D01*
G01*
X120077500Y-100260000D01*
G75*
G02*
X119930000Y-100112500I0J147500D01*
G01*
X119930000Y-99817500D01*
G75*
G02*
X120077500Y-99670000I147500J0D01*
G01*
G37*
G36*
G01*
X125077500Y-100640000D02*
X125422500Y-100640000D01*
G75*
G02*
X125570000Y-100787500I0J-147500D01*
G01*
X125570000Y-101082500D01*
G75*
G02*
X125422500Y-101230000I-147500J0D01*
G01*
X125077500Y-101230000D01*
G75*
G02*
X124930000Y-101082500I0J147500D01*
G01*
X124930000Y-100787500D01*
G75*
G02*
X125077500Y-100640000I147500J0D01*
G01*
G37*
G36*
G01*
X125077500Y-99670000D02*
X125422500Y-99670000D01*
G75*
G02*
X125570000Y-99817500I0J-147500D01*
G01*
X125570000Y-100112500D01*
G75*
G02*
X125422500Y-100260000I-147500J0D01*
G01*
X125077500Y-100260000D01*
G75*
G02*
X124930000Y-100112500I0J147500D01*
G01*
X124930000Y-99817500D01*
G75*
G02*
X125077500Y-99670000I147500J0D01*
G01*
G37*
G36*
G01*
X109522500Y-95810000D02*
X109177500Y-95810000D01*
G75*
G02*
X109030000Y-95662500I0J147500D01*
G01*
X109030000Y-95367500D01*
G75*
G02*
X109177500Y-95220000I147500J0D01*
G01*
X109522500Y-95220000D01*
G75*
G02*
X109670000Y-95367500I0J-147500D01*
G01*
X109670000Y-95662500D01*
G75*
G02*
X109522500Y-95810000I-147500J0D01*
G01*
G37*
G36*
G01*
X109522500Y-96780000D02*
X109177500Y-96780000D01*
G75*
G02*
X109030000Y-96632500I0J147500D01*
G01*
X109030000Y-96337500D01*
G75*
G02*
X109177500Y-96190000I147500J0D01*
G01*
X109522500Y-96190000D01*
G75*
G02*
X109670000Y-96337500I0J-147500D01*
G01*
X109670000Y-96632500D01*
G75*
G02*
X109522500Y-96780000I-147500J0D01*
G01*
G37*
G36*
G01*
X111077500Y-96190000D02*
X111422500Y-96190000D01*
G75*
G02*
X111570000Y-96337500I0J-147500D01*
G01*
X111570000Y-96632500D01*
G75*
G02*
X111422500Y-96780000I-147500J0D01*
G01*
X111077500Y-96780000D01*
G75*
G02*
X110930000Y-96632500I0J147500D01*
G01*
X110930000Y-96337500D01*
G75*
G02*
X111077500Y-96190000I147500J0D01*
G01*
G37*
G36*
G01*
X111077500Y-95220000D02*
X111422500Y-95220000D01*
G75*
G02*
X111570000Y-95367500I0J-147500D01*
G01*
X111570000Y-95662500D01*
G75*
G02*
X111422500Y-95810000I-147500J0D01*
G01*
X111077500Y-95810000D01*
G75*
G02*
X110930000Y-95662500I0J147500D01*
G01*
X110930000Y-95367500D01*
G75*
G02*
X111077500Y-95220000I147500J0D01*
G01*
G37*
G36*
G01*
X110140000Y-88972500D02*
X110140000Y-88627500D01*
G75*
G02*
X110287500Y-88480000I147500J0D01*
G01*
X110582500Y-88480000D01*
G75*
G02*
X110730000Y-88627500I0J-147500D01*
G01*
X110730000Y-88972500D01*
G75*
G02*
X110582500Y-89120000I-147500J0D01*
G01*
X110287500Y-89120000D01*
G75*
G02*
X110140000Y-88972500I0J147500D01*
G01*
G37*
G36*
G01*
X109170000Y-88972500D02*
X109170000Y-88627500D01*
G75*
G02*
X109317500Y-88480000I147500J0D01*
G01*
X109612500Y-88480000D01*
G75*
G02*
X109760000Y-88627500I0J-147500D01*
G01*
X109760000Y-88972500D01*
G75*
G02*
X109612500Y-89120000I-147500J0D01*
G01*
X109317500Y-89120000D01*
G75*
G02*
X109170000Y-88972500I0J147500D01*
G01*
G37*
G36*
G01*
X110140000Y-93572500D02*
X110140000Y-93227500D01*
G75*
G02*
X110287500Y-93080000I147500J0D01*
G01*
X110582500Y-93080000D01*
G75*
G02*
X110730000Y-93227500I0J-147500D01*
G01*
X110730000Y-93572500D01*
G75*
G02*
X110582500Y-93720000I-147500J0D01*
G01*
X110287500Y-93720000D01*
G75*
G02*
X110140000Y-93572500I0J147500D01*
G01*
G37*
G36*
G01*
X109170000Y-93572500D02*
X109170000Y-93227500D01*
G75*
G02*
X109317500Y-93080000I147500J0D01*
G01*
X109612500Y-93080000D01*
G75*
G02*
X109760000Y-93227500I0J-147500D01*
G01*
X109760000Y-93572500D01*
G75*
G02*
X109612500Y-93720000I-147500J0D01*
G01*
X109317500Y-93720000D01*
G75*
G02*
X109170000Y-93572500I0J147500D01*
G01*
G37*
G36*
G01*
X113927500Y-86790000D02*
X114272500Y-86790000D01*
G75*
G02*
X114420000Y-86937500I0J-147500D01*
G01*
X114420000Y-87232500D01*
G75*
G02*
X114272500Y-87380000I-147500J0D01*
G01*
X113927500Y-87380000D01*
G75*
G02*
X113780000Y-87232500I0J147500D01*
G01*
X113780000Y-86937500D01*
G75*
G02*
X113927500Y-86790000I147500J0D01*
G01*
G37*
G36*
G01*
X113927500Y-85820000D02*
X114272500Y-85820000D01*
G75*
G02*
X114420000Y-85967500I0J-147500D01*
G01*
X114420000Y-86262500D01*
G75*
G02*
X114272500Y-86410000I-147500J0D01*
G01*
X113927500Y-86410000D01*
G75*
G02*
X113780000Y-86262500I0J147500D01*
G01*
X113780000Y-85967500D01*
G75*
G02*
X113927500Y-85820000I147500J0D01*
G01*
G37*
G36*
G01*
X113272500Y-86410000D02*
X112927500Y-86410000D01*
G75*
G02*
X112780000Y-86262500I0J147500D01*
G01*
X112780000Y-85967500D01*
G75*
G02*
X112927500Y-85820000I147500J0D01*
G01*
X113272500Y-85820000D01*
G75*
G02*
X113420000Y-85967500I0J-147500D01*
G01*
X113420000Y-86262500D01*
G75*
G02*
X113272500Y-86410000I-147500J0D01*
G01*
G37*
G36*
G01*
X113272500Y-87380000D02*
X112927500Y-87380000D01*
G75*
G02*
X112780000Y-87232500I0J147500D01*
G01*
X112780000Y-86937500D01*
G75*
G02*
X112927500Y-86790000I147500J0D01*
G01*
X113272500Y-86790000D01*
G75*
G02*
X113420000Y-86937500I0J-147500D01*
G01*
X113420000Y-87232500D01*
G75*
G02*
X113272500Y-87380000I-147500J0D01*
G01*
G37*
G36*
G01*
X107590000Y-97972500D02*
X107590000Y-97627500D01*
G75*
G02*
X107737500Y-97480000I147500J0D01*
G01*
X108032500Y-97480000D01*
G75*
G02*
X108180000Y-97627500I0J-147500D01*
G01*
X108180000Y-97972500D01*
G75*
G02*
X108032500Y-98120000I-147500J0D01*
G01*
X107737500Y-98120000D01*
G75*
G02*
X107590000Y-97972500I0J147500D01*
G01*
G37*
G36*
G01*
X106620000Y-97972500D02*
X106620000Y-97627500D01*
G75*
G02*
X106767500Y-97480000I147500J0D01*
G01*
X107062500Y-97480000D01*
G75*
G02*
X107210000Y-97627500I0J-147500D01*
G01*
X107210000Y-97972500D01*
G75*
G02*
X107062500Y-98120000I-147500J0D01*
G01*
X106767500Y-98120000D01*
G75*
G02*
X106620000Y-97972500I0J147500D01*
G01*
G37*
G36*
G01*
X109927500Y-86790000D02*
X110272500Y-86790000D01*
G75*
G02*
X110420000Y-86937500I0J-147500D01*
G01*
X110420000Y-87232500D01*
G75*
G02*
X110272500Y-87380000I-147500J0D01*
G01*
X109927500Y-87380000D01*
G75*
G02*
X109780000Y-87232500I0J147500D01*
G01*
X109780000Y-86937500D01*
G75*
G02*
X109927500Y-86790000I147500J0D01*
G01*
G37*
G36*
G01*
X109927500Y-85820000D02*
X110272500Y-85820000D01*
G75*
G02*
X110420000Y-85967500I0J-147500D01*
G01*
X110420000Y-86262500D01*
G75*
G02*
X110272500Y-86410000I-147500J0D01*
G01*
X109927500Y-86410000D01*
G75*
G02*
X109780000Y-86262500I0J147500D01*
G01*
X109780000Y-85967500D01*
G75*
G02*
X109927500Y-85820000I147500J0D01*
G01*
G37*
G36*
G01*
X121077500Y-100640000D02*
X121422500Y-100640000D01*
G75*
G02*
X121570000Y-100787500I0J-147500D01*
G01*
X121570000Y-101082500D01*
G75*
G02*
X121422500Y-101230000I-147500J0D01*
G01*
X121077500Y-101230000D01*
G75*
G02*
X120930000Y-101082500I0J147500D01*
G01*
X120930000Y-100787500D01*
G75*
G02*
X121077500Y-100640000I147500J0D01*
G01*
G37*
G36*
G01*
X121077500Y-99670000D02*
X121422500Y-99670000D01*
G75*
G02*
X121570000Y-99817500I0J-147500D01*
G01*
X121570000Y-100112500D01*
G75*
G02*
X121422500Y-100260000I-147500J0D01*
G01*
X121077500Y-100260000D01*
G75*
G02*
X120930000Y-100112500I0J147500D01*
G01*
X120930000Y-99817500D01*
G75*
G02*
X121077500Y-99670000I147500J0D01*
G01*
G37*
G36*
G01*
X117077500Y-100640000D02*
X117422500Y-100640000D01*
G75*
G02*
X117570000Y-100787500I0J-147500D01*
G01*
X117570000Y-101082500D01*
G75*
G02*
X117422500Y-101230000I-147500J0D01*
G01*
X117077500Y-101230000D01*
G75*
G02*
X116930000Y-101082500I0J147500D01*
G01*
X116930000Y-100787500D01*
G75*
G02*
X117077500Y-100640000I147500J0D01*
G01*
G37*
G36*
G01*
X117077500Y-99670000D02*
X117422500Y-99670000D01*
G75*
G02*
X117570000Y-99817500I0J-147500D01*
G01*
X117570000Y-100112500D01*
G75*
G02*
X117422500Y-100260000I-147500J0D01*
G01*
X117077500Y-100260000D01*
G75*
G02*
X116930000Y-100112500I0J147500D01*
G01*
X116930000Y-99817500D01*
G75*
G02*
X117077500Y-99670000I147500J0D01*
G01*
G37*
G36*
G01*
X117872500Y-87110000D02*
X117527500Y-87110000D01*
G75*
G02*
X117380000Y-86962500I0J147500D01*
G01*
X117380000Y-86667500D01*
G75*
G02*
X117527500Y-86520000I147500J0D01*
G01*
X117872500Y-86520000D01*
G75*
G02*
X118020000Y-86667500I0J-147500D01*
G01*
X118020000Y-86962500D01*
G75*
G02*
X117872500Y-87110000I-147500J0D01*
G01*
G37*
G36*
G01*
X117872500Y-88080000D02*
X117527500Y-88080000D01*
G75*
G02*
X117380000Y-87932500I0J147500D01*
G01*
X117380000Y-87637500D01*
G75*
G02*
X117527500Y-87490000I147500J0D01*
G01*
X117872500Y-87490000D01*
G75*
G02*
X118020000Y-87637500I0J-147500D01*
G01*
X118020000Y-87932500D01*
G75*
G02*
X117872500Y-88080000I-147500J0D01*
G01*
G37*
G36*
G01*
X115590000Y-103822500D02*
X115590000Y-103477500D01*
G75*
G02*
X115737500Y-103330000I147500J0D01*
G01*
X116032500Y-103330000D01*
G75*
G02*
X116180000Y-103477500I0J-147500D01*
G01*
X116180000Y-103822500D01*
G75*
G02*
X116032500Y-103970000I-147500J0D01*
G01*
X115737500Y-103970000D01*
G75*
G02*
X115590000Y-103822500I0J147500D01*
G01*
G37*
G36*
G01*
X114620000Y-103822500D02*
X114620000Y-103477500D01*
G75*
G02*
X114767500Y-103330000I147500J0D01*
G01*
X115062500Y-103330000D01*
G75*
G02*
X115210000Y-103477500I0J-147500D01*
G01*
X115210000Y-103822500D01*
G75*
G02*
X115062500Y-103970000I-147500J0D01*
G01*
X114767500Y-103970000D01*
G75*
G02*
X114620000Y-103822500I0J147500D01*
G01*
G37*
G36*
G01*
X111077500Y-101990000D02*
X111422500Y-101990000D01*
G75*
G02*
X111570000Y-102137500I0J-147500D01*
G01*
X111570000Y-102432500D01*
G75*
G02*
X111422500Y-102580000I-147500J0D01*
G01*
X111077500Y-102580000D01*
G75*
G02*
X110930000Y-102432500I0J147500D01*
G01*
X110930000Y-102137500D01*
G75*
G02*
X111077500Y-101990000I147500J0D01*
G01*
G37*
G36*
G01*
X111077500Y-101020000D02*
X111422500Y-101020000D01*
G75*
G02*
X111570000Y-101167500I0J-147500D01*
G01*
X111570000Y-101462500D01*
G75*
G02*
X111422500Y-101610000I-147500J0D01*
G01*
X111077500Y-101610000D01*
G75*
G02*
X110930000Y-101462500I0J147500D01*
G01*
X110930000Y-101167500D01*
G75*
G02*
X111077500Y-101020000I147500J0D01*
G01*
G37*
G36*
G01*
X114710000Y-93477500D02*
X114710000Y-93822500D01*
G75*
G02*
X114562500Y-93970000I-147500J0D01*
G01*
X114267500Y-93970000D01*
G75*
G02*
X114120000Y-93822500I0J147500D01*
G01*
X114120000Y-93477500D01*
G75*
G02*
X114267500Y-93330000I147500J0D01*
G01*
X114562500Y-93330000D01*
G75*
G02*
X114710000Y-93477500I0J-147500D01*
G01*
G37*
G36*
G01*
X115680000Y-93477500D02*
X115680000Y-93822500D01*
G75*
G02*
X115532500Y-93970000I-147500J0D01*
G01*
X115237500Y-93970000D01*
G75*
G02*
X115090000Y-93822500I0J147500D01*
G01*
X115090000Y-93477500D01*
G75*
G02*
X115237500Y-93330000I147500J0D01*
G01*
X115532500Y-93330000D01*
G75*
G02*
X115680000Y-93477500I0J-147500D01*
G01*
G37*
G36*
G01*
X112272500Y-86410000D02*
X111927500Y-86410000D01*
G75*
G02*
X111780000Y-86262500I0J147500D01*
G01*
X111780000Y-85967500D01*
G75*
G02*
X111927500Y-85820000I147500J0D01*
G01*
X112272500Y-85820000D01*
G75*
G02*
X112420000Y-85967500I0J-147500D01*
G01*
X112420000Y-86262500D01*
G75*
G02*
X112272500Y-86410000I-147500J0D01*
G01*
G37*
G36*
G01*
X112272500Y-87380000D02*
X111927500Y-87380000D01*
G75*
G02*
X111780000Y-87232500I0J147500D01*
G01*
X111780000Y-86937500D01*
G75*
G02*
X111927500Y-86790000I147500J0D01*
G01*
X112272500Y-86790000D01*
G75*
G02*
X112420000Y-86937500I0J-147500D01*
G01*
X112420000Y-87232500D01*
G75*
G02*
X112272500Y-87380000I-147500J0D01*
G01*
G37*
G36*
G01*
X120922500Y-87110000D02*
X120577500Y-87110000D01*
G75*
G02*
X120430000Y-86962500I0J147500D01*
G01*
X120430000Y-86667500D01*
G75*
G02*
X120577500Y-86520000I147500J0D01*
G01*
X120922500Y-86520000D01*
G75*
G02*
X121070000Y-86667500I0J-147500D01*
G01*
X121070000Y-86962500D01*
G75*
G02*
X120922500Y-87110000I-147500J0D01*
G01*
G37*
G36*
G01*
X120922500Y-88080000D02*
X120577500Y-88080000D01*
G75*
G02*
X120430000Y-87932500I0J147500D01*
G01*
X120430000Y-87637500D01*
G75*
G02*
X120577500Y-87490000I147500J0D01*
G01*
X120922500Y-87490000D01*
G75*
G02*
X121070000Y-87637500I0J-147500D01*
G01*
X121070000Y-87932500D01*
G75*
G02*
X120922500Y-88080000I-147500J0D01*
G01*
G37*
G36*
G01*
X114710000Y-97477500D02*
X114710000Y-97822500D01*
G75*
G02*
X114562500Y-97970000I-147500J0D01*
G01*
X114267500Y-97970000D01*
G75*
G02*
X114120000Y-97822500I0J147500D01*
G01*
X114120000Y-97477500D01*
G75*
G02*
X114267500Y-97330000I147500J0D01*
G01*
X114562500Y-97330000D01*
G75*
G02*
X114710000Y-97477500I0J-147500D01*
G01*
G37*
G36*
G01*
X115680000Y-97477500D02*
X115680000Y-97822500D01*
G75*
G02*
X115532500Y-97970000I-147500J0D01*
G01*
X115237500Y-97970000D01*
G75*
G02*
X115090000Y-97822500I0J147500D01*
G01*
X115090000Y-97477500D01*
G75*
G02*
X115237500Y-97330000I147500J0D01*
G01*
X115532500Y-97330000D01*
G75*
G02*
X115680000Y-97477500I0J-147500D01*
G01*
G37*
G36*
G01*
X128290000Y-90822500D02*
X128290000Y-90477500D01*
G75*
G02*
X128437500Y-90330000I147500J0D01*
G01*
X128732500Y-90330000D01*
G75*
G02*
X128880000Y-90477500I0J-147500D01*
G01*
X128880000Y-90822500D01*
G75*
G02*
X128732500Y-90970000I-147500J0D01*
G01*
X128437500Y-90970000D01*
G75*
G02*
X128290000Y-90822500I0J147500D01*
G01*
G37*
G36*
G01*
X127320000Y-90822500D02*
X127320000Y-90477500D01*
G75*
G02*
X127467500Y-90330000I147500J0D01*
G01*
X127762500Y-90330000D01*
G75*
G02*
X127910000Y-90477500I0J-147500D01*
G01*
X127910000Y-90822500D01*
G75*
G02*
X127762500Y-90970000I-147500J0D01*
G01*
X127467500Y-90970000D01*
G75*
G02*
X127320000Y-90822500I0J147500D01*
G01*
G37*
G36*
G01*
X123422500Y-87110000D02*
X123077500Y-87110000D01*
G75*
G02*
X122930000Y-86962500I0J147500D01*
G01*
X122930000Y-86667500D01*
G75*
G02*
X123077500Y-86520000I147500J0D01*
G01*
X123422500Y-86520000D01*
G75*
G02*
X123570000Y-86667500I0J-147500D01*
G01*
X123570000Y-86962500D01*
G75*
G02*
X123422500Y-87110000I-147500J0D01*
G01*
G37*
G36*
G01*
X123422500Y-88080000D02*
X123077500Y-88080000D01*
G75*
G02*
X122930000Y-87932500I0J147500D01*
G01*
X122930000Y-87637500D01*
G75*
G02*
X123077500Y-87490000I147500J0D01*
G01*
X123422500Y-87490000D01*
G75*
G02*
X123570000Y-87637500I0J-147500D01*
G01*
X123570000Y-87932500D01*
G75*
G02*
X123422500Y-88080000I-147500J0D01*
G01*
G37*
G36*
G01*
X109272500Y-86410000D02*
X108927500Y-86410000D01*
G75*
G02*
X108780000Y-86262500I0J147500D01*
G01*
X108780000Y-85967500D01*
G75*
G02*
X108927500Y-85820000I147500J0D01*
G01*
X109272500Y-85820000D01*
G75*
G02*
X109420000Y-85967500I0J-147500D01*
G01*
X109420000Y-86262500D01*
G75*
G02*
X109272500Y-86410000I-147500J0D01*
G01*
G37*
G36*
G01*
X109272500Y-87380000D02*
X108927500Y-87380000D01*
G75*
G02*
X108780000Y-87232500I0J147500D01*
G01*
X108780000Y-86937500D01*
G75*
G02*
X108927500Y-86790000I147500J0D01*
G01*
X109272500Y-86790000D01*
G75*
G02*
X109420000Y-86937500I0J-147500D01*
G01*
X109420000Y-87232500D01*
G75*
G02*
X109272500Y-87380000I-147500J0D01*
G01*
G37*
G36*
G01*
X128290000Y-96322500D02*
X128290000Y-95977500D01*
G75*
G02*
X128437500Y-95830000I147500J0D01*
G01*
X128732500Y-95830000D01*
G75*
G02*
X128880000Y-95977500I0J-147500D01*
G01*
X128880000Y-96322500D01*
G75*
G02*
X128732500Y-96470000I-147500J0D01*
G01*
X128437500Y-96470000D01*
G75*
G02*
X128290000Y-96322500I0J147500D01*
G01*
G37*
G36*
G01*
X127320000Y-96322500D02*
X127320000Y-95977500D01*
G75*
G02*
X127467500Y-95830000I147500J0D01*
G01*
X127762500Y-95830000D01*
G75*
G02*
X127910000Y-95977500I0J-147500D01*
G01*
X127910000Y-96322500D01*
G75*
G02*
X127762500Y-96470000I-147500J0D01*
G01*
X127467500Y-96470000D01*
G75*
G02*
X127320000Y-96322500I0J147500D01*
G01*
G37*
G36*
G01*
X124077500Y-100640000D02*
X124422500Y-100640000D01*
G75*
G02*
X124570000Y-100787500I0J-147500D01*
G01*
X124570000Y-101082500D01*
G75*
G02*
X124422500Y-101230000I-147500J0D01*
G01*
X124077500Y-101230000D01*
G75*
G02*
X123930000Y-101082500I0J147500D01*
G01*
X123930000Y-100787500D01*
G75*
G02*
X124077500Y-100640000I147500J0D01*
G01*
G37*
G36*
G01*
X124077500Y-99670000D02*
X124422500Y-99670000D01*
G75*
G02*
X124570000Y-99817500I0J-147500D01*
G01*
X124570000Y-100112500D01*
G75*
G02*
X124422500Y-100260000I-147500J0D01*
G01*
X124077500Y-100260000D01*
G75*
G02*
X123930000Y-100112500I0J147500D01*
G01*
X123930000Y-99817500D01*
G75*
G02*
X124077500Y-99670000I147500J0D01*
G01*
G37*
G36*
G01*
X114927500Y-86790000D02*
X115272500Y-86790000D01*
G75*
G02*
X115420000Y-86937500I0J-147500D01*
G01*
X115420000Y-87232500D01*
G75*
G02*
X115272500Y-87380000I-147500J0D01*
G01*
X114927500Y-87380000D01*
G75*
G02*
X114780000Y-87232500I0J147500D01*
G01*
X114780000Y-86937500D01*
G75*
G02*
X114927500Y-86790000I147500J0D01*
G01*
G37*
G36*
G01*
X114927500Y-85820000D02*
X115272500Y-85820000D01*
G75*
G02*
X115420000Y-85967500I0J-147500D01*
G01*
X115420000Y-86262500D01*
G75*
G02*
X115272500Y-86410000I-147500J0D01*
G01*
X114927500Y-86410000D01*
G75*
G02*
X114780000Y-86262500I0J147500D01*
G01*
X114780000Y-85967500D01*
G75*
G02*
X114927500Y-85820000I147500J0D01*
G01*
G37*
G36*
G01*
X122077500Y-100640000D02*
X122422500Y-100640000D01*
G75*
G02*
X122570000Y-100787500I0J-147500D01*
G01*
X122570000Y-101082500D01*
G75*
G02*
X122422500Y-101230000I-147500J0D01*
G01*
X122077500Y-101230000D01*
G75*
G02*
X121930000Y-101082500I0J147500D01*
G01*
X121930000Y-100787500D01*
G75*
G02*
X122077500Y-100640000I147500J0D01*
G01*
G37*
G36*
G01*
X122077500Y-99670000D02*
X122422500Y-99670000D01*
G75*
G02*
X122570000Y-99817500I0J-147500D01*
G01*
X122570000Y-100112500D01*
G75*
G02*
X122422500Y-100260000I-147500J0D01*
G01*
X122077500Y-100260000D01*
G75*
G02*
X121930000Y-100112500I0J147500D01*
G01*
X121930000Y-99817500D01*
G75*
G02*
X122077500Y-99670000I147500J0D01*
G01*
G37*
G36*
G01*
X119077500Y-100640000D02*
X119422500Y-100640000D01*
G75*
G02*
X119570000Y-100787500I0J-147500D01*
G01*
X119570000Y-101082500D01*
G75*
G02*
X119422500Y-101230000I-147500J0D01*
G01*
X119077500Y-101230000D01*
G75*
G02*
X118930000Y-101082500I0J147500D01*
G01*
X118930000Y-100787500D01*
G75*
G02*
X119077500Y-100640000I147500J0D01*
G01*
G37*
G36*
G01*
X119077500Y-99670000D02*
X119422500Y-99670000D01*
G75*
G02*
X119570000Y-99817500I0J-147500D01*
G01*
X119570000Y-100112500D01*
G75*
G02*
X119422500Y-100260000I-147500J0D01*
G01*
X119077500Y-100260000D01*
G75*
G02*
X118930000Y-100112500I0J147500D01*
G01*
X118930000Y-99817500D01*
G75*
G02*
X119077500Y-99670000I147500J0D01*
G01*
G37*
G36*
G01*
X107590000Y-96972500D02*
X107590000Y-96627500D01*
G75*
G02*
X107737500Y-96480000I147500J0D01*
G01*
X108032500Y-96480000D01*
G75*
G02*
X108180000Y-96627500I0J-147500D01*
G01*
X108180000Y-96972500D01*
G75*
G02*
X108032500Y-97120000I-147500J0D01*
G01*
X107737500Y-97120000D01*
G75*
G02*
X107590000Y-96972500I0J147500D01*
G01*
G37*
G36*
G01*
X106620000Y-96972500D02*
X106620000Y-96627500D01*
G75*
G02*
X106767500Y-96480000I147500J0D01*
G01*
X107062500Y-96480000D01*
G75*
G02*
X107210000Y-96627500I0J-147500D01*
G01*
X107210000Y-96972500D01*
G75*
G02*
X107062500Y-97120000I-147500J0D01*
G01*
X106767500Y-97120000D01*
G75*
G02*
X106620000Y-96972500I0J147500D01*
G01*
G37*
G36*
G01*
X160790000Y-80472500D02*
X160790000Y-80127500D01*
G75*
G02*
X160937500Y-79980000I147500J0D01*
G01*
X161232500Y-79980000D01*
G75*
G02*
X161380000Y-80127500I0J-147500D01*
G01*
X161380000Y-80472500D01*
G75*
G02*
X161232500Y-80620000I-147500J0D01*
G01*
X160937500Y-80620000D01*
G75*
G02*
X160790000Y-80472500I0J147500D01*
G01*
G37*
G36*
G01*
X159820000Y-80472500D02*
X159820000Y-80127500D01*
G75*
G02*
X159967500Y-79980000I147500J0D01*
G01*
X160262500Y-79980000D01*
G75*
G02*
X160410000Y-80127500I0J-147500D01*
G01*
X160410000Y-80472500D01*
G75*
G02*
X160262500Y-80620000I-147500J0D01*
G01*
X159967500Y-80620000D01*
G75*
G02*
X159820000Y-80472500I0J147500D01*
G01*
G37*
G36*
G01*
X160790000Y-81472500D02*
X160790000Y-81127500D01*
G75*
G02*
X160937500Y-80980000I147500J0D01*
G01*
X161232500Y-80980000D01*
G75*
G02*
X161380000Y-81127500I0J-147500D01*
G01*
X161380000Y-81472500D01*
G75*
G02*
X161232500Y-81620000I-147500J0D01*
G01*
X160937500Y-81620000D01*
G75*
G02*
X160790000Y-81472500I0J147500D01*
G01*
G37*
G36*
G01*
X159820000Y-81472500D02*
X159820000Y-81127500D01*
G75*
G02*
X159967500Y-80980000I147500J0D01*
G01*
X160262500Y-80980000D01*
G75*
G02*
X160410000Y-81127500I0J-147500D01*
G01*
X160410000Y-81472500D01*
G75*
G02*
X160262500Y-81620000I-147500J0D01*
G01*
X159967500Y-81620000D01*
G75*
G02*
X159820000Y-81472500I0J147500D01*
G01*
G37*
G36*
G01*
X160410000Y-82127500D02*
X160410000Y-82472500D01*
G75*
G02*
X160262500Y-82620000I-147500J0D01*
G01*
X159967500Y-82620000D01*
G75*
G02*
X159820000Y-82472500I0J147500D01*
G01*
X159820000Y-82127500D01*
G75*
G02*
X159967500Y-81980000I147500J0D01*
G01*
X160262500Y-81980000D01*
G75*
G02*
X160410000Y-82127500I0J-147500D01*
G01*
G37*
G36*
G01*
X161380000Y-82127500D02*
X161380000Y-82472500D01*
G75*
G02*
X161232500Y-82620000I-147500J0D01*
G01*
X160937500Y-82620000D01*
G75*
G02*
X160790000Y-82472500I0J147500D01*
G01*
X160790000Y-82127500D01*
G75*
G02*
X160937500Y-81980000I147500J0D01*
G01*
X161232500Y-81980000D01*
G75*
G02*
X161380000Y-82127500I0J-147500D01*
G01*
G37*
G36*
G01*
X160250000Y-83293750D02*
X160250000Y-83806250D01*
G75*
G02*
X160031250Y-84025000I-218750J0D01*
G01*
X159593750Y-84025000D01*
G75*
G02*
X159375000Y-83806250I0J218750D01*
G01*
X159375000Y-83293750D01*
G75*
G02*
X159593750Y-83075000I218750J0D01*
G01*
X160031250Y-83075000D01*
G75*
G02*
X160250000Y-83293750I0J-218750D01*
G01*
G37*
G36*
G01*
X161825000Y-83293750D02*
X161825000Y-83806250D01*
G75*
G02*
X161606250Y-84025000I-218750J0D01*
G01*
X161168750Y-84025000D01*
G75*
G02*
X160950000Y-83806250I0J218750D01*
G01*
X160950000Y-83293750D01*
G75*
G02*
X161168750Y-83075000I218750J0D01*
G01*
X161606250Y-83075000D01*
G75*
G02*
X161825000Y-83293750I0J-218750D01*
G01*
G37*
G36*
G01*
X128452500Y-108590000D02*
X128797500Y-108590000D01*
G75*
G02*
X128945000Y-108737500I0J-147500D01*
G01*
X128945000Y-109032500D01*
G75*
G02*
X128797500Y-109180000I-147500J0D01*
G01*
X128452500Y-109180000D01*
G75*
G02*
X128305000Y-109032500I0J147500D01*
G01*
X128305000Y-108737500D01*
G75*
G02*
X128452500Y-108590000I147500J0D01*
G01*
G37*
G36*
G01*
X128452500Y-107620000D02*
X128797500Y-107620000D01*
G75*
G02*
X128945000Y-107767500I0J-147500D01*
G01*
X128945000Y-108062500D01*
G75*
G02*
X128797500Y-108210000I-147500J0D01*
G01*
X128452500Y-108210000D01*
G75*
G02*
X128305000Y-108062500I0J147500D01*
G01*
X128305000Y-107767500D01*
G75*
G02*
X128452500Y-107620000I147500J0D01*
G01*
G37*
G36*
G01*
X136802500Y-79790000D02*
X137147500Y-79790000D01*
G75*
G02*
X137295000Y-79937500I0J-147500D01*
G01*
X137295000Y-80232500D01*
G75*
G02*
X137147500Y-80380000I-147500J0D01*
G01*
X136802500Y-80380000D01*
G75*
G02*
X136655000Y-80232500I0J147500D01*
G01*
X136655000Y-79937500D01*
G75*
G02*
X136802500Y-79790000I147500J0D01*
G01*
G37*
G36*
G01*
X136802500Y-78820000D02*
X137147500Y-78820000D01*
G75*
G02*
X137295000Y-78967500I0J-147500D01*
G01*
X137295000Y-79262500D01*
G75*
G02*
X137147500Y-79410000I-147500J0D01*
G01*
X136802500Y-79410000D01*
G75*
G02*
X136655000Y-79262500I0J147500D01*
G01*
X136655000Y-78967500D01*
G75*
G02*
X136802500Y-78820000I147500J0D01*
G01*
G37*
G36*
G01*
X155990000Y-87397500D02*
X155990000Y-87052500D01*
G75*
G02*
X156137500Y-86905000I147500J0D01*
G01*
X156432500Y-86905000D01*
G75*
G02*
X156580000Y-87052500I0J-147500D01*
G01*
X156580000Y-87397500D01*
G75*
G02*
X156432500Y-87545000I-147500J0D01*
G01*
X156137500Y-87545000D01*
G75*
G02*
X155990000Y-87397500I0J147500D01*
G01*
G37*
G36*
G01*
X155020000Y-87397500D02*
X155020000Y-87052500D01*
G75*
G02*
X155167500Y-86905000I147500J0D01*
G01*
X155462500Y-86905000D01*
G75*
G02*
X155610000Y-87052500I0J-147500D01*
G01*
X155610000Y-87397500D01*
G75*
G02*
X155462500Y-87545000I-147500J0D01*
G01*
X155167500Y-87545000D01*
G75*
G02*
X155020000Y-87397500I0J147500D01*
G01*
G37*
G36*
G01*
X153660000Y-87052500D02*
X153660000Y-87397500D01*
G75*
G02*
X153512500Y-87545000I-147500J0D01*
G01*
X153217500Y-87545000D01*
G75*
G02*
X153070000Y-87397500I0J147500D01*
G01*
X153070000Y-87052500D01*
G75*
G02*
X153217500Y-86905000I147500J0D01*
G01*
X153512500Y-86905000D01*
G75*
G02*
X153660000Y-87052500I0J-147500D01*
G01*
G37*
G36*
G01*
X154630000Y-87052500D02*
X154630000Y-87397500D01*
G75*
G02*
X154482500Y-87545000I-147500J0D01*
G01*
X154187500Y-87545000D01*
G75*
G02*
X154040000Y-87397500I0J147500D01*
G01*
X154040000Y-87052500D01*
G75*
G02*
X154187500Y-86905000I147500J0D01*
G01*
X154482500Y-86905000D01*
G75*
G02*
X154630000Y-87052500I0J-147500D01*
G01*
G37*
G36*
G01*
X137502500Y-101565000D02*
X137847500Y-101565000D01*
G75*
G02*
X137995000Y-101712500I0J-147500D01*
G01*
X137995000Y-102007500D01*
G75*
G02*
X137847500Y-102155000I-147500J0D01*
G01*
X137502500Y-102155000D01*
G75*
G02*
X137355000Y-102007500I0J147500D01*
G01*
X137355000Y-101712500D01*
G75*
G02*
X137502500Y-101565000I147500J0D01*
G01*
G37*
G36*
G01*
X137502500Y-100595000D02*
X137847500Y-100595000D01*
G75*
G02*
X137995000Y-100742500I0J-147500D01*
G01*
X137995000Y-101037500D01*
G75*
G02*
X137847500Y-101185000I-147500J0D01*
G01*
X137502500Y-101185000D01*
G75*
G02*
X137355000Y-101037500I0J147500D01*
G01*
X137355000Y-100742500D01*
G75*
G02*
X137502500Y-100595000I147500J0D01*
G01*
G37*
G36*
G01*
X152090000Y-87397500D02*
X152090000Y-87052500D01*
G75*
G02*
X152237500Y-86905000I147500J0D01*
G01*
X152532500Y-86905000D01*
G75*
G02*
X152680000Y-87052500I0J-147500D01*
G01*
X152680000Y-87397500D01*
G75*
G02*
X152532500Y-87545000I-147500J0D01*
G01*
X152237500Y-87545000D01*
G75*
G02*
X152090000Y-87397500I0J147500D01*
G01*
G37*
G36*
G01*
X151120000Y-87397500D02*
X151120000Y-87052500D01*
G75*
G02*
X151267500Y-86905000I147500J0D01*
G01*
X151562500Y-86905000D01*
G75*
G02*
X151710000Y-87052500I0J-147500D01*
G01*
X151710000Y-87397500D01*
G75*
G02*
X151562500Y-87545000I-147500J0D01*
G01*
X151267500Y-87545000D01*
G75*
G02*
X151120000Y-87397500I0J147500D01*
G01*
G37*
G36*
G01*
X132460000Y-107077500D02*
X132460000Y-107422500D01*
G75*
G02*
X132312500Y-107570000I-147500J0D01*
G01*
X132017500Y-107570000D01*
G75*
G02*
X131870000Y-107422500I0J147500D01*
G01*
X131870000Y-107077500D01*
G75*
G02*
X132017500Y-106930000I147500J0D01*
G01*
X132312500Y-106930000D01*
G75*
G02*
X132460000Y-107077500I0J-147500D01*
G01*
G37*
G36*
G01*
X133430000Y-107077500D02*
X133430000Y-107422500D01*
G75*
G02*
X133282500Y-107570000I-147500J0D01*
G01*
X132987500Y-107570000D01*
G75*
G02*
X132840000Y-107422500I0J147500D01*
G01*
X132840000Y-107077500D01*
G75*
G02*
X132987500Y-106930000I147500J0D01*
G01*
X133282500Y-106930000D01*
G75*
G02*
X133430000Y-107077500I0J-147500D01*
G01*
G37*
G36*
G01*
X134360000Y-107077500D02*
X134360000Y-107422500D01*
G75*
G02*
X134212500Y-107570000I-147500J0D01*
G01*
X133917500Y-107570000D01*
G75*
G02*
X133770000Y-107422500I0J147500D01*
G01*
X133770000Y-107077500D01*
G75*
G02*
X133917500Y-106930000I147500J0D01*
G01*
X134212500Y-106930000D01*
G75*
G02*
X134360000Y-107077500I0J-147500D01*
G01*
G37*
G36*
G01*
X135330000Y-107077500D02*
X135330000Y-107422500D01*
G75*
G02*
X135182500Y-107570000I-147500J0D01*
G01*
X134887500Y-107570000D01*
G75*
G02*
X134740000Y-107422500I0J147500D01*
G01*
X134740000Y-107077500D01*
G75*
G02*
X134887500Y-106930000I147500J0D01*
G01*
X135182500Y-106930000D01*
G75*
G02*
X135330000Y-107077500I0J-147500D01*
G01*
G37*
G36*
G01*
X104410000Y-81852500D02*
X104410000Y-82197500D01*
G75*
G02*
X104262500Y-82345000I-147500J0D01*
G01*
X103967500Y-82345000D01*
G75*
G02*
X103820000Y-82197500I0J147500D01*
G01*
X103820000Y-81852500D01*
G75*
G02*
X103967500Y-81705000I147500J0D01*
G01*
X104262500Y-81705000D01*
G75*
G02*
X104410000Y-81852500I0J-147500D01*
G01*
G37*
G36*
G01*
X105380000Y-81852500D02*
X105380000Y-82197500D01*
G75*
G02*
X105232500Y-82345000I-147500J0D01*
G01*
X104937500Y-82345000D01*
G75*
G02*
X104790000Y-82197500I0J147500D01*
G01*
X104790000Y-81852500D01*
G75*
G02*
X104937500Y-81705000I147500J0D01*
G01*
X105232500Y-81705000D01*
G75*
G02*
X105380000Y-81852500I0J-147500D01*
G01*
G37*
G36*
G01*
X106310000Y-81852500D02*
X106310000Y-82197500D01*
G75*
G02*
X106162500Y-82345000I-147500J0D01*
G01*
X105867500Y-82345000D01*
G75*
G02*
X105720000Y-82197500I0J147500D01*
G01*
X105720000Y-81852500D01*
G75*
G02*
X105867500Y-81705000I147500J0D01*
G01*
X106162500Y-81705000D01*
G75*
G02*
X106310000Y-81852500I0J-147500D01*
G01*
G37*
G36*
G01*
X107280000Y-81852500D02*
X107280000Y-82197500D01*
G75*
G02*
X107132500Y-82345000I-147500J0D01*
G01*
X106837500Y-82345000D01*
G75*
G02*
X106690000Y-82197500I0J147500D01*
G01*
X106690000Y-81852500D01*
G75*
G02*
X106837500Y-81705000I147500J0D01*
G01*
X107132500Y-81705000D01*
G75*
G02*
X107280000Y-81852500I0J-147500D01*
G01*
G37*
G36*
G01*
X134360000Y-108027500D02*
X134360000Y-108372500D01*
G75*
G02*
X134212500Y-108520000I-147500J0D01*
G01*
X133917500Y-108520000D01*
G75*
G02*
X133770000Y-108372500I0J147500D01*
G01*
X133770000Y-108027500D01*
G75*
G02*
X133917500Y-107880000I147500J0D01*
G01*
X134212500Y-107880000D01*
G75*
G02*
X134360000Y-108027500I0J-147500D01*
G01*
G37*
G36*
G01*
X135330000Y-108027500D02*
X135330000Y-108372500D01*
G75*
G02*
X135182500Y-108520000I-147500J0D01*
G01*
X134887500Y-108520000D01*
G75*
G02*
X134740000Y-108372500I0J147500D01*
G01*
X134740000Y-108027500D01*
G75*
G02*
X134887500Y-107880000I147500J0D01*
G01*
X135182500Y-107880000D01*
G75*
G02*
X135330000Y-108027500I0J-147500D01*
G01*
G37*
G36*
G01*
X106310000Y-82802500D02*
X106310000Y-83147500D01*
G75*
G02*
X106162500Y-83295000I-147500J0D01*
G01*
X105867500Y-83295000D01*
G75*
G02*
X105720000Y-83147500I0J147500D01*
G01*
X105720000Y-82802500D01*
G75*
G02*
X105867500Y-82655000I147500J0D01*
G01*
X106162500Y-82655000D01*
G75*
G02*
X106310000Y-82802500I0J-147500D01*
G01*
G37*
G36*
G01*
X107280000Y-82802500D02*
X107280000Y-83147500D01*
G75*
G02*
X107132500Y-83295000I-147500J0D01*
G01*
X106837500Y-83295000D01*
G75*
G02*
X106690000Y-83147500I0J147500D01*
G01*
X106690000Y-82802500D01*
G75*
G02*
X106837500Y-82655000I147500J0D01*
G01*
X107132500Y-82655000D01*
G75*
G02*
X107280000Y-82802500I0J-147500D01*
G01*
G37*
G36*
G01*
X114510000Y-80952500D02*
X114510000Y-81297500D01*
G75*
G02*
X114362500Y-81445000I-147500J0D01*
G01*
X114067500Y-81445000D01*
G75*
G02*
X113920000Y-81297500I0J147500D01*
G01*
X113920000Y-80952500D01*
G75*
G02*
X114067500Y-80805000I147500J0D01*
G01*
X114362500Y-80805000D01*
G75*
G02*
X114510000Y-80952500I0J-147500D01*
G01*
G37*
G36*
G01*
X115480000Y-80952500D02*
X115480000Y-81297500D01*
G75*
G02*
X115332500Y-81445000I-147500J0D01*
G01*
X115037500Y-81445000D01*
G75*
G02*
X114890000Y-81297500I0J147500D01*
G01*
X114890000Y-80952500D01*
G75*
G02*
X115037500Y-80805000I147500J0D01*
G01*
X115332500Y-80805000D01*
G75*
G02*
X115480000Y-80952500I0J-147500D01*
G01*
G37*
G36*
G01*
X114510000Y-79952500D02*
X114510000Y-80297500D01*
G75*
G02*
X114362500Y-80445000I-147500J0D01*
G01*
X114067500Y-80445000D01*
G75*
G02*
X113920000Y-80297500I0J147500D01*
G01*
X113920000Y-79952500D01*
G75*
G02*
X114067500Y-79805000I147500J0D01*
G01*
X114362500Y-79805000D01*
G75*
G02*
X114510000Y-79952500I0J-147500D01*
G01*
G37*
G36*
G01*
X115480000Y-79952500D02*
X115480000Y-80297500D01*
G75*
G02*
X115332500Y-80445000I-147500J0D01*
G01*
X115037500Y-80445000D01*
G75*
G02*
X114890000Y-80297500I0J147500D01*
G01*
X114890000Y-79952500D01*
G75*
G02*
X115037500Y-79805000I147500J0D01*
G01*
X115332500Y-79805000D01*
G75*
G02*
X115480000Y-79952500I0J-147500D01*
G01*
G37*
G36*
G01*
X114890000Y-79297500D02*
X114890000Y-78952500D01*
G75*
G02*
X115037500Y-78805000I147500J0D01*
G01*
X115332500Y-78805000D01*
G75*
G02*
X115480000Y-78952500I0J-147500D01*
G01*
X115480000Y-79297500D01*
G75*
G02*
X115332500Y-79445000I-147500J0D01*
G01*
X115037500Y-79445000D01*
G75*
G02*
X114890000Y-79297500I0J147500D01*
G01*
G37*
G36*
G01*
X113920000Y-79297500D02*
X113920000Y-78952500D01*
G75*
G02*
X114067500Y-78805000I147500J0D01*
G01*
X114362500Y-78805000D01*
G75*
G02*
X114510000Y-78952500I0J-147500D01*
G01*
X114510000Y-79297500D01*
G75*
G02*
X114362500Y-79445000I-147500J0D01*
G01*
X114067500Y-79445000D01*
G75*
G02*
X113920000Y-79297500I0J147500D01*
G01*
G37*
G36*
G01*
X124556250Y-78675000D02*
X124043750Y-78675000D01*
G75*
G02*
X123825000Y-78456250I0J218750D01*
G01*
X123825000Y-78018750D01*
G75*
G02*
X124043750Y-77800000I218750J0D01*
G01*
X124556250Y-77800000D01*
G75*
G02*
X124775000Y-78018750I0J-218750D01*
G01*
X124775000Y-78456250D01*
G75*
G02*
X124556250Y-78675000I-218750J0D01*
G01*
G37*
G36*
G01*
X124556250Y-80250000D02*
X124043750Y-80250000D01*
G75*
G02*
X123825000Y-80031250I0J218750D01*
G01*
X123825000Y-79593750D01*
G75*
G02*
X124043750Y-79375000I218750J0D01*
G01*
X124556250Y-79375000D01*
G75*
G02*
X124775000Y-79593750I0J-218750D01*
G01*
X124775000Y-80031250D01*
G75*
G02*
X124556250Y-80250000I-218750J0D01*
G01*
G37*
G36*
G01*
X124690000Y-81297500D02*
X124690000Y-80952500D01*
G75*
G02*
X124837500Y-80805000I147500J0D01*
G01*
X125132500Y-80805000D01*
G75*
G02*
X125280000Y-80952500I0J-147500D01*
G01*
X125280000Y-81297500D01*
G75*
G02*
X125132500Y-81445000I-147500J0D01*
G01*
X124837500Y-81445000D01*
G75*
G02*
X124690000Y-81297500I0J147500D01*
G01*
G37*
G36*
G01*
X123720000Y-81297500D02*
X123720000Y-80952500D01*
G75*
G02*
X123867500Y-80805000I147500J0D01*
G01*
X124162500Y-80805000D01*
G75*
G02*
X124310000Y-80952500I0J-147500D01*
G01*
X124310000Y-81297500D01*
G75*
G02*
X124162500Y-81445000I-147500J0D01*
G01*
X123867500Y-81445000D01*
G75*
G02*
X123720000Y-81297500I0J147500D01*
G01*
G37*
G36*
G01*
X122740000Y-77997500D02*
X122740000Y-77652500D01*
G75*
G02*
X122887500Y-77505000I147500J0D01*
G01*
X123182500Y-77505000D01*
G75*
G02*
X123330000Y-77652500I0J-147500D01*
G01*
X123330000Y-77997500D01*
G75*
G02*
X123182500Y-78145000I-147500J0D01*
G01*
X122887500Y-78145000D01*
G75*
G02*
X122740000Y-77997500I0J147500D01*
G01*
G37*
G36*
G01*
X121770000Y-77997500D02*
X121770000Y-77652500D01*
G75*
G02*
X121917500Y-77505000I147500J0D01*
G01*
X122212500Y-77505000D01*
G75*
G02*
X122360000Y-77652500I0J-147500D01*
G01*
X122360000Y-77997500D01*
G75*
G02*
X122212500Y-78145000I-147500J0D01*
G01*
X121917500Y-78145000D01*
G75*
G02*
X121770000Y-77997500I0J147500D01*
G01*
G37*
D15*
X133700000Y-118600000D03*
D16*
X132900000Y-118600000D03*
D15*
X131300000Y-118600000D03*
D16*
X132100000Y-118600000D03*
D15*
X133700000Y-120400000D03*
D16*
X132100000Y-120400000D03*
X132900000Y-120400000D03*
D15*
X131300000Y-120400000D03*
G36*
G01*
X123285001Y-93035000D02*
X122614999Y-93035000D01*
G75*
G02*
X122365000Y-92785001I0J249999D01*
G01*
X122365000Y-92114999D01*
G75*
G02*
X122614999Y-91865000I249999J0D01*
G01*
X123285001Y-91865000D01*
G75*
G02*
X123535000Y-92114999I0J-249999D01*
G01*
X123535000Y-92785001D01*
G75*
G02*
X123285001Y-93035000I-249999J0D01*
G01*
G37*
G36*
G01*
X121835001Y-93035000D02*
X121164999Y-93035000D01*
G75*
G02*
X120915000Y-92785001I0J249999D01*
G01*
X120915000Y-92114999D01*
G75*
G02*
X121164999Y-91865000I249999J0D01*
G01*
X121835001Y-91865000D01*
G75*
G02*
X122085000Y-92114999I0J-249999D01*
G01*
X122085000Y-92785001D01*
G75*
G02*
X121835001Y-93035000I-249999J0D01*
G01*
G37*
G36*
G01*
X120385001Y-93035000D02*
X119714999Y-93035000D01*
G75*
G02*
X119465000Y-92785001I0J249999D01*
G01*
X119465000Y-92114999D01*
G75*
G02*
X119714999Y-91865000I249999J0D01*
G01*
X120385001Y-91865000D01*
G75*
G02*
X120635000Y-92114999I0J-249999D01*
G01*
X120635000Y-92785001D01*
G75*
G02*
X120385001Y-93035000I-249999J0D01*
G01*
G37*
G36*
G01*
X123285001Y-94485000D02*
X122614999Y-94485000D01*
G75*
G02*
X122365000Y-94235001I0J249999D01*
G01*
X122365000Y-93564999D01*
G75*
G02*
X122614999Y-93315000I249999J0D01*
G01*
X123285001Y-93315000D01*
G75*
G02*
X123535000Y-93564999I0J-249999D01*
G01*
X123535000Y-94235001D01*
G75*
G02*
X123285001Y-94485000I-249999J0D01*
G01*
G37*
G36*
G01*
X121835001Y-94485000D02*
X121164999Y-94485000D01*
G75*
G02*
X120915000Y-94235001I0J249999D01*
G01*
X120915000Y-93564999D01*
G75*
G02*
X121164999Y-93315000I249999J0D01*
G01*
X121835001Y-93315000D01*
G75*
G02*
X122085000Y-93564999I0J-249999D01*
G01*
X122085000Y-94235001D01*
G75*
G02*
X121835001Y-94485000I-249999J0D01*
G01*
G37*
G36*
G01*
X120385001Y-94485000D02*
X119714999Y-94485000D01*
G75*
G02*
X119465000Y-94235001I0J249999D01*
G01*
X119465000Y-93564999D01*
G75*
G02*
X119714999Y-93315000I249999J0D01*
G01*
X120385001Y-93315000D01*
G75*
G02*
X120635000Y-93564999I0J-249999D01*
G01*
X120635000Y-94235001D01*
G75*
G02*
X120385001Y-94485000I-249999J0D01*
G01*
G37*
G36*
G01*
X123285001Y-95935000D02*
X122614999Y-95935000D01*
G75*
G02*
X122365000Y-95685001I0J249999D01*
G01*
X122365000Y-95014999D01*
G75*
G02*
X122614999Y-94765000I249999J0D01*
G01*
X123285001Y-94765000D01*
G75*
G02*
X123535000Y-95014999I0J-249999D01*
G01*
X123535000Y-95685001D01*
G75*
G02*
X123285001Y-95935000I-249999J0D01*
G01*
G37*
G36*
G01*
X121835001Y-95935000D02*
X121164999Y-95935000D01*
G75*
G02*
X120915000Y-95685001I0J249999D01*
G01*
X120915000Y-95014999D01*
G75*
G02*
X121164999Y-94765000I249999J0D01*
G01*
X121835001Y-94765000D01*
G75*
G02*
X122085000Y-95014999I0J-249999D01*
G01*
X122085000Y-95685001D01*
G75*
G02*
X121835001Y-95935000I-249999J0D01*
G01*
G37*
G36*
G01*
X120385001Y-95935000D02*
X119714999Y-95935000D01*
G75*
G02*
X119465000Y-95685001I0J249999D01*
G01*
X119465000Y-95014999D01*
G75*
G02*
X119714999Y-94765000I249999J0D01*
G01*
X120385001Y-94765000D01*
G75*
G02*
X120635000Y-95014999I0J-249999D01*
G01*
X120635000Y-95685001D01*
G75*
G02*
X120385001Y-95935000I-249999J0D01*
G01*
G37*
G36*
G01*
X117387500Y-97775000D02*
X116712500Y-97775000D01*
G75*
G02*
X116650000Y-97712500I0J62500D01*
G01*
X116650000Y-97587500D01*
G75*
G02*
X116712500Y-97525000I62500J0D01*
G01*
X117387500Y-97525000D01*
G75*
G02*
X117450000Y-97587500I0J-62500D01*
G01*
X117450000Y-97712500D01*
G75*
G02*
X117387500Y-97775000I-62500J0D01*
G01*
G37*
G36*
G01*
X117387500Y-97275000D02*
X116712500Y-97275000D01*
G75*
G02*
X116650000Y-97212500I0J62500D01*
G01*
X116650000Y-97087500D01*
G75*
G02*
X116712500Y-97025000I62500J0D01*
G01*
X117387500Y-97025000D01*
G75*
G02*
X117450000Y-97087500I0J-62500D01*
G01*
X117450000Y-97212500D01*
G75*
G02*
X117387500Y-97275000I-62500J0D01*
G01*
G37*
G36*
G01*
X117387500Y-96775000D02*
X116712500Y-96775000D01*
G75*
G02*
X116650000Y-96712500I0J62500D01*
G01*
X116650000Y-96587500D01*
G75*
G02*
X116712500Y-96525000I62500J0D01*
G01*
X117387500Y-96525000D01*
G75*
G02*
X117450000Y-96587500I0J-62500D01*
G01*
X117450000Y-96712500D01*
G75*
G02*
X117387500Y-96775000I-62500J0D01*
G01*
G37*
G36*
G01*
X117387500Y-96275000D02*
X116712500Y-96275000D01*
G75*
G02*
X116650000Y-96212500I0J62500D01*
G01*
X116650000Y-96087500D01*
G75*
G02*
X116712500Y-96025000I62500J0D01*
G01*
X117387500Y-96025000D01*
G75*
G02*
X117450000Y-96087500I0J-62500D01*
G01*
X117450000Y-96212500D01*
G75*
G02*
X117387500Y-96275000I-62500J0D01*
G01*
G37*
G36*
G01*
X117387500Y-95775000D02*
X116712500Y-95775000D01*
G75*
G02*
X116650000Y-95712500I0J62500D01*
G01*
X116650000Y-95587500D01*
G75*
G02*
X116712500Y-95525000I62500J0D01*
G01*
X117387500Y-95525000D01*
G75*
G02*
X117450000Y-95587500I0J-62500D01*
G01*
X117450000Y-95712500D01*
G75*
G02*
X117387500Y-95775000I-62500J0D01*
G01*
G37*
G36*
G01*
X117387500Y-95275000D02*
X116712500Y-95275000D01*
G75*
G02*
X116650000Y-95212500I0J62500D01*
G01*
X116650000Y-95087500D01*
G75*
G02*
X116712500Y-95025000I62500J0D01*
G01*
X117387500Y-95025000D01*
G75*
G02*
X117450000Y-95087500I0J-62500D01*
G01*
X117450000Y-95212500D01*
G75*
G02*
X117387500Y-95275000I-62500J0D01*
G01*
G37*
G36*
G01*
X117387500Y-94775000D02*
X116712500Y-94775000D01*
G75*
G02*
X116650000Y-94712500I0J62500D01*
G01*
X116650000Y-94587500D01*
G75*
G02*
X116712500Y-94525000I62500J0D01*
G01*
X117387500Y-94525000D01*
G75*
G02*
X117450000Y-94587500I0J-62500D01*
G01*
X117450000Y-94712500D01*
G75*
G02*
X117387500Y-94775000I-62500J0D01*
G01*
G37*
G36*
G01*
X117387500Y-94275000D02*
X116712500Y-94275000D01*
G75*
G02*
X116650000Y-94212500I0J62500D01*
G01*
X116650000Y-94087500D01*
G75*
G02*
X116712500Y-94025000I62500J0D01*
G01*
X117387500Y-94025000D01*
G75*
G02*
X117450000Y-94087500I0J-62500D01*
G01*
X117450000Y-94212500D01*
G75*
G02*
X117387500Y-94275000I-62500J0D01*
G01*
G37*
G36*
G01*
X117387500Y-93775000D02*
X116712500Y-93775000D01*
G75*
G02*
X116650000Y-93712500I0J62500D01*
G01*
X116650000Y-93587500D01*
G75*
G02*
X116712500Y-93525000I62500J0D01*
G01*
X117387500Y-93525000D01*
G75*
G02*
X117450000Y-93587500I0J-62500D01*
G01*
X117450000Y-93712500D01*
G75*
G02*
X117387500Y-93775000I-62500J0D01*
G01*
G37*
G36*
G01*
X117387500Y-93275000D02*
X116712500Y-93275000D01*
G75*
G02*
X116650000Y-93212500I0J62500D01*
G01*
X116650000Y-93087500D01*
G75*
G02*
X116712500Y-93025000I62500J0D01*
G01*
X117387500Y-93025000D01*
G75*
G02*
X117450000Y-93087500I0J-62500D01*
G01*
X117450000Y-93212500D01*
G75*
G02*
X117387500Y-93275000I-62500J0D01*
G01*
G37*
G36*
G01*
X117387500Y-92775000D02*
X116712500Y-92775000D01*
G75*
G02*
X116650000Y-92712500I0J62500D01*
G01*
X116650000Y-92587500D01*
G75*
G02*
X116712500Y-92525000I62500J0D01*
G01*
X117387500Y-92525000D01*
G75*
G02*
X117450000Y-92587500I0J-62500D01*
G01*
X117450000Y-92712500D01*
G75*
G02*
X117387500Y-92775000I-62500J0D01*
G01*
G37*
G36*
G01*
X117387500Y-92275000D02*
X116712500Y-92275000D01*
G75*
G02*
X116650000Y-92212500I0J62500D01*
G01*
X116650000Y-92087500D01*
G75*
G02*
X116712500Y-92025000I62500J0D01*
G01*
X117387500Y-92025000D01*
G75*
G02*
X117450000Y-92087500I0J-62500D01*
G01*
X117450000Y-92212500D01*
G75*
G02*
X117387500Y-92275000I-62500J0D01*
G01*
G37*
G36*
G01*
X117387500Y-91775000D02*
X116712500Y-91775000D01*
G75*
G02*
X116650000Y-91712500I0J62500D01*
G01*
X116650000Y-91587500D01*
G75*
G02*
X116712500Y-91525000I62500J0D01*
G01*
X117387500Y-91525000D01*
G75*
G02*
X117450000Y-91587500I0J-62500D01*
G01*
X117450000Y-91712500D01*
G75*
G02*
X117387500Y-91775000I-62500J0D01*
G01*
G37*
G36*
G01*
X117387500Y-91275000D02*
X116712500Y-91275000D01*
G75*
G02*
X116650000Y-91212500I0J62500D01*
G01*
X116650000Y-91087500D01*
G75*
G02*
X116712500Y-91025000I62500J0D01*
G01*
X117387500Y-91025000D01*
G75*
G02*
X117450000Y-91087500I0J-62500D01*
G01*
X117450000Y-91212500D01*
G75*
G02*
X117387500Y-91275000I-62500J0D01*
G01*
G37*
G36*
G01*
X117387500Y-90775000D02*
X116712500Y-90775000D01*
G75*
G02*
X116650000Y-90712500I0J62500D01*
G01*
X116650000Y-90587500D01*
G75*
G02*
X116712500Y-90525000I62500J0D01*
G01*
X117387500Y-90525000D01*
G75*
G02*
X117450000Y-90587500I0J-62500D01*
G01*
X117450000Y-90712500D01*
G75*
G02*
X117387500Y-90775000I-62500J0D01*
G01*
G37*
G36*
G01*
X117387500Y-90275000D02*
X116712500Y-90275000D01*
G75*
G02*
X116650000Y-90212500I0J62500D01*
G01*
X116650000Y-90087500D01*
G75*
G02*
X116712500Y-90025000I62500J0D01*
G01*
X117387500Y-90025000D01*
G75*
G02*
X117450000Y-90087500I0J-62500D01*
G01*
X117450000Y-90212500D01*
G75*
G02*
X117387500Y-90275000I-62500J0D01*
G01*
G37*
G36*
G01*
X117812500Y-89850000D02*
X117687500Y-89850000D01*
G75*
G02*
X117625000Y-89787500I0J62500D01*
G01*
X117625000Y-89112500D01*
G75*
G02*
X117687500Y-89050000I62500J0D01*
G01*
X117812500Y-89050000D01*
G75*
G02*
X117875000Y-89112500I0J-62500D01*
G01*
X117875000Y-89787500D01*
G75*
G02*
X117812500Y-89850000I-62500J0D01*
G01*
G37*
G36*
G01*
X118312500Y-89850000D02*
X118187500Y-89850000D01*
G75*
G02*
X118125000Y-89787500I0J62500D01*
G01*
X118125000Y-89112500D01*
G75*
G02*
X118187500Y-89050000I62500J0D01*
G01*
X118312500Y-89050000D01*
G75*
G02*
X118375000Y-89112500I0J-62500D01*
G01*
X118375000Y-89787500D01*
G75*
G02*
X118312500Y-89850000I-62500J0D01*
G01*
G37*
G36*
G01*
X118812500Y-89850000D02*
X118687500Y-89850000D01*
G75*
G02*
X118625000Y-89787500I0J62500D01*
G01*
X118625000Y-89112500D01*
G75*
G02*
X118687500Y-89050000I62500J0D01*
G01*
X118812500Y-89050000D01*
G75*
G02*
X118875000Y-89112500I0J-62500D01*
G01*
X118875000Y-89787500D01*
G75*
G02*
X118812500Y-89850000I-62500J0D01*
G01*
G37*
G36*
G01*
X119312500Y-89850000D02*
X119187500Y-89850000D01*
G75*
G02*
X119125000Y-89787500I0J62500D01*
G01*
X119125000Y-89112500D01*
G75*
G02*
X119187500Y-89050000I62500J0D01*
G01*
X119312500Y-89050000D01*
G75*
G02*
X119375000Y-89112500I0J-62500D01*
G01*
X119375000Y-89787500D01*
G75*
G02*
X119312500Y-89850000I-62500J0D01*
G01*
G37*
G36*
G01*
X119812500Y-89850000D02*
X119687500Y-89850000D01*
G75*
G02*
X119625000Y-89787500I0J62500D01*
G01*
X119625000Y-89112500D01*
G75*
G02*
X119687500Y-89050000I62500J0D01*
G01*
X119812500Y-89050000D01*
G75*
G02*
X119875000Y-89112500I0J-62500D01*
G01*
X119875000Y-89787500D01*
G75*
G02*
X119812500Y-89850000I-62500J0D01*
G01*
G37*
G36*
G01*
X120312500Y-89850000D02*
X120187500Y-89850000D01*
G75*
G02*
X120125000Y-89787500I0J62500D01*
G01*
X120125000Y-89112500D01*
G75*
G02*
X120187500Y-89050000I62500J0D01*
G01*
X120312500Y-89050000D01*
G75*
G02*
X120375000Y-89112500I0J-62500D01*
G01*
X120375000Y-89787500D01*
G75*
G02*
X120312500Y-89850000I-62500J0D01*
G01*
G37*
G36*
G01*
X120812500Y-89850000D02*
X120687500Y-89850000D01*
G75*
G02*
X120625000Y-89787500I0J62500D01*
G01*
X120625000Y-89112500D01*
G75*
G02*
X120687500Y-89050000I62500J0D01*
G01*
X120812500Y-89050000D01*
G75*
G02*
X120875000Y-89112500I0J-62500D01*
G01*
X120875000Y-89787500D01*
G75*
G02*
X120812500Y-89850000I-62500J0D01*
G01*
G37*
G36*
G01*
X121312500Y-89850000D02*
X121187500Y-89850000D01*
G75*
G02*
X121125000Y-89787500I0J62500D01*
G01*
X121125000Y-89112500D01*
G75*
G02*
X121187500Y-89050000I62500J0D01*
G01*
X121312500Y-89050000D01*
G75*
G02*
X121375000Y-89112500I0J-62500D01*
G01*
X121375000Y-89787500D01*
G75*
G02*
X121312500Y-89850000I-62500J0D01*
G01*
G37*
G36*
G01*
X121812500Y-89850000D02*
X121687500Y-89850000D01*
G75*
G02*
X121625000Y-89787500I0J62500D01*
G01*
X121625000Y-89112500D01*
G75*
G02*
X121687500Y-89050000I62500J0D01*
G01*
X121812500Y-89050000D01*
G75*
G02*
X121875000Y-89112500I0J-62500D01*
G01*
X121875000Y-89787500D01*
G75*
G02*
X121812500Y-89850000I-62500J0D01*
G01*
G37*
G36*
G01*
X122312500Y-89850000D02*
X122187500Y-89850000D01*
G75*
G02*
X122125000Y-89787500I0J62500D01*
G01*
X122125000Y-89112500D01*
G75*
G02*
X122187500Y-89050000I62500J0D01*
G01*
X122312500Y-89050000D01*
G75*
G02*
X122375000Y-89112500I0J-62500D01*
G01*
X122375000Y-89787500D01*
G75*
G02*
X122312500Y-89850000I-62500J0D01*
G01*
G37*
G36*
G01*
X122812500Y-89850000D02*
X122687500Y-89850000D01*
G75*
G02*
X122625000Y-89787500I0J62500D01*
G01*
X122625000Y-89112500D01*
G75*
G02*
X122687500Y-89050000I62500J0D01*
G01*
X122812500Y-89050000D01*
G75*
G02*
X122875000Y-89112500I0J-62500D01*
G01*
X122875000Y-89787500D01*
G75*
G02*
X122812500Y-89850000I-62500J0D01*
G01*
G37*
G36*
G01*
X123312500Y-89850000D02*
X123187500Y-89850000D01*
G75*
G02*
X123125000Y-89787500I0J62500D01*
G01*
X123125000Y-89112500D01*
G75*
G02*
X123187500Y-89050000I62500J0D01*
G01*
X123312500Y-89050000D01*
G75*
G02*
X123375000Y-89112500I0J-62500D01*
G01*
X123375000Y-89787500D01*
G75*
G02*
X123312500Y-89850000I-62500J0D01*
G01*
G37*
G36*
G01*
X123812500Y-89850000D02*
X123687500Y-89850000D01*
G75*
G02*
X123625000Y-89787500I0J62500D01*
G01*
X123625000Y-89112500D01*
G75*
G02*
X123687500Y-89050000I62500J0D01*
G01*
X123812500Y-89050000D01*
G75*
G02*
X123875000Y-89112500I0J-62500D01*
G01*
X123875000Y-89787500D01*
G75*
G02*
X123812500Y-89850000I-62500J0D01*
G01*
G37*
G36*
G01*
X124312500Y-89850000D02*
X124187500Y-89850000D01*
G75*
G02*
X124125000Y-89787500I0J62500D01*
G01*
X124125000Y-89112500D01*
G75*
G02*
X124187500Y-89050000I62500J0D01*
G01*
X124312500Y-89050000D01*
G75*
G02*
X124375000Y-89112500I0J-62500D01*
G01*
X124375000Y-89787500D01*
G75*
G02*
X124312500Y-89850000I-62500J0D01*
G01*
G37*
G36*
G01*
X124812500Y-89850000D02*
X124687500Y-89850000D01*
G75*
G02*
X124625000Y-89787500I0J62500D01*
G01*
X124625000Y-89112500D01*
G75*
G02*
X124687500Y-89050000I62500J0D01*
G01*
X124812500Y-89050000D01*
G75*
G02*
X124875000Y-89112500I0J-62500D01*
G01*
X124875000Y-89787500D01*
G75*
G02*
X124812500Y-89850000I-62500J0D01*
G01*
G37*
G36*
G01*
X125312500Y-89850000D02*
X125187500Y-89850000D01*
G75*
G02*
X125125000Y-89787500I0J62500D01*
G01*
X125125000Y-89112500D01*
G75*
G02*
X125187500Y-89050000I62500J0D01*
G01*
X125312500Y-89050000D01*
G75*
G02*
X125375000Y-89112500I0J-62500D01*
G01*
X125375000Y-89787500D01*
G75*
G02*
X125312500Y-89850000I-62500J0D01*
G01*
G37*
G36*
G01*
X126287500Y-90275000D02*
X125612500Y-90275000D01*
G75*
G02*
X125550000Y-90212500I0J62500D01*
G01*
X125550000Y-90087500D01*
G75*
G02*
X125612500Y-90025000I62500J0D01*
G01*
X126287500Y-90025000D01*
G75*
G02*
X126350000Y-90087500I0J-62500D01*
G01*
X126350000Y-90212500D01*
G75*
G02*
X126287500Y-90275000I-62500J0D01*
G01*
G37*
G36*
G01*
X126287500Y-90775000D02*
X125612500Y-90775000D01*
G75*
G02*
X125550000Y-90712500I0J62500D01*
G01*
X125550000Y-90587500D01*
G75*
G02*
X125612500Y-90525000I62500J0D01*
G01*
X126287500Y-90525000D01*
G75*
G02*
X126350000Y-90587500I0J-62500D01*
G01*
X126350000Y-90712500D01*
G75*
G02*
X126287500Y-90775000I-62500J0D01*
G01*
G37*
G36*
G01*
X126287500Y-91275000D02*
X125612500Y-91275000D01*
G75*
G02*
X125550000Y-91212500I0J62500D01*
G01*
X125550000Y-91087500D01*
G75*
G02*
X125612500Y-91025000I62500J0D01*
G01*
X126287500Y-91025000D01*
G75*
G02*
X126350000Y-91087500I0J-62500D01*
G01*
X126350000Y-91212500D01*
G75*
G02*
X126287500Y-91275000I-62500J0D01*
G01*
G37*
G36*
G01*
X126287500Y-91775000D02*
X125612500Y-91775000D01*
G75*
G02*
X125550000Y-91712500I0J62500D01*
G01*
X125550000Y-91587500D01*
G75*
G02*
X125612500Y-91525000I62500J0D01*
G01*
X126287500Y-91525000D01*
G75*
G02*
X126350000Y-91587500I0J-62500D01*
G01*
X126350000Y-91712500D01*
G75*
G02*
X126287500Y-91775000I-62500J0D01*
G01*
G37*
G36*
G01*
X126287500Y-92275000D02*
X125612500Y-92275000D01*
G75*
G02*
X125550000Y-92212500I0J62500D01*
G01*
X125550000Y-92087500D01*
G75*
G02*
X125612500Y-92025000I62500J0D01*
G01*
X126287500Y-92025000D01*
G75*
G02*
X126350000Y-92087500I0J-62500D01*
G01*
X126350000Y-92212500D01*
G75*
G02*
X126287500Y-92275000I-62500J0D01*
G01*
G37*
G36*
G01*
X126287500Y-92775000D02*
X125612500Y-92775000D01*
G75*
G02*
X125550000Y-92712500I0J62500D01*
G01*
X125550000Y-92587500D01*
G75*
G02*
X125612500Y-92525000I62500J0D01*
G01*
X126287500Y-92525000D01*
G75*
G02*
X126350000Y-92587500I0J-62500D01*
G01*
X126350000Y-92712500D01*
G75*
G02*
X126287500Y-92775000I-62500J0D01*
G01*
G37*
G36*
G01*
X126287500Y-93275000D02*
X125612500Y-93275000D01*
G75*
G02*
X125550000Y-93212500I0J62500D01*
G01*
X125550000Y-93087500D01*
G75*
G02*
X125612500Y-93025000I62500J0D01*
G01*
X126287500Y-93025000D01*
G75*
G02*
X126350000Y-93087500I0J-62500D01*
G01*
X126350000Y-93212500D01*
G75*
G02*
X126287500Y-93275000I-62500J0D01*
G01*
G37*
G36*
G01*
X126287500Y-93775000D02*
X125612500Y-93775000D01*
G75*
G02*
X125550000Y-93712500I0J62500D01*
G01*
X125550000Y-93587500D01*
G75*
G02*
X125612500Y-93525000I62500J0D01*
G01*
X126287500Y-93525000D01*
G75*
G02*
X126350000Y-93587500I0J-62500D01*
G01*
X126350000Y-93712500D01*
G75*
G02*
X126287500Y-93775000I-62500J0D01*
G01*
G37*
G36*
G01*
X126287500Y-94275000D02*
X125612500Y-94275000D01*
G75*
G02*
X125550000Y-94212500I0J62500D01*
G01*
X125550000Y-94087500D01*
G75*
G02*
X125612500Y-94025000I62500J0D01*
G01*
X126287500Y-94025000D01*
G75*
G02*
X126350000Y-94087500I0J-62500D01*
G01*
X126350000Y-94212500D01*
G75*
G02*
X126287500Y-94275000I-62500J0D01*
G01*
G37*
G36*
G01*
X126287500Y-94775000D02*
X125612500Y-94775000D01*
G75*
G02*
X125550000Y-94712500I0J62500D01*
G01*
X125550000Y-94587500D01*
G75*
G02*
X125612500Y-94525000I62500J0D01*
G01*
X126287500Y-94525000D01*
G75*
G02*
X126350000Y-94587500I0J-62500D01*
G01*
X126350000Y-94712500D01*
G75*
G02*
X126287500Y-94775000I-62500J0D01*
G01*
G37*
G36*
G01*
X126287500Y-95275000D02*
X125612500Y-95275000D01*
G75*
G02*
X125550000Y-95212500I0J62500D01*
G01*
X125550000Y-95087500D01*
G75*
G02*
X125612500Y-95025000I62500J0D01*
G01*
X126287500Y-95025000D01*
G75*
G02*
X126350000Y-95087500I0J-62500D01*
G01*
X126350000Y-95212500D01*
G75*
G02*
X126287500Y-95275000I-62500J0D01*
G01*
G37*
G36*
G01*
X126287500Y-95775000D02*
X125612500Y-95775000D01*
G75*
G02*
X125550000Y-95712500I0J62500D01*
G01*
X125550000Y-95587500D01*
G75*
G02*
X125612500Y-95525000I62500J0D01*
G01*
X126287500Y-95525000D01*
G75*
G02*
X126350000Y-95587500I0J-62500D01*
G01*
X126350000Y-95712500D01*
G75*
G02*
X126287500Y-95775000I-62500J0D01*
G01*
G37*
G36*
G01*
X126287500Y-96275000D02*
X125612500Y-96275000D01*
G75*
G02*
X125550000Y-96212500I0J62500D01*
G01*
X125550000Y-96087500D01*
G75*
G02*
X125612500Y-96025000I62500J0D01*
G01*
X126287500Y-96025000D01*
G75*
G02*
X126350000Y-96087500I0J-62500D01*
G01*
X126350000Y-96212500D01*
G75*
G02*
X126287500Y-96275000I-62500J0D01*
G01*
G37*
G36*
G01*
X126287500Y-96775000D02*
X125612500Y-96775000D01*
G75*
G02*
X125550000Y-96712500I0J62500D01*
G01*
X125550000Y-96587500D01*
G75*
G02*
X125612500Y-96525000I62500J0D01*
G01*
X126287500Y-96525000D01*
G75*
G02*
X126350000Y-96587500I0J-62500D01*
G01*
X126350000Y-96712500D01*
G75*
G02*
X126287500Y-96775000I-62500J0D01*
G01*
G37*
G36*
G01*
X126287500Y-97275000D02*
X125612500Y-97275000D01*
G75*
G02*
X125550000Y-97212500I0J62500D01*
G01*
X125550000Y-97087500D01*
G75*
G02*
X125612500Y-97025000I62500J0D01*
G01*
X126287500Y-97025000D01*
G75*
G02*
X126350000Y-97087500I0J-62500D01*
G01*
X126350000Y-97212500D01*
G75*
G02*
X126287500Y-97275000I-62500J0D01*
G01*
G37*
G36*
G01*
X126287500Y-97775000D02*
X125612500Y-97775000D01*
G75*
G02*
X125550000Y-97712500I0J62500D01*
G01*
X125550000Y-97587500D01*
G75*
G02*
X125612500Y-97525000I62500J0D01*
G01*
X126287500Y-97525000D01*
G75*
G02*
X126350000Y-97587500I0J-62500D01*
G01*
X126350000Y-97712500D01*
G75*
G02*
X126287500Y-97775000I-62500J0D01*
G01*
G37*
G36*
G01*
X125312500Y-98750000D02*
X125187500Y-98750000D01*
G75*
G02*
X125125000Y-98687500I0J62500D01*
G01*
X125125000Y-98012500D01*
G75*
G02*
X125187500Y-97950000I62500J0D01*
G01*
X125312500Y-97950000D01*
G75*
G02*
X125375000Y-98012500I0J-62500D01*
G01*
X125375000Y-98687500D01*
G75*
G02*
X125312500Y-98750000I-62500J0D01*
G01*
G37*
G36*
G01*
X124812500Y-98750000D02*
X124687500Y-98750000D01*
G75*
G02*
X124625000Y-98687500I0J62500D01*
G01*
X124625000Y-98012500D01*
G75*
G02*
X124687500Y-97950000I62500J0D01*
G01*
X124812500Y-97950000D01*
G75*
G02*
X124875000Y-98012500I0J-62500D01*
G01*
X124875000Y-98687500D01*
G75*
G02*
X124812500Y-98750000I-62500J0D01*
G01*
G37*
G36*
G01*
X124312500Y-98750000D02*
X124187500Y-98750000D01*
G75*
G02*
X124125000Y-98687500I0J62500D01*
G01*
X124125000Y-98012500D01*
G75*
G02*
X124187500Y-97950000I62500J0D01*
G01*
X124312500Y-97950000D01*
G75*
G02*
X124375000Y-98012500I0J-62500D01*
G01*
X124375000Y-98687500D01*
G75*
G02*
X124312500Y-98750000I-62500J0D01*
G01*
G37*
G36*
G01*
X123812500Y-98750000D02*
X123687500Y-98750000D01*
G75*
G02*
X123625000Y-98687500I0J62500D01*
G01*
X123625000Y-98012500D01*
G75*
G02*
X123687500Y-97950000I62500J0D01*
G01*
X123812500Y-97950000D01*
G75*
G02*
X123875000Y-98012500I0J-62500D01*
G01*
X123875000Y-98687500D01*
G75*
G02*
X123812500Y-98750000I-62500J0D01*
G01*
G37*
G36*
G01*
X123312500Y-98750000D02*
X123187500Y-98750000D01*
G75*
G02*
X123125000Y-98687500I0J62500D01*
G01*
X123125000Y-98012500D01*
G75*
G02*
X123187500Y-97950000I62500J0D01*
G01*
X123312500Y-97950000D01*
G75*
G02*
X123375000Y-98012500I0J-62500D01*
G01*
X123375000Y-98687500D01*
G75*
G02*
X123312500Y-98750000I-62500J0D01*
G01*
G37*
G36*
G01*
X122812500Y-98750000D02*
X122687500Y-98750000D01*
G75*
G02*
X122625000Y-98687500I0J62500D01*
G01*
X122625000Y-98012500D01*
G75*
G02*
X122687500Y-97950000I62500J0D01*
G01*
X122812500Y-97950000D01*
G75*
G02*
X122875000Y-98012500I0J-62500D01*
G01*
X122875000Y-98687500D01*
G75*
G02*
X122812500Y-98750000I-62500J0D01*
G01*
G37*
G36*
G01*
X122312500Y-98750000D02*
X122187500Y-98750000D01*
G75*
G02*
X122125000Y-98687500I0J62500D01*
G01*
X122125000Y-98012500D01*
G75*
G02*
X122187500Y-97950000I62500J0D01*
G01*
X122312500Y-97950000D01*
G75*
G02*
X122375000Y-98012500I0J-62500D01*
G01*
X122375000Y-98687500D01*
G75*
G02*
X122312500Y-98750000I-62500J0D01*
G01*
G37*
G36*
G01*
X121812500Y-98750000D02*
X121687500Y-98750000D01*
G75*
G02*
X121625000Y-98687500I0J62500D01*
G01*
X121625000Y-98012500D01*
G75*
G02*
X121687500Y-97950000I62500J0D01*
G01*
X121812500Y-97950000D01*
G75*
G02*
X121875000Y-98012500I0J-62500D01*
G01*
X121875000Y-98687500D01*
G75*
G02*
X121812500Y-98750000I-62500J0D01*
G01*
G37*
G36*
G01*
X121312500Y-98750000D02*
X121187500Y-98750000D01*
G75*
G02*
X121125000Y-98687500I0J62500D01*
G01*
X121125000Y-98012500D01*
G75*
G02*
X121187500Y-97950000I62500J0D01*
G01*
X121312500Y-97950000D01*
G75*
G02*
X121375000Y-98012500I0J-62500D01*
G01*
X121375000Y-98687500D01*
G75*
G02*
X121312500Y-98750000I-62500J0D01*
G01*
G37*
G36*
G01*
X120812500Y-98750000D02*
X120687500Y-98750000D01*
G75*
G02*
X120625000Y-98687500I0J62500D01*
G01*
X120625000Y-98012500D01*
G75*
G02*
X120687500Y-97950000I62500J0D01*
G01*
X120812500Y-97950000D01*
G75*
G02*
X120875000Y-98012500I0J-62500D01*
G01*
X120875000Y-98687500D01*
G75*
G02*
X120812500Y-98750000I-62500J0D01*
G01*
G37*
G36*
G01*
X120312500Y-98750000D02*
X120187500Y-98750000D01*
G75*
G02*
X120125000Y-98687500I0J62500D01*
G01*
X120125000Y-98012500D01*
G75*
G02*
X120187500Y-97950000I62500J0D01*
G01*
X120312500Y-97950000D01*
G75*
G02*
X120375000Y-98012500I0J-62500D01*
G01*
X120375000Y-98687500D01*
G75*
G02*
X120312500Y-98750000I-62500J0D01*
G01*
G37*
G36*
G01*
X119812500Y-98750000D02*
X119687500Y-98750000D01*
G75*
G02*
X119625000Y-98687500I0J62500D01*
G01*
X119625000Y-98012500D01*
G75*
G02*
X119687500Y-97950000I62500J0D01*
G01*
X119812500Y-97950000D01*
G75*
G02*
X119875000Y-98012500I0J-62500D01*
G01*
X119875000Y-98687500D01*
G75*
G02*
X119812500Y-98750000I-62500J0D01*
G01*
G37*
G36*
G01*
X119312500Y-98750000D02*
X119187500Y-98750000D01*
G75*
G02*
X119125000Y-98687500I0J62500D01*
G01*
X119125000Y-98012500D01*
G75*
G02*
X119187500Y-97950000I62500J0D01*
G01*
X119312500Y-97950000D01*
G75*
G02*
X119375000Y-98012500I0J-62500D01*
G01*
X119375000Y-98687500D01*
G75*
G02*
X119312500Y-98750000I-62500J0D01*
G01*
G37*
G36*
G01*
X118812500Y-98750000D02*
X118687500Y-98750000D01*
G75*
G02*
X118625000Y-98687500I0J62500D01*
G01*
X118625000Y-98012500D01*
G75*
G02*
X118687500Y-97950000I62500J0D01*
G01*
X118812500Y-97950000D01*
G75*
G02*
X118875000Y-98012500I0J-62500D01*
G01*
X118875000Y-98687500D01*
G75*
G02*
X118812500Y-98750000I-62500J0D01*
G01*
G37*
G36*
G01*
X118312500Y-98750000D02*
X118187500Y-98750000D01*
G75*
G02*
X118125000Y-98687500I0J62500D01*
G01*
X118125000Y-98012500D01*
G75*
G02*
X118187500Y-97950000I62500J0D01*
G01*
X118312500Y-97950000D01*
G75*
G02*
X118375000Y-98012500I0J-62500D01*
G01*
X118375000Y-98687500D01*
G75*
G02*
X118312500Y-98750000I-62500J0D01*
G01*
G37*
G36*
G01*
X117812500Y-98750000D02*
X117687500Y-98750000D01*
G75*
G02*
X117625000Y-98687500I0J62500D01*
G01*
X117625000Y-98012500D01*
G75*
G02*
X117687500Y-97950000I62500J0D01*
G01*
X117812500Y-97950000D01*
G75*
G02*
X117875000Y-98012500I0J-62500D01*
G01*
X117875000Y-98687500D01*
G75*
G02*
X117812500Y-98750000I-62500J0D01*
G01*
G37*
D11*
X110300000Y-100000000D03*
X111250000Y-100000000D03*
X109350000Y-100000000D03*
X109350000Y-97800000D03*
X110300000Y-97800000D03*
X111250000Y-97800000D03*
D10*
X111800000Y-91100000D03*
X111800000Y-90150000D03*
X111800000Y-92050000D03*
X109600000Y-92050000D03*
X109600000Y-91100000D03*
X109600000Y-90150000D03*
X159225000Y-90700000D03*
X159225000Y-88800000D03*
X161425000Y-88800000D03*
X161425000Y-89750000D03*
X161425000Y-90700000D03*
X133150000Y-105900000D03*
X133150000Y-104000000D03*
X135350000Y-104000000D03*
X135350000Y-104950000D03*
X135350000Y-105900000D03*
X105057107Y-80674999D03*
X105057107Y-78774999D03*
X107257107Y-78774999D03*
X107257107Y-79724999D03*
X107257107Y-80674999D03*
G36*
G01*
X121725000Y-79250000D02*
X121725000Y-79050000D01*
G75*
G02*
X121825000Y-78950000I100000J0D01*
G01*
X123100000Y-78950000D01*
G75*
G02*
X123200000Y-79050000I0J-100000D01*
G01*
X123200000Y-79250000D01*
G75*
G02*
X123100000Y-79350000I-100000J0D01*
G01*
X121825000Y-79350000D01*
G75*
G02*
X121725000Y-79250000I0J100000D01*
G01*
G37*
G36*
G01*
X121725000Y-79900000D02*
X121725000Y-79700000D01*
G75*
G02*
X121825000Y-79600000I100000J0D01*
G01*
X123100000Y-79600000D01*
G75*
G02*
X123200000Y-79700000I0J-100000D01*
G01*
X123200000Y-79900000D01*
G75*
G02*
X123100000Y-80000000I-100000J0D01*
G01*
X121825000Y-80000000D01*
G75*
G02*
X121725000Y-79900000I0J100000D01*
G01*
G37*
G36*
G01*
X121725000Y-80550000D02*
X121725000Y-80350000D01*
G75*
G02*
X121825000Y-80250000I100000J0D01*
G01*
X123100000Y-80250000D01*
G75*
G02*
X123200000Y-80350000I0J-100000D01*
G01*
X123200000Y-80550000D01*
G75*
G02*
X123100000Y-80650000I-100000J0D01*
G01*
X121825000Y-80650000D01*
G75*
G02*
X121725000Y-80550000I0J100000D01*
G01*
G37*
G36*
G01*
X121725000Y-81200000D02*
X121725000Y-81000000D01*
G75*
G02*
X121825000Y-80900000I100000J0D01*
G01*
X123100000Y-80900000D01*
G75*
G02*
X123200000Y-81000000I0J-100000D01*
G01*
X123200000Y-81200000D01*
G75*
G02*
X123100000Y-81300000I-100000J0D01*
G01*
X121825000Y-81300000D01*
G75*
G02*
X121725000Y-81200000I0J100000D01*
G01*
G37*
G36*
G01*
X116000000Y-81200000D02*
X116000000Y-81000000D01*
G75*
G02*
X116100000Y-80900000I100000J0D01*
G01*
X117375000Y-80900000D01*
G75*
G02*
X117475000Y-81000000I0J-100000D01*
G01*
X117475000Y-81200000D01*
G75*
G02*
X117375000Y-81300000I-100000J0D01*
G01*
X116100000Y-81300000D01*
G75*
G02*
X116000000Y-81200000I0J100000D01*
G01*
G37*
G36*
G01*
X116000000Y-80550000D02*
X116000000Y-80350000D01*
G75*
G02*
X116100000Y-80250000I100000J0D01*
G01*
X117375000Y-80250000D01*
G75*
G02*
X117475000Y-80350000I0J-100000D01*
G01*
X117475000Y-80550000D01*
G75*
G02*
X117375000Y-80650000I-100000J0D01*
G01*
X116100000Y-80650000D01*
G75*
G02*
X116000000Y-80550000I0J100000D01*
G01*
G37*
G36*
G01*
X116000000Y-79900000D02*
X116000000Y-79700000D01*
G75*
G02*
X116100000Y-79600000I100000J0D01*
G01*
X117375000Y-79600000D01*
G75*
G02*
X117475000Y-79700000I0J-100000D01*
G01*
X117475000Y-79900000D01*
G75*
G02*
X117375000Y-80000000I-100000J0D01*
G01*
X116100000Y-80000000D01*
G75*
G02*
X116000000Y-79900000I0J100000D01*
G01*
G37*
G36*
G01*
X116000000Y-79250000D02*
X116000000Y-79050000D01*
G75*
G02*
X116100000Y-78950000I100000J0D01*
G01*
X117375000Y-78950000D01*
G75*
G02*
X117475000Y-79050000I0J-100000D01*
G01*
X117475000Y-79250000D01*
G75*
G02*
X117375000Y-79350000I-100000J0D01*
G01*
X116100000Y-79350000D01*
G75*
G02*
X116000000Y-79250000I0J100000D01*
G01*
G37*
D19*
X126975000Y-105095000D03*
X126975000Y-106365000D03*
X126975000Y-107635000D03*
X126975000Y-108905000D03*
X119675000Y-108905000D03*
X119675000Y-107635000D03*
X119675000Y-106365000D03*
X119675000Y-105095000D03*
D15*
X161100000Y-118600000D03*
D16*
X160300000Y-118600000D03*
D15*
X158700000Y-118600000D03*
D16*
X159500000Y-118600000D03*
D15*
X161100000Y-120400000D03*
D16*
X159500000Y-120400000D03*
X160300000Y-120400000D03*
D15*
X158700000Y-120400000D03*
X144900000Y-118600000D03*
D16*
X144100000Y-118600000D03*
D15*
X142500000Y-118600000D03*
D16*
X143300000Y-118600000D03*
D15*
X144900000Y-120400000D03*
D16*
X143300000Y-120400000D03*
X144100000Y-120400000D03*
D15*
X142500000Y-120400000D03*
X168700000Y-118600000D03*
D16*
X167900000Y-118600000D03*
D15*
X166300000Y-118600000D03*
D16*
X167100000Y-118600000D03*
D15*
X168700000Y-120400000D03*
D16*
X167100000Y-120400000D03*
X167900000Y-120400000D03*
D15*
X166300000Y-120400000D03*
X154900000Y-118600000D03*
D16*
X154100000Y-118600000D03*
D15*
X152500000Y-118600000D03*
D16*
X153300000Y-118600000D03*
D15*
X154900000Y-120400000D03*
D16*
X153300000Y-120400000D03*
X154100000Y-120400000D03*
D15*
X152500000Y-120400000D03*
X174900000Y-118600000D03*
D16*
X174100000Y-118600000D03*
D15*
X172500000Y-118600000D03*
D16*
X173300000Y-118600000D03*
D15*
X174900000Y-120400000D03*
D16*
X173300000Y-120400000D03*
X174100000Y-120400000D03*
D15*
X172500000Y-120400000D03*
D13*
X159700000Y-76700000D03*
D14*
X159700000Y-77500000D03*
D13*
X159700000Y-79100000D03*
D14*
X159700000Y-78300000D03*
D13*
X161500000Y-76700000D03*
D14*
X161500000Y-78300000D03*
X161500000Y-77500000D03*
D13*
X161500000Y-79100000D03*
G36*
G01*
X106595000Y-90500000D02*
X107895000Y-90500000D01*
G75*
G02*
X107970000Y-90575000I0J-75000D01*
G01*
X107970000Y-90725000D01*
G75*
G02*
X107895000Y-90800000I-75000J0D01*
G01*
X106595000Y-90800000D01*
G75*
G02*
X106520000Y-90725000I0J75000D01*
G01*
X106520000Y-90575000D01*
G75*
G02*
X106595000Y-90500000I75000J0D01*
G01*
G37*
G36*
G01*
X106595000Y-92500000D02*
X107895000Y-92500000D01*
G75*
G02*
X107970000Y-92575000I0J-75000D01*
G01*
X107970000Y-92725000D01*
G75*
G02*
X107895000Y-92800000I-75000J0D01*
G01*
X106595000Y-92800000D01*
G75*
G02*
X106520000Y-92725000I0J75000D01*
G01*
X106520000Y-92575000D01*
G75*
G02*
X106595000Y-92500000I75000J0D01*
G01*
G37*
G36*
G01*
X106595000Y-92000000D02*
X107895000Y-92000000D01*
G75*
G02*
X107970000Y-92075000I0J-75000D01*
G01*
X107970000Y-92225000D01*
G75*
G02*
X107895000Y-92300000I-75000J0D01*
G01*
X106595000Y-92300000D01*
G75*
G02*
X106520000Y-92225000I0J75000D01*
G01*
X106520000Y-92075000D01*
G75*
G02*
X106595000Y-92000000I75000J0D01*
G01*
G37*
G36*
G01*
X106595000Y-91500000D02*
X107895000Y-91500000D01*
G75*
G02*
X107970000Y-91575000I0J-75000D01*
G01*
X107970000Y-91725000D01*
G75*
G02*
X107895000Y-91800000I-75000J0D01*
G01*
X106595000Y-91800000D01*
G75*
G02*
X106520000Y-91725000I0J75000D01*
G01*
X106520000Y-91575000D01*
G75*
G02*
X106595000Y-91500000I75000J0D01*
G01*
G37*
G36*
G01*
X106595000Y-91000000D02*
X107895000Y-91000000D01*
G75*
G02*
X107970000Y-91075000I0J-75000D01*
G01*
X107970000Y-91225000D01*
G75*
G02*
X107895000Y-91300000I-75000J0D01*
G01*
X106595000Y-91300000D01*
G75*
G02*
X106520000Y-91225000I0J75000D01*
G01*
X106520000Y-91075000D01*
G75*
G02*
X106595000Y-91000000I75000J0D01*
G01*
G37*
G36*
G01*
X106595000Y-90000000D02*
X107895000Y-90000000D01*
G75*
G02*
X107970000Y-90075000I0J-75000D01*
G01*
X107970000Y-90225000D01*
G75*
G02*
X107895000Y-90300000I-75000J0D01*
G01*
X106595000Y-90300000D01*
G75*
G02*
X106520000Y-90225000I0J75000D01*
G01*
X106520000Y-90075000D01*
G75*
G02*
X106595000Y-90000000I75000J0D01*
G01*
G37*
G36*
G01*
X106595000Y-89500000D02*
X107895000Y-89500000D01*
G75*
G02*
X107970000Y-89575000I0J-75000D01*
G01*
X107970000Y-89725000D01*
G75*
G02*
X107895000Y-89800000I-75000J0D01*
G01*
X106595000Y-89800000D01*
G75*
G02*
X106520000Y-89725000I0J75000D01*
G01*
X106520000Y-89575000D01*
G75*
G02*
X106595000Y-89500000I75000J0D01*
G01*
G37*
G36*
G01*
X106595000Y-89000000D02*
X107895000Y-89000000D01*
G75*
G02*
X107970000Y-89075000I0J-75000D01*
G01*
X107970000Y-89225000D01*
G75*
G02*
X107895000Y-89300000I-75000J0D01*
G01*
X106595000Y-89300000D01*
G75*
G02*
X106520000Y-89225000I0J75000D01*
G01*
X106520000Y-89075000D01*
G75*
G02*
X106595000Y-89000000I75000J0D01*
G01*
G37*
G36*
G01*
X106670000Y-93850000D02*
X107820000Y-93850000D01*
G75*
G02*
X107970000Y-94000000I0J-150000D01*
G01*
X107970000Y-94300000D01*
G75*
G02*
X107820000Y-94450000I-150000J0D01*
G01*
X106670000Y-94450000D01*
G75*
G02*
X106520000Y-94300000I0J150000D01*
G01*
X106520000Y-94000000D01*
G75*
G02*
X106670000Y-93850000I150000J0D01*
G01*
G37*
G36*
G01*
X106670000Y-93050000D02*
X107820000Y-93050000D01*
G75*
G02*
X107970000Y-93200000I0J-150000D01*
G01*
X107970000Y-93500000D01*
G75*
G02*
X107820000Y-93650000I-150000J0D01*
G01*
X106670000Y-93650000D01*
G75*
G02*
X106520000Y-93500000I0J150000D01*
G01*
X106520000Y-93200000D01*
G75*
G02*
X106670000Y-93050000I150000J0D01*
G01*
G37*
G36*
G01*
X106670000Y-88150000D02*
X107820000Y-88150000D01*
G75*
G02*
X107970000Y-88300000I0J-150000D01*
G01*
X107970000Y-88600000D01*
G75*
G02*
X107820000Y-88750000I-150000J0D01*
G01*
X106670000Y-88750000D01*
G75*
G02*
X106520000Y-88600000I0J150000D01*
G01*
X106520000Y-88300000D01*
G75*
G02*
X106670000Y-88150000I150000J0D01*
G01*
G37*
G36*
G01*
X106670000Y-87350000D02*
X107820000Y-87350000D01*
G75*
G02*
X107970000Y-87500000I0J-150000D01*
G01*
X107970000Y-87800000D01*
G75*
G02*
X107820000Y-87950000I-150000J0D01*
G01*
X106670000Y-87950000D01*
G75*
G02*
X106520000Y-87800000I0J150000D01*
G01*
X106520000Y-87500000D01*
G75*
G02*
X106670000Y-87350000I150000J0D01*
G01*
G37*
G36*
G01*
X106670000Y-87350000D02*
X107820000Y-87350000D01*
G75*
G02*
X107970000Y-87500000I0J-150000D01*
G01*
X107970000Y-87800000D01*
G75*
G02*
X107820000Y-87950000I-150000J0D01*
G01*
X106670000Y-87950000D01*
G75*
G02*
X106520000Y-87800000I0J150000D01*
G01*
X106520000Y-87500000D01*
G75*
G02*
X106670000Y-87350000I150000J0D01*
G01*
G37*
G36*
G01*
X106670000Y-88150000D02*
X107820000Y-88150000D01*
G75*
G02*
X107970000Y-88300000I0J-150000D01*
G01*
X107970000Y-88600000D01*
G75*
G02*
X107820000Y-88750000I-150000J0D01*
G01*
X106670000Y-88750000D01*
G75*
G02*
X106520000Y-88600000I0J150000D01*
G01*
X106520000Y-88300000D01*
G75*
G02*
X106670000Y-88150000I150000J0D01*
G01*
G37*
G36*
G01*
X106670000Y-93050000D02*
X107820000Y-93050000D01*
G75*
G02*
X107970000Y-93200000I0J-150000D01*
G01*
X107970000Y-93500000D01*
G75*
G02*
X107820000Y-93650000I-150000J0D01*
G01*
X106670000Y-93650000D01*
G75*
G02*
X106520000Y-93500000I0J150000D01*
G01*
X106520000Y-93200000D01*
G75*
G02*
X106670000Y-93050000I150000J0D01*
G01*
G37*
G36*
G01*
X106670000Y-93850000D02*
X107820000Y-93850000D01*
G75*
G02*
X107970000Y-94000000I0J-150000D01*
G01*
X107970000Y-94300000D01*
G75*
G02*
X107820000Y-94450000I-150000J0D01*
G01*
X106670000Y-94450000D01*
G75*
G02*
X106520000Y-94300000I0J150000D01*
G01*
X106520000Y-94000000D01*
G75*
G02*
X106670000Y-93850000I150000J0D01*
G01*
G37*
D20*
X172750000Y-86000000D03*
X166850000Y-86000000D03*
D21*
X163350000Y-85000000D03*
X163350000Y-81300000D03*
D22*
X163550000Y-75200000D03*
D23*
X174850000Y-75450000D03*
D24*
X173645000Y-75100000D03*
X172545000Y-75100000D03*
X171445000Y-75100000D03*
X170345000Y-75100000D03*
X169245000Y-75100000D03*
X168145000Y-75100000D03*
X167045000Y-75100000D03*
X165945000Y-75100000D03*
D25*
X144000000Y-94200000D03*
X144000000Y-95000000D03*
X144000000Y-95800000D03*
X144000000Y-96600000D03*
X144000000Y-97400000D03*
X144000000Y-98200000D03*
X144000000Y-99000000D03*
X144000000Y-99800000D03*
X144000000Y-100600000D03*
X144000000Y-101400000D03*
X144000000Y-102200000D03*
X144000000Y-103000000D03*
X144000000Y-103800000D03*
X144000000Y-104600000D03*
X144000000Y-105400000D03*
X144000000Y-106200000D03*
X144800000Y-94200000D03*
X144800000Y-95000000D03*
X144800000Y-95800000D03*
X144800000Y-96600000D03*
X144800000Y-97400000D03*
X144800000Y-98200000D03*
X144800000Y-99000000D03*
X144800000Y-99800000D03*
X144800000Y-100600000D03*
X144800000Y-101400000D03*
X144800000Y-102200000D03*
X144800000Y-103000000D03*
X144800000Y-103800000D03*
X144800000Y-104600000D03*
X144800000Y-105400000D03*
X144800000Y-106200000D03*
X145600000Y-94200000D03*
X145600000Y-95000000D03*
X145600000Y-95800000D03*
X145600000Y-96600000D03*
X145600000Y-97400000D03*
X145600000Y-98200000D03*
X145600000Y-99000000D03*
X145600000Y-99800000D03*
X145600000Y-100600000D03*
X145600000Y-101400000D03*
X145600000Y-102200000D03*
X145600000Y-103000000D03*
X145600000Y-103800000D03*
X145600000Y-104600000D03*
X145600000Y-105400000D03*
X145600000Y-106200000D03*
X146400000Y-94200000D03*
X146400000Y-95000000D03*
X146400000Y-95800000D03*
X146400000Y-96600000D03*
X146400000Y-97400000D03*
X146400000Y-98200000D03*
X146400000Y-99000000D03*
X146400000Y-99800000D03*
X146400000Y-100600000D03*
X146400000Y-101400000D03*
X146400000Y-102200000D03*
X146400000Y-103000000D03*
X146400000Y-103800000D03*
X146400000Y-104600000D03*
X146400000Y-105400000D03*
X146400000Y-106200000D03*
X147200000Y-94200000D03*
X147200000Y-95000000D03*
X147200000Y-95800000D03*
X147200000Y-96600000D03*
X147200000Y-97400000D03*
X147200000Y-98200000D03*
X147200000Y-99000000D03*
X147200000Y-99800000D03*
X147200000Y-100600000D03*
X147200000Y-101400000D03*
X147200000Y-102200000D03*
X147200000Y-103000000D03*
X147200000Y-103800000D03*
X147200000Y-104600000D03*
X147200000Y-105400000D03*
X147200000Y-106200000D03*
X148000000Y-94200000D03*
X148000000Y-95000000D03*
X148000000Y-95800000D03*
X148000000Y-96600000D03*
X148000000Y-97400000D03*
X148000000Y-98200000D03*
X148000000Y-99000000D03*
X148000000Y-99800000D03*
X148000000Y-100600000D03*
X148000000Y-101400000D03*
X148000000Y-102200000D03*
X148000000Y-103000000D03*
X148000000Y-103800000D03*
X148000000Y-104600000D03*
X148000000Y-105400000D03*
X148000000Y-106200000D03*
X148800000Y-94200000D03*
X148800000Y-95000000D03*
X148800000Y-95800000D03*
X148800000Y-96600000D03*
X148800000Y-97400000D03*
X148800000Y-98200000D03*
X148800000Y-99000000D03*
X148800000Y-99800000D03*
X148800000Y-100600000D03*
X148800000Y-101400000D03*
X148800000Y-102200000D03*
X148800000Y-103000000D03*
X148800000Y-103800000D03*
X148800000Y-104600000D03*
X148800000Y-105400000D03*
X148800000Y-106200000D03*
X149600000Y-94200000D03*
X149600000Y-95000000D03*
X149600000Y-95800000D03*
X149600000Y-96600000D03*
X149600000Y-97400000D03*
X149600000Y-98200000D03*
X149600000Y-99000000D03*
X149600000Y-99800000D03*
X149600000Y-100600000D03*
X149600000Y-101400000D03*
X149600000Y-102200000D03*
X149600000Y-103000000D03*
X149600000Y-103800000D03*
X149600000Y-104600000D03*
X149600000Y-105400000D03*
X149600000Y-106200000D03*
X150400000Y-94200000D03*
X150400000Y-95000000D03*
X150400000Y-95800000D03*
X150400000Y-96600000D03*
X150400000Y-97400000D03*
X150400000Y-98200000D03*
X150400000Y-99000000D03*
X150400000Y-99800000D03*
X150400000Y-100600000D03*
X150400000Y-101400000D03*
X150400000Y-102200000D03*
X150400000Y-103000000D03*
X150400000Y-103800000D03*
X150400000Y-104600000D03*
X150400000Y-105400000D03*
X150400000Y-106200000D03*
X151200000Y-94200000D03*
X151200000Y-95000000D03*
X151200000Y-95800000D03*
X151200000Y-96600000D03*
X151200000Y-97400000D03*
X151200000Y-98200000D03*
X151200000Y-99000000D03*
X151200000Y-99800000D03*
X151200000Y-100600000D03*
X151200000Y-101400000D03*
X151200000Y-102200000D03*
X151200000Y-103000000D03*
X151200000Y-103800000D03*
X151200000Y-104600000D03*
X151200000Y-105400000D03*
X151200000Y-106200000D03*
X152000000Y-94200000D03*
X152000000Y-95000000D03*
X152000000Y-95800000D03*
X152000000Y-96600000D03*
X152000000Y-97400000D03*
X152000000Y-98200000D03*
X152000000Y-99000000D03*
X152000000Y-99800000D03*
X152000000Y-100600000D03*
X152000000Y-101400000D03*
X152000000Y-102200000D03*
X152000000Y-103000000D03*
X152000000Y-103800000D03*
X152000000Y-104600000D03*
X152000000Y-105400000D03*
X152000000Y-106200000D03*
X152800000Y-94200000D03*
X152800000Y-95000000D03*
X152800000Y-95800000D03*
X152800000Y-96600000D03*
X152800000Y-97400000D03*
X152800000Y-98200000D03*
X152800000Y-99000000D03*
X152800000Y-99800000D03*
X152800000Y-100600000D03*
X152800000Y-101400000D03*
X152800000Y-102200000D03*
X152800000Y-103000000D03*
X152800000Y-103800000D03*
X152800000Y-104600000D03*
X152800000Y-105400000D03*
X152800000Y-106200000D03*
X153600000Y-94200000D03*
X153600000Y-95000000D03*
X153600000Y-95800000D03*
X153600000Y-96600000D03*
X153600000Y-97400000D03*
X153600000Y-98200000D03*
X153600000Y-99000000D03*
X153600000Y-99800000D03*
X153600000Y-100600000D03*
X153600000Y-101400000D03*
X153600000Y-102200000D03*
X153600000Y-103000000D03*
X153600000Y-103800000D03*
X153600000Y-104600000D03*
X153600000Y-105400000D03*
X153600000Y-106200000D03*
X154400000Y-94200000D03*
X154400000Y-95000000D03*
X154400000Y-95800000D03*
X154400000Y-96600000D03*
X154400000Y-97400000D03*
X154400000Y-98200000D03*
X154400000Y-99000000D03*
X154400000Y-99800000D03*
X154400000Y-100600000D03*
X154400000Y-101400000D03*
X154400000Y-102200000D03*
X154400000Y-103000000D03*
X154400000Y-103800000D03*
X154400000Y-104600000D03*
X154400000Y-105400000D03*
X154400000Y-106200000D03*
X155200000Y-94200000D03*
X155200000Y-95000000D03*
X155200000Y-95800000D03*
X155200000Y-96600000D03*
X155200000Y-97400000D03*
X155200000Y-98200000D03*
X155200000Y-99000000D03*
X155200000Y-99800000D03*
X155200000Y-100600000D03*
X155200000Y-101400000D03*
X155200000Y-102200000D03*
X155200000Y-103000000D03*
X155200000Y-103800000D03*
X155200000Y-104600000D03*
X155200000Y-105400000D03*
X155200000Y-106200000D03*
X156000000Y-94200000D03*
X156000000Y-95000000D03*
X156000000Y-95800000D03*
X156000000Y-96600000D03*
X156000000Y-97400000D03*
X156000000Y-98200000D03*
X156000000Y-99000000D03*
X156000000Y-99800000D03*
X156000000Y-100600000D03*
X156000000Y-101400000D03*
X156000000Y-102200000D03*
X156000000Y-103000000D03*
X156000000Y-103800000D03*
X156000000Y-104600000D03*
X156000000Y-105400000D03*
X156000000Y-106200000D03*
M02*
