G04 #@! TF.GenerationSoftware,KiCad,Pcbnew,(5.1.9-0-10_14)*
G04 #@! TF.CreationDate,2021-01-29T20:41:04-08:00*
G04 #@! TF.ProjectId,cart-ecp5,63617274-2d65-4637-9035-2e6b69636164,rev?*
G04 #@! TF.SameCoordinates,Original*
G04 #@! TF.FileFunction,Legend,Top*
G04 #@! TF.FilePolarity,Positive*
%FSLAX46Y46*%
G04 Gerber Fmt 4.6, Leading zero omitted, Abs format (unit mm)*
G04 Created by KiCad (PCBNEW (5.1.9-0-10_14)) date 2021-01-29 20:41:04*
%MOMM*%
%LPD*%
G01*
G04 APERTURE LIST*
%ADD10C,0.150000*%
%ADD11C,0.250000*%
%ADD12C,0.120000*%
%ADD13C,0.200000*%
G04 APERTURE END LIST*
D10*
X194839285Y-94186607D02*
X194482142Y-94391964D01*
X194839285Y-94615178D02*
X194089285Y-94521428D01*
X194089285Y-94235714D01*
X194125000Y-94168750D01*
X194160714Y-94137500D01*
X194232142Y-94110714D01*
X194339285Y-94124107D01*
X194410714Y-94168750D01*
X194446428Y-94208928D01*
X194482142Y-94284821D01*
X194482142Y-94570535D01*
X194803571Y-93575000D02*
X194839285Y-93650892D01*
X194839285Y-93793750D01*
X194803571Y-93860714D01*
X194732142Y-93887500D01*
X194446428Y-93851785D01*
X194375000Y-93807142D01*
X194339285Y-93731250D01*
X194339285Y-93588392D01*
X194375000Y-93521428D01*
X194446428Y-93494642D01*
X194517857Y-93503571D01*
X194589285Y-93869642D01*
X194339285Y-93231250D02*
X194839285Y-93115178D01*
X194339285Y-92874107D01*
X194767857Y-92641964D02*
X194803571Y-92610714D01*
X194839285Y-92650892D01*
X194803571Y-92682142D01*
X194767857Y-92641964D01*
X194839285Y-92650892D01*
X194625000Y-91731250D02*
X194625000Y-91374107D01*
X194839285Y-91829464D02*
X194089285Y-91485714D01*
X194839285Y-91329464D01*
X142453571Y-80350000D02*
X142382142Y-80314285D01*
X142275000Y-80314285D01*
X142167857Y-80350000D01*
X142096428Y-80421428D01*
X142060714Y-80492857D01*
X142025000Y-80635714D01*
X142025000Y-80742857D01*
X142060714Y-80885714D01*
X142096428Y-80957142D01*
X142167857Y-81028571D01*
X142275000Y-81064285D01*
X142346428Y-81064285D01*
X142453571Y-81028571D01*
X142489285Y-80992857D01*
X142489285Y-80742857D01*
X142346428Y-80742857D01*
X142810714Y-81064285D02*
X142810714Y-80314285D01*
X143239285Y-81064285D01*
X143239285Y-80314285D01*
X143596428Y-81064285D02*
X143596428Y-80314285D01*
X143775000Y-80314285D01*
X143882142Y-80350000D01*
X143953571Y-80421428D01*
X143989285Y-80492857D01*
X144025000Y-80635714D01*
X144025000Y-80742857D01*
X143989285Y-80885714D01*
X143953571Y-80957142D01*
X143882142Y-81028571D01*
X143775000Y-81064285D01*
X143596428Y-81064285D01*
X145346428Y-80314285D02*
X145810714Y-80314285D01*
X145560714Y-80600000D01*
X145667857Y-80600000D01*
X145739285Y-80635714D01*
X145775000Y-80671428D01*
X145810714Y-80742857D01*
X145810714Y-80921428D01*
X145775000Y-80992857D01*
X145739285Y-81028571D01*
X145667857Y-81064285D01*
X145453571Y-81064285D01*
X145382142Y-81028571D01*
X145346428Y-80992857D01*
X146025000Y-80314285D02*
X146275000Y-81064285D01*
X146525000Y-80314285D01*
X146703571Y-80314285D02*
X147167857Y-80314285D01*
X146917857Y-80600000D01*
X147025000Y-80600000D01*
X147096428Y-80635714D01*
X147132142Y-80671428D01*
X147167857Y-80742857D01*
X147167857Y-80921428D01*
X147132142Y-80992857D01*
X147096428Y-81028571D01*
X147025000Y-81064285D01*
X146810714Y-81064285D01*
X146739285Y-81028571D01*
X146703571Y-80992857D01*
X157942857Y-79075000D02*
X157978571Y-79110714D01*
X158014285Y-79217857D01*
X158014285Y-79289285D01*
X157978571Y-79396428D01*
X157907142Y-79467857D01*
X157835714Y-79503571D01*
X157692857Y-79539285D01*
X157585714Y-79539285D01*
X157442857Y-79503571D01*
X157371428Y-79467857D01*
X157300000Y-79396428D01*
X157264285Y-79289285D01*
X157264285Y-79217857D01*
X157300000Y-79110714D01*
X157335714Y-79075000D01*
X157264285Y-78610714D02*
X157264285Y-78467857D01*
X157300000Y-78396428D01*
X157371428Y-78325000D01*
X157514285Y-78289285D01*
X157764285Y-78289285D01*
X157907142Y-78325000D01*
X157978571Y-78396428D01*
X158014285Y-78467857D01*
X158014285Y-78610714D01*
X157978571Y-78682142D01*
X157907142Y-78753571D01*
X157764285Y-78789285D01*
X157514285Y-78789285D01*
X157371428Y-78753571D01*
X157300000Y-78682142D01*
X157264285Y-78610714D01*
X158014285Y-77967857D02*
X157264285Y-77967857D01*
X158014285Y-77539285D01*
X157264285Y-77539285D01*
X157621428Y-76932142D02*
X157621428Y-77182142D01*
X158014285Y-77182142D02*
X157264285Y-77182142D01*
X157264285Y-76825000D01*
X105150000Y-119489285D02*
X105650000Y-119489285D01*
X105328571Y-120239285D01*
X105542857Y-117489285D02*
X105400000Y-117489285D01*
X105328571Y-117525000D01*
X105292857Y-117560714D01*
X105221428Y-117667857D01*
X105185714Y-117810714D01*
X105185714Y-118096428D01*
X105221428Y-118167857D01*
X105257142Y-118203571D01*
X105328571Y-118239285D01*
X105471428Y-118239285D01*
X105542857Y-118203571D01*
X105578571Y-118167857D01*
X105614285Y-118096428D01*
X105614285Y-117917857D01*
X105578571Y-117846428D01*
X105542857Y-117810714D01*
X105471428Y-117775000D01*
X105328571Y-117775000D01*
X105257142Y-117810714D01*
X105221428Y-117846428D01*
X105185714Y-117917857D01*
X105578571Y-115489285D02*
X105221428Y-115489285D01*
X105185714Y-115846428D01*
X105221428Y-115810714D01*
X105292857Y-115775000D01*
X105471428Y-115775000D01*
X105542857Y-115810714D01*
X105578571Y-115846428D01*
X105614285Y-115917857D01*
X105614285Y-116096428D01*
X105578571Y-116167857D01*
X105542857Y-116203571D01*
X105471428Y-116239285D01*
X105292857Y-116239285D01*
X105221428Y-116203571D01*
X105185714Y-116167857D01*
X105542857Y-113739285D02*
X105542857Y-114239285D01*
X105364285Y-113453571D02*
X105185714Y-113989285D01*
X105650000Y-113989285D01*
X105150000Y-111489285D02*
X105614285Y-111489285D01*
X105364285Y-111775000D01*
X105471428Y-111775000D01*
X105542857Y-111810714D01*
X105578571Y-111846428D01*
X105614285Y-111917857D01*
X105614285Y-112096428D01*
X105578571Y-112167857D01*
X105542857Y-112203571D01*
X105471428Y-112239285D01*
X105257142Y-112239285D01*
X105185714Y-112203571D01*
X105150000Y-112167857D01*
X105185714Y-109560714D02*
X105221428Y-109525000D01*
X105292857Y-109489285D01*
X105471428Y-109489285D01*
X105542857Y-109525000D01*
X105578571Y-109560714D01*
X105614285Y-109632142D01*
X105614285Y-109703571D01*
X105578571Y-109810714D01*
X105150000Y-110239285D01*
X105614285Y-110239285D01*
X105614285Y-108139285D02*
X105185714Y-108139285D01*
X105400000Y-108139285D02*
X105400000Y-107389285D01*
X105328571Y-107496428D01*
X105257142Y-107567857D01*
X105185714Y-107603571D01*
X105364285Y-105489285D02*
X105435714Y-105489285D01*
X105507142Y-105525000D01*
X105542857Y-105560714D01*
X105578571Y-105632142D01*
X105614285Y-105775000D01*
X105614285Y-105953571D01*
X105578571Y-106096428D01*
X105542857Y-106167857D01*
X105507142Y-106203571D01*
X105435714Y-106239285D01*
X105364285Y-106239285D01*
X105292857Y-106203571D01*
X105257142Y-106167857D01*
X105221428Y-106096428D01*
X105185714Y-105953571D01*
X105185714Y-105775000D01*
X105221428Y-105632142D01*
X105257142Y-105560714D01*
X105292857Y-105525000D01*
X105364285Y-105489285D01*
D11*
X193280952Y-118130803D02*
X190780952Y-117818303D01*
X191971428Y-117967113D02*
X191971428Y-116538541D01*
X193280952Y-116702232D02*
X190780952Y-116389732D01*
X190780952Y-114723065D02*
X190780952Y-114246875D01*
X190900000Y-114023660D01*
X191138095Y-113815327D01*
X191614285Y-113755803D01*
X192447619Y-113859970D01*
X192923809Y-114038541D01*
X193161904Y-114306398D01*
X193280952Y-114559375D01*
X193280952Y-115035565D01*
X193161904Y-115258779D01*
X192923809Y-115467113D01*
X192447619Y-115526636D01*
X191614285Y-115422470D01*
X191138095Y-115243898D01*
X190900000Y-114976041D01*
X190780952Y-114723065D01*
X193280952Y-112892708D02*
X190780952Y-112580208D01*
X192566666Y-111970089D01*
X190780952Y-110913541D01*
X193280952Y-111226041D01*
X191971428Y-109871875D02*
X191971428Y-109038541D01*
X193280952Y-108845089D02*
X193280952Y-110035565D01*
X190780952Y-109723065D01*
X190780952Y-108532589D01*
X193280952Y-105868898D02*
X190780952Y-105556398D01*
X193280952Y-104678422D02*
X190780952Y-104365922D01*
X193280952Y-103249851D01*
X190780952Y-102937351D01*
X190780952Y-102104017D02*
X193280952Y-101583184D01*
X190780952Y-100437351D01*
X192566666Y-99946279D02*
X192566666Y-98755803D01*
X193280952Y-100273660D02*
X190780952Y-99127827D01*
X193280952Y-98606994D01*
X193280952Y-97773660D02*
X190780952Y-97461160D01*
X190780952Y-96865922D01*
X190900000Y-96523660D01*
X191138095Y-96315327D01*
X191376190Y-96226041D01*
X191852380Y-96166517D01*
X192209523Y-96211160D01*
X192685714Y-96389732D01*
X192923809Y-96538541D01*
X193161904Y-96806398D01*
X193280952Y-97178422D01*
X193280952Y-97773660D01*
X191971428Y-95109970D02*
X191971428Y-94276636D01*
X193280952Y-94083184D02*
X193280952Y-95273660D01*
X190780952Y-94961160D01*
X190780952Y-93770684D01*
X193280952Y-91583184D02*
X192090476Y-92267708D01*
X193280952Y-93011755D02*
X190780952Y-92699255D01*
X190780952Y-91746875D01*
X190900000Y-91523660D01*
X191019047Y-91419494D01*
X191257142Y-91330208D01*
X191614285Y-91374851D01*
X191852380Y-91523660D01*
X191971428Y-91657589D01*
X192090476Y-91910565D01*
X192090476Y-92862946D01*
D10*
X179428571Y-125060714D02*
X179464285Y-125025000D01*
X179535714Y-124989285D01*
X179714285Y-124989285D01*
X179785714Y-125025000D01*
X179821428Y-125060714D01*
X179857142Y-125132142D01*
X179857142Y-125203571D01*
X179821428Y-125310714D01*
X179392857Y-125739285D01*
X179857142Y-125739285D01*
X180500000Y-124989285D02*
X180357142Y-124989285D01*
X180285714Y-125025000D01*
X180250000Y-125060714D01*
X180178571Y-125167857D01*
X180142857Y-125310714D01*
X180142857Y-125596428D01*
X180178571Y-125667857D01*
X180214285Y-125703571D01*
X180285714Y-125739285D01*
X180428571Y-125739285D01*
X180500000Y-125703571D01*
X180535714Y-125667857D01*
X180571428Y-125596428D01*
X180571428Y-125417857D01*
X180535714Y-125346428D01*
X180500000Y-125310714D01*
X180428571Y-125275000D01*
X180285714Y-125275000D01*
X180214285Y-125310714D01*
X180178571Y-125346428D01*
X180142857Y-125417857D01*
X119821428Y-124989285D02*
X119464285Y-124989285D01*
X119428571Y-125346428D01*
X119464285Y-125310714D01*
X119535714Y-125275000D01*
X119714285Y-125275000D01*
X119785714Y-125310714D01*
X119821428Y-125346428D01*
X119857142Y-125417857D01*
X119857142Y-125596428D01*
X119821428Y-125667857D01*
X119785714Y-125703571D01*
X119714285Y-125739285D01*
X119535714Y-125739285D01*
X119464285Y-125703571D01*
X119428571Y-125667857D01*
X120321428Y-124989285D02*
X120392857Y-124989285D01*
X120464285Y-125025000D01*
X120500000Y-125060714D01*
X120535714Y-125132142D01*
X120571428Y-125275000D01*
X120571428Y-125453571D01*
X120535714Y-125596428D01*
X120500000Y-125667857D01*
X120464285Y-125703571D01*
X120392857Y-125739285D01*
X120321428Y-125739285D01*
X120250000Y-125703571D01*
X120214285Y-125667857D01*
X120178571Y-125596428D01*
X120142857Y-125453571D01*
X120142857Y-125275000D01*
X120178571Y-125132142D01*
X120214285Y-125060714D01*
X120250000Y-125025000D01*
X120321428Y-124989285D01*
D12*
X196935000Y-72520000D02*
X196935000Y-81150000D01*
X196816905Y-72520000D02*
X196816905Y-81150000D01*
X196698810Y-72520000D02*
X196698810Y-81150000D01*
X196580715Y-72520000D02*
X196580715Y-81150000D01*
X196462620Y-72520000D02*
X196462620Y-81150000D01*
X196344525Y-72520000D02*
X196344525Y-81150000D01*
X196226430Y-72520000D02*
X196226430Y-81150000D01*
X196108335Y-72520000D02*
X196108335Y-81150000D01*
X195990240Y-72520000D02*
X195990240Y-81150000D01*
X195872145Y-72520000D02*
X195872145Y-81150000D01*
X195754050Y-72520000D02*
X195754050Y-81150000D01*
X195635955Y-72520000D02*
X195635955Y-81150000D01*
X195517860Y-72520000D02*
X195517860Y-81150000D01*
X195399765Y-72520000D02*
X195399765Y-81150000D01*
X195281670Y-72520000D02*
X195281670Y-81150000D01*
X195163575Y-72520000D02*
X195163575Y-81150000D01*
X195045480Y-72520000D02*
X195045480Y-81150000D01*
X194927385Y-72520000D02*
X194927385Y-81150000D01*
X194809290Y-72520000D02*
X194809290Y-81150000D01*
X194691195Y-72520000D02*
X194691195Y-81150000D01*
X194573100Y-72520000D02*
X194573100Y-81150000D01*
X196085000Y-81150000D02*
X196085000Y-81560000D01*
X196085000Y-83660000D02*
X196085000Y-84040000D01*
X195365000Y-81150000D02*
X195365000Y-81560000D01*
X195365000Y-83660000D02*
X195365000Y-84040000D01*
X193545000Y-81150000D02*
X193545000Y-81560000D01*
X193545000Y-83660000D02*
X193545000Y-84100000D01*
X192825000Y-81150000D02*
X192825000Y-81560000D01*
X192825000Y-83660000D02*
X192825000Y-84100000D01*
X191005000Y-81150000D02*
X191005000Y-81560000D01*
X191005000Y-83660000D02*
X191005000Y-84100000D01*
X190285000Y-81150000D02*
X190285000Y-81560000D01*
X190285000Y-83660000D02*
X190285000Y-84100000D01*
X188465000Y-81150000D02*
X188465000Y-81560000D01*
X188465000Y-83660000D02*
X188465000Y-84100000D01*
X187745000Y-81150000D02*
X187745000Y-81560000D01*
X187745000Y-83660000D02*
X187745000Y-84100000D01*
X185925000Y-81150000D02*
X185925000Y-81560000D01*
X185925000Y-83660000D02*
X185925000Y-84100000D01*
X185205000Y-81150000D02*
X185205000Y-81560000D01*
X185205000Y-83660000D02*
X185205000Y-84100000D01*
X183385000Y-81150000D02*
X183385000Y-81560000D01*
X183385000Y-83660000D02*
X183385000Y-84100000D01*
X182665000Y-81150000D02*
X182665000Y-81560000D01*
X182665000Y-83660000D02*
X182665000Y-84100000D01*
X194455000Y-72520000D02*
X194455000Y-81150000D01*
X191915000Y-72520000D02*
X191915000Y-81150000D01*
X189375000Y-72520000D02*
X189375000Y-81150000D01*
X186835000Y-72520000D02*
X186835000Y-81150000D01*
X184295000Y-72520000D02*
X184295000Y-81150000D01*
X197055000Y-72520000D02*
X197055000Y-81150000D01*
X197055000Y-81150000D02*
X181695000Y-81150000D01*
X181695000Y-72520000D02*
X181695000Y-81150000D01*
X197055000Y-72520000D02*
X181695000Y-72520000D01*
X197055000Y-86260000D02*
X195725000Y-86260000D01*
X197055000Y-85150000D02*
X197055000Y-86260000D01*
X113535000Y-102915000D02*
X115335000Y-102915000D01*
X115335000Y-99695000D02*
X112885000Y-99695000D01*
X138410000Y-99520000D02*
X138410000Y-101320000D01*
X141630000Y-101320000D02*
X141630000Y-98870000D01*
X113628641Y-104030000D02*
X113321359Y-104030000D01*
X113628641Y-103270000D02*
X113321359Y-103270000D01*
X137295000Y-99603641D02*
X137295000Y-99296359D01*
X138055000Y-99603641D02*
X138055000Y-99296359D01*
X160375000Y-107850000D02*
G75*
G03*
X160375000Y-107850000I-700000J0D01*
G01*
X154320000Y-79253641D02*
X154320000Y-78946359D01*
X155080000Y-79253641D02*
X155080000Y-78946359D01*
X147220000Y-79555000D02*
X147220000Y-76895000D01*
X144620000Y-79555000D02*
X147220000Y-79555000D01*
X144620000Y-76895000D02*
X147220000Y-76895000D01*
X144620000Y-79555000D02*
X144620000Y-76895000D01*
X143350000Y-79555000D02*
X142020000Y-79555000D01*
X142020000Y-79555000D02*
X142020000Y-78225000D01*
X118275000Y-103000000D02*
G75*
G03*
X118275000Y-103000000I-700000J0D01*
G01*
X175550000Y-91975000D02*
G75*
G03*
X175550000Y-91975000I-700000J0D01*
G01*
X167175000Y-96900000D02*
G75*
G03*
X167175000Y-96900000I-700000J0D01*
G01*
X133250000Y-108825000D02*
G75*
G03*
X133250000Y-108825000I-700000J0D01*
G01*
X157300000Y-90900000D02*
G75*
G03*
X157300000Y-90900000I-700000J0D01*
G01*
X141525000Y-108075000D02*
G75*
G03*
X141525000Y-108075000I-700000J0D01*
G01*
X105175000Y-83575000D02*
G75*
G03*
X105175000Y-83575000I-700000J0D01*
G01*
X115325000Y-77525000D02*
G75*
G03*
X115325000Y-77525000I-700000J0D01*
G01*
X113575000Y-83025000D02*
G75*
G03*
X113575000Y-83025000I-700000J0D01*
G01*
X104150000Y-77250000D02*
G75*
G03*
X104150000Y-77250000I-700000J0D01*
G01*
X127175000Y-78375000D02*
G75*
G03*
X127175000Y-78375000I-700000J0D01*
G01*
X122225000Y-83750000D02*
G75*
G03*
X122225000Y-83750000I-700000J0D01*
G01*
X121350000Y-75800000D02*
G75*
G03*
X121350000Y-75800000I-700000J0D01*
G01*
X141475000Y-103700000D02*
G75*
G03*
X141475000Y-103700000I-700000J0D01*
G01*
X154010000Y-78780000D02*
X154010000Y-77370000D01*
X151690000Y-77370000D02*
X151690000Y-79400000D01*
X151690000Y-77370000D02*
X152350000Y-77370000D01*
X153350000Y-77370000D02*
X154010000Y-77370000D01*
X155290000Y-76615000D02*
X155290000Y-78900000D01*
X156760000Y-76615000D02*
X155290000Y-76615000D01*
X156760000Y-78900000D02*
X156760000Y-76615000D01*
X153975000Y-86510000D02*
X150975000Y-86510000D01*
X156975000Y-81290000D02*
X150975000Y-81290000D01*
X110700000Y-115220000D02*
X111700000Y-115220000D01*
X110700000Y-118580000D02*
X111700000Y-118580000D01*
X110700000Y-107220000D02*
X111700000Y-107220000D01*
X110700000Y-110580000D02*
X111700000Y-110580000D01*
X108500000Y-119165000D02*
X106215000Y-119165000D01*
X106215000Y-119165000D02*
X106215000Y-120635000D01*
X106215000Y-120635000D02*
X108500000Y-120635000D01*
X108500000Y-117165000D02*
X106215000Y-117165000D01*
X106215000Y-117165000D02*
X106215000Y-118635000D01*
X106215000Y-118635000D02*
X108500000Y-118635000D01*
X108500000Y-115165000D02*
X106215000Y-115165000D01*
X106215000Y-115165000D02*
X106215000Y-116635000D01*
X106215000Y-116635000D02*
X108500000Y-116635000D01*
X108500000Y-113165000D02*
X106215000Y-113165000D01*
X106215000Y-113165000D02*
X106215000Y-114635000D01*
X106215000Y-114635000D02*
X108500000Y-114635000D01*
X108500000Y-111165000D02*
X106215000Y-111165000D01*
X106215000Y-111165000D02*
X106215000Y-112635000D01*
X106215000Y-112635000D02*
X108500000Y-112635000D01*
X108500000Y-109165000D02*
X106215000Y-109165000D01*
X106215000Y-109165000D02*
X106215000Y-110635000D01*
X106215000Y-110635000D02*
X108500000Y-110635000D01*
X108500000Y-107165000D02*
X106215000Y-107165000D01*
X106215000Y-107165000D02*
X106215000Y-108635000D01*
X106215000Y-108635000D02*
X108500000Y-108635000D01*
X108500000Y-105165000D02*
X106215000Y-105165000D01*
X106215000Y-105165000D02*
X106215000Y-106635000D01*
X106215000Y-106635000D02*
X108500000Y-106635000D01*
X139780000Y-119000000D02*
X139780000Y-120000000D01*
X136420000Y-119000000D02*
X136420000Y-120000000D01*
X172275000Y-97485000D02*
X174075000Y-97485000D01*
X174075000Y-94265000D02*
X171625000Y-94265000D01*
X169565000Y-96033578D02*
X169565000Y-95516422D01*
X170985000Y-96033578D02*
X170985000Y-95516422D01*
X169085000Y-95412221D02*
X169085000Y-95737779D01*
X168065000Y-95412221D02*
X168065000Y-95737779D01*
D13*
X170400000Y-100600000D02*
G75*
G03*
X170400000Y-100600000I-100000J0D01*
G01*
D10*
X169300000Y-100450000D02*
X168450000Y-100450000D01*
X170450000Y-101600000D02*
X169300000Y-100450000D01*
X170450000Y-101950000D02*
X170450000Y-101600000D01*
X162150000Y-100450000D02*
X164150000Y-100450000D01*
X162150000Y-101950000D02*
X162150000Y-100450000D01*
X170450000Y-106750000D02*
X168450000Y-106750000D01*
X170450000Y-105250000D02*
X170450000Y-106750000D01*
X162150000Y-106750000D02*
X164150000Y-106750000D01*
X162150000Y-105250000D02*
X162150000Y-106750000D01*
X170450000Y-106750000D02*
X168450000Y-106750000D01*
X170450000Y-105250000D02*
X170450000Y-106750000D01*
X170450000Y-106750000D02*
X168450000Y-106750000D01*
X170450000Y-105250000D02*
X170450000Y-106750000D01*
D12*
X117762779Y-82215000D02*
X117437221Y-82215000D01*
X117762779Y-83235000D02*
X117437221Y-83235000D01*
X117762779Y-77015000D02*
X117437221Y-77015000D01*
X117762779Y-78035000D02*
X117437221Y-78035000D01*
X138340000Y-105412779D02*
X138340000Y-105087221D01*
X139360000Y-105412779D02*
X139360000Y-105087221D01*
X110240000Y-80187779D02*
X110240000Y-79862221D01*
X111260000Y-80187779D02*
X111260000Y-79862221D01*
X136440000Y-104791422D02*
X136440000Y-105308578D01*
X137860000Y-104791422D02*
X137860000Y-105308578D01*
X108340000Y-79566422D02*
X108340000Y-80083578D01*
X109760000Y-79566422D02*
X109760000Y-80083578D01*
D13*
X130225000Y-77750000D02*
G75*
G03*
X130225000Y-77750000I-100000J0D01*
G01*
D12*
X134350000Y-76080000D02*
X131300000Y-76080000D01*
X134350000Y-76080000D02*
X134350000Y-77980000D01*
X131300000Y-76080000D02*
X131300000Y-77980000D01*
X131300000Y-86620000D02*
X134350000Y-86620000D01*
X131300000Y-86620000D02*
X131300000Y-84720000D01*
D10*
X135725000Y-84500000D02*
X129925000Y-84500000D01*
X135725000Y-78200000D02*
X129925000Y-78200000D01*
X129929400Y-79368800D02*
X129929400Y-79521200D01*
X129929400Y-80638800D02*
X129929400Y-80791200D01*
X129929400Y-81908800D02*
X129929400Y-82061200D01*
X129929400Y-83178800D02*
X129929400Y-83331200D01*
X135720600Y-83331200D02*
X135720600Y-83178800D01*
X135720600Y-82061200D02*
X135720600Y-81883400D01*
X135720600Y-80791200D02*
X135720600Y-80638800D01*
X135720600Y-79521200D02*
X135720600Y-79368800D01*
X130031000Y-80715000D02*
X132571000Y-80715000D01*
X132571000Y-80715000D02*
X132571000Y-81985000D01*
X132571000Y-81985000D02*
X130031000Y-81985000D01*
D12*
X134350000Y-86620000D02*
X134350000Y-84720000D01*
X160762779Y-84060000D02*
X160437221Y-84060000D01*
X160762779Y-83040000D02*
X160437221Y-83040000D01*
X124810000Y-79187779D02*
X124810000Y-78862221D01*
X123790000Y-79187779D02*
X123790000Y-78862221D01*
X134180000Y-119000000D02*
X134180000Y-120000000D01*
X130820000Y-119000000D02*
X130820000Y-120000000D01*
X116890000Y-89765000D02*
X116890000Y-89290000D01*
X116890000Y-89290000D02*
X117365000Y-89290000D01*
X126110000Y-98035000D02*
X126110000Y-98510000D01*
X126110000Y-98510000D02*
X125635000Y-98510000D01*
X126110000Y-89765000D02*
X126110000Y-89290000D01*
X126110000Y-89290000D02*
X125635000Y-89290000D01*
X116890000Y-98035000D02*
X116890000Y-98510000D01*
X108690000Y-98000000D02*
X108690000Y-99800000D01*
X111910000Y-99800000D02*
X111910000Y-97350000D01*
X109800000Y-92710000D02*
X111600000Y-92710000D01*
X111600000Y-89490000D02*
X109150000Y-89490000D01*
X161225000Y-88140000D02*
X159425000Y-88140000D01*
X159425000Y-91360000D02*
X161875000Y-91360000D01*
X135150000Y-103340000D02*
X133350000Y-103340000D01*
X133350000Y-106560000D02*
X135800000Y-106560000D01*
X107057107Y-78114999D02*
X105257107Y-78114999D01*
X105257107Y-81334999D02*
X107707107Y-81334999D01*
X119600000Y-81735000D02*
X121800000Y-81735000D01*
X119600000Y-81735000D02*
X117400000Y-81735000D01*
X119600000Y-78515000D02*
X121800000Y-78515000D01*
X119600000Y-78515000D02*
X116000000Y-78515000D01*
D10*
X120575000Y-104245000D02*
X120575000Y-104450000D01*
X126075000Y-104245000D02*
X126075000Y-104545000D01*
X126075000Y-109755000D02*
X126075000Y-109455000D01*
X120575000Y-109755000D02*
X120575000Y-109455000D01*
X120575000Y-104245000D02*
X126075000Y-104245000D01*
X120575000Y-109755000D02*
X126075000Y-109755000D01*
X120575000Y-104450000D02*
X118825000Y-104450000D01*
D12*
X161580000Y-119000000D02*
X161580000Y-120000000D01*
X158220000Y-119000000D02*
X158220000Y-120000000D01*
X145380000Y-119000000D02*
X145380000Y-120000000D01*
X142020000Y-119000000D02*
X142020000Y-120000000D01*
X169180000Y-119000000D02*
X169180000Y-120000000D01*
X165820000Y-119000000D02*
X165820000Y-120000000D01*
X155380000Y-119000000D02*
X155380000Y-120000000D01*
X152020000Y-119000000D02*
X152020000Y-120000000D01*
X175380000Y-119000000D02*
X175380000Y-120000000D01*
X172020000Y-119000000D02*
X172020000Y-120000000D01*
X160100000Y-76220000D02*
X161100000Y-76220000D01*
X160100000Y-79580000D02*
X161100000Y-79580000D01*
X105100000Y-95600000D02*
X103100000Y-95600000D01*
X101200000Y-95600000D02*
X100700000Y-95600000D01*
X105100000Y-86200000D02*
X103100000Y-86200000D01*
X101200000Y-86200000D02*
X100700000Y-86200000D01*
D10*
X175050000Y-76700000D02*
X175050000Y-86300000D01*
X175050000Y-86300000D02*
X173850000Y-86300000D01*
X171450000Y-86300000D02*
X168050000Y-86300000D01*
X165650000Y-86300000D02*
X163050000Y-86300000D01*
X163050000Y-86300000D02*
X163050000Y-85900000D01*
X163050000Y-84100000D02*
X163050000Y-82100000D01*
X163050000Y-80500000D02*
X163050000Y-76100000D01*
D13*
X157100000Y-107200000D02*
G75*
G03*
X157100000Y-107200000I-100000J0D01*
G01*
D12*
X157120000Y-106200000D02*
X157120000Y-103820000D01*
X156000000Y-107320000D02*
X157120000Y-106200000D01*
X153620000Y-107320000D02*
X156000000Y-107320000D01*
X157120000Y-93080000D02*
X157120000Y-96580000D01*
X153620000Y-93080000D02*
X157120000Y-93080000D01*
X142880000Y-107320000D02*
X142880000Y-103820000D01*
X146380000Y-107320000D02*
X142880000Y-107320000D01*
X142880000Y-93080000D02*
X142880000Y-96580000D01*
X146380000Y-93080000D02*
X142880000Y-93080000D01*
X142880000Y-107320000D02*
X142880000Y-103820000D01*
X146380000Y-107320000D02*
X142880000Y-107320000D01*
X142880000Y-107320000D02*
X142880000Y-103820000D01*
X146380000Y-107320000D02*
X142880000Y-107320000D01*
M02*
