G04 #@! TF.GenerationSoftware,KiCad,Pcbnew,(5.1.9-0-10_14)*
G04 #@! TF.CreationDate,2021-01-29T20:41:04-08:00*
G04 #@! TF.ProjectId,cart-ecp5,63617274-2d65-4637-9035-2e6b69636164,rev?*
G04 #@! TF.SameCoordinates,Original*
G04 #@! TF.FileFunction,Soldermask,Bot*
G04 #@! TF.FilePolarity,Negative*
%FSLAX46Y46*%
G04 Gerber Fmt 4.6, Leading zero omitted, Abs format (unit mm)*
G04 Created by KiCad (PCBNEW (5.1.9-0-10_14)) date 2021-01-29 20:41:04*
%MOMM*%
%LPD*%
G01*
G04 APERTURE LIST*
%ADD10O,1.800000X1.800000*%
%ADD11O,1.700000X1.100000*%
%ADD12C,0.750000*%
%ADD13O,2.200000X1.100000*%
%ADD14C,2.600000*%
%ADD15C,0.100000*%
G04 APERTURE END LIST*
D10*
X183025000Y-82610000D03*
X183025000Y-85150000D03*
X185565000Y-82610000D03*
X185565000Y-85150000D03*
X188105000Y-82610000D03*
X188105000Y-85150000D03*
X190645000Y-82610000D03*
X190645000Y-85150000D03*
X193185000Y-82610000D03*
X193185000Y-85150000D03*
X195725000Y-82610000D03*
G36*
G01*
X194875000Y-84250000D02*
X196575000Y-84250000D01*
G75*
G02*
X196625000Y-84300000I0J-50000D01*
G01*
X196625000Y-86000000D01*
G75*
G02*
X196575000Y-86050000I-50000J0D01*
G01*
X194875000Y-86050000D01*
G75*
G02*
X194825000Y-86000000I0J50000D01*
G01*
X194825000Y-84300000D01*
G75*
G02*
X194875000Y-84250000I50000J0D01*
G01*
G37*
G36*
G01*
X164080000Y-101750000D02*
X164470000Y-101750000D01*
G75*
G02*
X164635000Y-101915000I0J-165000D01*
G01*
X164635000Y-102245000D01*
G75*
G02*
X164470000Y-102410000I-165000J0D01*
G01*
X164080000Y-102410000D01*
G75*
G02*
X163915000Y-102245000I0J165000D01*
G01*
X163915000Y-101915000D01*
G75*
G02*
X164080000Y-101750000I165000J0D01*
G01*
G37*
G36*
G01*
X164080000Y-100790000D02*
X164470000Y-100790000D01*
G75*
G02*
X164635000Y-100955000I0J-165000D01*
G01*
X164635000Y-101285000D01*
G75*
G02*
X164470000Y-101450000I-165000J0D01*
G01*
X164080000Y-101450000D01*
G75*
G02*
X163915000Y-101285000I0J165000D01*
G01*
X163915000Y-100955000D01*
G75*
G02*
X164080000Y-100790000I165000J0D01*
G01*
G37*
G36*
G01*
X165030000Y-105250000D02*
X165420000Y-105250000D01*
G75*
G02*
X165585000Y-105415000I0J-165000D01*
G01*
X165585000Y-105745000D01*
G75*
G02*
X165420000Y-105910000I-165000J0D01*
G01*
X165030000Y-105910000D01*
G75*
G02*
X164865000Y-105745000I0J165000D01*
G01*
X164865000Y-105415000D01*
G75*
G02*
X165030000Y-105250000I165000J0D01*
G01*
G37*
G36*
G01*
X165030000Y-104290000D02*
X165420000Y-104290000D01*
G75*
G02*
X165585000Y-104455000I0J-165000D01*
G01*
X165585000Y-104785000D01*
G75*
G02*
X165420000Y-104950000I-165000J0D01*
G01*
X165030000Y-104950000D01*
G75*
G02*
X164865000Y-104785000I0J165000D01*
G01*
X164865000Y-104455000D01*
G75*
G02*
X165030000Y-104290000I165000J0D01*
G01*
G37*
X145890000Y-78225000D03*
G36*
G01*
X144200000Y-79125000D02*
X142500000Y-79125000D01*
G75*
G02*
X142450000Y-79075000I0J50000D01*
G01*
X142450000Y-77375000D01*
G75*
G02*
X142500000Y-77325000I50000J0D01*
G01*
X144200000Y-77325000D01*
G75*
G02*
X144250000Y-77375000I0J-50000D01*
G01*
X144250000Y-79075000D01*
G75*
G02*
X144200000Y-79125000I-50000J0D01*
G01*
G37*
G36*
G01*
X165027500Y-101740000D02*
X165422500Y-101740000D01*
G75*
G02*
X165595000Y-101912500I0J-172500D01*
G01*
X165595000Y-102257500D01*
G75*
G02*
X165422500Y-102430000I-172500J0D01*
G01*
X165027500Y-102430000D01*
G75*
G02*
X164855000Y-102257500I0J172500D01*
G01*
X164855000Y-101912500D01*
G75*
G02*
X165027500Y-101740000I172500J0D01*
G01*
G37*
G36*
G01*
X165027500Y-100770000D02*
X165422500Y-100770000D01*
G75*
G02*
X165595000Y-100942500I0J-172500D01*
G01*
X165595000Y-101287500D01*
G75*
G02*
X165422500Y-101460000I-172500J0D01*
G01*
X165027500Y-101460000D01*
G75*
G02*
X164855000Y-101287500I0J172500D01*
G01*
X164855000Y-100942500D01*
G75*
G02*
X165027500Y-100770000I172500J0D01*
G01*
G37*
G36*
G01*
X167572500Y-104460000D02*
X167177500Y-104460000D01*
G75*
G02*
X167005000Y-104287500I0J172500D01*
G01*
X167005000Y-103942500D01*
G75*
G02*
X167177500Y-103770000I172500J0D01*
G01*
X167572500Y-103770000D01*
G75*
G02*
X167745000Y-103942500I0J-172500D01*
G01*
X167745000Y-104287500D01*
G75*
G02*
X167572500Y-104460000I-172500J0D01*
G01*
G37*
G36*
G01*
X167572500Y-105430000D02*
X167177500Y-105430000D01*
G75*
G02*
X167005000Y-105257500I0J172500D01*
G01*
X167005000Y-104912500D01*
G75*
G02*
X167177500Y-104740000I172500J0D01*
G01*
X167572500Y-104740000D01*
G75*
G02*
X167745000Y-104912500I0J-172500D01*
G01*
X167745000Y-105257500D01*
G75*
G02*
X167572500Y-105430000I-172500J0D01*
G01*
G37*
G36*
G01*
X164077500Y-105240000D02*
X164472500Y-105240000D01*
G75*
G02*
X164645000Y-105412500I0J-172500D01*
G01*
X164645000Y-105757500D01*
G75*
G02*
X164472500Y-105930000I-172500J0D01*
G01*
X164077500Y-105930000D01*
G75*
G02*
X163905000Y-105757500I0J172500D01*
G01*
X163905000Y-105412500D01*
G75*
G02*
X164077500Y-105240000I172500J0D01*
G01*
G37*
G36*
G01*
X164077500Y-104270000D02*
X164472500Y-104270000D01*
G75*
G02*
X164645000Y-104442500I0J-172500D01*
G01*
X164645000Y-104787500D01*
G75*
G02*
X164472500Y-104960000I-172500J0D01*
G01*
X164077500Y-104960000D01*
G75*
G02*
X163905000Y-104787500I0J172500D01*
G01*
X163905000Y-104442500D01*
G75*
G02*
X164077500Y-104270000I172500J0D01*
G01*
G37*
G36*
G01*
X151672500Y-101010000D02*
X151277500Y-101010000D01*
G75*
G02*
X151105000Y-100837500I0J172500D01*
G01*
X151105000Y-100492500D01*
G75*
G02*
X151277500Y-100320000I172500J0D01*
G01*
X151672500Y-100320000D01*
G75*
G02*
X151845000Y-100492500I0J-172500D01*
G01*
X151845000Y-100837500D01*
G75*
G02*
X151672500Y-101010000I-172500J0D01*
G01*
G37*
G36*
G01*
X151672500Y-101980000D02*
X151277500Y-101980000D01*
G75*
G02*
X151105000Y-101807500I0J172500D01*
G01*
X151105000Y-101462500D01*
G75*
G02*
X151277500Y-101290000I172500J0D01*
G01*
X151672500Y-101290000D01*
G75*
G02*
X151845000Y-101462500I0J-172500D01*
G01*
X151845000Y-101807500D01*
G75*
G02*
X151672500Y-101980000I-172500J0D01*
G01*
G37*
G36*
G01*
X146652500Y-98140000D02*
X147047500Y-98140000D01*
G75*
G02*
X147220000Y-98312500I0J-172500D01*
G01*
X147220000Y-98657500D01*
G75*
G02*
X147047500Y-98830000I-172500J0D01*
G01*
X146652500Y-98830000D01*
G75*
G02*
X146480000Y-98657500I0J172500D01*
G01*
X146480000Y-98312500D01*
G75*
G02*
X146652500Y-98140000I172500J0D01*
G01*
G37*
G36*
G01*
X146652500Y-97170000D02*
X147047500Y-97170000D01*
G75*
G02*
X147220000Y-97342500I0J-172500D01*
G01*
X147220000Y-97687500D01*
G75*
G02*
X147047500Y-97860000I-172500J0D01*
G01*
X146652500Y-97860000D01*
G75*
G02*
X146480000Y-97687500I0J172500D01*
G01*
X146480000Y-97342500D01*
G75*
G02*
X146652500Y-97170000I172500J0D01*
G01*
G37*
G36*
G01*
X146652500Y-100015000D02*
X147047500Y-100015000D01*
G75*
G02*
X147220000Y-100187500I0J-172500D01*
G01*
X147220000Y-100532500D01*
G75*
G02*
X147047500Y-100705000I-172500J0D01*
G01*
X146652500Y-100705000D01*
G75*
G02*
X146480000Y-100532500I0J172500D01*
G01*
X146480000Y-100187500D01*
G75*
G02*
X146652500Y-100015000I172500J0D01*
G01*
G37*
G36*
G01*
X146652500Y-99045000D02*
X147047500Y-99045000D01*
G75*
G02*
X147220000Y-99217500I0J-172500D01*
G01*
X147220000Y-99562500D01*
G75*
G02*
X147047500Y-99735000I-172500J0D01*
G01*
X146652500Y-99735000D01*
G75*
G02*
X146480000Y-99562500I0J172500D01*
G01*
X146480000Y-99217500D01*
G75*
G02*
X146652500Y-99045000I172500J0D01*
G01*
G37*
G36*
G01*
X151160000Y-102352500D02*
X151160000Y-102747500D01*
G75*
G02*
X150987500Y-102920000I-172500J0D01*
G01*
X150642500Y-102920000D01*
G75*
G02*
X150470000Y-102747500I0J172500D01*
G01*
X150470000Y-102352500D01*
G75*
G02*
X150642500Y-102180000I172500J0D01*
G01*
X150987500Y-102180000D01*
G75*
G02*
X151160000Y-102352500I0J-172500D01*
G01*
G37*
G36*
G01*
X152130000Y-102352500D02*
X152130000Y-102747500D01*
G75*
G02*
X151957500Y-102920000I-172500J0D01*
G01*
X151612500Y-102920000D01*
G75*
G02*
X151440000Y-102747500I0J172500D01*
G01*
X151440000Y-102352500D01*
G75*
G02*
X151612500Y-102180000I172500J0D01*
G01*
X151957500Y-102180000D01*
G75*
G02*
X152130000Y-102352500I0J-172500D01*
G01*
G37*
G36*
G01*
X147602500Y-100015000D02*
X147997500Y-100015000D01*
G75*
G02*
X148170000Y-100187500I0J-172500D01*
G01*
X148170000Y-100532500D01*
G75*
G02*
X147997500Y-100705000I-172500J0D01*
G01*
X147602500Y-100705000D01*
G75*
G02*
X147430000Y-100532500I0J172500D01*
G01*
X147430000Y-100187500D01*
G75*
G02*
X147602500Y-100015000I172500J0D01*
G01*
G37*
G36*
G01*
X147602500Y-99045000D02*
X147997500Y-99045000D01*
G75*
G02*
X148170000Y-99217500I0J-172500D01*
G01*
X148170000Y-99562500D01*
G75*
G02*
X147997500Y-99735000I-172500J0D01*
G01*
X147602500Y-99735000D01*
G75*
G02*
X147430000Y-99562500I0J172500D01*
G01*
X147430000Y-99217500D01*
G75*
G02*
X147602500Y-99045000I172500J0D01*
G01*
G37*
G36*
G01*
X152622500Y-101010000D02*
X152227500Y-101010000D01*
G75*
G02*
X152055000Y-100837500I0J172500D01*
G01*
X152055000Y-100492500D01*
G75*
G02*
X152227500Y-100320000I172500J0D01*
G01*
X152622500Y-100320000D01*
G75*
G02*
X152795000Y-100492500I0J-172500D01*
G01*
X152795000Y-100837500D01*
G75*
G02*
X152622500Y-101010000I-172500J0D01*
G01*
G37*
G36*
G01*
X152622500Y-101980000D02*
X152227500Y-101980000D01*
G75*
G02*
X152055000Y-101807500I0J172500D01*
G01*
X152055000Y-101462500D01*
G75*
G02*
X152227500Y-101290000I172500J0D01*
G01*
X152622500Y-101290000D01*
G75*
G02*
X152795000Y-101462500I0J-172500D01*
G01*
X152795000Y-101807500D01*
G75*
G02*
X152622500Y-101980000I-172500J0D01*
G01*
G37*
G36*
G01*
X151672500Y-99135000D02*
X151277500Y-99135000D01*
G75*
G02*
X151105000Y-98962500I0J172500D01*
G01*
X151105000Y-98617500D01*
G75*
G02*
X151277500Y-98445000I172500J0D01*
G01*
X151672500Y-98445000D01*
G75*
G02*
X151845000Y-98617500I0J-172500D01*
G01*
X151845000Y-98962500D01*
G75*
G02*
X151672500Y-99135000I-172500J0D01*
G01*
G37*
G36*
G01*
X151672500Y-100105000D02*
X151277500Y-100105000D01*
G75*
G02*
X151105000Y-99932500I0J172500D01*
G01*
X151105000Y-99587500D01*
G75*
G02*
X151277500Y-99415000I172500J0D01*
G01*
X151672500Y-99415000D01*
G75*
G02*
X151845000Y-99587500I0J-172500D01*
G01*
X151845000Y-99932500D01*
G75*
G02*
X151672500Y-100105000I-172500J0D01*
G01*
G37*
G36*
G01*
X147602500Y-98140000D02*
X147997500Y-98140000D01*
G75*
G02*
X148170000Y-98312500I0J-172500D01*
G01*
X148170000Y-98657500D01*
G75*
G02*
X147997500Y-98830000I-172500J0D01*
G01*
X147602500Y-98830000D01*
G75*
G02*
X147430000Y-98657500I0J172500D01*
G01*
X147430000Y-98312500D01*
G75*
G02*
X147602500Y-98140000I172500J0D01*
G01*
G37*
G36*
G01*
X147602500Y-97170000D02*
X147997500Y-97170000D01*
G75*
G02*
X148170000Y-97342500I0J-172500D01*
G01*
X148170000Y-97687500D01*
G75*
G02*
X147997500Y-97860000I-172500J0D01*
G01*
X147602500Y-97860000D01*
G75*
G02*
X147430000Y-97687500I0J172500D01*
G01*
X147430000Y-97342500D01*
G75*
G02*
X147602500Y-97170000I172500J0D01*
G01*
G37*
G36*
G01*
X151810000Y-96902500D02*
X151810000Y-97297500D01*
G75*
G02*
X151637500Y-97470000I-172500J0D01*
G01*
X151292500Y-97470000D01*
G75*
G02*
X151120000Y-97297500I0J172500D01*
G01*
X151120000Y-96902500D01*
G75*
G02*
X151292500Y-96730000I172500J0D01*
G01*
X151637500Y-96730000D01*
G75*
G02*
X151810000Y-96902500I0J-172500D01*
G01*
G37*
G36*
G01*
X152780000Y-96902500D02*
X152780000Y-97297500D01*
G75*
G02*
X152607500Y-97470000I-172500J0D01*
G01*
X152262500Y-97470000D01*
G75*
G02*
X152090000Y-97297500I0J172500D01*
G01*
X152090000Y-96902500D01*
G75*
G02*
X152262500Y-96730000I172500J0D01*
G01*
X152607500Y-96730000D01*
G75*
G02*
X152780000Y-96902500I0J-172500D01*
G01*
G37*
G36*
G01*
X152622500Y-99135000D02*
X152227500Y-99135000D01*
G75*
G02*
X152055000Y-98962500I0J172500D01*
G01*
X152055000Y-98617500D01*
G75*
G02*
X152227500Y-98445000I172500J0D01*
G01*
X152622500Y-98445000D01*
G75*
G02*
X152795000Y-98617500I0J-172500D01*
G01*
X152795000Y-98962500D01*
G75*
G02*
X152622500Y-99135000I-172500J0D01*
G01*
G37*
G36*
G01*
X152622500Y-100105000D02*
X152227500Y-100105000D01*
G75*
G02*
X152055000Y-99932500I0J172500D01*
G01*
X152055000Y-99587500D01*
G75*
G02*
X152227500Y-99415000I172500J0D01*
G01*
X152622500Y-99415000D01*
G75*
G02*
X152795000Y-99587500I0J-172500D01*
G01*
X152795000Y-99932500D01*
G75*
G02*
X152622500Y-100105000I-172500J0D01*
G01*
G37*
G36*
G01*
X149565000Y-102747500D02*
X149565000Y-102352500D01*
G75*
G02*
X149737500Y-102180000I172500J0D01*
G01*
X150082500Y-102180000D01*
G75*
G02*
X150255000Y-102352500I0J-172500D01*
G01*
X150255000Y-102747500D01*
G75*
G02*
X150082500Y-102920000I-172500J0D01*
G01*
X149737500Y-102920000D01*
G75*
G02*
X149565000Y-102747500I0J172500D01*
G01*
G37*
G36*
G01*
X148595000Y-102747500D02*
X148595000Y-102352500D01*
G75*
G02*
X148767500Y-102180000I172500J0D01*
G01*
X149112500Y-102180000D01*
G75*
G02*
X149285000Y-102352500I0J-172500D01*
G01*
X149285000Y-102747500D01*
G75*
G02*
X149112500Y-102920000I-172500J0D01*
G01*
X148767500Y-102920000D01*
G75*
G02*
X148595000Y-102747500I0J172500D01*
G01*
G37*
G36*
G01*
X149460000Y-96902500D02*
X149460000Y-97297500D01*
G75*
G02*
X149287500Y-97470000I-172500J0D01*
G01*
X148942500Y-97470000D01*
G75*
G02*
X148770000Y-97297500I0J172500D01*
G01*
X148770000Y-96902500D01*
G75*
G02*
X148942500Y-96730000I172500J0D01*
G01*
X149287500Y-96730000D01*
G75*
G02*
X149460000Y-96902500I0J-172500D01*
G01*
G37*
G36*
G01*
X150430000Y-96902500D02*
X150430000Y-97297500D01*
G75*
G02*
X150257500Y-97470000I-172500J0D01*
G01*
X149912500Y-97470000D01*
G75*
G02*
X149740000Y-97297500I0J172500D01*
G01*
X149740000Y-96902500D01*
G75*
G02*
X149912500Y-96730000I172500J0D01*
G01*
X150257500Y-96730000D01*
G75*
G02*
X150430000Y-96902500I0J-172500D01*
G01*
G37*
G36*
G01*
X147890000Y-101797500D02*
X147890000Y-101402500D01*
G75*
G02*
X148062500Y-101230000I172500J0D01*
G01*
X148407500Y-101230000D01*
G75*
G02*
X148580000Y-101402500I0J-172500D01*
G01*
X148580000Y-101797500D01*
G75*
G02*
X148407500Y-101970000I-172500J0D01*
G01*
X148062500Y-101970000D01*
G75*
G02*
X147890000Y-101797500I0J172500D01*
G01*
G37*
G36*
G01*
X146920000Y-101797500D02*
X146920000Y-101402500D01*
G75*
G02*
X147092500Y-101230000I172500J0D01*
G01*
X147437500Y-101230000D01*
G75*
G02*
X147610000Y-101402500I0J-172500D01*
G01*
X147610000Y-101797500D01*
G75*
G02*
X147437500Y-101970000I-172500J0D01*
G01*
X147092500Y-101970000D01*
G75*
G02*
X146920000Y-101797500I0J172500D01*
G01*
G37*
G36*
G01*
X149347500Y-100535000D02*
X148952500Y-100535000D01*
G75*
G02*
X148780000Y-100362500I0J172500D01*
G01*
X148780000Y-100017500D01*
G75*
G02*
X148952500Y-99845000I172500J0D01*
G01*
X149347500Y-99845000D01*
G75*
G02*
X149520000Y-100017500I0J-172500D01*
G01*
X149520000Y-100362500D01*
G75*
G02*
X149347500Y-100535000I-172500J0D01*
G01*
G37*
G36*
G01*
X149347500Y-101505000D02*
X148952500Y-101505000D01*
G75*
G02*
X148780000Y-101332500I0J172500D01*
G01*
X148780000Y-100987500D01*
G75*
G02*
X148952500Y-100815000I172500J0D01*
G01*
X149347500Y-100815000D01*
G75*
G02*
X149520000Y-100987500I0J-172500D01*
G01*
X149520000Y-101332500D01*
G75*
G02*
X149347500Y-101505000I-172500J0D01*
G01*
G37*
G36*
G01*
X150297500Y-100535000D02*
X149902500Y-100535000D01*
G75*
G02*
X149730000Y-100362500I0J172500D01*
G01*
X149730000Y-100017500D01*
G75*
G02*
X149902500Y-99845000I172500J0D01*
G01*
X150297500Y-99845000D01*
G75*
G02*
X150470000Y-100017500I0J-172500D01*
G01*
X150470000Y-100362500D01*
G75*
G02*
X150297500Y-100535000I-172500J0D01*
G01*
G37*
G36*
G01*
X150297500Y-101505000D02*
X149902500Y-101505000D01*
G75*
G02*
X149730000Y-101332500I0J172500D01*
G01*
X149730000Y-100987500D01*
G75*
G02*
X149902500Y-100815000I172500J0D01*
G01*
X150297500Y-100815000D01*
G75*
G02*
X150470000Y-100987500I0J-172500D01*
G01*
X150470000Y-101332500D01*
G75*
G02*
X150297500Y-101505000I-172500J0D01*
G01*
G37*
G36*
G01*
X149902500Y-98940000D02*
X150297500Y-98940000D01*
G75*
G02*
X150470000Y-99112500I0J-172500D01*
G01*
X150470000Y-99457500D01*
G75*
G02*
X150297500Y-99630000I-172500J0D01*
G01*
X149902500Y-99630000D01*
G75*
G02*
X149730000Y-99457500I0J172500D01*
G01*
X149730000Y-99112500D01*
G75*
G02*
X149902500Y-98940000I172500J0D01*
G01*
G37*
G36*
G01*
X149902500Y-97970000D02*
X150297500Y-97970000D01*
G75*
G02*
X150470000Y-98142500I0J-172500D01*
G01*
X150470000Y-98487500D01*
G75*
G02*
X150297500Y-98660000I-172500J0D01*
G01*
X149902500Y-98660000D01*
G75*
G02*
X149730000Y-98487500I0J172500D01*
G01*
X149730000Y-98142500D01*
G75*
G02*
X149902500Y-97970000I172500J0D01*
G01*
G37*
G36*
G01*
X148952500Y-98940000D02*
X149347500Y-98940000D01*
G75*
G02*
X149520000Y-99112500I0J-172500D01*
G01*
X149520000Y-99457500D01*
G75*
G02*
X149347500Y-99630000I-172500J0D01*
G01*
X148952500Y-99630000D01*
G75*
G02*
X148780000Y-99457500I0J172500D01*
G01*
X148780000Y-99112500D01*
G75*
G02*
X148952500Y-98940000I172500J0D01*
G01*
G37*
G36*
G01*
X148952500Y-97970000D02*
X149347500Y-97970000D01*
G75*
G02*
X149520000Y-98142500I0J-172500D01*
G01*
X149520000Y-98487500D01*
G75*
G02*
X149347500Y-98660000I-172500J0D01*
G01*
X148952500Y-98660000D01*
G75*
G02*
X148780000Y-98487500I0J172500D01*
G01*
X148780000Y-98142500D01*
G75*
G02*
X148952500Y-97970000I172500J0D01*
G01*
G37*
D11*
X102150000Y-95220000D03*
D12*
X105800000Y-93790000D03*
D11*
X102150000Y-86580000D03*
D12*
X105800000Y-88010000D03*
D13*
X106330000Y-86580000D03*
X106330000Y-95220000D03*
D14*
X197400000Y-126600000D03*
X102600000Y-126600000D03*
D15*
X182200000Y-133296576D02*
X182173880Y-133382683D01*
X182081470Y-133555570D01*
X181957107Y-133707107D01*
X181805570Y-133831470D01*
X181632683Y-133923880D01*
X181546576Y-133950000D01*
X118453424Y-133950000D01*
X118367317Y-133923880D01*
X118194430Y-133831470D01*
X118042893Y-133707107D01*
X117918530Y-133555570D01*
X117826120Y-133382683D01*
X117800000Y-133296576D01*
X117800000Y-127050000D01*
X182200000Y-127050000D01*
X182200000Y-133296576D01*
G36*
X182200000Y-133296576D02*
G01*
X182173880Y-133382683D01*
X182081470Y-133555570D01*
X181957107Y-133707107D01*
X181805570Y-133831470D01*
X181632683Y-133923880D01*
X181546576Y-133950000D01*
X118453424Y-133950000D01*
X118367317Y-133923880D01*
X118194430Y-133831470D01*
X118042893Y-133707107D01*
X117918530Y-133555570D01*
X117826120Y-133382683D01*
X117800000Y-133296576D01*
X117800000Y-127050000D01*
X182200000Y-127050000D01*
X182200000Y-133296576D01*
G37*
X199950000Y-117950000D02*
X196550000Y-117950000D01*
X196550000Y-112050000D01*
X199950000Y-112050000D01*
X199950000Y-117950000D01*
G36*
X199950000Y-117950000D02*
G01*
X196550000Y-117950000D01*
X196550000Y-112050000D01*
X199950000Y-112050000D01*
X199950000Y-117950000D01*
G37*
X199950000Y-129950000D02*
X193800000Y-129950000D01*
X193800000Y-123550000D01*
X199950000Y-123550000D01*
X199950000Y-129950000D01*
G36*
X199950000Y-129950000D02*
G01*
X193800000Y-129950000D01*
X193800000Y-123550000D01*
X199950000Y-123550000D01*
X199950000Y-129950000D01*
G37*
X106200000Y-129950000D02*
X100050000Y-129950000D01*
X100050000Y-123550000D01*
X106200000Y-123550000D01*
X106200000Y-129950000D01*
G36*
X106200000Y-129950000D02*
G01*
X100050000Y-129950000D01*
X100050000Y-123550000D01*
X106200000Y-123550000D01*
X106200000Y-129950000D01*
G37*
X103450000Y-117950000D02*
X100050000Y-117950000D01*
X100050000Y-112050000D01*
X103450000Y-112050000D01*
X103450000Y-117950000D01*
G36*
X103450000Y-117950000D02*
G01*
X100050000Y-117950000D01*
X100050000Y-112050000D01*
X103450000Y-112050000D01*
X103450000Y-117950000D01*
G37*
X103450000Y-109980691D02*
X100050000Y-109980691D01*
X100050000Y-104080691D01*
X103450000Y-104080691D01*
X103450000Y-109980691D01*
G36*
X103450000Y-109980691D02*
G01*
X100050000Y-109980691D01*
X100050000Y-104080691D01*
X103450000Y-104080691D01*
X103450000Y-109980691D01*
G37*
X199950000Y-109980691D02*
X196550000Y-109980691D01*
X196550000Y-104080691D01*
X199950000Y-104080691D01*
X199950000Y-109980691D01*
G36*
X199950000Y-109980691D02*
G01*
X196550000Y-109980691D01*
X196550000Y-104080691D01*
X199950000Y-104080691D01*
X199950000Y-109980691D01*
G37*
M02*
