G04 #@! TF.GenerationSoftware,KiCad,Pcbnew,(5.1.9-0-10_14)*
G04 #@! TF.CreationDate,2021-01-29T20:41:04-08:00*
G04 #@! TF.ProjectId,cart-ecp5,63617274-2d65-4637-9035-2e6b69636164,rev?*
G04 #@! TF.SameCoordinates,Original*
G04 #@! TF.FileFunction,Soldermask,Top*
G04 #@! TF.FilePolarity,Negative*
%FSLAX46Y46*%
G04 Gerber Fmt 4.6, Leading zero omitted, Abs format (unit mm)*
G04 Created by KiCad (PCBNEW (5.1.9-0-10_14)) date 2021-01-29 20:41:04*
%MOMM*%
%LPD*%
G01*
G04 APERTURE LIST*
%ADD10O,1.800000X1.800000*%
%ADD11C,1.100000*%
%ADD12C,0.500000*%
%ADD13O,1.700000X1.100000*%
%ADD14C,0.750000*%
%ADD15O,2.200000X1.100000*%
%ADD16C,0.450000*%
%ADD17C,2.600000*%
%ADD18C,0.100000*%
G04 APERTURE END LIST*
D10*
X183025000Y-82610000D03*
X183025000Y-85150000D03*
X185565000Y-82610000D03*
X185565000Y-85150000D03*
X188105000Y-82610000D03*
X188105000Y-85150000D03*
X190645000Y-82610000D03*
X190645000Y-85150000D03*
X193185000Y-82610000D03*
X193185000Y-85150000D03*
X195725000Y-82610000D03*
G36*
G01*
X194875000Y-84250000D02*
X196575000Y-84250000D01*
G75*
G02*
X196625000Y-84300000I0J-50000D01*
G01*
X196625000Y-86000000D01*
G75*
G02*
X196575000Y-86050000I-50000J0D01*
G01*
X194875000Y-86050000D01*
G75*
G02*
X194825000Y-86000000I0J50000D01*
G01*
X194825000Y-84300000D01*
G75*
G02*
X194875000Y-84250000I50000J0D01*
G01*
G37*
G36*
G01*
X114955000Y-100680000D02*
X114955000Y-100030000D01*
G75*
G02*
X115005000Y-99980000I50000J0D01*
G01*
X116065000Y-99980000D01*
G75*
G02*
X116115000Y-100030000I0J-50000D01*
G01*
X116115000Y-100680000D01*
G75*
G02*
X116065000Y-100730000I-50000J0D01*
G01*
X115005000Y-100730000D01*
G75*
G02*
X114955000Y-100680000I0J50000D01*
G01*
G37*
G36*
G01*
X114955000Y-102580000D02*
X114955000Y-101930000D01*
G75*
G02*
X115005000Y-101880000I50000J0D01*
G01*
X116065000Y-101880000D01*
G75*
G02*
X116115000Y-101930000I0J-50000D01*
G01*
X116115000Y-102580000D01*
G75*
G02*
X116065000Y-102630000I-50000J0D01*
G01*
X115005000Y-102630000D01*
G75*
G02*
X114955000Y-102580000I0J50000D01*
G01*
G37*
G36*
G01*
X112755000Y-102580000D02*
X112755000Y-101930000D01*
G75*
G02*
X112805000Y-101880000I50000J0D01*
G01*
X113865000Y-101880000D01*
G75*
G02*
X113915000Y-101930000I0J-50000D01*
G01*
X113915000Y-102580000D01*
G75*
G02*
X113865000Y-102630000I-50000J0D01*
G01*
X112805000Y-102630000D01*
G75*
G02*
X112755000Y-102580000I0J50000D01*
G01*
G37*
G36*
G01*
X112755000Y-101630000D02*
X112755000Y-100980000D01*
G75*
G02*
X112805000Y-100930000I50000J0D01*
G01*
X113865000Y-100930000D01*
G75*
G02*
X113915000Y-100980000I0J-50000D01*
G01*
X113915000Y-101630000D01*
G75*
G02*
X113865000Y-101680000I-50000J0D01*
G01*
X112805000Y-101680000D01*
G75*
G02*
X112755000Y-101630000I0J50000D01*
G01*
G37*
G36*
G01*
X112755000Y-100680000D02*
X112755000Y-100030000D01*
G75*
G02*
X112805000Y-99980000I50000J0D01*
G01*
X113865000Y-99980000D01*
G75*
G02*
X113915000Y-100030000I0J-50000D01*
G01*
X113915000Y-100680000D01*
G75*
G02*
X113865000Y-100730000I-50000J0D01*
G01*
X112805000Y-100730000D01*
G75*
G02*
X112755000Y-100680000I0J50000D01*
G01*
G37*
G36*
G01*
X140645000Y-100940000D02*
X141295000Y-100940000D01*
G75*
G02*
X141345000Y-100990000I0J-50000D01*
G01*
X141345000Y-102050000D01*
G75*
G02*
X141295000Y-102100000I-50000J0D01*
G01*
X140645000Y-102100000D01*
G75*
G02*
X140595000Y-102050000I0J50000D01*
G01*
X140595000Y-100990000D01*
G75*
G02*
X140645000Y-100940000I50000J0D01*
G01*
G37*
G36*
G01*
X138745000Y-100940000D02*
X139395000Y-100940000D01*
G75*
G02*
X139445000Y-100990000I0J-50000D01*
G01*
X139445000Y-102050000D01*
G75*
G02*
X139395000Y-102100000I-50000J0D01*
G01*
X138745000Y-102100000D01*
G75*
G02*
X138695000Y-102050000I0J50000D01*
G01*
X138695000Y-100990000D01*
G75*
G02*
X138745000Y-100940000I50000J0D01*
G01*
G37*
G36*
G01*
X138745000Y-98740000D02*
X139395000Y-98740000D01*
G75*
G02*
X139445000Y-98790000I0J-50000D01*
G01*
X139445000Y-99850000D01*
G75*
G02*
X139395000Y-99900000I-50000J0D01*
G01*
X138745000Y-99900000D01*
G75*
G02*
X138695000Y-99850000I0J50000D01*
G01*
X138695000Y-98790000D01*
G75*
G02*
X138745000Y-98740000I50000J0D01*
G01*
G37*
G36*
G01*
X139695000Y-98740000D02*
X140345000Y-98740000D01*
G75*
G02*
X140395000Y-98790000I0J-50000D01*
G01*
X140395000Y-99850000D01*
G75*
G02*
X140345000Y-99900000I-50000J0D01*
G01*
X139695000Y-99900000D01*
G75*
G02*
X139645000Y-99850000I0J50000D01*
G01*
X139645000Y-98790000D01*
G75*
G02*
X139695000Y-98740000I50000J0D01*
G01*
G37*
G36*
G01*
X140645000Y-98740000D02*
X141295000Y-98740000D01*
G75*
G02*
X141345000Y-98790000I0J-50000D01*
G01*
X141345000Y-99850000D01*
G75*
G02*
X141295000Y-99900000I-50000J0D01*
G01*
X140645000Y-99900000D01*
G75*
G02*
X140595000Y-99850000I0J50000D01*
G01*
X140595000Y-98790000D01*
G75*
G02*
X140645000Y-98740000I50000J0D01*
G01*
G37*
G36*
G01*
X113285000Y-103440000D02*
X113285000Y-103860000D01*
G75*
G02*
X113125000Y-104020000I-160000J0D01*
G01*
X112805000Y-104020000D01*
G75*
G02*
X112645000Y-103860000I0J160000D01*
G01*
X112645000Y-103440000D01*
G75*
G02*
X112805000Y-103280000I160000J0D01*
G01*
X113125000Y-103280000D01*
G75*
G02*
X113285000Y-103440000I0J-160000D01*
G01*
G37*
G36*
G01*
X114305000Y-103440000D02*
X114305000Y-103860000D01*
G75*
G02*
X114145000Y-104020000I-160000J0D01*
G01*
X113825000Y-104020000D01*
G75*
G02*
X113665000Y-103860000I0J160000D01*
G01*
X113665000Y-103440000D01*
G75*
G02*
X113825000Y-103280000I160000J0D01*
G01*
X114145000Y-103280000D01*
G75*
G02*
X114305000Y-103440000I0J-160000D01*
G01*
G37*
G36*
G01*
X137885000Y-99260000D02*
X137465000Y-99260000D01*
G75*
G02*
X137305000Y-99100000I0J160000D01*
G01*
X137305000Y-98780000D01*
G75*
G02*
X137465000Y-98620000I160000J0D01*
G01*
X137885000Y-98620000D01*
G75*
G02*
X138045000Y-98780000I0J-160000D01*
G01*
X138045000Y-99100000D01*
G75*
G02*
X137885000Y-99260000I-160000J0D01*
G01*
G37*
G36*
G01*
X137885000Y-100280000D02*
X137465000Y-100280000D01*
G75*
G02*
X137305000Y-100120000I0J160000D01*
G01*
X137305000Y-99800000D01*
G75*
G02*
X137465000Y-99640000I160000J0D01*
G01*
X137885000Y-99640000D01*
G75*
G02*
X138045000Y-99800000I0J-160000D01*
G01*
X138045000Y-100120000D01*
G75*
G02*
X137885000Y-100280000I-160000J0D01*
G01*
G37*
D11*
X159675000Y-107850000D03*
G36*
G01*
X154910000Y-78910000D02*
X154490000Y-78910000D01*
G75*
G02*
X154330000Y-78750000I0J160000D01*
G01*
X154330000Y-78430000D01*
G75*
G02*
X154490000Y-78270000I160000J0D01*
G01*
X154910000Y-78270000D01*
G75*
G02*
X155070000Y-78430000I0J-160000D01*
G01*
X155070000Y-78750000D01*
G75*
G02*
X154910000Y-78910000I-160000J0D01*
G01*
G37*
G36*
G01*
X154910000Y-79930000D02*
X154490000Y-79930000D01*
G75*
G02*
X154330000Y-79770000I0J160000D01*
G01*
X154330000Y-79450000D01*
G75*
G02*
X154490000Y-79290000I160000J0D01*
G01*
X154910000Y-79290000D01*
G75*
G02*
X155070000Y-79450000I0J-160000D01*
G01*
X155070000Y-79770000D01*
G75*
G02*
X154910000Y-79930000I-160000J0D01*
G01*
G37*
D10*
X145890000Y-78225000D03*
G36*
G01*
X144200000Y-79125000D02*
X142500000Y-79125000D01*
G75*
G02*
X142450000Y-79075000I0J50000D01*
G01*
X142450000Y-77375000D01*
G75*
G02*
X142500000Y-77325000I50000J0D01*
G01*
X144200000Y-77325000D01*
G75*
G02*
X144250000Y-77375000I0J-50000D01*
G01*
X144250000Y-79075000D01*
G75*
G02*
X144200000Y-79125000I-50000J0D01*
G01*
G37*
G36*
G01*
X149535000Y-88302500D02*
X149535000Y-88697500D01*
G75*
G02*
X149362500Y-88870000I-172500J0D01*
G01*
X149017500Y-88870000D01*
G75*
G02*
X148845000Y-88697500I0J172500D01*
G01*
X148845000Y-88302500D01*
G75*
G02*
X149017500Y-88130000I172500J0D01*
G01*
X149362500Y-88130000D01*
G75*
G02*
X149535000Y-88302500I0J-172500D01*
G01*
G37*
G36*
G01*
X150505000Y-88302500D02*
X150505000Y-88697500D01*
G75*
G02*
X150332500Y-88870000I-172500J0D01*
G01*
X149987500Y-88870000D01*
G75*
G02*
X149815000Y-88697500I0J172500D01*
G01*
X149815000Y-88302500D01*
G75*
G02*
X149987500Y-88130000I172500J0D01*
G01*
X150332500Y-88130000D01*
G75*
G02*
X150505000Y-88302500I0J-172500D01*
G01*
G37*
G36*
G01*
X149815000Y-89697500D02*
X149815000Y-89302500D01*
G75*
G02*
X149987500Y-89130000I172500J0D01*
G01*
X150332500Y-89130000D01*
G75*
G02*
X150505000Y-89302500I0J-172500D01*
G01*
X150505000Y-89697500D01*
G75*
G02*
X150332500Y-89870000I-172500J0D01*
G01*
X149987500Y-89870000D01*
G75*
G02*
X149815000Y-89697500I0J172500D01*
G01*
G37*
G36*
G01*
X148845000Y-89697500D02*
X148845000Y-89302500D01*
G75*
G02*
X149017500Y-89130000I172500J0D01*
G01*
X149362500Y-89130000D01*
G75*
G02*
X149535000Y-89302500I0J-172500D01*
G01*
X149535000Y-89697500D01*
G75*
G02*
X149362500Y-89870000I-172500J0D01*
G01*
X149017500Y-89870000D01*
G75*
G02*
X148845000Y-89697500I0J172500D01*
G01*
G37*
D11*
X117575000Y-103000000D03*
X174850000Y-91975000D03*
X166475000Y-96900000D03*
X132550000Y-108825000D03*
X156600000Y-90900000D03*
X140825000Y-108075000D03*
X104475000Y-83575000D03*
X114625000Y-77525000D03*
X112875000Y-83025000D03*
X103450000Y-77250000D03*
X126475000Y-78375000D03*
X121525000Y-83750000D03*
X120650000Y-75800000D03*
X140775000Y-103700000D03*
G36*
G01*
X123052500Y-100590000D02*
X123447500Y-100590000D01*
G75*
G02*
X123620000Y-100762500I0J-172500D01*
G01*
X123620000Y-101107500D01*
G75*
G02*
X123447500Y-101280000I-172500J0D01*
G01*
X123052500Y-101280000D01*
G75*
G02*
X122880000Y-101107500I0J172500D01*
G01*
X122880000Y-100762500D01*
G75*
G02*
X123052500Y-100590000I172500J0D01*
G01*
G37*
G36*
G01*
X123052500Y-99620000D02*
X123447500Y-99620000D01*
G75*
G02*
X123620000Y-99792500I0J-172500D01*
G01*
X123620000Y-100137500D01*
G75*
G02*
X123447500Y-100310000I-172500J0D01*
G01*
X123052500Y-100310000D01*
G75*
G02*
X122880000Y-100137500I0J172500D01*
G01*
X122880000Y-99792500D01*
G75*
G02*
X123052500Y-99620000I172500J0D01*
G01*
G37*
G36*
G01*
X118052500Y-100590000D02*
X118447500Y-100590000D01*
G75*
G02*
X118620000Y-100762500I0J-172500D01*
G01*
X118620000Y-101107500D01*
G75*
G02*
X118447500Y-101280000I-172500J0D01*
G01*
X118052500Y-101280000D01*
G75*
G02*
X117880000Y-101107500I0J172500D01*
G01*
X117880000Y-100762500D01*
G75*
G02*
X118052500Y-100590000I172500J0D01*
G01*
G37*
G36*
G01*
X118052500Y-99620000D02*
X118447500Y-99620000D01*
G75*
G02*
X118620000Y-99792500I0J-172500D01*
G01*
X118620000Y-100137500D01*
G75*
G02*
X118447500Y-100310000I-172500J0D01*
G01*
X118052500Y-100310000D01*
G75*
G02*
X117880000Y-100137500I0J172500D01*
G01*
X117880000Y-99792500D01*
G75*
G02*
X118052500Y-99620000I172500J0D01*
G01*
G37*
G36*
G01*
X118897500Y-87160000D02*
X118502500Y-87160000D01*
G75*
G02*
X118330000Y-86987500I0J172500D01*
G01*
X118330000Y-86642500D01*
G75*
G02*
X118502500Y-86470000I172500J0D01*
G01*
X118897500Y-86470000D01*
G75*
G02*
X119070000Y-86642500I0J-172500D01*
G01*
X119070000Y-86987500D01*
G75*
G02*
X118897500Y-87160000I-172500J0D01*
G01*
G37*
G36*
G01*
X118897500Y-88130000D02*
X118502500Y-88130000D01*
G75*
G02*
X118330000Y-87957500I0J172500D01*
G01*
X118330000Y-87612500D01*
G75*
G02*
X118502500Y-87440000I172500J0D01*
G01*
X118897500Y-87440000D01*
G75*
G02*
X119070000Y-87612500I0J-172500D01*
G01*
X119070000Y-87957500D01*
G75*
G02*
X118897500Y-88130000I-172500J0D01*
G01*
G37*
G36*
G01*
X111297500Y-86460000D02*
X110902500Y-86460000D01*
G75*
G02*
X110730000Y-86287500I0J172500D01*
G01*
X110730000Y-85942500D01*
G75*
G02*
X110902500Y-85770000I172500J0D01*
G01*
X111297500Y-85770000D01*
G75*
G02*
X111470000Y-85942500I0J-172500D01*
G01*
X111470000Y-86287500D01*
G75*
G02*
X111297500Y-86460000I-172500J0D01*
G01*
G37*
G36*
G01*
X111297500Y-87430000D02*
X110902500Y-87430000D01*
G75*
G02*
X110730000Y-87257500I0J172500D01*
G01*
X110730000Y-86912500D01*
G75*
G02*
X110902500Y-86740000I172500J0D01*
G01*
X111297500Y-86740000D01*
G75*
G02*
X111470000Y-86912500I0J-172500D01*
G01*
X111470000Y-87257500D01*
G75*
G02*
X111297500Y-87430000I-172500J0D01*
G01*
G37*
G36*
G01*
X154502500Y-77315000D02*
X154897500Y-77315000D01*
G75*
G02*
X155070000Y-77487500I0J-172500D01*
G01*
X155070000Y-77832500D01*
G75*
G02*
X154897500Y-78005000I-172500J0D01*
G01*
X154502500Y-78005000D01*
G75*
G02*
X154330000Y-77832500I0J172500D01*
G01*
X154330000Y-77487500D01*
G75*
G02*
X154502500Y-77315000I172500J0D01*
G01*
G37*
G36*
G01*
X154502500Y-76345000D02*
X154897500Y-76345000D01*
G75*
G02*
X155070000Y-76517500I0J-172500D01*
G01*
X155070000Y-76862500D01*
G75*
G02*
X154897500Y-77035000I-172500J0D01*
G01*
X154502500Y-77035000D01*
G75*
G02*
X154330000Y-76862500I0J172500D01*
G01*
X154330000Y-76517500D01*
G75*
G02*
X154502500Y-76345000I172500J0D01*
G01*
G37*
G36*
G01*
X152575000Y-77450000D02*
X152575000Y-76750000D01*
G75*
G02*
X152625000Y-76700000I50000J0D01*
G01*
X153075000Y-76700000D01*
G75*
G02*
X153125000Y-76750000I0J-50000D01*
G01*
X153125000Y-77450000D01*
G75*
G02*
X153075000Y-77500000I-50000J0D01*
G01*
X152625000Y-77500000D01*
G75*
G02*
X152575000Y-77450000I0J50000D01*
G01*
G37*
G36*
G01*
X153225000Y-79450000D02*
X153225000Y-78750000D01*
G75*
G02*
X153275000Y-78700000I50000J0D01*
G01*
X153725000Y-78700000D01*
G75*
G02*
X153775000Y-78750000I0J-50000D01*
G01*
X153775000Y-79450000D01*
G75*
G02*
X153725000Y-79500000I-50000J0D01*
G01*
X153275000Y-79500000D01*
G75*
G02*
X153225000Y-79450000I0J50000D01*
G01*
G37*
G36*
G01*
X151925000Y-79450000D02*
X151925000Y-78750000D01*
G75*
G02*
X151975000Y-78700000I50000J0D01*
G01*
X152425000Y-78700000D01*
G75*
G02*
X152475000Y-78750000I0J-50000D01*
G01*
X152475000Y-79450000D01*
G75*
G02*
X152425000Y-79500000I-50000J0D01*
G01*
X151975000Y-79500000D01*
G75*
G02*
X151925000Y-79450000I0J50000D01*
G01*
G37*
G36*
G01*
X155743750Y-78400000D02*
X156306250Y-78400000D01*
G75*
G02*
X156550000Y-78643750I0J-243750D01*
G01*
X156550000Y-79131250D01*
G75*
G02*
X156306250Y-79375000I-243750J0D01*
G01*
X155743750Y-79375000D01*
G75*
G02*
X155500000Y-79131250I0J243750D01*
G01*
X155500000Y-78643750D01*
G75*
G02*
X155743750Y-78400000I243750J0D01*
G01*
G37*
G36*
G01*
X155743750Y-76825000D02*
X156306250Y-76825000D01*
G75*
G02*
X156550000Y-77068750I0J-243750D01*
G01*
X156550000Y-77556250D01*
G75*
G02*
X156306250Y-77800000I-243750J0D01*
G01*
X155743750Y-77800000D01*
G75*
G02*
X155500000Y-77556250I0J243750D01*
G01*
X155500000Y-77068750D01*
G75*
G02*
X155743750Y-76825000I243750J0D01*
G01*
G37*
G36*
G01*
X155725000Y-81900000D02*
X155725000Y-85900000D01*
G75*
G02*
X155675000Y-85950000I-50000J0D01*
G01*
X152275000Y-85950000D01*
G75*
G02*
X152225000Y-85900000I0J50000D01*
G01*
X152225000Y-81900000D01*
G75*
G02*
X152275000Y-81850000I50000J0D01*
G01*
X155675000Y-81850000D01*
G75*
G02*
X155725000Y-81900000I0J-50000D01*
G01*
G37*
G36*
G01*
X151750000Y-85655000D02*
X151750000Y-85955000D01*
G75*
G02*
X151600000Y-86105000I-150000J0D01*
G01*
X151025000Y-86105000D01*
G75*
G02*
X150875000Y-85955000I0J150000D01*
G01*
X150875000Y-85655000D01*
G75*
G02*
X151025000Y-85505000I150000J0D01*
G01*
X151600000Y-85505000D01*
G75*
G02*
X151750000Y-85655000I0J-150000D01*
G01*
G37*
G36*
G01*
X151750000Y-84385000D02*
X151750000Y-84685000D01*
G75*
G02*
X151600000Y-84835000I-150000J0D01*
G01*
X151025000Y-84835000D01*
G75*
G02*
X150875000Y-84685000I0J150000D01*
G01*
X150875000Y-84385000D01*
G75*
G02*
X151025000Y-84235000I150000J0D01*
G01*
X151600000Y-84235000D01*
G75*
G02*
X151750000Y-84385000I0J-150000D01*
G01*
G37*
G36*
G01*
X151750000Y-83115000D02*
X151750000Y-83415000D01*
G75*
G02*
X151600000Y-83565000I-150000J0D01*
G01*
X151025000Y-83565000D01*
G75*
G02*
X150875000Y-83415000I0J150000D01*
G01*
X150875000Y-83115000D01*
G75*
G02*
X151025000Y-82965000I150000J0D01*
G01*
X151600000Y-82965000D01*
G75*
G02*
X151750000Y-83115000I0J-150000D01*
G01*
G37*
G36*
G01*
X151750000Y-81845000D02*
X151750000Y-82145000D01*
G75*
G02*
X151600000Y-82295000I-150000J0D01*
G01*
X151025000Y-82295000D01*
G75*
G02*
X150875000Y-82145000I0J150000D01*
G01*
X150875000Y-81845000D01*
G75*
G02*
X151025000Y-81695000I150000J0D01*
G01*
X151600000Y-81695000D01*
G75*
G02*
X151750000Y-81845000I0J-150000D01*
G01*
G37*
G36*
G01*
X157075000Y-81845000D02*
X157075000Y-82145000D01*
G75*
G02*
X156925000Y-82295000I-150000J0D01*
G01*
X156350000Y-82295000D01*
G75*
G02*
X156200000Y-82145000I0J150000D01*
G01*
X156200000Y-81845000D01*
G75*
G02*
X156350000Y-81695000I150000J0D01*
G01*
X156925000Y-81695000D01*
G75*
G02*
X157075000Y-81845000I0J-150000D01*
G01*
G37*
G36*
G01*
X157075000Y-83115000D02*
X157075000Y-83415000D01*
G75*
G02*
X156925000Y-83565000I-150000J0D01*
G01*
X156350000Y-83565000D01*
G75*
G02*
X156200000Y-83415000I0J150000D01*
G01*
X156200000Y-83115000D01*
G75*
G02*
X156350000Y-82965000I150000J0D01*
G01*
X156925000Y-82965000D01*
G75*
G02*
X157075000Y-83115000I0J-150000D01*
G01*
G37*
G36*
G01*
X157075000Y-84385000D02*
X157075000Y-84685000D01*
G75*
G02*
X156925000Y-84835000I-150000J0D01*
G01*
X156350000Y-84835000D01*
G75*
G02*
X156200000Y-84685000I0J150000D01*
G01*
X156200000Y-84385000D01*
G75*
G02*
X156350000Y-84235000I150000J0D01*
G01*
X156925000Y-84235000D01*
G75*
G02*
X157075000Y-84385000I0J-150000D01*
G01*
G37*
G36*
G01*
X157075000Y-85655000D02*
X157075000Y-85955000D01*
G75*
G02*
X156925000Y-86105000I-150000J0D01*
G01*
X156350000Y-86105000D01*
G75*
G02*
X156200000Y-85955000I0J150000D01*
G01*
X156200000Y-85655000D01*
G75*
G02*
X156350000Y-85505000I150000J0D01*
G01*
X156925000Y-85505000D01*
G75*
G02*
X157075000Y-85655000I0J-150000D01*
G01*
G37*
G36*
G01*
X110750000Y-115450000D02*
X110750000Y-115950000D01*
G75*
G02*
X110700000Y-116000000I-50000J0D01*
G01*
X109900000Y-116000000D01*
G75*
G02*
X109850000Y-115950000I0J50000D01*
G01*
X109850000Y-115450000D01*
G75*
G02*
X109900000Y-115400000I50000J0D01*
G01*
X110700000Y-115400000D01*
G75*
G02*
X110750000Y-115450000I0J-50000D01*
G01*
G37*
G36*
G01*
X110750000Y-116300000D02*
X110750000Y-116700000D01*
G75*
G02*
X110700000Y-116750000I-50000J0D01*
G01*
X109900000Y-116750000D01*
G75*
G02*
X109850000Y-116700000I0J50000D01*
G01*
X109850000Y-116300000D01*
G75*
G02*
X109900000Y-116250000I50000J0D01*
G01*
X110700000Y-116250000D01*
G75*
G02*
X110750000Y-116300000I0J-50000D01*
G01*
G37*
G36*
G01*
X110750000Y-117850000D02*
X110750000Y-118350000D01*
G75*
G02*
X110700000Y-118400000I-50000J0D01*
G01*
X109900000Y-118400000D01*
G75*
G02*
X109850000Y-118350000I0J50000D01*
G01*
X109850000Y-117850000D01*
G75*
G02*
X109900000Y-117800000I50000J0D01*
G01*
X110700000Y-117800000D01*
G75*
G02*
X110750000Y-117850000I0J-50000D01*
G01*
G37*
G36*
G01*
X110750000Y-117100000D02*
X110750000Y-117500000D01*
G75*
G02*
X110700000Y-117550000I-50000J0D01*
G01*
X109900000Y-117550000D01*
G75*
G02*
X109850000Y-117500000I0J50000D01*
G01*
X109850000Y-117100000D01*
G75*
G02*
X109900000Y-117050000I50000J0D01*
G01*
X110700000Y-117050000D01*
G75*
G02*
X110750000Y-117100000I0J-50000D01*
G01*
G37*
G36*
G01*
X112550000Y-115450000D02*
X112550000Y-115950000D01*
G75*
G02*
X112500000Y-116000000I-50000J0D01*
G01*
X111700000Y-116000000D01*
G75*
G02*
X111650000Y-115950000I0J50000D01*
G01*
X111650000Y-115450000D01*
G75*
G02*
X111700000Y-115400000I50000J0D01*
G01*
X112500000Y-115400000D01*
G75*
G02*
X112550000Y-115450000I0J-50000D01*
G01*
G37*
G36*
G01*
X112550000Y-117100000D02*
X112550000Y-117500000D01*
G75*
G02*
X112500000Y-117550000I-50000J0D01*
G01*
X111700000Y-117550000D01*
G75*
G02*
X111650000Y-117500000I0J50000D01*
G01*
X111650000Y-117100000D01*
G75*
G02*
X111700000Y-117050000I50000J0D01*
G01*
X112500000Y-117050000D01*
G75*
G02*
X112550000Y-117100000I0J-50000D01*
G01*
G37*
G36*
G01*
X112550000Y-116300000D02*
X112550000Y-116700000D01*
G75*
G02*
X112500000Y-116750000I-50000J0D01*
G01*
X111700000Y-116750000D01*
G75*
G02*
X111650000Y-116700000I0J50000D01*
G01*
X111650000Y-116300000D01*
G75*
G02*
X111700000Y-116250000I50000J0D01*
G01*
X112500000Y-116250000D01*
G75*
G02*
X112550000Y-116300000I0J-50000D01*
G01*
G37*
G36*
G01*
X112550000Y-117850000D02*
X112550000Y-118350000D01*
G75*
G02*
X112500000Y-118400000I-50000J0D01*
G01*
X111700000Y-118400000D01*
G75*
G02*
X111650000Y-118350000I0J50000D01*
G01*
X111650000Y-117850000D01*
G75*
G02*
X111700000Y-117800000I50000J0D01*
G01*
X112500000Y-117800000D01*
G75*
G02*
X112550000Y-117850000I0J-50000D01*
G01*
G37*
G36*
G01*
X110750000Y-107450000D02*
X110750000Y-107950000D01*
G75*
G02*
X110700000Y-108000000I-50000J0D01*
G01*
X109900000Y-108000000D01*
G75*
G02*
X109850000Y-107950000I0J50000D01*
G01*
X109850000Y-107450000D01*
G75*
G02*
X109900000Y-107400000I50000J0D01*
G01*
X110700000Y-107400000D01*
G75*
G02*
X110750000Y-107450000I0J-50000D01*
G01*
G37*
G36*
G01*
X110750000Y-108300000D02*
X110750000Y-108700000D01*
G75*
G02*
X110700000Y-108750000I-50000J0D01*
G01*
X109900000Y-108750000D01*
G75*
G02*
X109850000Y-108700000I0J50000D01*
G01*
X109850000Y-108300000D01*
G75*
G02*
X109900000Y-108250000I50000J0D01*
G01*
X110700000Y-108250000D01*
G75*
G02*
X110750000Y-108300000I0J-50000D01*
G01*
G37*
G36*
G01*
X110750000Y-109850000D02*
X110750000Y-110350000D01*
G75*
G02*
X110700000Y-110400000I-50000J0D01*
G01*
X109900000Y-110400000D01*
G75*
G02*
X109850000Y-110350000I0J50000D01*
G01*
X109850000Y-109850000D01*
G75*
G02*
X109900000Y-109800000I50000J0D01*
G01*
X110700000Y-109800000D01*
G75*
G02*
X110750000Y-109850000I0J-50000D01*
G01*
G37*
G36*
G01*
X110750000Y-109100000D02*
X110750000Y-109500000D01*
G75*
G02*
X110700000Y-109550000I-50000J0D01*
G01*
X109900000Y-109550000D01*
G75*
G02*
X109850000Y-109500000I0J50000D01*
G01*
X109850000Y-109100000D01*
G75*
G02*
X109900000Y-109050000I50000J0D01*
G01*
X110700000Y-109050000D01*
G75*
G02*
X110750000Y-109100000I0J-50000D01*
G01*
G37*
G36*
G01*
X112550000Y-107450000D02*
X112550000Y-107950000D01*
G75*
G02*
X112500000Y-108000000I-50000J0D01*
G01*
X111700000Y-108000000D01*
G75*
G02*
X111650000Y-107950000I0J50000D01*
G01*
X111650000Y-107450000D01*
G75*
G02*
X111700000Y-107400000I50000J0D01*
G01*
X112500000Y-107400000D01*
G75*
G02*
X112550000Y-107450000I0J-50000D01*
G01*
G37*
G36*
G01*
X112550000Y-109100000D02*
X112550000Y-109500000D01*
G75*
G02*
X112500000Y-109550000I-50000J0D01*
G01*
X111700000Y-109550000D01*
G75*
G02*
X111650000Y-109500000I0J50000D01*
G01*
X111650000Y-109100000D01*
G75*
G02*
X111700000Y-109050000I50000J0D01*
G01*
X112500000Y-109050000D01*
G75*
G02*
X112550000Y-109100000I0J-50000D01*
G01*
G37*
G36*
G01*
X112550000Y-108300000D02*
X112550000Y-108700000D01*
G75*
G02*
X112500000Y-108750000I-50000J0D01*
G01*
X111700000Y-108750000D01*
G75*
G02*
X111650000Y-108700000I0J50000D01*
G01*
X111650000Y-108300000D01*
G75*
G02*
X111700000Y-108250000I50000J0D01*
G01*
X112500000Y-108250000D01*
G75*
G02*
X112550000Y-108300000I0J-50000D01*
G01*
G37*
G36*
G01*
X112550000Y-109850000D02*
X112550000Y-110350000D01*
G75*
G02*
X112500000Y-110400000I-50000J0D01*
G01*
X111700000Y-110400000D01*
G75*
G02*
X111650000Y-110350000I0J50000D01*
G01*
X111650000Y-109850000D01*
G75*
G02*
X111700000Y-109800000I50000J0D01*
G01*
X112500000Y-109800000D01*
G75*
G02*
X112550000Y-109850000I0J-50000D01*
G01*
G37*
G36*
G01*
X108000000Y-120181250D02*
X108000000Y-119618750D01*
G75*
G02*
X108243750Y-119375000I243750J0D01*
G01*
X108731250Y-119375000D01*
G75*
G02*
X108975000Y-119618750I0J-243750D01*
G01*
X108975000Y-120181250D01*
G75*
G02*
X108731250Y-120425000I-243750J0D01*
G01*
X108243750Y-120425000D01*
G75*
G02*
X108000000Y-120181250I0J243750D01*
G01*
G37*
G36*
G01*
X106425000Y-120181250D02*
X106425000Y-119618750D01*
G75*
G02*
X106668750Y-119375000I243750J0D01*
G01*
X107156250Y-119375000D01*
G75*
G02*
X107400000Y-119618750I0J-243750D01*
G01*
X107400000Y-120181250D01*
G75*
G02*
X107156250Y-120425000I-243750J0D01*
G01*
X106668750Y-120425000D01*
G75*
G02*
X106425000Y-120181250I0J243750D01*
G01*
G37*
G36*
G01*
X108000000Y-118181250D02*
X108000000Y-117618750D01*
G75*
G02*
X108243750Y-117375000I243750J0D01*
G01*
X108731250Y-117375000D01*
G75*
G02*
X108975000Y-117618750I0J-243750D01*
G01*
X108975000Y-118181250D01*
G75*
G02*
X108731250Y-118425000I-243750J0D01*
G01*
X108243750Y-118425000D01*
G75*
G02*
X108000000Y-118181250I0J243750D01*
G01*
G37*
G36*
G01*
X106425000Y-118181250D02*
X106425000Y-117618750D01*
G75*
G02*
X106668750Y-117375000I243750J0D01*
G01*
X107156250Y-117375000D01*
G75*
G02*
X107400000Y-117618750I0J-243750D01*
G01*
X107400000Y-118181250D01*
G75*
G02*
X107156250Y-118425000I-243750J0D01*
G01*
X106668750Y-118425000D01*
G75*
G02*
X106425000Y-118181250I0J243750D01*
G01*
G37*
G36*
G01*
X108000000Y-116181250D02*
X108000000Y-115618750D01*
G75*
G02*
X108243750Y-115375000I243750J0D01*
G01*
X108731250Y-115375000D01*
G75*
G02*
X108975000Y-115618750I0J-243750D01*
G01*
X108975000Y-116181250D01*
G75*
G02*
X108731250Y-116425000I-243750J0D01*
G01*
X108243750Y-116425000D01*
G75*
G02*
X108000000Y-116181250I0J243750D01*
G01*
G37*
G36*
G01*
X106425000Y-116181250D02*
X106425000Y-115618750D01*
G75*
G02*
X106668750Y-115375000I243750J0D01*
G01*
X107156250Y-115375000D01*
G75*
G02*
X107400000Y-115618750I0J-243750D01*
G01*
X107400000Y-116181250D01*
G75*
G02*
X107156250Y-116425000I-243750J0D01*
G01*
X106668750Y-116425000D01*
G75*
G02*
X106425000Y-116181250I0J243750D01*
G01*
G37*
G36*
G01*
X108000000Y-114181250D02*
X108000000Y-113618750D01*
G75*
G02*
X108243750Y-113375000I243750J0D01*
G01*
X108731250Y-113375000D01*
G75*
G02*
X108975000Y-113618750I0J-243750D01*
G01*
X108975000Y-114181250D01*
G75*
G02*
X108731250Y-114425000I-243750J0D01*
G01*
X108243750Y-114425000D01*
G75*
G02*
X108000000Y-114181250I0J243750D01*
G01*
G37*
G36*
G01*
X106425000Y-114181250D02*
X106425000Y-113618750D01*
G75*
G02*
X106668750Y-113375000I243750J0D01*
G01*
X107156250Y-113375000D01*
G75*
G02*
X107400000Y-113618750I0J-243750D01*
G01*
X107400000Y-114181250D01*
G75*
G02*
X107156250Y-114425000I-243750J0D01*
G01*
X106668750Y-114425000D01*
G75*
G02*
X106425000Y-114181250I0J243750D01*
G01*
G37*
G36*
G01*
X108000000Y-112181250D02*
X108000000Y-111618750D01*
G75*
G02*
X108243750Y-111375000I243750J0D01*
G01*
X108731250Y-111375000D01*
G75*
G02*
X108975000Y-111618750I0J-243750D01*
G01*
X108975000Y-112181250D01*
G75*
G02*
X108731250Y-112425000I-243750J0D01*
G01*
X108243750Y-112425000D01*
G75*
G02*
X108000000Y-112181250I0J243750D01*
G01*
G37*
G36*
G01*
X106425000Y-112181250D02*
X106425000Y-111618750D01*
G75*
G02*
X106668750Y-111375000I243750J0D01*
G01*
X107156250Y-111375000D01*
G75*
G02*
X107400000Y-111618750I0J-243750D01*
G01*
X107400000Y-112181250D01*
G75*
G02*
X107156250Y-112425000I-243750J0D01*
G01*
X106668750Y-112425000D01*
G75*
G02*
X106425000Y-112181250I0J243750D01*
G01*
G37*
G36*
G01*
X108000000Y-110181250D02*
X108000000Y-109618750D01*
G75*
G02*
X108243750Y-109375000I243750J0D01*
G01*
X108731250Y-109375000D01*
G75*
G02*
X108975000Y-109618750I0J-243750D01*
G01*
X108975000Y-110181250D01*
G75*
G02*
X108731250Y-110425000I-243750J0D01*
G01*
X108243750Y-110425000D01*
G75*
G02*
X108000000Y-110181250I0J243750D01*
G01*
G37*
G36*
G01*
X106425000Y-110181250D02*
X106425000Y-109618750D01*
G75*
G02*
X106668750Y-109375000I243750J0D01*
G01*
X107156250Y-109375000D01*
G75*
G02*
X107400000Y-109618750I0J-243750D01*
G01*
X107400000Y-110181250D01*
G75*
G02*
X107156250Y-110425000I-243750J0D01*
G01*
X106668750Y-110425000D01*
G75*
G02*
X106425000Y-110181250I0J243750D01*
G01*
G37*
G36*
G01*
X108000000Y-108181250D02*
X108000000Y-107618750D01*
G75*
G02*
X108243750Y-107375000I243750J0D01*
G01*
X108731250Y-107375000D01*
G75*
G02*
X108975000Y-107618750I0J-243750D01*
G01*
X108975000Y-108181250D01*
G75*
G02*
X108731250Y-108425000I-243750J0D01*
G01*
X108243750Y-108425000D01*
G75*
G02*
X108000000Y-108181250I0J243750D01*
G01*
G37*
G36*
G01*
X106425000Y-108181250D02*
X106425000Y-107618750D01*
G75*
G02*
X106668750Y-107375000I243750J0D01*
G01*
X107156250Y-107375000D01*
G75*
G02*
X107400000Y-107618750I0J-243750D01*
G01*
X107400000Y-108181250D01*
G75*
G02*
X107156250Y-108425000I-243750J0D01*
G01*
X106668750Y-108425000D01*
G75*
G02*
X106425000Y-108181250I0J243750D01*
G01*
G37*
G36*
G01*
X108000000Y-106181250D02*
X108000000Y-105618750D01*
G75*
G02*
X108243750Y-105375000I243750J0D01*
G01*
X108731250Y-105375000D01*
G75*
G02*
X108975000Y-105618750I0J-243750D01*
G01*
X108975000Y-106181250D01*
G75*
G02*
X108731250Y-106425000I-243750J0D01*
G01*
X108243750Y-106425000D01*
G75*
G02*
X108000000Y-106181250I0J243750D01*
G01*
G37*
G36*
G01*
X106425000Y-106181250D02*
X106425000Y-105618750D01*
G75*
G02*
X106668750Y-105375000I243750J0D01*
G01*
X107156250Y-105375000D01*
G75*
G02*
X107400000Y-105618750I0J-243750D01*
G01*
X107400000Y-106181250D01*
G75*
G02*
X107156250Y-106425000I-243750J0D01*
G01*
X106668750Y-106425000D01*
G75*
G02*
X106425000Y-106181250I0J243750D01*
G01*
G37*
G36*
G01*
X139550000Y-119050000D02*
X139050000Y-119050000D01*
G75*
G02*
X139000000Y-119000000I0J50000D01*
G01*
X139000000Y-118200000D01*
G75*
G02*
X139050000Y-118150000I50000J0D01*
G01*
X139550000Y-118150000D01*
G75*
G02*
X139600000Y-118200000I0J-50000D01*
G01*
X139600000Y-119000000D01*
G75*
G02*
X139550000Y-119050000I-50000J0D01*
G01*
G37*
G36*
G01*
X138700000Y-119050000D02*
X138300000Y-119050000D01*
G75*
G02*
X138250000Y-119000000I0J50000D01*
G01*
X138250000Y-118200000D01*
G75*
G02*
X138300000Y-118150000I50000J0D01*
G01*
X138700000Y-118150000D01*
G75*
G02*
X138750000Y-118200000I0J-50000D01*
G01*
X138750000Y-119000000D01*
G75*
G02*
X138700000Y-119050000I-50000J0D01*
G01*
G37*
G36*
G01*
X137150000Y-119050000D02*
X136650000Y-119050000D01*
G75*
G02*
X136600000Y-119000000I0J50000D01*
G01*
X136600000Y-118200000D01*
G75*
G02*
X136650000Y-118150000I50000J0D01*
G01*
X137150000Y-118150000D01*
G75*
G02*
X137200000Y-118200000I0J-50000D01*
G01*
X137200000Y-119000000D01*
G75*
G02*
X137150000Y-119050000I-50000J0D01*
G01*
G37*
G36*
G01*
X137900000Y-119050000D02*
X137500000Y-119050000D01*
G75*
G02*
X137450000Y-119000000I0J50000D01*
G01*
X137450000Y-118200000D01*
G75*
G02*
X137500000Y-118150000I50000J0D01*
G01*
X137900000Y-118150000D01*
G75*
G02*
X137950000Y-118200000I0J-50000D01*
G01*
X137950000Y-119000000D01*
G75*
G02*
X137900000Y-119050000I-50000J0D01*
G01*
G37*
G36*
G01*
X139550000Y-120850000D02*
X139050000Y-120850000D01*
G75*
G02*
X139000000Y-120800000I0J50000D01*
G01*
X139000000Y-120000000D01*
G75*
G02*
X139050000Y-119950000I50000J0D01*
G01*
X139550000Y-119950000D01*
G75*
G02*
X139600000Y-120000000I0J-50000D01*
G01*
X139600000Y-120800000D01*
G75*
G02*
X139550000Y-120850000I-50000J0D01*
G01*
G37*
G36*
G01*
X137900000Y-120850000D02*
X137500000Y-120850000D01*
G75*
G02*
X137450000Y-120800000I0J50000D01*
G01*
X137450000Y-120000000D01*
G75*
G02*
X137500000Y-119950000I50000J0D01*
G01*
X137900000Y-119950000D01*
G75*
G02*
X137950000Y-120000000I0J-50000D01*
G01*
X137950000Y-120800000D01*
G75*
G02*
X137900000Y-120850000I-50000J0D01*
G01*
G37*
G36*
G01*
X138700000Y-120850000D02*
X138300000Y-120850000D01*
G75*
G02*
X138250000Y-120800000I0J50000D01*
G01*
X138250000Y-120000000D01*
G75*
G02*
X138300000Y-119950000I50000J0D01*
G01*
X138700000Y-119950000D01*
G75*
G02*
X138750000Y-120000000I0J-50000D01*
G01*
X138750000Y-120800000D01*
G75*
G02*
X138700000Y-120850000I-50000J0D01*
G01*
G37*
G36*
G01*
X137150000Y-120850000D02*
X136650000Y-120850000D01*
G75*
G02*
X136600000Y-120800000I0J50000D01*
G01*
X136600000Y-120000000D01*
G75*
G02*
X136650000Y-119950000I50000J0D01*
G01*
X137150000Y-119950000D01*
G75*
G02*
X137200000Y-120000000I0J-50000D01*
G01*
X137200000Y-120800000D01*
G75*
G02*
X137150000Y-120850000I-50000J0D01*
G01*
G37*
G36*
G01*
X173695000Y-95250000D02*
X173695000Y-94600000D01*
G75*
G02*
X173745000Y-94550000I50000J0D01*
G01*
X174805000Y-94550000D01*
G75*
G02*
X174855000Y-94600000I0J-50000D01*
G01*
X174855000Y-95250000D01*
G75*
G02*
X174805000Y-95300000I-50000J0D01*
G01*
X173745000Y-95300000D01*
G75*
G02*
X173695000Y-95250000I0J50000D01*
G01*
G37*
G36*
G01*
X173695000Y-97150000D02*
X173695000Y-96500000D01*
G75*
G02*
X173745000Y-96450000I50000J0D01*
G01*
X174805000Y-96450000D01*
G75*
G02*
X174855000Y-96500000I0J-50000D01*
G01*
X174855000Y-97150000D01*
G75*
G02*
X174805000Y-97200000I-50000J0D01*
G01*
X173745000Y-97200000D01*
G75*
G02*
X173695000Y-97150000I0J50000D01*
G01*
G37*
G36*
G01*
X171495000Y-97150000D02*
X171495000Y-96500000D01*
G75*
G02*
X171545000Y-96450000I50000J0D01*
G01*
X172605000Y-96450000D01*
G75*
G02*
X172655000Y-96500000I0J-50000D01*
G01*
X172655000Y-97150000D01*
G75*
G02*
X172605000Y-97200000I-50000J0D01*
G01*
X171545000Y-97200000D01*
G75*
G02*
X171495000Y-97150000I0J50000D01*
G01*
G37*
G36*
G01*
X171495000Y-96200000D02*
X171495000Y-95550000D01*
G75*
G02*
X171545000Y-95500000I50000J0D01*
G01*
X172605000Y-95500000D01*
G75*
G02*
X172655000Y-95550000I0J-50000D01*
G01*
X172655000Y-96200000D01*
G75*
G02*
X172605000Y-96250000I-50000J0D01*
G01*
X171545000Y-96250000D01*
G75*
G02*
X171495000Y-96200000I0J50000D01*
G01*
G37*
G36*
G01*
X171495000Y-95250000D02*
X171495000Y-94600000D01*
G75*
G02*
X171545000Y-94550000I50000J0D01*
G01*
X172605000Y-94550000D01*
G75*
G02*
X172655000Y-94600000I0J-50000D01*
G01*
X172655000Y-95250000D01*
G75*
G02*
X172605000Y-95300000I-50000J0D01*
G01*
X171545000Y-95300000D01*
G75*
G02*
X171495000Y-95250000I0J50000D01*
G01*
G37*
G36*
G01*
X174865000Y-93772500D02*
X174865000Y-93377500D01*
G75*
G02*
X175037500Y-93205000I172500J0D01*
G01*
X175382500Y-93205000D01*
G75*
G02*
X175555000Y-93377500I0J-172500D01*
G01*
X175555000Y-93772500D01*
G75*
G02*
X175382500Y-93945000I-172500J0D01*
G01*
X175037500Y-93945000D01*
G75*
G02*
X174865000Y-93772500I0J172500D01*
G01*
G37*
G36*
G01*
X173895000Y-93772500D02*
X173895000Y-93377500D01*
G75*
G02*
X174067500Y-93205000I172500J0D01*
G01*
X174412500Y-93205000D01*
G75*
G02*
X174585000Y-93377500I0J-172500D01*
G01*
X174585000Y-93772500D01*
G75*
G02*
X174412500Y-93945000I-172500J0D01*
G01*
X174067500Y-93945000D01*
G75*
G02*
X173895000Y-93772500I0J172500D01*
G01*
G37*
G36*
G01*
X172965000Y-93772500D02*
X172965000Y-93377500D01*
G75*
G02*
X173137500Y-93205000I172500J0D01*
G01*
X173482500Y-93205000D01*
G75*
G02*
X173655000Y-93377500I0J-172500D01*
G01*
X173655000Y-93772500D01*
G75*
G02*
X173482500Y-93945000I-172500J0D01*
G01*
X173137500Y-93945000D01*
G75*
G02*
X172965000Y-93772500I0J172500D01*
G01*
G37*
G36*
G01*
X171995000Y-93772500D02*
X171995000Y-93377500D01*
G75*
G02*
X172167500Y-93205000I172500J0D01*
G01*
X172512500Y-93205000D01*
G75*
G02*
X172685000Y-93377500I0J-172500D01*
G01*
X172685000Y-93772500D01*
G75*
G02*
X172512500Y-93945000I-172500J0D01*
G01*
X172167500Y-93945000D01*
G75*
G02*
X171995000Y-93772500I0J172500D01*
G01*
G37*
G36*
G01*
X170756250Y-95375000D02*
X169793750Y-95375000D01*
G75*
G02*
X169525000Y-95106250I0J268750D01*
G01*
X169525000Y-94568750D01*
G75*
G02*
X169793750Y-94300000I268750J0D01*
G01*
X170756250Y-94300000D01*
G75*
G02*
X171025000Y-94568750I0J-268750D01*
G01*
X171025000Y-95106250D01*
G75*
G02*
X170756250Y-95375000I-268750J0D01*
G01*
G37*
G36*
G01*
X170756250Y-97250000D02*
X169793750Y-97250000D01*
G75*
G02*
X169525000Y-96981250I0J268750D01*
G01*
X169525000Y-96443750D01*
G75*
G02*
X169793750Y-96175000I268750J0D01*
G01*
X170756250Y-96175000D01*
G75*
G02*
X171025000Y-96443750I0J-268750D01*
G01*
X171025000Y-96981250D01*
G75*
G02*
X170756250Y-97250000I-268750J0D01*
G01*
G37*
G36*
G01*
X169190000Y-93747500D02*
X169190000Y-93352500D01*
G75*
G02*
X169362500Y-93180000I172500J0D01*
G01*
X169707500Y-93180000D01*
G75*
G02*
X169880000Y-93352500I0J-172500D01*
G01*
X169880000Y-93747500D01*
G75*
G02*
X169707500Y-93920000I-172500J0D01*
G01*
X169362500Y-93920000D01*
G75*
G02*
X169190000Y-93747500I0J172500D01*
G01*
G37*
G36*
G01*
X168220000Y-93747500D02*
X168220000Y-93352500D01*
G75*
G02*
X168392500Y-93180000I172500J0D01*
G01*
X168737500Y-93180000D01*
G75*
G02*
X168910000Y-93352500I0J-172500D01*
G01*
X168910000Y-93747500D01*
G75*
G02*
X168737500Y-93920000I-172500J0D01*
G01*
X168392500Y-93920000D01*
G75*
G02*
X168220000Y-93747500I0J172500D01*
G01*
G37*
G36*
G01*
X168293750Y-95875000D02*
X168856250Y-95875000D01*
G75*
G02*
X169100000Y-96118750I0J-243750D01*
G01*
X169100000Y-96606250D01*
G75*
G02*
X168856250Y-96850000I-243750J0D01*
G01*
X168293750Y-96850000D01*
G75*
G02*
X168050000Y-96606250I0J243750D01*
G01*
X168050000Y-96118750D01*
G75*
G02*
X168293750Y-95875000I243750J0D01*
G01*
G37*
G36*
G01*
X168293750Y-94300000D02*
X168856250Y-94300000D01*
G75*
G02*
X169100000Y-94543750I0J-243750D01*
G01*
X169100000Y-95031250D01*
G75*
G02*
X168856250Y-95275000I-243750J0D01*
G01*
X168293750Y-95275000D01*
G75*
G02*
X168050000Y-95031250I0J243750D01*
G01*
X168050000Y-94543750D01*
G75*
G02*
X168293750Y-94300000I243750J0D01*
G01*
G37*
G36*
G01*
X172965000Y-92772500D02*
X172965000Y-92377500D01*
G75*
G02*
X173137500Y-92205000I172500J0D01*
G01*
X173482500Y-92205000D01*
G75*
G02*
X173655000Y-92377500I0J-172500D01*
G01*
X173655000Y-92772500D01*
G75*
G02*
X173482500Y-92945000I-172500J0D01*
G01*
X173137500Y-92945000D01*
G75*
G02*
X172965000Y-92772500I0J172500D01*
G01*
G37*
G36*
G01*
X171995000Y-92772500D02*
X171995000Y-92377500D01*
G75*
G02*
X172167500Y-92205000I172500J0D01*
G01*
X172512500Y-92205000D01*
G75*
G02*
X172685000Y-92377500I0J-172500D01*
G01*
X172685000Y-92772500D01*
G75*
G02*
X172512500Y-92945000I-172500J0D01*
G01*
X172167500Y-92945000D01*
G75*
G02*
X171995000Y-92772500I0J172500D01*
G01*
G37*
G36*
G01*
X173660000Y-98002500D02*
X173660000Y-98397500D01*
G75*
G02*
X173487500Y-98570000I-172500J0D01*
G01*
X173142500Y-98570000D01*
G75*
G02*
X172970000Y-98397500I0J172500D01*
G01*
X172970000Y-98002500D01*
G75*
G02*
X173142500Y-97830000I172500J0D01*
G01*
X173487500Y-97830000D01*
G75*
G02*
X173660000Y-98002500I0J-172500D01*
G01*
G37*
G36*
G01*
X174630000Y-98002500D02*
X174630000Y-98397500D01*
G75*
G02*
X174457500Y-98570000I-172500J0D01*
G01*
X174112500Y-98570000D01*
G75*
G02*
X173940000Y-98397500I0J172500D01*
G01*
X173940000Y-98002500D01*
G75*
G02*
X174112500Y-97830000I172500J0D01*
G01*
X174457500Y-97830000D01*
G75*
G02*
X174630000Y-98002500I0J-172500D01*
G01*
G37*
D12*
X167300000Y-101600000D03*
X166300000Y-101600000D03*
X165300000Y-101600000D03*
X164300000Y-101600000D03*
X168300000Y-102600000D03*
X167300000Y-102600000D03*
X166300000Y-102600000D03*
X165300000Y-102600000D03*
X164300000Y-102600000D03*
X168300000Y-103600000D03*
X167300000Y-103600000D03*
X166300000Y-103600000D03*
X165300000Y-103600000D03*
X164300000Y-103600000D03*
X168300000Y-104600000D03*
X167300000Y-104600000D03*
X166300000Y-104600000D03*
X165300000Y-104600000D03*
X164300000Y-104600000D03*
X168300000Y-105600000D03*
X167300000Y-105600000D03*
X166300000Y-105600000D03*
X165300000Y-105600000D03*
X164300000Y-105600000D03*
G36*
G01*
X117300000Y-82443750D02*
X117300000Y-83006250D01*
G75*
G02*
X117056250Y-83250000I-243750J0D01*
G01*
X116568750Y-83250000D01*
G75*
G02*
X116325000Y-83006250I0J243750D01*
G01*
X116325000Y-82443750D01*
G75*
G02*
X116568750Y-82200000I243750J0D01*
G01*
X117056250Y-82200000D01*
G75*
G02*
X117300000Y-82443750I0J-243750D01*
G01*
G37*
G36*
G01*
X118875000Y-82443750D02*
X118875000Y-83006250D01*
G75*
G02*
X118631250Y-83250000I-243750J0D01*
G01*
X118143750Y-83250000D01*
G75*
G02*
X117900000Y-83006250I0J243750D01*
G01*
X117900000Y-82443750D01*
G75*
G02*
X118143750Y-82200000I243750J0D01*
G01*
X118631250Y-82200000D01*
G75*
G02*
X118875000Y-82443750I0J-243750D01*
G01*
G37*
G36*
G01*
X117300000Y-77243750D02*
X117300000Y-77806250D01*
G75*
G02*
X117056250Y-78050000I-243750J0D01*
G01*
X116568750Y-78050000D01*
G75*
G02*
X116325000Y-77806250I0J243750D01*
G01*
X116325000Y-77243750D01*
G75*
G02*
X116568750Y-77000000I243750J0D01*
G01*
X117056250Y-77000000D01*
G75*
G02*
X117300000Y-77243750I0J-243750D01*
G01*
G37*
G36*
G01*
X118875000Y-77243750D02*
X118875000Y-77806250D01*
G75*
G02*
X118631250Y-78050000I-243750J0D01*
G01*
X118143750Y-78050000D01*
G75*
G02*
X117900000Y-77806250I0J243750D01*
G01*
X117900000Y-77243750D01*
G75*
G02*
X118143750Y-77000000I243750J0D01*
G01*
X118631250Y-77000000D01*
G75*
G02*
X118875000Y-77243750I0J-243750D01*
G01*
G37*
G36*
G01*
X138210000Y-107052500D02*
X138210000Y-107447500D01*
G75*
G02*
X138037500Y-107620000I-172500J0D01*
G01*
X137692500Y-107620000D01*
G75*
G02*
X137520000Y-107447500I0J172500D01*
G01*
X137520000Y-107052500D01*
G75*
G02*
X137692500Y-106880000I172500J0D01*
G01*
X138037500Y-106880000D01*
G75*
G02*
X138210000Y-107052500I0J-172500D01*
G01*
G37*
G36*
G01*
X139180000Y-107052500D02*
X139180000Y-107447500D01*
G75*
G02*
X139007500Y-107620000I-172500J0D01*
G01*
X138662500Y-107620000D01*
G75*
G02*
X138490000Y-107447500I0J172500D01*
G01*
X138490000Y-107052500D01*
G75*
G02*
X138662500Y-106880000I172500J0D01*
G01*
X139007500Y-106880000D01*
G75*
G02*
X139180000Y-107052500I0J-172500D01*
G01*
G37*
G36*
G01*
X110160000Y-81827500D02*
X110160000Y-82222500D01*
G75*
G02*
X109987500Y-82395000I-172500J0D01*
G01*
X109642500Y-82395000D01*
G75*
G02*
X109470000Y-82222500I0J172500D01*
G01*
X109470000Y-81827500D01*
G75*
G02*
X109642500Y-81655000I172500J0D01*
G01*
X109987500Y-81655000D01*
G75*
G02*
X110160000Y-81827500I0J-172500D01*
G01*
G37*
G36*
G01*
X111130000Y-81827500D02*
X111130000Y-82222500D01*
G75*
G02*
X110957500Y-82395000I-172500J0D01*
G01*
X110612500Y-82395000D01*
G75*
G02*
X110440000Y-82222500I0J172500D01*
G01*
X110440000Y-81827500D01*
G75*
G02*
X110612500Y-81655000I172500J0D01*
G01*
X110957500Y-81655000D01*
G75*
G02*
X111130000Y-81827500I0J-172500D01*
G01*
G37*
G36*
G01*
X139131250Y-104950000D02*
X138568750Y-104950000D01*
G75*
G02*
X138325000Y-104706250I0J243750D01*
G01*
X138325000Y-104218750D01*
G75*
G02*
X138568750Y-103975000I243750J0D01*
G01*
X139131250Y-103975000D01*
G75*
G02*
X139375000Y-104218750I0J-243750D01*
G01*
X139375000Y-104706250D01*
G75*
G02*
X139131250Y-104950000I-243750J0D01*
G01*
G37*
G36*
G01*
X139131250Y-106525000D02*
X138568750Y-106525000D01*
G75*
G02*
X138325000Y-106281250I0J243750D01*
G01*
X138325000Y-105793750D01*
G75*
G02*
X138568750Y-105550000I243750J0D01*
G01*
X139131250Y-105550000D01*
G75*
G02*
X139375000Y-105793750I0J-243750D01*
G01*
X139375000Y-106281250D01*
G75*
G02*
X139131250Y-106525000I-243750J0D01*
G01*
G37*
G36*
G01*
X111031250Y-79725000D02*
X110468750Y-79725000D01*
G75*
G02*
X110225000Y-79481250I0J243750D01*
G01*
X110225000Y-78993750D01*
G75*
G02*
X110468750Y-78750000I243750J0D01*
G01*
X111031250Y-78750000D01*
G75*
G02*
X111275000Y-78993750I0J-243750D01*
G01*
X111275000Y-79481250D01*
G75*
G02*
X111031250Y-79725000I-243750J0D01*
G01*
G37*
G36*
G01*
X111031250Y-81300000D02*
X110468750Y-81300000D01*
G75*
G02*
X110225000Y-81056250I0J243750D01*
G01*
X110225000Y-80568750D01*
G75*
G02*
X110468750Y-80325000I243750J0D01*
G01*
X111031250Y-80325000D01*
G75*
G02*
X111275000Y-80568750I0J-243750D01*
G01*
X111275000Y-81056250D01*
G75*
G02*
X111031250Y-81300000I-243750J0D01*
G01*
G37*
G36*
G01*
X159865000Y-92247500D02*
X159865000Y-91852500D01*
G75*
G02*
X160037500Y-91680000I172500J0D01*
G01*
X160382500Y-91680000D01*
G75*
G02*
X160555000Y-91852500I0J-172500D01*
G01*
X160555000Y-92247500D01*
G75*
G02*
X160382500Y-92420000I-172500J0D01*
G01*
X160037500Y-92420000D01*
G75*
G02*
X159865000Y-92247500I0J172500D01*
G01*
G37*
G36*
G01*
X158895000Y-92247500D02*
X158895000Y-91852500D01*
G75*
G02*
X159067500Y-91680000I172500J0D01*
G01*
X159412500Y-91680000D01*
G75*
G02*
X159585000Y-91852500I0J-172500D01*
G01*
X159585000Y-92247500D01*
G75*
G02*
X159412500Y-92420000I-172500J0D01*
G01*
X159067500Y-92420000D01*
G75*
G02*
X158895000Y-92247500I0J172500D01*
G01*
G37*
G36*
G01*
X162922500Y-90060000D02*
X162527500Y-90060000D01*
G75*
G02*
X162355000Y-89887500I0J172500D01*
G01*
X162355000Y-89542500D01*
G75*
G02*
X162527500Y-89370000I172500J0D01*
G01*
X162922500Y-89370000D01*
G75*
G02*
X163095000Y-89542500I0J-172500D01*
G01*
X163095000Y-89887500D01*
G75*
G02*
X162922500Y-90060000I-172500J0D01*
G01*
G37*
G36*
G01*
X162922500Y-91030000D02*
X162527500Y-91030000D01*
G75*
G02*
X162355000Y-90857500I0J172500D01*
G01*
X162355000Y-90512500D01*
G75*
G02*
X162527500Y-90340000I172500J0D01*
G01*
X162922500Y-90340000D01*
G75*
G02*
X163095000Y-90512500I0J-172500D01*
G01*
X163095000Y-90857500D01*
G75*
G02*
X162922500Y-91030000I-172500J0D01*
G01*
G37*
G36*
G01*
X133765000Y-102847500D02*
X133765000Y-102452500D01*
G75*
G02*
X133937500Y-102280000I172500J0D01*
G01*
X134282500Y-102280000D01*
G75*
G02*
X134455000Y-102452500I0J-172500D01*
G01*
X134455000Y-102847500D01*
G75*
G02*
X134282500Y-103020000I-172500J0D01*
G01*
X133937500Y-103020000D01*
G75*
G02*
X133765000Y-102847500I0J172500D01*
G01*
G37*
G36*
G01*
X132795000Y-102847500D02*
X132795000Y-102452500D01*
G75*
G02*
X132967500Y-102280000I172500J0D01*
G01*
X133312500Y-102280000D01*
G75*
G02*
X133485000Y-102452500I0J-172500D01*
G01*
X133485000Y-102847500D01*
G75*
G02*
X133312500Y-103020000I-172500J0D01*
G01*
X132967500Y-103020000D01*
G75*
G02*
X132795000Y-102847500I0J172500D01*
G01*
G37*
G36*
G01*
X105690000Y-77622500D02*
X105690000Y-77227500D01*
G75*
G02*
X105862500Y-77055000I172500J0D01*
G01*
X106207500Y-77055000D01*
G75*
G02*
X106380000Y-77227500I0J-172500D01*
G01*
X106380000Y-77622500D01*
G75*
G02*
X106207500Y-77795000I-172500J0D01*
G01*
X105862500Y-77795000D01*
G75*
G02*
X105690000Y-77622500I0J172500D01*
G01*
G37*
G36*
G01*
X104720000Y-77622500D02*
X104720000Y-77227500D01*
G75*
G02*
X104892500Y-77055000I172500J0D01*
G01*
X105237500Y-77055000D01*
G75*
G02*
X105410000Y-77227500I0J-172500D01*
G01*
X105410000Y-77622500D01*
G75*
G02*
X105237500Y-77795000I-172500J0D01*
G01*
X104892500Y-77795000D01*
G75*
G02*
X104720000Y-77622500I0J172500D01*
G01*
G37*
G36*
G01*
X136668750Y-105450000D02*
X137631250Y-105450000D01*
G75*
G02*
X137900000Y-105718750I0J-268750D01*
G01*
X137900000Y-106256250D01*
G75*
G02*
X137631250Y-106525000I-268750J0D01*
G01*
X136668750Y-106525000D01*
G75*
G02*
X136400000Y-106256250I0J268750D01*
G01*
X136400000Y-105718750D01*
G75*
G02*
X136668750Y-105450000I268750J0D01*
G01*
G37*
G36*
G01*
X136668750Y-103575000D02*
X137631250Y-103575000D01*
G75*
G02*
X137900000Y-103843750I0J-268750D01*
G01*
X137900000Y-104381250D01*
G75*
G02*
X137631250Y-104650000I-268750J0D01*
G01*
X136668750Y-104650000D01*
G75*
G02*
X136400000Y-104381250I0J268750D01*
G01*
X136400000Y-103843750D01*
G75*
G02*
X136668750Y-103575000I268750J0D01*
G01*
G37*
G36*
G01*
X108568750Y-80225000D02*
X109531250Y-80225000D01*
G75*
G02*
X109800000Y-80493750I0J-268750D01*
G01*
X109800000Y-81031250D01*
G75*
G02*
X109531250Y-81300000I-268750J0D01*
G01*
X108568750Y-81300000D01*
G75*
G02*
X108300000Y-81031250I0J268750D01*
G01*
X108300000Y-80493750D01*
G75*
G02*
X108568750Y-80225000I268750J0D01*
G01*
G37*
G36*
G01*
X108568750Y-78350000D02*
X109531250Y-78350000D01*
G75*
G02*
X109800000Y-78618750I0J-268750D01*
G01*
X109800000Y-79156250D01*
G75*
G02*
X109531250Y-79425000I-268750J0D01*
G01*
X108568750Y-79425000D01*
G75*
G02*
X108300000Y-79156250I0J268750D01*
G01*
X108300000Y-78618750D01*
G75*
G02*
X108568750Y-78350000I268750J0D01*
G01*
G37*
G36*
G01*
X133425000Y-83470000D02*
X136225000Y-83470000D01*
G75*
G02*
X136275000Y-83520000I0J-50000D01*
G01*
X136275000Y-84260000D01*
G75*
G02*
X136225000Y-84310000I-50000J0D01*
G01*
X133425000Y-84310000D01*
G75*
G02*
X133375000Y-84260000I0J50000D01*
G01*
X133375000Y-83520000D01*
G75*
G02*
X133425000Y-83470000I50000J0D01*
G01*
G37*
G36*
G01*
X129425000Y-83470000D02*
X132225000Y-83470000D01*
G75*
G02*
X132275000Y-83520000I0J-50000D01*
G01*
X132275000Y-84260000D01*
G75*
G02*
X132225000Y-84310000I-50000J0D01*
G01*
X129425000Y-84310000D01*
G75*
G02*
X129375000Y-84260000I0J50000D01*
G01*
X129375000Y-83520000D01*
G75*
G02*
X129425000Y-83470000I50000J0D01*
G01*
G37*
G36*
G01*
X133425000Y-82200000D02*
X136225000Y-82200000D01*
G75*
G02*
X136275000Y-82250000I0J-50000D01*
G01*
X136275000Y-82990000D01*
G75*
G02*
X136225000Y-83040000I-50000J0D01*
G01*
X133425000Y-83040000D01*
G75*
G02*
X133375000Y-82990000I0J50000D01*
G01*
X133375000Y-82250000D01*
G75*
G02*
X133425000Y-82200000I50000J0D01*
G01*
G37*
G36*
G01*
X129425000Y-82200000D02*
X132225000Y-82200000D01*
G75*
G02*
X132275000Y-82250000I0J-50000D01*
G01*
X132275000Y-82990000D01*
G75*
G02*
X132225000Y-83040000I-50000J0D01*
G01*
X129425000Y-83040000D01*
G75*
G02*
X129375000Y-82990000I0J50000D01*
G01*
X129375000Y-82250000D01*
G75*
G02*
X129425000Y-82200000I50000J0D01*
G01*
G37*
G36*
G01*
X133425000Y-80930000D02*
X136225000Y-80930000D01*
G75*
G02*
X136275000Y-80980000I0J-50000D01*
G01*
X136275000Y-81720000D01*
G75*
G02*
X136225000Y-81770000I-50000J0D01*
G01*
X133425000Y-81770000D01*
G75*
G02*
X133375000Y-81720000I0J50000D01*
G01*
X133375000Y-80980000D01*
G75*
G02*
X133425000Y-80930000I50000J0D01*
G01*
G37*
G36*
G01*
X129425000Y-80930000D02*
X132225000Y-80930000D01*
G75*
G02*
X132275000Y-80980000I0J-50000D01*
G01*
X132275000Y-81720000D01*
G75*
G02*
X132225000Y-81770000I-50000J0D01*
G01*
X129425000Y-81770000D01*
G75*
G02*
X129375000Y-81720000I0J50000D01*
G01*
X129375000Y-80980000D01*
G75*
G02*
X129425000Y-80930000I50000J0D01*
G01*
G37*
G36*
G01*
X133425000Y-79660000D02*
X136225000Y-79660000D01*
G75*
G02*
X136275000Y-79710000I0J-50000D01*
G01*
X136275000Y-80450000D01*
G75*
G02*
X136225000Y-80500000I-50000J0D01*
G01*
X133425000Y-80500000D01*
G75*
G02*
X133375000Y-80450000I0J50000D01*
G01*
X133375000Y-79710000D01*
G75*
G02*
X133425000Y-79660000I50000J0D01*
G01*
G37*
G36*
G01*
X129425000Y-79660000D02*
X132225000Y-79660000D01*
G75*
G02*
X132275000Y-79710000I0J-50000D01*
G01*
X132275000Y-80450000D01*
G75*
G02*
X132225000Y-80500000I-50000J0D01*
G01*
X129425000Y-80500000D01*
G75*
G02*
X129375000Y-80450000I0J50000D01*
G01*
X129375000Y-79710000D01*
G75*
G02*
X129425000Y-79660000I50000J0D01*
G01*
G37*
G36*
G01*
X133425000Y-78390000D02*
X136225000Y-78390000D01*
G75*
G02*
X136275000Y-78440000I0J-50000D01*
G01*
X136275000Y-79180000D01*
G75*
G02*
X136225000Y-79230000I-50000J0D01*
G01*
X133425000Y-79230000D01*
G75*
G02*
X133375000Y-79180000I0J50000D01*
G01*
X133375000Y-78440000D01*
G75*
G02*
X133425000Y-78390000I50000J0D01*
G01*
G37*
G36*
G01*
X129425000Y-78390000D02*
X132225000Y-78390000D01*
G75*
G02*
X132275000Y-78440000I0J-50000D01*
G01*
X132275000Y-79180000D01*
G75*
G02*
X132225000Y-79230000I-50000J0D01*
G01*
X129425000Y-79230000D01*
G75*
G02*
X129375000Y-79180000I0J50000D01*
G01*
X129375000Y-78440000D01*
G75*
G02*
X129425000Y-78390000I50000J0D01*
G01*
G37*
G36*
G01*
X128427500Y-105740000D02*
X128822500Y-105740000D01*
G75*
G02*
X128995000Y-105912500I0J-172500D01*
G01*
X128995000Y-106257500D01*
G75*
G02*
X128822500Y-106430000I-172500J0D01*
G01*
X128427500Y-106430000D01*
G75*
G02*
X128255000Y-106257500I0J172500D01*
G01*
X128255000Y-105912500D01*
G75*
G02*
X128427500Y-105740000I172500J0D01*
G01*
G37*
G36*
G01*
X128427500Y-104770000D02*
X128822500Y-104770000D01*
G75*
G02*
X128995000Y-104942500I0J-172500D01*
G01*
X128995000Y-105287500D01*
G75*
G02*
X128822500Y-105460000I-172500J0D01*
G01*
X128427500Y-105460000D01*
G75*
G02*
X128255000Y-105287500I0J172500D01*
G01*
X128255000Y-104942500D01*
G75*
G02*
X128427500Y-104770000I172500J0D01*
G01*
G37*
G36*
G01*
X114810000Y-89952500D02*
X114810000Y-90347500D01*
G75*
G02*
X114637500Y-90520000I-172500J0D01*
G01*
X114292500Y-90520000D01*
G75*
G02*
X114120000Y-90347500I0J172500D01*
G01*
X114120000Y-89952500D01*
G75*
G02*
X114292500Y-89780000I172500J0D01*
G01*
X114637500Y-89780000D01*
G75*
G02*
X114810000Y-89952500I0J-172500D01*
G01*
G37*
G36*
G01*
X115780000Y-89952500D02*
X115780000Y-90347500D01*
G75*
G02*
X115607500Y-90520000I-172500J0D01*
G01*
X115262500Y-90520000D01*
G75*
G02*
X115090000Y-90347500I0J172500D01*
G01*
X115090000Y-89952500D01*
G75*
G02*
X115262500Y-89780000I172500J0D01*
G01*
X115607500Y-89780000D01*
G75*
G02*
X115780000Y-89952500I0J-172500D01*
G01*
G37*
G36*
G01*
X110497500Y-101660000D02*
X110102500Y-101660000D01*
G75*
G02*
X109930000Y-101487500I0J172500D01*
G01*
X109930000Y-101142500D01*
G75*
G02*
X110102500Y-100970000I172500J0D01*
G01*
X110497500Y-100970000D01*
G75*
G02*
X110670000Y-101142500I0J-172500D01*
G01*
X110670000Y-101487500D01*
G75*
G02*
X110497500Y-101660000I-172500J0D01*
G01*
G37*
G36*
G01*
X110497500Y-102630000D02*
X110102500Y-102630000D01*
G75*
G02*
X109930000Y-102457500I0J172500D01*
G01*
X109930000Y-102112500D01*
G75*
G02*
X110102500Y-101940000I172500J0D01*
G01*
X110497500Y-101940000D01*
G75*
G02*
X110670000Y-102112500I0J-172500D01*
G01*
X110670000Y-102457500D01*
G75*
G02*
X110497500Y-102630000I-172500J0D01*
G01*
G37*
G36*
G01*
X109547500Y-101660000D02*
X109152500Y-101660000D01*
G75*
G02*
X108980000Y-101487500I0J172500D01*
G01*
X108980000Y-101142500D01*
G75*
G02*
X109152500Y-100970000I172500J0D01*
G01*
X109547500Y-100970000D01*
G75*
G02*
X109720000Y-101142500I0J-172500D01*
G01*
X109720000Y-101487500D01*
G75*
G02*
X109547500Y-101660000I-172500J0D01*
G01*
G37*
G36*
G01*
X109547500Y-102630000D02*
X109152500Y-102630000D01*
G75*
G02*
X108980000Y-102457500I0J172500D01*
G01*
X108980000Y-102112500D01*
G75*
G02*
X109152500Y-101940000I172500J0D01*
G01*
X109547500Y-101940000D01*
G75*
G02*
X109720000Y-102112500I0J-172500D01*
G01*
X109720000Y-102457500D01*
G75*
G02*
X109547500Y-102630000I-172500J0D01*
G01*
G37*
G36*
G01*
X120052500Y-100590000D02*
X120447500Y-100590000D01*
G75*
G02*
X120620000Y-100762500I0J-172500D01*
G01*
X120620000Y-101107500D01*
G75*
G02*
X120447500Y-101280000I-172500J0D01*
G01*
X120052500Y-101280000D01*
G75*
G02*
X119880000Y-101107500I0J172500D01*
G01*
X119880000Y-100762500D01*
G75*
G02*
X120052500Y-100590000I172500J0D01*
G01*
G37*
G36*
G01*
X120052500Y-99620000D02*
X120447500Y-99620000D01*
G75*
G02*
X120620000Y-99792500I0J-172500D01*
G01*
X120620000Y-100137500D01*
G75*
G02*
X120447500Y-100310000I-172500J0D01*
G01*
X120052500Y-100310000D01*
G75*
G02*
X119880000Y-100137500I0J172500D01*
G01*
X119880000Y-99792500D01*
G75*
G02*
X120052500Y-99620000I172500J0D01*
G01*
G37*
G36*
G01*
X125052500Y-100590000D02*
X125447500Y-100590000D01*
G75*
G02*
X125620000Y-100762500I0J-172500D01*
G01*
X125620000Y-101107500D01*
G75*
G02*
X125447500Y-101280000I-172500J0D01*
G01*
X125052500Y-101280000D01*
G75*
G02*
X124880000Y-101107500I0J172500D01*
G01*
X124880000Y-100762500D01*
G75*
G02*
X125052500Y-100590000I172500J0D01*
G01*
G37*
G36*
G01*
X125052500Y-99620000D02*
X125447500Y-99620000D01*
G75*
G02*
X125620000Y-99792500I0J-172500D01*
G01*
X125620000Y-100137500D01*
G75*
G02*
X125447500Y-100310000I-172500J0D01*
G01*
X125052500Y-100310000D01*
G75*
G02*
X124880000Y-100137500I0J172500D01*
G01*
X124880000Y-99792500D01*
G75*
G02*
X125052500Y-99620000I172500J0D01*
G01*
G37*
G36*
G01*
X109547500Y-95860000D02*
X109152500Y-95860000D01*
G75*
G02*
X108980000Y-95687500I0J172500D01*
G01*
X108980000Y-95342500D01*
G75*
G02*
X109152500Y-95170000I172500J0D01*
G01*
X109547500Y-95170000D01*
G75*
G02*
X109720000Y-95342500I0J-172500D01*
G01*
X109720000Y-95687500D01*
G75*
G02*
X109547500Y-95860000I-172500J0D01*
G01*
G37*
G36*
G01*
X109547500Y-96830000D02*
X109152500Y-96830000D01*
G75*
G02*
X108980000Y-96657500I0J172500D01*
G01*
X108980000Y-96312500D01*
G75*
G02*
X109152500Y-96140000I172500J0D01*
G01*
X109547500Y-96140000D01*
G75*
G02*
X109720000Y-96312500I0J-172500D01*
G01*
X109720000Y-96657500D01*
G75*
G02*
X109547500Y-96830000I-172500J0D01*
G01*
G37*
G36*
G01*
X111052500Y-96140000D02*
X111447500Y-96140000D01*
G75*
G02*
X111620000Y-96312500I0J-172500D01*
G01*
X111620000Y-96657500D01*
G75*
G02*
X111447500Y-96830000I-172500J0D01*
G01*
X111052500Y-96830000D01*
G75*
G02*
X110880000Y-96657500I0J172500D01*
G01*
X110880000Y-96312500D01*
G75*
G02*
X111052500Y-96140000I172500J0D01*
G01*
G37*
G36*
G01*
X111052500Y-95170000D02*
X111447500Y-95170000D01*
G75*
G02*
X111620000Y-95342500I0J-172500D01*
G01*
X111620000Y-95687500D01*
G75*
G02*
X111447500Y-95860000I-172500J0D01*
G01*
X111052500Y-95860000D01*
G75*
G02*
X110880000Y-95687500I0J172500D01*
G01*
X110880000Y-95342500D01*
G75*
G02*
X111052500Y-95170000I172500J0D01*
G01*
G37*
G36*
G01*
X110090000Y-88997500D02*
X110090000Y-88602500D01*
G75*
G02*
X110262500Y-88430000I172500J0D01*
G01*
X110607500Y-88430000D01*
G75*
G02*
X110780000Y-88602500I0J-172500D01*
G01*
X110780000Y-88997500D01*
G75*
G02*
X110607500Y-89170000I-172500J0D01*
G01*
X110262500Y-89170000D01*
G75*
G02*
X110090000Y-88997500I0J172500D01*
G01*
G37*
G36*
G01*
X109120000Y-88997500D02*
X109120000Y-88602500D01*
G75*
G02*
X109292500Y-88430000I172500J0D01*
G01*
X109637500Y-88430000D01*
G75*
G02*
X109810000Y-88602500I0J-172500D01*
G01*
X109810000Y-88997500D01*
G75*
G02*
X109637500Y-89170000I-172500J0D01*
G01*
X109292500Y-89170000D01*
G75*
G02*
X109120000Y-88997500I0J172500D01*
G01*
G37*
G36*
G01*
X110090000Y-93597500D02*
X110090000Y-93202500D01*
G75*
G02*
X110262500Y-93030000I172500J0D01*
G01*
X110607500Y-93030000D01*
G75*
G02*
X110780000Y-93202500I0J-172500D01*
G01*
X110780000Y-93597500D01*
G75*
G02*
X110607500Y-93770000I-172500J0D01*
G01*
X110262500Y-93770000D01*
G75*
G02*
X110090000Y-93597500I0J172500D01*
G01*
G37*
G36*
G01*
X109120000Y-93597500D02*
X109120000Y-93202500D01*
G75*
G02*
X109292500Y-93030000I172500J0D01*
G01*
X109637500Y-93030000D01*
G75*
G02*
X109810000Y-93202500I0J-172500D01*
G01*
X109810000Y-93597500D01*
G75*
G02*
X109637500Y-93770000I-172500J0D01*
G01*
X109292500Y-93770000D01*
G75*
G02*
X109120000Y-93597500I0J172500D01*
G01*
G37*
G36*
G01*
X113902500Y-86740000D02*
X114297500Y-86740000D01*
G75*
G02*
X114470000Y-86912500I0J-172500D01*
G01*
X114470000Y-87257500D01*
G75*
G02*
X114297500Y-87430000I-172500J0D01*
G01*
X113902500Y-87430000D01*
G75*
G02*
X113730000Y-87257500I0J172500D01*
G01*
X113730000Y-86912500D01*
G75*
G02*
X113902500Y-86740000I172500J0D01*
G01*
G37*
G36*
G01*
X113902500Y-85770000D02*
X114297500Y-85770000D01*
G75*
G02*
X114470000Y-85942500I0J-172500D01*
G01*
X114470000Y-86287500D01*
G75*
G02*
X114297500Y-86460000I-172500J0D01*
G01*
X113902500Y-86460000D01*
G75*
G02*
X113730000Y-86287500I0J172500D01*
G01*
X113730000Y-85942500D01*
G75*
G02*
X113902500Y-85770000I172500J0D01*
G01*
G37*
G36*
G01*
X113297500Y-86460000D02*
X112902500Y-86460000D01*
G75*
G02*
X112730000Y-86287500I0J172500D01*
G01*
X112730000Y-85942500D01*
G75*
G02*
X112902500Y-85770000I172500J0D01*
G01*
X113297500Y-85770000D01*
G75*
G02*
X113470000Y-85942500I0J-172500D01*
G01*
X113470000Y-86287500D01*
G75*
G02*
X113297500Y-86460000I-172500J0D01*
G01*
G37*
G36*
G01*
X113297500Y-87430000D02*
X112902500Y-87430000D01*
G75*
G02*
X112730000Y-87257500I0J172500D01*
G01*
X112730000Y-86912500D01*
G75*
G02*
X112902500Y-86740000I172500J0D01*
G01*
X113297500Y-86740000D01*
G75*
G02*
X113470000Y-86912500I0J-172500D01*
G01*
X113470000Y-87257500D01*
G75*
G02*
X113297500Y-87430000I-172500J0D01*
G01*
G37*
G36*
G01*
X107540000Y-97997500D02*
X107540000Y-97602500D01*
G75*
G02*
X107712500Y-97430000I172500J0D01*
G01*
X108057500Y-97430000D01*
G75*
G02*
X108230000Y-97602500I0J-172500D01*
G01*
X108230000Y-97997500D01*
G75*
G02*
X108057500Y-98170000I-172500J0D01*
G01*
X107712500Y-98170000D01*
G75*
G02*
X107540000Y-97997500I0J172500D01*
G01*
G37*
G36*
G01*
X106570000Y-97997500D02*
X106570000Y-97602500D01*
G75*
G02*
X106742500Y-97430000I172500J0D01*
G01*
X107087500Y-97430000D01*
G75*
G02*
X107260000Y-97602500I0J-172500D01*
G01*
X107260000Y-97997500D01*
G75*
G02*
X107087500Y-98170000I-172500J0D01*
G01*
X106742500Y-98170000D01*
G75*
G02*
X106570000Y-97997500I0J172500D01*
G01*
G37*
G36*
G01*
X109902500Y-86740000D02*
X110297500Y-86740000D01*
G75*
G02*
X110470000Y-86912500I0J-172500D01*
G01*
X110470000Y-87257500D01*
G75*
G02*
X110297500Y-87430000I-172500J0D01*
G01*
X109902500Y-87430000D01*
G75*
G02*
X109730000Y-87257500I0J172500D01*
G01*
X109730000Y-86912500D01*
G75*
G02*
X109902500Y-86740000I172500J0D01*
G01*
G37*
G36*
G01*
X109902500Y-85770000D02*
X110297500Y-85770000D01*
G75*
G02*
X110470000Y-85942500I0J-172500D01*
G01*
X110470000Y-86287500D01*
G75*
G02*
X110297500Y-86460000I-172500J0D01*
G01*
X109902500Y-86460000D01*
G75*
G02*
X109730000Y-86287500I0J172500D01*
G01*
X109730000Y-85942500D01*
G75*
G02*
X109902500Y-85770000I172500J0D01*
G01*
G37*
G36*
G01*
X121052500Y-100590000D02*
X121447500Y-100590000D01*
G75*
G02*
X121620000Y-100762500I0J-172500D01*
G01*
X121620000Y-101107500D01*
G75*
G02*
X121447500Y-101280000I-172500J0D01*
G01*
X121052500Y-101280000D01*
G75*
G02*
X120880000Y-101107500I0J172500D01*
G01*
X120880000Y-100762500D01*
G75*
G02*
X121052500Y-100590000I172500J0D01*
G01*
G37*
G36*
G01*
X121052500Y-99620000D02*
X121447500Y-99620000D01*
G75*
G02*
X121620000Y-99792500I0J-172500D01*
G01*
X121620000Y-100137500D01*
G75*
G02*
X121447500Y-100310000I-172500J0D01*
G01*
X121052500Y-100310000D01*
G75*
G02*
X120880000Y-100137500I0J172500D01*
G01*
X120880000Y-99792500D01*
G75*
G02*
X121052500Y-99620000I172500J0D01*
G01*
G37*
G36*
G01*
X117052500Y-100590000D02*
X117447500Y-100590000D01*
G75*
G02*
X117620000Y-100762500I0J-172500D01*
G01*
X117620000Y-101107500D01*
G75*
G02*
X117447500Y-101280000I-172500J0D01*
G01*
X117052500Y-101280000D01*
G75*
G02*
X116880000Y-101107500I0J172500D01*
G01*
X116880000Y-100762500D01*
G75*
G02*
X117052500Y-100590000I172500J0D01*
G01*
G37*
G36*
G01*
X117052500Y-99620000D02*
X117447500Y-99620000D01*
G75*
G02*
X117620000Y-99792500I0J-172500D01*
G01*
X117620000Y-100137500D01*
G75*
G02*
X117447500Y-100310000I-172500J0D01*
G01*
X117052500Y-100310000D01*
G75*
G02*
X116880000Y-100137500I0J172500D01*
G01*
X116880000Y-99792500D01*
G75*
G02*
X117052500Y-99620000I172500J0D01*
G01*
G37*
G36*
G01*
X117897500Y-87160000D02*
X117502500Y-87160000D01*
G75*
G02*
X117330000Y-86987500I0J172500D01*
G01*
X117330000Y-86642500D01*
G75*
G02*
X117502500Y-86470000I172500J0D01*
G01*
X117897500Y-86470000D01*
G75*
G02*
X118070000Y-86642500I0J-172500D01*
G01*
X118070000Y-86987500D01*
G75*
G02*
X117897500Y-87160000I-172500J0D01*
G01*
G37*
G36*
G01*
X117897500Y-88130000D02*
X117502500Y-88130000D01*
G75*
G02*
X117330000Y-87957500I0J172500D01*
G01*
X117330000Y-87612500D01*
G75*
G02*
X117502500Y-87440000I172500J0D01*
G01*
X117897500Y-87440000D01*
G75*
G02*
X118070000Y-87612500I0J-172500D01*
G01*
X118070000Y-87957500D01*
G75*
G02*
X117897500Y-88130000I-172500J0D01*
G01*
G37*
G36*
G01*
X115540000Y-103847500D02*
X115540000Y-103452500D01*
G75*
G02*
X115712500Y-103280000I172500J0D01*
G01*
X116057500Y-103280000D01*
G75*
G02*
X116230000Y-103452500I0J-172500D01*
G01*
X116230000Y-103847500D01*
G75*
G02*
X116057500Y-104020000I-172500J0D01*
G01*
X115712500Y-104020000D01*
G75*
G02*
X115540000Y-103847500I0J172500D01*
G01*
G37*
G36*
G01*
X114570000Y-103847500D02*
X114570000Y-103452500D01*
G75*
G02*
X114742500Y-103280000I172500J0D01*
G01*
X115087500Y-103280000D01*
G75*
G02*
X115260000Y-103452500I0J-172500D01*
G01*
X115260000Y-103847500D01*
G75*
G02*
X115087500Y-104020000I-172500J0D01*
G01*
X114742500Y-104020000D01*
G75*
G02*
X114570000Y-103847500I0J172500D01*
G01*
G37*
G36*
G01*
X111052500Y-101940000D02*
X111447500Y-101940000D01*
G75*
G02*
X111620000Y-102112500I0J-172500D01*
G01*
X111620000Y-102457500D01*
G75*
G02*
X111447500Y-102630000I-172500J0D01*
G01*
X111052500Y-102630000D01*
G75*
G02*
X110880000Y-102457500I0J172500D01*
G01*
X110880000Y-102112500D01*
G75*
G02*
X111052500Y-101940000I172500J0D01*
G01*
G37*
G36*
G01*
X111052500Y-100970000D02*
X111447500Y-100970000D01*
G75*
G02*
X111620000Y-101142500I0J-172500D01*
G01*
X111620000Y-101487500D01*
G75*
G02*
X111447500Y-101660000I-172500J0D01*
G01*
X111052500Y-101660000D01*
G75*
G02*
X110880000Y-101487500I0J172500D01*
G01*
X110880000Y-101142500D01*
G75*
G02*
X111052500Y-100970000I172500J0D01*
G01*
G37*
G36*
G01*
X114760000Y-93452500D02*
X114760000Y-93847500D01*
G75*
G02*
X114587500Y-94020000I-172500J0D01*
G01*
X114242500Y-94020000D01*
G75*
G02*
X114070000Y-93847500I0J172500D01*
G01*
X114070000Y-93452500D01*
G75*
G02*
X114242500Y-93280000I172500J0D01*
G01*
X114587500Y-93280000D01*
G75*
G02*
X114760000Y-93452500I0J-172500D01*
G01*
G37*
G36*
G01*
X115730000Y-93452500D02*
X115730000Y-93847500D01*
G75*
G02*
X115557500Y-94020000I-172500J0D01*
G01*
X115212500Y-94020000D01*
G75*
G02*
X115040000Y-93847500I0J172500D01*
G01*
X115040000Y-93452500D01*
G75*
G02*
X115212500Y-93280000I172500J0D01*
G01*
X115557500Y-93280000D01*
G75*
G02*
X115730000Y-93452500I0J-172500D01*
G01*
G37*
G36*
G01*
X112297500Y-86460000D02*
X111902500Y-86460000D01*
G75*
G02*
X111730000Y-86287500I0J172500D01*
G01*
X111730000Y-85942500D01*
G75*
G02*
X111902500Y-85770000I172500J0D01*
G01*
X112297500Y-85770000D01*
G75*
G02*
X112470000Y-85942500I0J-172500D01*
G01*
X112470000Y-86287500D01*
G75*
G02*
X112297500Y-86460000I-172500J0D01*
G01*
G37*
G36*
G01*
X112297500Y-87430000D02*
X111902500Y-87430000D01*
G75*
G02*
X111730000Y-87257500I0J172500D01*
G01*
X111730000Y-86912500D01*
G75*
G02*
X111902500Y-86740000I172500J0D01*
G01*
X112297500Y-86740000D01*
G75*
G02*
X112470000Y-86912500I0J-172500D01*
G01*
X112470000Y-87257500D01*
G75*
G02*
X112297500Y-87430000I-172500J0D01*
G01*
G37*
G36*
G01*
X120947500Y-87160000D02*
X120552500Y-87160000D01*
G75*
G02*
X120380000Y-86987500I0J172500D01*
G01*
X120380000Y-86642500D01*
G75*
G02*
X120552500Y-86470000I172500J0D01*
G01*
X120947500Y-86470000D01*
G75*
G02*
X121120000Y-86642500I0J-172500D01*
G01*
X121120000Y-86987500D01*
G75*
G02*
X120947500Y-87160000I-172500J0D01*
G01*
G37*
G36*
G01*
X120947500Y-88130000D02*
X120552500Y-88130000D01*
G75*
G02*
X120380000Y-87957500I0J172500D01*
G01*
X120380000Y-87612500D01*
G75*
G02*
X120552500Y-87440000I172500J0D01*
G01*
X120947500Y-87440000D01*
G75*
G02*
X121120000Y-87612500I0J-172500D01*
G01*
X121120000Y-87957500D01*
G75*
G02*
X120947500Y-88130000I-172500J0D01*
G01*
G37*
G36*
G01*
X114760000Y-97452500D02*
X114760000Y-97847500D01*
G75*
G02*
X114587500Y-98020000I-172500J0D01*
G01*
X114242500Y-98020000D01*
G75*
G02*
X114070000Y-97847500I0J172500D01*
G01*
X114070000Y-97452500D01*
G75*
G02*
X114242500Y-97280000I172500J0D01*
G01*
X114587500Y-97280000D01*
G75*
G02*
X114760000Y-97452500I0J-172500D01*
G01*
G37*
G36*
G01*
X115730000Y-97452500D02*
X115730000Y-97847500D01*
G75*
G02*
X115557500Y-98020000I-172500J0D01*
G01*
X115212500Y-98020000D01*
G75*
G02*
X115040000Y-97847500I0J172500D01*
G01*
X115040000Y-97452500D01*
G75*
G02*
X115212500Y-97280000I172500J0D01*
G01*
X115557500Y-97280000D01*
G75*
G02*
X115730000Y-97452500I0J-172500D01*
G01*
G37*
G36*
G01*
X128240000Y-90847500D02*
X128240000Y-90452500D01*
G75*
G02*
X128412500Y-90280000I172500J0D01*
G01*
X128757500Y-90280000D01*
G75*
G02*
X128930000Y-90452500I0J-172500D01*
G01*
X128930000Y-90847500D01*
G75*
G02*
X128757500Y-91020000I-172500J0D01*
G01*
X128412500Y-91020000D01*
G75*
G02*
X128240000Y-90847500I0J172500D01*
G01*
G37*
G36*
G01*
X127270000Y-90847500D02*
X127270000Y-90452500D01*
G75*
G02*
X127442500Y-90280000I172500J0D01*
G01*
X127787500Y-90280000D01*
G75*
G02*
X127960000Y-90452500I0J-172500D01*
G01*
X127960000Y-90847500D01*
G75*
G02*
X127787500Y-91020000I-172500J0D01*
G01*
X127442500Y-91020000D01*
G75*
G02*
X127270000Y-90847500I0J172500D01*
G01*
G37*
G36*
G01*
X123447500Y-87160000D02*
X123052500Y-87160000D01*
G75*
G02*
X122880000Y-86987500I0J172500D01*
G01*
X122880000Y-86642500D01*
G75*
G02*
X123052500Y-86470000I172500J0D01*
G01*
X123447500Y-86470000D01*
G75*
G02*
X123620000Y-86642500I0J-172500D01*
G01*
X123620000Y-86987500D01*
G75*
G02*
X123447500Y-87160000I-172500J0D01*
G01*
G37*
G36*
G01*
X123447500Y-88130000D02*
X123052500Y-88130000D01*
G75*
G02*
X122880000Y-87957500I0J172500D01*
G01*
X122880000Y-87612500D01*
G75*
G02*
X123052500Y-87440000I172500J0D01*
G01*
X123447500Y-87440000D01*
G75*
G02*
X123620000Y-87612500I0J-172500D01*
G01*
X123620000Y-87957500D01*
G75*
G02*
X123447500Y-88130000I-172500J0D01*
G01*
G37*
G36*
G01*
X109297500Y-86460000D02*
X108902500Y-86460000D01*
G75*
G02*
X108730000Y-86287500I0J172500D01*
G01*
X108730000Y-85942500D01*
G75*
G02*
X108902500Y-85770000I172500J0D01*
G01*
X109297500Y-85770000D01*
G75*
G02*
X109470000Y-85942500I0J-172500D01*
G01*
X109470000Y-86287500D01*
G75*
G02*
X109297500Y-86460000I-172500J0D01*
G01*
G37*
G36*
G01*
X109297500Y-87430000D02*
X108902500Y-87430000D01*
G75*
G02*
X108730000Y-87257500I0J172500D01*
G01*
X108730000Y-86912500D01*
G75*
G02*
X108902500Y-86740000I172500J0D01*
G01*
X109297500Y-86740000D01*
G75*
G02*
X109470000Y-86912500I0J-172500D01*
G01*
X109470000Y-87257500D01*
G75*
G02*
X109297500Y-87430000I-172500J0D01*
G01*
G37*
G36*
G01*
X128240000Y-96347500D02*
X128240000Y-95952500D01*
G75*
G02*
X128412500Y-95780000I172500J0D01*
G01*
X128757500Y-95780000D01*
G75*
G02*
X128930000Y-95952500I0J-172500D01*
G01*
X128930000Y-96347500D01*
G75*
G02*
X128757500Y-96520000I-172500J0D01*
G01*
X128412500Y-96520000D01*
G75*
G02*
X128240000Y-96347500I0J172500D01*
G01*
G37*
G36*
G01*
X127270000Y-96347500D02*
X127270000Y-95952500D01*
G75*
G02*
X127442500Y-95780000I172500J0D01*
G01*
X127787500Y-95780000D01*
G75*
G02*
X127960000Y-95952500I0J-172500D01*
G01*
X127960000Y-96347500D01*
G75*
G02*
X127787500Y-96520000I-172500J0D01*
G01*
X127442500Y-96520000D01*
G75*
G02*
X127270000Y-96347500I0J172500D01*
G01*
G37*
G36*
G01*
X124052500Y-100590000D02*
X124447500Y-100590000D01*
G75*
G02*
X124620000Y-100762500I0J-172500D01*
G01*
X124620000Y-101107500D01*
G75*
G02*
X124447500Y-101280000I-172500J0D01*
G01*
X124052500Y-101280000D01*
G75*
G02*
X123880000Y-101107500I0J172500D01*
G01*
X123880000Y-100762500D01*
G75*
G02*
X124052500Y-100590000I172500J0D01*
G01*
G37*
G36*
G01*
X124052500Y-99620000D02*
X124447500Y-99620000D01*
G75*
G02*
X124620000Y-99792500I0J-172500D01*
G01*
X124620000Y-100137500D01*
G75*
G02*
X124447500Y-100310000I-172500J0D01*
G01*
X124052500Y-100310000D01*
G75*
G02*
X123880000Y-100137500I0J172500D01*
G01*
X123880000Y-99792500D01*
G75*
G02*
X124052500Y-99620000I172500J0D01*
G01*
G37*
G36*
G01*
X114902500Y-86740000D02*
X115297500Y-86740000D01*
G75*
G02*
X115470000Y-86912500I0J-172500D01*
G01*
X115470000Y-87257500D01*
G75*
G02*
X115297500Y-87430000I-172500J0D01*
G01*
X114902500Y-87430000D01*
G75*
G02*
X114730000Y-87257500I0J172500D01*
G01*
X114730000Y-86912500D01*
G75*
G02*
X114902500Y-86740000I172500J0D01*
G01*
G37*
G36*
G01*
X114902500Y-85770000D02*
X115297500Y-85770000D01*
G75*
G02*
X115470000Y-85942500I0J-172500D01*
G01*
X115470000Y-86287500D01*
G75*
G02*
X115297500Y-86460000I-172500J0D01*
G01*
X114902500Y-86460000D01*
G75*
G02*
X114730000Y-86287500I0J172500D01*
G01*
X114730000Y-85942500D01*
G75*
G02*
X114902500Y-85770000I172500J0D01*
G01*
G37*
G36*
G01*
X122052500Y-100590000D02*
X122447500Y-100590000D01*
G75*
G02*
X122620000Y-100762500I0J-172500D01*
G01*
X122620000Y-101107500D01*
G75*
G02*
X122447500Y-101280000I-172500J0D01*
G01*
X122052500Y-101280000D01*
G75*
G02*
X121880000Y-101107500I0J172500D01*
G01*
X121880000Y-100762500D01*
G75*
G02*
X122052500Y-100590000I172500J0D01*
G01*
G37*
G36*
G01*
X122052500Y-99620000D02*
X122447500Y-99620000D01*
G75*
G02*
X122620000Y-99792500I0J-172500D01*
G01*
X122620000Y-100137500D01*
G75*
G02*
X122447500Y-100310000I-172500J0D01*
G01*
X122052500Y-100310000D01*
G75*
G02*
X121880000Y-100137500I0J172500D01*
G01*
X121880000Y-99792500D01*
G75*
G02*
X122052500Y-99620000I172500J0D01*
G01*
G37*
G36*
G01*
X119052500Y-100590000D02*
X119447500Y-100590000D01*
G75*
G02*
X119620000Y-100762500I0J-172500D01*
G01*
X119620000Y-101107500D01*
G75*
G02*
X119447500Y-101280000I-172500J0D01*
G01*
X119052500Y-101280000D01*
G75*
G02*
X118880000Y-101107500I0J172500D01*
G01*
X118880000Y-100762500D01*
G75*
G02*
X119052500Y-100590000I172500J0D01*
G01*
G37*
G36*
G01*
X119052500Y-99620000D02*
X119447500Y-99620000D01*
G75*
G02*
X119620000Y-99792500I0J-172500D01*
G01*
X119620000Y-100137500D01*
G75*
G02*
X119447500Y-100310000I-172500J0D01*
G01*
X119052500Y-100310000D01*
G75*
G02*
X118880000Y-100137500I0J172500D01*
G01*
X118880000Y-99792500D01*
G75*
G02*
X119052500Y-99620000I172500J0D01*
G01*
G37*
G36*
G01*
X107540000Y-96997500D02*
X107540000Y-96602500D01*
G75*
G02*
X107712500Y-96430000I172500J0D01*
G01*
X108057500Y-96430000D01*
G75*
G02*
X108230000Y-96602500I0J-172500D01*
G01*
X108230000Y-96997500D01*
G75*
G02*
X108057500Y-97170000I-172500J0D01*
G01*
X107712500Y-97170000D01*
G75*
G02*
X107540000Y-96997500I0J172500D01*
G01*
G37*
G36*
G01*
X106570000Y-96997500D02*
X106570000Y-96602500D01*
G75*
G02*
X106742500Y-96430000I172500J0D01*
G01*
X107087500Y-96430000D01*
G75*
G02*
X107260000Y-96602500I0J-172500D01*
G01*
X107260000Y-96997500D01*
G75*
G02*
X107087500Y-97170000I-172500J0D01*
G01*
X106742500Y-97170000D01*
G75*
G02*
X106570000Y-96997500I0J172500D01*
G01*
G37*
G36*
G01*
X160740000Y-80497500D02*
X160740000Y-80102500D01*
G75*
G02*
X160912500Y-79930000I172500J0D01*
G01*
X161257500Y-79930000D01*
G75*
G02*
X161430000Y-80102500I0J-172500D01*
G01*
X161430000Y-80497500D01*
G75*
G02*
X161257500Y-80670000I-172500J0D01*
G01*
X160912500Y-80670000D01*
G75*
G02*
X160740000Y-80497500I0J172500D01*
G01*
G37*
G36*
G01*
X159770000Y-80497500D02*
X159770000Y-80102500D01*
G75*
G02*
X159942500Y-79930000I172500J0D01*
G01*
X160287500Y-79930000D01*
G75*
G02*
X160460000Y-80102500I0J-172500D01*
G01*
X160460000Y-80497500D01*
G75*
G02*
X160287500Y-80670000I-172500J0D01*
G01*
X159942500Y-80670000D01*
G75*
G02*
X159770000Y-80497500I0J172500D01*
G01*
G37*
G36*
G01*
X160740000Y-81497500D02*
X160740000Y-81102500D01*
G75*
G02*
X160912500Y-80930000I172500J0D01*
G01*
X161257500Y-80930000D01*
G75*
G02*
X161430000Y-81102500I0J-172500D01*
G01*
X161430000Y-81497500D01*
G75*
G02*
X161257500Y-81670000I-172500J0D01*
G01*
X160912500Y-81670000D01*
G75*
G02*
X160740000Y-81497500I0J172500D01*
G01*
G37*
G36*
G01*
X159770000Y-81497500D02*
X159770000Y-81102500D01*
G75*
G02*
X159942500Y-80930000I172500J0D01*
G01*
X160287500Y-80930000D01*
G75*
G02*
X160460000Y-81102500I0J-172500D01*
G01*
X160460000Y-81497500D01*
G75*
G02*
X160287500Y-81670000I-172500J0D01*
G01*
X159942500Y-81670000D01*
G75*
G02*
X159770000Y-81497500I0J172500D01*
G01*
G37*
G36*
G01*
X160460000Y-82102500D02*
X160460000Y-82497500D01*
G75*
G02*
X160287500Y-82670000I-172500J0D01*
G01*
X159942500Y-82670000D01*
G75*
G02*
X159770000Y-82497500I0J172500D01*
G01*
X159770000Y-82102500D01*
G75*
G02*
X159942500Y-81930000I172500J0D01*
G01*
X160287500Y-81930000D01*
G75*
G02*
X160460000Y-82102500I0J-172500D01*
G01*
G37*
G36*
G01*
X161430000Y-82102500D02*
X161430000Y-82497500D01*
G75*
G02*
X161257500Y-82670000I-172500J0D01*
G01*
X160912500Y-82670000D01*
G75*
G02*
X160740000Y-82497500I0J172500D01*
G01*
X160740000Y-82102500D01*
G75*
G02*
X160912500Y-81930000I172500J0D01*
G01*
X161257500Y-81930000D01*
G75*
G02*
X161430000Y-82102500I0J-172500D01*
G01*
G37*
G36*
G01*
X160300000Y-83268750D02*
X160300000Y-83831250D01*
G75*
G02*
X160056250Y-84075000I-243750J0D01*
G01*
X159568750Y-84075000D01*
G75*
G02*
X159325000Y-83831250I0J243750D01*
G01*
X159325000Y-83268750D01*
G75*
G02*
X159568750Y-83025000I243750J0D01*
G01*
X160056250Y-83025000D01*
G75*
G02*
X160300000Y-83268750I0J-243750D01*
G01*
G37*
G36*
G01*
X161875000Y-83268750D02*
X161875000Y-83831250D01*
G75*
G02*
X161631250Y-84075000I-243750J0D01*
G01*
X161143750Y-84075000D01*
G75*
G02*
X160900000Y-83831250I0J243750D01*
G01*
X160900000Y-83268750D01*
G75*
G02*
X161143750Y-83025000I243750J0D01*
G01*
X161631250Y-83025000D01*
G75*
G02*
X161875000Y-83268750I0J-243750D01*
G01*
G37*
G36*
G01*
X128427500Y-108540000D02*
X128822500Y-108540000D01*
G75*
G02*
X128995000Y-108712500I0J-172500D01*
G01*
X128995000Y-109057500D01*
G75*
G02*
X128822500Y-109230000I-172500J0D01*
G01*
X128427500Y-109230000D01*
G75*
G02*
X128255000Y-109057500I0J172500D01*
G01*
X128255000Y-108712500D01*
G75*
G02*
X128427500Y-108540000I172500J0D01*
G01*
G37*
G36*
G01*
X128427500Y-107570000D02*
X128822500Y-107570000D01*
G75*
G02*
X128995000Y-107742500I0J-172500D01*
G01*
X128995000Y-108087500D01*
G75*
G02*
X128822500Y-108260000I-172500J0D01*
G01*
X128427500Y-108260000D01*
G75*
G02*
X128255000Y-108087500I0J172500D01*
G01*
X128255000Y-107742500D01*
G75*
G02*
X128427500Y-107570000I172500J0D01*
G01*
G37*
G36*
G01*
X136777500Y-79740000D02*
X137172500Y-79740000D01*
G75*
G02*
X137345000Y-79912500I0J-172500D01*
G01*
X137345000Y-80257500D01*
G75*
G02*
X137172500Y-80430000I-172500J0D01*
G01*
X136777500Y-80430000D01*
G75*
G02*
X136605000Y-80257500I0J172500D01*
G01*
X136605000Y-79912500D01*
G75*
G02*
X136777500Y-79740000I172500J0D01*
G01*
G37*
G36*
G01*
X136777500Y-78770000D02*
X137172500Y-78770000D01*
G75*
G02*
X137345000Y-78942500I0J-172500D01*
G01*
X137345000Y-79287500D01*
G75*
G02*
X137172500Y-79460000I-172500J0D01*
G01*
X136777500Y-79460000D01*
G75*
G02*
X136605000Y-79287500I0J172500D01*
G01*
X136605000Y-78942500D01*
G75*
G02*
X136777500Y-78770000I172500J0D01*
G01*
G37*
G36*
G01*
X155940000Y-87422500D02*
X155940000Y-87027500D01*
G75*
G02*
X156112500Y-86855000I172500J0D01*
G01*
X156457500Y-86855000D01*
G75*
G02*
X156630000Y-87027500I0J-172500D01*
G01*
X156630000Y-87422500D01*
G75*
G02*
X156457500Y-87595000I-172500J0D01*
G01*
X156112500Y-87595000D01*
G75*
G02*
X155940000Y-87422500I0J172500D01*
G01*
G37*
G36*
G01*
X154970000Y-87422500D02*
X154970000Y-87027500D01*
G75*
G02*
X155142500Y-86855000I172500J0D01*
G01*
X155487500Y-86855000D01*
G75*
G02*
X155660000Y-87027500I0J-172500D01*
G01*
X155660000Y-87422500D01*
G75*
G02*
X155487500Y-87595000I-172500J0D01*
G01*
X155142500Y-87595000D01*
G75*
G02*
X154970000Y-87422500I0J172500D01*
G01*
G37*
G36*
G01*
X153710000Y-87027500D02*
X153710000Y-87422500D01*
G75*
G02*
X153537500Y-87595000I-172500J0D01*
G01*
X153192500Y-87595000D01*
G75*
G02*
X153020000Y-87422500I0J172500D01*
G01*
X153020000Y-87027500D01*
G75*
G02*
X153192500Y-86855000I172500J0D01*
G01*
X153537500Y-86855000D01*
G75*
G02*
X153710000Y-87027500I0J-172500D01*
G01*
G37*
G36*
G01*
X154680000Y-87027500D02*
X154680000Y-87422500D01*
G75*
G02*
X154507500Y-87595000I-172500J0D01*
G01*
X154162500Y-87595000D01*
G75*
G02*
X153990000Y-87422500I0J172500D01*
G01*
X153990000Y-87027500D01*
G75*
G02*
X154162500Y-86855000I172500J0D01*
G01*
X154507500Y-86855000D01*
G75*
G02*
X154680000Y-87027500I0J-172500D01*
G01*
G37*
G36*
G01*
X137477500Y-101515000D02*
X137872500Y-101515000D01*
G75*
G02*
X138045000Y-101687500I0J-172500D01*
G01*
X138045000Y-102032500D01*
G75*
G02*
X137872500Y-102205000I-172500J0D01*
G01*
X137477500Y-102205000D01*
G75*
G02*
X137305000Y-102032500I0J172500D01*
G01*
X137305000Y-101687500D01*
G75*
G02*
X137477500Y-101515000I172500J0D01*
G01*
G37*
G36*
G01*
X137477500Y-100545000D02*
X137872500Y-100545000D01*
G75*
G02*
X138045000Y-100717500I0J-172500D01*
G01*
X138045000Y-101062500D01*
G75*
G02*
X137872500Y-101235000I-172500J0D01*
G01*
X137477500Y-101235000D01*
G75*
G02*
X137305000Y-101062500I0J172500D01*
G01*
X137305000Y-100717500D01*
G75*
G02*
X137477500Y-100545000I172500J0D01*
G01*
G37*
G36*
G01*
X152040000Y-87422500D02*
X152040000Y-87027500D01*
G75*
G02*
X152212500Y-86855000I172500J0D01*
G01*
X152557500Y-86855000D01*
G75*
G02*
X152730000Y-87027500I0J-172500D01*
G01*
X152730000Y-87422500D01*
G75*
G02*
X152557500Y-87595000I-172500J0D01*
G01*
X152212500Y-87595000D01*
G75*
G02*
X152040000Y-87422500I0J172500D01*
G01*
G37*
G36*
G01*
X151070000Y-87422500D02*
X151070000Y-87027500D01*
G75*
G02*
X151242500Y-86855000I172500J0D01*
G01*
X151587500Y-86855000D01*
G75*
G02*
X151760000Y-87027500I0J-172500D01*
G01*
X151760000Y-87422500D01*
G75*
G02*
X151587500Y-87595000I-172500J0D01*
G01*
X151242500Y-87595000D01*
G75*
G02*
X151070000Y-87422500I0J172500D01*
G01*
G37*
G36*
G01*
X132510000Y-107052500D02*
X132510000Y-107447500D01*
G75*
G02*
X132337500Y-107620000I-172500J0D01*
G01*
X131992500Y-107620000D01*
G75*
G02*
X131820000Y-107447500I0J172500D01*
G01*
X131820000Y-107052500D01*
G75*
G02*
X131992500Y-106880000I172500J0D01*
G01*
X132337500Y-106880000D01*
G75*
G02*
X132510000Y-107052500I0J-172500D01*
G01*
G37*
G36*
G01*
X133480000Y-107052500D02*
X133480000Y-107447500D01*
G75*
G02*
X133307500Y-107620000I-172500J0D01*
G01*
X132962500Y-107620000D01*
G75*
G02*
X132790000Y-107447500I0J172500D01*
G01*
X132790000Y-107052500D01*
G75*
G02*
X132962500Y-106880000I172500J0D01*
G01*
X133307500Y-106880000D01*
G75*
G02*
X133480000Y-107052500I0J-172500D01*
G01*
G37*
G36*
G01*
X134410000Y-107052500D02*
X134410000Y-107447500D01*
G75*
G02*
X134237500Y-107620000I-172500J0D01*
G01*
X133892500Y-107620000D01*
G75*
G02*
X133720000Y-107447500I0J172500D01*
G01*
X133720000Y-107052500D01*
G75*
G02*
X133892500Y-106880000I172500J0D01*
G01*
X134237500Y-106880000D01*
G75*
G02*
X134410000Y-107052500I0J-172500D01*
G01*
G37*
G36*
G01*
X135380000Y-107052500D02*
X135380000Y-107447500D01*
G75*
G02*
X135207500Y-107620000I-172500J0D01*
G01*
X134862500Y-107620000D01*
G75*
G02*
X134690000Y-107447500I0J172500D01*
G01*
X134690000Y-107052500D01*
G75*
G02*
X134862500Y-106880000I172500J0D01*
G01*
X135207500Y-106880000D01*
G75*
G02*
X135380000Y-107052500I0J-172500D01*
G01*
G37*
G36*
G01*
X104460000Y-81827500D02*
X104460000Y-82222500D01*
G75*
G02*
X104287500Y-82395000I-172500J0D01*
G01*
X103942500Y-82395000D01*
G75*
G02*
X103770000Y-82222500I0J172500D01*
G01*
X103770000Y-81827500D01*
G75*
G02*
X103942500Y-81655000I172500J0D01*
G01*
X104287500Y-81655000D01*
G75*
G02*
X104460000Y-81827500I0J-172500D01*
G01*
G37*
G36*
G01*
X105430000Y-81827500D02*
X105430000Y-82222500D01*
G75*
G02*
X105257500Y-82395000I-172500J0D01*
G01*
X104912500Y-82395000D01*
G75*
G02*
X104740000Y-82222500I0J172500D01*
G01*
X104740000Y-81827500D01*
G75*
G02*
X104912500Y-81655000I172500J0D01*
G01*
X105257500Y-81655000D01*
G75*
G02*
X105430000Y-81827500I0J-172500D01*
G01*
G37*
G36*
G01*
X106360000Y-81827500D02*
X106360000Y-82222500D01*
G75*
G02*
X106187500Y-82395000I-172500J0D01*
G01*
X105842500Y-82395000D01*
G75*
G02*
X105670000Y-82222500I0J172500D01*
G01*
X105670000Y-81827500D01*
G75*
G02*
X105842500Y-81655000I172500J0D01*
G01*
X106187500Y-81655000D01*
G75*
G02*
X106360000Y-81827500I0J-172500D01*
G01*
G37*
G36*
G01*
X107330000Y-81827500D02*
X107330000Y-82222500D01*
G75*
G02*
X107157500Y-82395000I-172500J0D01*
G01*
X106812500Y-82395000D01*
G75*
G02*
X106640000Y-82222500I0J172500D01*
G01*
X106640000Y-81827500D01*
G75*
G02*
X106812500Y-81655000I172500J0D01*
G01*
X107157500Y-81655000D01*
G75*
G02*
X107330000Y-81827500I0J-172500D01*
G01*
G37*
G36*
G01*
X134410000Y-108002500D02*
X134410000Y-108397500D01*
G75*
G02*
X134237500Y-108570000I-172500J0D01*
G01*
X133892500Y-108570000D01*
G75*
G02*
X133720000Y-108397500I0J172500D01*
G01*
X133720000Y-108002500D01*
G75*
G02*
X133892500Y-107830000I172500J0D01*
G01*
X134237500Y-107830000D01*
G75*
G02*
X134410000Y-108002500I0J-172500D01*
G01*
G37*
G36*
G01*
X135380000Y-108002500D02*
X135380000Y-108397500D01*
G75*
G02*
X135207500Y-108570000I-172500J0D01*
G01*
X134862500Y-108570000D01*
G75*
G02*
X134690000Y-108397500I0J172500D01*
G01*
X134690000Y-108002500D01*
G75*
G02*
X134862500Y-107830000I172500J0D01*
G01*
X135207500Y-107830000D01*
G75*
G02*
X135380000Y-108002500I0J-172500D01*
G01*
G37*
G36*
G01*
X106360000Y-82777500D02*
X106360000Y-83172500D01*
G75*
G02*
X106187500Y-83345000I-172500J0D01*
G01*
X105842500Y-83345000D01*
G75*
G02*
X105670000Y-83172500I0J172500D01*
G01*
X105670000Y-82777500D01*
G75*
G02*
X105842500Y-82605000I172500J0D01*
G01*
X106187500Y-82605000D01*
G75*
G02*
X106360000Y-82777500I0J-172500D01*
G01*
G37*
G36*
G01*
X107330000Y-82777500D02*
X107330000Y-83172500D01*
G75*
G02*
X107157500Y-83345000I-172500J0D01*
G01*
X106812500Y-83345000D01*
G75*
G02*
X106640000Y-83172500I0J172500D01*
G01*
X106640000Y-82777500D01*
G75*
G02*
X106812500Y-82605000I172500J0D01*
G01*
X107157500Y-82605000D01*
G75*
G02*
X107330000Y-82777500I0J-172500D01*
G01*
G37*
G36*
G01*
X114560000Y-80927500D02*
X114560000Y-81322500D01*
G75*
G02*
X114387500Y-81495000I-172500J0D01*
G01*
X114042500Y-81495000D01*
G75*
G02*
X113870000Y-81322500I0J172500D01*
G01*
X113870000Y-80927500D01*
G75*
G02*
X114042500Y-80755000I172500J0D01*
G01*
X114387500Y-80755000D01*
G75*
G02*
X114560000Y-80927500I0J-172500D01*
G01*
G37*
G36*
G01*
X115530000Y-80927500D02*
X115530000Y-81322500D01*
G75*
G02*
X115357500Y-81495000I-172500J0D01*
G01*
X115012500Y-81495000D01*
G75*
G02*
X114840000Y-81322500I0J172500D01*
G01*
X114840000Y-80927500D01*
G75*
G02*
X115012500Y-80755000I172500J0D01*
G01*
X115357500Y-80755000D01*
G75*
G02*
X115530000Y-80927500I0J-172500D01*
G01*
G37*
G36*
G01*
X114560000Y-79927500D02*
X114560000Y-80322500D01*
G75*
G02*
X114387500Y-80495000I-172500J0D01*
G01*
X114042500Y-80495000D01*
G75*
G02*
X113870000Y-80322500I0J172500D01*
G01*
X113870000Y-79927500D01*
G75*
G02*
X114042500Y-79755000I172500J0D01*
G01*
X114387500Y-79755000D01*
G75*
G02*
X114560000Y-79927500I0J-172500D01*
G01*
G37*
G36*
G01*
X115530000Y-79927500D02*
X115530000Y-80322500D01*
G75*
G02*
X115357500Y-80495000I-172500J0D01*
G01*
X115012500Y-80495000D01*
G75*
G02*
X114840000Y-80322500I0J172500D01*
G01*
X114840000Y-79927500D01*
G75*
G02*
X115012500Y-79755000I172500J0D01*
G01*
X115357500Y-79755000D01*
G75*
G02*
X115530000Y-79927500I0J-172500D01*
G01*
G37*
G36*
G01*
X114840000Y-79322500D02*
X114840000Y-78927500D01*
G75*
G02*
X115012500Y-78755000I172500J0D01*
G01*
X115357500Y-78755000D01*
G75*
G02*
X115530000Y-78927500I0J-172500D01*
G01*
X115530000Y-79322500D01*
G75*
G02*
X115357500Y-79495000I-172500J0D01*
G01*
X115012500Y-79495000D01*
G75*
G02*
X114840000Y-79322500I0J172500D01*
G01*
G37*
G36*
G01*
X113870000Y-79322500D02*
X113870000Y-78927500D01*
G75*
G02*
X114042500Y-78755000I172500J0D01*
G01*
X114387500Y-78755000D01*
G75*
G02*
X114560000Y-78927500I0J-172500D01*
G01*
X114560000Y-79322500D01*
G75*
G02*
X114387500Y-79495000I-172500J0D01*
G01*
X114042500Y-79495000D01*
G75*
G02*
X113870000Y-79322500I0J172500D01*
G01*
G37*
G36*
G01*
X124581250Y-78725000D02*
X124018750Y-78725000D01*
G75*
G02*
X123775000Y-78481250I0J243750D01*
G01*
X123775000Y-77993750D01*
G75*
G02*
X124018750Y-77750000I243750J0D01*
G01*
X124581250Y-77750000D01*
G75*
G02*
X124825000Y-77993750I0J-243750D01*
G01*
X124825000Y-78481250D01*
G75*
G02*
X124581250Y-78725000I-243750J0D01*
G01*
G37*
G36*
G01*
X124581250Y-80300000D02*
X124018750Y-80300000D01*
G75*
G02*
X123775000Y-80056250I0J243750D01*
G01*
X123775000Y-79568750D01*
G75*
G02*
X124018750Y-79325000I243750J0D01*
G01*
X124581250Y-79325000D01*
G75*
G02*
X124825000Y-79568750I0J-243750D01*
G01*
X124825000Y-80056250D01*
G75*
G02*
X124581250Y-80300000I-243750J0D01*
G01*
G37*
G36*
G01*
X124640000Y-81322500D02*
X124640000Y-80927500D01*
G75*
G02*
X124812500Y-80755000I172500J0D01*
G01*
X125157500Y-80755000D01*
G75*
G02*
X125330000Y-80927500I0J-172500D01*
G01*
X125330000Y-81322500D01*
G75*
G02*
X125157500Y-81495000I-172500J0D01*
G01*
X124812500Y-81495000D01*
G75*
G02*
X124640000Y-81322500I0J172500D01*
G01*
G37*
G36*
G01*
X123670000Y-81322500D02*
X123670000Y-80927500D01*
G75*
G02*
X123842500Y-80755000I172500J0D01*
G01*
X124187500Y-80755000D01*
G75*
G02*
X124360000Y-80927500I0J-172500D01*
G01*
X124360000Y-81322500D01*
G75*
G02*
X124187500Y-81495000I-172500J0D01*
G01*
X123842500Y-81495000D01*
G75*
G02*
X123670000Y-81322500I0J172500D01*
G01*
G37*
G36*
G01*
X122690000Y-78022500D02*
X122690000Y-77627500D01*
G75*
G02*
X122862500Y-77455000I172500J0D01*
G01*
X123207500Y-77455000D01*
G75*
G02*
X123380000Y-77627500I0J-172500D01*
G01*
X123380000Y-78022500D01*
G75*
G02*
X123207500Y-78195000I-172500J0D01*
G01*
X122862500Y-78195000D01*
G75*
G02*
X122690000Y-78022500I0J172500D01*
G01*
G37*
G36*
G01*
X121720000Y-78022500D02*
X121720000Y-77627500D01*
G75*
G02*
X121892500Y-77455000I172500J0D01*
G01*
X122237500Y-77455000D01*
G75*
G02*
X122410000Y-77627500I0J-172500D01*
G01*
X122410000Y-78022500D01*
G75*
G02*
X122237500Y-78195000I-172500J0D01*
G01*
X121892500Y-78195000D01*
G75*
G02*
X121720000Y-78022500I0J172500D01*
G01*
G37*
G36*
G01*
X133950000Y-119050000D02*
X133450000Y-119050000D01*
G75*
G02*
X133400000Y-119000000I0J50000D01*
G01*
X133400000Y-118200000D01*
G75*
G02*
X133450000Y-118150000I50000J0D01*
G01*
X133950000Y-118150000D01*
G75*
G02*
X134000000Y-118200000I0J-50000D01*
G01*
X134000000Y-119000000D01*
G75*
G02*
X133950000Y-119050000I-50000J0D01*
G01*
G37*
G36*
G01*
X133100000Y-119050000D02*
X132700000Y-119050000D01*
G75*
G02*
X132650000Y-119000000I0J50000D01*
G01*
X132650000Y-118200000D01*
G75*
G02*
X132700000Y-118150000I50000J0D01*
G01*
X133100000Y-118150000D01*
G75*
G02*
X133150000Y-118200000I0J-50000D01*
G01*
X133150000Y-119000000D01*
G75*
G02*
X133100000Y-119050000I-50000J0D01*
G01*
G37*
G36*
G01*
X131550000Y-119050000D02*
X131050000Y-119050000D01*
G75*
G02*
X131000000Y-119000000I0J50000D01*
G01*
X131000000Y-118200000D01*
G75*
G02*
X131050000Y-118150000I50000J0D01*
G01*
X131550000Y-118150000D01*
G75*
G02*
X131600000Y-118200000I0J-50000D01*
G01*
X131600000Y-119000000D01*
G75*
G02*
X131550000Y-119050000I-50000J0D01*
G01*
G37*
G36*
G01*
X132300000Y-119050000D02*
X131900000Y-119050000D01*
G75*
G02*
X131850000Y-119000000I0J50000D01*
G01*
X131850000Y-118200000D01*
G75*
G02*
X131900000Y-118150000I50000J0D01*
G01*
X132300000Y-118150000D01*
G75*
G02*
X132350000Y-118200000I0J-50000D01*
G01*
X132350000Y-119000000D01*
G75*
G02*
X132300000Y-119050000I-50000J0D01*
G01*
G37*
G36*
G01*
X133950000Y-120850000D02*
X133450000Y-120850000D01*
G75*
G02*
X133400000Y-120800000I0J50000D01*
G01*
X133400000Y-120000000D01*
G75*
G02*
X133450000Y-119950000I50000J0D01*
G01*
X133950000Y-119950000D01*
G75*
G02*
X134000000Y-120000000I0J-50000D01*
G01*
X134000000Y-120800000D01*
G75*
G02*
X133950000Y-120850000I-50000J0D01*
G01*
G37*
G36*
G01*
X132300000Y-120850000D02*
X131900000Y-120850000D01*
G75*
G02*
X131850000Y-120800000I0J50000D01*
G01*
X131850000Y-120000000D01*
G75*
G02*
X131900000Y-119950000I50000J0D01*
G01*
X132300000Y-119950000D01*
G75*
G02*
X132350000Y-120000000I0J-50000D01*
G01*
X132350000Y-120800000D01*
G75*
G02*
X132300000Y-120850000I-50000J0D01*
G01*
G37*
G36*
G01*
X133100000Y-120850000D02*
X132700000Y-120850000D01*
G75*
G02*
X132650000Y-120800000I0J50000D01*
G01*
X132650000Y-120000000D01*
G75*
G02*
X132700000Y-119950000I50000J0D01*
G01*
X133100000Y-119950000D01*
G75*
G02*
X133150000Y-120000000I0J-50000D01*
G01*
X133150000Y-120800000D01*
G75*
G02*
X133100000Y-120850000I-50000J0D01*
G01*
G37*
G36*
G01*
X131550000Y-120850000D02*
X131050000Y-120850000D01*
G75*
G02*
X131000000Y-120800000I0J50000D01*
G01*
X131000000Y-120000000D01*
G75*
G02*
X131050000Y-119950000I50000J0D01*
G01*
X131550000Y-119950000D01*
G75*
G02*
X131600000Y-120000000I0J-50000D01*
G01*
X131600000Y-120800000D01*
G75*
G02*
X131550000Y-120850000I-50000J0D01*
G01*
G37*
G36*
G01*
X123675000Y-96125000D02*
X119325000Y-96125000D01*
G75*
G02*
X119275000Y-96075000I0J50000D01*
G01*
X119275000Y-91725000D01*
G75*
G02*
X119325000Y-91675000I50000J0D01*
G01*
X123675000Y-91675000D01*
G75*
G02*
X123725000Y-91725000I0J-50000D01*
G01*
X123725000Y-96075000D01*
G75*
G02*
X123675000Y-96125000I-50000J0D01*
G01*
G37*
G36*
G01*
X117412500Y-97825000D02*
X116687500Y-97825000D01*
G75*
G02*
X116600000Y-97737500I0J87500D01*
G01*
X116600000Y-97562500D01*
G75*
G02*
X116687500Y-97475000I87500J0D01*
G01*
X117412500Y-97475000D01*
G75*
G02*
X117500000Y-97562500I0J-87500D01*
G01*
X117500000Y-97737500D01*
G75*
G02*
X117412500Y-97825000I-87500J0D01*
G01*
G37*
G36*
G01*
X117412500Y-97325000D02*
X116687500Y-97325000D01*
G75*
G02*
X116600000Y-97237500I0J87500D01*
G01*
X116600000Y-97062500D01*
G75*
G02*
X116687500Y-96975000I87500J0D01*
G01*
X117412500Y-96975000D01*
G75*
G02*
X117500000Y-97062500I0J-87500D01*
G01*
X117500000Y-97237500D01*
G75*
G02*
X117412500Y-97325000I-87500J0D01*
G01*
G37*
G36*
G01*
X117412500Y-96825000D02*
X116687500Y-96825000D01*
G75*
G02*
X116600000Y-96737500I0J87500D01*
G01*
X116600000Y-96562500D01*
G75*
G02*
X116687500Y-96475000I87500J0D01*
G01*
X117412500Y-96475000D01*
G75*
G02*
X117500000Y-96562500I0J-87500D01*
G01*
X117500000Y-96737500D01*
G75*
G02*
X117412500Y-96825000I-87500J0D01*
G01*
G37*
G36*
G01*
X117412500Y-96325000D02*
X116687500Y-96325000D01*
G75*
G02*
X116600000Y-96237500I0J87500D01*
G01*
X116600000Y-96062500D01*
G75*
G02*
X116687500Y-95975000I87500J0D01*
G01*
X117412500Y-95975000D01*
G75*
G02*
X117500000Y-96062500I0J-87500D01*
G01*
X117500000Y-96237500D01*
G75*
G02*
X117412500Y-96325000I-87500J0D01*
G01*
G37*
G36*
G01*
X117412500Y-95825000D02*
X116687500Y-95825000D01*
G75*
G02*
X116600000Y-95737500I0J87500D01*
G01*
X116600000Y-95562500D01*
G75*
G02*
X116687500Y-95475000I87500J0D01*
G01*
X117412500Y-95475000D01*
G75*
G02*
X117500000Y-95562500I0J-87500D01*
G01*
X117500000Y-95737500D01*
G75*
G02*
X117412500Y-95825000I-87500J0D01*
G01*
G37*
G36*
G01*
X117412500Y-95325000D02*
X116687500Y-95325000D01*
G75*
G02*
X116600000Y-95237500I0J87500D01*
G01*
X116600000Y-95062500D01*
G75*
G02*
X116687500Y-94975000I87500J0D01*
G01*
X117412500Y-94975000D01*
G75*
G02*
X117500000Y-95062500I0J-87500D01*
G01*
X117500000Y-95237500D01*
G75*
G02*
X117412500Y-95325000I-87500J0D01*
G01*
G37*
G36*
G01*
X117412500Y-94825000D02*
X116687500Y-94825000D01*
G75*
G02*
X116600000Y-94737500I0J87500D01*
G01*
X116600000Y-94562500D01*
G75*
G02*
X116687500Y-94475000I87500J0D01*
G01*
X117412500Y-94475000D01*
G75*
G02*
X117500000Y-94562500I0J-87500D01*
G01*
X117500000Y-94737500D01*
G75*
G02*
X117412500Y-94825000I-87500J0D01*
G01*
G37*
G36*
G01*
X117412500Y-94325000D02*
X116687500Y-94325000D01*
G75*
G02*
X116600000Y-94237500I0J87500D01*
G01*
X116600000Y-94062500D01*
G75*
G02*
X116687500Y-93975000I87500J0D01*
G01*
X117412500Y-93975000D01*
G75*
G02*
X117500000Y-94062500I0J-87500D01*
G01*
X117500000Y-94237500D01*
G75*
G02*
X117412500Y-94325000I-87500J0D01*
G01*
G37*
G36*
G01*
X117412500Y-93825000D02*
X116687500Y-93825000D01*
G75*
G02*
X116600000Y-93737500I0J87500D01*
G01*
X116600000Y-93562500D01*
G75*
G02*
X116687500Y-93475000I87500J0D01*
G01*
X117412500Y-93475000D01*
G75*
G02*
X117500000Y-93562500I0J-87500D01*
G01*
X117500000Y-93737500D01*
G75*
G02*
X117412500Y-93825000I-87500J0D01*
G01*
G37*
G36*
G01*
X117412500Y-93325000D02*
X116687500Y-93325000D01*
G75*
G02*
X116600000Y-93237500I0J87500D01*
G01*
X116600000Y-93062500D01*
G75*
G02*
X116687500Y-92975000I87500J0D01*
G01*
X117412500Y-92975000D01*
G75*
G02*
X117500000Y-93062500I0J-87500D01*
G01*
X117500000Y-93237500D01*
G75*
G02*
X117412500Y-93325000I-87500J0D01*
G01*
G37*
G36*
G01*
X117412500Y-92825000D02*
X116687500Y-92825000D01*
G75*
G02*
X116600000Y-92737500I0J87500D01*
G01*
X116600000Y-92562500D01*
G75*
G02*
X116687500Y-92475000I87500J0D01*
G01*
X117412500Y-92475000D01*
G75*
G02*
X117500000Y-92562500I0J-87500D01*
G01*
X117500000Y-92737500D01*
G75*
G02*
X117412500Y-92825000I-87500J0D01*
G01*
G37*
G36*
G01*
X117412500Y-92325000D02*
X116687500Y-92325000D01*
G75*
G02*
X116600000Y-92237500I0J87500D01*
G01*
X116600000Y-92062500D01*
G75*
G02*
X116687500Y-91975000I87500J0D01*
G01*
X117412500Y-91975000D01*
G75*
G02*
X117500000Y-92062500I0J-87500D01*
G01*
X117500000Y-92237500D01*
G75*
G02*
X117412500Y-92325000I-87500J0D01*
G01*
G37*
G36*
G01*
X117412500Y-91825000D02*
X116687500Y-91825000D01*
G75*
G02*
X116600000Y-91737500I0J87500D01*
G01*
X116600000Y-91562500D01*
G75*
G02*
X116687500Y-91475000I87500J0D01*
G01*
X117412500Y-91475000D01*
G75*
G02*
X117500000Y-91562500I0J-87500D01*
G01*
X117500000Y-91737500D01*
G75*
G02*
X117412500Y-91825000I-87500J0D01*
G01*
G37*
G36*
G01*
X117412500Y-91325000D02*
X116687500Y-91325000D01*
G75*
G02*
X116600000Y-91237500I0J87500D01*
G01*
X116600000Y-91062500D01*
G75*
G02*
X116687500Y-90975000I87500J0D01*
G01*
X117412500Y-90975000D01*
G75*
G02*
X117500000Y-91062500I0J-87500D01*
G01*
X117500000Y-91237500D01*
G75*
G02*
X117412500Y-91325000I-87500J0D01*
G01*
G37*
G36*
G01*
X117412500Y-90825000D02*
X116687500Y-90825000D01*
G75*
G02*
X116600000Y-90737500I0J87500D01*
G01*
X116600000Y-90562500D01*
G75*
G02*
X116687500Y-90475000I87500J0D01*
G01*
X117412500Y-90475000D01*
G75*
G02*
X117500000Y-90562500I0J-87500D01*
G01*
X117500000Y-90737500D01*
G75*
G02*
X117412500Y-90825000I-87500J0D01*
G01*
G37*
G36*
G01*
X117412500Y-90325000D02*
X116687500Y-90325000D01*
G75*
G02*
X116600000Y-90237500I0J87500D01*
G01*
X116600000Y-90062500D01*
G75*
G02*
X116687500Y-89975000I87500J0D01*
G01*
X117412500Y-89975000D01*
G75*
G02*
X117500000Y-90062500I0J-87500D01*
G01*
X117500000Y-90237500D01*
G75*
G02*
X117412500Y-90325000I-87500J0D01*
G01*
G37*
G36*
G01*
X117837500Y-89900000D02*
X117662500Y-89900000D01*
G75*
G02*
X117575000Y-89812500I0J87500D01*
G01*
X117575000Y-89087500D01*
G75*
G02*
X117662500Y-89000000I87500J0D01*
G01*
X117837500Y-89000000D01*
G75*
G02*
X117925000Y-89087500I0J-87500D01*
G01*
X117925000Y-89812500D01*
G75*
G02*
X117837500Y-89900000I-87500J0D01*
G01*
G37*
G36*
G01*
X118337500Y-89900000D02*
X118162500Y-89900000D01*
G75*
G02*
X118075000Y-89812500I0J87500D01*
G01*
X118075000Y-89087500D01*
G75*
G02*
X118162500Y-89000000I87500J0D01*
G01*
X118337500Y-89000000D01*
G75*
G02*
X118425000Y-89087500I0J-87500D01*
G01*
X118425000Y-89812500D01*
G75*
G02*
X118337500Y-89900000I-87500J0D01*
G01*
G37*
G36*
G01*
X118837500Y-89900000D02*
X118662500Y-89900000D01*
G75*
G02*
X118575000Y-89812500I0J87500D01*
G01*
X118575000Y-89087500D01*
G75*
G02*
X118662500Y-89000000I87500J0D01*
G01*
X118837500Y-89000000D01*
G75*
G02*
X118925000Y-89087500I0J-87500D01*
G01*
X118925000Y-89812500D01*
G75*
G02*
X118837500Y-89900000I-87500J0D01*
G01*
G37*
G36*
G01*
X119337500Y-89900000D02*
X119162500Y-89900000D01*
G75*
G02*
X119075000Y-89812500I0J87500D01*
G01*
X119075000Y-89087500D01*
G75*
G02*
X119162500Y-89000000I87500J0D01*
G01*
X119337500Y-89000000D01*
G75*
G02*
X119425000Y-89087500I0J-87500D01*
G01*
X119425000Y-89812500D01*
G75*
G02*
X119337500Y-89900000I-87500J0D01*
G01*
G37*
G36*
G01*
X119837500Y-89900000D02*
X119662500Y-89900000D01*
G75*
G02*
X119575000Y-89812500I0J87500D01*
G01*
X119575000Y-89087500D01*
G75*
G02*
X119662500Y-89000000I87500J0D01*
G01*
X119837500Y-89000000D01*
G75*
G02*
X119925000Y-89087500I0J-87500D01*
G01*
X119925000Y-89812500D01*
G75*
G02*
X119837500Y-89900000I-87500J0D01*
G01*
G37*
G36*
G01*
X120337500Y-89900000D02*
X120162500Y-89900000D01*
G75*
G02*
X120075000Y-89812500I0J87500D01*
G01*
X120075000Y-89087500D01*
G75*
G02*
X120162500Y-89000000I87500J0D01*
G01*
X120337500Y-89000000D01*
G75*
G02*
X120425000Y-89087500I0J-87500D01*
G01*
X120425000Y-89812500D01*
G75*
G02*
X120337500Y-89900000I-87500J0D01*
G01*
G37*
G36*
G01*
X120837500Y-89900000D02*
X120662500Y-89900000D01*
G75*
G02*
X120575000Y-89812500I0J87500D01*
G01*
X120575000Y-89087500D01*
G75*
G02*
X120662500Y-89000000I87500J0D01*
G01*
X120837500Y-89000000D01*
G75*
G02*
X120925000Y-89087500I0J-87500D01*
G01*
X120925000Y-89812500D01*
G75*
G02*
X120837500Y-89900000I-87500J0D01*
G01*
G37*
G36*
G01*
X121337500Y-89900000D02*
X121162500Y-89900000D01*
G75*
G02*
X121075000Y-89812500I0J87500D01*
G01*
X121075000Y-89087500D01*
G75*
G02*
X121162500Y-89000000I87500J0D01*
G01*
X121337500Y-89000000D01*
G75*
G02*
X121425000Y-89087500I0J-87500D01*
G01*
X121425000Y-89812500D01*
G75*
G02*
X121337500Y-89900000I-87500J0D01*
G01*
G37*
G36*
G01*
X121837500Y-89900000D02*
X121662500Y-89900000D01*
G75*
G02*
X121575000Y-89812500I0J87500D01*
G01*
X121575000Y-89087500D01*
G75*
G02*
X121662500Y-89000000I87500J0D01*
G01*
X121837500Y-89000000D01*
G75*
G02*
X121925000Y-89087500I0J-87500D01*
G01*
X121925000Y-89812500D01*
G75*
G02*
X121837500Y-89900000I-87500J0D01*
G01*
G37*
G36*
G01*
X122337500Y-89900000D02*
X122162500Y-89900000D01*
G75*
G02*
X122075000Y-89812500I0J87500D01*
G01*
X122075000Y-89087500D01*
G75*
G02*
X122162500Y-89000000I87500J0D01*
G01*
X122337500Y-89000000D01*
G75*
G02*
X122425000Y-89087500I0J-87500D01*
G01*
X122425000Y-89812500D01*
G75*
G02*
X122337500Y-89900000I-87500J0D01*
G01*
G37*
G36*
G01*
X122837500Y-89900000D02*
X122662500Y-89900000D01*
G75*
G02*
X122575000Y-89812500I0J87500D01*
G01*
X122575000Y-89087500D01*
G75*
G02*
X122662500Y-89000000I87500J0D01*
G01*
X122837500Y-89000000D01*
G75*
G02*
X122925000Y-89087500I0J-87500D01*
G01*
X122925000Y-89812500D01*
G75*
G02*
X122837500Y-89900000I-87500J0D01*
G01*
G37*
G36*
G01*
X123337500Y-89900000D02*
X123162500Y-89900000D01*
G75*
G02*
X123075000Y-89812500I0J87500D01*
G01*
X123075000Y-89087500D01*
G75*
G02*
X123162500Y-89000000I87500J0D01*
G01*
X123337500Y-89000000D01*
G75*
G02*
X123425000Y-89087500I0J-87500D01*
G01*
X123425000Y-89812500D01*
G75*
G02*
X123337500Y-89900000I-87500J0D01*
G01*
G37*
G36*
G01*
X123837500Y-89900000D02*
X123662500Y-89900000D01*
G75*
G02*
X123575000Y-89812500I0J87500D01*
G01*
X123575000Y-89087500D01*
G75*
G02*
X123662500Y-89000000I87500J0D01*
G01*
X123837500Y-89000000D01*
G75*
G02*
X123925000Y-89087500I0J-87500D01*
G01*
X123925000Y-89812500D01*
G75*
G02*
X123837500Y-89900000I-87500J0D01*
G01*
G37*
G36*
G01*
X124337500Y-89900000D02*
X124162500Y-89900000D01*
G75*
G02*
X124075000Y-89812500I0J87500D01*
G01*
X124075000Y-89087500D01*
G75*
G02*
X124162500Y-89000000I87500J0D01*
G01*
X124337500Y-89000000D01*
G75*
G02*
X124425000Y-89087500I0J-87500D01*
G01*
X124425000Y-89812500D01*
G75*
G02*
X124337500Y-89900000I-87500J0D01*
G01*
G37*
G36*
G01*
X124837500Y-89900000D02*
X124662500Y-89900000D01*
G75*
G02*
X124575000Y-89812500I0J87500D01*
G01*
X124575000Y-89087500D01*
G75*
G02*
X124662500Y-89000000I87500J0D01*
G01*
X124837500Y-89000000D01*
G75*
G02*
X124925000Y-89087500I0J-87500D01*
G01*
X124925000Y-89812500D01*
G75*
G02*
X124837500Y-89900000I-87500J0D01*
G01*
G37*
G36*
G01*
X125337500Y-89900000D02*
X125162500Y-89900000D01*
G75*
G02*
X125075000Y-89812500I0J87500D01*
G01*
X125075000Y-89087500D01*
G75*
G02*
X125162500Y-89000000I87500J0D01*
G01*
X125337500Y-89000000D01*
G75*
G02*
X125425000Y-89087500I0J-87500D01*
G01*
X125425000Y-89812500D01*
G75*
G02*
X125337500Y-89900000I-87500J0D01*
G01*
G37*
G36*
G01*
X126312500Y-90325000D02*
X125587500Y-90325000D01*
G75*
G02*
X125500000Y-90237500I0J87500D01*
G01*
X125500000Y-90062500D01*
G75*
G02*
X125587500Y-89975000I87500J0D01*
G01*
X126312500Y-89975000D01*
G75*
G02*
X126400000Y-90062500I0J-87500D01*
G01*
X126400000Y-90237500D01*
G75*
G02*
X126312500Y-90325000I-87500J0D01*
G01*
G37*
G36*
G01*
X126312500Y-90825000D02*
X125587500Y-90825000D01*
G75*
G02*
X125500000Y-90737500I0J87500D01*
G01*
X125500000Y-90562500D01*
G75*
G02*
X125587500Y-90475000I87500J0D01*
G01*
X126312500Y-90475000D01*
G75*
G02*
X126400000Y-90562500I0J-87500D01*
G01*
X126400000Y-90737500D01*
G75*
G02*
X126312500Y-90825000I-87500J0D01*
G01*
G37*
G36*
G01*
X126312500Y-91325000D02*
X125587500Y-91325000D01*
G75*
G02*
X125500000Y-91237500I0J87500D01*
G01*
X125500000Y-91062500D01*
G75*
G02*
X125587500Y-90975000I87500J0D01*
G01*
X126312500Y-90975000D01*
G75*
G02*
X126400000Y-91062500I0J-87500D01*
G01*
X126400000Y-91237500D01*
G75*
G02*
X126312500Y-91325000I-87500J0D01*
G01*
G37*
G36*
G01*
X126312500Y-91825000D02*
X125587500Y-91825000D01*
G75*
G02*
X125500000Y-91737500I0J87500D01*
G01*
X125500000Y-91562500D01*
G75*
G02*
X125587500Y-91475000I87500J0D01*
G01*
X126312500Y-91475000D01*
G75*
G02*
X126400000Y-91562500I0J-87500D01*
G01*
X126400000Y-91737500D01*
G75*
G02*
X126312500Y-91825000I-87500J0D01*
G01*
G37*
G36*
G01*
X126312500Y-92325000D02*
X125587500Y-92325000D01*
G75*
G02*
X125500000Y-92237500I0J87500D01*
G01*
X125500000Y-92062500D01*
G75*
G02*
X125587500Y-91975000I87500J0D01*
G01*
X126312500Y-91975000D01*
G75*
G02*
X126400000Y-92062500I0J-87500D01*
G01*
X126400000Y-92237500D01*
G75*
G02*
X126312500Y-92325000I-87500J0D01*
G01*
G37*
G36*
G01*
X126312500Y-92825000D02*
X125587500Y-92825000D01*
G75*
G02*
X125500000Y-92737500I0J87500D01*
G01*
X125500000Y-92562500D01*
G75*
G02*
X125587500Y-92475000I87500J0D01*
G01*
X126312500Y-92475000D01*
G75*
G02*
X126400000Y-92562500I0J-87500D01*
G01*
X126400000Y-92737500D01*
G75*
G02*
X126312500Y-92825000I-87500J0D01*
G01*
G37*
G36*
G01*
X126312500Y-93325000D02*
X125587500Y-93325000D01*
G75*
G02*
X125500000Y-93237500I0J87500D01*
G01*
X125500000Y-93062500D01*
G75*
G02*
X125587500Y-92975000I87500J0D01*
G01*
X126312500Y-92975000D01*
G75*
G02*
X126400000Y-93062500I0J-87500D01*
G01*
X126400000Y-93237500D01*
G75*
G02*
X126312500Y-93325000I-87500J0D01*
G01*
G37*
G36*
G01*
X126312500Y-93825000D02*
X125587500Y-93825000D01*
G75*
G02*
X125500000Y-93737500I0J87500D01*
G01*
X125500000Y-93562500D01*
G75*
G02*
X125587500Y-93475000I87500J0D01*
G01*
X126312500Y-93475000D01*
G75*
G02*
X126400000Y-93562500I0J-87500D01*
G01*
X126400000Y-93737500D01*
G75*
G02*
X126312500Y-93825000I-87500J0D01*
G01*
G37*
G36*
G01*
X126312500Y-94325000D02*
X125587500Y-94325000D01*
G75*
G02*
X125500000Y-94237500I0J87500D01*
G01*
X125500000Y-94062500D01*
G75*
G02*
X125587500Y-93975000I87500J0D01*
G01*
X126312500Y-93975000D01*
G75*
G02*
X126400000Y-94062500I0J-87500D01*
G01*
X126400000Y-94237500D01*
G75*
G02*
X126312500Y-94325000I-87500J0D01*
G01*
G37*
G36*
G01*
X126312500Y-94825000D02*
X125587500Y-94825000D01*
G75*
G02*
X125500000Y-94737500I0J87500D01*
G01*
X125500000Y-94562500D01*
G75*
G02*
X125587500Y-94475000I87500J0D01*
G01*
X126312500Y-94475000D01*
G75*
G02*
X126400000Y-94562500I0J-87500D01*
G01*
X126400000Y-94737500D01*
G75*
G02*
X126312500Y-94825000I-87500J0D01*
G01*
G37*
G36*
G01*
X126312500Y-95325000D02*
X125587500Y-95325000D01*
G75*
G02*
X125500000Y-95237500I0J87500D01*
G01*
X125500000Y-95062500D01*
G75*
G02*
X125587500Y-94975000I87500J0D01*
G01*
X126312500Y-94975000D01*
G75*
G02*
X126400000Y-95062500I0J-87500D01*
G01*
X126400000Y-95237500D01*
G75*
G02*
X126312500Y-95325000I-87500J0D01*
G01*
G37*
G36*
G01*
X126312500Y-95825000D02*
X125587500Y-95825000D01*
G75*
G02*
X125500000Y-95737500I0J87500D01*
G01*
X125500000Y-95562500D01*
G75*
G02*
X125587500Y-95475000I87500J0D01*
G01*
X126312500Y-95475000D01*
G75*
G02*
X126400000Y-95562500I0J-87500D01*
G01*
X126400000Y-95737500D01*
G75*
G02*
X126312500Y-95825000I-87500J0D01*
G01*
G37*
G36*
G01*
X126312500Y-96325000D02*
X125587500Y-96325000D01*
G75*
G02*
X125500000Y-96237500I0J87500D01*
G01*
X125500000Y-96062500D01*
G75*
G02*
X125587500Y-95975000I87500J0D01*
G01*
X126312500Y-95975000D01*
G75*
G02*
X126400000Y-96062500I0J-87500D01*
G01*
X126400000Y-96237500D01*
G75*
G02*
X126312500Y-96325000I-87500J0D01*
G01*
G37*
G36*
G01*
X126312500Y-96825000D02*
X125587500Y-96825000D01*
G75*
G02*
X125500000Y-96737500I0J87500D01*
G01*
X125500000Y-96562500D01*
G75*
G02*
X125587500Y-96475000I87500J0D01*
G01*
X126312500Y-96475000D01*
G75*
G02*
X126400000Y-96562500I0J-87500D01*
G01*
X126400000Y-96737500D01*
G75*
G02*
X126312500Y-96825000I-87500J0D01*
G01*
G37*
G36*
G01*
X126312500Y-97325000D02*
X125587500Y-97325000D01*
G75*
G02*
X125500000Y-97237500I0J87500D01*
G01*
X125500000Y-97062500D01*
G75*
G02*
X125587500Y-96975000I87500J0D01*
G01*
X126312500Y-96975000D01*
G75*
G02*
X126400000Y-97062500I0J-87500D01*
G01*
X126400000Y-97237500D01*
G75*
G02*
X126312500Y-97325000I-87500J0D01*
G01*
G37*
G36*
G01*
X126312500Y-97825000D02*
X125587500Y-97825000D01*
G75*
G02*
X125500000Y-97737500I0J87500D01*
G01*
X125500000Y-97562500D01*
G75*
G02*
X125587500Y-97475000I87500J0D01*
G01*
X126312500Y-97475000D01*
G75*
G02*
X126400000Y-97562500I0J-87500D01*
G01*
X126400000Y-97737500D01*
G75*
G02*
X126312500Y-97825000I-87500J0D01*
G01*
G37*
G36*
G01*
X125337500Y-98800000D02*
X125162500Y-98800000D01*
G75*
G02*
X125075000Y-98712500I0J87500D01*
G01*
X125075000Y-97987500D01*
G75*
G02*
X125162500Y-97900000I87500J0D01*
G01*
X125337500Y-97900000D01*
G75*
G02*
X125425000Y-97987500I0J-87500D01*
G01*
X125425000Y-98712500D01*
G75*
G02*
X125337500Y-98800000I-87500J0D01*
G01*
G37*
G36*
G01*
X124837500Y-98800000D02*
X124662500Y-98800000D01*
G75*
G02*
X124575000Y-98712500I0J87500D01*
G01*
X124575000Y-97987500D01*
G75*
G02*
X124662500Y-97900000I87500J0D01*
G01*
X124837500Y-97900000D01*
G75*
G02*
X124925000Y-97987500I0J-87500D01*
G01*
X124925000Y-98712500D01*
G75*
G02*
X124837500Y-98800000I-87500J0D01*
G01*
G37*
G36*
G01*
X124337500Y-98800000D02*
X124162500Y-98800000D01*
G75*
G02*
X124075000Y-98712500I0J87500D01*
G01*
X124075000Y-97987500D01*
G75*
G02*
X124162500Y-97900000I87500J0D01*
G01*
X124337500Y-97900000D01*
G75*
G02*
X124425000Y-97987500I0J-87500D01*
G01*
X124425000Y-98712500D01*
G75*
G02*
X124337500Y-98800000I-87500J0D01*
G01*
G37*
G36*
G01*
X123837500Y-98800000D02*
X123662500Y-98800000D01*
G75*
G02*
X123575000Y-98712500I0J87500D01*
G01*
X123575000Y-97987500D01*
G75*
G02*
X123662500Y-97900000I87500J0D01*
G01*
X123837500Y-97900000D01*
G75*
G02*
X123925000Y-97987500I0J-87500D01*
G01*
X123925000Y-98712500D01*
G75*
G02*
X123837500Y-98800000I-87500J0D01*
G01*
G37*
G36*
G01*
X123337500Y-98800000D02*
X123162500Y-98800000D01*
G75*
G02*
X123075000Y-98712500I0J87500D01*
G01*
X123075000Y-97987500D01*
G75*
G02*
X123162500Y-97900000I87500J0D01*
G01*
X123337500Y-97900000D01*
G75*
G02*
X123425000Y-97987500I0J-87500D01*
G01*
X123425000Y-98712500D01*
G75*
G02*
X123337500Y-98800000I-87500J0D01*
G01*
G37*
G36*
G01*
X122837500Y-98800000D02*
X122662500Y-98800000D01*
G75*
G02*
X122575000Y-98712500I0J87500D01*
G01*
X122575000Y-97987500D01*
G75*
G02*
X122662500Y-97900000I87500J0D01*
G01*
X122837500Y-97900000D01*
G75*
G02*
X122925000Y-97987500I0J-87500D01*
G01*
X122925000Y-98712500D01*
G75*
G02*
X122837500Y-98800000I-87500J0D01*
G01*
G37*
G36*
G01*
X122337500Y-98800000D02*
X122162500Y-98800000D01*
G75*
G02*
X122075000Y-98712500I0J87500D01*
G01*
X122075000Y-97987500D01*
G75*
G02*
X122162500Y-97900000I87500J0D01*
G01*
X122337500Y-97900000D01*
G75*
G02*
X122425000Y-97987500I0J-87500D01*
G01*
X122425000Y-98712500D01*
G75*
G02*
X122337500Y-98800000I-87500J0D01*
G01*
G37*
G36*
G01*
X121837500Y-98800000D02*
X121662500Y-98800000D01*
G75*
G02*
X121575000Y-98712500I0J87500D01*
G01*
X121575000Y-97987500D01*
G75*
G02*
X121662500Y-97900000I87500J0D01*
G01*
X121837500Y-97900000D01*
G75*
G02*
X121925000Y-97987500I0J-87500D01*
G01*
X121925000Y-98712500D01*
G75*
G02*
X121837500Y-98800000I-87500J0D01*
G01*
G37*
G36*
G01*
X121337500Y-98800000D02*
X121162500Y-98800000D01*
G75*
G02*
X121075000Y-98712500I0J87500D01*
G01*
X121075000Y-97987500D01*
G75*
G02*
X121162500Y-97900000I87500J0D01*
G01*
X121337500Y-97900000D01*
G75*
G02*
X121425000Y-97987500I0J-87500D01*
G01*
X121425000Y-98712500D01*
G75*
G02*
X121337500Y-98800000I-87500J0D01*
G01*
G37*
G36*
G01*
X120837500Y-98800000D02*
X120662500Y-98800000D01*
G75*
G02*
X120575000Y-98712500I0J87500D01*
G01*
X120575000Y-97987500D01*
G75*
G02*
X120662500Y-97900000I87500J0D01*
G01*
X120837500Y-97900000D01*
G75*
G02*
X120925000Y-97987500I0J-87500D01*
G01*
X120925000Y-98712500D01*
G75*
G02*
X120837500Y-98800000I-87500J0D01*
G01*
G37*
G36*
G01*
X120337500Y-98800000D02*
X120162500Y-98800000D01*
G75*
G02*
X120075000Y-98712500I0J87500D01*
G01*
X120075000Y-97987500D01*
G75*
G02*
X120162500Y-97900000I87500J0D01*
G01*
X120337500Y-97900000D01*
G75*
G02*
X120425000Y-97987500I0J-87500D01*
G01*
X120425000Y-98712500D01*
G75*
G02*
X120337500Y-98800000I-87500J0D01*
G01*
G37*
G36*
G01*
X119837500Y-98800000D02*
X119662500Y-98800000D01*
G75*
G02*
X119575000Y-98712500I0J87500D01*
G01*
X119575000Y-97987500D01*
G75*
G02*
X119662500Y-97900000I87500J0D01*
G01*
X119837500Y-97900000D01*
G75*
G02*
X119925000Y-97987500I0J-87500D01*
G01*
X119925000Y-98712500D01*
G75*
G02*
X119837500Y-98800000I-87500J0D01*
G01*
G37*
G36*
G01*
X119337500Y-98800000D02*
X119162500Y-98800000D01*
G75*
G02*
X119075000Y-98712500I0J87500D01*
G01*
X119075000Y-97987500D01*
G75*
G02*
X119162500Y-97900000I87500J0D01*
G01*
X119337500Y-97900000D01*
G75*
G02*
X119425000Y-97987500I0J-87500D01*
G01*
X119425000Y-98712500D01*
G75*
G02*
X119337500Y-98800000I-87500J0D01*
G01*
G37*
G36*
G01*
X118837500Y-98800000D02*
X118662500Y-98800000D01*
G75*
G02*
X118575000Y-98712500I0J87500D01*
G01*
X118575000Y-97987500D01*
G75*
G02*
X118662500Y-97900000I87500J0D01*
G01*
X118837500Y-97900000D01*
G75*
G02*
X118925000Y-97987500I0J-87500D01*
G01*
X118925000Y-98712500D01*
G75*
G02*
X118837500Y-98800000I-87500J0D01*
G01*
G37*
G36*
G01*
X118337500Y-98800000D02*
X118162500Y-98800000D01*
G75*
G02*
X118075000Y-98712500I0J87500D01*
G01*
X118075000Y-97987500D01*
G75*
G02*
X118162500Y-97900000I87500J0D01*
G01*
X118337500Y-97900000D01*
G75*
G02*
X118425000Y-97987500I0J-87500D01*
G01*
X118425000Y-98712500D01*
G75*
G02*
X118337500Y-98800000I-87500J0D01*
G01*
G37*
G36*
G01*
X117837500Y-98800000D02*
X117662500Y-98800000D01*
G75*
G02*
X117575000Y-98712500I0J87500D01*
G01*
X117575000Y-97987500D01*
G75*
G02*
X117662500Y-97900000I87500J0D01*
G01*
X117837500Y-97900000D01*
G75*
G02*
X117925000Y-97987500I0J-87500D01*
G01*
X117925000Y-98712500D01*
G75*
G02*
X117837500Y-98800000I-87500J0D01*
G01*
G37*
G36*
G01*
X109975000Y-99420000D02*
X110625000Y-99420000D01*
G75*
G02*
X110675000Y-99470000I0J-50000D01*
G01*
X110675000Y-100530000D01*
G75*
G02*
X110625000Y-100580000I-50000J0D01*
G01*
X109975000Y-100580000D01*
G75*
G02*
X109925000Y-100530000I0J50000D01*
G01*
X109925000Y-99470000D01*
G75*
G02*
X109975000Y-99420000I50000J0D01*
G01*
G37*
G36*
G01*
X110925000Y-99420000D02*
X111575000Y-99420000D01*
G75*
G02*
X111625000Y-99470000I0J-50000D01*
G01*
X111625000Y-100530000D01*
G75*
G02*
X111575000Y-100580000I-50000J0D01*
G01*
X110925000Y-100580000D01*
G75*
G02*
X110875000Y-100530000I0J50000D01*
G01*
X110875000Y-99470000D01*
G75*
G02*
X110925000Y-99420000I50000J0D01*
G01*
G37*
G36*
G01*
X109025000Y-99420000D02*
X109675000Y-99420000D01*
G75*
G02*
X109725000Y-99470000I0J-50000D01*
G01*
X109725000Y-100530000D01*
G75*
G02*
X109675000Y-100580000I-50000J0D01*
G01*
X109025000Y-100580000D01*
G75*
G02*
X108975000Y-100530000I0J50000D01*
G01*
X108975000Y-99470000D01*
G75*
G02*
X109025000Y-99420000I50000J0D01*
G01*
G37*
G36*
G01*
X109025000Y-97220000D02*
X109675000Y-97220000D01*
G75*
G02*
X109725000Y-97270000I0J-50000D01*
G01*
X109725000Y-98330000D01*
G75*
G02*
X109675000Y-98380000I-50000J0D01*
G01*
X109025000Y-98380000D01*
G75*
G02*
X108975000Y-98330000I0J50000D01*
G01*
X108975000Y-97270000D01*
G75*
G02*
X109025000Y-97220000I50000J0D01*
G01*
G37*
G36*
G01*
X109975000Y-97220000D02*
X110625000Y-97220000D01*
G75*
G02*
X110675000Y-97270000I0J-50000D01*
G01*
X110675000Y-98330000D01*
G75*
G02*
X110625000Y-98380000I-50000J0D01*
G01*
X109975000Y-98380000D01*
G75*
G02*
X109925000Y-98330000I0J50000D01*
G01*
X109925000Y-97270000D01*
G75*
G02*
X109975000Y-97220000I50000J0D01*
G01*
G37*
G36*
G01*
X110925000Y-97220000D02*
X111575000Y-97220000D01*
G75*
G02*
X111625000Y-97270000I0J-50000D01*
G01*
X111625000Y-98330000D01*
G75*
G02*
X111575000Y-98380000I-50000J0D01*
G01*
X110925000Y-98380000D01*
G75*
G02*
X110875000Y-98330000I0J50000D01*
G01*
X110875000Y-97270000D01*
G75*
G02*
X110925000Y-97220000I50000J0D01*
G01*
G37*
G36*
G01*
X111220000Y-91425000D02*
X111220000Y-90775000D01*
G75*
G02*
X111270000Y-90725000I50000J0D01*
G01*
X112330000Y-90725000D01*
G75*
G02*
X112380000Y-90775000I0J-50000D01*
G01*
X112380000Y-91425000D01*
G75*
G02*
X112330000Y-91475000I-50000J0D01*
G01*
X111270000Y-91475000D01*
G75*
G02*
X111220000Y-91425000I0J50000D01*
G01*
G37*
G36*
G01*
X111220000Y-90475000D02*
X111220000Y-89825000D01*
G75*
G02*
X111270000Y-89775000I50000J0D01*
G01*
X112330000Y-89775000D01*
G75*
G02*
X112380000Y-89825000I0J-50000D01*
G01*
X112380000Y-90475000D01*
G75*
G02*
X112330000Y-90525000I-50000J0D01*
G01*
X111270000Y-90525000D01*
G75*
G02*
X111220000Y-90475000I0J50000D01*
G01*
G37*
G36*
G01*
X111220000Y-92375000D02*
X111220000Y-91725000D01*
G75*
G02*
X111270000Y-91675000I50000J0D01*
G01*
X112330000Y-91675000D01*
G75*
G02*
X112380000Y-91725000I0J-50000D01*
G01*
X112380000Y-92375000D01*
G75*
G02*
X112330000Y-92425000I-50000J0D01*
G01*
X111270000Y-92425000D01*
G75*
G02*
X111220000Y-92375000I0J50000D01*
G01*
G37*
G36*
G01*
X109020000Y-92375000D02*
X109020000Y-91725000D01*
G75*
G02*
X109070000Y-91675000I50000J0D01*
G01*
X110130000Y-91675000D01*
G75*
G02*
X110180000Y-91725000I0J-50000D01*
G01*
X110180000Y-92375000D01*
G75*
G02*
X110130000Y-92425000I-50000J0D01*
G01*
X109070000Y-92425000D01*
G75*
G02*
X109020000Y-92375000I0J50000D01*
G01*
G37*
G36*
G01*
X109020000Y-91425000D02*
X109020000Y-90775000D01*
G75*
G02*
X109070000Y-90725000I50000J0D01*
G01*
X110130000Y-90725000D01*
G75*
G02*
X110180000Y-90775000I0J-50000D01*
G01*
X110180000Y-91425000D01*
G75*
G02*
X110130000Y-91475000I-50000J0D01*
G01*
X109070000Y-91475000D01*
G75*
G02*
X109020000Y-91425000I0J50000D01*
G01*
G37*
G36*
G01*
X109020000Y-90475000D02*
X109020000Y-89825000D01*
G75*
G02*
X109070000Y-89775000I50000J0D01*
G01*
X110130000Y-89775000D01*
G75*
G02*
X110180000Y-89825000I0J-50000D01*
G01*
X110180000Y-90475000D01*
G75*
G02*
X110130000Y-90525000I-50000J0D01*
G01*
X109070000Y-90525000D01*
G75*
G02*
X109020000Y-90475000I0J50000D01*
G01*
G37*
G36*
G01*
X159805000Y-90375000D02*
X159805000Y-91025000D01*
G75*
G02*
X159755000Y-91075000I-50000J0D01*
G01*
X158695000Y-91075000D01*
G75*
G02*
X158645000Y-91025000I0J50000D01*
G01*
X158645000Y-90375000D01*
G75*
G02*
X158695000Y-90325000I50000J0D01*
G01*
X159755000Y-90325000D01*
G75*
G02*
X159805000Y-90375000I0J-50000D01*
G01*
G37*
G36*
G01*
X159805000Y-88475000D02*
X159805000Y-89125000D01*
G75*
G02*
X159755000Y-89175000I-50000J0D01*
G01*
X158695000Y-89175000D01*
G75*
G02*
X158645000Y-89125000I0J50000D01*
G01*
X158645000Y-88475000D01*
G75*
G02*
X158695000Y-88425000I50000J0D01*
G01*
X159755000Y-88425000D01*
G75*
G02*
X159805000Y-88475000I0J-50000D01*
G01*
G37*
G36*
G01*
X162005000Y-88475000D02*
X162005000Y-89125000D01*
G75*
G02*
X161955000Y-89175000I-50000J0D01*
G01*
X160895000Y-89175000D01*
G75*
G02*
X160845000Y-89125000I0J50000D01*
G01*
X160845000Y-88475000D01*
G75*
G02*
X160895000Y-88425000I50000J0D01*
G01*
X161955000Y-88425000D01*
G75*
G02*
X162005000Y-88475000I0J-50000D01*
G01*
G37*
G36*
G01*
X162005000Y-89425000D02*
X162005000Y-90075000D01*
G75*
G02*
X161955000Y-90125000I-50000J0D01*
G01*
X160895000Y-90125000D01*
G75*
G02*
X160845000Y-90075000I0J50000D01*
G01*
X160845000Y-89425000D01*
G75*
G02*
X160895000Y-89375000I50000J0D01*
G01*
X161955000Y-89375000D01*
G75*
G02*
X162005000Y-89425000I0J-50000D01*
G01*
G37*
G36*
G01*
X162005000Y-90375000D02*
X162005000Y-91025000D01*
G75*
G02*
X161955000Y-91075000I-50000J0D01*
G01*
X160895000Y-91075000D01*
G75*
G02*
X160845000Y-91025000I0J50000D01*
G01*
X160845000Y-90375000D01*
G75*
G02*
X160895000Y-90325000I50000J0D01*
G01*
X161955000Y-90325000D01*
G75*
G02*
X162005000Y-90375000I0J-50000D01*
G01*
G37*
G36*
G01*
X133730000Y-105575000D02*
X133730000Y-106225000D01*
G75*
G02*
X133680000Y-106275000I-50000J0D01*
G01*
X132620000Y-106275000D01*
G75*
G02*
X132570000Y-106225000I0J50000D01*
G01*
X132570000Y-105575000D01*
G75*
G02*
X132620000Y-105525000I50000J0D01*
G01*
X133680000Y-105525000D01*
G75*
G02*
X133730000Y-105575000I0J-50000D01*
G01*
G37*
G36*
G01*
X133730000Y-103675000D02*
X133730000Y-104325000D01*
G75*
G02*
X133680000Y-104375000I-50000J0D01*
G01*
X132620000Y-104375000D01*
G75*
G02*
X132570000Y-104325000I0J50000D01*
G01*
X132570000Y-103675000D01*
G75*
G02*
X132620000Y-103625000I50000J0D01*
G01*
X133680000Y-103625000D01*
G75*
G02*
X133730000Y-103675000I0J-50000D01*
G01*
G37*
G36*
G01*
X135930000Y-103675000D02*
X135930000Y-104325000D01*
G75*
G02*
X135880000Y-104375000I-50000J0D01*
G01*
X134820000Y-104375000D01*
G75*
G02*
X134770000Y-104325000I0J50000D01*
G01*
X134770000Y-103675000D01*
G75*
G02*
X134820000Y-103625000I50000J0D01*
G01*
X135880000Y-103625000D01*
G75*
G02*
X135930000Y-103675000I0J-50000D01*
G01*
G37*
G36*
G01*
X135930000Y-104625000D02*
X135930000Y-105275000D01*
G75*
G02*
X135880000Y-105325000I-50000J0D01*
G01*
X134820000Y-105325000D01*
G75*
G02*
X134770000Y-105275000I0J50000D01*
G01*
X134770000Y-104625000D01*
G75*
G02*
X134820000Y-104575000I50000J0D01*
G01*
X135880000Y-104575000D01*
G75*
G02*
X135930000Y-104625000I0J-50000D01*
G01*
G37*
G36*
G01*
X135930000Y-105575000D02*
X135930000Y-106225000D01*
G75*
G02*
X135880000Y-106275000I-50000J0D01*
G01*
X134820000Y-106275000D01*
G75*
G02*
X134770000Y-106225000I0J50000D01*
G01*
X134770000Y-105575000D01*
G75*
G02*
X134820000Y-105525000I50000J0D01*
G01*
X135880000Y-105525000D01*
G75*
G02*
X135930000Y-105575000I0J-50000D01*
G01*
G37*
G36*
G01*
X105637107Y-80349999D02*
X105637107Y-80999999D01*
G75*
G02*
X105587107Y-81049999I-50000J0D01*
G01*
X104527107Y-81049999D01*
G75*
G02*
X104477107Y-80999999I0J50000D01*
G01*
X104477107Y-80349999D01*
G75*
G02*
X104527107Y-80299999I50000J0D01*
G01*
X105587107Y-80299999D01*
G75*
G02*
X105637107Y-80349999I0J-50000D01*
G01*
G37*
G36*
G01*
X105637107Y-78449999D02*
X105637107Y-79099999D01*
G75*
G02*
X105587107Y-79149999I-50000J0D01*
G01*
X104527107Y-79149999D01*
G75*
G02*
X104477107Y-79099999I0J50000D01*
G01*
X104477107Y-78449999D01*
G75*
G02*
X104527107Y-78399999I50000J0D01*
G01*
X105587107Y-78399999D01*
G75*
G02*
X105637107Y-78449999I0J-50000D01*
G01*
G37*
G36*
G01*
X107837107Y-78449999D02*
X107837107Y-79099999D01*
G75*
G02*
X107787107Y-79149999I-50000J0D01*
G01*
X106727107Y-79149999D01*
G75*
G02*
X106677107Y-79099999I0J50000D01*
G01*
X106677107Y-78449999D01*
G75*
G02*
X106727107Y-78399999I50000J0D01*
G01*
X107787107Y-78399999D01*
G75*
G02*
X107837107Y-78449999I0J-50000D01*
G01*
G37*
G36*
G01*
X107837107Y-79399999D02*
X107837107Y-80049999D01*
G75*
G02*
X107787107Y-80099999I-50000J0D01*
G01*
X106727107Y-80099999D01*
G75*
G02*
X106677107Y-80049999I0J50000D01*
G01*
X106677107Y-79399999D01*
G75*
G02*
X106727107Y-79349999I50000J0D01*
G01*
X107787107Y-79349999D01*
G75*
G02*
X107837107Y-79399999I0J-50000D01*
G01*
G37*
G36*
G01*
X107837107Y-80349999D02*
X107837107Y-80999999D01*
G75*
G02*
X107787107Y-81049999I-50000J0D01*
G01*
X106727107Y-81049999D01*
G75*
G02*
X106677107Y-80999999I0J50000D01*
G01*
X106677107Y-80349999D01*
G75*
G02*
X106727107Y-80299999I50000J0D01*
G01*
X107787107Y-80299999D01*
G75*
G02*
X107837107Y-80349999I0J-50000D01*
G01*
G37*
G36*
G01*
X121675000Y-79275000D02*
X121675000Y-79025000D01*
G75*
G02*
X121800000Y-78900000I125000J0D01*
G01*
X123125000Y-78900000D01*
G75*
G02*
X123250000Y-79025000I0J-125000D01*
G01*
X123250000Y-79275000D01*
G75*
G02*
X123125000Y-79400000I-125000J0D01*
G01*
X121800000Y-79400000D01*
G75*
G02*
X121675000Y-79275000I0J125000D01*
G01*
G37*
G36*
G01*
X121675000Y-79925000D02*
X121675000Y-79675000D01*
G75*
G02*
X121800000Y-79550000I125000J0D01*
G01*
X123125000Y-79550000D01*
G75*
G02*
X123250000Y-79675000I0J-125000D01*
G01*
X123250000Y-79925000D01*
G75*
G02*
X123125000Y-80050000I-125000J0D01*
G01*
X121800000Y-80050000D01*
G75*
G02*
X121675000Y-79925000I0J125000D01*
G01*
G37*
G36*
G01*
X121675000Y-80575000D02*
X121675000Y-80325000D01*
G75*
G02*
X121800000Y-80200000I125000J0D01*
G01*
X123125000Y-80200000D01*
G75*
G02*
X123250000Y-80325000I0J-125000D01*
G01*
X123250000Y-80575000D01*
G75*
G02*
X123125000Y-80700000I-125000J0D01*
G01*
X121800000Y-80700000D01*
G75*
G02*
X121675000Y-80575000I0J125000D01*
G01*
G37*
G36*
G01*
X121675000Y-81225000D02*
X121675000Y-80975000D01*
G75*
G02*
X121800000Y-80850000I125000J0D01*
G01*
X123125000Y-80850000D01*
G75*
G02*
X123250000Y-80975000I0J-125000D01*
G01*
X123250000Y-81225000D01*
G75*
G02*
X123125000Y-81350000I-125000J0D01*
G01*
X121800000Y-81350000D01*
G75*
G02*
X121675000Y-81225000I0J125000D01*
G01*
G37*
G36*
G01*
X115950000Y-81225000D02*
X115950000Y-80975000D01*
G75*
G02*
X116075000Y-80850000I125000J0D01*
G01*
X117400000Y-80850000D01*
G75*
G02*
X117525000Y-80975000I0J-125000D01*
G01*
X117525000Y-81225000D01*
G75*
G02*
X117400000Y-81350000I-125000J0D01*
G01*
X116075000Y-81350000D01*
G75*
G02*
X115950000Y-81225000I0J125000D01*
G01*
G37*
G36*
G01*
X115950000Y-80575000D02*
X115950000Y-80325000D01*
G75*
G02*
X116075000Y-80200000I125000J0D01*
G01*
X117400000Y-80200000D01*
G75*
G02*
X117525000Y-80325000I0J-125000D01*
G01*
X117525000Y-80575000D01*
G75*
G02*
X117400000Y-80700000I-125000J0D01*
G01*
X116075000Y-80700000D01*
G75*
G02*
X115950000Y-80575000I0J125000D01*
G01*
G37*
G36*
G01*
X115950000Y-79925000D02*
X115950000Y-79675000D01*
G75*
G02*
X116075000Y-79550000I125000J0D01*
G01*
X117400000Y-79550000D01*
G75*
G02*
X117525000Y-79675000I0J-125000D01*
G01*
X117525000Y-79925000D01*
G75*
G02*
X117400000Y-80050000I-125000J0D01*
G01*
X116075000Y-80050000D01*
G75*
G02*
X115950000Y-79925000I0J125000D01*
G01*
G37*
G36*
G01*
X115950000Y-79275000D02*
X115950000Y-79025000D01*
G75*
G02*
X116075000Y-78900000I125000J0D01*
G01*
X117400000Y-78900000D01*
G75*
G02*
X117525000Y-79025000I0J-125000D01*
G01*
X117525000Y-79275000D01*
G75*
G02*
X117400000Y-79400000I-125000J0D01*
G01*
X116075000Y-79400000D01*
G75*
G02*
X115950000Y-79275000I0J125000D01*
G01*
G37*
G36*
G01*
X126075000Y-105420000D02*
X126075000Y-104770000D01*
G75*
G02*
X126125000Y-104720000I50000J0D01*
G01*
X127825000Y-104720000D01*
G75*
G02*
X127875000Y-104770000I0J-50000D01*
G01*
X127875000Y-105420000D01*
G75*
G02*
X127825000Y-105470000I-50000J0D01*
G01*
X126125000Y-105470000D01*
G75*
G02*
X126075000Y-105420000I0J50000D01*
G01*
G37*
G36*
G01*
X126075000Y-106690000D02*
X126075000Y-106040000D01*
G75*
G02*
X126125000Y-105990000I50000J0D01*
G01*
X127825000Y-105990000D01*
G75*
G02*
X127875000Y-106040000I0J-50000D01*
G01*
X127875000Y-106690000D01*
G75*
G02*
X127825000Y-106740000I-50000J0D01*
G01*
X126125000Y-106740000D01*
G75*
G02*
X126075000Y-106690000I0J50000D01*
G01*
G37*
G36*
G01*
X126075000Y-107960000D02*
X126075000Y-107310000D01*
G75*
G02*
X126125000Y-107260000I50000J0D01*
G01*
X127825000Y-107260000D01*
G75*
G02*
X127875000Y-107310000I0J-50000D01*
G01*
X127875000Y-107960000D01*
G75*
G02*
X127825000Y-108010000I-50000J0D01*
G01*
X126125000Y-108010000D01*
G75*
G02*
X126075000Y-107960000I0J50000D01*
G01*
G37*
G36*
G01*
X126075000Y-109230000D02*
X126075000Y-108580000D01*
G75*
G02*
X126125000Y-108530000I50000J0D01*
G01*
X127825000Y-108530000D01*
G75*
G02*
X127875000Y-108580000I0J-50000D01*
G01*
X127875000Y-109230000D01*
G75*
G02*
X127825000Y-109280000I-50000J0D01*
G01*
X126125000Y-109280000D01*
G75*
G02*
X126075000Y-109230000I0J50000D01*
G01*
G37*
G36*
G01*
X118775000Y-109230000D02*
X118775000Y-108580000D01*
G75*
G02*
X118825000Y-108530000I50000J0D01*
G01*
X120525000Y-108530000D01*
G75*
G02*
X120575000Y-108580000I0J-50000D01*
G01*
X120575000Y-109230000D01*
G75*
G02*
X120525000Y-109280000I-50000J0D01*
G01*
X118825000Y-109280000D01*
G75*
G02*
X118775000Y-109230000I0J50000D01*
G01*
G37*
G36*
G01*
X118775000Y-107960000D02*
X118775000Y-107310000D01*
G75*
G02*
X118825000Y-107260000I50000J0D01*
G01*
X120525000Y-107260000D01*
G75*
G02*
X120575000Y-107310000I0J-50000D01*
G01*
X120575000Y-107960000D01*
G75*
G02*
X120525000Y-108010000I-50000J0D01*
G01*
X118825000Y-108010000D01*
G75*
G02*
X118775000Y-107960000I0J50000D01*
G01*
G37*
G36*
G01*
X118775000Y-106690000D02*
X118775000Y-106040000D01*
G75*
G02*
X118825000Y-105990000I50000J0D01*
G01*
X120525000Y-105990000D01*
G75*
G02*
X120575000Y-106040000I0J-50000D01*
G01*
X120575000Y-106690000D01*
G75*
G02*
X120525000Y-106740000I-50000J0D01*
G01*
X118825000Y-106740000D01*
G75*
G02*
X118775000Y-106690000I0J50000D01*
G01*
G37*
G36*
G01*
X118775000Y-105420000D02*
X118775000Y-104770000D01*
G75*
G02*
X118825000Y-104720000I50000J0D01*
G01*
X120525000Y-104720000D01*
G75*
G02*
X120575000Y-104770000I0J-50000D01*
G01*
X120575000Y-105420000D01*
G75*
G02*
X120525000Y-105470000I-50000J0D01*
G01*
X118825000Y-105470000D01*
G75*
G02*
X118775000Y-105420000I0J50000D01*
G01*
G37*
G36*
G01*
X161350000Y-119050000D02*
X160850000Y-119050000D01*
G75*
G02*
X160800000Y-119000000I0J50000D01*
G01*
X160800000Y-118200000D01*
G75*
G02*
X160850000Y-118150000I50000J0D01*
G01*
X161350000Y-118150000D01*
G75*
G02*
X161400000Y-118200000I0J-50000D01*
G01*
X161400000Y-119000000D01*
G75*
G02*
X161350000Y-119050000I-50000J0D01*
G01*
G37*
G36*
G01*
X160500000Y-119050000D02*
X160100000Y-119050000D01*
G75*
G02*
X160050000Y-119000000I0J50000D01*
G01*
X160050000Y-118200000D01*
G75*
G02*
X160100000Y-118150000I50000J0D01*
G01*
X160500000Y-118150000D01*
G75*
G02*
X160550000Y-118200000I0J-50000D01*
G01*
X160550000Y-119000000D01*
G75*
G02*
X160500000Y-119050000I-50000J0D01*
G01*
G37*
G36*
G01*
X158950000Y-119050000D02*
X158450000Y-119050000D01*
G75*
G02*
X158400000Y-119000000I0J50000D01*
G01*
X158400000Y-118200000D01*
G75*
G02*
X158450000Y-118150000I50000J0D01*
G01*
X158950000Y-118150000D01*
G75*
G02*
X159000000Y-118200000I0J-50000D01*
G01*
X159000000Y-119000000D01*
G75*
G02*
X158950000Y-119050000I-50000J0D01*
G01*
G37*
G36*
G01*
X159700000Y-119050000D02*
X159300000Y-119050000D01*
G75*
G02*
X159250000Y-119000000I0J50000D01*
G01*
X159250000Y-118200000D01*
G75*
G02*
X159300000Y-118150000I50000J0D01*
G01*
X159700000Y-118150000D01*
G75*
G02*
X159750000Y-118200000I0J-50000D01*
G01*
X159750000Y-119000000D01*
G75*
G02*
X159700000Y-119050000I-50000J0D01*
G01*
G37*
G36*
G01*
X161350000Y-120850000D02*
X160850000Y-120850000D01*
G75*
G02*
X160800000Y-120800000I0J50000D01*
G01*
X160800000Y-120000000D01*
G75*
G02*
X160850000Y-119950000I50000J0D01*
G01*
X161350000Y-119950000D01*
G75*
G02*
X161400000Y-120000000I0J-50000D01*
G01*
X161400000Y-120800000D01*
G75*
G02*
X161350000Y-120850000I-50000J0D01*
G01*
G37*
G36*
G01*
X159700000Y-120850000D02*
X159300000Y-120850000D01*
G75*
G02*
X159250000Y-120800000I0J50000D01*
G01*
X159250000Y-120000000D01*
G75*
G02*
X159300000Y-119950000I50000J0D01*
G01*
X159700000Y-119950000D01*
G75*
G02*
X159750000Y-120000000I0J-50000D01*
G01*
X159750000Y-120800000D01*
G75*
G02*
X159700000Y-120850000I-50000J0D01*
G01*
G37*
G36*
G01*
X160500000Y-120850000D02*
X160100000Y-120850000D01*
G75*
G02*
X160050000Y-120800000I0J50000D01*
G01*
X160050000Y-120000000D01*
G75*
G02*
X160100000Y-119950000I50000J0D01*
G01*
X160500000Y-119950000D01*
G75*
G02*
X160550000Y-120000000I0J-50000D01*
G01*
X160550000Y-120800000D01*
G75*
G02*
X160500000Y-120850000I-50000J0D01*
G01*
G37*
G36*
G01*
X158950000Y-120850000D02*
X158450000Y-120850000D01*
G75*
G02*
X158400000Y-120800000I0J50000D01*
G01*
X158400000Y-120000000D01*
G75*
G02*
X158450000Y-119950000I50000J0D01*
G01*
X158950000Y-119950000D01*
G75*
G02*
X159000000Y-120000000I0J-50000D01*
G01*
X159000000Y-120800000D01*
G75*
G02*
X158950000Y-120850000I-50000J0D01*
G01*
G37*
G36*
G01*
X145150000Y-119050000D02*
X144650000Y-119050000D01*
G75*
G02*
X144600000Y-119000000I0J50000D01*
G01*
X144600000Y-118200000D01*
G75*
G02*
X144650000Y-118150000I50000J0D01*
G01*
X145150000Y-118150000D01*
G75*
G02*
X145200000Y-118200000I0J-50000D01*
G01*
X145200000Y-119000000D01*
G75*
G02*
X145150000Y-119050000I-50000J0D01*
G01*
G37*
G36*
G01*
X144300000Y-119050000D02*
X143900000Y-119050000D01*
G75*
G02*
X143850000Y-119000000I0J50000D01*
G01*
X143850000Y-118200000D01*
G75*
G02*
X143900000Y-118150000I50000J0D01*
G01*
X144300000Y-118150000D01*
G75*
G02*
X144350000Y-118200000I0J-50000D01*
G01*
X144350000Y-119000000D01*
G75*
G02*
X144300000Y-119050000I-50000J0D01*
G01*
G37*
G36*
G01*
X142750000Y-119050000D02*
X142250000Y-119050000D01*
G75*
G02*
X142200000Y-119000000I0J50000D01*
G01*
X142200000Y-118200000D01*
G75*
G02*
X142250000Y-118150000I50000J0D01*
G01*
X142750000Y-118150000D01*
G75*
G02*
X142800000Y-118200000I0J-50000D01*
G01*
X142800000Y-119000000D01*
G75*
G02*
X142750000Y-119050000I-50000J0D01*
G01*
G37*
G36*
G01*
X143500000Y-119050000D02*
X143100000Y-119050000D01*
G75*
G02*
X143050000Y-119000000I0J50000D01*
G01*
X143050000Y-118200000D01*
G75*
G02*
X143100000Y-118150000I50000J0D01*
G01*
X143500000Y-118150000D01*
G75*
G02*
X143550000Y-118200000I0J-50000D01*
G01*
X143550000Y-119000000D01*
G75*
G02*
X143500000Y-119050000I-50000J0D01*
G01*
G37*
G36*
G01*
X145150000Y-120850000D02*
X144650000Y-120850000D01*
G75*
G02*
X144600000Y-120800000I0J50000D01*
G01*
X144600000Y-120000000D01*
G75*
G02*
X144650000Y-119950000I50000J0D01*
G01*
X145150000Y-119950000D01*
G75*
G02*
X145200000Y-120000000I0J-50000D01*
G01*
X145200000Y-120800000D01*
G75*
G02*
X145150000Y-120850000I-50000J0D01*
G01*
G37*
G36*
G01*
X143500000Y-120850000D02*
X143100000Y-120850000D01*
G75*
G02*
X143050000Y-120800000I0J50000D01*
G01*
X143050000Y-120000000D01*
G75*
G02*
X143100000Y-119950000I50000J0D01*
G01*
X143500000Y-119950000D01*
G75*
G02*
X143550000Y-120000000I0J-50000D01*
G01*
X143550000Y-120800000D01*
G75*
G02*
X143500000Y-120850000I-50000J0D01*
G01*
G37*
G36*
G01*
X144300000Y-120850000D02*
X143900000Y-120850000D01*
G75*
G02*
X143850000Y-120800000I0J50000D01*
G01*
X143850000Y-120000000D01*
G75*
G02*
X143900000Y-119950000I50000J0D01*
G01*
X144300000Y-119950000D01*
G75*
G02*
X144350000Y-120000000I0J-50000D01*
G01*
X144350000Y-120800000D01*
G75*
G02*
X144300000Y-120850000I-50000J0D01*
G01*
G37*
G36*
G01*
X142750000Y-120850000D02*
X142250000Y-120850000D01*
G75*
G02*
X142200000Y-120800000I0J50000D01*
G01*
X142200000Y-120000000D01*
G75*
G02*
X142250000Y-119950000I50000J0D01*
G01*
X142750000Y-119950000D01*
G75*
G02*
X142800000Y-120000000I0J-50000D01*
G01*
X142800000Y-120800000D01*
G75*
G02*
X142750000Y-120850000I-50000J0D01*
G01*
G37*
G36*
G01*
X168950000Y-119050000D02*
X168450000Y-119050000D01*
G75*
G02*
X168400000Y-119000000I0J50000D01*
G01*
X168400000Y-118200000D01*
G75*
G02*
X168450000Y-118150000I50000J0D01*
G01*
X168950000Y-118150000D01*
G75*
G02*
X169000000Y-118200000I0J-50000D01*
G01*
X169000000Y-119000000D01*
G75*
G02*
X168950000Y-119050000I-50000J0D01*
G01*
G37*
G36*
G01*
X168100000Y-119050000D02*
X167700000Y-119050000D01*
G75*
G02*
X167650000Y-119000000I0J50000D01*
G01*
X167650000Y-118200000D01*
G75*
G02*
X167700000Y-118150000I50000J0D01*
G01*
X168100000Y-118150000D01*
G75*
G02*
X168150000Y-118200000I0J-50000D01*
G01*
X168150000Y-119000000D01*
G75*
G02*
X168100000Y-119050000I-50000J0D01*
G01*
G37*
G36*
G01*
X166550000Y-119050000D02*
X166050000Y-119050000D01*
G75*
G02*
X166000000Y-119000000I0J50000D01*
G01*
X166000000Y-118200000D01*
G75*
G02*
X166050000Y-118150000I50000J0D01*
G01*
X166550000Y-118150000D01*
G75*
G02*
X166600000Y-118200000I0J-50000D01*
G01*
X166600000Y-119000000D01*
G75*
G02*
X166550000Y-119050000I-50000J0D01*
G01*
G37*
G36*
G01*
X167300000Y-119050000D02*
X166900000Y-119050000D01*
G75*
G02*
X166850000Y-119000000I0J50000D01*
G01*
X166850000Y-118200000D01*
G75*
G02*
X166900000Y-118150000I50000J0D01*
G01*
X167300000Y-118150000D01*
G75*
G02*
X167350000Y-118200000I0J-50000D01*
G01*
X167350000Y-119000000D01*
G75*
G02*
X167300000Y-119050000I-50000J0D01*
G01*
G37*
G36*
G01*
X168950000Y-120850000D02*
X168450000Y-120850000D01*
G75*
G02*
X168400000Y-120800000I0J50000D01*
G01*
X168400000Y-120000000D01*
G75*
G02*
X168450000Y-119950000I50000J0D01*
G01*
X168950000Y-119950000D01*
G75*
G02*
X169000000Y-120000000I0J-50000D01*
G01*
X169000000Y-120800000D01*
G75*
G02*
X168950000Y-120850000I-50000J0D01*
G01*
G37*
G36*
G01*
X167300000Y-120850000D02*
X166900000Y-120850000D01*
G75*
G02*
X166850000Y-120800000I0J50000D01*
G01*
X166850000Y-120000000D01*
G75*
G02*
X166900000Y-119950000I50000J0D01*
G01*
X167300000Y-119950000D01*
G75*
G02*
X167350000Y-120000000I0J-50000D01*
G01*
X167350000Y-120800000D01*
G75*
G02*
X167300000Y-120850000I-50000J0D01*
G01*
G37*
G36*
G01*
X168100000Y-120850000D02*
X167700000Y-120850000D01*
G75*
G02*
X167650000Y-120800000I0J50000D01*
G01*
X167650000Y-120000000D01*
G75*
G02*
X167700000Y-119950000I50000J0D01*
G01*
X168100000Y-119950000D01*
G75*
G02*
X168150000Y-120000000I0J-50000D01*
G01*
X168150000Y-120800000D01*
G75*
G02*
X168100000Y-120850000I-50000J0D01*
G01*
G37*
G36*
G01*
X166550000Y-120850000D02*
X166050000Y-120850000D01*
G75*
G02*
X166000000Y-120800000I0J50000D01*
G01*
X166000000Y-120000000D01*
G75*
G02*
X166050000Y-119950000I50000J0D01*
G01*
X166550000Y-119950000D01*
G75*
G02*
X166600000Y-120000000I0J-50000D01*
G01*
X166600000Y-120800000D01*
G75*
G02*
X166550000Y-120850000I-50000J0D01*
G01*
G37*
G36*
G01*
X155150000Y-119050000D02*
X154650000Y-119050000D01*
G75*
G02*
X154600000Y-119000000I0J50000D01*
G01*
X154600000Y-118200000D01*
G75*
G02*
X154650000Y-118150000I50000J0D01*
G01*
X155150000Y-118150000D01*
G75*
G02*
X155200000Y-118200000I0J-50000D01*
G01*
X155200000Y-119000000D01*
G75*
G02*
X155150000Y-119050000I-50000J0D01*
G01*
G37*
G36*
G01*
X154300000Y-119050000D02*
X153900000Y-119050000D01*
G75*
G02*
X153850000Y-119000000I0J50000D01*
G01*
X153850000Y-118200000D01*
G75*
G02*
X153900000Y-118150000I50000J0D01*
G01*
X154300000Y-118150000D01*
G75*
G02*
X154350000Y-118200000I0J-50000D01*
G01*
X154350000Y-119000000D01*
G75*
G02*
X154300000Y-119050000I-50000J0D01*
G01*
G37*
G36*
G01*
X152750000Y-119050000D02*
X152250000Y-119050000D01*
G75*
G02*
X152200000Y-119000000I0J50000D01*
G01*
X152200000Y-118200000D01*
G75*
G02*
X152250000Y-118150000I50000J0D01*
G01*
X152750000Y-118150000D01*
G75*
G02*
X152800000Y-118200000I0J-50000D01*
G01*
X152800000Y-119000000D01*
G75*
G02*
X152750000Y-119050000I-50000J0D01*
G01*
G37*
G36*
G01*
X153500000Y-119050000D02*
X153100000Y-119050000D01*
G75*
G02*
X153050000Y-119000000I0J50000D01*
G01*
X153050000Y-118200000D01*
G75*
G02*
X153100000Y-118150000I50000J0D01*
G01*
X153500000Y-118150000D01*
G75*
G02*
X153550000Y-118200000I0J-50000D01*
G01*
X153550000Y-119000000D01*
G75*
G02*
X153500000Y-119050000I-50000J0D01*
G01*
G37*
G36*
G01*
X155150000Y-120850000D02*
X154650000Y-120850000D01*
G75*
G02*
X154600000Y-120800000I0J50000D01*
G01*
X154600000Y-120000000D01*
G75*
G02*
X154650000Y-119950000I50000J0D01*
G01*
X155150000Y-119950000D01*
G75*
G02*
X155200000Y-120000000I0J-50000D01*
G01*
X155200000Y-120800000D01*
G75*
G02*
X155150000Y-120850000I-50000J0D01*
G01*
G37*
G36*
G01*
X153500000Y-120850000D02*
X153100000Y-120850000D01*
G75*
G02*
X153050000Y-120800000I0J50000D01*
G01*
X153050000Y-120000000D01*
G75*
G02*
X153100000Y-119950000I50000J0D01*
G01*
X153500000Y-119950000D01*
G75*
G02*
X153550000Y-120000000I0J-50000D01*
G01*
X153550000Y-120800000D01*
G75*
G02*
X153500000Y-120850000I-50000J0D01*
G01*
G37*
G36*
G01*
X154300000Y-120850000D02*
X153900000Y-120850000D01*
G75*
G02*
X153850000Y-120800000I0J50000D01*
G01*
X153850000Y-120000000D01*
G75*
G02*
X153900000Y-119950000I50000J0D01*
G01*
X154300000Y-119950000D01*
G75*
G02*
X154350000Y-120000000I0J-50000D01*
G01*
X154350000Y-120800000D01*
G75*
G02*
X154300000Y-120850000I-50000J0D01*
G01*
G37*
G36*
G01*
X152750000Y-120850000D02*
X152250000Y-120850000D01*
G75*
G02*
X152200000Y-120800000I0J50000D01*
G01*
X152200000Y-120000000D01*
G75*
G02*
X152250000Y-119950000I50000J0D01*
G01*
X152750000Y-119950000D01*
G75*
G02*
X152800000Y-120000000I0J-50000D01*
G01*
X152800000Y-120800000D01*
G75*
G02*
X152750000Y-120850000I-50000J0D01*
G01*
G37*
G36*
G01*
X175150000Y-119050000D02*
X174650000Y-119050000D01*
G75*
G02*
X174600000Y-119000000I0J50000D01*
G01*
X174600000Y-118200000D01*
G75*
G02*
X174650000Y-118150000I50000J0D01*
G01*
X175150000Y-118150000D01*
G75*
G02*
X175200000Y-118200000I0J-50000D01*
G01*
X175200000Y-119000000D01*
G75*
G02*
X175150000Y-119050000I-50000J0D01*
G01*
G37*
G36*
G01*
X174300000Y-119050000D02*
X173900000Y-119050000D01*
G75*
G02*
X173850000Y-119000000I0J50000D01*
G01*
X173850000Y-118200000D01*
G75*
G02*
X173900000Y-118150000I50000J0D01*
G01*
X174300000Y-118150000D01*
G75*
G02*
X174350000Y-118200000I0J-50000D01*
G01*
X174350000Y-119000000D01*
G75*
G02*
X174300000Y-119050000I-50000J0D01*
G01*
G37*
G36*
G01*
X172750000Y-119050000D02*
X172250000Y-119050000D01*
G75*
G02*
X172200000Y-119000000I0J50000D01*
G01*
X172200000Y-118200000D01*
G75*
G02*
X172250000Y-118150000I50000J0D01*
G01*
X172750000Y-118150000D01*
G75*
G02*
X172800000Y-118200000I0J-50000D01*
G01*
X172800000Y-119000000D01*
G75*
G02*
X172750000Y-119050000I-50000J0D01*
G01*
G37*
G36*
G01*
X173500000Y-119050000D02*
X173100000Y-119050000D01*
G75*
G02*
X173050000Y-119000000I0J50000D01*
G01*
X173050000Y-118200000D01*
G75*
G02*
X173100000Y-118150000I50000J0D01*
G01*
X173500000Y-118150000D01*
G75*
G02*
X173550000Y-118200000I0J-50000D01*
G01*
X173550000Y-119000000D01*
G75*
G02*
X173500000Y-119050000I-50000J0D01*
G01*
G37*
G36*
G01*
X175150000Y-120850000D02*
X174650000Y-120850000D01*
G75*
G02*
X174600000Y-120800000I0J50000D01*
G01*
X174600000Y-120000000D01*
G75*
G02*
X174650000Y-119950000I50000J0D01*
G01*
X175150000Y-119950000D01*
G75*
G02*
X175200000Y-120000000I0J-50000D01*
G01*
X175200000Y-120800000D01*
G75*
G02*
X175150000Y-120850000I-50000J0D01*
G01*
G37*
G36*
G01*
X173500000Y-120850000D02*
X173100000Y-120850000D01*
G75*
G02*
X173050000Y-120800000I0J50000D01*
G01*
X173050000Y-120000000D01*
G75*
G02*
X173100000Y-119950000I50000J0D01*
G01*
X173500000Y-119950000D01*
G75*
G02*
X173550000Y-120000000I0J-50000D01*
G01*
X173550000Y-120800000D01*
G75*
G02*
X173500000Y-120850000I-50000J0D01*
G01*
G37*
G36*
G01*
X174300000Y-120850000D02*
X173900000Y-120850000D01*
G75*
G02*
X173850000Y-120800000I0J50000D01*
G01*
X173850000Y-120000000D01*
G75*
G02*
X173900000Y-119950000I50000J0D01*
G01*
X174300000Y-119950000D01*
G75*
G02*
X174350000Y-120000000I0J-50000D01*
G01*
X174350000Y-120800000D01*
G75*
G02*
X174300000Y-120850000I-50000J0D01*
G01*
G37*
G36*
G01*
X172750000Y-120850000D02*
X172250000Y-120850000D01*
G75*
G02*
X172200000Y-120800000I0J50000D01*
G01*
X172200000Y-120000000D01*
G75*
G02*
X172250000Y-119950000I50000J0D01*
G01*
X172750000Y-119950000D01*
G75*
G02*
X172800000Y-120000000I0J-50000D01*
G01*
X172800000Y-120800000D01*
G75*
G02*
X172750000Y-120850000I-50000J0D01*
G01*
G37*
G36*
G01*
X160150000Y-76450000D02*
X160150000Y-76950000D01*
G75*
G02*
X160100000Y-77000000I-50000J0D01*
G01*
X159300000Y-77000000D01*
G75*
G02*
X159250000Y-76950000I0J50000D01*
G01*
X159250000Y-76450000D01*
G75*
G02*
X159300000Y-76400000I50000J0D01*
G01*
X160100000Y-76400000D01*
G75*
G02*
X160150000Y-76450000I0J-50000D01*
G01*
G37*
G36*
G01*
X160150000Y-77300000D02*
X160150000Y-77700000D01*
G75*
G02*
X160100000Y-77750000I-50000J0D01*
G01*
X159300000Y-77750000D01*
G75*
G02*
X159250000Y-77700000I0J50000D01*
G01*
X159250000Y-77300000D01*
G75*
G02*
X159300000Y-77250000I50000J0D01*
G01*
X160100000Y-77250000D01*
G75*
G02*
X160150000Y-77300000I0J-50000D01*
G01*
G37*
G36*
G01*
X160150000Y-78850000D02*
X160150000Y-79350000D01*
G75*
G02*
X160100000Y-79400000I-50000J0D01*
G01*
X159300000Y-79400000D01*
G75*
G02*
X159250000Y-79350000I0J50000D01*
G01*
X159250000Y-78850000D01*
G75*
G02*
X159300000Y-78800000I50000J0D01*
G01*
X160100000Y-78800000D01*
G75*
G02*
X160150000Y-78850000I0J-50000D01*
G01*
G37*
G36*
G01*
X160150000Y-78100000D02*
X160150000Y-78500000D01*
G75*
G02*
X160100000Y-78550000I-50000J0D01*
G01*
X159300000Y-78550000D01*
G75*
G02*
X159250000Y-78500000I0J50000D01*
G01*
X159250000Y-78100000D01*
G75*
G02*
X159300000Y-78050000I50000J0D01*
G01*
X160100000Y-78050000D01*
G75*
G02*
X160150000Y-78100000I0J-50000D01*
G01*
G37*
G36*
G01*
X161950000Y-76450000D02*
X161950000Y-76950000D01*
G75*
G02*
X161900000Y-77000000I-50000J0D01*
G01*
X161100000Y-77000000D01*
G75*
G02*
X161050000Y-76950000I0J50000D01*
G01*
X161050000Y-76450000D01*
G75*
G02*
X161100000Y-76400000I50000J0D01*
G01*
X161900000Y-76400000D01*
G75*
G02*
X161950000Y-76450000I0J-50000D01*
G01*
G37*
G36*
G01*
X161950000Y-78100000D02*
X161950000Y-78500000D01*
G75*
G02*
X161900000Y-78550000I-50000J0D01*
G01*
X161100000Y-78550000D01*
G75*
G02*
X161050000Y-78500000I0J50000D01*
G01*
X161050000Y-78100000D01*
G75*
G02*
X161100000Y-78050000I50000J0D01*
G01*
X161900000Y-78050000D01*
G75*
G02*
X161950000Y-78100000I0J-50000D01*
G01*
G37*
G36*
G01*
X161950000Y-77300000D02*
X161950000Y-77700000D01*
G75*
G02*
X161900000Y-77750000I-50000J0D01*
G01*
X161100000Y-77750000D01*
G75*
G02*
X161050000Y-77700000I0J50000D01*
G01*
X161050000Y-77300000D01*
G75*
G02*
X161100000Y-77250000I50000J0D01*
G01*
X161900000Y-77250000D01*
G75*
G02*
X161950000Y-77300000I0J-50000D01*
G01*
G37*
G36*
G01*
X161950000Y-78850000D02*
X161950000Y-79350000D01*
G75*
G02*
X161900000Y-79400000I-50000J0D01*
G01*
X161100000Y-79400000D01*
G75*
G02*
X161050000Y-79350000I0J50000D01*
G01*
X161050000Y-78850000D01*
G75*
G02*
X161100000Y-78800000I50000J0D01*
G01*
X161900000Y-78800000D01*
G75*
G02*
X161950000Y-78850000I0J-50000D01*
G01*
G37*
D13*
X102150000Y-95220000D03*
D14*
X105800000Y-93790000D03*
D13*
X102150000Y-86580000D03*
D14*
X105800000Y-88010000D03*
D15*
X106330000Y-86580000D03*
X106330000Y-95220000D03*
G36*
G01*
X106570000Y-90450000D02*
X107920000Y-90450000D01*
G75*
G02*
X108020000Y-90550000I0J-100000D01*
G01*
X108020000Y-90750000D01*
G75*
G02*
X107920000Y-90850000I-100000J0D01*
G01*
X106570000Y-90850000D01*
G75*
G02*
X106470000Y-90750000I0J100000D01*
G01*
X106470000Y-90550000D01*
G75*
G02*
X106570000Y-90450000I100000J0D01*
G01*
G37*
G36*
G01*
X106570000Y-92450000D02*
X107920000Y-92450000D01*
G75*
G02*
X108020000Y-92550000I0J-100000D01*
G01*
X108020000Y-92750000D01*
G75*
G02*
X107920000Y-92850000I-100000J0D01*
G01*
X106570000Y-92850000D01*
G75*
G02*
X106470000Y-92750000I0J100000D01*
G01*
X106470000Y-92550000D01*
G75*
G02*
X106570000Y-92450000I100000J0D01*
G01*
G37*
G36*
G01*
X106570000Y-91950000D02*
X107920000Y-91950000D01*
G75*
G02*
X108020000Y-92050000I0J-100000D01*
G01*
X108020000Y-92250000D01*
G75*
G02*
X107920000Y-92350000I-100000J0D01*
G01*
X106570000Y-92350000D01*
G75*
G02*
X106470000Y-92250000I0J100000D01*
G01*
X106470000Y-92050000D01*
G75*
G02*
X106570000Y-91950000I100000J0D01*
G01*
G37*
G36*
G01*
X106570000Y-91450000D02*
X107920000Y-91450000D01*
G75*
G02*
X108020000Y-91550000I0J-100000D01*
G01*
X108020000Y-91750000D01*
G75*
G02*
X107920000Y-91850000I-100000J0D01*
G01*
X106570000Y-91850000D01*
G75*
G02*
X106470000Y-91750000I0J100000D01*
G01*
X106470000Y-91550000D01*
G75*
G02*
X106570000Y-91450000I100000J0D01*
G01*
G37*
G36*
G01*
X106570000Y-90950000D02*
X107920000Y-90950000D01*
G75*
G02*
X108020000Y-91050000I0J-100000D01*
G01*
X108020000Y-91250000D01*
G75*
G02*
X107920000Y-91350000I-100000J0D01*
G01*
X106570000Y-91350000D01*
G75*
G02*
X106470000Y-91250000I0J100000D01*
G01*
X106470000Y-91050000D01*
G75*
G02*
X106570000Y-90950000I100000J0D01*
G01*
G37*
G36*
G01*
X106570000Y-89950000D02*
X107920000Y-89950000D01*
G75*
G02*
X108020000Y-90050000I0J-100000D01*
G01*
X108020000Y-90250000D01*
G75*
G02*
X107920000Y-90350000I-100000J0D01*
G01*
X106570000Y-90350000D01*
G75*
G02*
X106470000Y-90250000I0J100000D01*
G01*
X106470000Y-90050000D01*
G75*
G02*
X106570000Y-89950000I100000J0D01*
G01*
G37*
G36*
G01*
X106570000Y-89450000D02*
X107920000Y-89450000D01*
G75*
G02*
X108020000Y-89550000I0J-100000D01*
G01*
X108020000Y-89750000D01*
G75*
G02*
X107920000Y-89850000I-100000J0D01*
G01*
X106570000Y-89850000D01*
G75*
G02*
X106470000Y-89750000I0J100000D01*
G01*
X106470000Y-89550000D01*
G75*
G02*
X106570000Y-89450000I100000J0D01*
G01*
G37*
G36*
G01*
X106570000Y-88950000D02*
X107920000Y-88950000D01*
G75*
G02*
X108020000Y-89050000I0J-100000D01*
G01*
X108020000Y-89250000D01*
G75*
G02*
X107920000Y-89350000I-100000J0D01*
G01*
X106570000Y-89350000D01*
G75*
G02*
X106470000Y-89250000I0J100000D01*
G01*
X106470000Y-89050000D01*
G75*
G02*
X106570000Y-88950000I100000J0D01*
G01*
G37*
G36*
G01*
X106645000Y-93800000D02*
X107845000Y-93800000D01*
G75*
G02*
X108020000Y-93975000I0J-175000D01*
G01*
X108020000Y-94325000D01*
G75*
G02*
X107845000Y-94500000I-175000J0D01*
G01*
X106645000Y-94500000D01*
G75*
G02*
X106470000Y-94325000I0J175000D01*
G01*
X106470000Y-93975000D01*
G75*
G02*
X106645000Y-93800000I175000J0D01*
G01*
G37*
G36*
G01*
X106645000Y-93000000D02*
X107845000Y-93000000D01*
G75*
G02*
X108020000Y-93175000I0J-175000D01*
G01*
X108020000Y-93525000D01*
G75*
G02*
X107845000Y-93700000I-175000J0D01*
G01*
X106645000Y-93700000D01*
G75*
G02*
X106470000Y-93525000I0J175000D01*
G01*
X106470000Y-93175000D01*
G75*
G02*
X106645000Y-93000000I175000J0D01*
G01*
G37*
G36*
G01*
X106645000Y-88100000D02*
X107845000Y-88100000D01*
G75*
G02*
X108020000Y-88275000I0J-175000D01*
G01*
X108020000Y-88625000D01*
G75*
G02*
X107845000Y-88800000I-175000J0D01*
G01*
X106645000Y-88800000D01*
G75*
G02*
X106470000Y-88625000I0J175000D01*
G01*
X106470000Y-88275000D01*
G75*
G02*
X106645000Y-88100000I175000J0D01*
G01*
G37*
G36*
G01*
X106645000Y-87300000D02*
X107845000Y-87300000D01*
G75*
G02*
X108020000Y-87475000I0J-175000D01*
G01*
X108020000Y-87825000D01*
G75*
G02*
X107845000Y-88000000I-175000J0D01*
G01*
X106645000Y-88000000D01*
G75*
G02*
X106470000Y-87825000I0J175000D01*
G01*
X106470000Y-87475000D01*
G75*
G02*
X106645000Y-87300000I175000J0D01*
G01*
G37*
G36*
G01*
X106645000Y-87300000D02*
X107845000Y-87300000D01*
G75*
G02*
X108020000Y-87475000I0J-175000D01*
G01*
X108020000Y-87825000D01*
G75*
G02*
X107845000Y-88000000I-175000J0D01*
G01*
X106645000Y-88000000D01*
G75*
G02*
X106470000Y-87825000I0J175000D01*
G01*
X106470000Y-87475000D01*
G75*
G02*
X106645000Y-87300000I175000J0D01*
G01*
G37*
G36*
G01*
X106645000Y-88100000D02*
X107845000Y-88100000D01*
G75*
G02*
X108020000Y-88275000I0J-175000D01*
G01*
X108020000Y-88625000D01*
G75*
G02*
X107845000Y-88800000I-175000J0D01*
G01*
X106645000Y-88800000D01*
G75*
G02*
X106470000Y-88625000I0J175000D01*
G01*
X106470000Y-88275000D01*
G75*
G02*
X106645000Y-88100000I175000J0D01*
G01*
G37*
G36*
G01*
X106645000Y-93000000D02*
X107845000Y-93000000D01*
G75*
G02*
X108020000Y-93175000I0J-175000D01*
G01*
X108020000Y-93525000D01*
G75*
G02*
X107845000Y-93700000I-175000J0D01*
G01*
X106645000Y-93700000D01*
G75*
G02*
X106470000Y-93525000I0J175000D01*
G01*
X106470000Y-93175000D01*
G75*
G02*
X106645000Y-93000000I175000J0D01*
G01*
G37*
G36*
G01*
X106645000Y-93800000D02*
X107845000Y-93800000D01*
G75*
G02*
X108020000Y-93975000I0J-175000D01*
G01*
X108020000Y-94325000D01*
G75*
G02*
X107845000Y-94500000I-175000J0D01*
G01*
X106645000Y-94500000D01*
G75*
G02*
X106470000Y-94325000I0J175000D01*
G01*
X106470000Y-93975000D01*
G75*
G02*
X106645000Y-93800000I175000J0D01*
G01*
G37*
G36*
G01*
X173750000Y-85325000D02*
X173750000Y-86675000D01*
G75*
G02*
X173700000Y-86725000I-50000J0D01*
G01*
X171800000Y-86725000D01*
G75*
G02*
X171750000Y-86675000I0J50000D01*
G01*
X171750000Y-85325000D01*
G75*
G02*
X171800000Y-85275000I50000J0D01*
G01*
X173700000Y-85275000D01*
G75*
G02*
X173750000Y-85325000I0J-50000D01*
G01*
G37*
G36*
G01*
X167850000Y-85325000D02*
X167850000Y-86675000D01*
G75*
G02*
X167800000Y-86725000I-50000J0D01*
G01*
X165900000Y-86725000D01*
G75*
G02*
X165850000Y-86675000I0J50000D01*
G01*
X165850000Y-85325000D01*
G75*
G02*
X165900000Y-85275000I50000J0D01*
G01*
X167800000Y-85275000D01*
G75*
G02*
X167850000Y-85325000I0J-50000D01*
G01*
G37*
G36*
G01*
X164000000Y-84500000D02*
X164000000Y-85500000D01*
G75*
G02*
X163950000Y-85550000I-50000J0D01*
G01*
X162750000Y-85550000D01*
G75*
G02*
X162700000Y-85500000I0J50000D01*
G01*
X162700000Y-84500000D01*
G75*
G02*
X162750000Y-84450000I50000J0D01*
G01*
X163950000Y-84450000D01*
G75*
G02*
X164000000Y-84500000I0J-50000D01*
G01*
G37*
G36*
G01*
X164000000Y-80800000D02*
X164000000Y-81800000D01*
G75*
G02*
X163950000Y-81850000I-50000J0D01*
G01*
X162750000Y-81850000D01*
G75*
G02*
X162700000Y-81800000I0J50000D01*
G01*
X162700000Y-80800000D01*
G75*
G02*
X162750000Y-80750000I50000J0D01*
G01*
X163950000Y-80750000D01*
G75*
G02*
X164000000Y-80800000I0J-50000D01*
G01*
G37*
G36*
G01*
X164375000Y-74525000D02*
X164375000Y-75875000D01*
G75*
G02*
X164325000Y-75925000I-50000J0D01*
G01*
X162775000Y-75925000D01*
G75*
G02*
X162725000Y-75875000I0J50000D01*
G01*
X162725000Y-74525000D01*
G75*
G02*
X162775000Y-74475000I50000J0D01*
G01*
X164325000Y-74475000D01*
G75*
G02*
X164375000Y-74525000I0J-50000D01*
G01*
G37*
G36*
G01*
X175485000Y-74550000D02*
X175485000Y-76350000D01*
G75*
G02*
X175435000Y-76400000I-50000J0D01*
G01*
X174265000Y-76400000D01*
G75*
G02*
X174215000Y-76350000I0J50000D01*
G01*
X174215000Y-74550000D01*
G75*
G02*
X174265000Y-74500000I50000J0D01*
G01*
X175435000Y-74500000D01*
G75*
G02*
X175485000Y-74550000I0J-50000D01*
G01*
G37*
G36*
G01*
X174070000Y-74550000D02*
X174070000Y-75650000D01*
G75*
G02*
X174020000Y-75700000I-50000J0D01*
G01*
X173270000Y-75700000D01*
G75*
G02*
X173220000Y-75650000I0J50000D01*
G01*
X173220000Y-74550000D01*
G75*
G02*
X173270000Y-74500000I50000J0D01*
G01*
X174020000Y-74500000D01*
G75*
G02*
X174070000Y-74550000I0J-50000D01*
G01*
G37*
G36*
G01*
X172970000Y-74550000D02*
X172970000Y-75650000D01*
G75*
G02*
X172920000Y-75700000I-50000J0D01*
G01*
X172170000Y-75700000D01*
G75*
G02*
X172120000Y-75650000I0J50000D01*
G01*
X172120000Y-74550000D01*
G75*
G02*
X172170000Y-74500000I50000J0D01*
G01*
X172920000Y-74500000D01*
G75*
G02*
X172970000Y-74550000I0J-50000D01*
G01*
G37*
G36*
G01*
X171870000Y-74550000D02*
X171870000Y-75650000D01*
G75*
G02*
X171820000Y-75700000I-50000J0D01*
G01*
X171070000Y-75700000D01*
G75*
G02*
X171020000Y-75650000I0J50000D01*
G01*
X171020000Y-74550000D01*
G75*
G02*
X171070000Y-74500000I50000J0D01*
G01*
X171820000Y-74500000D01*
G75*
G02*
X171870000Y-74550000I0J-50000D01*
G01*
G37*
G36*
G01*
X170770000Y-74550000D02*
X170770000Y-75650000D01*
G75*
G02*
X170720000Y-75700000I-50000J0D01*
G01*
X169970000Y-75700000D01*
G75*
G02*
X169920000Y-75650000I0J50000D01*
G01*
X169920000Y-74550000D01*
G75*
G02*
X169970000Y-74500000I50000J0D01*
G01*
X170720000Y-74500000D01*
G75*
G02*
X170770000Y-74550000I0J-50000D01*
G01*
G37*
G36*
G01*
X169670000Y-74550000D02*
X169670000Y-75650000D01*
G75*
G02*
X169620000Y-75700000I-50000J0D01*
G01*
X168870000Y-75700000D01*
G75*
G02*
X168820000Y-75650000I0J50000D01*
G01*
X168820000Y-74550000D01*
G75*
G02*
X168870000Y-74500000I50000J0D01*
G01*
X169620000Y-74500000D01*
G75*
G02*
X169670000Y-74550000I0J-50000D01*
G01*
G37*
G36*
G01*
X168570000Y-74550000D02*
X168570000Y-75650000D01*
G75*
G02*
X168520000Y-75700000I-50000J0D01*
G01*
X167770000Y-75700000D01*
G75*
G02*
X167720000Y-75650000I0J50000D01*
G01*
X167720000Y-74550000D01*
G75*
G02*
X167770000Y-74500000I50000J0D01*
G01*
X168520000Y-74500000D01*
G75*
G02*
X168570000Y-74550000I0J-50000D01*
G01*
G37*
G36*
G01*
X167470000Y-74550000D02*
X167470000Y-75650000D01*
G75*
G02*
X167420000Y-75700000I-50000J0D01*
G01*
X166670000Y-75700000D01*
G75*
G02*
X166620000Y-75650000I0J50000D01*
G01*
X166620000Y-74550000D01*
G75*
G02*
X166670000Y-74500000I50000J0D01*
G01*
X167420000Y-74500000D01*
G75*
G02*
X167470000Y-74550000I0J-50000D01*
G01*
G37*
G36*
G01*
X166370000Y-74550000D02*
X166370000Y-75650000D01*
G75*
G02*
X166320000Y-75700000I-50000J0D01*
G01*
X165570000Y-75700000D01*
G75*
G02*
X165520000Y-75650000I0J50000D01*
G01*
X165520000Y-74550000D01*
G75*
G02*
X165570000Y-74500000I50000J0D01*
G01*
X166320000Y-74500000D01*
G75*
G02*
X166370000Y-74550000I0J-50000D01*
G01*
G37*
D16*
X144000000Y-94200000D03*
X144000000Y-95000000D03*
X144000000Y-95800000D03*
X144000000Y-96600000D03*
X144000000Y-97400000D03*
X144000000Y-98200000D03*
X144000000Y-99000000D03*
X144000000Y-99800000D03*
X144000000Y-100600000D03*
X144000000Y-101400000D03*
X144000000Y-102200000D03*
X144000000Y-103000000D03*
X144000000Y-103800000D03*
X144000000Y-104600000D03*
X144000000Y-105400000D03*
X144000000Y-106200000D03*
X144800000Y-94200000D03*
X144800000Y-95000000D03*
X144800000Y-95800000D03*
X144800000Y-96600000D03*
X144800000Y-97400000D03*
X144800000Y-98200000D03*
X144800000Y-99000000D03*
X144800000Y-99800000D03*
X144800000Y-100600000D03*
X144800000Y-101400000D03*
X144800000Y-102200000D03*
X144800000Y-103000000D03*
X144800000Y-103800000D03*
X144800000Y-104600000D03*
X144800000Y-105400000D03*
X144800000Y-106200000D03*
X145600000Y-94200000D03*
X145600000Y-95000000D03*
X145600000Y-95800000D03*
X145600000Y-96600000D03*
X145600000Y-97400000D03*
X145600000Y-98200000D03*
X145600000Y-99000000D03*
X145600000Y-99800000D03*
X145600000Y-100600000D03*
X145600000Y-101400000D03*
X145600000Y-102200000D03*
X145600000Y-103000000D03*
X145600000Y-103800000D03*
X145600000Y-104600000D03*
X145600000Y-105400000D03*
X145600000Y-106200000D03*
X146400000Y-94200000D03*
X146400000Y-95000000D03*
X146400000Y-95800000D03*
X146400000Y-96600000D03*
X146400000Y-97400000D03*
X146400000Y-98200000D03*
X146400000Y-99000000D03*
X146400000Y-99800000D03*
X146400000Y-100600000D03*
X146400000Y-101400000D03*
X146400000Y-102200000D03*
X146400000Y-103000000D03*
X146400000Y-103800000D03*
X146400000Y-104600000D03*
X146400000Y-105400000D03*
X146400000Y-106200000D03*
X147200000Y-94200000D03*
X147200000Y-95000000D03*
X147200000Y-95800000D03*
X147200000Y-96600000D03*
X147200000Y-97400000D03*
X147200000Y-98200000D03*
X147200000Y-99000000D03*
X147200000Y-99800000D03*
X147200000Y-100600000D03*
X147200000Y-101400000D03*
X147200000Y-102200000D03*
X147200000Y-103000000D03*
X147200000Y-103800000D03*
X147200000Y-104600000D03*
X147200000Y-105400000D03*
X147200000Y-106200000D03*
X148000000Y-94200000D03*
X148000000Y-95000000D03*
X148000000Y-95800000D03*
X148000000Y-96600000D03*
X148000000Y-97400000D03*
X148000000Y-98200000D03*
X148000000Y-99000000D03*
X148000000Y-99800000D03*
X148000000Y-100600000D03*
X148000000Y-101400000D03*
X148000000Y-102200000D03*
X148000000Y-103000000D03*
X148000000Y-103800000D03*
X148000000Y-104600000D03*
X148000000Y-105400000D03*
X148000000Y-106200000D03*
X148800000Y-94200000D03*
X148800000Y-95000000D03*
X148800000Y-95800000D03*
X148800000Y-96600000D03*
X148800000Y-97400000D03*
X148800000Y-98200000D03*
X148800000Y-99000000D03*
X148800000Y-99800000D03*
X148800000Y-100600000D03*
X148800000Y-101400000D03*
X148800000Y-102200000D03*
X148800000Y-103000000D03*
X148800000Y-103800000D03*
X148800000Y-104600000D03*
X148800000Y-105400000D03*
X148800000Y-106200000D03*
X149600000Y-94200000D03*
X149600000Y-95000000D03*
X149600000Y-95800000D03*
X149600000Y-96600000D03*
X149600000Y-97400000D03*
X149600000Y-98200000D03*
X149600000Y-99000000D03*
X149600000Y-99800000D03*
X149600000Y-100600000D03*
X149600000Y-101400000D03*
X149600000Y-102200000D03*
X149600000Y-103000000D03*
X149600000Y-103800000D03*
X149600000Y-104600000D03*
X149600000Y-105400000D03*
X149600000Y-106200000D03*
X150400000Y-94200000D03*
X150400000Y-95000000D03*
X150400000Y-95800000D03*
X150400000Y-96600000D03*
X150400000Y-97400000D03*
X150400000Y-98200000D03*
X150400000Y-99000000D03*
X150400000Y-99800000D03*
X150400000Y-100600000D03*
X150400000Y-101400000D03*
X150400000Y-102200000D03*
X150400000Y-103000000D03*
X150400000Y-103800000D03*
X150400000Y-104600000D03*
X150400000Y-105400000D03*
X150400000Y-106200000D03*
X151200000Y-94200000D03*
X151200000Y-95000000D03*
X151200000Y-95800000D03*
X151200000Y-96600000D03*
X151200000Y-97400000D03*
X151200000Y-98200000D03*
X151200000Y-99000000D03*
X151200000Y-99800000D03*
X151200000Y-100600000D03*
X151200000Y-101400000D03*
X151200000Y-102200000D03*
X151200000Y-103000000D03*
X151200000Y-103800000D03*
X151200000Y-104600000D03*
X151200000Y-105400000D03*
X151200000Y-106200000D03*
X152000000Y-94200000D03*
X152000000Y-95000000D03*
X152000000Y-95800000D03*
X152000000Y-96600000D03*
X152000000Y-97400000D03*
X152000000Y-98200000D03*
X152000000Y-99000000D03*
X152000000Y-99800000D03*
X152000000Y-100600000D03*
X152000000Y-101400000D03*
X152000000Y-102200000D03*
X152000000Y-103000000D03*
X152000000Y-103800000D03*
X152000000Y-104600000D03*
X152000000Y-105400000D03*
X152000000Y-106200000D03*
X152800000Y-94200000D03*
X152800000Y-95000000D03*
X152800000Y-95800000D03*
X152800000Y-96600000D03*
X152800000Y-97400000D03*
X152800000Y-98200000D03*
X152800000Y-99000000D03*
X152800000Y-99800000D03*
X152800000Y-100600000D03*
X152800000Y-101400000D03*
X152800000Y-102200000D03*
X152800000Y-103000000D03*
X152800000Y-103800000D03*
X152800000Y-104600000D03*
X152800000Y-105400000D03*
X152800000Y-106200000D03*
X153600000Y-94200000D03*
X153600000Y-95000000D03*
X153600000Y-95800000D03*
X153600000Y-96600000D03*
X153600000Y-97400000D03*
X153600000Y-98200000D03*
X153600000Y-99000000D03*
X153600000Y-99800000D03*
X153600000Y-100600000D03*
X153600000Y-101400000D03*
X153600000Y-102200000D03*
X153600000Y-103000000D03*
X153600000Y-103800000D03*
X153600000Y-104600000D03*
X153600000Y-105400000D03*
X153600000Y-106200000D03*
X154400000Y-94200000D03*
X154400000Y-95000000D03*
X154400000Y-95800000D03*
X154400000Y-96600000D03*
X154400000Y-97400000D03*
X154400000Y-98200000D03*
X154400000Y-99000000D03*
X154400000Y-99800000D03*
X154400000Y-100600000D03*
X154400000Y-101400000D03*
X154400000Y-102200000D03*
X154400000Y-103000000D03*
X154400000Y-103800000D03*
X154400000Y-104600000D03*
X154400000Y-105400000D03*
X154400000Y-106200000D03*
X155200000Y-94200000D03*
X155200000Y-95000000D03*
X155200000Y-95800000D03*
X155200000Y-96600000D03*
X155200000Y-97400000D03*
X155200000Y-98200000D03*
X155200000Y-99000000D03*
X155200000Y-99800000D03*
X155200000Y-100600000D03*
X155200000Y-101400000D03*
X155200000Y-102200000D03*
X155200000Y-103000000D03*
X155200000Y-103800000D03*
X155200000Y-104600000D03*
X155200000Y-105400000D03*
X155200000Y-106200000D03*
X156000000Y-94200000D03*
X156000000Y-95000000D03*
X156000000Y-95800000D03*
X156000000Y-96600000D03*
X156000000Y-97400000D03*
X156000000Y-98200000D03*
X156000000Y-99000000D03*
X156000000Y-99800000D03*
X156000000Y-100600000D03*
X156000000Y-101400000D03*
X156000000Y-102200000D03*
X156000000Y-103000000D03*
X156000000Y-103800000D03*
X156000000Y-104600000D03*
X156000000Y-105400000D03*
X156000000Y-106200000D03*
D17*
X197400000Y-126600000D03*
X102600000Y-126600000D03*
D18*
X199950000Y-129950000D02*
X193800000Y-129950000D01*
X193800000Y-123550000D01*
X199950000Y-123550000D01*
X199950000Y-129950000D01*
G36*
X199950000Y-129950000D02*
G01*
X193800000Y-129950000D01*
X193800000Y-123550000D01*
X199950000Y-123550000D01*
X199950000Y-129950000D01*
G37*
X182200000Y-133296576D02*
X182173880Y-133382683D01*
X182081470Y-133555570D01*
X181957107Y-133707107D01*
X181805570Y-133831470D01*
X181632683Y-133923880D01*
X181546576Y-133950000D01*
X118453424Y-133950000D01*
X118367317Y-133923880D01*
X118194430Y-133831470D01*
X118042893Y-133707107D01*
X117918530Y-133555570D01*
X117826120Y-133382683D01*
X117800000Y-133296576D01*
X117800000Y-127050000D01*
X182200000Y-127050000D01*
X182200000Y-133296576D01*
G36*
X182200000Y-133296576D02*
G01*
X182173880Y-133382683D01*
X182081470Y-133555570D01*
X181957107Y-133707107D01*
X181805570Y-133831470D01*
X181632683Y-133923880D01*
X181546576Y-133950000D01*
X118453424Y-133950000D01*
X118367317Y-133923880D01*
X118194430Y-133831470D01*
X118042893Y-133707107D01*
X117918530Y-133555570D01*
X117826120Y-133382683D01*
X117800000Y-133296576D01*
X117800000Y-127050000D01*
X182200000Y-127050000D01*
X182200000Y-133296576D01*
G37*
X106200000Y-129950000D02*
X100050000Y-129950000D01*
X100050000Y-123550000D01*
X106200000Y-123550000D01*
X106200000Y-129950000D01*
G36*
X106200000Y-129950000D02*
G01*
X100050000Y-129950000D01*
X100050000Y-123550000D01*
X106200000Y-123550000D01*
X106200000Y-129950000D01*
G37*
X103450000Y-117950000D02*
X100050000Y-117950000D01*
X100050000Y-112050000D01*
X103450000Y-112050000D01*
X103450000Y-117950000D01*
G36*
X103450000Y-117950000D02*
G01*
X100050000Y-117950000D01*
X100050000Y-112050000D01*
X103450000Y-112050000D01*
X103450000Y-117950000D01*
G37*
X103450000Y-109980691D02*
X100050000Y-109980691D01*
X100050000Y-104080691D01*
X103450000Y-104080691D01*
X103450000Y-109980691D01*
G36*
X103450000Y-109980691D02*
G01*
X100050000Y-109980691D01*
X100050000Y-104080691D01*
X103450000Y-104080691D01*
X103450000Y-109980691D01*
G37*
X199950000Y-117950000D02*
X196550000Y-117950000D01*
X196550000Y-112050000D01*
X199950000Y-112050000D01*
X199950000Y-117950000D01*
G36*
X199950000Y-117950000D02*
G01*
X196550000Y-117950000D01*
X196550000Y-112050000D01*
X199950000Y-112050000D01*
X199950000Y-117950000D01*
G37*
X199950000Y-109980691D02*
X196550000Y-109980691D01*
X196550000Y-104080691D01*
X199950000Y-104080691D01*
X199950000Y-109980691D01*
G36*
X199950000Y-109980691D02*
G01*
X196550000Y-109980691D01*
X196550000Y-104080691D01*
X199950000Y-104080691D01*
X199950000Y-109980691D01*
G37*
M02*
