G04 #@! TF.GenerationSoftware,KiCad,Pcbnew,(5.1.9-0-10_14)*
G04 #@! TF.CreationDate,2021-01-29T20:41:04-08:00*
G04 #@! TF.ProjectId,cart-ecp5,63617274-2d65-4637-9035-2e6b69636164,rev?*
G04 #@! TF.SameCoordinates,Original*
G04 #@! TF.FileFunction,Copper,L4,Bot*
G04 #@! TF.FilePolarity,Positive*
%FSLAX46Y46*%
G04 Gerber Fmt 4.6, Leading zero omitted, Abs format (unit mm)*
G04 Created by KiCad (PCBNEW (5.1.9-0-10_14)) date 2021-01-29 20:41:04*
%MOMM*%
%LPD*%
G01*
G04 APERTURE LIST*
G04 #@! TA.AperFunction,ComponentPad*
%ADD10O,1.700000X1.700000*%
G04 #@! TD*
G04 #@! TA.AperFunction,ComponentPad*
%ADD11R,1.700000X1.700000*%
G04 #@! TD*
G04 #@! TA.AperFunction,ComponentPad*
%ADD12O,1.600000X1.000000*%
G04 #@! TD*
G04 #@! TA.AperFunction,ComponentPad*
%ADD13O,2.100000X1.000000*%
G04 #@! TD*
G04 #@! TA.AperFunction,SMDPad,CuDef*
%ADD14R,1.500000X7.000000*%
G04 #@! TD*
G04 #@! TA.AperFunction,ComponentPad*
%ADD15C,2.500000*%
G04 #@! TD*
G04 #@! TA.AperFunction,ViaPad*
%ADD16C,0.450000*%
G04 #@! TD*
G04 #@! TA.AperFunction,ViaPad*
%ADD17C,0.600000*%
G04 #@! TD*
G04 #@! TA.AperFunction,Conductor*
%ADD18C,0.300000*%
G04 #@! TD*
G04 #@! TA.AperFunction,Conductor*
%ADD19C,0.150000*%
G04 #@! TD*
G04 #@! TA.AperFunction,Conductor*
%ADD20C,0.140000*%
G04 #@! TD*
G04 #@! TA.AperFunction,Conductor*
%ADD21C,0.254000*%
G04 #@! TD*
G04 #@! TA.AperFunction,Conductor*
%ADD22C,0.100000*%
G04 #@! TD*
G04 APERTURE END LIST*
D10*
X183025000Y-82610000D03*
X183025000Y-85150000D03*
X185565000Y-82610000D03*
X185565000Y-85150000D03*
X188105000Y-82610000D03*
X188105000Y-85150000D03*
X190645000Y-82610000D03*
X190645000Y-85150000D03*
X193185000Y-82610000D03*
X193185000Y-85150000D03*
X195725000Y-82610000D03*
D11*
X195725000Y-85150000D03*
G04 #@! TA.AperFunction,SMDPad,CuDef*
G36*
G01*
X164105000Y-101800000D02*
X164445000Y-101800000D01*
G75*
G02*
X164585000Y-101940000I0J-140000D01*
G01*
X164585000Y-102220000D01*
G75*
G02*
X164445000Y-102360000I-140000J0D01*
G01*
X164105000Y-102360000D01*
G75*
G02*
X163965000Y-102220000I0J140000D01*
G01*
X163965000Y-101940000D01*
G75*
G02*
X164105000Y-101800000I140000J0D01*
G01*
G37*
G04 #@! TD.AperFunction*
G04 #@! TA.AperFunction,SMDPad,CuDef*
G36*
G01*
X164105000Y-100840000D02*
X164445000Y-100840000D01*
G75*
G02*
X164585000Y-100980000I0J-140000D01*
G01*
X164585000Y-101260000D01*
G75*
G02*
X164445000Y-101400000I-140000J0D01*
G01*
X164105000Y-101400000D01*
G75*
G02*
X163965000Y-101260000I0J140000D01*
G01*
X163965000Y-100980000D01*
G75*
G02*
X164105000Y-100840000I140000J0D01*
G01*
G37*
G04 #@! TD.AperFunction*
G04 #@! TA.AperFunction,SMDPad,CuDef*
G36*
G01*
X165055000Y-105300000D02*
X165395000Y-105300000D01*
G75*
G02*
X165535000Y-105440000I0J-140000D01*
G01*
X165535000Y-105720000D01*
G75*
G02*
X165395000Y-105860000I-140000J0D01*
G01*
X165055000Y-105860000D01*
G75*
G02*
X164915000Y-105720000I0J140000D01*
G01*
X164915000Y-105440000D01*
G75*
G02*
X165055000Y-105300000I140000J0D01*
G01*
G37*
G04 #@! TD.AperFunction*
G04 #@! TA.AperFunction,SMDPad,CuDef*
G36*
G01*
X165055000Y-104340000D02*
X165395000Y-104340000D01*
G75*
G02*
X165535000Y-104480000I0J-140000D01*
G01*
X165535000Y-104760000D01*
G75*
G02*
X165395000Y-104900000I-140000J0D01*
G01*
X165055000Y-104900000D01*
G75*
G02*
X164915000Y-104760000I0J140000D01*
G01*
X164915000Y-104480000D01*
G75*
G02*
X165055000Y-104340000I140000J0D01*
G01*
G37*
G04 #@! TD.AperFunction*
D10*
X145890000Y-78225000D03*
D11*
X143350000Y-78225000D03*
G04 #@! TA.AperFunction,SMDPad,CuDef*
G36*
G01*
X165052500Y-101790000D02*
X165397500Y-101790000D01*
G75*
G02*
X165545000Y-101937500I0J-147500D01*
G01*
X165545000Y-102232500D01*
G75*
G02*
X165397500Y-102380000I-147500J0D01*
G01*
X165052500Y-102380000D01*
G75*
G02*
X164905000Y-102232500I0J147500D01*
G01*
X164905000Y-101937500D01*
G75*
G02*
X165052500Y-101790000I147500J0D01*
G01*
G37*
G04 #@! TD.AperFunction*
G04 #@! TA.AperFunction,SMDPad,CuDef*
G36*
G01*
X165052500Y-100820000D02*
X165397500Y-100820000D01*
G75*
G02*
X165545000Y-100967500I0J-147500D01*
G01*
X165545000Y-101262500D01*
G75*
G02*
X165397500Y-101410000I-147500J0D01*
G01*
X165052500Y-101410000D01*
G75*
G02*
X164905000Y-101262500I0J147500D01*
G01*
X164905000Y-100967500D01*
G75*
G02*
X165052500Y-100820000I147500J0D01*
G01*
G37*
G04 #@! TD.AperFunction*
G04 #@! TA.AperFunction,SMDPad,CuDef*
G36*
G01*
X167547500Y-104410000D02*
X167202500Y-104410000D01*
G75*
G02*
X167055000Y-104262500I0J147500D01*
G01*
X167055000Y-103967500D01*
G75*
G02*
X167202500Y-103820000I147500J0D01*
G01*
X167547500Y-103820000D01*
G75*
G02*
X167695000Y-103967500I0J-147500D01*
G01*
X167695000Y-104262500D01*
G75*
G02*
X167547500Y-104410000I-147500J0D01*
G01*
G37*
G04 #@! TD.AperFunction*
G04 #@! TA.AperFunction,SMDPad,CuDef*
G36*
G01*
X167547500Y-105380000D02*
X167202500Y-105380000D01*
G75*
G02*
X167055000Y-105232500I0J147500D01*
G01*
X167055000Y-104937500D01*
G75*
G02*
X167202500Y-104790000I147500J0D01*
G01*
X167547500Y-104790000D01*
G75*
G02*
X167695000Y-104937500I0J-147500D01*
G01*
X167695000Y-105232500D01*
G75*
G02*
X167547500Y-105380000I-147500J0D01*
G01*
G37*
G04 #@! TD.AperFunction*
G04 #@! TA.AperFunction,SMDPad,CuDef*
G36*
G01*
X164102500Y-105290000D02*
X164447500Y-105290000D01*
G75*
G02*
X164595000Y-105437500I0J-147500D01*
G01*
X164595000Y-105732500D01*
G75*
G02*
X164447500Y-105880000I-147500J0D01*
G01*
X164102500Y-105880000D01*
G75*
G02*
X163955000Y-105732500I0J147500D01*
G01*
X163955000Y-105437500D01*
G75*
G02*
X164102500Y-105290000I147500J0D01*
G01*
G37*
G04 #@! TD.AperFunction*
G04 #@! TA.AperFunction,SMDPad,CuDef*
G36*
G01*
X164102500Y-104320000D02*
X164447500Y-104320000D01*
G75*
G02*
X164595000Y-104467500I0J-147500D01*
G01*
X164595000Y-104762500D01*
G75*
G02*
X164447500Y-104910000I-147500J0D01*
G01*
X164102500Y-104910000D01*
G75*
G02*
X163955000Y-104762500I0J147500D01*
G01*
X163955000Y-104467500D01*
G75*
G02*
X164102500Y-104320000I147500J0D01*
G01*
G37*
G04 #@! TD.AperFunction*
G04 #@! TA.AperFunction,SMDPad,CuDef*
G36*
G01*
X151647500Y-100960000D02*
X151302500Y-100960000D01*
G75*
G02*
X151155000Y-100812500I0J147500D01*
G01*
X151155000Y-100517500D01*
G75*
G02*
X151302500Y-100370000I147500J0D01*
G01*
X151647500Y-100370000D01*
G75*
G02*
X151795000Y-100517500I0J-147500D01*
G01*
X151795000Y-100812500D01*
G75*
G02*
X151647500Y-100960000I-147500J0D01*
G01*
G37*
G04 #@! TD.AperFunction*
G04 #@! TA.AperFunction,SMDPad,CuDef*
G36*
G01*
X151647500Y-101930000D02*
X151302500Y-101930000D01*
G75*
G02*
X151155000Y-101782500I0J147500D01*
G01*
X151155000Y-101487500D01*
G75*
G02*
X151302500Y-101340000I147500J0D01*
G01*
X151647500Y-101340000D01*
G75*
G02*
X151795000Y-101487500I0J-147500D01*
G01*
X151795000Y-101782500D01*
G75*
G02*
X151647500Y-101930000I-147500J0D01*
G01*
G37*
G04 #@! TD.AperFunction*
G04 #@! TA.AperFunction,SMDPad,CuDef*
G36*
G01*
X146677500Y-98190000D02*
X147022500Y-98190000D01*
G75*
G02*
X147170000Y-98337500I0J-147500D01*
G01*
X147170000Y-98632500D01*
G75*
G02*
X147022500Y-98780000I-147500J0D01*
G01*
X146677500Y-98780000D01*
G75*
G02*
X146530000Y-98632500I0J147500D01*
G01*
X146530000Y-98337500D01*
G75*
G02*
X146677500Y-98190000I147500J0D01*
G01*
G37*
G04 #@! TD.AperFunction*
G04 #@! TA.AperFunction,SMDPad,CuDef*
G36*
G01*
X146677500Y-97220000D02*
X147022500Y-97220000D01*
G75*
G02*
X147170000Y-97367500I0J-147500D01*
G01*
X147170000Y-97662500D01*
G75*
G02*
X147022500Y-97810000I-147500J0D01*
G01*
X146677500Y-97810000D01*
G75*
G02*
X146530000Y-97662500I0J147500D01*
G01*
X146530000Y-97367500D01*
G75*
G02*
X146677500Y-97220000I147500J0D01*
G01*
G37*
G04 #@! TD.AperFunction*
G04 #@! TA.AperFunction,SMDPad,CuDef*
G36*
G01*
X146677500Y-100065000D02*
X147022500Y-100065000D01*
G75*
G02*
X147170000Y-100212500I0J-147500D01*
G01*
X147170000Y-100507500D01*
G75*
G02*
X147022500Y-100655000I-147500J0D01*
G01*
X146677500Y-100655000D01*
G75*
G02*
X146530000Y-100507500I0J147500D01*
G01*
X146530000Y-100212500D01*
G75*
G02*
X146677500Y-100065000I147500J0D01*
G01*
G37*
G04 #@! TD.AperFunction*
G04 #@! TA.AperFunction,SMDPad,CuDef*
G36*
G01*
X146677500Y-99095000D02*
X147022500Y-99095000D01*
G75*
G02*
X147170000Y-99242500I0J-147500D01*
G01*
X147170000Y-99537500D01*
G75*
G02*
X147022500Y-99685000I-147500J0D01*
G01*
X146677500Y-99685000D01*
G75*
G02*
X146530000Y-99537500I0J147500D01*
G01*
X146530000Y-99242500D01*
G75*
G02*
X146677500Y-99095000I147500J0D01*
G01*
G37*
G04 #@! TD.AperFunction*
G04 #@! TA.AperFunction,SMDPad,CuDef*
G36*
G01*
X151110000Y-102377500D02*
X151110000Y-102722500D01*
G75*
G02*
X150962500Y-102870000I-147500J0D01*
G01*
X150667500Y-102870000D01*
G75*
G02*
X150520000Y-102722500I0J147500D01*
G01*
X150520000Y-102377500D01*
G75*
G02*
X150667500Y-102230000I147500J0D01*
G01*
X150962500Y-102230000D01*
G75*
G02*
X151110000Y-102377500I0J-147500D01*
G01*
G37*
G04 #@! TD.AperFunction*
G04 #@! TA.AperFunction,SMDPad,CuDef*
G36*
G01*
X152080000Y-102377500D02*
X152080000Y-102722500D01*
G75*
G02*
X151932500Y-102870000I-147500J0D01*
G01*
X151637500Y-102870000D01*
G75*
G02*
X151490000Y-102722500I0J147500D01*
G01*
X151490000Y-102377500D01*
G75*
G02*
X151637500Y-102230000I147500J0D01*
G01*
X151932500Y-102230000D01*
G75*
G02*
X152080000Y-102377500I0J-147500D01*
G01*
G37*
G04 #@! TD.AperFunction*
G04 #@! TA.AperFunction,SMDPad,CuDef*
G36*
G01*
X147627500Y-100065000D02*
X147972500Y-100065000D01*
G75*
G02*
X148120000Y-100212500I0J-147500D01*
G01*
X148120000Y-100507500D01*
G75*
G02*
X147972500Y-100655000I-147500J0D01*
G01*
X147627500Y-100655000D01*
G75*
G02*
X147480000Y-100507500I0J147500D01*
G01*
X147480000Y-100212500D01*
G75*
G02*
X147627500Y-100065000I147500J0D01*
G01*
G37*
G04 #@! TD.AperFunction*
G04 #@! TA.AperFunction,SMDPad,CuDef*
G36*
G01*
X147627500Y-99095000D02*
X147972500Y-99095000D01*
G75*
G02*
X148120000Y-99242500I0J-147500D01*
G01*
X148120000Y-99537500D01*
G75*
G02*
X147972500Y-99685000I-147500J0D01*
G01*
X147627500Y-99685000D01*
G75*
G02*
X147480000Y-99537500I0J147500D01*
G01*
X147480000Y-99242500D01*
G75*
G02*
X147627500Y-99095000I147500J0D01*
G01*
G37*
G04 #@! TD.AperFunction*
G04 #@! TA.AperFunction,SMDPad,CuDef*
G36*
G01*
X152597500Y-100960000D02*
X152252500Y-100960000D01*
G75*
G02*
X152105000Y-100812500I0J147500D01*
G01*
X152105000Y-100517500D01*
G75*
G02*
X152252500Y-100370000I147500J0D01*
G01*
X152597500Y-100370000D01*
G75*
G02*
X152745000Y-100517500I0J-147500D01*
G01*
X152745000Y-100812500D01*
G75*
G02*
X152597500Y-100960000I-147500J0D01*
G01*
G37*
G04 #@! TD.AperFunction*
G04 #@! TA.AperFunction,SMDPad,CuDef*
G36*
G01*
X152597500Y-101930000D02*
X152252500Y-101930000D01*
G75*
G02*
X152105000Y-101782500I0J147500D01*
G01*
X152105000Y-101487500D01*
G75*
G02*
X152252500Y-101340000I147500J0D01*
G01*
X152597500Y-101340000D01*
G75*
G02*
X152745000Y-101487500I0J-147500D01*
G01*
X152745000Y-101782500D01*
G75*
G02*
X152597500Y-101930000I-147500J0D01*
G01*
G37*
G04 #@! TD.AperFunction*
G04 #@! TA.AperFunction,SMDPad,CuDef*
G36*
G01*
X151647500Y-99085000D02*
X151302500Y-99085000D01*
G75*
G02*
X151155000Y-98937500I0J147500D01*
G01*
X151155000Y-98642500D01*
G75*
G02*
X151302500Y-98495000I147500J0D01*
G01*
X151647500Y-98495000D01*
G75*
G02*
X151795000Y-98642500I0J-147500D01*
G01*
X151795000Y-98937500D01*
G75*
G02*
X151647500Y-99085000I-147500J0D01*
G01*
G37*
G04 #@! TD.AperFunction*
G04 #@! TA.AperFunction,SMDPad,CuDef*
G36*
G01*
X151647500Y-100055000D02*
X151302500Y-100055000D01*
G75*
G02*
X151155000Y-99907500I0J147500D01*
G01*
X151155000Y-99612500D01*
G75*
G02*
X151302500Y-99465000I147500J0D01*
G01*
X151647500Y-99465000D01*
G75*
G02*
X151795000Y-99612500I0J-147500D01*
G01*
X151795000Y-99907500D01*
G75*
G02*
X151647500Y-100055000I-147500J0D01*
G01*
G37*
G04 #@! TD.AperFunction*
G04 #@! TA.AperFunction,SMDPad,CuDef*
G36*
G01*
X147627500Y-98190000D02*
X147972500Y-98190000D01*
G75*
G02*
X148120000Y-98337500I0J-147500D01*
G01*
X148120000Y-98632500D01*
G75*
G02*
X147972500Y-98780000I-147500J0D01*
G01*
X147627500Y-98780000D01*
G75*
G02*
X147480000Y-98632500I0J147500D01*
G01*
X147480000Y-98337500D01*
G75*
G02*
X147627500Y-98190000I147500J0D01*
G01*
G37*
G04 #@! TD.AperFunction*
G04 #@! TA.AperFunction,SMDPad,CuDef*
G36*
G01*
X147627500Y-97220000D02*
X147972500Y-97220000D01*
G75*
G02*
X148120000Y-97367500I0J-147500D01*
G01*
X148120000Y-97662500D01*
G75*
G02*
X147972500Y-97810000I-147500J0D01*
G01*
X147627500Y-97810000D01*
G75*
G02*
X147480000Y-97662500I0J147500D01*
G01*
X147480000Y-97367500D01*
G75*
G02*
X147627500Y-97220000I147500J0D01*
G01*
G37*
G04 #@! TD.AperFunction*
G04 #@! TA.AperFunction,SMDPad,CuDef*
G36*
G01*
X151760000Y-96927500D02*
X151760000Y-97272500D01*
G75*
G02*
X151612500Y-97420000I-147500J0D01*
G01*
X151317500Y-97420000D01*
G75*
G02*
X151170000Y-97272500I0J147500D01*
G01*
X151170000Y-96927500D01*
G75*
G02*
X151317500Y-96780000I147500J0D01*
G01*
X151612500Y-96780000D01*
G75*
G02*
X151760000Y-96927500I0J-147500D01*
G01*
G37*
G04 #@! TD.AperFunction*
G04 #@! TA.AperFunction,SMDPad,CuDef*
G36*
G01*
X152730000Y-96927500D02*
X152730000Y-97272500D01*
G75*
G02*
X152582500Y-97420000I-147500J0D01*
G01*
X152287500Y-97420000D01*
G75*
G02*
X152140000Y-97272500I0J147500D01*
G01*
X152140000Y-96927500D01*
G75*
G02*
X152287500Y-96780000I147500J0D01*
G01*
X152582500Y-96780000D01*
G75*
G02*
X152730000Y-96927500I0J-147500D01*
G01*
G37*
G04 #@! TD.AperFunction*
G04 #@! TA.AperFunction,SMDPad,CuDef*
G36*
G01*
X152597500Y-99085000D02*
X152252500Y-99085000D01*
G75*
G02*
X152105000Y-98937500I0J147500D01*
G01*
X152105000Y-98642500D01*
G75*
G02*
X152252500Y-98495000I147500J0D01*
G01*
X152597500Y-98495000D01*
G75*
G02*
X152745000Y-98642500I0J-147500D01*
G01*
X152745000Y-98937500D01*
G75*
G02*
X152597500Y-99085000I-147500J0D01*
G01*
G37*
G04 #@! TD.AperFunction*
G04 #@! TA.AperFunction,SMDPad,CuDef*
G36*
G01*
X152597500Y-100055000D02*
X152252500Y-100055000D01*
G75*
G02*
X152105000Y-99907500I0J147500D01*
G01*
X152105000Y-99612500D01*
G75*
G02*
X152252500Y-99465000I147500J0D01*
G01*
X152597500Y-99465000D01*
G75*
G02*
X152745000Y-99612500I0J-147500D01*
G01*
X152745000Y-99907500D01*
G75*
G02*
X152597500Y-100055000I-147500J0D01*
G01*
G37*
G04 #@! TD.AperFunction*
G04 #@! TA.AperFunction,SMDPad,CuDef*
G36*
G01*
X149615000Y-102722500D02*
X149615000Y-102377500D01*
G75*
G02*
X149762500Y-102230000I147500J0D01*
G01*
X150057500Y-102230000D01*
G75*
G02*
X150205000Y-102377500I0J-147500D01*
G01*
X150205000Y-102722500D01*
G75*
G02*
X150057500Y-102870000I-147500J0D01*
G01*
X149762500Y-102870000D01*
G75*
G02*
X149615000Y-102722500I0J147500D01*
G01*
G37*
G04 #@! TD.AperFunction*
G04 #@! TA.AperFunction,SMDPad,CuDef*
G36*
G01*
X148645000Y-102722500D02*
X148645000Y-102377500D01*
G75*
G02*
X148792500Y-102230000I147500J0D01*
G01*
X149087500Y-102230000D01*
G75*
G02*
X149235000Y-102377500I0J-147500D01*
G01*
X149235000Y-102722500D01*
G75*
G02*
X149087500Y-102870000I-147500J0D01*
G01*
X148792500Y-102870000D01*
G75*
G02*
X148645000Y-102722500I0J147500D01*
G01*
G37*
G04 #@! TD.AperFunction*
G04 #@! TA.AperFunction,SMDPad,CuDef*
G36*
G01*
X149410000Y-96927500D02*
X149410000Y-97272500D01*
G75*
G02*
X149262500Y-97420000I-147500J0D01*
G01*
X148967500Y-97420000D01*
G75*
G02*
X148820000Y-97272500I0J147500D01*
G01*
X148820000Y-96927500D01*
G75*
G02*
X148967500Y-96780000I147500J0D01*
G01*
X149262500Y-96780000D01*
G75*
G02*
X149410000Y-96927500I0J-147500D01*
G01*
G37*
G04 #@! TD.AperFunction*
G04 #@! TA.AperFunction,SMDPad,CuDef*
G36*
G01*
X150380000Y-96927500D02*
X150380000Y-97272500D01*
G75*
G02*
X150232500Y-97420000I-147500J0D01*
G01*
X149937500Y-97420000D01*
G75*
G02*
X149790000Y-97272500I0J147500D01*
G01*
X149790000Y-96927500D01*
G75*
G02*
X149937500Y-96780000I147500J0D01*
G01*
X150232500Y-96780000D01*
G75*
G02*
X150380000Y-96927500I0J-147500D01*
G01*
G37*
G04 #@! TD.AperFunction*
G04 #@! TA.AperFunction,SMDPad,CuDef*
G36*
G01*
X147940000Y-101772500D02*
X147940000Y-101427500D01*
G75*
G02*
X148087500Y-101280000I147500J0D01*
G01*
X148382500Y-101280000D01*
G75*
G02*
X148530000Y-101427500I0J-147500D01*
G01*
X148530000Y-101772500D01*
G75*
G02*
X148382500Y-101920000I-147500J0D01*
G01*
X148087500Y-101920000D01*
G75*
G02*
X147940000Y-101772500I0J147500D01*
G01*
G37*
G04 #@! TD.AperFunction*
G04 #@! TA.AperFunction,SMDPad,CuDef*
G36*
G01*
X146970000Y-101772500D02*
X146970000Y-101427500D01*
G75*
G02*
X147117500Y-101280000I147500J0D01*
G01*
X147412500Y-101280000D01*
G75*
G02*
X147560000Y-101427500I0J-147500D01*
G01*
X147560000Y-101772500D01*
G75*
G02*
X147412500Y-101920000I-147500J0D01*
G01*
X147117500Y-101920000D01*
G75*
G02*
X146970000Y-101772500I0J147500D01*
G01*
G37*
G04 #@! TD.AperFunction*
G04 #@! TA.AperFunction,SMDPad,CuDef*
G36*
G01*
X149322500Y-100485000D02*
X148977500Y-100485000D01*
G75*
G02*
X148830000Y-100337500I0J147500D01*
G01*
X148830000Y-100042500D01*
G75*
G02*
X148977500Y-99895000I147500J0D01*
G01*
X149322500Y-99895000D01*
G75*
G02*
X149470000Y-100042500I0J-147500D01*
G01*
X149470000Y-100337500D01*
G75*
G02*
X149322500Y-100485000I-147500J0D01*
G01*
G37*
G04 #@! TD.AperFunction*
G04 #@! TA.AperFunction,SMDPad,CuDef*
G36*
G01*
X149322500Y-101455000D02*
X148977500Y-101455000D01*
G75*
G02*
X148830000Y-101307500I0J147500D01*
G01*
X148830000Y-101012500D01*
G75*
G02*
X148977500Y-100865000I147500J0D01*
G01*
X149322500Y-100865000D01*
G75*
G02*
X149470000Y-101012500I0J-147500D01*
G01*
X149470000Y-101307500D01*
G75*
G02*
X149322500Y-101455000I-147500J0D01*
G01*
G37*
G04 #@! TD.AperFunction*
G04 #@! TA.AperFunction,SMDPad,CuDef*
G36*
G01*
X150272500Y-100485000D02*
X149927500Y-100485000D01*
G75*
G02*
X149780000Y-100337500I0J147500D01*
G01*
X149780000Y-100042500D01*
G75*
G02*
X149927500Y-99895000I147500J0D01*
G01*
X150272500Y-99895000D01*
G75*
G02*
X150420000Y-100042500I0J-147500D01*
G01*
X150420000Y-100337500D01*
G75*
G02*
X150272500Y-100485000I-147500J0D01*
G01*
G37*
G04 #@! TD.AperFunction*
G04 #@! TA.AperFunction,SMDPad,CuDef*
G36*
G01*
X150272500Y-101455000D02*
X149927500Y-101455000D01*
G75*
G02*
X149780000Y-101307500I0J147500D01*
G01*
X149780000Y-101012500D01*
G75*
G02*
X149927500Y-100865000I147500J0D01*
G01*
X150272500Y-100865000D01*
G75*
G02*
X150420000Y-101012500I0J-147500D01*
G01*
X150420000Y-101307500D01*
G75*
G02*
X150272500Y-101455000I-147500J0D01*
G01*
G37*
G04 #@! TD.AperFunction*
G04 #@! TA.AperFunction,SMDPad,CuDef*
G36*
G01*
X149927500Y-98990000D02*
X150272500Y-98990000D01*
G75*
G02*
X150420000Y-99137500I0J-147500D01*
G01*
X150420000Y-99432500D01*
G75*
G02*
X150272500Y-99580000I-147500J0D01*
G01*
X149927500Y-99580000D01*
G75*
G02*
X149780000Y-99432500I0J147500D01*
G01*
X149780000Y-99137500D01*
G75*
G02*
X149927500Y-98990000I147500J0D01*
G01*
G37*
G04 #@! TD.AperFunction*
G04 #@! TA.AperFunction,SMDPad,CuDef*
G36*
G01*
X149927500Y-98020000D02*
X150272500Y-98020000D01*
G75*
G02*
X150420000Y-98167500I0J-147500D01*
G01*
X150420000Y-98462500D01*
G75*
G02*
X150272500Y-98610000I-147500J0D01*
G01*
X149927500Y-98610000D01*
G75*
G02*
X149780000Y-98462500I0J147500D01*
G01*
X149780000Y-98167500D01*
G75*
G02*
X149927500Y-98020000I147500J0D01*
G01*
G37*
G04 #@! TD.AperFunction*
G04 #@! TA.AperFunction,SMDPad,CuDef*
G36*
G01*
X148977500Y-98990000D02*
X149322500Y-98990000D01*
G75*
G02*
X149470000Y-99137500I0J-147500D01*
G01*
X149470000Y-99432500D01*
G75*
G02*
X149322500Y-99580000I-147500J0D01*
G01*
X148977500Y-99580000D01*
G75*
G02*
X148830000Y-99432500I0J147500D01*
G01*
X148830000Y-99137500D01*
G75*
G02*
X148977500Y-98990000I147500J0D01*
G01*
G37*
G04 #@! TD.AperFunction*
G04 #@! TA.AperFunction,SMDPad,CuDef*
G36*
G01*
X148977500Y-98020000D02*
X149322500Y-98020000D01*
G75*
G02*
X149470000Y-98167500I0J-147500D01*
G01*
X149470000Y-98462500D01*
G75*
G02*
X149322500Y-98610000I-147500J0D01*
G01*
X148977500Y-98610000D01*
G75*
G02*
X148830000Y-98462500I0J147500D01*
G01*
X148830000Y-98167500D01*
G75*
G02*
X148977500Y-98020000I147500J0D01*
G01*
G37*
G04 #@! TD.AperFunction*
D12*
X102150000Y-95220000D03*
X102150000Y-86580000D03*
D13*
X106330000Y-86580000D03*
X106330000Y-95220000D03*
D14*
X120000000Y-130000000D03*
X122500000Y-130000000D03*
X125000000Y-130000000D03*
X127500000Y-130000000D03*
X130000000Y-130000000D03*
X132500000Y-130000000D03*
X135000000Y-130000000D03*
X137500000Y-130000000D03*
X140000000Y-130000000D03*
X142500000Y-130000000D03*
X145000000Y-130000000D03*
X147500000Y-130000000D03*
X150000000Y-130000000D03*
X152500000Y-130000000D03*
X155000000Y-130000000D03*
X157500000Y-130000000D03*
X160000000Y-130000000D03*
X162500000Y-130000000D03*
X165000000Y-130000000D03*
X167500000Y-130000000D03*
X170000000Y-130000000D03*
X172500000Y-130000000D03*
X175000000Y-130000000D03*
X177500000Y-130000000D03*
X180000000Y-130000000D03*
D15*
X197400000Y-126600000D03*
X102600000Y-126600000D03*
D16*
X101000000Y-111000000D03*
X102000000Y-111000000D03*
X103000000Y-111000000D03*
X199000000Y-111000000D03*
X198000000Y-111000000D03*
X197000000Y-111000000D03*
X168250000Y-97350000D03*
X168850000Y-97350000D03*
X172600000Y-97900000D03*
X172600000Y-98500000D03*
X166800000Y-104100000D03*
X163700000Y-105600000D03*
X156600000Y-100600000D03*
X145200000Y-97000000D03*
X147200000Y-93600000D03*
X129200000Y-96150000D03*
X129200000Y-90650000D03*
X123250000Y-86200000D03*
X120750000Y-86200000D03*
X117700000Y-86200000D03*
X113800000Y-93650000D03*
X113800000Y-97650000D03*
X154800000Y-97000000D03*
X136975000Y-78500000D03*
X129075000Y-83900000D03*
X171450000Y-76150000D03*
X113850000Y-90150000D03*
X111950000Y-102300000D03*
X143599998Y-106600000D03*
X175200000Y-94300000D03*
X170250000Y-93050006D03*
X170250024Y-93650000D03*
X137150024Y-107750000D03*
X137150000Y-107150006D03*
X134799976Y-102200000D03*
X134800000Y-102799994D03*
X138550000Y-103650024D03*
X139149994Y-103650000D03*
X132150000Y-106550000D03*
X106699976Y-76925000D03*
X106700000Y-77524994D03*
X109150000Y-82524994D03*
X109149976Y-81925000D03*
X104100000Y-81325000D03*
X116000000Y-77275006D03*
X116000024Y-77875000D03*
X111050000Y-88800000D03*
X111050000Y-93400000D03*
X164700000Y-75200000D03*
X174500000Y-76700000D03*
X174050000Y-85700000D03*
X165550000Y-85750000D03*
X163600000Y-84150000D03*
X113599998Y-81125000D03*
X116000024Y-83075000D03*
X116000000Y-82475006D03*
X122150006Y-81725000D03*
X122750000Y-81724976D03*
X124600000Y-77374976D03*
X124000006Y-77375000D03*
X110450000Y-78425024D03*
X111049994Y-78425000D03*
X107849976Y-86300000D03*
X107850000Y-86899994D03*
X117900000Y-79825000D03*
X129275000Y-106100000D03*
X165800000Y-102100004D03*
X155600000Y-103400000D03*
X125200000Y-93650000D03*
X119750000Y-97600000D03*
X122250000Y-97600000D03*
X123750000Y-97599998D03*
X124750000Y-97150000D03*
X117800000Y-91150000D03*
X118250000Y-90200000D03*
X124250000Y-90200000D03*
X118450000Y-79950000D03*
X163425000Y-89700000D03*
X124250000Y-101550000D03*
X119250000Y-101550000D03*
X120250000Y-101600000D03*
X118050000Y-97450000D03*
X122750000Y-96950000D03*
X107400000Y-104800000D03*
X107400000Y-121000000D03*
X118700000Y-86200000D03*
X112100000Y-85450000D03*
X111100000Y-85450000D03*
X110700000Y-92050000D03*
X129275000Y-107900000D03*
X107900000Y-95499994D03*
X107899976Y-94900000D03*
D17*
X125000000Y-125650000D03*
X127500000Y-125650000D03*
X177500000Y-125650012D03*
X167500000Y-125650010D03*
D16*
X114100000Y-87700000D03*
X110300000Y-96949998D03*
X118475000Y-108899989D03*
X160875000Y-92075000D03*
X152400000Y-87875000D03*
X148400000Y-101000000D03*
X150800000Y-98600000D03*
X150800000Y-100200000D03*
X152800000Y-93600000D03*
X148400000Y-100200000D03*
X150000000Y-101800000D03*
X148400000Y-98600000D03*
X151600000Y-97800000D03*
X156000000Y-106800000D03*
X159050000Y-83550000D03*
X144400000Y-104200000D03*
X143399996Y-100600000D03*
D17*
X178975000Y-125650000D03*
X121025000Y-125650010D03*
D16*
X143600000Y-93799996D03*
X148400000Y-94600000D03*
X148400000Y-96200000D03*
X156600000Y-94150000D03*
X156100000Y-82600000D03*
X153850000Y-79950000D03*
X123250000Y-101600000D03*
X150800000Y-89500000D03*
D17*
X121500002Y-91075000D03*
X158100000Y-107400000D03*
D16*
X116325000Y-102975000D03*
X114325000Y-100350000D03*
X140975000Y-100275000D03*
X138350000Y-102275000D03*
X101000000Y-122750000D03*
X102000000Y-122750000D03*
X103000000Y-122750000D03*
X198000000Y-122750000D03*
X199000000Y-122750000D03*
X197000000Y-122750000D03*
X132200000Y-104299994D03*
X132199976Y-103700000D03*
X127000000Y-96150000D03*
X127000000Y-90650000D03*
X120750000Y-88400000D03*
X116050000Y-90150000D03*
X116000000Y-93650000D03*
X129075000Y-78800000D03*
X169250000Y-76150000D03*
X110300000Y-102950000D03*
X175200000Y-96500000D03*
X175200000Y-97100000D03*
X162325000Y-88800000D03*
X125900024Y-80275000D03*
X125900000Y-79675006D03*
X125250000Y-79375006D03*
X125250024Y-79975000D03*
X129275000Y-105100000D03*
X163425000Y-90700000D03*
X125250000Y-101550000D03*
X121250000Y-101550000D03*
X117250000Y-101550000D03*
X111250000Y-94900000D03*
X111900000Y-100000000D03*
X155300000Y-87875000D03*
X150800000Y-99400008D03*
X152400012Y-97800024D03*
X148400000Y-102600000D03*
X148400000Y-97800000D03*
X148400000Y-99400000D03*
X152400000Y-102600000D03*
X162150000Y-83550000D03*
X159700000Y-75975000D03*
X150479996Y-85830000D03*
X148400000Y-95400000D03*
X156025000Y-79850000D03*
X150800000Y-88500000D03*
X115825000Y-101450000D03*
X139850000Y-101825000D03*
X120050024Y-77975000D03*
X120050000Y-77375006D03*
X119400000Y-77075006D03*
X119400024Y-77675000D03*
X113600000Y-79124996D03*
D17*
X140000000Y-125700000D03*
X160000000Y-125700000D03*
D16*
X132100000Y-117650000D03*
X127787500Y-116262500D03*
X133700000Y-117650000D03*
X126737501Y-115812499D03*
X149200000Y-96200000D03*
X151749992Y-82650000D03*
X154300000Y-86400000D03*
X149600000Y-92025000D03*
X150800000Y-97000000D03*
X151200000Y-92600000D03*
X150800000Y-96200000D03*
X150400000Y-92599996D03*
X150650000Y-83900000D03*
X151600000Y-96200000D03*
X112300024Y-81475000D03*
X112300000Y-80875006D03*
X111650000Y-80575006D03*
X111650024Y-81175000D03*
X120050024Y-83275000D03*
X119400000Y-82375006D03*
X120050000Y-82675006D03*
X119400024Y-82975000D03*
X104100000Y-79074994D03*
X104099976Y-78475000D03*
X110100000Y-85100000D03*
X109500000Y-85100000D03*
X150800000Y-97800000D03*
X147600000Y-101000000D03*
X158100000Y-90375000D03*
X146000000Y-97800000D03*
X139750000Y-105800006D03*
X139750024Y-106400000D03*
X149200000Y-101800000D03*
X140400024Y-106700000D03*
X140400000Y-106100006D03*
X150800000Y-101800000D03*
X149200000Y-97800000D03*
X150000000Y-97800000D03*
X167700000Y-94500000D03*
X167700000Y-95100000D03*
X166800000Y-105100000D03*
X167050000Y-94800000D03*
X167050000Y-95400000D03*
X163700000Y-104600000D03*
X165800000Y-101099986D03*
X150800000Y-101000000D03*
X136650000Y-83900000D03*
X148550000Y-87875000D03*
X147600000Y-96200000D03*
X147600000Y-89350000D03*
X173650000Y-76150000D03*
X161750000Y-80300000D03*
X172550000Y-76650000D03*
X162500000Y-79100000D03*
X168150000Y-76650000D03*
X162250000Y-78300000D03*
X167045000Y-76150000D03*
X162499998Y-77500000D03*
X162250000Y-76700000D03*
X165945000Y-76145008D03*
X132900000Y-125700000D03*
X143300000Y-125700000D03*
X144900000Y-125700000D03*
X153300000Y-125700000D03*
X154900000Y-125700000D03*
X158300000Y-125699988D03*
X162500000Y-125150000D03*
X165800000Y-125700000D03*
X170000000Y-125150000D03*
X173300000Y-125650000D03*
X174900000Y-125650000D03*
X132100000Y-125150000D03*
X142500000Y-125149998D03*
X144100000Y-125150000D03*
X152500000Y-125150000D03*
X154100006Y-125150000D03*
X157500000Y-125150000D03*
X161700000Y-125700000D03*
X165000000Y-125150002D03*
X169200000Y-125650000D03*
X172500000Y-125150002D03*
X174100000Y-125150000D03*
X106150000Y-90650000D03*
X106150000Y-91650000D03*
X151750000Y-81400000D03*
X150400000Y-93650000D03*
X120700000Y-97300000D03*
X113262867Y-92137133D03*
X121300000Y-97300000D03*
X113687133Y-91712867D03*
X143400000Y-98200000D03*
X126800000Y-89850000D03*
X130000000Y-125650000D03*
X135000000Y-125650000D03*
X137700000Y-125700000D03*
X136900000Y-125150002D03*
X136900000Y-117650000D03*
X127525000Y-115350000D03*
X137700000Y-117650000D03*
X128150000Y-114900000D03*
X123250000Y-88400000D03*
X116000000Y-97650000D03*
X117050000Y-88900000D03*
X123250000Y-99225000D03*
X116100000Y-92900000D03*
X116100000Y-91575002D03*
X145200000Y-95400000D03*
X115850000Y-86150000D03*
X144400000Y-105800000D03*
X113100000Y-110100000D03*
X143600000Y-105800000D03*
X113100000Y-108500000D03*
X144400000Y-105000000D03*
X112850000Y-109300000D03*
X143600000Y-105000000D03*
X112850000Y-107700000D03*
X113100000Y-118100000D03*
X145200000Y-103400000D03*
X145200000Y-105000000D03*
X113100000Y-116500000D03*
X145200000Y-104200000D03*
X112850000Y-117300000D03*
X144400000Y-103400000D03*
X112850000Y-115700000D03*
X149200000Y-95400000D03*
X151199992Y-79400000D03*
X151600000Y-104200000D03*
X151600000Y-105000000D03*
X152400000Y-104200000D03*
X152400000Y-105000000D03*
X153200000Y-104200000D03*
X153200000Y-105000000D03*
X154000000Y-104200000D03*
X154000000Y-105000000D03*
D18*
X127500000Y-130000000D02*
X127500000Y-125650000D01*
X125000000Y-130000000D02*
X125000000Y-125650000D01*
X177500000Y-130000000D02*
X177500000Y-125650012D01*
X167500000Y-130000000D02*
X167500000Y-125650010D01*
X150810000Y-100190000D02*
X150800000Y-100200000D01*
X150815000Y-100215000D02*
X150800000Y-100200000D01*
X150800000Y-100200000D02*
X150800000Y-100185000D01*
X150115000Y-99285000D02*
X150800000Y-98600000D01*
X150100000Y-99285000D02*
X150115000Y-99285000D01*
X149115000Y-100200000D02*
X149150000Y-100165000D01*
X150135000Y-100200000D02*
X150100000Y-100165000D01*
X148465000Y-98600000D02*
X149150000Y-99285000D01*
X148400000Y-98600000D02*
X148465000Y-98600000D01*
X148285000Y-98485000D02*
X148400000Y-98600000D01*
X147800000Y-98485000D02*
X148285000Y-98485000D01*
X148265000Y-100335000D02*
X148400000Y-100200000D01*
X147800000Y-100335000D02*
X148265000Y-100335000D01*
X148235000Y-101165000D02*
X148400000Y-101000000D01*
X148235000Y-101600000D02*
X148235000Y-101165000D01*
X150110000Y-100200000D02*
X150100000Y-100190000D01*
X150800000Y-100200000D02*
X150110000Y-100200000D01*
X149140000Y-100200000D02*
X149150000Y-100190000D01*
X148400000Y-100200000D02*
X149140000Y-100200000D01*
X150990000Y-98790000D02*
X150800000Y-98600000D01*
X151475000Y-98790000D02*
X150990000Y-98790000D01*
X151475000Y-98790000D02*
X152425000Y-98790000D01*
X151265000Y-100665000D02*
X150800000Y-100200000D01*
X151475000Y-100665000D02*
X151265000Y-100665000D01*
X151475000Y-100665000D02*
X152425000Y-100665000D01*
X150800000Y-98600000D02*
X150800000Y-98560000D01*
X151475000Y-96915000D02*
X151514988Y-96915000D01*
X151465000Y-97665000D02*
X151600000Y-97800000D01*
X151465000Y-97100000D02*
X151465000Y-97665000D01*
X146850000Y-100360000D02*
X147800000Y-100360000D01*
X146850000Y-98485000D02*
X147800000Y-98485000D01*
X180000000Y-130000000D02*
X180000000Y-125900000D01*
X180000000Y-125900000D02*
X179750000Y-125650000D01*
X179750000Y-125650000D02*
X178975000Y-125650000D01*
X120000000Y-130000000D02*
X120000000Y-125850000D01*
X120000000Y-125850000D02*
X120199990Y-125650010D01*
X120199990Y-125650010D02*
X121025000Y-125650010D01*
X149150000Y-99285000D02*
X149150000Y-100190000D01*
X149150000Y-100190000D02*
X150100000Y-100190000D01*
X150100000Y-100190000D02*
X150100000Y-99285000D01*
X149150000Y-99285000D02*
X150100000Y-99285000D01*
X147800000Y-100400000D02*
X148400000Y-101000000D01*
X147800000Y-100360000D02*
X147800000Y-100400000D01*
X151475000Y-97925000D02*
X151600000Y-97800000D01*
X151475000Y-98790000D02*
X151475000Y-97925000D01*
X165240004Y-102100004D02*
X165225000Y-102085000D01*
X165800000Y-102100004D02*
X165240004Y-102100004D01*
X167360000Y-104100000D02*
X167375000Y-104115000D01*
X166800000Y-104100000D02*
X167360000Y-104100000D01*
X164260000Y-105600000D02*
X164275000Y-105585000D01*
X163700000Y-105600000D02*
X164260000Y-105600000D01*
X149910000Y-101890000D02*
X150000000Y-101800000D01*
X149910000Y-102550000D02*
X149910000Y-101890000D01*
X150815000Y-102550000D02*
X149910000Y-102550000D01*
X149115000Y-96915000D02*
X148400000Y-96200000D01*
X149115000Y-97100000D02*
X149115000Y-96915000D01*
X165220000Y-102080000D02*
X165225000Y-102085000D01*
X164275000Y-102080000D02*
X165220000Y-102080000D01*
X164280000Y-105580000D02*
X164275000Y-105585000D01*
X165225000Y-105580000D02*
X164280000Y-105580000D01*
X152400000Y-97800036D02*
X152400012Y-97800024D01*
X148115000Y-97515000D02*
X148400000Y-97800000D01*
X147800000Y-97515000D02*
X148115000Y-97515000D01*
X148365000Y-99365000D02*
X148400000Y-99400000D01*
X147800000Y-99365000D02*
X148365000Y-99365000D01*
X151159992Y-99760000D02*
X150800000Y-99400008D01*
X151475000Y-99760000D02*
X151159992Y-99760000D01*
X151475000Y-99760000D02*
X152425000Y-99760000D01*
X152435000Y-97765036D02*
X152400012Y-97800024D01*
X152435000Y-97100000D02*
X152435000Y-97765036D01*
X146850000Y-99390000D02*
X147800000Y-99390000D01*
X146850000Y-97515000D02*
X147800000Y-97515000D01*
X151835000Y-102600000D02*
X152400000Y-102600000D01*
X151785000Y-102550000D02*
X151835000Y-102600000D01*
X148900000Y-102600000D02*
X148400000Y-102600000D01*
X148940000Y-102560000D02*
X148900000Y-102600000D01*
X148940000Y-102550000D02*
X148940000Y-102560000D01*
X160000000Y-125700000D02*
X160000000Y-130000000D01*
X140000000Y-130000000D02*
X140000000Y-125700000D01*
D19*
X116125004Y-79124996D02*
X113600000Y-79124996D01*
X117575000Y-77675000D02*
X116125004Y-79124996D01*
X119400024Y-77675000D02*
X117575000Y-77675000D01*
X127800000Y-116250000D02*
X127787500Y-116262500D01*
X130700000Y-116250000D02*
X127800000Y-116250000D01*
X132100000Y-117650000D02*
X130700000Y-116250000D01*
X133700000Y-117650000D02*
X131850000Y-115800000D01*
X131850000Y-115800000D02*
X126750002Y-115800000D01*
X126737501Y-115812501D02*
X126737501Y-115812499D01*
X126750002Y-115800000D02*
X126737501Y-115812501D01*
X154300000Y-84450000D02*
X154300000Y-86400000D01*
X152500000Y-82650000D02*
X154300000Y-84450000D01*
X151749992Y-82650000D02*
X152500000Y-82650000D01*
X149600000Y-95800000D02*
X149600000Y-92025000D01*
X149200000Y-96200000D02*
X149600000Y-95800000D01*
X151200000Y-96588900D02*
X151200000Y-93650000D01*
X150800000Y-96988900D02*
X151200000Y-96588900D01*
X150800000Y-97000000D02*
X150800000Y-96988900D01*
X151200000Y-93650000D02*
X151200000Y-92600000D01*
X150800000Y-96200000D02*
X150800000Y-92999996D01*
X150800000Y-92999996D02*
X150400000Y-92599996D01*
X150000000Y-84550000D02*
X150650000Y-83900000D01*
X151600000Y-96200000D02*
X151600000Y-92250000D01*
X150000000Y-90650000D02*
X150000000Y-84550000D01*
X151600000Y-92250000D02*
X150000000Y-90650000D01*
D18*
X150785000Y-97800000D02*
X150085000Y-97100000D01*
X150800000Y-97800000D02*
X150785000Y-97800000D01*
X147600000Y-101265000D02*
X147265000Y-101600000D01*
X147600000Y-101000000D02*
X147600000Y-101265000D01*
X146550000Y-101000000D02*
X146000000Y-100450000D01*
X147600000Y-101000000D02*
X146550000Y-101000000D01*
X146000000Y-100450000D02*
X146000000Y-97800000D01*
X149250000Y-101850000D02*
X149200000Y-101800000D01*
X150100000Y-97900000D02*
X150000000Y-97800000D01*
X150100000Y-98315000D02*
X150100000Y-97900000D01*
X149150000Y-97850000D02*
X149200000Y-97800000D01*
X149150000Y-98315000D02*
X149150000Y-97850000D01*
X150800000Y-101800000D02*
X150765000Y-101800000D01*
X149150000Y-101750000D02*
X149200000Y-101800000D01*
X149150000Y-101160000D02*
X149150000Y-101750000D01*
X150160000Y-101160000D02*
X150100000Y-101160000D01*
X150800000Y-101800000D02*
X150160000Y-101160000D01*
X151435000Y-101635000D02*
X150800000Y-101000000D01*
X151475000Y-101635000D02*
X151435000Y-101635000D01*
X151475000Y-101635000D02*
X152425000Y-101635000D01*
X165240014Y-101099986D02*
X165225000Y-101115000D01*
X165800000Y-101099986D02*
X165240014Y-101099986D01*
X167360000Y-105100000D02*
X167375000Y-105085000D01*
X166800000Y-105100000D02*
X167360000Y-105100000D01*
X163715000Y-104615000D02*
X163700000Y-104600000D01*
X164275000Y-104615000D02*
X163715000Y-104615000D01*
X165220000Y-101120000D02*
X165225000Y-101115000D01*
X164275000Y-101120000D02*
X165220000Y-101120000D01*
X164280000Y-104620000D02*
X164275000Y-104615000D01*
X165225000Y-104620000D02*
X164280000Y-104620000D01*
D19*
X144575000Y-83900000D02*
X136650000Y-83900000D01*
X148550000Y-87875000D02*
X144575000Y-83900000D01*
X147600000Y-96200000D02*
X147600000Y-89350000D01*
X173650000Y-76150000D02*
X173650000Y-77550000D01*
X173650000Y-77550000D02*
X170900000Y-80300000D01*
X170900000Y-80300000D02*
X161750000Y-80300000D01*
X170600000Y-79100000D02*
X162500000Y-79100000D01*
X172550000Y-77150000D02*
X170600000Y-79100000D01*
X172550000Y-76650000D02*
X172550000Y-77150000D01*
X168150000Y-77050000D02*
X166900000Y-78300000D01*
X166900000Y-78300000D02*
X162250000Y-78300000D01*
X168150000Y-76650000D02*
X168150000Y-77050000D01*
X166250000Y-77500000D02*
X162499998Y-77500000D01*
X167045000Y-76705000D02*
X166250000Y-77500000D01*
X167045000Y-76150000D02*
X167045000Y-76705000D01*
X165945000Y-76455000D02*
X165945000Y-76145008D01*
X165700000Y-76700000D02*
X165945000Y-76455000D01*
X162250000Y-76700000D02*
X165700000Y-76700000D01*
X132100000Y-125750000D02*
X132100000Y-125150000D01*
X132500000Y-126150000D02*
X132100000Y-125750000D01*
X132500000Y-130000000D02*
X132500000Y-126150000D01*
X142500000Y-130000000D02*
X142500000Y-125149998D01*
X144100000Y-125500000D02*
X144100000Y-125150000D01*
X145000000Y-126400000D02*
X144100000Y-125500000D01*
X145000000Y-130000000D02*
X145000000Y-126400000D01*
X152500000Y-130000000D02*
X152500000Y-125150000D01*
X155000000Y-126400000D02*
X154100006Y-125500006D01*
X154100006Y-125500006D02*
X154100006Y-125150000D01*
X155000000Y-130000000D02*
X155000000Y-126400000D01*
X157500000Y-130000000D02*
X157500000Y-125150000D01*
X162500000Y-126125000D02*
X162075000Y-125700000D01*
X162075000Y-125700000D02*
X161700000Y-125700000D01*
X162500000Y-130000000D02*
X162500000Y-126125000D01*
X165000000Y-130000000D02*
X165000000Y-125150002D01*
X169550000Y-125650000D02*
X169200000Y-125650000D01*
X170000000Y-126100000D02*
X169550000Y-125650000D01*
X170000000Y-130000000D02*
X170000000Y-126100000D01*
X172500000Y-130000000D02*
X172500000Y-125150002D01*
X174100000Y-125950000D02*
X174100000Y-125150000D01*
X175000000Y-126850000D02*
X174100000Y-125950000D01*
X175000000Y-130000000D02*
X175000000Y-126850000D01*
X106150000Y-90650000D02*
X106150000Y-91650000D01*
X151750000Y-81400000D02*
X149600000Y-83550000D01*
X149600000Y-83550000D02*
X149600000Y-90825000D01*
X150000000Y-93250000D02*
X150400000Y-93650000D01*
X149600000Y-90825000D02*
X150000000Y-91225000D01*
X150000000Y-91225000D02*
X150000000Y-93250000D01*
D20*
X120855000Y-97145000D02*
X120855000Y-95060062D01*
X120700000Y-97300000D02*
X120855000Y-97145000D01*
X120855000Y-95060062D02*
X118164938Y-92370000D01*
X113482072Y-92137133D02*
X113262867Y-92137133D01*
X113714939Y-92370000D02*
X113482072Y-92137133D01*
X118164938Y-92370000D02*
X113714939Y-92370000D01*
X121145000Y-97145000D02*
X121145000Y-94939938D01*
X121300000Y-97300000D02*
X121145000Y-97145000D01*
X121145000Y-94939938D02*
X118285062Y-92080000D01*
X113835061Y-92080000D02*
X113687133Y-91932072D01*
X113687133Y-91932072D02*
X113687133Y-91712867D01*
X118285062Y-92080000D02*
X113835061Y-92080000D01*
D19*
X137750000Y-98200000D02*
X143400000Y-98200000D01*
X129400000Y-89850000D02*
X137750000Y-98200000D01*
X126800000Y-89850000D02*
X129400000Y-89850000D01*
X130000000Y-130000000D02*
X130000000Y-125650000D01*
X135000000Y-130000000D02*
X135000000Y-125650000D01*
X136900000Y-125600000D02*
X136900000Y-125150002D01*
X137500000Y-126200000D02*
X136900000Y-125600000D01*
X137500000Y-130000000D02*
X137500000Y-126200000D01*
X134600000Y-115350000D02*
X127525000Y-115350000D01*
X136900000Y-117650000D02*
X134600000Y-115350000D01*
X134950000Y-114900000D02*
X128150000Y-114900000D01*
X137700000Y-117650000D02*
X134950000Y-114900000D01*
X122750000Y-88900000D02*
X123250000Y-88400000D01*
X117050000Y-88900000D02*
X122750000Y-88900000D01*
X116000000Y-98325000D02*
X116000000Y-97650000D01*
X116900000Y-99225000D02*
X116000000Y-98325000D01*
X123250000Y-99225000D02*
X116900000Y-99225000D01*
X116525000Y-89425000D02*
X116525000Y-91150002D01*
X117050000Y-88900000D02*
X116525000Y-89425000D01*
X116525000Y-91150002D02*
X116100000Y-91575002D01*
X116525000Y-96525000D02*
X116525000Y-93325000D01*
X116000000Y-97050000D02*
X116525000Y-96525000D01*
X116525000Y-93325000D02*
X116100000Y-92900000D01*
X116000000Y-97650000D02*
X116000000Y-97050000D01*
X130100000Y-87850000D02*
X117550000Y-87850000D01*
X117550000Y-87850000D02*
X115850000Y-86150000D01*
X137650000Y-95400000D02*
X130100000Y-87850000D01*
X145200000Y-95400000D02*
X137650000Y-95400000D01*
X113100000Y-110100000D02*
X113100000Y-110100000D01*
X116250000Y-112350000D02*
X114000000Y-110100000D01*
X141800000Y-112350000D02*
X116250000Y-112350000D01*
X144400000Y-109750000D02*
X141800000Y-112350000D01*
X144400000Y-105800000D02*
X144400000Y-109750000D01*
X114000000Y-110100000D02*
X113100000Y-110100000D01*
X113100000Y-108500000D02*
X113100000Y-108500000D01*
X143150000Y-106250000D02*
X143150000Y-109800000D01*
X116650000Y-111550000D02*
X113599988Y-108499988D01*
X143150000Y-109800000D02*
X141400000Y-111550000D01*
X141400000Y-111550000D02*
X116650000Y-111550000D01*
X143600000Y-105800000D02*
X143150000Y-106250000D01*
X113100012Y-108499988D02*
X113100000Y-108500000D01*
X113599988Y-108499988D02*
X113100012Y-108499988D01*
X144000000Y-109550000D02*
X141600000Y-111950000D01*
X116450000Y-111950000D02*
X113800000Y-109300000D01*
X144000000Y-105400000D02*
X144000000Y-109550000D01*
X141600000Y-111950000D02*
X116450000Y-111950000D01*
X144400000Y-105000000D02*
X144000000Y-105400000D01*
X113800000Y-109300000D02*
X112850000Y-109300000D01*
X142750000Y-109625000D02*
X141225000Y-111150000D01*
X116850000Y-111150000D02*
X113400000Y-107700000D01*
X141225000Y-111150000D02*
X116850000Y-111150000D01*
X142750000Y-105850000D02*
X142750000Y-109625000D01*
X143600000Y-105000000D02*
X142750000Y-105850000D01*
X113400000Y-107700000D02*
X112850000Y-107700000D01*
X113100000Y-118100000D02*
X113100000Y-118100000D01*
X146000000Y-110550000D02*
X142600000Y-113950000D01*
X142600000Y-113950000D02*
X117675000Y-113950000D01*
X146000000Y-104200000D02*
X146000000Y-110550000D01*
X113525000Y-118100000D02*
X113100000Y-118100000D01*
X117675000Y-113950000D02*
X113525000Y-118100000D01*
X145200000Y-103400000D02*
X146000000Y-104200000D01*
X113100000Y-116500000D02*
X113100000Y-116500000D01*
X113925000Y-116500000D02*
X113100000Y-116500000D01*
X117275000Y-113150000D02*
X113925000Y-116500000D01*
X145200000Y-110150000D02*
X142200000Y-113150000D01*
X142200000Y-113150000D02*
X117275000Y-113150000D01*
X145200000Y-105000000D02*
X145200000Y-110150000D01*
X117475000Y-113550000D02*
X113725000Y-117300000D01*
X142400000Y-113550000D02*
X117475000Y-113550000D01*
X145600000Y-104600000D02*
X145600000Y-110350000D01*
X113725000Y-117300000D02*
X112850000Y-117300000D01*
X145600000Y-110350000D02*
X142400000Y-113550000D01*
X145200000Y-104200000D02*
X145600000Y-104600000D01*
X144800000Y-109950000D02*
X142000000Y-112750000D01*
X117062500Y-112750000D02*
X114112500Y-115700000D01*
X114112500Y-115700000D02*
X112850000Y-115700000D01*
X142000000Y-112750000D02*
X117062500Y-112750000D01*
X144800000Y-103800000D02*
X144800000Y-109950000D01*
X144400000Y-103400000D02*
X144800000Y-103800000D01*
X149200000Y-95400000D02*
X149200000Y-81400000D01*
X149200000Y-81400000D02*
X151199992Y-79400008D01*
X151199992Y-79400008D02*
X151199992Y-79400000D01*
X189375000Y-93525000D02*
X189375000Y-83880000D01*
X189375000Y-83880000D02*
X190645000Y-82610000D01*
X154650000Y-111400000D02*
X171500000Y-111400000D01*
X171500000Y-111400000D02*
X189375000Y-93525000D01*
X152000000Y-108750000D02*
X154650000Y-111400000D01*
X152000000Y-104600000D02*
X152000000Y-108750000D01*
X151600000Y-104200000D02*
X152000000Y-104600000D01*
X171700000Y-111800000D02*
X190645000Y-92855000D01*
X154450000Y-111800000D02*
X171700000Y-111800000D01*
X190645000Y-92855000D02*
X190645000Y-85150000D01*
X151600000Y-108950000D02*
X154450000Y-111800000D01*
X151600000Y-105000000D02*
X151600000Y-108950000D01*
X186825000Y-94875000D02*
X186825000Y-83890000D01*
X171100000Y-110600000D02*
X186825000Y-94875000D01*
X155050000Y-110600000D02*
X171100000Y-110600000D01*
X152800000Y-108350000D02*
X155050000Y-110600000D01*
X186825000Y-83890000D02*
X188105000Y-82610000D01*
X152800000Y-104600000D02*
X152800000Y-108350000D01*
X152400000Y-104200000D02*
X152800000Y-104600000D01*
X171300000Y-111000000D02*
X188105000Y-94195000D01*
X152400000Y-108550000D02*
X154850000Y-111000000D01*
X188105000Y-94195000D02*
X188105000Y-85150000D01*
X154850000Y-111000000D02*
X171300000Y-111000000D01*
X152400000Y-105000000D02*
X152400000Y-108550000D01*
X184300000Y-96175000D02*
X184300000Y-83875000D01*
X170675000Y-109800000D02*
X184300000Y-96175000D01*
X155400000Y-109800000D02*
X170675000Y-109800000D01*
X153600000Y-108000000D02*
X155400000Y-109800000D01*
X153600000Y-104600000D02*
X153600000Y-108000000D01*
X184300000Y-83875000D02*
X185565000Y-82610000D01*
X153200000Y-104200000D02*
X153600000Y-104600000D01*
X155225000Y-110200000D02*
X170900000Y-110200000D01*
X185565000Y-95535000D02*
X185565000Y-85150000D01*
X153200000Y-108175000D02*
X155225000Y-110200000D01*
X170900000Y-110200000D02*
X185565000Y-95535000D01*
X153200000Y-105000000D02*
X153200000Y-108175000D01*
X181750000Y-97550000D02*
X181750000Y-83885000D01*
X170300000Y-109000000D02*
X181750000Y-97550000D01*
X154000000Y-104200000D02*
X154400000Y-104600000D01*
X154400000Y-104600000D02*
X154400000Y-107600000D01*
X155800000Y-109000000D02*
X170300000Y-109000000D01*
X181750000Y-83885000D02*
X183025000Y-82610000D01*
X154400000Y-107600000D02*
X155800000Y-109000000D01*
X170500000Y-109400000D02*
X183025000Y-96875000D01*
X155600000Y-109400000D02*
X170500000Y-109400000D01*
X183025000Y-96875000D02*
X183025000Y-85150000D01*
X154000000Y-107800000D02*
X155600000Y-109400000D01*
X154000000Y-105000000D02*
X154000000Y-107800000D01*
D21*
X199823000Y-129823000D02*
X193927000Y-129823000D01*
X193927000Y-123508692D01*
X193927856Y-123500000D01*
X193924439Y-123465302D01*
X193914318Y-123431937D01*
X193897882Y-123401189D01*
X193875763Y-123374237D01*
X193848811Y-123352118D01*
X193818063Y-123335682D01*
X193784698Y-123325561D01*
X193758692Y-123323000D01*
X193750000Y-123322144D01*
X193741308Y-123323000D01*
X193377000Y-123323000D01*
X193377000Y-123138795D01*
X196000000Y-123138795D01*
X196024776Y-123136355D01*
X196048601Y-123129128D01*
X196070557Y-123117392D01*
X196089803Y-123101598D01*
X196105597Y-123082352D01*
X196117333Y-123060396D01*
X196124560Y-123036571D01*
X196127000Y-123011795D01*
X196127000Y-103638795D01*
X199823001Y-103638795D01*
X199823000Y-129823000D01*
G04 #@! TA.AperFunction,Conductor*
D22*
G36*
X199823000Y-129823000D02*
G01*
X193927000Y-129823000D01*
X193927000Y-123508692D01*
X193927856Y-123500000D01*
X193924439Y-123465302D01*
X193914318Y-123431937D01*
X193897882Y-123401189D01*
X193875763Y-123374237D01*
X193848811Y-123352118D01*
X193818063Y-123335682D01*
X193784698Y-123325561D01*
X193758692Y-123323000D01*
X193750000Y-123322144D01*
X193741308Y-123323000D01*
X193377000Y-123323000D01*
X193377000Y-123138795D01*
X196000000Y-123138795D01*
X196024776Y-123136355D01*
X196048601Y-123129128D01*
X196070557Y-123117392D01*
X196089803Y-123101598D01*
X196105597Y-123082352D01*
X196117333Y-123060396D01*
X196124560Y-123036571D01*
X196127000Y-123011795D01*
X196127000Y-103638795D01*
X199823001Y-103638795D01*
X199823000Y-129823000D01*
G37*
G04 #@! TD.AperFunction*
D21*
X103873000Y-123000000D02*
X103875440Y-123024776D01*
X103882667Y-123048601D01*
X103894403Y-123070557D01*
X103910197Y-123089803D01*
X103929443Y-123105597D01*
X103951399Y-123117333D01*
X103975224Y-123124560D01*
X104000000Y-123127000D01*
X106623000Y-123127000D01*
X106623000Y-123323000D01*
X106258692Y-123323000D01*
X106250000Y-123322144D01*
X106241308Y-123323000D01*
X106215302Y-123325561D01*
X106181937Y-123335682D01*
X106151189Y-123352118D01*
X106124237Y-123374237D01*
X106102118Y-123401189D01*
X106085682Y-123431937D01*
X106075561Y-123465302D01*
X106072144Y-123500000D01*
X106073000Y-123508692D01*
X106073001Y-129823000D01*
X100177000Y-129823000D01*
X100177000Y-103627000D01*
X103873000Y-103627000D01*
X103873000Y-123000000D01*
G04 #@! TA.AperFunction,Conductor*
D22*
G36*
X103873000Y-123000000D02*
G01*
X103875440Y-123024776D01*
X103882667Y-123048601D01*
X103894403Y-123070557D01*
X103910197Y-123089803D01*
X103929443Y-123105597D01*
X103951399Y-123117333D01*
X103975224Y-123124560D01*
X104000000Y-123127000D01*
X106623000Y-123127000D01*
X106623000Y-123323000D01*
X106258692Y-123323000D01*
X106250000Y-123322144D01*
X106241308Y-123323000D01*
X106215302Y-123325561D01*
X106181937Y-123335682D01*
X106151189Y-123352118D01*
X106124237Y-123374237D01*
X106102118Y-123401189D01*
X106085682Y-123431937D01*
X106075561Y-123465302D01*
X106072144Y-123500000D01*
X106073000Y-123508692D01*
X106073001Y-129823000D01*
X100177000Y-129823000D01*
X100177000Y-103627000D01*
X103873000Y-103627000D01*
X103873000Y-123000000D01*
G37*
G04 #@! TD.AperFunction*
M02*
