G04 #@! TF.GenerationSoftware,KiCad,Pcbnew,(5.1.9-0-10_14)*
G04 #@! TF.CreationDate,2021-01-29T20:41:04-08:00*
G04 #@! TF.ProjectId,cart-ecp5,63617274-2d65-4637-9035-2e6b69636164,rev?*
G04 #@! TF.SameCoordinates,Original*
G04 #@! TF.FileFunction,Profile,NP*
%FSLAX46Y46*%
G04 Gerber Fmt 4.6, Leading zero omitted, Abs format (unit mm)*
G04 Created by KiCad (PCBNEW (5.1.9-0-10_14)) date 2021-01-29 20:41:04*
%MOMM*%
%LPD*%
G01*
G04 APERTURE LIST*
G04 #@! TA.AperFunction,Profile*
%ADD10C,0.100000*%
G04 #@! TD*
G04 APERTURE END LIST*
D10*
X182250000Y-133000000D02*
G75*
G02*
X181250000Y-134000000I-1000000J0D01*
G01*
X117750000Y-133000000D02*
G75*
G03*
X118750000Y-134000000I1000000J0D01*
G01*
X193750000Y-123500000D02*
X193750000Y-130000000D01*
X100800000Y-76500000D02*
X100800000Y-74000000D01*
X100000000Y-76500000D02*
X100800000Y-76500000D01*
X199500000Y-74000000D02*
X199500000Y-95500000D01*
X199500000Y-95500000D02*
X196900000Y-95500000D01*
X199500000Y-97000000D02*
X196900000Y-97000000D01*
X196900000Y-97000000D02*
X196900000Y-95500000D01*
X199500000Y-97000000D02*
X199500000Y-103000000D01*
X100800000Y-74000000D02*
X199500000Y-74000000D01*
X100000000Y-97000000D02*
X100000000Y-76500000D01*
X103500000Y-97000000D02*
X100000000Y-97000000D01*
X103500000Y-98500000D02*
X103500000Y-97000000D01*
X101000000Y-98500000D02*
X103500000Y-98500000D01*
X101000000Y-101500000D02*
X101000000Y-98500000D01*
X100000000Y-101500000D02*
X101000000Y-101500000D01*
X200000000Y-103000000D02*
X199500000Y-103000000D01*
X200000000Y-130000000D02*
X200000000Y-103000000D01*
X200000000Y-130000000D02*
X193750000Y-130000000D01*
X193750000Y-123500000D02*
X182250000Y-123500000D01*
X182250000Y-133000000D02*
X182250000Y-123500000D01*
X100000000Y-130000000D02*
X100000000Y-101500000D01*
X106250000Y-130000000D02*
X100000000Y-130000000D01*
X106250000Y-123500000D02*
X106250000Y-130000000D01*
X117750000Y-123500000D02*
X106250000Y-123500000D01*
X117750000Y-133000000D02*
X117750000Y-123500000D01*
X181250000Y-134000000D02*
X118750000Y-134000000D01*
M02*
