M48
; DRILL file {KiCad (5.1.9-0-10_14)} date Friday, January 29, 2021 at 08:41:08 PM
; FORMAT={-:-/ absolute / inch / decimal}
; #@! TF.CreationDate,2021-01-29T20:41:08-08:00
; #@! TF.GenerationSoftware,Kicad,Pcbnew,(5.1.9-0-10_14)
; #@! TF.FileFunction,Plated,1,4,PTH
FMAT,2
INCH
T1C0.0079
T2C0.0118
T3C0.0236
T4C0.0394
T5C0.0984
%
G90
G05
T1
X3.9764Y-4.3701
X3.9764Y-4.8327
X4.0157Y-4.3701
X4.0157Y-4.8327
X4.0551Y-4.3701
X4.0551Y-4.8327
X4.0984Y-3.0896
X4.0984Y-3.1132
X4.0984Y-3.2018
X4.1791Y-3.5689
X4.1791Y-3.6083
X4.2008Y-3.0285
X4.2008Y-3.0522
X4.2283Y-4.126
X4.2283Y-4.7638
X4.2461Y-3.3976
X4.2461Y-3.4213
X4.248Y-3.7362
X4.248Y-3.7598
X4.2972Y-3.2254
X4.2972Y-3.249
X4.311Y-3.3504
X4.3346Y-3.3504
X4.3425Y-3.8169
X4.3425Y-4.0531
X4.3484Y-3.0876
X4.3583Y-3.624
X4.372Y-3.0876
X4.372Y-3.4961
X4.372Y-3.6772
X4.374Y-3.3642
X4.3799Y-3.7362
X4.3957Y-3.1722
X4.3957Y-3.1959
X4.4055Y-3.937
X4.4075Y-4.0276
X4.4134Y-3.3642
X4.4213Y-3.1841
X4.4213Y-3.2077
X4.4429Y-4.2402
X4.4429Y-4.3031
X4.4429Y-4.5551
X4.4429Y-4.6181
X4.4528Y-4.2717
X4.4528Y-4.3346
X4.4528Y-4.5866
X4.4528Y-4.6496
X4.4592Y-3.6274
X4.4724Y-3.1939
X4.4724Y-3.1152
X4.4759Y-3.6107
X4.4803Y-3.687
X4.4803Y-3.8445
X4.4823Y-3.5492
X4.4921Y-3.4528
X4.501Y-3.9508
X4.56Y-3.9941
X4.561Y-3.3917
X4.5669Y-3.0423
X4.5669Y-3.247
X4.5669Y-3.687
X4.5669Y-3.8445
X4.5669Y-3.0659
X4.5669Y-3.2707
X4.5689Y-3.5492
X4.5709Y-3.6053
X4.5709Y-3.6575
X4.5797Y-4.0541
X4.6083Y-3.5
X4.6161Y-3.998
X4.6339Y-3.3937
X4.6378Y-3.5886
X4.6417Y-3.1427
X4.6476Y-3.8366
X4.6555Y-3.5512
X4.6634Y-3.1476
X4.6644Y-4.2874
X4.6732Y-3.3937
X4.6949Y-3.998
X4.7008Y-3.0344
X4.7008Y-3.2431
X4.7008Y-3.0581
X4.7008Y-3.2667
X4.7146Y-3.8425
X4.7264Y-3.0463
X4.7264Y-3.2549
X4.7264Y-3.0699
X4.7264Y-3.2785
X4.7343Y-4.0
X4.752Y-3.8307
X4.7539Y-3.3937
X4.7539Y-3.4803
X4.7736Y-3.998
X4.7756Y-3.8307
X4.8091Y-3.2175
X4.813Y-3.8425
X4.8327Y-3.2175
X4.8327Y-3.8169
X4.8524Y-3.3937
X4.8524Y-3.4803
X4.8524Y-3.9065
X4.8524Y-4.0
X4.872Y-3.8425
X4.8819Y-3.0463
X4.8917Y-3.5512
X4.8917Y-3.998
X4.9055Y-3.0463
X4.9114Y-3.8248
X4.9291Y-3.687
X4.9311Y-3.125
X4.9311Y-3.998
X4.9311Y-3.1486
X4.9567Y-3.1368
X4.9567Y-3.1604
X4.9897Y-4.5595
X4.9921Y-3.5374
X5.0Y-3.5689
X5.0Y-3.7854
X5.0207Y-4.5413
X5.031Y-4.5773
X5.0453Y-4.5236
X5.0817Y-3.1024
X5.0817Y-3.3031
X5.0866Y-3.5689
X5.0866Y-3.7854
X5.0896Y-4.1378
X5.0896Y-4.1772
X5.0896Y-4.248
X5.1181Y-4.9469
X5.2008Y-4.6319
X5.2008Y-4.9272
X5.2028Y-4.1949
X5.2047Y-4.0827
X5.2047Y-4.1063
X5.2323Y-4.9488
X5.2638Y-4.6319
X5.3071Y-4.0236
X5.3071Y-4.0472
X5.315Y-4.9469
X5.3799Y-3.3031
X5.3898Y-4.6319
X5.3898Y-4.9272
X5.3927Y-3.0906
X5.3996Y-4.2185
X5.3996Y-4.2421
X5.4213Y-4.6319
X5.4213Y-4.9488
X5.4469Y-4.0266
X5.4547Y-4.0807
X5.4783Y-4.0807
X5.502Y-4.1654
X5.502Y-4.189
X5.5059Y-4.0089
X5.5276Y-4.1772
X5.5276Y-4.2008
X5.5502Y-3.9478
X5.6102Y-4.9272
X5.6417Y-4.9488
X5.6457Y-3.9606
X5.6457Y-3.8661
X5.6535Y-4.1969
X5.6535Y-3.6929
X5.6535Y-4.1339
X5.6535Y-4.1654
X5.6732Y-4.9272
X5.685Y-4.0709
X5.685Y-4.1024
X5.685Y-4.1339
X5.685Y-4.1654
X5.7047Y-4.9488
X5.7165Y-3.7559
X5.7165Y-3.8189
X5.7165Y-4.0709
X5.7165Y-4.1024
X5.7165Y-4.1339
X5.748Y-3.8504
X5.7953Y-3.685
X5.811Y-3.5177
X5.811Y-3.7874
X5.811Y-3.9764
X5.8425Y-3.7244
X5.8425Y-3.7559
X5.8425Y-3.7874
X5.8425Y-3.8504
X5.8425Y-3.8819
X5.8425Y-3.9134
X5.8425Y-3.9449
X5.8425Y-3.9764
X5.8425Y-4.0394
X5.8484Y-3.4596
X5.874Y-3.7559
X5.874Y-3.7874
X5.874Y-3.8504
X5.874Y-4.0079
X5.8898Y-3.623
X5.9055Y-3.8504
X5.9055Y-4.0079
X5.9213Y-3.6457
X5.9213Y-3.687
X5.9244Y-3.3791
X5.9311Y-3.3031
X5.937Y-3.4843
X5.937Y-3.5236
X5.937Y-3.7874
X5.937Y-3.8189
X5.937Y-3.8504
X5.937Y-3.8819
X5.937Y-3.9134
X5.937Y-3.9449
X5.937Y-3.9764
X5.937Y-4.0079
X5.9528Y-3.126
X5.9528Y-3.6457
X5.9685Y-3.7874
X5.9685Y-3.8504
X5.9685Y-4.1024
X5.9685Y-4.1339
X5.9744Y-3.2539
X5.9744Y-3.2047
X6.0Y-3.4596
X6.0Y-4.0394
X6.0Y-4.1024
X6.0Y-4.1339
X6.0Y-3.8504
X6.0039Y-4.9272
X6.0157Y-3.685
X6.0315Y-4.1024
X6.0315Y-4.1339
X6.0354Y-4.9488
X6.0571Y-3.1476
X6.063Y-4.1024
X6.063Y-4.1339
X6.0669Y-4.9272
X6.0748Y-3.4016
X6.0945Y-3.8189
X6.0984Y-4.9488
X6.1142Y-3.4596
X6.126Y-4.0709
X6.1417Y-4.2047
X6.1427Y-3.1437
X6.1457Y-3.252
X6.1654Y-3.7067
X6.1654Y-3.9606
X6.2008Y-4.9272
X6.2244Y-3.5581
X6.2323Y-4.9488
X6.2618Y-3.2894
X6.2874Y-2.9911
X6.3337Y-3.625
X6.3661Y-4.9488
X6.3681Y-3.1614
X6.3839Y-3.2894
X6.3878Y-3.0197
X6.3878Y-3.0827
X6.3907Y-3.4961
X6.3976Y-3.0512
X6.3976Y-3.1142
X6.3976Y-4.9272
X6.4341Y-3.5315
X6.4341Y-3.5709
X6.4409Y-3.313
X6.4449Y-4.1181
X6.4449Y-4.1575
X6.4843Y-2.9606
X6.4961Y-4.9272
X6.5177Y-3.376
X6.5276Y-3.9803
X6.5276Y-4.0197
X6.5276Y-4.9488
X6.5333Y-2.9978
X6.5669Y-4.0984
X6.5669Y-4.1378
X6.5766Y-2.998
X6.5768Y-3.7323
X6.5768Y-3.7559
X6.6024Y-3.7205
X6.6024Y-3.7441
X6.6201Y-3.0177
X6.624Y-3.8327
X6.6476Y-3.8327
X6.6614Y-4.9469
X6.6634Y-2.998
X6.6929Y-4.9272
X6.7028Y-3.6634
X6.7028Y-3.687
X6.75Y-2.998
X6.7913Y-4.9272
X6.7933Y-3.0177
X6.7953Y-3.8543
X6.7953Y-3.878
X6.8228Y-4.9469
X6.8366Y-2.998
X6.8524Y-3.374
X6.8543Y-4.9272
X6.8701Y-3.0197
X6.8858Y-4.9469
X6.8976Y-3.7126
X6.8976Y-3.7992
X6.8976Y-3.8228
X7.7559Y-4.3701
X7.7559Y-4.8327
X7.7953Y-4.3701
X7.7953Y-4.8327
X7.8346Y-4.3701
X7.8346Y-4.8327
T2
X4.7648Y-4.9469
X4.7835Y-3.5856
X4.9213Y-4.9469
X5.0197Y-4.9469
X5.5118Y-4.9488
X6.2244Y-4.2283
X6.2992Y-4.9488
X6.5945Y-4.9469
X6.9882Y-4.9469
X7.0463Y-4.9469
T4
X5.6437Y-3.0797
X5.7437Y-3.0797
X7.2057Y-3.2524
X7.2057Y-3.3524
X7.3057Y-3.2524
X7.3057Y-3.3524
X7.4057Y-3.2524
X7.4057Y-3.3524
X7.5057Y-3.2524
X7.5057Y-3.3524
X7.6057Y-3.2524
X7.6057Y-3.3524
X7.7057Y-3.2524
X7.7057Y-3.3524
T5
X4.0394Y-4.9843
X7.7717Y-4.9843
T3
G00X4.0335Y-3.4087
M15
G01X4.0098Y-3.4087
M16
G05
G00X4.0335Y-3.7488
M15
G01X4.0098Y-3.7488
M16
G05
G00X4.2079Y-3.4087
M15
G01X4.1646Y-3.4087
M16
G05
G00X4.2079Y-3.7488
M15
G01X4.1646Y-3.7488
M16
G05
T0
M30
