G04 #@! TF.GenerationSoftware,KiCad,Pcbnew,(5.1.5-0-10_14)*
G04 #@! TF.CreationDate,2020-05-05T19:23:22-07:00*
G04 #@! TF.ProjectId,N64 Mask ROM Breakout,4e363420-4d61-4736-9b20-524f4d204272,rev?*
G04 #@! TF.SameCoordinates,Original*
G04 #@! TF.FileFunction,Soldermask,Top*
G04 #@! TF.FilePolarity,Negative*
%FSLAX46Y46*%
G04 Gerber Fmt 4.6, Leading zero omitted, Abs format (unit mm)*
G04 Created by KiCad (PCBNEW (5.1.5-0-10_14)) date 2020-05-05 19:23:22*
%MOMM*%
%LPD*%
G04 APERTURE LIST*
%ADD10C,0.100000*%
G04 APERTURE END LIST*
D10*
G36*
X165213512Y-121943927D02*
G01*
X165362812Y-121973624D01*
X165526784Y-122041544D01*
X165674354Y-122140147D01*
X165799853Y-122265646D01*
X165898456Y-122413216D01*
X165966376Y-122577188D01*
X166001000Y-122751259D01*
X166001000Y-122928741D01*
X165966376Y-123102812D01*
X165898456Y-123266784D01*
X165799853Y-123414354D01*
X165674354Y-123539853D01*
X165526784Y-123638456D01*
X165362812Y-123706376D01*
X165213512Y-123736073D01*
X165188742Y-123741000D01*
X165011258Y-123741000D01*
X164986488Y-123736073D01*
X164837188Y-123706376D01*
X164673216Y-123638456D01*
X164525646Y-123539853D01*
X164400147Y-123414354D01*
X164301544Y-123266784D01*
X164233624Y-123102812D01*
X164199000Y-122928741D01*
X164199000Y-122751259D01*
X164233624Y-122577188D01*
X164301544Y-122413216D01*
X164400147Y-122265646D01*
X164525646Y-122140147D01*
X164673216Y-122041544D01*
X164837188Y-121973624D01*
X164986488Y-121943927D01*
X165011258Y-121939000D01*
X165188742Y-121939000D01*
X165213512Y-121943927D01*
G37*
G36*
X162673512Y-121943927D02*
G01*
X162822812Y-121973624D01*
X162986784Y-122041544D01*
X163134354Y-122140147D01*
X163259853Y-122265646D01*
X163358456Y-122413216D01*
X163426376Y-122577188D01*
X163461000Y-122751259D01*
X163461000Y-122928741D01*
X163426376Y-123102812D01*
X163358456Y-123266784D01*
X163259853Y-123414354D01*
X163134354Y-123539853D01*
X162986784Y-123638456D01*
X162822812Y-123706376D01*
X162673512Y-123736073D01*
X162648742Y-123741000D01*
X162471258Y-123741000D01*
X162446488Y-123736073D01*
X162297188Y-123706376D01*
X162133216Y-123638456D01*
X161985646Y-123539853D01*
X161860147Y-123414354D01*
X161761544Y-123266784D01*
X161693624Y-123102812D01*
X161659000Y-122928741D01*
X161659000Y-122751259D01*
X161693624Y-122577188D01*
X161761544Y-122413216D01*
X161860147Y-122265646D01*
X161985646Y-122140147D01*
X162133216Y-122041544D01*
X162297188Y-121973624D01*
X162446488Y-121943927D01*
X162471258Y-121939000D01*
X162648742Y-121939000D01*
X162673512Y-121943927D01*
G37*
G36*
X160133512Y-121943927D02*
G01*
X160282812Y-121973624D01*
X160446784Y-122041544D01*
X160594354Y-122140147D01*
X160719853Y-122265646D01*
X160818456Y-122413216D01*
X160886376Y-122577188D01*
X160921000Y-122751259D01*
X160921000Y-122928741D01*
X160886376Y-123102812D01*
X160818456Y-123266784D01*
X160719853Y-123414354D01*
X160594354Y-123539853D01*
X160446784Y-123638456D01*
X160282812Y-123706376D01*
X160133512Y-123736073D01*
X160108742Y-123741000D01*
X159931258Y-123741000D01*
X159906488Y-123736073D01*
X159757188Y-123706376D01*
X159593216Y-123638456D01*
X159445646Y-123539853D01*
X159320147Y-123414354D01*
X159221544Y-123266784D01*
X159153624Y-123102812D01*
X159119000Y-122928741D01*
X159119000Y-122751259D01*
X159153624Y-122577188D01*
X159221544Y-122413216D01*
X159320147Y-122265646D01*
X159445646Y-122140147D01*
X159593216Y-122041544D01*
X159757188Y-121973624D01*
X159906488Y-121943927D01*
X159931258Y-121939000D01*
X160108742Y-121939000D01*
X160133512Y-121943927D01*
G37*
G36*
X157593512Y-121943927D02*
G01*
X157742812Y-121973624D01*
X157906784Y-122041544D01*
X158054354Y-122140147D01*
X158179853Y-122265646D01*
X158278456Y-122413216D01*
X158346376Y-122577188D01*
X158381000Y-122751259D01*
X158381000Y-122928741D01*
X158346376Y-123102812D01*
X158278456Y-123266784D01*
X158179853Y-123414354D01*
X158054354Y-123539853D01*
X157906784Y-123638456D01*
X157742812Y-123706376D01*
X157593512Y-123736073D01*
X157568742Y-123741000D01*
X157391258Y-123741000D01*
X157366488Y-123736073D01*
X157217188Y-123706376D01*
X157053216Y-123638456D01*
X156905646Y-123539853D01*
X156780147Y-123414354D01*
X156681544Y-123266784D01*
X156613624Y-123102812D01*
X156579000Y-122928741D01*
X156579000Y-122751259D01*
X156613624Y-122577188D01*
X156681544Y-122413216D01*
X156780147Y-122265646D01*
X156905646Y-122140147D01*
X157053216Y-122041544D01*
X157217188Y-121973624D01*
X157366488Y-121943927D01*
X157391258Y-121939000D01*
X157568742Y-121939000D01*
X157593512Y-121943927D01*
G37*
G36*
X155053512Y-121943927D02*
G01*
X155202812Y-121973624D01*
X155366784Y-122041544D01*
X155514354Y-122140147D01*
X155639853Y-122265646D01*
X155738456Y-122413216D01*
X155806376Y-122577188D01*
X155841000Y-122751259D01*
X155841000Y-122928741D01*
X155806376Y-123102812D01*
X155738456Y-123266784D01*
X155639853Y-123414354D01*
X155514354Y-123539853D01*
X155366784Y-123638456D01*
X155202812Y-123706376D01*
X155053512Y-123736073D01*
X155028742Y-123741000D01*
X154851258Y-123741000D01*
X154826488Y-123736073D01*
X154677188Y-123706376D01*
X154513216Y-123638456D01*
X154365646Y-123539853D01*
X154240147Y-123414354D01*
X154141544Y-123266784D01*
X154073624Y-123102812D01*
X154039000Y-122928741D01*
X154039000Y-122751259D01*
X154073624Y-122577188D01*
X154141544Y-122413216D01*
X154240147Y-122265646D01*
X154365646Y-122140147D01*
X154513216Y-122041544D01*
X154677188Y-121973624D01*
X154826488Y-121943927D01*
X154851258Y-121939000D01*
X155028742Y-121939000D01*
X155053512Y-121943927D01*
G37*
G36*
X152513512Y-121943927D02*
G01*
X152662812Y-121973624D01*
X152826784Y-122041544D01*
X152974354Y-122140147D01*
X153099853Y-122265646D01*
X153198456Y-122413216D01*
X153266376Y-122577188D01*
X153301000Y-122751259D01*
X153301000Y-122928741D01*
X153266376Y-123102812D01*
X153198456Y-123266784D01*
X153099853Y-123414354D01*
X152974354Y-123539853D01*
X152826784Y-123638456D01*
X152662812Y-123706376D01*
X152513512Y-123736073D01*
X152488742Y-123741000D01*
X152311258Y-123741000D01*
X152286488Y-123736073D01*
X152137188Y-123706376D01*
X151973216Y-123638456D01*
X151825646Y-123539853D01*
X151700147Y-123414354D01*
X151601544Y-123266784D01*
X151533624Y-123102812D01*
X151499000Y-122928741D01*
X151499000Y-122751259D01*
X151533624Y-122577188D01*
X151601544Y-122413216D01*
X151700147Y-122265646D01*
X151825646Y-122140147D01*
X151973216Y-122041544D01*
X152137188Y-121973624D01*
X152286488Y-121943927D01*
X152311258Y-121939000D01*
X152488742Y-121939000D01*
X152513512Y-121943927D01*
G37*
G36*
X149973512Y-121943927D02*
G01*
X150122812Y-121973624D01*
X150286784Y-122041544D01*
X150434354Y-122140147D01*
X150559853Y-122265646D01*
X150658456Y-122413216D01*
X150726376Y-122577188D01*
X150761000Y-122751259D01*
X150761000Y-122928741D01*
X150726376Y-123102812D01*
X150658456Y-123266784D01*
X150559853Y-123414354D01*
X150434354Y-123539853D01*
X150286784Y-123638456D01*
X150122812Y-123706376D01*
X149973512Y-123736073D01*
X149948742Y-123741000D01*
X149771258Y-123741000D01*
X149746488Y-123736073D01*
X149597188Y-123706376D01*
X149433216Y-123638456D01*
X149285646Y-123539853D01*
X149160147Y-123414354D01*
X149061544Y-123266784D01*
X148993624Y-123102812D01*
X148959000Y-122928741D01*
X148959000Y-122751259D01*
X148993624Y-122577188D01*
X149061544Y-122413216D01*
X149160147Y-122265646D01*
X149285646Y-122140147D01*
X149433216Y-122041544D01*
X149597188Y-121973624D01*
X149746488Y-121943927D01*
X149771258Y-121939000D01*
X149948742Y-121939000D01*
X149973512Y-121943927D01*
G37*
G36*
X147433512Y-121943927D02*
G01*
X147582812Y-121973624D01*
X147746784Y-122041544D01*
X147894354Y-122140147D01*
X148019853Y-122265646D01*
X148118456Y-122413216D01*
X148186376Y-122577188D01*
X148221000Y-122751259D01*
X148221000Y-122928741D01*
X148186376Y-123102812D01*
X148118456Y-123266784D01*
X148019853Y-123414354D01*
X147894354Y-123539853D01*
X147746784Y-123638456D01*
X147582812Y-123706376D01*
X147433512Y-123736073D01*
X147408742Y-123741000D01*
X147231258Y-123741000D01*
X147206488Y-123736073D01*
X147057188Y-123706376D01*
X146893216Y-123638456D01*
X146745646Y-123539853D01*
X146620147Y-123414354D01*
X146521544Y-123266784D01*
X146453624Y-123102812D01*
X146419000Y-122928741D01*
X146419000Y-122751259D01*
X146453624Y-122577188D01*
X146521544Y-122413216D01*
X146620147Y-122265646D01*
X146745646Y-122140147D01*
X146893216Y-122041544D01*
X147057188Y-121973624D01*
X147206488Y-121943927D01*
X147231258Y-121939000D01*
X147408742Y-121939000D01*
X147433512Y-121943927D01*
G37*
G36*
X144893512Y-121943927D02*
G01*
X145042812Y-121973624D01*
X145206784Y-122041544D01*
X145354354Y-122140147D01*
X145479853Y-122265646D01*
X145578456Y-122413216D01*
X145646376Y-122577188D01*
X145681000Y-122751259D01*
X145681000Y-122928741D01*
X145646376Y-123102812D01*
X145578456Y-123266784D01*
X145479853Y-123414354D01*
X145354354Y-123539853D01*
X145206784Y-123638456D01*
X145042812Y-123706376D01*
X144893512Y-123736073D01*
X144868742Y-123741000D01*
X144691258Y-123741000D01*
X144666488Y-123736073D01*
X144517188Y-123706376D01*
X144353216Y-123638456D01*
X144205646Y-123539853D01*
X144080147Y-123414354D01*
X143981544Y-123266784D01*
X143913624Y-123102812D01*
X143879000Y-122928741D01*
X143879000Y-122751259D01*
X143913624Y-122577188D01*
X143981544Y-122413216D01*
X144080147Y-122265646D01*
X144205646Y-122140147D01*
X144353216Y-122041544D01*
X144517188Y-121973624D01*
X144666488Y-121943927D01*
X144691258Y-121939000D01*
X144868742Y-121939000D01*
X144893512Y-121943927D01*
G37*
G36*
X142353512Y-121943927D02*
G01*
X142502812Y-121973624D01*
X142666784Y-122041544D01*
X142814354Y-122140147D01*
X142939853Y-122265646D01*
X143038456Y-122413216D01*
X143106376Y-122577188D01*
X143141000Y-122751259D01*
X143141000Y-122928741D01*
X143106376Y-123102812D01*
X143038456Y-123266784D01*
X142939853Y-123414354D01*
X142814354Y-123539853D01*
X142666784Y-123638456D01*
X142502812Y-123706376D01*
X142353512Y-123736073D01*
X142328742Y-123741000D01*
X142151258Y-123741000D01*
X142126488Y-123736073D01*
X141977188Y-123706376D01*
X141813216Y-123638456D01*
X141665646Y-123539853D01*
X141540147Y-123414354D01*
X141441544Y-123266784D01*
X141373624Y-123102812D01*
X141339000Y-122928741D01*
X141339000Y-122751259D01*
X141373624Y-122577188D01*
X141441544Y-122413216D01*
X141540147Y-122265646D01*
X141665646Y-122140147D01*
X141813216Y-122041544D01*
X141977188Y-121973624D01*
X142126488Y-121943927D01*
X142151258Y-121939000D01*
X142328742Y-121939000D01*
X142353512Y-121943927D01*
G37*
G36*
X139813512Y-121943927D02*
G01*
X139962812Y-121973624D01*
X140126784Y-122041544D01*
X140274354Y-122140147D01*
X140399853Y-122265646D01*
X140498456Y-122413216D01*
X140566376Y-122577188D01*
X140601000Y-122751259D01*
X140601000Y-122928741D01*
X140566376Y-123102812D01*
X140498456Y-123266784D01*
X140399853Y-123414354D01*
X140274354Y-123539853D01*
X140126784Y-123638456D01*
X139962812Y-123706376D01*
X139813512Y-123736073D01*
X139788742Y-123741000D01*
X139611258Y-123741000D01*
X139586488Y-123736073D01*
X139437188Y-123706376D01*
X139273216Y-123638456D01*
X139125646Y-123539853D01*
X139000147Y-123414354D01*
X138901544Y-123266784D01*
X138833624Y-123102812D01*
X138799000Y-122928741D01*
X138799000Y-122751259D01*
X138833624Y-122577188D01*
X138901544Y-122413216D01*
X139000147Y-122265646D01*
X139125646Y-122140147D01*
X139273216Y-122041544D01*
X139437188Y-121973624D01*
X139586488Y-121943927D01*
X139611258Y-121939000D01*
X139788742Y-121939000D01*
X139813512Y-121943927D01*
G37*
G36*
X152513512Y-119403927D02*
G01*
X152662812Y-119433624D01*
X152826784Y-119501544D01*
X152974354Y-119600147D01*
X153099853Y-119725646D01*
X153198456Y-119873216D01*
X153266376Y-120037188D01*
X153301000Y-120211259D01*
X153301000Y-120388741D01*
X153266376Y-120562812D01*
X153198456Y-120726784D01*
X153099853Y-120874354D01*
X152974354Y-120999853D01*
X152826784Y-121098456D01*
X152662812Y-121166376D01*
X152513512Y-121196073D01*
X152488742Y-121201000D01*
X152311258Y-121201000D01*
X152286488Y-121196073D01*
X152137188Y-121166376D01*
X151973216Y-121098456D01*
X151825646Y-120999853D01*
X151700147Y-120874354D01*
X151601544Y-120726784D01*
X151533624Y-120562812D01*
X151499000Y-120388741D01*
X151499000Y-120211259D01*
X151533624Y-120037188D01*
X151601544Y-119873216D01*
X151700147Y-119725646D01*
X151825646Y-119600147D01*
X151973216Y-119501544D01*
X152137188Y-119433624D01*
X152286488Y-119403927D01*
X152311258Y-119399000D01*
X152488742Y-119399000D01*
X152513512Y-119403927D01*
G37*
G36*
X166001000Y-121201000D02*
G01*
X164199000Y-121201000D01*
X164199000Y-119399000D01*
X166001000Y-119399000D01*
X166001000Y-121201000D01*
G37*
G36*
X162673512Y-119403927D02*
G01*
X162822812Y-119433624D01*
X162986784Y-119501544D01*
X163134354Y-119600147D01*
X163259853Y-119725646D01*
X163358456Y-119873216D01*
X163426376Y-120037188D01*
X163461000Y-120211259D01*
X163461000Y-120388741D01*
X163426376Y-120562812D01*
X163358456Y-120726784D01*
X163259853Y-120874354D01*
X163134354Y-120999853D01*
X162986784Y-121098456D01*
X162822812Y-121166376D01*
X162673512Y-121196073D01*
X162648742Y-121201000D01*
X162471258Y-121201000D01*
X162446488Y-121196073D01*
X162297188Y-121166376D01*
X162133216Y-121098456D01*
X161985646Y-120999853D01*
X161860147Y-120874354D01*
X161761544Y-120726784D01*
X161693624Y-120562812D01*
X161659000Y-120388741D01*
X161659000Y-120211259D01*
X161693624Y-120037188D01*
X161761544Y-119873216D01*
X161860147Y-119725646D01*
X161985646Y-119600147D01*
X162133216Y-119501544D01*
X162297188Y-119433624D01*
X162446488Y-119403927D01*
X162471258Y-119399000D01*
X162648742Y-119399000D01*
X162673512Y-119403927D01*
G37*
G36*
X160133512Y-119403927D02*
G01*
X160282812Y-119433624D01*
X160446784Y-119501544D01*
X160594354Y-119600147D01*
X160719853Y-119725646D01*
X160818456Y-119873216D01*
X160886376Y-120037188D01*
X160921000Y-120211259D01*
X160921000Y-120388741D01*
X160886376Y-120562812D01*
X160818456Y-120726784D01*
X160719853Y-120874354D01*
X160594354Y-120999853D01*
X160446784Y-121098456D01*
X160282812Y-121166376D01*
X160133512Y-121196073D01*
X160108742Y-121201000D01*
X159931258Y-121201000D01*
X159906488Y-121196073D01*
X159757188Y-121166376D01*
X159593216Y-121098456D01*
X159445646Y-120999853D01*
X159320147Y-120874354D01*
X159221544Y-120726784D01*
X159153624Y-120562812D01*
X159119000Y-120388741D01*
X159119000Y-120211259D01*
X159153624Y-120037188D01*
X159221544Y-119873216D01*
X159320147Y-119725646D01*
X159445646Y-119600147D01*
X159593216Y-119501544D01*
X159757188Y-119433624D01*
X159906488Y-119403927D01*
X159931258Y-119399000D01*
X160108742Y-119399000D01*
X160133512Y-119403927D01*
G37*
G36*
X157593512Y-119403927D02*
G01*
X157742812Y-119433624D01*
X157906784Y-119501544D01*
X158054354Y-119600147D01*
X158179853Y-119725646D01*
X158278456Y-119873216D01*
X158346376Y-120037188D01*
X158381000Y-120211259D01*
X158381000Y-120388741D01*
X158346376Y-120562812D01*
X158278456Y-120726784D01*
X158179853Y-120874354D01*
X158054354Y-120999853D01*
X157906784Y-121098456D01*
X157742812Y-121166376D01*
X157593512Y-121196073D01*
X157568742Y-121201000D01*
X157391258Y-121201000D01*
X157366488Y-121196073D01*
X157217188Y-121166376D01*
X157053216Y-121098456D01*
X156905646Y-120999853D01*
X156780147Y-120874354D01*
X156681544Y-120726784D01*
X156613624Y-120562812D01*
X156579000Y-120388741D01*
X156579000Y-120211259D01*
X156613624Y-120037188D01*
X156681544Y-119873216D01*
X156780147Y-119725646D01*
X156905646Y-119600147D01*
X157053216Y-119501544D01*
X157217188Y-119433624D01*
X157366488Y-119403927D01*
X157391258Y-119399000D01*
X157568742Y-119399000D01*
X157593512Y-119403927D01*
G37*
G36*
X155053512Y-119403927D02*
G01*
X155202812Y-119433624D01*
X155366784Y-119501544D01*
X155514354Y-119600147D01*
X155639853Y-119725646D01*
X155738456Y-119873216D01*
X155806376Y-120037188D01*
X155841000Y-120211259D01*
X155841000Y-120388741D01*
X155806376Y-120562812D01*
X155738456Y-120726784D01*
X155639853Y-120874354D01*
X155514354Y-120999853D01*
X155366784Y-121098456D01*
X155202812Y-121166376D01*
X155053512Y-121196073D01*
X155028742Y-121201000D01*
X154851258Y-121201000D01*
X154826488Y-121196073D01*
X154677188Y-121166376D01*
X154513216Y-121098456D01*
X154365646Y-120999853D01*
X154240147Y-120874354D01*
X154141544Y-120726784D01*
X154073624Y-120562812D01*
X154039000Y-120388741D01*
X154039000Y-120211259D01*
X154073624Y-120037188D01*
X154141544Y-119873216D01*
X154240147Y-119725646D01*
X154365646Y-119600147D01*
X154513216Y-119501544D01*
X154677188Y-119433624D01*
X154826488Y-119403927D01*
X154851258Y-119399000D01*
X155028742Y-119399000D01*
X155053512Y-119403927D01*
G37*
G36*
X149973512Y-119403927D02*
G01*
X150122812Y-119433624D01*
X150286784Y-119501544D01*
X150434354Y-119600147D01*
X150559853Y-119725646D01*
X150658456Y-119873216D01*
X150726376Y-120037188D01*
X150761000Y-120211259D01*
X150761000Y-120388741D01*
X150726376Y-120562812D01*
X150658456Y-120726784D01*
X150559853Y-120874354D01*
X150434354Y-120999853D01*
X150286784Y-121098456D01*
X150122812Y-121166376D01*
X149973512Y-121196073D01*
X149948742Y-121201000D01*
X149771258Y-121201000D01*
X149746488Y-121196073D01*
X149597188Y-121166376D01*
X149433216Y-121098456D01*
X149285646Y-120999853D01*
X149160147Y-120874354D01*
X149061544Y-120726784D01*
X148993624Y-120562812D01*
X148959000Y-120388741D01*
X148959000Y-120211259D01*
X148993624Y-120037188D01*
X149061544Y-119873216D01*
X149160147Y-119725646D01*
X149285646Y-119600147D01*
X149433216Y-119501544D01*
X149597188Y-119433624D01*
X149746488Y-119403927D01*
X149771258Y-119399000D01*
X149948742Y-119399000D01*
X149973512Y-119403927D01*
G37*
G36*
X147433512Y-119403927D02*
G01*
X147582812Y-119433624D01*
X147746784Y-119501544D01*
X147894354Y-119600147D01*
X148019853Y-119725646D01*
X148118456Y-119873216D01*
X148186376Y-120037188D01*
X148221000Y-120211259D01*
X148221000Y-120388741D01*
X148186376Y-120562812D01*
X148118456Y-120726784D01*
X148019853Y-120874354D01*
X147894354Y-120999853D01*
X147746784Y-121098456D01*
X147582812Y-121166376D01*
X147433512Y-121196073D01*
X147408742Y-121201000D01*
X147231258Y-121201000D01*
X147206488Y-121196073D01*
X147057188Y-121166376D01*
X146893216Y-121098456D01*
X146745646Y-120999853D01*
X146620147Y-120874354D01*
X146521544Y-120726784D01*
X146453624Y-120562812D01*
X146419000Y-120388741D01*
X146419000Y-120211259D01*
X146453624Y-120037188D01*
X146521544Y-119873216D01*
X146620147Y-119725646D01*
X146745646Y-119600147D01*
X146893216Y-119501544D01*
X147057188Y-119433624D01*
X147206488Y-119403927D01*
X147231258Y-119399000D01*
X147408742Y-119399000D01*
X147433512Y-119403927D01*
G37*
G36*
X144893512Y-119403927D02*
G01*
X145042812Y-119433624D01*
X145206784Y-119501544D01*
X145354354Y-119600147D01*
X145479853Y-119725646D01*
X145578456Y-119873216D01*
X145646376Y-120037188D01*
X145681000Y-120211259D01*
X145681000Y-120388741D01*
X145646376Y-120562812D01*
X145578456Y-120726784D01*
X145479853Y-120874354D01*
X145354354Y-120999853D01*
X145206784Y-121098456D01*
X145042812Y-121166376D01*
X144893512Y-121196073D01*
X144868742Y-121201000D01*
X144691258Y-121201000D01*
X144666488Y-121196073D01*
X144517188Y-121166376D01*
X144353216Y-121098456D01*
X144205646Y-120999853D01*
X144080147Y-120874354D01*
X143981544Y-120726784D01*
X143913624Y-120562812D01*
X143879000Y-120388741D01*
X143879000Y-120211259D01*
X143913624Y-120037188D01*
X143981544Y-119873216D01*
X144080147Y-119725646D01*
X144205646Y-119600147D01*
X144353216Y-119501544D01*
X144517188Y-119433624D01*
X144666488Y-119403927D01*
X144691258Y-119399000D01*
X144868742Y-119399000D01*
X144893512Y-119403927D01*
G37*
G36*
X142353512Y-119403927D02*
G01*
X142502812Y-119433624D01*
X142666784Y-119501544D01*
X142814354Y-119600147D01*
X142939853Y-119725646D01*
X143038456Y-119873216D01*
X143106376Y-120037188D01*
X143141000Y-120211259D01*
X143141000Y-120388741D01*
X143106376Y-120562812D01*
X143038456Y-120726784D01*
X142939853Y-120874354D01*
X142814354Y-120999853D01*
X142666784Y-121098456D01*
X142502812Y-121166376D01*
X142353512Y-121196073D01*
X142328742Y-121201000D01*
X142151258Y-121201000D01*
X142126488Y-121196073D01*
X141977188Y-121166376D01*
X141813216Y-121098456D01*
X141665646Y-120999853D01*
X141540147Y-120874354D01*
X141441544Y-120726784D01*
X141373624Y-120562812D01*
X141339000Y-120388741D01*
X141339000Y-120211259D01*
X141373624Y-120037188D01*
X141441544Y-119873216D01*
X141540147Y-119725646D01*
X141665646Y-119600147D01*
X141813216Y-119501544D01*
X141977188Y-119433624D01*
X142126488Y-119403927D01*
X142151258Y-119399000D01*
X142328742Y-119399000D01*
X142353512Y-119403927D01*
G37*
G36*
X139813512Y-119403927D02*
G01*
X139962812Y-119433624D01*
X140126784Y-119501544D01*
X140274354Y-119600147D01*
X140399853Y-119725646D01*
X140498456Y-119873216D01*
X140566376Y-120037188D01*
X140601000Y-120211259D01*
X140601000Y-120388741D01*
X140566376Y-120562812D01*
X140498456Y-120726784D01*
X140399853Y-120874354D01*
X140274354Y-120999853D01*
X140126784Y-121098456D01*
X139962812Y-121166376D01*
X139813512Y-121196073D01*
X139788742Y-121201000D01*
X139611258Y-121201000D01*
X139586488Y-121196073D01*
X139437188Y-121166376D01*
X139273216Y-121098456D01*
X139125646Y-120999853D01*
X139000147Y-120874354D01*
X138901544Y-120726784D01*
X138833624Y-120562812D01*
X138799000Y-120388741D01*
X138799000Y-120211259D01*
X138833624Y-120037188D01*
X138901544Y-119873216D01*
X139000147Y-119725646D01*
X139125646Y-119600147D01*
X139273216Y-119501544D01*
X139437188Y-119433624D01*
X139586488Y-119403927D01*
X139611258Y-119399000D01*
X139788742Y-119399000D01*
X139813512Y-119403927D01*
G37*
G36*
X153709468Y-116093565D02*
G01*
X153748138Y-116105296D01*
X153783777Y-116124346D01*
X153815017Y-116149983D01*
X153840654Y-116181223D01*
X153859704Y-116216862D01*
X153871435Y-116255532D01*
X153876000Y-116301888D01*
X153876000Y-117378112D01*
X153871435Y-117424468D01*
X153859704Y-117463138D01*
X153840654Y-117498777D01*
X153815017Y-117530017D01*
X153783777Y-117555654D01*
X153748138Y-117574704D01*
X153709468Y-117586435D01*
X153663112Y-117591000D01*
X153011888Y-117591000D01*
X152965532Y-117586435D01*
X152926862Y-117574704D01*
X152891223Y-117555654D01*
X152859983Y-117530017D01*
X152834346Y-117498777D01*
X152815296Y-117463138D01*
X152803565Y-117424468D01*
X152799000Y-117378112D01*
X152799000Y-116301888D01*
X152803565Y-116255532D01*
X152815296Y-116216862D01*
X152834346Y-116181223D01*
X152859983Y-116149983D01*
X152891223Y-116124346D01*
X152926862Y-116105296D01*
X152965532Y-116093565D01*
X153011888Y-116089000D01*
X153663112Y-116089000D01*
X153709468Y-116093565D01*
G37*
G36*
X151834468Y-116093565D02*
G01*
X151873138Y-116105296D01*
X151908777Y-116124346D01*
X151940017Y-116149983D01*
X151965654Y-116181223D01*
X151984704Y-116216862D01*
X151996435Y-116255532D01*
X152001000Y-116301888D01*
X152001000Y-117378112D01*
X151996435Y-117424468D01*
X151984704Y-117463138D01*
X151965654Y-117498777D01*
X151940017Y-117530017D01*
X151908777Y-117555654D01*
X151873138Y-117574704D01*
X151834468Y-117586435D01*
X151788112Y-117591000D01*
X151136888Y-117591000D01*
X151090532Y-117586435D01*
X151051862Y-117574704D01*
X151016223Y-117555654D01*
X150984983Y-117530017D01*
X150959346Y-117498777D01*
X150940296Y-117463138D01*
X150928565Y-117424468D01*
X150924000Y-117378112D01*
X150924000Y-116301888D01*
X150928565Y-116255532D01*
X150940296Y-116216862D01*
X150959346Y-116181223D01*
X150984983Y-116149983D01*
X151016223Y-116124346D01*
X151051862Y-116105296D01*
X151090532Y-116093565D01*
X151136888Y-116089000D01*
X151788112Y-116089000D01*
X151834468Y-116093565D01*
G37*
G36*
X145028228Y-110941703D02*
G01*
X145183100Y-111005853D01*
X145322481Y-111098985D01*
X145441015Y-111217519D01*
X145534147Y-111356900D01*
X145598297Y-111511772D01*
X145631000Y-111676184D01*
X145631000Y-111843816D01*
X145598297Y-112008228D01*
X145534147Y-112163100D01*
X145441015Y-112302481D01*
X145322481Y-112421015D01*
X145183100Y-112514147D01*
X145028228Y-112578297D01*
X144863816Y-112611000D01*
X144696184Y-112611000D01*
X144531772Y-112578297D01*
X144376900Y-112514147D01*
X144237519Y-112421015D01*
X144118985Y-112302481D01*
X144025853Y-112163100D01*
X143961703Y-112008228D01*
X143929000Y-111843816D01*
X143929000Y-111676184D01*
X143961703Y-111511772D01*
X144025853Y-111356900D01*
X144118985Y-111217519D01*
X144237519Y-111098985D01*
X144376900Y-111005853D01*
X144531772Y-110941703D01*
X144696184Y-110909000D01*
X144863816Y-110909000D01*
X145028228Y-110941703D01*
G37*
G36*
X160268228Y-110941703D02*
G01*
X160423100Y-111005853D01*
X160562481Y-111098985D01*
X160681015Y-111217519D01*
X160774147Y-111356900D01*
X160838297Y-111511772D01*
X160871000Y-111676184D01*
X160871000Y-111843816D01*
X160838297Y-112008228D01*
X160774147Y-112163100D01*
X160681015Y-112302481D01*
X160562481Y-112421015D01*
X160423100Y-112514147D01*
X160268228Y-112578297D01*
X160103816Y-112611000D01*
X159936184Y-112611000D01*
X159771772Y-112578297D01*
X159616900Y-112514147D01*
X159477519Y-112421015D01*
X159358985Y-112302481D01*
X159265853Y-112163100D01*
X159201703Y-112008228D01*
X159169000Y-111843816D01*
X159169000Y-111676184D01*
X159201703Y-111511772D01*
X159265853Y-111356900D01*
X159358985Y-111217519D01*
X159477519Y-111098985D01*
X159616900Y-111005853D01*
X159771772Y-110941703D01*
X159936184Y-110909000D01*
X160103816Y-110909000D01*
X160268228Y-110941703D01*
G37*
G36*
X145028228Y-108401703D02*
G01*
X145183100Y-108465853D01*
X145322481Y-108558985D01*
X145441015Y-108677519D01*
X145534147Y-108816900D01*
X145598297Y-108971772D01*
X145631000Y-109136184D01*
X145631000Y-109303816D01*
X145598297Y-109468228D01*
X145534147Y-109623100D01*
X145441015Y-109762481D01*
X145322481Y-109881015D01*
X145183100Y-109974147D01*
X145028228Y-110038297D01*
X144863816Y-110071000D01*
X144696184Y-110071000D01*
X144531772Y-110038297D01*
X144376900Y-109974147D01*
X144237519Y-109881015D01*
X144118985Y-109762481D01*
X144025853Y-109623100D01*
X143961703Y-109468228D01*
X143929000Y-109303816D01*
X143929000Y-109136184D01*
X143961703Y-108971772D01*
X144025853Y-108816900D01*
X144118985Y-108677519D01*
X144237519Y-108558985D01*
X144376900Y-108465853D01*
X144531772Y-108401703D01*
X144696184Y-108369000D01*
X144863816Y-108369000D01*
X145028228Y-108401703D01*
G37*
G36*
X160268228Y-108401703D02*
G01*
X160423100Y-108465853D01*
X160562481Y-108558985D01*
X160681015Y-108677519D01*
X160774147Y-108816900D01*
X160838297Y-108971772D01*
X160871000Y-109136184D01*
X160871000Y-109303816D01*
X160838297Y-109468228D01*
X160774147Y-109623100D01*
X160681015Y-109762481D01*
X160562481Y-109881015D01*
X160423100Y-109974147D01*
X160268228Y-110038297D01*
X160103816Y-110071000D01*
X159936184Y-110071000D01*
X159771772Y-110038297D01*
X159616900Y-109974147D01*
X159477519Y-109881015D01*
X159358985Y-109762481D01*
X159265853Y-109623100D01*
X159201703Y-109468228D01*
X159169000Y-109303816D01*
X159169000Y-109136184D01*
X159201703Y-108971772D01*
X159265853Y-108816900D01*
X159358985Y-108677519D01*
X159477519Y-108558985D01*
X159616900Y-108465853D01*
X159771772Y-108401703D01*
X159936184Y-108369000D01*
X160103816Y-108369000D01*
X160268228Y-108401703D01*
G37*
G36*
X145028228Y-105861703D02*
G01*
X145183100Y-105925853D01*
X145322481Y-106018985D01*
X145441015Y-106137519D01*
X145534147Y-106276900D01*
X145598297Y-106431772D01*
X145631000Y-106596184D01*
X145631000Y-106763816D01*
X145598297Y-106928228D01*
X145534147Y-107083100D01*
X145441015Y-107222481D01*
X145322481Y-107341015D01*
X145183100Y-107434147D01*
X145028228Y-107498297D01*
X144863816Y-107531000D01*
X144696184Y-107531000D01*
X144531772Y-107498297D01*
X144376900Y-107434147D01*
X144237519Y-107341015D01*
X144118985Y-107222481D01*
X144025853Y-107083100D01*
X143961703Y-106928228D01*
X143929000Y-106763816D01*
X143929000Y-106596184D01*
X143961703Y-106431772D01*
X144025853Y-106276900D01*
X144118985Y-106137519D01*
X144237519Y-106018985D01*
X144376900Y-105925853D01*
X144531772Y-105861703D01*
X144696184Y-105829000D01*
X144863816Y-105829000D01*
X145028228Y-105861703D01*
G37*
G36*
X160268228Y-105861703D02*
G01*
X160423100Y-105925853D01*
X160562481Y-106018985D01*
X160681015Y-106137519D01*
X160774147Y-106276900D01*
X160838297Y-106431772D01*
X160871000Y-106596184D01*
X160871000Y-106763816D01*
X160838297Y-106928228D01*
X160774147Y-107083100D01*
X160681015Y-107222481D01*
X160562481Y-107341015D01*
X160423100Y-107434147D01*
X160268228Y-107498297D01*
X160103816Y-107531000D01*
X159936184Y-107531000D01*
X159771772Y-107498297D01*
X159616900Y-107434147D01*
X159477519Y-107341015D01*
X159358985Y-107222481D01*
X159265853Y-107083100D01*
X159201703Y-106928228D01*
X159169000Y-106763816D01*
X159169000Y-106596184D01*
X159201703Y-106431772D01*
X159265853Y-106276900D01*
X159358985Y-106137519D01*
X159477519Y-106018985D01*
X159616900Y-105925853D01*
X159771772Y-105861703D01*
X159936184Y-105829000D01*
X160103816Y-105829000D01*
X160268228Y-105861703D01*
G37*
G36*
X145028228Y-103321703D02*
G01*
X145183100Y-103385853D01*
X145322481Y-103478985D01*
X145441015Y-103597519D01*
X145534147Y-103736900D01*
X145598297Y-103891772D01*
X145631000Y-104056184D01*
X145631000Y-104223816D01*
X145598297Y-104388228D01*
X145534147Y-104543100D01*
X145441015Y-104682481D01*
X145322481Y-104801015D01*
X145183100Y-104894147D01*
X145028228Y-104958297D01*
X144863816Y-104991000D01*
X144696184Y-104991000D01*
X144531772Y-104958297D01*
X144376900Y-104894147D01*
X144237519Y-104801015D01*
X144118985Y-104682481D01*
X144025853Y-104543100D01*
X143961703Y-104388228D01*
X143929000Y-104223816D01*
X143929000Y-104056184D01*
X143961703Y-103891772D01*
X144025853Y-103736900D01*
X144118985Y-103597519D01*
X144237519Y-103478985D01*
X144376900Y-103385853D01*
X144531772Y-103321703D01*
X144696184Y-103289000D01*
X144863816Y-103289000D01*
X145028228Y-103321703D01*
G37*
G36*
X160268228Y-103321703D02*
G01*
X160423100Y-103385853D01*
X160562481Y-103478985D01*
X160681015Y-103597519D01*
X160774147Y-103736900D01*
X160838297Y-103891772D01*
X160871000Y-104056184D01*
X160871000Y-104223816D01*
X160838297Y-104388228D01*
X160774147Y-104543100D01*
X160681015Y-104682481D01*
X160562481Y-104801015D01*
X160423100Y-104894147D01*
X160268228Y-104958297D01*
X160103816Y-104991000D01*
X159936184Y-104991000D01*
X159771772Y-104958297D01*
X159616900Y-104894147D01*
X159477519Y-104801015D01*
X159358985Y-104682481D01*
X159265853Y-104543100D01*
X159201703Y-104388228D01*
X159169000Y-104223816D01*
X159169000Y-104056184D01*
X159201703Y-103891772D01*
X159265853Y-103736900D01*
X159358985Y-103597519D01*
X159477519Y-103478985D01*
X159616900Y-103385853D01*
X159771772Y-103321703D01*
X159936184Y-103289000D01*
X160103816Y-103289000D01*
X160268228Y-103321703D01*
G37*
G36*
X163906468Y-102941065D02*
G01*
X163945138Y-102952796D01*
X163980777Y-102971846D01*
X164012017Y-102997483D01*
X164037654Y-103028723D01*
X164056704Y-103064362D01*
X164068435Y-103103032D01*
X164073000Y-103149388D01*
X164073000Y-103800612D01*
X164068435Y-103846968D01*
X164056704Y-103885638D01*
X164037654Y-103921277D01*
X164012017Y-103952517D01*
X163980777Y-103978154D01*
X163945138Y-103997204D01*
X163906468Y-104008935D01*
X163860112Y-104013500D01*
X162783888Y-104013500D01*
X162737532Y-104008935D01*
X162698862Y-103997204D01*
X162663223Y-103978154D01*
X162631983Y-103952517D01*
X162606346Y-103921277D01*
X162587296Y-103885638D01*
X162575565Y-103846968D01*
X162571000Y-103800612D01*
X162571000Y-103149388D01*
X162575565Y-103103032D01*
X162587296Y-103064362D01*
X162606346Y-103028723D01*
X162631983Y-102997483D01*
X162663223Y-102971846D01*
X162698862Y-102952796D01*
X162737532Y-102941065D01*
X162783888Y-102936500D01*
X163860112Y-102936500D01*
X163906468Y-102941065D01*
G37*
G36*
X145028228Y-100781703D02*
G01*
X145183100Y-100845853D01*
X145322481Y-100938985D01*
X145441015Y-101057519D01*
X145534147Y-101196900D01*
X145598297Y-101351772D01*
X145631000Y-101516184D01*
X145631000Y-101683816D01*
X145598297Y-101848228D01*
X145534147Y-102003100D01*
X145441015Y-102142481D01*
X145322481Y-102261015D01*
X145183100Y-102354147D01*
X145028228Y-102418297D01*
X144863816Y-102451000D01*
X144696184Y-102451000D01*
X144531772Y-102418297D01*
X144376900Y-102354147D01*
X144237519Y-102261015D01*
X144118985Y-102142481D01*
X144025853Y-102003100D01*
X143961703Y-101848228D01*
X143929000Y-101683816D01*
X143929000Y-101516184D01*
X143961703Y-101351772D01*
X144025853Y-101196900D01*
X144118985Y-101057519D01*
X144237519Y-100938985D01*
X144376900Y-100845853D01*
X144531772Y-100781703D01*
X144696184Y-100749000D01*
X144863816Y-100749000D01*
X145028228Y-100781703D01*
G37*
G36*
X160268228Y-100781703D02*
G01*
X160423100Y-100845853D01*
X160562481Y-100938985D01*
X160681015Y-101057519D01*
X160774147Y-101196900D01*
X160838297Y-101351772D01*
X160871000Y-101516184D01*
X160871000Y-101683816D01*
X160838297Y-101848228D01*
X160774147Y-102003100D01*
X160681015Y-102142481D01*
X160562481Y-102261015D01*
X160423100Y-102354147D01*
X160268228Y-102418297D01*
X160103816Y-102451000D01*
X159936184Y-102451000D01*
X159771772Y-102418297D01*
X159616900Y-102354147D01*
X159477519Y-102261015D01*
X159358985Y-102142481D01*
X159265853Y-102003100D01*
X159201703Y-101848228D01*
X159169000Y-101683816D01*
X159169000Y-101516184D01*
X159201703Y-101351772D01*
X159265853Y-101196900D01*
X159358985Y-101057519D01*
X159477519Y-100938985D01*
X159616900Y-100845853D01*
X159771772Y-100781703D01*
X159936184Y-100749000D01*
X160103816Y-100749000D01*
X160268228Y-100781703D01*
G37*
G36*
X163906468Y-101066065D02*
G01*
X163945138Y-101077796D01*
X163980777Y-101096846D01*
X164012017Y-101122483D01*
X164037654Y-101153723D01*
X164056704Y-101189362D01*
X164068435Y-101228032D01*
X164073000Y-101274388D01*
X164073000Y-101925612D01*
X164068435Y-101971968D01*
X164056704Y-102010638D01*
X164037654Y-102046277D01*
X164012017Y-102077517D01*
X163980777Y-102103154D01*
X163945138Y-102122204D01*
X163906468Y-102133935D01*
X163860112Y-102138500D01*
X162783888Y-102138500D01*
X162737532Y-102133935D01*
X162698862Y-102122204D01*
X162663223Y-102103154D01*
X162631983Y-102077517D01*
X162606346Y-102046277D01*
X162587296Y-102010638D01*
X162575565Y-101971968D01*
X162571000Y-101925612D01*
X162571000Y-101274388D01*
X162575565Y-101228032D01*
X162587296Y-101189362D01*
X162606346Y-101153723D01*
X162631983Y-101122483D01*
X162663223Y-101096846D01*
X162698862Y-101077796D01*
X162737532Y-101066065D01*
X162783888Y-101061500D01*
X163860112Y-101061500D01*
X163906468Y-101066065D01*
G37*
G36*
X145028228Y-98241703D02*
G01*
X145183100Y-98305853D01*
X145322481Y-98398985D01*
X145441015Y-98517519D01*
X145534147Y-98656900D01*
X145598297Y-98811772D01*
X145631000Y-98976184D01*
X145631000Y-99143816D01*
X145598297Y-99308228D01*
X145534147Y-99463100D01*
X145441015Y-99602481D01*
X145322481Y-99721015D01*
X145183100Y-99814147D01*
X145028228Y-99878297D01*
X144863816Y-99911000D01*
X144696184Y-99911000D01*
X144531772Y-99878297D01*
X144376900Y-99814147D01*
X144237519Y-99721015D01*
X144118985Y-99602481D01*
X144025853Y-99463100D01*
X143961703Y-99308228D01*
X143929000Y-99143816D01*
X143929000Y-98976184D01*
X143961703Y-98811772D01*
X144025853Y-98656900D01*
X144118985Y-98517519D01*
X144237519Y-98398985D01*
X144376900Y-98305853D01*
X144531772Y-98241703D01*
X144696184Y-98209000D01*
X144863816Y-98209000D01*
X145028228Y-98241703D01*
G37*
G36*
X160268228Y-98241703D02*
G01*
X160423100Y-98305853D01*
X160562481Y-98398985D01*
X160681015Y-98517519D01*
X160774147Y-98656900D01*
X160838297Y-98811772D01*
X160871000Y-98976184D01*
X160871000Y-99143816D01*
X160838297Y-99308228D01*
X160774147Y-99463100D01*
X160681015Y-99602481D01*
X160562481Y-99721015D01*
X160423100Y-99814147D01*
X160268228Y-99878297D01*
X160103816Y-99911000D01*
X159936184Y-99911000D01*
X159771772Y-99878297D01*
X159616900Y-99814147D01*
X159477519Y-99721015D01*
X159358985Y-99602481D01*
X159265853Y-99463100D01*
X159201703Y-99308228D01*
X159169000Y-99143816D01*
X159169000Y-98976184D01*
X159201703Y-98811772D01*
X159265853Y-98656900D01*
X159358985Y-98517519D01*
X159477519Y-98398985D01*
X159616900Y-98305853D01*
X159771772Y-98241703D01*
X159936184Y-98209000D01*
X160103816Y-98209000D01*
X160268228Y-98241703D01*
G37*
G36*
X145028228Y-95701703D02*
G01*
X145183100Y-95765853D01*
X145322481Y-95858985D01*
X145441015Y-95977519D01*
X145534147Y-96116900D01*
X145598297Y-96271772D01*
X145631000Y-96436184D01*
X145631000Y-96603816D01*
X145598297Y-96768228D01*
X145534147Y-96923100D01*
X145441015Y-97062481D01*
X145322481Y-97181015D01*
X145183100Y-97274147D01*
X145028228Y-97338297D01*
X144863816Y-97371000D01*
X144696184Y-97371000D01*
X144531772Y-97338297D01*
X144376900Y-97274147D01*
X144237519Y-97181015D01*
X144118985Y-97062481D01*
X144025853Y-96923100D01*
X143961703Y-96768228D01*
X143929000Y-96603816D01*
X143929000Y-96436184D01*
X143961703Y-96271772D01*
X144025853Y-96116900D01*
X144118985Y-95977519D01*
X144237519Y-95858985D01*
X144376900Y-95765853D01*
X144531772Y-95701703D01*
X144696184Y-95669000D01*
X144863816Y-95669000D01*
X145028228Y-95701703D01*
G37*
G36*
X160268228Y-95701703D02*
G01*
X160423100Y-95765853D01*
X160562481Y-95858985D01*
X160681015Y-95977519D01*
X160774147Y-96116900D01*
X160838297Y-96271772D01*
X160871000Y-96436184D01*
X160871000Y-96603816D01*
X160838297Y-96768228D01*
X160774147Y-96923100D01*
X160681015Y-97062481D01*
X160562481Y-97181015D01*
X160423100Y-97274147D01*
X160268228Y-97338297D01*
X160103816Y-97371000D01*
X159936184Y-97371000D01*
X159771772Y-97338297D01*
X159616900Y-97274147D01*
X159477519Y-97181015D01*
X159358985Y-97062481D01*
X159265853Y-96923100D01*
X159201703Y-96768228D01*
X159169000Y-96603816D01*
X159169000Y-96436184D01*
X159201703Y-96271772D01*
X159265853Y-96116900D01*
X159358985Y-95977519D01*
X159477519Y-95858985D01*
X159616900Y-95765853D01*
X159771772Y-95701703D01*
X159936184Y-95669000D01*
X160103816Y-95669000D01*
X160268228Y-95701703D01*
G37*
G36*
X160268228Y-93161703D02*
G01*
X160423100Y-93225853D01*
X160562481Y-93318985D01*
X160681015Y-93437519D01*
X160774147Y-93576900D01*
X160838297Y-93731772D01*
X160871000Y-93896184D01*
X160871000Y-94063816D01*
X160838297Y-94228228D01*
X160774147Y-94383100D01*
X160681015Y-94522481D01*
X160562481Y-94641015D01*
X160423100Y-94734147D01*
X160268228Y-94798297D01*
X160103816Y-94831000D01*
X159936184Y-94831000D01*
X159771772Y-94798297D01*
X159616900Y-94734147D01*
X159477519Y-94641015D01*
X159358985Y-94522481D01*
X159265853Y-94383100D01*
X159201703Y-94228228D01*
X159169000Y-94063816D01*
X159169000Y-93896184D01*
X159201703Y-93731772D01*
X159265853Y-93576900D01*
X159358985Y-93437519D01*
X159477519Y-93318985D01*
X159616900Y-93225853D01*
X159771772Y-93161703D01*
X159936184Y-93129000D01*
X160103816Y-93129000D01*
X160268228Y-93161703D01*
G37*
G36*
X145028228Y-93161703D02*
G01*
X145183100Y-93225853D01*
X145322481Y-93318985D01*
X145441015Y-93437519D01*
X145534147Y-93576900D01*
X145598297Y-93731772D01*
X145631000Y-93896184D01*
X145631000Y-94063816D01*
X145598297Y-94228228D01*
X145534147Y-94383100D01*
X145441015Y-94522481D01*
X145322481Y-94641015D01*
X145183100Y-94734147D01*
X145028228Y-94798297D01*
X144863816Y-94831000D01*
X144696184Y-94831000D01*
X144531772Y-94798297D01*
X144376900Y-94734147D01*
X144237519Y-94641015D01*
X144118985Y-94522481D01*
X144025853Y-94383100D01*
X143961703Y-94228228D01*
X143929000Y-94063816D01*
X143929000Y-93896184D01*
X143961703Y-93731772D01*
X144025853Y-93576900D01*
X144118985Y-93437519D01*
X144237519Y-93318985D01*
X144376900Y-93225853D01*
X144531772Y-93161703D01*
X144696184Y-93129000D01*
X144863816Y-93129000D01*
X145028228Y-93161703D01*
G37*
G36*
X163906468Y-93367565D02*
G01*
X163945138Y-93379296D01*
X163980777Y-93398346D01*
X164012017Y-93423983D01*
X164037654Y-93455223D01*
X164056704Y-93490862D01*
X164068435Y-93529532D01*
X164073000Y-93575888D01*
X164073000Y-94227112D01*
X164068435Y-94273468D01*
X164056704Y-94312138D01*
X164037654Y-94347777D01*
X164012017Y-94379017D01*
X163980777Y-94404654D01*
X163945138Y-94423704D01*
X163906468Y-94435435D01*
X163860112Y-94440000D01*
X162783888Y-94440000D01*
X162737532Y-94435435D01*
X162698862Y-94423704D01*
X162663223Y-94404654D01*
X162631983Y-94379017D01*
X162606346Y-94347777D01*
X162587296Y-94312138D01*
X162575565Y-94273468D01*
X162571000Y-94227112D01*
X162571000Y-93575888D01*
X162575565Y-93529532D01*
X162587296Y-93490862D01*
X162606346Y-93455223D01*
X162631983Y-93423983D01*
X162663223Y-93398346D01*
X162698862Y-93379296D01*
X162737532Y-93367565D01*
X162783888Y-93363000D01*
X163860112Y-93363000D01*
X163906468Y-93367565D01*
G37*
G36*
X163906468Y-91492565D02*
G01*
X163945138Y-91504296D01*
X163980777Y-91523346D01*
X164012017Y-91548983D01*
X164037654Y-91580223D01*
X164056704Y-91615862D01*
X164068435Y-91654532D01*
X164073000Y-91700888D01*
X164073000Y-92352112D01*
X164068435Y-92398468D01*
X164056704Y-92437138D01*
X164037654Y-92472777D01*
X164012017Y-92504017D01*
X163980777Y-92529654D01*
X163945138Y-92548704D01*
X163906468Y-92560435D01*
X163860112Y-92565000D01*
X162783888Y-92565000D01*
X162737532Y-92560435D01*
X162698862Y-92548704D01*
X162663223Y-92529654D01*
X162631983Y-92504017D01*
X162606346Y-92472777D01*
X162587296Y-92437138D01*
X162575565Y-92398468D01*
X162571000Y-92352112D01*
X162571000Y-91700888D01*
X162575565Y-91654532D01*
X162587296Y-91615862D01*
X162606346Y-91580223D01*
X162631983Y-91548983D01*
X162663223Y-91523346D01*
X162698862Y-91504296D01*
X162737532Y-91492565D01*
X162783888Y-91488000D01*
X163860112Y-91488000D01*
X163906468Y-91492565D01*
G37*
G36*
X145028228Y-90621703D02*
G01*
X145183100Y-90685853D01*
X145322481Y-90778985D01*
X145441015Y-90897519D01*
X145534147Y-91036900D01*
X145598297Y-91191772D01*
X145631000Y-91356184D01*
X145631000Y-91523816D01*
X145598297Y-91688228D01*
X145534147Y-91843100D01*
X145441015Y-91982481D01*
X145322481Y-92101015D01*
X145183100Y-92194147D01*
X145028228Y-92258297D01*
X144863816Y-92291000D01*
X144696184Y-92291000D01*
X144531772Y-92258297D01*
X144376900Y-92194147D01*
X144237519Y-92101015D01*
X144118985Y-91982481D01*
X144025853Y-91843100D01*
X143961703Y-91688228D01*
X143929000Y-91523816D01*
X143929000Y-91356184D01*
X143961703Y-91191772D01*
X144025853Y-91036900D01*
X144118985Y-90897519D01*
X144237519Y-90778985D01*
X144376900Y-90685853D01*
X144531772Y-90621703D01*
X144696184Y-90589000D01*
X144863816Y-90589000D01*
X145028228Y-90621703D01*
G37*
G36*
X160268228Y-90621703D02*
G01*
X160423100Y-90685853D01*
X160562481Y-90778985D01*
X160681015Y-90897519D01*
X160774147Y-91036900D01*
X160838297Y-91191772D01*
X160871000Y-91356184D01*
X160871000Y-91523816D01*
X160838297Y-91688228D01*
X160774147Y-91843100D01*
X160681015Y-91982481D01*
X160562481Y-92101015D01*
X160423100Y-92194147D01*
X160268228Y-92258297D01*
X160103816Y-92291000D01*
X159936184Y-92291000D01*
X159771772Y-92258297D01*
X159616900Y-92194147D01*
X159477519Y-92101015D01*
X159358985Y-91982481D01*
X159265853Y-91843100D01*
X159201703Y-91688228D01*
X159169000Y-91523816D01*
X159169000Y-91356184D01*
X159201703Y-91191772D01*
X159265853Y-91036900D01*
X159358985Y-90897519D01*
X159477519Y-90778985D01*
X159616900Y-90685853D01*
X159771772Y-90621703D01*
X159936184Y-90589000D01*
X160103816Y-90589000D01*
X160268228Y-90621703D01*
G37*
G36*
X142062468Y-90319565D02*
G01*
X142101138Y-90331296D01*
X142136777Y-90350346D01*
X142168017Y-90375983D01*
X142193654Y-90407223D01*
X142212704Y-90442862D01*
X142224435Y-90481532D01*
X142229000Y-90527888D01*
X142229000Y-91179112D01*
X142224435Y-91225468D01*
X142212704Y-91264138D01*
X142193654Y-91299777D01*
X142168017Y-91331017D01*
X142136777Y-91356654D01*
X142101138Y-91375704D01*
X142062468Y-91387435D01*
X142016112Y-91392000D01*
X140939888Y-91392000D01*
X140893532Y-91387435D01*
X140854862Y-91375704D01*
X140819223Y-91356654D01*
X140787983Y-91331017D01*
X140762346Y-91299777D01*
X140743296Y-91264138D01*
X140731565Y-91225468D01*
X140727000Y-91179112D01*
X140727000Y-90527888D01*
X140731565Y-90481532D01*
X140743296Y-90442862D01*
X140762346Y-90407223D01*
X140787983Y-90375983D01*
X140819223Y-90350346D01*
X140854862Y-90331296D01*
X140893532Y-90319565D01*
X140939888Y-90315000D01*
X142016112Y-90315000D01*
X142062468Y-90319565D01*
G37*
G36*
X160268228Y-88081703D02*
G01*
X160423100Y-88145853D01*
X160562481Y-88238985D01*
X160681015Y-88357519D01*
X160774147Y-88496900D01*
X160838297Y-88651772D01*
X160871000Y-88816184D01*
X160871000Y-88983816D01*
X160838297Y-89148228D01*
X160774147Y-89303100D01*
X160681015Y-89442481D01*
X160562481Y-89561015D01*
X160423100Y-89654147D01*
X160268228Y-89718297D01*
X160103816Y-89751000D01*
X159936184Y-89751000D01*
X159771772Y-89718297D01*
X159616900Y-89654147D01*
X159477519Y-89561015D01*
X159358985Y-89442481D01*
X159265853Y-89303100D01*
X159201703Y-89148228D01*
X159169000Y-88983816D01*
X159169000Y-88816184D01*
X159201703Y-88651772D01*
X159265853Y-88496900D01*
X159358985Y-88357519D01*
X159477519Y-88238985D01*
X159616900Y-88145853D01*
X159771772Y-88081703D01*
X159936184Y-88049000D01*
X160103816Y-88049000D01*
X160268228Y-88081703D01*
G37*
G36*
X145028228Y-88081703D02*
G01*
X145183100Y-88145853D01*
X145322481Y-88238985D01*
X145441015Y-88357519D01*
X145534147Y-88496900D01*
X145598297Y-88651772D01*
X145631000Y-88816184D01*
X145631000Y-88983816D01*
X145598297Y-89148228D01*
X145534147Y-89303100D01*
X145441015Y-89442481D01*
X145322481Y-89561015D01*
X145183100Y-89654147D01*
X145028228Y-89718297D01*
X144863816Y-89751000D01*
X144696184Y-89751000D01*
X144531772Y-89718297D01*
X144376900Y-89654147D01*
X144237519Y-89561015D01*
X144118985Y-89442481D01*
X144025853Y-89303100D01*
X143961703Y-89148228D01*
X143929000Y-88983816D01*
X143929000Y-88816184D01*
X143961703Y-88651772D01*
X144025853Y-88496900D01*
X144118985Y-88357519D01*
X144237519Y-88238985D01*
X144376900Y-88145853D01*
X144531772Y-88081703D01*
X144696184Y-88049000D01*
X144863816Y-88049000D01*
X145028228Y-88081703D01*
G37*
G36*
X142062468Y-88444565D02*
G01*
X142101138Y-88456296D01*
X142136777Y-88475346D01*
X142168017Y-88500983D01*
X142193654Y-88532223D01*
X142212704Y-88567862D01*
X142224435Y-88606532D01*
X142229000Y-88652888D01*
X142229000Y-89304112D01*
X142224435Y-89350468D01*
X142212704Y-89389138D01*
X142193654Y-89424777D01*
X142168017Y-89456017D01*
X142136777Y-89481654D01*
X142101138Y-89500704D01*
X142062468Y-89512435D01*
X142016112Y-89517000D01*
X140939888Y-89517000D01*
X140893532Y-89512435D01*
X140854862Y-89500704D01*
X140819223Y-89481654D01*
X140787983Y-89456017D01*
X140762346Y-89424777D01*
X140743296Y-89389138D01*
X140731565Y-89350468D01*
X140727000Y-89304112D01*
X140727000Y-88652888D01*
X140731565Y-88606532D01*
X140743296Y-88567862D01*
X140762346Y-88532223D01*
X140787983Y-88500983D01*
X140819223Y-88475346D01*
X140854862Y-88456296D01*
X140893532Y-88444565D01*
X140939888Y-88440000D01*
X142016112Y-88440000D01*
X142062468Y-88444565D01*
G37*
G36*
X160268228Y-85541703D02*
G01*
X160423100Y-85605853D01*
X160562481Y-85698985D01*
X160681015Y-85817519D01*
X160774147Y-85956900D01*
X160838297Y-86111772D01*
X160871000Y-86276184D01*
X160871000Y-86443816D01*
X160838297Y-86608228D01*
X160774147Y-86763100D01*
X160681015Y-86902481D01*
X160562481Y-87021015D01*
X160423100Y-87114147D01*
X160268228Y-87178297D01*
X160103816Y-87211000D01*
X159936184Y-87211000D01*
X159771772Y-87178297D01*
X159616900Y-87114147D01*
X159477519Y-87021015D01*
X159358985Y-86902481D01*
X159265853Y-86763100D01*
X159201703Y-86608228D01*
X159169000Y-86443816D01*
X159169000Y-86276184D01*
X159201703Y-86111772D01*
X159265853Y-85956900D01*
X159358985Y-85817519D01*
X159477519Y-85698985D01*
X159616900Y-85605853D01*
X159771772Y-85541703D01*
X159936184Y-85509000D01*
X160103816Y-85509000D01*
X160268228Y-85541703D01*
G37*
G36*
X145028228Y-85541703D02*
G01*
X145183100Y-85605853D01*
X145322481Y-85698985D01*
X145441015Y-85817519D01*
X145534147Y-85956900D01*
X145598297Y-86111772D01*
X145631000Y-86276184D01*
X145631000Y-86443816D01*
X145598297Y-86608228D01*
X145534147Y-86763100D01*
X145441015Y-86902481D01*
X145322481Y-87021015D01*
X145183100Y-87114147D01*
X145028228Y-87178297D01*
X144863816Y-87211000D01*
X144696184Y-87211000D01*
X144531772Y-87178297D01*
X144376900Y-87114147D01*
X144237519Y-87021015D01*
X144118985Y-86902481D01*
X144025853Y-86763100D01*
X143961703Y-86608228D01*
X143929000Y-86443816D01*
X143929000Y-86276184D01*
X143961703Y-86111772D01*
X144025853Y-85956900D01*
X144118985Y-85817519D01*
X144237519Y-85698985D01*
X144376900Y-85605853D01*
X144531772Y-85541703D01*
X144696184Y-85509000D01*
X144863816Y-85509000D01*
X145028228Y-85541703D01*
G37*
G36*
X160268228Y-83001703D02*
G01*
X160423100Y-83065853D01*
X160562481Y-83158985D01*
X160681015Y-83277519D01*
X160774147Y-83416900D01*
X160838297Y-83571772D01*
X160871000Y-83736184D01*
X160871000Y-83903816D01*
X160838297Y-84068228D01*
X160774147Y-84223100D01*
X160681015Y-84362481D01*
X160562481Y-84481015D01*
X160423100Y-84574147D01*
X160268228Y-84638297D01*
X160103816Y-84671000D01*
X159936184Y-84671000D01*
X159771772Y-84638297D01*
X159616900Y-84574147D01*
X159477519Y-84481015D01*
X159358985Y-84362481D01*
X159265853Y-84223100D01*
X159201703Y-84068228D01*
X159169000Y-83903816D01*
X159169000Y-83736184D01*
X159201703Y-83571772D01*
X159265853Y-83416900D01*
X159358985Y-83277519D01*
X159477519Y-83158985D01*
X159616900Y-83065853D01*
X159771772Y-83001703D01*
X159936184Y-82969000D01*
X160103816Y-82969000D01*
X160268228Y-83001703D01*
G37*
G36*
X145028228Y-83001703D02*
G01*
X145183100Y-83065853D01*
X145322481Y-83158985D01*
X145441015Y-83277519D01*
X145534147Y-83416900D01*
X145598297Y-83571772D01*
X145631000Y-83736184D01*
X145631000Y-83903816D01*
X145598297Y-84068228D01*
X145534147Y-84223100D01*
X145441015Y-84362481D01*
X145322481Y-84481015D01*
X145183100Y-84574147D01*
X145028228Y-84638297D01*
X144863816Y-84671000D01*
X144696184Y-84671000D01*
X144531772Y-84638297D01*
X144376900Y-84574147D01*
X144237519Y-84481015D01*
X144118985Y-84362481D01*
X144025853Y-84223100D01*
X143961703Y-84068228D01*
X143929000Y-83903816D01*
X143929000Y-83736184D01*
X143961703Y-83571772D01*
X144025853Y-83416900D01*
X144118985Y-83277519D01*
X144237519Y-83158985D01*
X144376900Y-83065853D01*
X144531772Y-83001703D01*
X144696184Y-82969000D01*
X144863816Y-82969000D01*
X145028228Y-83001703D01*
G37*
G36*
X160268228Y-80461703D02*
G01*
X160423100Y-80525853D01*
X160562481Y-80618985D01*
X160681015Y-80737519D01*
X160774147Y-80876900D01*
X160838297Y-81031772D01*
X160871000Y-81196184D01*
X160871000Y-81363816D01*
X160838297Y-81528228D01*
X160774147Y-81683100D01*
X160681015Y-81822481D01*
X160562481Y-81941015D01*
X160423100Y-82034147D01*
X160268228Y-82098297D01*
X160103816Y-82131000D01*
X159936184Y-82131000D01*
X159771772Y-82098297D01*
X159616900Y-82034147D01*
X159477519Y-81941015D01*
X159358985Y-81822481D01*
X159265853Y-81683100D01*
X159201703Y-81528228D01*
X159169000Y-81363816D01*
X159169000Y-81196184D01*
X159201703Y-81031772D01*
X159265853Y-80876900D01*
X159358985Y-80737519D01*
X159477519Y-80618985D01*
X159616900Y-80525853D01*
X159771772Y-80461703D01*
X159936184Y-80429000D01*
X160103816Y-80429000D01*
X160268228Y-80461703D01*
G37*
G36*
X145028228Y-80461703D02*
G01*
X145183100Y-80525853D01*
X145322481Y-80618985D01*
X145441015Y-80737519D01*
X145534147Y-80876900D01*
X145598297Y-81031772D01*
X145631000Y-81196184D01*
X145631000Y-81363816D01*
X145598297Y-81528228D01*
X145534147Y-81683100D01*
X145441015Y-81822481D01*
X145322481Y-81941015D01*
X145183100Y-82034147D01*
X145028228Y-82098297D01*
X144863816Y-82131000D01*
X144696184Y-82131000D01*
X144531772Y-82098297D01*
X144376900Y-82034147D01*
X144237519Y-81941015D01*
X144118985Y-81822481D01*
X144025853Y-81683100D01*
X143961703Y-81528228D01*
X143929000Y-81363816D01*
X143929000Y-81196184D01*
X143961703Y-81031772D01*
X144025853Y-80876900D01*
X144118985Y-80737519D01*
X144237519Y-80618985D01*
X144376900Y-80525853D01*
X144531772Y-80461703D01*
X144696184Y-80429000D01*
X144863816Y-80429000D01*
X145028228Y-80461703D01*
G37*
G36*
X145631000Y-79591000D02*
G01*
X143929000Y-79591000D01*
X143929000Y-77889000D01*
X145631000Y-77889000D01*
X145631000Y-79591000D01*
G37*
G36*
X160268228Y-77921703D02*
G01*
X160423100Y-77985853D01*
X160562481Y-78078985D01*
X160681015Y-78197519D01*
X160774147Y-78336900D01*
X160838297Y-78491772D01*
X160871000Y-78656184D01*
X160871000Y-78823816D01*
X160838297Y-78988228D01*
X160774147Y-79143100D01*
X160681015Y-79282481D01*
X160562481Y-79401015D01*
X160423100Y-79494147D01*
X160268228Y-79558297D01*
X160103816Y-79591000D01*
X159936184Y-79591000D01*
X159771772Y-79558297D01*
X159616900Y-79494147D01*
X159477519Y-79401015D01*
X159358985Y-79282481D01*
X159265853Y-79143100D01*
X159201703Y-78988228D01*
X159169000Y-78823816D01*
X159169000Y-78656184D01*
X159201703Y-78491772D01*
X159265853Y-78336900D01*
X159358985Y-78197519D01*
X159477519Y-78078985D01*
X159616900Y-77985853D01*
X159771772Y-77921703D01*
X159936184Y-77889000D01*
X160103816Y-77889000D01*
X160268228Y-77921703D01*
G37*
M02*
