M48
; DRILL file {KiCad (5.1.5-0-10_14)} date Tuesday, May 05, 2020 at 07:23:25 PM
; FORMAT={-:-/ absolute / inch / decimal}
; #@! TF.CreationDate,2020-05-05T19:23:25-07:00
; #@! TF.GenerationSoftware,Kicad,Pcbnew,(5.1.5-0-10_14)
; #@! TF.FileFunction,Plated,1,2,PTH
FMAT,2
INCH
T1C0.0118
T2C0.0315
T3C0.0394
%
G90
G05
T1
X5.47Y-4.58
X5.5Y-4.7362
X5.53Y-4.635
X5.5308Y-4.465
X5.55Y-3.63
X5.555Y-4.49
X5.58Y-4.515
X5.59Y-3.63
X5.605Y-4.54
X5.62Y-3.8
X5.62Y-4.0
X5.65Y-4.665
X5.72Y-4.62
X5.755Y-4.51
X5.78Y-4.58
X5.805Y-4.54
X5.885Y-4.64
X5.91Y-4.58
X5.91Y-4.62
X6.15Y-4.695
X6.27Y-4.63
X6.35Y-4.665
X6.38Y-3.5
X6.38Y-3.6
X6.395Y-4.535
X6.41Y-3.58
X6.41Y-4.12
X6.42Y-4.51
X6.445Y-4.485
X6.45Y-3.58
X6.45Y-4.12
X6.4692Y-4.46
X6.475Y-4.63
X6.53Y-4.56
T2
X5.7Y-3.1
X5.7Y-3.2
X5.7Y-3.3
X5.7Y-3.4
X5.7Y-3.5
X5.7Y-3.6
X5.7Y-3.7
X5.7Y-3.8
X5.7Y-3.9
X5.7Y-4.0
X5.7Y-4.1
X5.7Y-4.2
X5.7Y-4.3
X5.7Y-4.4
X6.3Y-3.1
X6.3Y-3.2
X6.3Y-3.3
X6.3Y-3.4
X6.3Y-3.5
X6.3Y-3.6
X6.3Y-3.7
X6.3Y-3.8
X6.3Y-3.9
X6.3Y-4.0
X6.3Y-4.1
X6.3Y-4.2
X6.3Y-4.3
X6.3Y-4.4
T3
X5.5Y-4.7362
X5.5Y-4.8362
X5.6Y-4.7362
X5.6Y-4.8362
X5.7Y-4.7362
X5.7Y-4.8362
X5.8Y-4.7362
X5.8Y-4.8362
X5.9Y-4.7362
X5.9Y-4.8362
X6.0Y-4.7362
X6.0Y-4.8362
X6.1Y-4.7362
X6.1Y-4.8362
X6.2Y-4.7362
X6.2Y-4.8362
X6.3Y-4.7362
X6.3Y-4.8362
X6.4Y-4.7362
X6.4Y-4.8362
X6.5Y-4.7362
X6.5Y-4.8362
T0
M30
