G04 #@! TF.GenerationSoftware,KiCad,Pcbnew,(5.1.5-0-10_14)*
G04 #@! TF.CreationDate,2020-05-05T19:23:22-07:00*
G04 #@! TF.ProjectId,N64 Mask ROM Breakout,4e363420-4d61-4736-9b20-524f4d204272,rev?*
G04 #@! TF.SameCoordinates,Original*
G04 #@! TF.FileFunction,Copper,L1,Top*
G04 #@! TF.FilePolarity,Positive*
%FSLAX46Y46*%
G04 Gerber Fmt 4.6, Leading zero omitted, Abs format (unit mm)*
G04 Created by KiCad (PCBNEW (5.1.5-0-10_14)) date 2020-05-05 19:23:22*
%MOMM*%
%LPD*%
G04 APERTURE LIST*
%ADD10O,1.700000X1.700000*%
%ADD11R,1.700000X1.700000*%
%ADD12O,1.600000X1.600000*%
%ADD13R,1.600000X1.600000*%
%ADD14C,0.100000*%
%ADD15C,0.600000*%
%ADD16C,0.304800*%
%ADD17C,0.152400*%
G04 APERTURE END LIST*
D10*
X139700000Y-122840000D03*
X139700000Y-120300000D03*
X142240000Y-122840000D03*
X142240000Y-120300000D03*
X144780000Y-122840000D03*
X144780000Y-120300000D03*
X147320000Y-122840000D03*
X147320000Y-120300000D03*
X149860000Y-122840000D03*
X149860000Y-120300000D03*
X152400000Y-122840000D03*
X152400000Y-120300000D03*
X154940000Y-122840000D03*
X154940000Y-120300000D03*
X157480000Y-122840000D03*
X157480000Y-120300000D03*
X160020000Y-122840000D03*
X160020000Y-120300000D03*
X162560000Y-122840000D03*
X162560000Y-120300000D03*
X165100000Y-122840000D03*
D11*
X165100000Y-120300000D03*
D12*
X160020000Y-78740000D03*
X144780000Y-111760000D03*
X160020000Y-81280000D03*
X144780000Y-109220000D03*
X160020000Y-83820000D03*
X144780000Y-106680000D03*
X160020000Y-86360000D03*
X144780000Y-104140000D03*
X160020000Y-88900000D03*
X144780000Y-101600000D03*
X160020000Y-91440000D03*
X144780000Y-99060000D03*
X160020000Y-93980000D03*
X144780000Y-96520000D03*
X160020000Y-96520000D03*
X144780000Y-93980000D03*
X160020000Y-99060000D03*
X144780000Y-91440000D03*
X160020000Y-101600000D03*
X144780000Y-88900000D03*
X160020000Y-104140000D03*
X144780000Y-86360000D03*
X160020000Y-106680000D03*
X144780000Y-83820000D03*
X160020000Y-109220000D03*
X144780000Y-81280000D03*
X160020000Y-111760000D03*
D13*
X144780000Y-78740000D03*
G04 #@! TA.AperFunction,SMDPad,CuDef*
D14*
G36*
X141958142Y-90367174D02*
G01*
X141981803Y-90370684D01*
X142005007Y-90376496D01*
X142027529Y-90384554D01*
X142049153Y-90394782D01*
X142069670Y-90407079D01*
X142088883Y-90421329D01*
X142106607Y-90437393D01*
X142122671Y-90455117D01*
X142136921Y-90474330D01*
X142149218Y-90494847D01*
X142159446Y-90516471D01*
X142167504Y-90538993D01*
X142173316Y-90562197D01*
X142176826Y-90585858D01*
X142178000Y-90609750D01*
X142178000Y-91097250D01*
X142176826Y-91121142D01*
X142173316Y-91144803D01*
X142167504Y-91168007D01*
X142159446Y-91190529D01*
X142149218Y-91212153D01*
X142136921Y-91232670D01*
X142122671Y-91251883D01*
X142106607Y-91269607D01*
X142088883Y-91285671D01*
X142069670Y-91299921D01*
X142049153Y-91312218D01*
X142027529Y-91322446D01*
X142005007Y-91330504D01*
X141981803Y-91336316D01*
X141958142Y-91339826D01*
X141934250Y-91341000D01*
X141021750Y-91341000D01*
X140997858Y-91339826D01*
X140974197Y-91336316D01*
X140950993Y-91330504D01*
X140928471Y-91322446D01*
X140906847Y-91312218D01*
X140886330Y-91299921D01*
X140867117Y-91285671D01*
X140849393Y-91269607D01*
X140833329Y-91251883D01*
X140819079Y-91232670D01*
X140806782Y-91212153D01*
X140796554Y-91190529D01*
X140788496Y-91168007D01*
X140782684Y-91144803D01*
X140779174Y-91121142D01*
X140778000Y-91097250D01*
X140778000Y-90609750D01*
X140779174Y-90585858D01*
X140782684Y-90562197D01*
X140788496Y-90538993D01*
X140796554Y-90516471D01*
X140806782Y-90494847D01*
X140819079Y-90474330D01*
X140833329Y-90455117D01*
X140849393Y-90437393D01*
X140867117Y-90421329D01*
X140886330Y-90407079D01*
X140906847Y-90394782D01*
X140928471Y-90384554D01*
X140950993Y-90376496D01*
X140974197Y-90370684D01*
X140997858Y-90367174D01*
X141021750Y-90366000D01*
X141934250Y-90366000D01*
X141958142Y-90367174D01*
G37*
G04 #@! TD.AperFunction*
G04 #@! TA.AperFunction,SMDPad,CuDef*
G36*
X141958142Y-88492174D02*
G01*
X141981803Y-88495684D01*
X142005007Y-88501496D01*
X142027529Y-88509554D01*
X142049153Y-88519782D01*
X142069670Y-88532079D01*
X142088883Y-88546329D01*
X142106607Y-88562393D01*
X142122671Y-88580117D01*
X142136921Y-88599330D01*
X142149218Y-88619847D01*
X142159446Y-88641471D01*
X142167504Y-88663993D01*
X142173316Y-88687197D01*
X142176826Y-88710858D01*
X142178000Y-88734750D01*
X142178000Y-89222250D01*
X142176826Y-89246142D01*
X142173316Y-89269803D01*
X142167504Y-89293007D01*
X142159446Y-89315529D01*
X142149218Y-89337153D01*
X142136921Y-89357670D01*
X142122671Y-89376883D01*
X142106607Y-89394607D01*
X142088883Y-89410671D01*
X142069670Y-89424921D01*
X142049153Y-89437218D01*
X142027529Y-89447446D01*
X142005007Y-89455504D01*
X141981803Y-89461316D01*
X141958142Y-89464826D01*
X141934250Y-89466000D01*
X141021750Y-89466000D01*
X140997858Y-89464826D01*
X140974197Y-89461316D01*
X140950993Y-89455504D01*
X140928471Y-89447446D01*
X140906847Y-89437218D01*
X140886330Y-89424921D01*
X140867117Y-89410671D01*
X140849393Y-89394607D01*
X140833329Y-89376883D01*
X140819079Y-89357670D01*
X140806782Y-89337153D01*
X140796554Y-89315529D01*
X140788496Y-89293007D01*
X140782684Y-89269803D01*
X140779174Y-89246142D01*
X140778000Y-89222250D01*
X140778000Y-88734750D01*
X140779174Y-88710858D01*
X140782684Y-88687197D01*
X140788496Y-88663993D01*
X140796554Y-88641471D01*
X140806782Y-88619847D01*
X140819079Y-88599330D01*
X140833329Y-88580117D01*
X140849393Y-88562393D01*
X140867117Y-88546329D01*
X140886330Y-88532079D01*
X140906847Y-88519782D01*
X140928471Y-88509554D01*
X140950993Y-88501496D01*
X140974197Y-88495684D01*
X140997858Y-88492174D01*
X141021750Y-88491000D01*
X141934250Y-88491000D01*
X141958142Y-88492174D01*
G37*
G04 #@! TD.AperFunction*
G04 #@! TA.AperFunction,SMDPad,CuDef*
G36*
X163802142Y-91540174D02*
G01*
X163825803Y-91543684D01*
X163849007Y-91549496D01*
X163871529Y-91557554D01*
X163893153Y-91567782D01*
X163913670Y-91580079D01*
X163932883Y-91594329D01*
X163950607Y-91610393D01*
X163966671Y-91628117D01*
X163980921Y-91647330D01*
X163993218Y-91667847D01*
X164003446Y-91689471D01*
X164011504Y-91711993D01*
X164017316Y-91735197D01*
X164020826Y-91758858D01*
X164022000Y-91782750D01*
X164022000Y-92270250D01*
X164020826Y-92294142D01*
X164017316Y-92317803D01*
X164011504Y-92341007D01*
X164003446Y-92363529D01*
X163993218Y-92385153D01*
X163980921Y-92405670D01*
X163966671Y-92424883D01*
X163950607Y-92442607D01*
X163932883Y-92458671D01*
X163913670Y-92472921D01*
X163893153Y-92485218D01*
X163871529Y-92495446D01*
X163849007Y-92503504D01*
X163825803Y-92509316D01*
X163802142Y-92512826D01*
X163778250Y-92514000D01*
X162865750Y-92514000D01*
X162841858Y-92512826D01*
X162818197Y-92509316D01*
X162794993Y-92503504D01*
X162772471Y-92495446D01*
X162750847Y-92485218D01*
X162730330Y-92472921D01*
X162711117Y-92458671D01*
X162693393Y-92442607D01*
X162677329Y-92424883D01*
X162663079Y-92405670D01*
X162650782Y-92385153D01*
X162640554Y-92363529D01*
X162632496Y-92341007D01*
X162626684Y-92317803D01*
X162623174Y-92294142D01*
X162622000Y-92270250D01*
X162622000Y-91782750D01*
X162623174Y-91758858D01*
X162626684Y-91735197D01*
X162632496Y-91711993D01*
X162640554Y-91689471D01*
X162650782Y-91667847D01*
X162663079Y-91647330D01*
X162677329Y-91628117D01*
X162693393Y-91610393D01*
X162711117Y-91594329D01*
X162730330Y-91580079D01*
X162750847Y-91567782D01*
X162772471Y-91557554D01*
X162794993Y-91549496D01*
X162818197Y-91543684D01*
X162841858Y-91540174D01*
X162865750Y-91539000D01*
X163778250Y-91539000D01*
X163802142Y-91540174D01*
G37*
G04 #@! TD.AperFunction*
G04 #@! TA.AperFunction,SMDPad,CuDef*
G36*
X163802142Y-93415174D02*
G01*
X163825803Y-93418684D01*
X163849007Y-93424496D01*
X163871529Y-93432554D01*
X163893153Y-93442782D01*
X163913670Y-93455079D01*
X163932883Y-93469329D01*
X163950607Y-93485393D01*
X163966671Y-93503117D01*
X163980921Y-93522330D01*
X163993218Y-93542847D01*
X164003446Y-93564471D01*
X164011504Y-93586993D01*
X164017316Y-93610197D01*
X164020826Y-93633858D01*
X164022000Y-93657750D01*
X164022000Y-94145250D01*
X164020826Y-94169142D01*
X164017316Y-94192803D01*
X164011504Y-94216007D01*
X164003446Y-94238529D01*
X163993218Y-94260153D01*
X163980921Y-94280670D01*
X163966671Y-94299883D01*
X163950607Y-94317607D01*
X163932883Y-94333671D01*
X163913670Y-94347921D01*
X163893153Y-94360218D01*
X163871529Y-94370446D01*
X163849007Y-94378504D01*
X163825803Y-94384316D01*
X163802142Y-94387826D01*
X163778250Y-94389000D01*
X162865750Y-94389000D01*
X162841858Y-94387826D01*
X162818197Y-94384316D01*
X162794993Y-94378504D01*
X162772471Y-94370446D01*
X162750847Y-94360218D01*
X162730330Y-94347921D01*
X162711117Y-94333671D01*
X162693393Y-94317607D01*
X162677329Y-94299883D01*
X162663079Y-94280670D01*
X162650782Y-94260153D01*
X162640554Y-94238529D01*
X162632496Y-94216007D01*
X162626684Y-94192803D01*
X162623174Y-94169142D01*
X162622000Y-94145250D01*
X162622000Y-93657750D01*
X162623174Y-93633858D01*
X162626684Y-93610197D01*
X162632496Y-93586993D01*
X162640554Y-93564471D01*
X162650782Y-93542847D01*
X162663079Y-93522330D01*
X162677329Y-93503117D01*
X162693393Y-93485393D01*
X162711117Y-93469329D01*
X162730330Y-93455079D01*
X162750847Y-93442782D01*
X162772471Y-93432554D01*
X162794993Y-93424496D01*
X162818197Y-93418684D01*
X162841858Y-93415174D01*
X162865750Y-93414000D01*
X163778250Y-93414000D01*
X163802142Y-93415174D01*
G37*
G04 #@! TD.AperFunction*
G04 #@! TA.AperFunction,SMDPad,CuDef*
G36*
X163802142Y-102988674D02*
G01*
X163825803Y-102992184D01*
X163849007Y-102997996D01*
X163871529Y-103006054D01*
X163893153Y-103016282D01*
X163913670Y-103028579D01*
X163932883Y-103042829D01*
X163950607Y-103058893D01*
X163966671Y-103076617D01*
X163980921Y-103095830D01*
X163993218Y-103116347D01*
X164003446Y-103137971D01*
X164011504Y-103160493D01*
X164017316Y-103183697D01*
X164020826Y-103207358D01*
X164022000Y-103231250D01*
X164022000Y-103718750D01*
X164020826Y-103742642D01*
X164017316Y-103766303D01*
X164011504Y-103789507D01*
X164003446Y-103812029D01*
X163993218Y-103833653D01*
X163980921Y-103854170D01*
X163966671Y-103873383D01*
X163950607Y-103891107D01*
X163932883Y-103907171D01*
X163913670Y-103921421D01*
X163893153Y-103933718D01*
X163871529Y-103943946D01*
X163849007Y-103952004D01*
X163825803Y-103957816D01*
X163802142Y-103961326D01*
X163778250Y-103962500D01*
X162865750Y-103962500D01*
X162841858Y-103961326D01*
X162818197Y-103957816D01*
X162794993Y-103952004D01*
X162772471Y-103943946D01*
X162750847Y-103933718D01*
X162730330Y-103921421D01*
X162711117Y-103907171D01*
X162693393Y-103891107D01*
X162677329Y-103873383D01*
X162663079Y-103854170D01*
X162650782Y-103833653D01*
X162640554Y-103812029D01*
X162632496Y-103789507D01*
X162626684Y-103766303D01*
X162623174Y-103742642D01*
X162622000Y-103718750D01*
X162622000Y-103231250D01*
X162623174Y-103207358D01*
X162626684Y-103183697D01*
X162632496Y-103160493D01*
X162640554Y-103137971D01*
X162650782Y-103116347D01*
X162663079Y-103095830D01*
X162677329Y-103076617D01*
X162693393Y-103058893D01*
X162711117Y-103042829D01*
X162730330Y-103028579D01*
X162750847Y-103016282D01*
X162772471Y-103006054D01*
X162794993Y-102997996D01*
X162818197Y-102992184D01*
X162841858Y-102988674D01*
X162865750Y-102987500D01*
X163778250Y-102987500D01*
X163802142Y-102988674D01*
G37*
G04 #@! TD.AperFunction*
G04 #@! TA.AperFunction,SMDPad,CuDef*
G36*
X163802142Y-101113674D02*
G01*
X163825803Y-101117184D01*
X163849007Y-101122996D01*
X163871529Y-101131054D01*
X163893153Y-101141282D01*
X163913670Y-101153579D01*
X163932883Y-101167829D01*
X163950607Y-101183893D01*
X163966671Y-101201617D01*
X163980921Y-101220830D01*
X163993218Y-101241347D01*
X164003446Y-101262971D01*
X164011504Y-101285493D01*
X164017316Y-101308697D01*
X164020826Y-101332358D01*
X164022000Y-101356250D01*
X164022000Y-101843750D01*
X164020826Y-101867642D01*
X164017316Y-101891303D01*
X164011504Y-101914507D01*
X164003446Y-101937029D01*
X163993218Y-101958653D01*
X163980921Y-101979170D01*
X163966671Y-101998383D01*
X163950607Y-102016107D01*
X163932883Y-102032171D01*
X163913670Y-102046421D01*
X163893153Y-102058718D01*
X163871529Y-102068946D01*
X163849007Y-102077004D01*
X163825803Y-102082816D01*
X163802142Y-102086326D01*
X163778250Y-102087500D01*
X162865750Y-102087500D01*
X162841858Y-102086326D01*
X162818197Y-102082816D01*
X162794993Y-102077004D01*
X162772471Y-102068946D01*
X162750847Y-102058718D01*
X162730330Y-102046421D01*
X162711117Y-102032171D01*
X162693393Y-102016107D01*
X162677329Y-101998383D01*
X162663079Y-101979170D01*
X162650782Y-101958653D01*
X162640554Y-101937029D01*
X162632496Y-101914507D01*
X162626684Y-101891303D01*
X162623174Y-101867642D01*
X162622000Y-101843750D01*
X162622000Y-101356250D01*
X162623174Y-101332358D01*
X162626684Y-101308697D01*
X162632496Y-101285493D01*
X162640554Y-101262971D01*
X162650782Y-101241347D01*
X162663079Y-101220830D01*
X162677329Y-101201617D01*
X162693393Y-101183893D01*
X162711117Y-101167829D01*
X162730330Y-101153579D01*
X162750847Y-101141282D01*
X162772471Y-101131054D01*
X162794993Y-101122996D01*
X162818197Y-101117184D01*
X162841858Y-101113674D01*
X162865750Y-101112500D01*
X163778250Y-101112500D01*
X163802142Y-101113674D01*
G37*
G04 #@! TD.AperFunction*
G04 #@! TA.AperFunction,SMDPad,CuDef*
G36*
X151730142Y-116141174D02*
G01*
X151753803Y-116144684D01*
X151777007Y-116150496D01*
X151799529Y-116158554D01*
X151821153Y-116168782D01*
X151841670Y-116181079D01*
X151860883Y-116195329D01*
X151878607Y-116211393D01*
X151894671Y-116229117D01*
X151908921Y-116248330D01*
X151921218Y-116268847D01*
X151931446Y-116290471D01*
X151939504Y-116312993D01*
X151945316Y-116336197D01*
X151948826Y-116359858D01*
X151950000Y-116383750D01*
X151950000Y-117296250D01*
X151948826Y-117320142D01*
X151945316Y-117343803D01*
X151939504Y-117367007D01*
X151931446Y-117389529D01*
X151921218Y-117411153D01*
X151908921Y-117431670D01*
X151894671Y-117450883D01*
X151878607Y-117468607D01*
X151860883Y-117484671D01*
X151841670Y-117498921D01*
X151821153Y-117511218D01*
X151799529Y-117521446D01*
X151777007Y-117529504D01*
X151753803Y-117535316D01*
X151730142Y-117538826D01*
X151706250Y-117540000D01*
X151218750Y-117540000D01*
X151194858Y-117538826D01*
X151171197Y-117535316D01*
X151147993Y-117529504D01*
X151125471Y-117521446D01*
X151103847Y-117511218D01*
X151083330Y-117498921D01*
X151064117Y-117484671D01*
X151046393Y-117468607D01*
X151030329Y-117450883D01*
X151016079Y-117431670D01*
X151003782Y-117411153D01*
X150993554Y-117389529D01*
X150985496Y-117367007D01*
X150979684Y-117343803D01*
X150976174Y-117320142D01*
X150975000Y-117296250D01*
X150975000Y-116383750D01*
X150976174Y-116359858D01*
X150979684Y-116336197D01*
X150985496Y-116312993D01*
X150993554Y-116290471D01*
X151003782Y-116268847D01*
X151016079Y-116248330D01*
X151030329Y-116229117D01*
X151046393Y-116211393D01*
X151064117Y-116195329D01*
X151083330Y-116181079D01*
X151103847Y-116168782D01*
X151125471Y-116158554D01*
X151147993Y-116150496D01*
X151171197Y-116144684D01*
X151194858Y-116141174D01*
X151218750Y-116140000D01*
X151706250Y-116140000D01*
X151730142Y-116141174D01*
G37*
G04 #@! TD.AperFunction*
G04 #@! TA.AperFunction,SMDPad,CuDef*
G36*
X153605142Y-116141174D02*
G01*
X153628803Y-116144684D01*
X153652007Y-116150496D01*
X153674529Y-116158554D01*
X153696153Y-116168782D01*
X153716670Y-116181079D01*
X153735883Y-116195329D01*
X153753607Y-116211393D01*
X153769671Y-116229117D01*
X153783921Y-116248330D01*
X153796218Y-116268847D01*
X153806446Y-116290471D01*
X153814504Y-116312993D01*
X153820316Y-116336197D01*
X153823826Y-116359858D01*
X153825000Y-116383750D01*
X153825000Y-117296250D01*
X153823826Y-117320142D01*
X153820316Y-117343803D01*
X153814504Y-117367007D01*
X153806446Y-117389529D01*
X153796218Y-117411153D01*
X153783921Y-117431670D01*
X153769671Y-117450883D01*
X153753607Y-117468607D01*
X153735883Y-117484671D01*
X153716670Y-117498921D01*
X153696153Y-117511218D01*
X153674529Y-117521446D01*
X153652007Y-117529504D01*
X153628803Y-117535316D01*
X153605142Y-117538826D01*
X153581250Y-117540000D01*
X153093750Y-117540000D01*
X153069858Y-117538826D01*
X153046197Y-117535316D01*
X153022993Y-117529504D01*
X153000471Y-117521446D01*
X152978847Y-117511218D01*
X152958330Y-117498921D01*
X152939117Y-117484671D01*
X152921393Y-117468607D01*
X152905329Y-117450883D01*
X152891079Y-117431670D01*
X152878782Y-117411153D01*
X152868554Y-117389529D01*
X152860496Y-117367007D01*
X152854684Y-117343803D01*
X152851174Y-117320142D01*
X152850000Y-117296250D01*
X152850000Y-116383750D01*
X152851174Y-116359858D01*
X152854684Y-116336197D01*
X152860496Y-116312993D01*
X152868554Y-116290471D01*
X152878782Y-116268847D01*
X152891079Y-116248330D01*
X152905329Y-116229117D01*
X152921393Y-116211393D01*
X152939117Y-116195329D01*
X152958330Y-116181079D01*
X152978847Y-116168782D01*
X153000471Y-116158554D01*
X153022993Y-116150496D01*
X153046197Y-116144684D01*
X153069858Y-116141174D01*
X153093750Y-116140000D01*
X153581250Y-116140000D01*
X153605142Y-116141174D01*
G37*
G04 #@! TD.AperFunction*
D15*
X140970000Y-92202000D03*
X141986000Y-92202000D03*
X162814000Y-90932000D03*
X163830000Y-90932000D03*
X163830000Y-104648000D03*
X162814000Y-104648000D03*
X150114000Y-116332000D03*
X150114000Y-117348000D03*
X142748000Y-96520000D03*
X142748000Y-101600000D03*
X162052000Y-88900000D03*
X162052000Y-91440000D03*
X139700000Y-120300000D03*
X149479000Y-117856004D03*
X147447000Y-115316000D03*
X156210000Y-119253000D03*
X146811998Y-116332000D03*
X146177000Y-114554000D03*
X164317390Y-113284000D03*
X165862000Y-115824000D03*
X140482610Y-113411000D03*
X138938000Y-116332000D03*
X164465000Y-117602000D03*
X163703000Y-113919000D03*
X140462000Y-117729006D03*
X141097000Y-114046000D03*
X161290000Y-118491000D03*
X163068000Y-114554000D03*
X143510000Y-118491000D03*
X141732000Y-114681000D03*
X159258000Y-117602000D03*
X162433000Y-115189000D03*
X142367000Y-115316000D03*
X145288000Y-117348000D03*
D16*
X151130000Y-121570000D02*
X151130000Y-117172500D01*
X151130000Y-117172500D02*
X151462500Y-116840000D01*
X152400000Y-122840000D02*
X151130000Y-121570000D01*
X163807527Y-92512027D02*
X163322000Y-92026500D01*
X164338000Y-93042500D02*
X163807527Y-92512027D01*
X164338000Y-102459000D02*
X164338000Y-93042500D01*
X163322000Y-103475000D02*
X164338000Y-102459000D01*
X160020000Y-91440000D02*
X160020000Y-88900000D01*
X141478000Y-91341000D02*
X141478000Y-90853500D01*
X144780000Y-96520000D02*
X141478000Y-93218000D01*
X150114000Y-117348000D02*
X150622000Y-116840000D01*
X150622000Y-116840000D02*
X151462500Y-116840000D01*
X150114000Y-116332000D02*
X150622000Y-116840000D01*
X140970000Y-92202000D02*
X141478000Y-91694000D01*
X141478000Y-91694000D02*
X141478000Y-91341000D01*
X141478000Y-93218000D02*
X141478000Y-91694000D01*
X141986000Y-92202000D02*
X141478000Y-91694000D01*
X162814000Y-90932000D02*
X163322000Y-91440000D01*
X163322000Y-91440000D02*
X163322000Y-92026500D01*
X163830000Y-90932000D02*
X163322000Y-91440000D01*
X162814000Y-104648000D02*
X163322000Y-104140000D01*
X163322000Y-104140000D02*
X163322000Y-103475000D01*
X163830000Y-104648000D02*
X163322000Y-104140000D01*
X141478000Y-100330000D02*
X142748000Y-101600000D01*
X141478000Y-93218000D02*
X141478000Y-100330000D01*
X142748000Y-101600000D02*
X144780000Y-101600000D01*
X142748000Y-96520000D02*
X144780000Y-96520000D01*
X160020000Y-91440000D02*
X162052000Y-91440000D01*
X163243500Y-91948000D02*
X163322000Y-92026500D01*
X162560000Y-91948000D02*
X163243500Y-91948000D01*
X162052000Y-91440000D02*
X162560000Y-91948000D01*
X160020000Y-88900000D02*
X162052000Y-88900000D01*
X153337500Y-119362500D02*
X153337500Y-116840000D01*
X152400000Y-120300000D02*
X153337500Y-119362500D01*
X144701500Y-88978500D02*
X144780000Y-88900000D01*
X141351000Y-88978500D02*
X144701500Y-88978500D01*
X163243500Y-93980000D02*
X163322000Y-93901500D01*
X160020000Y-93980000D02*
X163243500Y-93980000D01*
X160020000Y-101600000D02*
X163322000Y-101600000D01*
X163322000Y-101600000D02*
X163322000Y-93901500D01*
X153337500Y-116840000D02*
X153416000Y-92075000D01*
X155321000Y-93980000D02*
X153416000Y-92075000D01*
X160020000Y-93980000D02*
X155321000Y-93980000D01*
X150241000Y-88900000D02*
X144780000Y-88900000D01*
X153416000Y-92075000D02*
X150241000Y-88900000D01*
D17*
X165100000Y-115824000D02*
X165100000Y-120300000D01*
X166370000Y-83947000D02*
X166370000Y-114554000D01*
X161163000Y-78740000D02*
X166370000Y-83947000D01*
X166370000Y-114554000D02*
X165100000Y-115824000D01*
X160020000Y-78740000D02*
X161163000Y-78740000D01*
X139604000Y-120300000D02*
X139700000Y-120300000D01*
X138430000Y-114744500D02*
X139700000Y-116014500D01*
X138430000Y-83978800D02*
X138430000Y-114744500D01*
X139700000Y-116014500D02*
X139700000Y-120300000D01*
X143668800Y-78740000D02*
X138430000Y-83978800D01*
X144780000Y-78740000D02*
X143668800Y-78740000D01*
X162560000Y-117602000D02*
X162560000Y-120300000D01*
X165862000Y-114300000D02*
X162560000Y-117602000D01*
X165862000Y-85344000D02*
X165862000Y-114300000D01*
X161798000Y-81280000D02*
X165862000Y-85344000D01*
X160020000Y-81280000D02*
X161798000Y-81280000D01*
X142240000Y-117856000D02*
X142240000Y-120300000D01*
X138938000Y-85312250D02*
X138938000Y-114554000D01*
X138938000Y-114554000D02*
X142240000Y-117856000D01*
X142970250Y-81280000D02*
X138938000Y-85312250D01*
X144780000Y-81280000D02*
X142970250Y-81280000D01*
X160909000Y-117348000D02*
X160020000Y-118237000D01*
X162115500Y-117348000D02*
X160909000Y-117348000D01*
X160020000Y-118237000D02*
X160020000Y-120300000D01*
X165354000Y-114109500D02*
X162115500Y-117348000D01*
X165354000Y-86614000D02*
X165354000Y-114109500D01*
X162560000Y-83820000D02*
X165354000Y-86614000D01*
X160020000Y-83820000D02*
X162560000Y-83820000D01*
X144780000Y-118237000D02*
X144780000Y-120300000D01*
X143891000Y-117348000D02*
X144780000Y-118237000D01*
X139446000Y-114300000D02*
X142494000Y-117348000D01*
X142494000Y-117348000D02*
X143891000Y-117348000D01*
X139446000Y-86614000D02*
X139446000Y-114300000D01*
X142240000Y-83820000D02*
X139446000Y-86614000D01*
X144780000Y-83820000D02*
X142240000Y-83820000D01*
X157480000Y-119097919D02*
X157480000Y-120300000D01*
X157480000Y-118237000D02*
X157480000Y-119097919D01*
X159131000Y-116586000D02*
X157480000Y-118237000D01*
X162115500Y-116586000D02*
X159131000Y-116586000D01*
X164846000Y-113855500D02*
X162115500Y-116586000D01*
X160020000Y-86360000D02*
X163322000Y-86360000D01*
X164846000Y-87884000D02*
X164846000Y-113855500D01*
X163322000Y-86360000D02*
X164846000Y-87884000D01*
X147320000Y-118237000D02*
X147320000Y-120300000D01*
X139954000Y-87947500D02*
X139954000Y-114046000D01*
X139954000Y-114046000D02*
X142621000Y-116713000D01*
X141541500Y-86360000D02*
X139954000Y-87947500D01*
X145796000Y-116713000D02*
X147320000Y-118237000D01*
X142621000Y-116713000D02*
X145796000Y-116713000D01*
X144780000Y-86360000D02*
X141541500Y-86360000D01*
X149860000Y-120300000D02*
X149860000Y-118237004D01*
X149860000Y-118237004D02*
X149479000Y-117856004D01*
X147320000Y-115189000D02*
X147447000Y-115316000D01*
X147320000Y-93980000D02*
X147320000Y-115189000D01*
X144780000Y-91440000D02*
X147320000Y-93980000D01*
X156210000Y-121570000D02*
X156210000Y-119253000D01*
X154940000Y-122840000D02*
X156210000Y-121570000D01*
X144780000Y-93980000D02*
X146811998Y-96011998D01*
X146811998Y-115907736D02*
X146811998Y-116332000D01*
X146811998Y-96011998D02*
X146811998Y-115907736D01*
X158496000Y-100584000D02*
X160020000Y-99060000D01*
X158496000Y-116078000D02*
X158496000Y-100584000D01*
X156210000Y-118364000D02*
X158496000Y-116078000D01*
X156210000Y-119253000D02*
X156210000Y-118364000D01*
X146304000Y-114427000D02*
X146177000Y-114554000D01*
X146304000Y-100584000D02*
X146304000Y-114427000D01*
X144780000Y-99060000D02*
X146304000Y-100584000D01*
X164317390Y-108437390D02*
X164317390Y-112859736D01*
X164317390Y-112859736D02*
X164317390Y-113284000D01*
X160020000Y-104140000D02*
X164317390Y-108437390D01*
X165862000Y-118618000D02*
X165862000Y-115824000D01*
X166415999Y-119171999D02*
X165862000Y-118618000D01*
X166415999Y-121524001D02*
X166415999Y-119171999D01*
X165100000Y-122840000D02*
X166415999Y-121524001D01*
X140482610Y-108437390D02*
X140482610Y-112986736D01*
X144780000Y-104140000D02*
X140482610Y-108437390D01*
X140482610Y-112986736D02*
X140482610Y-113411000D01*
X138384001Y-119679999D02*
X138938000Y-119126000D01*
X138938000Y-119126000D02*
X138938000Y-116332000D01*
X138384001Y-121524001D02*
X138384001Y-119679999D01*
X139700000Y-122840000D02*
X138384001Y-121524001D01*
X160020000Y-106680000D02*
X163703000Y-110363000D01*
X163703000Y-110363000D02*
X163703000Y-113494736D01*
X163703000Y-113494736D02*
X163703000Y-113919000D01*
X164165001Y-117901999D02*
X164465000Y-117602000D01*
X163830000Y-121570000D02*
X163830000Y-118237000D01*
X163830000Y-118237000D02*
X164165001Y-117901999D01*
X162560000Y-122840000D02*
X163830000Y-121570000D01*
X140761999Y-118029005D02*
X140462000Y-117729006D01*
X140970000Y-118237006D02*
X140761999Y-118029005D01*
X140970000Y-121570000D02*
X140970000Y-118237006D01*
X142240000Y-122840000D02*
X140970000Y-121570000D01*
X144780000Y-106680000D02*
X141097000Y-110363000D01*
X141097000Y-110363000D02*
X141097000Y-114046000D01*
X161290000Y-121570000D02*
X160020000Y-122840000D01*
X161290000Y-118491000D02*
X161290000Y-121570000D01*
X160020000Y-109220000D02*
X163068000Y-112268000D01*
X163068000Y-112268000D02*
X163068000Y-114554000D01*
X143510000Y-121570000D02*
X143510000Y-118491000D01*
X144780000Y-122840000D02*
X143510000Y-121570000D01*
X144780000Y-109220000D02*
X141732000Y-112268000D01*
X141732000Y-112268000D02*
X141732000Y-114681000D01*
X158958001Y-117901999D02*
X159258000Y-117602000D01*
X158750000Y-121570000D02*
X158750000Y-118110000D01*
X157480000Y-122840000D02*
X158750000Y-121570000D01*
X158750000Y-118110000D02*
X158958001Y-117901999D01*
X160020000Y-111760000D02*
X162433000Y-114173000D01*
X162433000Y-114173000D02*
X162433000Y-115189000D01*
X142367000Y-114173000D02*
X142367000Y-115316000D01*
X144780000Y-111760000D02*
X142367000Y-114173000D01*
X147320000Y-122840000D02*
X146050000Y-121570000D01*
X146050000Y-121570000D02*
X146050000Y-118110000D01*
X146050000Y-118110000D02*
X145587999Y-117647999D01*
X145587999Y-117647999D02*
X145288000Y-117348000D01*
G36*
X167538800Y-125374800D02*
G01*
X137261200Y-125374800D01*
X137261200Y-119679999D01*
X138077728Y-119679999D01*
X138079202Y-119694967D01*
X138079201Y-121509043D01*
X138077728Y-121524001D01*
X138079201Y-121538959D01*
X138079201Y-121538966D01*
X138082258Y-121570000D01*
X138083612Y-121583752D01*
X138097566Y-121629750D01*
X138101041Y-121641206D01*
X138129343Y-121694157D01*
X138167433Y-121740569D01*
X138179062Y-121750113D01*
X138749718Y-122320769D01*
X138744157Y-122329091D01*
X138662850Y-122525384D01*
X138621400Y-122733767D01*
X138621400Y-122946233D01*
X138662850Y-123154616D01*
X138744157Y-123350909D01*
X138862197Y-123527567D01*
X139012433Y-123677803D01*
X139189091Y-123795843D01*
X139385384Y-123877150D01*
X139593767Y-123918600D01*
X139806233Y-123918600D01*
X140014616Y-123877150D01*
X140210909Y-123795843D01*
X140387567Y-123677803D01*
X140537803Y-123527567D01*
X140655843Y-123350909D01*
X140737150Y-123154616D01*
X140778600Y-122946233D01*
X140778600Y-122733767D01*
X140737150Y-122525384D01*
X140655843Y-122329091D01*
X140537803Y-122152433D01*
X140387567Y-122002197D01*
X140210909Y-121884157D01*
X140014616Y-121802850D01*
X139806233Y-121761400D01*
X139593767Y-121761400D01*
X139385384Y-121802850D01*
X139189091Y-121884157D01*
X139180769Y-121889718D01*
X138688801Y-121397750D01*
X138688801Y-120677267D01*
X138744157Y-120810909D01*
X138862197Y-120987567D01*
X139012433Y-121137803D01*
X139189091Y-121255843D01*
X139385384Y-121337150D01*
X139593767Y-121378600D01*
X139806233Y-121378600D01*
X140014616Y-121337150D01*
X140210909Y-121255843D01*
X140387567Y-121137803D01*
X140537803Y-120987567D01*
X140655843Y-120810909D01*
X140665200Y-120788319D01*
X140665200Y-121555042D01*
X140663727Y-121570000D01*
X140665200Y-121584958D01*
X140665200Y-121584965D01*
X140669055Y-121624110D01*
X140669611Y-121629751D01*
X140673086Y-121641206D01*
X140687040Y-121687205D01*
X140715342Y-121740156D01*
X140753432Y-121786568D01*
X140765061Y-121796112D01*
X141289718Y-122320769D01*
X141284157Y-122329091D01*
X141202850Y-122525384D01*
X141161400Y-122733767D01*
X141161400Y-122946233D01*
X141202850Y-123154616D01*
X141284157Y-123350909D01*
X141402197Y-123527567D01*
X141552433Y-123677803D01*
X141729091Y-123795843D01*
X141925384Y-123877150D01*
X142133767Y-123918600D01*
X142346233Y-123918600D01*
X142554616Y-123877150D01*
X142750909Y-123795843D01*
X142927567Y-123677803D01*
X143077803Y-123527567D01*
X143195843Y-123350909D01*
X143277150Y-123154616D01*
X143318600Y-122946233D01*
X143318600Y-122733767D01*
X143277150Y-122525384D01*
X143195843Y-122329091D01*
X143077803Y-122152433D01*
X142927567Y-122002197D01*
X142750909Y-121884157D01*
X142554616Y-121802850D01*
X142346233Y-121761400D01*
X142133767Y-121761400D01*
X141925384Y-121802850D01*
X141729091Y-121884157D01*
X141720769Y-121889718D01*
X141274800Y-121443749D01*
X141274800Y-120788319D01*
X141284157Y-120810909D01*
X141402197Y-120987567D01*
X141552433Y-121137803D01*
X141729091Y-121255843D01*
X141925384Y-121337150D01*
X142133767Y-121378600D01*
X142346233Y-121378600D01*
X142554616Y-121337150D01*
X142750909Y-121255843D01*
X142927567Y-121137803D01*
X143077803Y-120987567D01*
X143195843Y-120810909D01*
X143205200Y-120788319D01*
X143205200Y-121555042D01*
X143203727Y-121570000D01*
X143205200Y-121584958D01*
X143205200Y-121584965D01*
X143209055Y-121624110D01*
X143209611Y-121629751D01*
X143213086Y-121641206D01*
X143227040Y-121687205D01*
X143255342Y-121740156D01*
X143293432Y-121786568D01*
X143305061Y-121796112D01*
X143829718Y-122320769D01*
X143824157Y-122329091D01*
X143742850Y-122525384D01*
X143701400Y-122733767D01*
X143701400Y-122946233D01*
X143742850Y-123154616D01*
X143824157Y-123350909D01*
X143942197Y-123527567D01*
X144092433Y-123677803D01*
X144269091Y-123795843D01*
X144465384Y-123877150D01*
X144673767Y-123918600D01*
X144886233Y-123918600D01*
X145094616Y-123877150D01*
X145290909Y-123795843D01*
X145467567Y-123677803D01*
X145617803Y-123527567D01*
X145735843Y-123350909D01*
X145817150Y-123154616D01*
X145858600Y-122946233D01*
X145858600Y-122733767D01*
X145817150Y-122525384D01*
X145735843Y-122329091D01*
X145617803Y-122152433D01*
X145467567Y-122002197D01*
X145290909Y-121884157D01*
X145094616Y-121802850D01*
X144886233Y-121761400D01*
X144673767Y-121761400D01*
X144465384Y-121802850D01*
X144269091Y-121884157D01*
X144260769Y-121889718D01*
X143814800Y-121443749D01*
X143814800Y-120788319D01*
X143824157Y-120810909D01*
X143942197Y-120987567D01*
X144092433Y-121137803D01*
X144269091Y-121255843D01*
X144465384Y-121337150D01*
X144673767Y-121378600D01*
X144886233Y-121378600D01*
X145094616Y-121337150D01*
X145290909Y-121255843D01*
X145467567Y-121137803D01*
X145617803Y-120987567D01*
X145735843Y-120810909D01*
X145745200Y-120788319D01*
X145745200Y-121555042D01*
X145743727Y-121570000D01*
X145745200Y-121584958D01*
X145745200Y-121584965D01*
X145749055Y-121624110D01*
X145749611Y-121629751D01*
X145753086Y-121641206D01*
X145767040Y-121687205D01*
X145795342Y-121740156D01*
X145833432Y-121786568D01*
X145845061Y-121796112D01*
X146369718Y-122320769D01*
X146364157Y-122329091D01*
X146282850Y-122525384D01*
X146241400Y-122733767D01*
X146241400Y-122946233D01*
X146282850Y-123154616D01*
X146364157Y-123350909D01*
X146482197Y-123527567D01*
X146632433Y-123677803D01*
X146809091Y-123795843D01*
X147005384Y-123877150D01*
X147213767Y-123918600D01*
X147426233Y-123918600D01*
X147634616Y-123877150D01*
X147830909Y-123795843D01*
X148007567Y-123677803D01*
X148157803Y-123527567D01*
X148275843Y-123350909D01*
X148357150Y-123154616D01*
X148398600Y-122946233D01*
X148398600Y-122733767D01*
X148781400Y-122733767D01*
X148781400Y-122946233D01*
X148822850Y-123154616D01*
X148904157Y-123350909D01*
X149022197Y-123527567D01*
X149172433Y-123677803D01*
X149349091Y-123795843D01*
X149545384Y-123877150D01*
X149753767Y-123918600D01*
X149966233Y-123918600D01*
X150174616Y-123877150D01*
X150370909Y-123795843D01*
X150547567Y-123677803D01*
X150697803Y-123527567D01*
X150815843Y-123350909D01*
X150862511Y-123238240D01*
X151022192Y-123238240D01*
X151126359Y-123499385D01*
X151279471Y-123735190D01*
X151475645Y-123936594D01*
X151707341Y-124095856D01*
X151965656Y-124206856D01*
X152001761Y-124217801D01*
X152222200Y-124115820D01*
X152222200Y-123017800D01*
X152577800Y-123017800D01*
X152577800Y-124115820D01*
X152798239Y-124217801D01*
X152834344Y-124206856D01*
X153092659Y-124095856D01*
X153324355Y-123936594D01*
X153520529Y-123735190D01*
X153673641Y-123499385D01*
X153777808Y-123238240D01*
X153677093Y-123017800D01*
X152577800Y-123017800D01*
X152222200Y-123017800D01*
X151122907Y-123017800D01*
X151022192Y-123238240D01*
X150862511Y-123238240D01*
X150897150Y-123154616D01*
X150938600Y-122946233D01*
X150938600Y-122733767D01*
X150897150Y-122525384D01*
X150862512Y-122441760D01*
X151022192Y-122441760D01*
X151122907Y-122662200D01*
X152222200Y-122662200D01*
X152222200Y-121564180D01*
X152577800Y-121564180D01*
X152577800Y-122662200D01*
X153677093Y-122662200D01*
X153777808Y-122441760D01*
X153673641Y-122180615D01*
X153520529Y-121944810D01*
X153324355Y-121743406D01*
X153092659Y-121584144D01*
X152834344Y-121473144D01*
X152798239Y-121462199D01*
X152577800Y-121564180D01*
X152222200Y-121564180D01*
X152001761Y-121462199D01*
X151965656Y-121473144D01*
X151707341Y-121584144D01*
X151475645Y-121743406D01*
X151279471Y-121944810D01*
X151126359Y-122180615D01*
X151022192Y-122441760D01*
X150862512Y-122441760D01*
X150815843Y-122329091D01*
X150697803Y-122152433D01*
X150547567Y-122002197D01*
X150370909Y-121884157D01*
X150174616Y-121802850D01*
X149966233Y-121761400D01*
X149753767Y-121761400D01*
X149545384Y-121802850D01*
X149349091Y-121884157D01*
X149172433Y-122002197D01*
X149022197Y-122152433D01*
X148904157Y-122329091D01*
X148822850Y-122525384D01*
X148781400Y-122733767D01*
X148398600Y-122733767D01*
X148357150Y-122525384D01*
X148275843Y-122329091D01*
X148157803Y-122152433D01*
X148007567Y-122002197D01*
X147830909Y-121884157D01*
X147634616Y-121802850D01*
X147426233Y-121761400D01*
X147213767Y-121761400D01*
X147005384Y-121802850D01*
X146809091Y-121884157D01*
X146800769Y-121889718D01*
X146354800Y-121443749D01*
X146354800Y-120788319D01*
X146364157Y-120810909D01*
X146482197Y-120987567D01*
X146632433Y-121137803D01*
X146809091Y-121255843D01*
X147005384Y-121337150D01*
X147213767Y-121378600D01*
X147426233Y-121378600D01*
X147634616Y-121337150D01*
X147830909Y-121255843D01*
X148007567Y-121137803D01*
X148157803Y-120987567D01*
X148275843Y-120810909D01*
X148357150Y-120614616D01*
X148398600Y-120406233D01*
X148398600Y-120193767D01*
X148781400Y-120193767D01*
X148781400Y-120406233D01*
X148822850Y-120614616D01*
X148904157Y-120810909D01*
X149022197Y-120987567D01*
X149172433Y-121137803D01*
X149349091Y-121255843D01*
X149545384Y-121337150D01*
X149753767Y-121378600D01*
X149966233Y-121378600D01*
X150174616Y-121337150D01*
X150370909Y-121255843D01*
X150547567Y-121137803D01*
X150697803Y-120987567D01*
X150815843Y-120810909D01*
X150897150Y-120614616D01*
X150938600Y-120406233D01*
X150938600Y-120193767D01*
X150897150Y-119985384D01*
X150815843Y-119789091D01*
X150697803Y-119612433D01*
X150547567Y-119462197D01*
X150370909Y-119344157D01*
X150174616Y-119262850D01*
X150164800Y-119260897D01*
X150164800Y-118251961D01*
X150166273Y-118237003D01*
X150164800Y-118222040D01*
X150164800Y-118222038D01*
X150160389Y-118177253D01*
X150160388Y-118177248D01*
X150148772Y-118138959D01*
X150142960Y-118119798D01*
X150114658Y-118066847D01*
X150076568Y-118020436D01*
X150064944Y-118010896D01*
X150000054Y-117946006D01*
X150007600Y-117908067D01*
X150007600Y-117803941D01*
X149987287Y-117701817D01*
X149947440Y-117605618D01*
X149903596Y-117540000D01*
X150387973Y-117540000D01*
X150399253Y-117654523D01*
X150432658Y-117764646D01*
X150486905Y-117866135D01*
X150559909Y-117955091D01*
X150648865Y-118028095D01*
X150750354Y-118082342D01*
X150860477Y-118115747D01*
X150975000Y-118127027D01*
X151138650Y-118124200D01*
X151284700Y-117978150D01*
X151284700Y-117017800D01*
X151640300Y-117017800D01*
X151640300Y-117978150D01*
X151786350Y-118124200D01*
X151950000Y-118127027D01*
X152064523Y-118115747D01*
X152174646Y-118082342D01*
X152276135Y-118028095D01*
X152365091Y-117955091D01*
X152438095Y-117866135D01*
X152492342Y-117764646D01*
X152525747Y-117654523D01*
X152537027Y-117540000D01*
X152534200Y-117163850D01*
X152388150Y-117017800D01*
X151640300Y-117017800D01*
X151284700Y-117017800D01*
X150536850Y-117017800D01*
X150390800Y-117163850D01*
X150387973Y-117540000D01*
X149903596Y-117540000D01*
X149889591Y-117519041D01*
X149815963Y-117445413D01*
X149729386Y-117387564D01*
X149633187Y-117347717D01*
X149531063Y-117327404D01*
X149426937Y-117327404D01*
X149324813Y-117347717D01*
X149228614Y-117387564D01*
X149142037Y-117445413D01*
X149068409Y-117519041D01*
X149010560Y-117605618D01*
X148970713Y-117701817D01*
X148950400Y-117803941D01*
X148950400Y-117908067D01*
X148970713Y-118010191D01*
X149010560Y-118106390D01*
X149068409Y-118192967D01*
X149142037Y-118266595D01*
X149228614Y-118324444D01*
X149324813Y-118364291D01*
X149426937Y-118384604D01*
X149531063Y-118384604D01*
X149555201Y-118379803D01*
X149555201Y-119260897D01*
X149545384Y-119262850D01*
X149349091Y-119344157D01*
X149172433Y-119462197D01*
X149022197Y-119612433D01*
X148904157Y-119789091D01*
X148822850Y-119985384D01*
X148781400Y-120193767D01*
X148398600Y-120193767D01*
X148357150Y-119985384D01*
X148275843Y-119789091D01*
X148157803Y-119612433D01*
X148007567Y-119462197D01*
X147830909Y-119344157D01*
X147634616Y-119262850D01*
X147624800Y-119260897D01*
X147624800Y-118251957D01*
X147626273Y-118236999D01*
X147624800Y-118222038D01*
X147624800Y-118222034D01*
X147620390Y-118177255D01*
X147620389Y-118177248D01*
X147611344Y-118147432D01*
X147602960Y-118119794D01*
X147574658Y-118066843D01*
X147536568Y-118020432D01*
X147524945Y-118010893D01*
X146022112Y-116508061D01*
X146012568Y-116496432D01*
X145966157Y-116458342D01*
X145913206Y-116430040D01*
X145855751Y-116412611D01*
X145810966Y-116408200D01*
X145810958Y-116408200D01*
X145796000Y-116406727D01*
X145781042Y-116408200D01*
X142747253Y-116408200D01*
X142128356Y-115789304D01*
X142212813Y-115824287D01*
X142314937Y-115844600D01*
X142419063Y-115844600D01*
X142521187Y-115824287D01*
X142617386Y-115784440D01*
X142703963Y-115726591D01*
X142777591Y-115652963D01*
X142835440Y-115566386D01*
X142875287Y-115470187D01*
X142895600Y-115368063D01*
X142895600Y-115263937D01*
X142875287Y-115161813D01*
X142835440Y-115065614D01*
X142777591Y-114979037D01*
X142703963Y-114905409D01*
X142671800Y-114883918D01*
X142671800Y-114299251D01*
X144297543Y-112673509D01*
X144479968Y-112749072D01*
X144678692Y-112788600D01*
X144881308Y-112788600D01*
X145080032Y-112749072D01*
X145267225Y-112671534D01*
X145435694Y-112558966D01*
X145578966Y-112415694D01*
X145691534Y-112247225D01*
X145769072Y-112060032D01*
X145808600Y-111861308D01*
X145808600Y-111658692D01*
X145769072Y-111459968D01*
X145691534Y-111272775D01*
X145578966Y-111104306D01*
X145435694Y-110961034D01*
X145267225Y-110848466D01*
X145080032Y-110770928D01*
X144881308Y-110731400D01*
X144678692Y-110731400D01*
X144479968Y-110770928D01*
X144292775Y-110848466D01*
X144124306Y-110961034D01*
X143981034Y-111104306D01*
X143868466Y-111272775D01*
X143790928Y-111459968D01*
X143751400Y-111658692D01*
X143751400Y-111861308D01*
X143790928Y-112060032D01*
X143866491Y-112242457D01*
X142162061Y-113946888D01*
X142150432Y-113956432D01*
X142112342Y-114002844D01*
X142087272Y-114049749D01*
X142084040Y-114055795D01*
X142066612Y-114113248D01*
X142066611Y-114113250D01*
X142062200Y-114158035D01*
X142062200Y-114158042D01*
X142060727Y-114173000D01*
X142062200Y-114187958D01*
X142062200Y-114265890D01*
X142036800Y-114248918D01*
X142036800Y-112394251D01*
X144297543Y-110133509D01*
X144479968Y-110209072D01*
X144678692Y-110248600D01*
X144881308Y-110248600D01*
X145080032Y-110209072D01*
X145267225Y-110131534D01*
X145435694Y-110018966D01*
X145578966Y-109875694D01*
X145691534Y-109707225D01*
X145769072Y-109520032D01*
X145808600Y-109321308D01*
X145808600Y-109118692D01*
X145769072Y-108919968D01*
X145691534Y-108732775D01*
X145578966Y-108564306D01*
X145435694Y-108421034D01*
X145267225Y-108308466D01*
X145080032Y-108230928D01*
X144881308Y-108191400D01*
X144678692Y-108191400D01*
X144479968Y-108230928D01*
X144292775Y-108308466D01*
X144124306Y-108421034D01*
X143981034Y-108564306D01*
X143868466Y-108732775D01*
X143790928Y-108919968D01*
X143751400Y-109118692D01*
X143751400Y-109321308D01*
X143790928Y-109520032D01*
X143866491Y-109702457D01*
X141527061Y-112041888D01*
X141515432Y-112051432D01*
X141477342Y-112097844D01*
X141449041Y-112150794D01*
X141449040Y-112150795D01*
X141431612Y-112208248D01*
X141431611Y-112208250D01*
X141427200Y-112253035D01*
X141427200Y-112253042D01*
X141425727Y-112268000D01*
X141427200Y-112282958D01*
X141427201Y-113630890D01*
X141401800Y-113613918D01*
X141401800Y-110489251D01*
X144297543Y-107593509D01*
X144479968Y-107669072D01*
X144678692Y-107708600D01*
X144881308Y-107708600D01*
X145080032Y-107669072D01*
X145267225Y-107591534D01*
X145435694Y-107478966D01*
X145578966Y-107335694D01*
X145691534Y-107167225D01*
X145769072Y-106980032D01*
X145808600Y-106781308D01*
X145808600Y-106578692D01*
X145769072Y-106379968D01*
X145691534Y-106192775D01*
X145578966Y-106024306D01*
X145435694Y-105881034D01*
X145267225Y-105768466D01*
X145080032Y-105690928D01*
X144881308Y-105651400D01*
X144678692Y-105651400D01*
X144479968Y-105690928D01*
X144292775Y-105768466D01*
X144124306Y-105881034D01*
X143981034Y-106024306D01*
X143868466Y-106192775D01*
X143790928Y-106379968D01*
X143751400Y-106578692D01*
X143751400Y-106781308D01*
X143790928Y-106980032D01*
X143866491Y-107162457D01*
X140892061Y-110136888D01*
X140880432Y-110146432D01*
X140842342Y-110192844D01*
X140814040Y-110245795D01*
X140796611Y-110303250D01*
X140792200Y-110348035D01*
X140792200Y-110348042D01*
X140790727Y-110363000D01*
X140792200Y-110377958D01*
X140792201Y-112982119D01*
X140787410Y-112978918D01*
X140787410Y-108563641D01*
X144297543Y-105053509D01*
X144479968Y-105129072D01*
X144678692Y-105168600D01*
X144881308Y-105168600D01*
X145080032Y-105129072D01*
X145267225Y-105051534D01*
X145435694Y-104938966D01*
X145578966Y-104795694D01*
X145691534Y-104627225D01*
X145769072Y-104440032D01*
X145808600Y-104241308D01*
X145808600Y-104038692D01*
X145769072Y-103839968D01*
X145691534Y-103652775D01*
X145578966Y-103484306D01*
X145435694Y-103341034D01*
X145267225Y-103228466D01*
X145080032Y-103150928D01*
X144881308Y-103111400D01*
X144678692Y-103111400D01*
X144479968Y-103150928D01*
X144292775Y-103228466D01*
X144124306Y-103341034D01*
X143981034Y-103484306D01*
X143868466Y-103652775D01*
X143790928Y-103839968D01*
X143751400Y-104038692D01*
X143751400Y-104241308D01*
X143790928Y-104440032D01*
X143866491Y-104622457D01*
X140277671Y-108211278D01*
X140266042Y-108220822D01*
X140258800Y-108229646D01*
X140258800Y-101990354D01*
X143451982Y-101990354D01*
X143458917Y-102013244D01*
X143564921Y-102263034D01*
X143717620Y-102487344D01*
X143911146Y-102677554D01*
X144138061Y-102826354D01*
X144389645Y-102928026D01*
X144602200Y-102826691D01*
X144602200Y-101777800D01*
X143554683Y-101777800D01*
X143451982Y-101990354D01*
X140258800Y-101990354D01*
X140258800Y-101209646D01*
X143451982Y-101209646D01*
X143554683Y-101422200D01*
X144602200Y-101422200D01*
X144602200Y-100373309D01*
X144389645Y-100271974D01*
X144138061Y-100373646D01*
X143911146Y-100522446D01*
X143717620Y-100712656D01*
X143564921Y-100936966D01*
X143458917Y-101186756D01*
X143451982Y-101209646D01*
X140258800Y-101209646D01*
X140258800Y-96910354D01*
X143451982Y-96910354D01*
X143458917Y-96933244D01*
X143564921Y-97183034D01*
X143717620Y-97407344D01*
X143911146Y-97597554D01*
X144138061Y-97746354D01*
X144389645Y-97848026D01*
X144602200Y-97746691D01*
X144602200Y-96697800D01*
X144957800Y-96697800D01*
X144957800Y-97746691D01*
X145170355Y-97848026D01*
X145421939Y-97746354D01*
X145648854Y-97597554D01*
X145842380Y-97407344D01*
X145995079Y-97183034D01*
X146101083Y-96933244D01*
X146108018Y-96910354D01*
X146005317Y-96697800D01*
X144957800Y-96697800D01*
X144602200Y-96697800D01*
X143554683Y-96697800D01*
X143451982Y-96910354D01*
X140258800Y-96910354D01*
X140258800Y-96129646D01*
X143451982Y-96129646D01*
X143554683Y-96342200D01*
X144602200Y-96342200D01*
X144602200Y-95293309D01*
X144957800Y-95293309D01*
X144957800Y-96342200D01*
X146005317Y-96342200D01*
X146108018Y-96129646D01*
X146101083Y-96106756D01*
X145995079Y-95856966D01*
X145842380Y-95632656D01*
X145648854Y-95442446D01*
X145421939Y-95293646D01*
X145170355Y-95191974D01*
X144957800Y-95293309D01*
X144602200Y-95293309D01*
X144389645Y-95191974D01*
X144138061Y-95293646D01*
X143911146Y-95442446D01*
X143717620Y-95632656D01*
X143564921Y-95856966D01*
X143458917Y-96106756D01*
X143451982Y-96129646D01*
X140258800Y-96129646D01*
X140258800Y-91608942D01*
X140289905Y-91667135D01*
X140362909Y-91756091D01*
X140451865Y-91829095D01*
X140553354Y-91883342D01*
X140663477Y-91916747D01*
X140778000Y-91928027D01*
X141154150Y-91925200D01*
X141300200Y-91779150D01*
X141300200Y-91031300D01*
X141655800Y-91031300D01*
X141655800Y-91779150D01*
X141801850Y-91925200D01*
X142178000Y-91928027D01*
X142292523Y-91916747D01*
X142402646Y-91883342D01*
X142504135Y-91829095D01*
X142593091Y-91756091D01*
X142666095Y-91667135D01*
X142720342Y-91565646D01*
X142753747Y-91455523D01*
X142765027Y-91341000D01*
X142764988Y-91338692D01*
X143751400Y-91338692D01*
X143751400Y-91541308D01*
X143790928Y-91740032D01*
X143868466Y-91927225D01*
X143981034Y-92095694D01*
X144124306Y-92238966D01*
X144292775Y-92351534D01*
X144479968Y-92429072D01*
X144678692Y-92468600D01*
X144881308Y-92468600D01*
X145080032Y-92429072D01*
X145262457Y-92353509D01*
X147015200Y-94106252D01*
X147015200Y-95784148D01*
X145693509Y-94462457D01*
X145769072Y-94280032D01*
X145808600Y-94081308D01*
X145808600Y-93878692D01*
X145769072Y-93679968D01*
X145691534Y-93492775D01*
X145578966Y-93324306D01*
X145435694Y-93181034D01*
X145267225Y-93068466D01*
X145080032Y-92990928D01*
X144881308Y-92951400D01*
X144678692Y-92951400D01*
X144479968Y-92990928D01*
X144292775Y-93068466D01*
X144124306Y-93181034D01*
X143981034Y-93324306D01*
X143868466Y-93492775D01*
X143790928Y-93679968D01*
X143751400Y-93878692D01*
X143751400Y-94081308D01*
X143790928Y-94280032D01*
X143868466Y-94467225D01*
X143981034Y-94635694D01*
X144124306Y-94778966D01*
X144292775Y-94891534D01*
X144479968Y-94969072D01*
X144678692Y-95008600D01*
X144881308Y-95008600D01*
X145080032Y-94969072D01*
X145262457Y-94893509D01*
X146507198Y-96138250D01*
X146507198Y-100356146D01*
X145693509Y-99542457D01*
X145769072Y-99360032D01*
X145808600Y-99161308D01*
X145808600Y-98958692D01*
X145769072Y-98759968D01*
X145691534Y-98572775D01*
X145578966Y-98404306D01*
X145435694Y-98261034D01*
X145267225Y-98148466D01*
X145080032Y-98070928D01*
X144881308Y-98031400D01*
X144678692Y-98031400D01*
X144479968Y-98070928D01*
X144292775Y-98148466D01*
X144124306Y-98261034D01*
X143981034Y-98404306D01*
X143868466Y-98572775D01*
X143790928Y-98759968D01*
X143751400Y-98958692D01*
X143751400Y-99161308D01*
X143790928Y-99360032D01*
X143868466Y-99547225D01*
X143981034Y-99715694D01*
X144124306Y-99858966D01*
X144292775Y-99971534D01*
X144479968Y-100049072D01*
X144678692Y-100088600D01*
X144881308Y-100088600D01*
X145080032Y-100049072D01*
X145262457Y-99973509D01*
X145999200Y-100710252D01*
X145999200Y-100946677D01*
X145995079Y-100936966D01*
X145842380Y-100712656D01*
X145648854Y-100522446D01*
X145421939Y-100373646D01*
X145170355Y-100271974D01*
X144957800Y-100373309D01*
X144957800Y-101422200D01*
X144977800Y-101422200D01*
X144977800Y-101777800D01*
X144957800Y-101777800D01*
X144957800Y-102826691D01*
X145170355Y-102928026D01*
X145421939Y-102826354D01*
X145648854Y-102677554D01*
X145842380Y-102487344D01*
X145995079Y-102263034D01*
X145999200Y-102253323D01*
X145999201Y-114055493D01*
X145926614Y-114085560D01*
X145840037Y-114143409D01*
X145766409Y-114217037D01*
X145708560Y-114303614D01*
X145668713Y-114399813D01*
X145648400Y-114501937D01*
X145648400Y-114606063D01*
X145668713Y-114708187D01*
X145708560Y-114804386D01*
X145766409Y-114890963D01*
X145840037Y-114964591D01*
X145926614Y-115022440D01*
X146022813Y-115062287D01*
X146124937Y-115082600D01*
X146229063Y-115082600D01*
X146331187Y-115062287D01*
X146427386Y-115022440D01*
X146507199Y-114969111D01*
X146507199Y-115892761D01*
X146507198Y-115892771D01*
X146507198Y-115899918D01*
X146475035Y-115921409D01*
X146401407Y-115995037D01*
X146343558Y-116081614D01*
X146303711Y-116177813D01*
X146283398Y-116279937D01*
X146283398Y-116384063D01*
X146303711Y-116486187D01*
X146343558Y-116582386D01*
X146401407Y-116668963D01*
X146475035Y-116742591D01*
X146561612Y-116800440D01*
X146657811Y-116840287D01*
X146759935Y-116860600D01*
X146864061Y-116860600D01*
X146966185Y-116840287D01*
X147062384Y-116800440D01*
X147148961Y-116742591D01*
X147222589Y-116668963D01*
X147280438Y-116582386D01*
X147320285Y-116486187D01*
X147340598Y-116384063D01*
X147340598Y-116279937D01*
X147320285Y-116177813D01*
X147304623Y-116140000D01*
X150387973Y-116140000D01*
X150390800Y-116516150D01*
X150536850Y-116662200D01*
X151284700Y-116662200D01*
X151284700Y-115701850D01*
X151640300Y-115701850D01*
X151640300Y-116662200D01*
X152388150Y-116662200D01*
X152534200Y-116516150D01*
X152537027Y-116140000D01*
X152525747Y-116025477D01*
X152492342Y-115915354D01*
X152438095Y-115813865D01*
X152365091Y-115724909D01*
X152276135Y-115651905D01*
X152174646Y-115597658D01*
X152064523Y-115564253D01*
X151950000Y-115552973D01*
X151786350Y-115555800D01*
X151640300Y-115701850D01*
X151284700Y-115701850D01*
X151138650Y-115555800D01*
X150975000Y-115552973D01*
X150860477Y-115564253D01*
X150750354Y-115597658D01*
X150648865Y-115651905D01*
X150559909Y-115724909D01*
X150486905Y-115813865D01*
X150432658Y-115915354D01*
X150399253Y-116025477D01*
X150387973Y-116140000D01*
X147304623Y-116140000D01*
X147280438Y-116081614D01*
X147222589Y-115995037D01*
X147148961Y-115921409D01*
X147116798Y-115899918D01*
X147116798Y-115731109D01*
X147196614Y-115784440D01*
X147292813Y-115824287D01*
X147394937Y-115844600D01*
X147499063Y-115844600D01*
X147601187Y-115824287D01*
X147697386Y-115784440D01*
X147783963Y-115726591D01*
X147857591Y-115652963D01*
X147915440Y-115566386D01*
X147955287Y-115470187D01*
X147975600Y-115368063D01*
X147975600Y-115263937D01*
X147955287Y-115161813D01*
X147915440Y-115065614D01*
X147857591Y-114979037D01*
X147783963Y-114905409D01*
X147697386Y-114847560D01*
X147624800Y-114817494D01*
X147624800Y-93994957D01*
X147626273Y-93979999D01*
X147624800Y-93965041D01*
X147624800Y-93965034D01*
X147620389Y-93920249D01*
X147602960Y-93862794D01*
X147574658Y-93809843D01*
X147536568Y-93763432D01*
X147524944Y-93753892D01*
X145693509Y-91922457D01*
X145769072Y-91740032D01*
X145808600Y-91541308D01*
X145808600Y-91338692D01*
X145769072Y-91139968D01*
X145691534Y-90952775D01*
X145578966Y-90784306D01*
X145435694Y-90641034D01*
X145267225Y-90528466D01*
X145080032Y-90450928D01*
X144881308Y-90411400D01*
X144678692Y-90411400D01*
X144479968Y-90450928D01*
X144292775Y-90528466D01*
X144124306Y-90641034D01*
X143981034Y-90784306D01*
X143868466Y-90952775D01*
X143790928Y-91139968D01*
X143751400Y-91338692D01*
X142764988Y-91338692D01*
X142762200Y-91177350D01*
X142616150Y-91031300D01*
X141655800Y-91031300D01*
X141300200Y-91031300D01*
X141280200Y-91031300D01*
X141280200Y-90675700D01*
X141300200Y-90675700D01*
X141300200Y-89927850D01*
X141655800Y-89927850D01*
X141655800Y-90675700D01*
X142616150Y-90675700D01*
X142762200Y-90529650D01*
X142765027Y-90366000D01*
X142753747Y-90251477D01*
X142720342Y-90141354D01*
X142666095Y-90039865D01*
X142593091Y-89950909D01*
X142504135Y-89877905D01*
X142402646Y-89823658D01*
X142292523Y-89790253D01*
X142178000Y-89778973D01*
X141801850Y-89781800D01*
X141655800Y-89927850D01*
X141300200Y-89927850D01*
X141154150Y-89781800D01*
X140778000Y-89778973D01*
X140663477Y-89790253D01*
X140553354Y-89823658D01*
X140451865Y-89877905D01*
X140362909Y-89950909D01*
X140289905Y-90039865D01*
X140258800Y-90098058D01*
X140258800Y-88734750D01*
X140548294Y-88734750D01*
X140548294Y-89222250D01*
X140557391Y-89314617D01*
X140584334Y-89403434D01*
X140628086Y-89485288D01*
X140686966Y-89557034D01*
X140758712Y-89615914D01*
X140840566Y-89659666D01*
X140929383Y-89686609D01*
X141021750Y-89695706D01*
X141934250Y-89695706D01*
X142026617Y-89686609D01*
X142115434Y-89659666D01*
X142197288Y-89615914D01*
X142269034Y-89557034D01*
X142327914Y-89485288D01*
X142371666Y-89403434D01*
X142384994Y-89359500D01*
X143856982Y-89359500D01*
X143868466Y-89387225D01*
X143981034Y-89555694D01*
X144124306Y-89698966D01*
X144292775Y-89811534D01*
X144479968Y-89889072D01*
X144678692Y-89928600D01*
X144881308Y-89928600D01*
X145080032Y-89889072D01*
X145267225Y-89811534D01*
X145435694Y-89698966D01*
X145578966Y-89555694D01*
X145691534Y-89387225D01*
X145735534Y-89281000D01*
X150083186Y-89281000D01*
X153034500Y-92232315D01*
X152959376Y-115932134D01*
X152912566Y-115946334D01*
X152830712Y-115990086D01*
X152758966Y-116048966D01*
X152700086Y-116120712D01*
X152656334Y-116202566D01*
X152629391Y-116291383D01*
X152620294Y-116383750D01*
X152620294Y-117296250D01*
X152629391Y-117388617D01*
X152656334Y-117477434D01*
X152700086Y-117559288D01*
X152758966Y-117631034D01*
X152830712Y-117689914D01*
X152912566Y-117733666D01*
X152956501Y-117746994D01*
X152956500Y-119204685D01*
X152844525Y-119316660D01*
X152714616Y-119262850D01*
X152506233Y-119221400D01*
X152293767Y-119221400D01*
X152085384Y-119262850D01*
X151889091Y-119344157D01*
X151712433Y-119462197D01*
X151562197Y-119612433D01*
X151444157Y-119789091D01*
X151362850Y-119985384D01*
X151321400Y-120193767D01*
X151321400Y-120406233D01*
X151362850Y-120614616D01*
X151444157Y-120810909D01*
X151562197Y-120987567D01*
X151712433Y-121137803D01*
X151889091Y-121255843D01*
X152085384Y-121337150D01*
X152293767Y-121378600D01*
X152506233Y-121378600D01*
X152714616Y-121337150D01*
X152910909Y-121255843D01*
X153087567Y-121137803D01*
X153237803Y-120987567D01*
X153355843Y-120810909D01*
X153437150Y-120614616D01*
X153478600Y-120406233D01*
X153478600Y-120193767D01*
X153861400Y-120193767D01*
X153861400Y-120406233D01*
X153902850Y-120614616D01*
X153984157Y-120810909D01*
X154102197Y-120987567D01*
X154252433Y-121137803D01*
X154429091Y-121255843D01*
X154625384Y-121337150D01*
X154833767Y-121378600D01*
X155046233Y-121378600D01*
X155254616Y-121337150D01*
X155450909Y-121255843D01*
X155627567Y-121137803D01*
X155777803Y-120987567D01*
X155895843Y-120810909D01*
X155905200Y-120788319D01*
X155905200Y-121443748D01*
X155459231Y-121889718D01*
X155450909Y-121884157D01*
X155254616Y-121802850D01*
X155046233Y-121761400D01*
X154833767Y-121761400D01*
X154625384Y-121802850D01*
X154429091Y-121884157D01*
X154252433Y-122002197D01*
X154102197Y-122152433D01*
X153984157Y-122329091D01*
X153902850Y-122525384D01*
X153861400Y-122733767D01*
X153861400Y-122946233D01*
X153902850Y-123154616D01*
X153984157Y-123350909D01*
X154102197Y-123527567D01*
X154252433Y-123677803D01*
X154429091Y-123795843D01*
X154625384Y-123877150D01*
X154833767Y-123918600D01*
X155046233Y-123918600D01*
X155254616Y-123877150D01*
X155450909Y-123795843D01*
X155627567Y-123677803D01*
X155777803Y-123527567D01*
X155895843Y-123350909D01*
X155977150Y-123154616D01*
X156018600Y-122946233D01*
X156018600Y-122733767D01*
X155977150Y-122525384D01*
X155895843Y-122329091D01*
X155890282Y-122320769D01*
X156414945Y-121796107D01*
X156426568Y-121786568D01*
X156464658Y-121740157D01*
X156492960Y-121687206D01*
X156510389Y-121629751D01*
X156514800Y-121584966D01*
X156514800Y-121584959D01*
X156516273Y-121570001D01*
X156514800Y-121555043D01*
X156514800Y-120788319D01*
X156524157Y-120810909D01*
X156642197Y-120987567D01*
X156792433Y-121137803D01*
X156969091Y-121255843D01*
X157165384Y-121337150D01*
X157373767Y-121378600D01*
X157586233Y-121378600D01*
X157794616Y-121337150D01*
X157990909Y-121255843D01*
X158167567Y-121137803D01*
X158317803Y-120987567D01*
X158435843Y-120810909D01*
X158445200Y-120788319D01*
X158445200Y-121443748D01*
X157999231Y-121889718D01*
X157990909Y-121884157D01*
X157794616Y-121802850D01*
X157586233Y-121761400D01*
X157373767Y-121761400D01*
X157165384Y-121802850D01*
X156969091Y-121884157D01*
X156792433Y-122002197D01*
X156642197Y-122152433D01*
X156524157Y-122329091D01*
X156442850Y-122525384D01*
X156401400Y-122733767D01*
X156401400Y-122946233D01*
X156442850Y-123154616D01*
X156524157Y-123350909D01*
X156642197Y-123527567D01*
X156792433Y-123677803D01*
X156969091Y-123795843D01*
X157165384Y-123877150D01*
X157373767Y-123918600D01*
X157586233Y-123918600D01*
X157794616Y-123877150D01*
X157990909Y-123795843D01*
X158167567Y-123677803D01*
X158317803Y-123527567D01*
X158435843Y-123350909D01*
X158517150Y-123154616D01*
X158558600Y-122946233D01*
X158558600Y-122733767D01*
X158517150Y-122525384D01*
X158435843Y-122329091D01*
X158430282Y-122320769D01*
X158954945Y-121796107D01*
X158966568Y-121786568D01*
X159004658Y-121740157D01*
X159032960Y-121687206D01*
X159050389Y-121629751D01*
X159054800Y-121584966D01*
X159054800Y-121584959D01*
X159056273Y-121570001D01*
X159054800Y-121555043D01*
X159054800Y-120788319D01*
X159064157Y-120810909D01*
X159182197Y-120987567D01*
X159332433Y-121137803D01*
X159509091Y-121255843D01*
X159705384Y-121337150D01*
X159913767Y-121378600D01*
X160126233Y-121378600D01*
X160334616Y-121337150D01*
X160530909Y-121255843D01*
X160707567Y-121137803D01*
X160857803Y-120987567D01*
X160975843Y-120810909D01*
X160985201Y-120788319D01*
X160985201Y-121443747D01*
X160539231Y-121889718D01*
X160530909Y-121884157D01*
X160334616Y-121802850D01*
X160126233Y-121761400D01*
X159913767Y-121761400D01*
X159705384Y-121802850D01*
X159509091Y-121884157D01*
X159332433Y-122002197D01*
X159182197Y-122152433D01*
X159064157Y-122329091D01*
X158982850Y-122525384D01*
X158941400Y-122733767D01*
X158941400Y-122946233D01*
X158982850Y-123154616D01*
X159064157Y-123350909D01*
X159182197Y-123527567D01*
X159332433Y-123677803D01*
X159509091Y-123795843D01*
X159705384Y-123877150D01*
X159913767Y-123918600D01*
X160126233Y-123918600D01*
X160334616Y-123877150D01*
X160530909Y-123795843D01*
X160707567Y-123677803D01*
X160857803Y-123527567D01*
X160975843Y-123350909D01*
X161057150Y-123154616D01*
X161098600Y-122946233D01*
X161098600Y-122733767D01*
X161057150Y-122525384D01*
X160975843Y-122329091D01*
X160970282Y-122320769D01*
X161494944Y-121796108D01*
X161506568Y-121786568D01*
X161544658Y-121740157D01*
X161572960Y-121687206D01*
X161590389Y-121629751D01*
X161594800Y-121584966D01*
X161594800Y-121584959D01*
X161596273Y-121570001D01*
X161594800Y-121555043D01*
X161594800Y-120788319D01*
X161604157Y-120810909D01*
X161722197Y-120987567D01*
X161872433Y-121137803D01*
X162049091Y-121255843D01*
X162245384Y-121337150D01*
X162453767Y-121378600D01*
X162666233Y-121378600D01*
X162874616Y-121337150D01*
X163070909Y-121255843D01*
X163247567Y-121137803D01*
X163397803Y-120987567D01*
X163515843Y-120810909D01*
X163525200Y-120788319D01*
X163525200Y-121443748D01*
X163079231Y-121889718D01*
X163070909Y-121884157D01*
X162874616Y-121802850D01*
X162666233Y-121761400D01*
X162453767Y-121761400D01*
X162245384Y-121802850D01*
X162049091Y-121884157D01*
X161872433Y-122002197D01*
X161722197Y-122152433D01*
X161604157Y-122329091D01*
X161522850Y-122525384D01*
X161481400Y-122733767D01*
X161481400Y-122946233D01*
X161522850Y-123154616D01*
X161604157Y-123350909D01*
X161722197Y-123527567D01*
X161872433Y-123677803D01*
X162049091Y-123795843D01*
X162245384Y-123877150D01*
X162453767Y-123918600D01*
X162666233Y-123918600D01*
X162874616Y-123877150D01*
X163070909Y-123795843D01*
X163247567Y-123677803D01*
X163397803Y-123527567D01*
X163515843Y-123350909D01*
X163597150Y-123154616D01*
X163638600Y-122946233D01*
X163638600Y-122733767D01*
X163597150Y-122525384D01*
X163515843Y-122329091D01*
X163510282Y-122320769D01*
X164034945Y-121796107D01*
X164046568Y-121786568D01*
X164084658Y-121740157D01*
X164112960Y-121687206D01*
X164130389Y-121629751D01*
X164134800Y-121584966D01*
X164134800Y-121584959D01*
X164136273Y-121570001D01*
X164134800Y-121555043D01*
X164134800Y-121347632D01*
X164162095Y-121362221D01*
X164205187Y-121375292D01*
X164250000Y-121379706D01*
X165950000Y-121379706D01*
X165994813Y-121375292D01*
X166037905Y-121362221D01*
X166077618Y-121340994D01*
X166111199Y-121313435D01*
X166111199Y-121397749D01*
X165619231Y-121889718D01*
X165610909Y-121884157D01*
X165414616Y-121802850D01*
X165206233Y-121761400D01*
X164993767Y-121761400D01*
X164785384Y-121802850D01*
X164589091Y-121884157D01*
X164412433Y-122002197D01*
X164262197Y-122152433D01*
X164144157Y-122329091D01*
X164062850Y-122525384D01*
X164021400Y-122733767D01*
X164021400Y-122946233D01*
X164062850Y-123154616D01*
X164144157Y-123350909D01*
X164262197Y-123527567D01*
X164412433Y-123677803D01*
X164589091Y-123795843D01*
X164785384Y-123877150D01*
X164993767Y-123918600D01*
X165206233Y-123918600D01*
X165414616Y-123877150D01*
X165610909Y-123795843D01*
X165787567Y-123677803D01*
X165937803Y-123527567D01*
X166055843Y-123350909D01*
X166137150Y-123154616D01*
X166178600Y-122946233D01*
X166178600Y-122733767D01*
X166137150Y-122525384D01*
X166055843Y-122329091D01*
X166050282Y-122320769D01*
X166620944Y-121750108D01*
X166632567Y-121740569D01*
X166670657Y-121694158D01*
X166698959Y-121641207D01*
X166716388Y-121583752D01*
X166720799Y-121538967D01*
X166720799Y-121538959D01*
X166722272Y-121524001D01*
X166720799Y-121509043D01*
X166720799Y-119186957D01*
X166722272Y-119171999D01*
X166720799Y-119157041D01*
X166720799Y-119157033D01*
X166716388Y-119112248D01*
X166712313Y-119098813D01*
X166698959Y-119054793D01*
X166693285Y-119044178D01*
X166670657Y-119001842D01*
X166632567Y-118955431D01*
X166620943Y-118945891D01*
X166166800Y-118491749D01*
X166166800Y-116256082D01*
X166198963Y-116234591D01*
X166272591Y-116160963D01*
X166330440Y-116074386D01*
X166370287Y-115978187D01*
X166390600Y-115876063D01*
X166390600Y-115771937D01*
X166370287Y-115669813D01*
X166330440Y-115573614D01*
X166272591Y-115487037D01*
X166198963Y-115413409D01*
X166112386Y-115355560D01*
X166032558Y-115322494D01*
X166574944Y-114780108D01*
X166586568Y-114770568D01*
X166624658Y-114724157D01*
X166652960Y-114671206D01*
X166670389Y-114613751D01*
X166674800Y-114568966D01*
X166674800Y-114568959D01*
X166676273Y-114554001D01*
X166674800Y-114539043D01*
X166674800Y-83961957D01*
X166676273Y-83946999D01*
X166674800Y-83932041D01*
X166674800Y-83932034D01*
X166670389Y-83887249D01*
X166668115Y-83879751D01*
X166652960Y-83829794D01*
X166641655Y-83808643D01*
X166624658Y-83776843D01*
X166586568Y-83730432D01*
X166574945Y-83720893D01*
X161389112Y-78535061D01*
X161379568Y-78523432D01*
X161333157Y-78485342D01*
X161280206Y-78457040D01*
X161222751Y-78439611D01*
X161177966Y-78435200D01*
X161177958Y-78435200D01*
X161163000Y-78433727D01*
X161148042Y-78435200D01*
X161007097Y-78435200D01*
X160931534Y-78252775D01*
X160818966Y-78084306D01*
X160675694Y-77941034D01*
X160507225Y-77828466D01*
X160320032Y-77750928D01*
X160121308Y-77711400D01*
X159918692Y-77711400D01*
X159719968Y-77750928D01*
X159532775Y-77828466D01*
X159364306Y-77941034D01*
X159221034Y-78084306D01*
X159108466Y-78252775D01*
X159030928Y-78439968D01*
X158991400Y-78638692D01*
X158991400Y-78841308D01*
X159030928Y-79040032D01*
X159108466Y-79227225D01*
X159221034Y-79395694D01*
X159364306Y-79538966D01*
X159532775Y-79651534D01*
X159719968Y-79729072D01*
X159918692Y-79768600D01*
X160121308Y-79768600D01*
X160320032Y-79729072D01*
X160507225Y-79651534D01*
X160675694Y-79538966D01*
X160818966Y-79395694D01*
X160931534Y-79227225D01*
X161007097Y-79044800D01*
X161036749Y-79044800D01*
X166065200Y-84073252D01*
X166065200Y-85116148D01*
X162024112Y-81075061D01*
X162014568Y-81063432D01*
X161968157Y-81025342D01*
X161915206Y-80997040D01*
X161857751Y-80979611D01*
X161812966Y-80975200D01*
X161812958Y-80975200D01*
X161798000Y-80973727D01*
X161783042Y-80975200D01*
X161007097Y-80975200D01*
X160931534Y-80792775D01*
X160818966Y-80624306D01*
X160675694Y-80481034D01*
X160507225Y-80368466D01*
X160320032Y-80290928D01*
X160121308Y-80251400D01*
X159918692Y-80251400D01*
X159719968Y-80290928D01*
X159532775Y-80368466D01*
X159364306Y-80481034D01*
X159221034Y-80624306D01*
X159108466Y-80792775D01*
X159030928Y-80979968D01*
X158991400Y-81178692D01*
X158991400Y-81381308D01*
X159030928Y-81580032D01*
X159108466Y-81767225D01*
X159221034Y-81935694D01*
X159364306Y-82078966D01*
X159532775Y-82191534D01*
X159719968Y-82269072D01*
X159918692Y-82308600D01*
X160121308Y-82308600D01*
X160320032Y-82269072D01*
X160507225Y-82191534D01*
X160675694Y-82078966D01*
X160818966Y-81935694D01*
X160931534Y-81767225D01*
X161007097Y-81584800D01*
X161671749Y-81584800D01*
X165557200Y-85470252D01*
X165557200Y-86386148D01*
X162786112Y-83615061D01*
X162776568Y-83603432D01*
X162730157Y-83565342D01*
X162677206Y-83537040D01*
X162619751Y-83519611D01*
X162574966Y-83515200D01*
X162574958Y-83515200D01*
X162560000Y-83513727D01*
X162545042Y-83515200D01*
X161007097Y-83515200D01*
X160931534Y-83332775D01*
X160818966Y-83164306D01*
X160675694Y-83021034D01*
X160507225Y-82908466D01*
X160320032Y-82830928D01*
X160121308Y-82791400D01*
X159918692Y-82791400D01*
X159719968Y-82830928D01*
X159532775Y-82908466D01*
X159364306Y-83021034D01*
X159221034Y-83164306D01*
X159108466Y-83332775D01*
X159030928Y-83519968D01*
X158991400Y-83718692D01*
X158991400Y-83921308D01*
X159030928Y-84120032D01*
X159108466Y-84307225D01*
X159221034Y-84475694D01*
X159364306Y-84618966D01*
X159532775Y-84731534D01*
X159719968Y-84809072D01*
X159918692Y-84848600D01*
X160121308Y-84848600D01*
X160320032Y-84809072D01*
X160507225Y-84731534D01*
X160675694Y-84618966D01*
X160818966Y-84475694D01*
X160931534Y-84307225D01*
X161007097Y-84124800D01*
X162433749Y-84124800D01*
X165049200Y-86740252D01*
X165049200Y-87656148D01*
X163548112Y-86155061D01*
X163538568Y-86143432D01*
X163492157Y-86105342D01*
X163439206Y-86077040D01*
X163381751Y-86059611D01*
X163336966Y-86055200D01*
X163336958Y-86055200D01*
X163322000Y-86053727D01*
X163307042Y-86055200D01*
X161007097Y-86055200D01*
X160931534Y-85872775D01*
X160818966Y-85704306D01*
X160675694Y-85561034D01*
X160507225Y-85448466D01*
X160320032Y-85370928D01*
X160121308Y-85331400D01*
X159918692Y-85331400D01*
X159719968Y-85370928D01*
X159532775Y-85448466D01*
X159364306Y-85561034D01*
X159221034Y-85704306D01*
X159108466Y-85872775D01*
X159030928Y-86059968D01*
X158991400Y-86258692D01*
X158991400Y-86461308D01*
X159030928Y-86660032D01*
X159108466Y-86847225D01*
X159221034Y-87015694D01*
X159364306Y-87158966D01*
X159532775Y-87271534D01*
X159719968Y-87349072D01*
X159918692Y-87388600D01*
X160121308Y-87388600D01*
X160320032Y-87349072D01*
X160507225Y-87271534D01*
X160675694Y-87158966D01*
X160818966Y-87015694D01*
X160931534Y-86847225D01*
X161007097Y-86664800D01*
X163195749Y-86664800D01*
X164541200Y-88010252D01*
X164541200Y-91271059D01*
X164510095Y-91212865D01*
X164437091Y-91123909D01*
X164348135Y-91050905D01*
X164246646Y-90996658D01*
X164136523Y-90963253D01*
X164022000Y-90951973D01*
X163645850Y-90954800D01*
X163499800Y-91100850D01*
X163499800Y-91848700D01*
X163519800Y-91848700D01*
X163519800Y-92204300D01*
X163499800Y-92204300D01*
X163499800Y-92952150D01*
X163645850Y-93098200D01*
X164022000Y-93101027D01*
X164136523Y-93089747D01*
X164246646Y-93056342D01*
X164348135Y-93002095D01*
X164437091Y-92929091D01*
X164510095Y-92840135D01*
X164541200Y-92781941D01*
X164541201Y-102719559D01*
X164510095Y-102661365D01*
X164437091Y-102572409D01*
X164348135Y-102499405D01*
X164246646Y-102445158D01*
X164136523Y-102411753D01*
X164022000Y-102400473D01*
X163645850Y-102403300D01*
X163499800Y-102549350D01*
X163499800Y-103297200D01*
X163519800Y-103297200D01*
X163519800Y-103652800D01*
X163499800Y-103652800D01*
X163499800Y-104400650D01*
X163645850Y-104546700D01*
X164022000Y-104549527D01*
X164136523Y-104538247D01*
X164246646Y-104504842D01*
X164348135Y-104450595D01*
X164437091Y-104377591D01*
X164510095Y-104288635D01*
X164541201Y-104230440D01*
X164541201Y-108229647D01*
X164533958Y-108220822D01*
X164522335Y-108211283D01*
X160933509Y-104622458D01*
X161009072Y-104440032D01*
X161048600Y-104241308D01*
X161048600Y-104038692D01*
X161033445Y-103962500D01*
X162034973Y-103962500D01*
X162046253Y-104077023D01*
X162079658Y-104187146D01*
X162133905Y-104288635D01*
X162206909Y-104377591D01*
X162295865Y-104450595D01*
X162397354Y-104504842D01*
X162507477Y-104538247D01*
X162622000Y-104549527D01*
X162998150Y-104546700D01*
X163144200Y-104400650D01*
X163144200Y-103652800D01*
X162183850Y-103652800D01*
X162037800Y-103798850D01*
X162034973Y-103962500D01*
X161033445Y-103962500D01*
X161009072Y-103839968D01*
X160931534Y-103652775D01*
X160818966Y-103484306D01*
X160675694Y-103341034D01*
X160507225Y-103228466D01*
X160320032Y-103150928D01*
X160121308Y-103111400D01*
X159918692Y-103111400D01*
X159719968Y-103150928D01*
X159532775Y-103228466D01*
X159364306Y-103341034D01*
X159221034Y-103484306D01*
X159108466Y-103652775D01*
X159030928Y-103839968D01*
X158991400Y-104038692D01*
X158991400Y-104241308D01*
X159030928Y-104440032D01*
X159108466Y-104627225D01*
X159221034Y-104795694D01*
X159364306Y-104938966D01*
X159532775Y-105051534D01*
X159719968Y-105129072D01*
X159918692Y-105168600D01*
X160121308Y-105168600D01*
X160320032Y-105129072D01*
X160502458Y-105053509D01*
X164012590Y-108563642D01*
X164012591Y-112844761D01*
X164012590Y-112844771D01*
X164012590Y-112851918D01*
X164007800Y-112855119D01*
X164007800Y-110377958D01*
X164009273Y-110363000D01*
X164007800Y-110348042D01*
X164007800Y-110348034D01*
X164003389Y-110303249D01*
X163985960Y-110245794D01*
X163957658Y-110192843D01*
X163943798Y-110175955D01*
X163929109Y-110158056D01*
X163929103Y-110158050D01*
X163919568Y-110146432D01*
X163907951Y-110136898D01*
X160933509Y-107162457D01*
X161009072Y-106980032D01*
X161048600Y-106781308D01*
X161048600Y-106578692D01*
X161009072Y-106379968D01*
X160931534Y-106192775D01*
X160818966Y-106024306D01*
X160675694Y-105881034D01*
X160507225Y-105768466D01*
X160320032Y-105690928D01*
X160121308Y-105651400D01*
X159918692Y-105651400D01*
X159719968Y-105690928D01*
X159532775Y-105768466D01*
X159364306Y-105881034D01*
X159221034Y-106024306D01*
X159108466Y-106192775D01*
X159030928Y-106379968D01*
X158991400Y-106578692D01*
X158991400Y-106781308D01*
X159030928Y-106980032D01*
X159108466Y-107167225D01*
X159221034Y-107335694D01*
X159364306Y-107478966D01*
X159532775Y-107591534D01*
X159719968Y-107669072D01*
X159918692Y-107708600D01*
X160121308Y-107708600D01*
X160320032Y-107669072D01*
X160502457Y-107593509D01*
X163398200Y-110489253D01*
X163398201Y-113479761D01*
X163398200Y-113479771D01*
X163398200Y-113486918D01*
X163372800Y-113503890D01*
X163372800Y-112282958D01*
X163374273Y-112268000D01*
X163372800Y-112253042D01*
X163372800Y-112253034D01*
X163368389Y-112208249D01*
X163350960Y-112150794D01*
X163322658Y-112097843D01*
X163284568Y-112051432D01*
X163272945Y-112041893D01*
X160933509Y-109702458D01*
X161009072Y-109520032D01*
X161048600Y-109321308D01*
X161048600Y-109118692D01*
X161009072Y-108919968D01*
X160931534Y-108732775D01*
X160818966Y-108564306D01*
X160675694Y-108421034D01*
X160507225Y-108308466D01*
X160320032Y-108230928D01*
X160121308Y-108191400D01*
X159918692Y-108191400D01*
X159719968Y-108230928D01*
X159532775Y-108308466D01*
X159364306Y-108421034D01*
X159221034Y-108564306D01*
X159108466Y-108732775D01*
X159030928Y-108919968D01*
X158991400Y-109118692D01*
X158991400Y-109321308D01*
X159030928Y-109520032D01*
X159108466Y-109707225D01*
X159221034Y-109875694D01*
X159364306Y-110018966D01*
X159532775Y-110131534D01*
X159719968Y-110209072D01*
X159918692Y-110248600D01*
X160121308Y-110248600D01*
X160320032Y-110209072D01*
X160502458Y-110133509D01*
X162763200Y-112394252D01*
X162763201Y-114121918D01*
X162736031Y-114140072D01*
X162733389Y-114113249D01*
X162732452Y-114110158D01*
X162726081Y-114089157D01*
X162715960Y-114055794D01*
X162687658Y-114002843D01*
X162649568Y-113956432D01*
X162637945Y-113946893D01*
X160933509Y-112242457D01*
X161009072Y-112060032D01*
X161048600Y-111861308D01*
X161048600Y-111658692D01*
X161009072Y-111459968D01*
X160931534Y-111272775D01*
X160818966Y-111104306D01*
X160675694Y-110961034D01*
X160507225Y-110848466D01*
X160320032Y-110770928D01*
X160121308Y-110731400D01*
X159918692Y-110731400D01*
X159719968Y-110770928D01*
X159532775Y-110848466D01*
X159364306Y-110961034D01*
X159221034Y-111104306D01*
X159108466Y-111272775D01*
X159030928Y-111459968D01*
X158991400Y-111658692D01*
X158991400Y-111861308D01*
X159030928Y-112060032D01*
X159108466Y-112247225D01*
X159221034Y-112415694D01*
X159364306Y-112558966D01*
X159532775Y-112671534D01*
X159719968Y-112749072D01*
X159918692Y-112788600D01*
X160121308Y-112788600D01*
X160320032Y-112749072D01*
X160502457Y-112673509D01*
X162128200Y-114299252D01*
X162128201Y-114756918D01*
X162096037Y-114778409D01*
X162022409Y-114852037D01*
X161964560Y-114938614D01*
X161924713Y-115034813D01*
X161904400Y-115136937D01*
X161904400Y-115241063D01*
X161924713Y-115343187D01*
X161964560Y-115439386D01*
X162022409Y-115525963D01*
X162096037Y-115599591D01*
X162182614Y-115657440D01*
X162278813Y-115697287D01*
X162380937Y-115717600D01*
X162485063Y-115717600D01*
X162569679Y-115700769D01*
X161989249Y-116281200D01*
X159145958Y-116281200D01*
X159131000Y-116279727D01*
X159116042Y-116281200D01*
X159116034Y-116281200D01*
X159071249Y-116285611D01*
X159013794Y-116303040D01*
X158960843Y-116331342D01*
X158914432Y-116369432D01*
X158904892Y-116381056D01*
X157275061Y-118010888D01*
X157263432Y-118020432D01*
X157225342Y-118066844D01*
X157202122Y-118110287D01*
X157197040Y-118119795D01*
X157179611Y-118177249D01*
X157179055Y-118182890D01*
X157175200Y-118222035D01*
X157175200Y-118222038D01*
X157173727Y-118237000D01*
X157175200Y-118251958D01*
X157175201Y-119082944D01*
X157175200Y-119082954D01*
X157175200Y-119260897D01*
X157165384Y-119262850D01*
X156969091Y-119344157D01*
X156792433Y-119462197D01*
X156642197Y-119612433D01*
X156524157Y-119789091D01*
X156514800Y-119811681D01*
X156514800Y-119685082D01*
X156546963Y-119663591D01*
X156620591Y-119589963D01*
X156678440Y-119503386D01*
X156718287Y-119407187D01*
X156738600Y-119305063D01*
X156738600Y-119200937D01*
X156718287Y-119098813D01*
X156678440Y-119002614D01*
X156620591Y-118916037D01*
X156546963Y-118842409D01*
X156514800Y-118820918D01*
X156514800Y-118490251D01*
X158700945Y-116304107D01*
X158712568Y-116294568D01*
X158750658Y-116248157D01*
X158778960Y-116195206D01*
X158796389Y-116137751D01*
X158800800Y-116092966D01*
X158800800Y-116092959D01*
X158802273Y-116078001D01*
X158800800Y-116063043D01*
X158800800Y-102987500D01*
X162034973Y-102987500D01*
X162037800Y-103151150D01*
X162183850Y-103297200D01*
X163144200Y-103297200D01*
X163144200Y-102549350D01*
X162998150Y-102403300D01*
X162622000Y-102400473D01*
X162507477Y-102411753D01*
X162397354Y-102445158D01*
X162295865Y-102499405D01*
X162206909Y-102572409D01*
X162133905Y-102661365D01*
X162079658Y-102762854D01*
X162046253Y-102872977D01*
X162034973Y-102987500D01*
X158800800Y-102987500D01*
X158800800Y-100710251D01*
X159537543Y-99973509D01*
X159719968Y-100049072D01*
X159918692Y-100088600D01*
X160121308Y-100088600D01*
X160320032Y-100049072D01*
X160507225Y-99971534D01*
X160675694Y-99858966D01*
X160818966Y-99715694D01*
X160931534Y-99547225D01*
X161009072Y-99360032D01*
X161048600Y-99161308D01*
X161048600Y-98958692D01*
X161009072Y-98759968D01*
X160931534Y-98572775D01*
X160818966Y-98404306D01*
X160675694Y-98261034D01*
X160507225Y-98148466D01*
X160320032Y-98070928D01*
X160121308Y-98031400D01*
X159918692Y-98031400D01*
X159719968Y-98070928D01*
X159532775Y-98148466D01*
X159364306Y-98261034D01*
X159221034Y-98404306D01*
X159108466Y-98572775D01*
X159030928Y-98759968D01*
X158991400Y-98958692D01*
X158991400Y-99161308D01*
X159030928Y-99360032D01*
X159106491Y-99542457D01*
X158291057Y-100357892D01*
X158279433Y-100367432D01*
X158241343Y-100413843D01*
X158226215Y-100442146D01*
X158213040Y-100466795D01*
X158195611Y-100524249D01*
X158189727Y-100584000D01*
X158191201Y-100598968D01*
X158191200Y-115951748D01*
X156005057Y-118137892D01*
X155993433Y-118147432D01*
X155955343Y-118193843D01*
X155952501Y-118199161D01*
X155927040Y-118246795D01*
X155909611Y-118304249D01*
X155903727Y-118364000D01*
X155905201Y-118378968D01*
X155905200Y-118820918D01*
X155873037Y-118842409D01*
X155799409Y-118916037D01*
X155741560Y-119002614D01*
X155701713Y-119098813D01*
X155681400Y-119200937D01*
X155681400Y-119305063D01*
X155701713Y-119407187D01*
X155741560Y-119503386D01*
X155799409Y-119589963D01*
X155873037Y-119663591D01*
X155905201Y-119685082D01*
X155905201Y-119811681D01*
X155895843Y-119789091D01*
X155777803Y-119612433D01*
X155627567Y-119462197D01*
X155450909Y-119344157D01*
X155254616Y-119262850D01*
X155046233Y-119221400D01*
X154833767Y-119221400D01*
X154625384Y-119262850D01*
X154429091Y-119344157D01*
X154252433Y-119462197D01*
X154102197Y-119612433D01*
X153984157Y-119789091D01*
X153902850Y-119985384D01*
X153861400Y-120193767D01*
X153478600Y-120193767D01*
X153437150Y-119985384D01*
X153383340Y-119855475D01*
X153593675Y-119645140D01*
X153608211Y-119633211D01*
X153631750Y-119604528D01*
X153655822Y-119575197D01*
X153691201Y-119509008D01*
X153692906Y-119503386D01*
X153712987Y-119437189D01*
X153718500Y-119381213D01*
X153718500Y-119381211D01*
X153720343Y-119362501D01*
X153718500Y-119343791D01*
X153718500Y-117746994D01*
X153762434Y-117733666D01*
X153844288Y-117689914D01*
X153916034Y-117631034D01*
X153974914Y-117559288D01*
X154018666Y-117477434D01*
X154045609Y-117388617D01*
X154054706Y-117296250D01*
X154054706Y-116383750D01*
X154045609Y-116291383D01*
X154018666Y-116202566D01*
X153974914Y-116120712D01*
X153916034Y-116048966D01*
X153844288Y-115990086D01*
X153762434Y-115946334D01*
X153721373Y-115933878D01*
X153783232Y-96418692D01*
X158991400Y-96418692D01*
X158991400Y-96621308D01*
X159030928Y-96820032D01*
X159108466Y-97007225D01*
X159221034Y-97175694D01*
X159364306Y-97318966D01*
X159532775Y-97431534D01*
X159719968Y-97509072D01*
X159918692Y-97548600D01*
X160121308Y-97548600D01*
X160320032Y-97509072D01*
X160507225Y-97431534D01*
X160675694Y-97318966D01*
X160818966Y-97175694D01*
X160931534Y-97007225D01*
X161009072Y-96820032D01*
X161048600Y-96621308D01*
X161048600Y-96418692D01*
X161009072Y-96219968D01*
X160931534Y-96032775D01*
X160818966Y-95864306D01*
X160675694Y-95721034D01*
X160507225Y-95608466D01*
X160320032Y-95530928D01*
X160121308Y-95491400D01*
X159918692Y-95491400D01*
X159719968Y-95530928D01*
X159532775Y-95608466D01*
X159364306Y-95721034D01*
X159221034Y-95864306D01*
X159108466Y-96032775D01*
X159030928Y-96219968D01*
X158991400Y-96418692D01*
X153783232Y-96418692D01*
X153794095Y-92991909D01*
X155038359Y-94236174D01*
X155050289Y-94250711D01*
X155078972Y-94274250D01*
X155108303Y-94298322D01*
X155174492Y-94333701D01*
X155246311Y-94355487D01*
X155302287Y-94361000D01*
X155302290Y-94361000D01*
X155321000Y-94362843D01*
X155339710Y-94361000D01*
X159064466Y-94361000D01*
X159108466Y-94467225D01*
X159221034Y-94635694D01*
X159364306Y-94778966D01*
X159532775Y-94891534D01*
X159719968Y-94969072D01*
X159918692Y-95008600D01*
X160121308Y-95008600D01*
X160320032Y-94969072D01*
X160507225Y-94891534D01*
X160675694Y-94778966D01*
X160818966Y-94635694D01*
X160931534Y-94467225D01*
X160975534Y-94361000D01*
X162446810Y-94361000D01*
X162472086Y-94408288D01*
X162530966Y-94480034D01*
X162602712Y-94538914D01*
X162684566Y-94582666D01*
X162773383Y-94609609D01*
X162865750Y-94618706D01*
X162941001Y-94618706D01*
X162941000Y-100882794D01*
X162865750Y-100882794D01*
X162773383Y-100891891D01*
X162684566Y-100918834D01*
X162602712Y-100962586D01*
X162530966Y-101021466D01*
X162472086Y-101093212D01*
X162428334Y-101175066D01*
X162415006Y-101219000D01*
X160975534Y-101219000D01*
X160931534Y-101112775D01*
X160818966Y-100944306D01*
X160675694Y-100801034D01*
X160507225Y-100688466D01*
X160320032Y-100610928D01*
X160121308Y-100571400D01*
X159918692Y-100571400D01*
X159719968Y-100610928D01*
X159532775Y-100688466D01*
X159364306Y-100801034D01*
X159221034Y-100944306D01*
X159108466Y-101112775D01*
X159030928Y-101299968D01*
X158991400Y-101498692D01*
X158991400Y-101701308D01*
X159030928Y-101900032D01*
X159108466Y-102087225D01*
X159221034Y-102255694D01*
X159364306Y-102398966D01*
X159532775Y-102511534D01*
X159719968Y-102589072D01*
X159918692Y-102628600D01*
X160121308Y-102628600D01*
X160320032Y-102589072D01*
X160507225Y-102511534D01*
X160675694Y-102398966D01*
X160818966Y-102255694D01*
X160931534Y-102087225D01*
X160975534Y-101981000D01*
X162415006Y-101981000D01*
X162428334Y-102024934D01*
X162472086Y-102106788D01*
X162530966Y-102178534D01*
X162602712Y-102237414D01*
X162684566Y-102281166D01*
X162773383Y-102308109D01*
X162865750Y-102317206D01*
X163778250Y-102317206D01*
X163870617Y-102308109D01*
X163959434Y-102281166D01*
X164041288Y-102237414D01*
X164113034Y-102178534D01*
X164171914Y-102106788D01*
X164215666Y-102024934D01*
X164242609Y-101936117D01*
X164251706Y-101843750D01*
X164251706Y-101356250D01*
X164242609Y-101263883D01*
X164215666Y-101175066D01*
X164171914Y-101093212D01*
X164113034Y-101021466D01*
X164041288Y-100962586D01*
X163959434Y-100918834D01*
X163870617Y-100891891D01*
X163778250Y-100882794D01*
X163703000Y-100882794D01*
X163703000Y-94618706D01*
X163778250Y-94618706D01*
X163870617Y-94609609D01*
X163959434Y-94582666D01*
X164041288Y-94538914D01*
X164113034Y-94480034D01*
X164171914Y-94408288D01*
X164215666Y-94326434D01*
X164242609Y-94237617D01*
X164251706Y-94145250D01*
X164251706Y-93657750D01*
X164242609Y-93565383D01*
X164215666Y-93476566D01*
X164171914Y-93394712D01*
X164113034Y-93322966D01*
X164041288Y-93264086D01*
X163959434Y-93220334D01*
X163870617Y-93193391D01*
X163778250Y-93184294D01*
X162865750Y-93184294D01*
X162773383Y-93193391D01*
X162684566Y-93220334D01*
X162602712Y-93264086D01*
X162530966Y-93322966D01*
X162472086Y-93394712D01*
X162428334Y-93476566D01*
X162401391Y-93565383D01*
X162398080Y-93599000D01*
X160975534Y-93599000D01*
X160931534Y-93492775D01*
X160818966Y-93324306D01*
X160675694Y-93181034D01*
X160507225Y-93068466D01*
X160320032Y-92990928D01*
X160121308Y-92951400D01*
X159918692Y-92951400D01*
X159719968Y-92990928D01*
X159532775Y-93068466D01*
X159364306Y-93181034D01*
X159221034Y-93324306D01*
X159108466Y-93492775D01*
X159064466Y-93599000D01*
X155478815Y-93599000D01*
X153710169Y-91830354D01*
X158691982Y-91830354D01*
X158698917Y-91853244D01*
X158804921Y-92103034D01*
X158957620Y-92327344D01*
X159151146Y-92517554D01*
X159378061Y-92666354D01*
X159629645Y-92768026D01*
X159842200Y-92666691D01*
X159842200Y-91617800D01*
X160197800Y-91617800D01*
X160197800Y-92666691D01*
X160410355Y-92768026D01*
X160661939Y-92666354D01*
X160888854Y-92517554D01*
X160892469Y-92514000D01*
X162034973Y-92514000D01*
X162046253Y-92628523D01*
X162079658Y-92738646D01*
X162133905Y-92840135D01*
X162206909Y-92929091D01*
X162295865Y-93002095D01*
X162397354Y-93056342D01*
X162507477Y-93089747D01*
X162622000Y-93101027D01*
X162998150Y-93098200D01*
X163144200Y-92952150D01*
X163144200Y-92204300D01*
X162183850Y-92204300D01*
X162037800Y-92350350D01*
X162034973Y-92514000D01*
X160892469Y-92514000D01*
X161082380Y-92327344D01*
X161235079Y-92103034D01*
X161341083Y-91853244D01*
X161348018Y-91830354D01*
X161245317Y-91617800D01*
X160197800Y-91617800D01*
X159842200Y-91617800D01*
X158794683Y-91617800D01*
X158691982Y-91830354D01*
X153710169Y-91830354D01*
X153699067Y-91819253D01*
X153687567Y-91805149D01*
X153672610Y-91792795D01*
X153418815Y-91539000D01*
X162034973Y-91539000D01*
X162037800Y-91702650D01*
X162183850Y-91848700D01*
X163144200Y-91848700D01*
X163144200Y-91100850D01*
X162998150Y-90954800D01*
X162622000Y-90951973D01*
X162507477Y-90963253D01*
X162397354Y-90996658D01*
X162295865Y-91050905D01*
X162206909Y-91123909D01*
X162133905Y-91212865D01*
X162079658Y-91314354D01*
X162046253Y-91424477D01*
X162034973Y-91539000D01*
X153418815Y-91539000D01*
X151170169Y-89290354D01*
X158691982Y-89290354D01*
X158698917Y-89313244D01*
X158804921Y-89563034D01*
X158957620Y-89787344D01*
X159151146Y-89977554D01*
X159378061Y-90126354D01*
X159486062Y-90170000D01*
X159378061Y-90213646D01*
X159151146Y-90362446D01*
X158957620Y-90552656D01*
X158804921Y-90776966D01*
X158698917Y-91026756D01*
X158691982Y-91049646D01*
X158794683Y-91262200D01*
X159842200Y-91262200D01*
X159842200Y-90213309D01*
X159751357Y-90170000D01*
X159842200Y-90126691D01*
X159842200Y-89077800D01*
X160197800Y-89077800D01*
X160197800Y-90126691D01*
X160288643Y-90170000D01*
X160197800Y-90213309D01*
X160197800Y-91262200D01*
X161245317Y-91262200D01*
X161348018Y-91049646D01*
X161341083Y-91026756D01*
X161235079Y-90776966D01*
X161082380Y-90552656D01*
X160888854Y-90362446D01*
X160661939Y-90213646D01*
X160553938Y-90170000D01*
X160661939Y-90126354D01*
X160888854Y-89977554D01*
X161082380Y-89787344D01*
X161235079Y-89563034D01*
X161341083Y-89313244D01*
X161348018Y-89290354D01*
X161245317Y-89077800D01*
X160197800Y-89077800D01*
X159842200Y-89077800D01*
X158794683Y-89077800D01*
X158691982Y-89290354D01*
X151170169Y-89290354D01*
X150523646Y-88643832D01*
X150511711Y-88629289D01*
X150453696Y-88581678D01*
X150387508Y-88546299D01*
X150315689Y-88524513D01*
X150259713Y-88519000D01*
X150259710Y-88519000D01*
X150241000Y-88517157D01*
X150222290Y-88519000D01*
X145735534Y-88519000D01*
X145731660Y-88509646D01*
X158691982Y-88509646D01*
X158794683Y-88722200D01*
X159842200Y-88722200D01*
X159842200Y-87673309D01*
X160197800Y-87673309D01*
X160197800Y-88722200D01*
X161245317Y-88722200D01*
X161348018Y-88509646D01*
X161341083Y-88486756D01*
X161235079Y-88236966D01*
X161082380Y-88012656D01*
X160888854Y-87822446D01*
X160661939Y-87673646D01*
X160410355Y-87571974D01*
X160197800Y-87673309D01*
X159842200Y-87673309D01*
X159629645Y-87571974D01*
X159378061Y-87673646D01*
X159151146Y-87822446D01*
X158957620Y-88012656D01*
X158804921Y-88236966D01*
X158698917Y-88486756D01*
X158691982Y-88509646D01*
X145731660Y-88509646D01*
X145691534Y-88412775D01*
X145578966Y-88244306D01*
X145435694Y-88101034D01*
X145267225Y-87988466D01*
X145080032Y-87910928D01*
X144881308Y-87871400D01*
X144678692Y-87871400D01*
X144479968Y-87910928D01*
X144292775Y-87988466D01*
X144124306Y-88101034D01*
X143981034Y-88244306D01*
X143868466Y-88412775D01*
X143791950Y-88597500D01*
X142384994Y-88597500D01*
X142371666Y-88553566D01*
X142327914Y-88471712D01*
X142269034Y-88399966D01*
X142197288Y-88341086D01*
X142115434Y-88297334D01*
X142026617Y-88270391D01*
X141934250Y-88261294D01*
X141021750Y-88261294D01*
X140929383Y-88270391D01*
X140840566Y-88297334D01*
X140758712Y-88341086D01*
X140686966Y-88399966D01*
X140628086Y-88471712D01*
X140584334Y-88553566D01*
X140557391Y-88642383D01*
X140548294Y-88734750D01*
X140258800Y-88734750D01*
X140258800Y-88073751D01*
X141667752Y-86664800D01*
X143792903Y-86664800D01*
X143868466Y-86847225D01*
X143981034Y-87015694D01*
X144124306Y-87158966D01*
X144292775Y-87271534D01*
X144479968Y-87349072D01*
X144678692Y-87388600D01*
X144881308Y-87388600D01*
X145080032Y-87349072D01*
X145267225Y-87271534D01*
X145435694Y-87158966D01*
X145578966Y-87015694D01*
X145691534Y-86847225D01*
X145769072Y-86660032D01*
X145808600Y-86461308D01*
X145808600Y-86258692D01*
X145769072Y-86059968D01*
X145691534Y-85872775D01*
X145578966Y-85704306D01*
X145435694Y-85561034D01*
X145267225Y-85448466D01*
X145080032Y-85370928D01*
X144881308Y-85331400D01*
X144678692Y-85331400D01*
X144479968Y-85370928D01*
X144292775Y-85448466D01*
X144124306Y-85561034D01*
X143981034Y-85704306D01*
X143868466Y-85872775D01*
X143792903Y-86055200D01*
X141556457Y-86055200D01*
X141541499Y-86053727D01*
X141526541Y-86055200D01*
X141526534Y-86055200D01*
X141487389Y-86059055D01*
X141481748Y-86059611D01*
X141424294Y-86077040D01*
X141371343Y-86105342D01*
X141324932Y-86143432D01*
X141315392Y-86155056D01*
X139750800Y-87719649D01*
X139750800Y-86740251D01*
X142366252Y-84124800D01*
X143792903Y-84124800D01*
X143868466Y-84307225D01*
X143981034Y-84475694D01*
X144124306Y-84618966D01*
X144292775Y-84731534D01*
X144479968Y-84809072D01*
X144678692Y-84848600D01*
X144881308Y-84848600D01*
X145080032Y-84809072D01*
X145267225Y-84731534D01*
X145435694Y-84618966D01*
X145578966Y-84475694D01*
X145691534Y-84307225D01*
X145769072Y-84120032D01*
X145808600Y-83921308D01*
X145808600Y-83718692D01*
X145769072Y-83519968D01*
X145691534Y-83332775D01*
X145578966Y-83164306D01*
X145435694Y-83021034D01*
X145267225Y-82908466D01*
X145080032Y-82830928D01*
X144881308Y-82791400D01*
X144678692Y-82791400D01*
X144479968Y-82830928D01*
X144292775Y-82908466D01*
X144124306Y-83021034D01*
X143981034Y-83164306D01*
X143868466Y-83332775D01*
X143792903Y-83515200D01*
X142254958Y-83515200D01*
X142240000Y-83513727D01*
X142225042Y-83515200D01*
X142225034Y-83515200D01*
X142185403Y-83519103D01*
X142180248Y-83519611D01*
X142122794Y-83537040D01*
X142069843Y-83565342D01*
X142023432Y-83603432D01*
X142013892Y-83615056D01*
X139242800Y-86386149D01*
X139242800Y-85438501D01*
X143096502Y-81584800D01*
X143792903Y-81584800D01*
X143868466Y-81767225D01*
X143981034Y-81935694D01*
X144124306Y-82078966D01*
X144292775Y-82191534D01*
X144479968Y-82269072D01*
X144678692Y-82308600D01*
X144881308Y-82308600D01*
X145080032Y-82269072D01*
X145267225Y-82191534D01*
X145435694Y-82078966D01*
X145578966Y-81935694D01*
X145691534Y-81767225D01*
X145769072Y-81580032D01*
X145808600Y-81381308D01*
X145808600Y-81178692D01*
X145769072Y-80979968D01*
X145691534Y-80792775D01*
X145578966Y-80624306D01*
X145435694Y-80481034D01*
X145267225Y-80368466D01*
X145080032Y-80290928D01*
X144881308Y-80251400D01*
X144678692Y-80251400D01*
X144479968Y-80290928D01*
X144292775Y-80368466D01*
X144124306Y-80481034D01*
X143981034Y-80624306D01*
X143868466Y-80792775D01*
X143792903Y-80975200D01*
X142985208Y-80975200D01*
X142970250Y-80973727D01*
X142955292Y-80975200D01*
X142955284Y-80975200D01*
X142910499Y-80979611D01*
X142853044Y-80997040D01*
X142800093Y-81025342D01*
X142753682Y-81063432D01*
X142744142Y-81075056D01*
X138734800Y-85084399D01*
X138734800Y-84105051D01*
X143750294Y-79089558D01*
X143750294Y-79540000D01*
X143754708Y-79584813D01*
X143767779Y-79627905D01*
X143789006Y-79667618D01*
X143817573Y-79702427D01*
X143852382Y-79730994D01*
X143892095Y-79752221D01*
X143935187Y-79765292D01*
X143980000Y-79769706D01*
X145580000Y-79769706D01*
X145624813Y-79765292D01*
X145667905Y-79752221D01*
X145707618Y-79730994D01*
X145742427Y-79702427D01*
X145770994Y-79667618D01*
X145792221Y-79627905D01*
X145805292Y-79584813D01*
X145809706Y-79540000D01*
X145809706Y-77940000D01*
X145805292Y-77895187D01*
X145792221Y-77852095D01*
X145770994Y-77812382D01*
X145742427Y-77777573D01*
X145707618Y-77749006D01*
X145667905Y-77727779D01*
X145624813Y-77714708D01*
X145580000Y-77710294D01*
X143980000Y-77710294D01*
X143935187Y-77714708D01*
X143892095Y-77727779D01*
X143852382Y-77749006D01*
X143817573Y-77777573D01*
X143789006Y-77812382D01*
X143767779Y-77852095D01*
X143754708Y-77895187D01*
X143750294Y-77940000D01*
X143750294Y-78435200D01*
X143683757Y-78435200D01*
X143668799Y-78433727D01*
X143653841Y-78435200D01*
X143653834Y-78435200D01*
X143614689Y-78439055D01*
X143609048Y-78439611D01*
X143551594Y-78457040D01*
X143498643Y-78485342D01*
X143452232Y-78523432D01*
X143442692Y-78535056D01*
X138225061Y-83752688D01*
X138213432Y-83762232D01*
X138175342Y-83808644D01*
X138147041Y-83861594D01*
X138147040Y-83861595D01*
X138139258Y-83887250D01*
X138129611Y-83919050D01*
X138125200Y-83963835D01*
X138125200Y-83963842D01*
X138123727Y-83978800D01*
X138125200Y-83993758D01*
X138125201Y-114729532D01*
X138123727Y-114744500D01*
X138129611Y-114804251D01*
X138147040Y-114861705D01*
X138147041Y-114861706D01*
X138175343Y-114914657D01*
X138213433Y-114961068D01*
X138225057Y-114970608D01*
X139074679Y-115820231D01*
X138990063Y-115803400D01*
X138885937Y-115803400D01*
X138783813Y-115823713D01*
X138687614Y-115863560D01*
X138601037Y-115921409D01*
X138527409Y-115995037D01*
X138469560Y-116081614D01*
X138429713Y-116177813D01*
X138409400Y-116279937D01*
X138409400Y-116384063D01*
X138429713Y-116486187D01*
X138469560Y-116582386D01*
X138527409Y-116668963D01*
X138601037Y-116742591D01*
X138633201Y-116764082D01*
X138633200Y-118999748D01*
X138179057Y-119453892D01*
X138167434Y-119463431D01*
X138129344Y-119509842D01*
X138115384Y-119535960D01*
X138101041Y-119562794D01*
X138083612Y-119620248D01*
X138077728Y-119679999D01*
X137261200Y-119679999D01*
X137261200Y-76301200D01*
X167538801Y-76301200D01*
X167538800Y-125374800D01*
G37*
X167538800Y-125374800D02*
X137261200Y-125374800D01*
X137261200Y-119679999D01*
X138077728Y-119679999D01*
X138079202Y-119694967D01*
X138079201Y-121509043D01*
X138077728Y-121524001D01*
X138079201Y-121538959D01*
X138079201Y-121538966D01*
X138082258Y-121570000D01*
X138083612Y-121583752D01*
X138097566Y-121629750D01*
X138101041Y-121641206D01*
X138129343Y-121694157D01*
X138167433Y-121740569D01*
X138179062Y-121750113D01*
X138749718Y-122320769D01*
X138744157Y-122329091D01*
X138662850Y-122525384D01*
X138621400Y-122733767D01*
X138621400Y-122946233D01*
X138662850Y-123154616D01*
X138744157Y-123350909D01*
X138862197Y-123527567D01*
X139012433Y-123677803D01*
X139189091Y-123795843D01*
X139385384Y-123877150D01*
X139593767Y-123918600D01*
X139806233Y-123918600D01*
X140014616Y-123877150D01*
X140210909Y-123795843D01*
X140387567Y-123677803D01*
X140537803Y-123527567D01*
X140655843Y-123350909D01*
X140737150Y-123154616D01*
X140778600Y-122946233D01*
X140778600Y-122733767D01*
X140737150Y-122525384D01*
X140655843Y-122329091D01*
X140537803Y-122152433D01*
X140387567Y-122002197D01*
X140210909Y-121884157D01*
X140014616Y-121802850D01*
X139806233Y-121761400D01*
X139593767Y-121761400D01*
X139385384Y-121802850D01*
X139189091Y-121884157D01*
X139180769Y-121889718D01*
X138688801Y-121397750D01*
X138688801Y-120677267D01*
X138744157Y-120810909D01*
X138862197Y-120987567D01*
X139012433Y-121137803D01*
X139189091Y-121255843D01*
X139385384Y-121337150D01*
X139593767Y-121378600D01*
X139806233Y-121378600D01*
X140014616Y-121337150D01*
X140210909Y-121255843D01*
X140387567Y-121137803D01*
X140537803Y-120987567D01*
X140655843Y-120810909D01*
X140665200Y-120788319D01*
X140665200Y-121555042D01*
X140663727Y-121570000D01*
X140665200Y-121584958D01*
X140665200Y-121584965D01*
X140669055Y-121624110D01*
X140669611Y-121629751D01*
X140673086Y-121641206D01*
X140687040Y-121687205D01*
X140715342Y-121740156D01*
X140753432Y-121786568D01*
X140765061Y-121796112D01*
X141289718Y-122320769D01*
X141284157Y-122329091D01*
X141202850Y-122525384D01*
X141161400Y-122733767D01*
X141161400Y-122946233D01*
X141202850Y-123154616D01*
X141284157Y-123350909D01*
X141402197Y-123527567D01*
X141552433Y-123677803D01*
X141729091Y-123795843D01*
X141925384Y-123877150D01*
X142133767Y-123918600D01*
X142346233Y-123918600D01*
X142554616Y-123877150D01*
X142750909Y-123795843D01*
X142927567Y-123677803D01*
X143077803Y-123527567D01*
X143195843Y-123350909D01*
X143277150Y-123154616D01*
X143318600Y-122946233D01*
X143318600Y-122733767D01*
X143277150Y-122525384D01*
X143195843Y-122329091D01*
X143077803Y-122152433D01*
X142927567Y-122002197D01*
X142750909Y-121884157D01*
X142554616Y-121802850D01*
X142346233Y-121761400D01*
X142133767Y-121761400D01*
X141925384Y-121802850D01*
X141729091Y-121884157D01*
X141720769Y-121889718D01*
X141274800Y-121443749D01*
X141274800Y-120788319D01*
X141284157Y-120810909D01*
X141402197Y-120987567D01*
X141552433Y-121137803D01*
X141729091Y-121255843D01*
X141925384Y-121337150D01*
X142133767Y-121378600D01*
X142346233Y-121378600D01*
X142554616Y-121337150D01*
X142750909Y-121255843D01*
X142927567Y-121137803D01*
X143077803Y-120987567D01*
X143195843Y-120810909D01*
X143205200Y-120788319D01*
X143205200Y-121555042D01*
X143203727Y-121570000D01*
X143205200Y-121584958D01*
X143205200Y-121584965D01*
X143209055Y-121624110D01*
X143209611Y-121629751D01*
X143213086Y-121641206D01*
X143227040Y-121687205D01*
X143255342Y-121740156D01*
X143293432Y-121786568D01*
X143305061Y-121796112D01*
X143829718Y-122320769D01*
X143824157Y-122329091D01*
X143742850Y-122525384D01*
X143701400Y-122733767D01*
X143701400Y-122946233D01*
X143742850Y-123154616D01*
X143824157Y-123350909D01*
X143942197Y-123527567D01*
X144092433Y-123677803D01*
X144269091Y-123795843D01*
X144465384Y-123877150D01*
X144673767Y-123918600D01*
X144886233Y-123918600D01*
X145094616Y-123877150D01*
X145290909Y-123795843D01*
X145467567Y-123677803D01*
X145617803Y-123527567D01*
X145735843Y-123350909D01*
X145817150Y-123154616D01*
X145858600Y-122946233D01*
X145858600Y-122733767D01*
X145817150Y-122525384D01*
X145735843Y-122329091D01*
X145617803Y-122152433D01*
X145467567Y-122002197D01*
X145290909Y-121884157D01*
X145094616Y-121802850D01*
X144886233Y-121761400D01*
X144673767Y-121761400D01*
X144465384Y-121802850D01*
X144269091Y-121884157D01*
X144260769Y-121889718D01*
X143814800Y-121443749D01*
X143814800Y-120788319D01*
X143824157Y-120810909D01*
X143942197Y-120987567D01*
X144092433Y-121137803D01*
X144269091Y-121255843D01*
X144465384Y-121337150D01*
X144673767Y-121378600D01*
X144886233Y-121378600D01*
X145094616Y-121337150D01*
X145290909Y-121255843D01*
X145467567Y-121137803D01*
X145617803Y-120987567D01*
X145735843Y-120810909D01*
X145745200Y-120788319D01*
X145745200Y-121555042D01*
X145743727Y-121570000D01*
X145745200Y-121584958D01*
X145745200Y-121584965D01*
X145749055Y-121624110D01*
X145749611Y-121629751D01*
X145753086Y-121641206D01*
X145767040Y-121687205D01*
X145795342Y-121740156D01*
X145833432Y-121786568D01*
X145845061Y-121796112D01*
X146369718Y-122320769D01*
X146364157Y-122329091D01*
X146282850Y-122525384D01*
X146241400Y-122733767D01*
X146241400Y-122946233D01*
X146282850Y-123154616D01*
X146364157Y-123350909D01*
X146482197Y-123527567D01*
X146632433Y-123677803D01*
X146809091Y-123795843D01*
X147005384Y-123877150D01*
X147213767Y-123918600D01*
X147426233Y-123918600D01*
X147634616Y-123877150D01*
X147830909Y-123795843D01*
X148007567Y-123677803D01*
X148157803Y-123527567D01*
X148275843Y-123350909D01*
X148357150Y-123154616D01*
X148398600Y-122946233D01*
X148398600Y-122733767D01*
X148781400Y-122733767D01*
X148781400Y-122946233D01*
X148822850Y-123154616D01*
X148904157Y-123350909D01*
X149022197Y-123527567D01*
X149172433Y-123677803D01*
X149349091Y-123795843D01*
X149545384Y-123877150D01*
X149753767Y-123918600D01*
X149966233Y-123918600D01*
X150174616Y-123877150D01*
X150370909Y-123795843D01*
X150547567Y-123677803D01*
X150697803Y-123527567D01*
X150815843Y-123350909D01*
X150862511Y-123238240D01*
X151022192Y-123238240D01*
X151126359Y-123499385D01*
X151279471Y-123735190D01*
X151475645Y-123936594D01*
X151707341Y-124095856D01*
X151965656Y-124206856D01*
X152001761Y-124217801D01*
X152222200Y-124115820D01*
X152222200Y-123017800D01*
X152577800Y-123017800D01*
X152577800Y-124115820D01*
X152798239Y-124217801D01*
X152834344Y-124206856D01*
X153092659Y-124095856D01*
X153324355Y-123936594D01*
X153520529Y-123735190D01*
X153673641Y-123499385D01*
X153777808Y-123238240D01*
X153677093Y-123017800D01*
X152577800Y-123017800D01*
X152222200Y-123017800D01*
X151122907Y-123017800D01*
X151022192Y-123238240D01*
X150862511Y-123238240D01*
X150897150Y-123154616D01*
X150938600Y-122946233D01*
X150938600Y-122733767D01*
X150897150Y-122525384D01*
X150862512Y-122441760D01*
X151022192Y-122441760D01*
X151122907Y-122662200D01*
X152222200Y-122662200D01*
X152222200Y-121564180D01*
X152577800Y-121564180D01*
X152577800Y-122662200D01*
X153677093Y-122662200D01*
X153777808Y-122441760D01*
X153673641Y-122180615D01*
X153520529Y-121944810D01*
X153324355Y-121743406D01*
X153092659Y-121584144D01*
X152834344Y-121473144D01*
X152798239Y-121462199D01*
X152577800Y-121564180D01*
X152222200Y-121564180D01*
X152001761Y-121462199D01*
X151965656Y-121473144D01*
X151707341Y-121584144D01*
X151475645Y-121743406D01*
X151279471Y-121944810D01*
X151126359Y-122180615D01*
X151022192Y-122441760D01*
X150862512Y-122441760D01*
X150815843Y-122329091D01*
X150697803Y-122152433D01*
X150547567Y-122002197D01*
X150370909Y-121884157D01*
X150174616Y-121802850D01*
X149966233Y-121761400D01*
X149753767Y-121761400D01*
X149545384Y-121802850D01*
X149349091Y-121884157D01*
X149172433Y-122002197D01*
X149022197Y-122152433D01*
X148904157Y-122329091D01*
X148822850Y-122525384D01*
X148781400Y-122733767D01*
X148398600Y-122733767D01*
X148357150Y-122525384D01*
X148275843Y-122329091D01*
X148157803Y-122152433D01*
X148007567Y-122002197D01*
X147830909Y-121884157D01*
X147634616Y-121802850D01*
X147426233Y-121761400D01*
X147213767Y-121761400D01*
X147005384Y-121802850D01*
X146809091Y-121884157D01*
X146800769Y-121889718D01*
X146354800Y-121443749D01*
X146354800Y-120788319D01*
X146364157Y-120810909D01*
X146482197Y-120987567D01*
X146632433Y-121137803D01*
X146809091Y-121255843D01*
X147005384Y-121337150D01*
X147213767Y-121378600D01*
X147426233Y-121378600D01*
X147634616Y-121337150D01*
X147830909Y-121255843D01*
X148007567Y-121137803D01*
X148157803Y-120987567D01*
X148275843Y-120810909D01*
X148357150Y-120614616D01*
X148398600Y-120406233D01*
X148398600Y-120193767D01*
X148781400Y-120193767D01*
X148781400Y-120406233D01*
X148822850Y-120614616D01*
X148904157Y-120810909D01*
X149022197Y-120987567D01*
X149172433Y-121137803D01*
X149349091Y-121255843D01*
X149545384Y-121337150D01*
X149753767Y-121378600D01*
X149966233Y-121378600D01*
X150174616Y-121337150D01*
X150370909Y-121255843D01*
X150547567Y-121137803D01*
X150697803Y-120987567D01*
X150815843Y-120810909D01*
X150897150Y-120614616D01*
X150938600Y-120406233D01*
X150938600Y-120193767D01*
X150897150Y-119985384D01*
X150815843Y-119789091D01*
X150697803Y-119612433D01*
X150547567Y-119462197D01*
X150370909Y-119344157D01*
X150174616Y-119262850D01*
X150164800Y-119260897D01*
X150164800Y-118251961D01*
X150166273Y-118237003D01*
X150164800Y-118222040D01*
X150164800Y-118222038D01*
X150160389Y-118177253D01*
X150160388Y-118177248D01*
X150148772Y-118138959D01*
X150142960Y-118119798D01*
X150114658Y-118066847D01*
X150076568Y-118020436D01*
X150064944Y-118010896D01*
X150000054Y-117946006D01*
X150007600Y-117908067D01*
X150007600Y-117803941D01*
X149987287Y-117701817D01*
X149947440Y-117605618D01*
X149903596Y-117540000D01*
X150387973Y-117540000D01*
X150399253Y-117654523D01*
X150432658Y-117764646D01*
X150486905Y-117866135D01*
X150559909Y-117955091D01*
X150648865Y-118028095D01*
X150750354Y-118082342D01*
X150860477Y-118115747D01*
X150975000Y-118127027D01*
X151138650Y-118124200D01*
X151284700Y-117978150D01*
X151284700Y-117017800D01*
X151640300Y-117017800D01*
X151640300Y-117978150D01*
X151786350Y-118124200D01*
X151950000Y-118127027D01*
X152064523Y-118115747D01*
X152174646Y-118082342D01*
X152276135Y-118028095D01*
X152365091Y-117955091D01*
X152438095Y-117866135D01*
X152492342Y-117764646D01*
X152525747Y-117654523D01*
X152537027Y-117540000D01*
X152534200Y-117163850D01*
X152388150Y-117017800D01*
X151640300Y-117017800D01*
X151284700Y-117017800D01*
X150536850Y-117017800D01*
X150390800Y-117163850D01*
X150387973Y-117540000D01*
X149903596Y-117540000D01*
X149889591Y-117519041D01*
X149815963Y-117445413D01*
X149729386Y-117387564D01*
X149633187Y-117347717D01*
X149531063Y-117327404D01*
X149426937Y-117327404D01*
X149324813Y-117347717D01*
X149228614Y-117387564D01*
X149142037Y-117445413D01*
X149068409Y-117519041D01*
X149010560Y-117605618D01*
X148970713Y-117701817D01*
X148950400Y-117803941D01*
X148950400Y-117908067D01*
X148970713Y-118010191D01*
X149010560Y-118106390D01*
X149068409Y-118192967D01*
X149142037Y-118266595D01*
X149228614Y-118324444D01*
X149324813Y-118364291D01*
X149426937Y-118384604D01*
X149531063Y-118384604D01*
X149555201Y-118379803D01*
X149555201Y-119260897D01*
X149545384Y-119262850D01*
X149349091Y-119344157D01*
X149172433Y-119462197D01*
X149022197Y-119612433D01*
X148904157Y-119789091D01*
X148822850Y-119985384D01*
X148781400Y-120193767D01*
X148398600Y-120193767D01*
X148357150Y-119985384D01*
X148275843Y-119789091D01*
X148157803Y-119612433D01*
X148007567Y-119462197D01*
X147830909Y-119344157D01*
X147634616Y-119262850D01*
X147624800Y-119260897D01*
X147624800Y-118251957D01*
X147626273Y-118236999D01*
X147624800Y-118222038D01*
X147624800Y-118222034D01*
X147620390Y-118177255D01*
X147620389Y-118177248D01*
X147611344Y-118147432D01*
X147602960Y-118119794D01*
X147574658Y-118066843D01*
X147536568Y-118020432D01*
X147524945Y-118010893D01*
X146022112Y-116508061D01*
X146012568Y-116496432D01*
X145966157Y-116458342D01*
X145913206Y-116430040D01*
X145855751Y-116412611D01*
X145810966Y-116408200D01*
X145810958Y-116408200D01*
X145796000Y-116406727D01*
X145781042Y-116408200D01*
X142747253Y-116408200D01*
X142128356Y-115789304D01*
X142212813Y-115824287D01*
X142314937Y-115844600D01*
X142419063Y-115844600D01*
X142521187Y-115824287D01*
X142617386Y-115784440D01*
X142703963Y-115726591D01*
X142777591Y-115652963D01*
X142835440Y-115566386D01*
X142875287Y-115470187D01*
X142895600Y-115368063D01*
X142895600Y-115263937D01*
X142875287Y-115161813D01*
X142835440Y-115065614D01*
X142777591Y-114979037D01*
X142703963Y-114905409D01*
X142671800Y-114883918D01*
X142671800Y-114299251D01*
X144297543Y-112673509D01*
X144479968Y-112749072D01*
X144678692Y-112788600D01*
X144881308Y-112788600D01*
X145080032Y-112749072D01*
X145267225Y-112671534D01*
X145435694Y-112558966D01*
X145578966Y-112415694D01*
X145691534Y-112247225D01*
X145769072Y-112060032D01*
X145808600Y-111861308D01*
X145808600Y-111658692D01*
X145769072Y-111459968D01*
X145691534Y-111272775D01*
X145578966Y-111104306D01*
X145435694Y-110961034D01*
X145267225Y-110848466D01*
X145080032Y-110770928D01*
X144881308Y-110731400D01*
X144678692Y-110731400D01*
X144479968Y-110770928D01*
X144292775Y-110848466D01*
X144124306Y-110961034D01*
X143981034Y-111104306D01*
X143868466Y-111272775D01*
X143790928Y-111459968D01*
X143751400Y-111658692D01*
X143751400Y-111861308D01*
X143790928Y-112060032D01*
X143866491Y-112242457D01*
X142162061Y-113946888D01*
X142150432Y-113956432D01*
X142112342Y-114002844D01*
X142087272Y-114049749D01*
X142084040Y-114055795D01*
X142066612Y-114113248D01*
X142066611Y-114113250D01*
X142062200Y-114158035D01*
X142062200Y-114158042D01*
X142060727Y-114173000D01*
X142062200Y-114187958D01*
X142062200Y-114265890D01*
X142036800Y-114248918D01*
X142036800Y-112394251D01*
X144297543Y-110133509D01*
X144479968Y-110209072D01*
X144678692Y-110248600D01*
X144881308Y-110248600D01*
X145080032Y-110209072D01*
X145267225Y-110131534D01*
X145435694Y-110018966D01*
X145578966Y-109875694D01*
X145691534Y-109707225D01*
X145769072Y-109520032D01*
X145808600Y-109321308D01*
X145808600Y-109118692D01*
X145769072Y-108919968D01*
X145691534Y-108732775D01*
X145578966Y-108564306D01*
X145435694Y-108421034D01*
X145267225Y-108308466D01*
X145080032Y-108230928D01*
X144881308Y-108191400D01*
X144678692Y-108191400D01*
X144479968Y-108230928D01*
X144292775Y-108308466D01*
X144124306Y-108421034D01*
X143981034Y-108564306D01*
X143868466Y-108732775D01*
X143790928Y-108919968D01*
X143751400Y-109118692D01*
X143751400Y-109321308D01*
X143790928Y-109520032D01*
X143866491Y-109702457D01*
X141527061Y-112041888D01*
X141515432Y-112051432D01*
X141477342Y-112097844D01*
X141449041Y-112150794D01*
X141449040Y-112150795D01*
X141431612Y-112208248D01*
X141431611Y-112208250D01*
X141427200Y-112253035D01*
X141427200Y-112253042D01*
X141425727Y-112268000D01*
X141427200Y-112282958D01*
X141427201Y-113630890D01*
X141401800Y-113613918D01*
X141401800Y-110489251D01*
X144297543Y-107593509D01*
X144479968Y-107669072D01*
X144678692Y-107708600D01*
X144881308Y-107708600D01*
X145080032Y-107669072D01*
X145267225Y-107591534D01*
X145435694Y-107478966D01*
X145578966Y-107335694D01*
X145691534Y-107167225D01*
X145769072Y-106980032D01*
X145808600Y-106781308D01*
X145808600Y-106578692D01*
X145769072Y-106379968D01*
X145691534Y-106192775D01*
X145578966Y-106024306D01*
X145435694Y-105881034D01*
X145267225Y-105768466D01*
X145080032Y-105690928D01*
X144881308Y-105651400D01*
X144678692Y-105651400D01*
X144479968Y-105690928D01*
X144292775Y-105768466D01*
X144124306Y-105881034D01*
X143981034Y-106024306D01*
X143868466Y-106192775D01*
X143790928Y-106379968D01*
X143751400Y-106578692D01*
X143751400Y-106781308D01*
X143790928Y-106980032D01*
X143866491Y-107162457D01*
X140892061Y-110136888D01*
X140880432Y-110146432D01*
X140842342Y-110192844D01*
X140814040Y-110245795D01*
X140796611Y-110303250D01*
X140792200Y-110348035D01*
X140792200Y-110348042D01*
X140790727Y-110363000D01*
X140792200Y-110377958D01*
X140792201Y-112982119D01*
X140787410Y-112978918D01*
X140787410Y-108563641D01*
X144297543Y-105053509D01*
X144479968Y-105129072D01*
X144678692Y-105168600D01*
X144881308Y-105168600D01*
X145080032Y-105129072D01*
X145267225Y-105051534D01*
X145435694Y-104938966D01*
X145578966Y-104795694D01*
X145691534Y-104627225D01*
X145769072Y-104440032D01*
X145808600Y-104241308D01*
X145808600Y-104038692D01*
X145769072Y-103839968D01*
X145691534Y-103652775D01*
X145578966Y-103484306D01*
X145435694Y-103341034D01*
X145267225Y-103228466D01*
X145080032Y-103150928D01*
X144881308Y-103111400D01*
X144678692Y-103111400D01*
X144479968Y-103150928D01*
X144292775Y-103228466D01*
X144124306Y-103341034D01*
X143981034Y-103484306D01*
X143868466Y-103652775D01*
X143790928Y-103839968D01*
X143751400Y-104038692D01*
X143751400Y-104241308D01*
X143790928Y-104440032D01*
X143866491Y-104622457D01*
X140277671Y-108211278D01*
X140266042Y-108220822D01*
X140258800Y-108229646D01*
X140258800Y-101990354D01*
X143451982Y-101990354D01*
X143458917Y-102013244D01*
X143564921Y-102263034D01*
X143717620Y-102487344D01*
X143911146Y-102677554D01*
X144138061Y-102826354D01*
X144389645Y-102928026D01*
X144602200Y-102826691D01*
X144602200Y-101777800D01*
X143554683Y-101777800D01*
X143451982Y-101990354D01*
X140258800Y-101990354D01*
X140258800Y-101209646D01*
X143451982Y-101209646D01*
X143554683Y-101422200D01*
X144602200Y-101422200D01*
X144602200Y-100373309D01*
X144389645Y-100271974D01*
X144138061Y-100373646D01*
X143911146Y-100522446D01*
X143717620Y-100712656D01*
X143564921Y-100936966D01*
X143458917Y-101186756D01*
X143451982Y-101209646D01*
X140258800Y-101209646D01*
X140258800Y-96910354D01*
X143451982Y-96910354D01*
X143458917Y-96933244D01*
X143564921Y-97183034D01*
X143717620Y-97407344D01*
X143911146Y-97597554D01*
X144138061Y-97746354D01*
X144389645Y-97848026D01*
X144602200Y-97746691D01*
X144602200Y-96697800D01*
X144957800Y-96697800D01*
X144957800Y-97746691D01*
X145170355Y-97848026D01*
X145421939Y-97746354D01*
X145648854Y-97597554D01*
X145842380Y-97407344D01*
X145995079Y-97183034D01*
X146101083Y-96933244D01*
X146108018Y-96910354D01*
X146005317Y-96697800D01*
X144957800Y-96697800D01*
X144602200Y-96697800D01*
X143554683Y-96697800D01*
X143451982Y-96910354D01*
X140258800Y-96910354D01*
X140258800Y-96129646D01*
X143451982Y-96129646D01*
X143554683Y-96342200D01*
X144602200Y-96342200D01*
X144602200Y-95293309D01*
X144957800Y-95293309D01*
X144957800Y-96342200D01*
X146005317Y-96342200D01*
X146108018Y-96129646D01*
X146101083Y-96106756D01*
X145995079Y-95856966D01*
X145842380Y-95632656D01*
X145648854Y-95442446D01*
X145421939Y-95293646D01*
X145170355Y-95191974D01*
X144957800Y-95293309D01*
X144602200Y-95293309D01*
X144389645Y-95191974D01*
X144138061Y-95293646D01*
X143911146Y-95442446D01*
X143717620Y-95632656D01*
X143564921Y-95856966D01*
X143458917Y-96106756D01*
X143451982Y-96129646D01*
X140258800Y-96129646D01*
X140258800Y-91608942D01*
X140289905Y-91667135D01*
X140362909Y-91756091D01*
X140451865Y-91829095D01*
X140553354Y-91883342D01*
X140663477Y-91916747D01*
X140778000Y-91928027D01*
X141154150Y-91925200D01*
X141300200Y-91779150D01*
X141300200Y-91031300D01*
X141655800Y-91031300D01*
X141655800Y-91779150D01*
X141801850Y-91925200D01*
X142178000Y-91928027D01*
X142292523Y-91916747D01*
X142402646Y-91883342D01*
X142504135Y-91829095D01*
X142593091Y-91756091D01*
X142666095Y-91667135D01*
X142720342Y-91565646D01*
X142753747Y-91455523D01*
X142765027Y-91341000D01*
X142764988Y-91338692D01*
X143751400Y-91338692D01*
X143751400Y-91541308D01*
X143790928Y-91740032D01*
X143868466Y-91927225D01*
X143981034Y-92095694D01*
X144124306Y-92238966D01*
X144292775Y-92351534D01*
X144479968Y-92429072D01*
X144678692Y-92468600D01*
X144881308Y-92468600D01*
X145080032Y-92429072D01*
X145262457Y-92353509D01*
X147015200Y-94106252D01*
X147015200Y-95784148D01*
X145693509Y-94462457D01*
X145769072Y-94280032D01*
X145808600Y-94081308D01*
X145808600Y-93878692D01*
X145769072Y-93679968D01*
X145691534Y-93492775D01*
X145578966Y-93324306D01*
X145435694Y-93181034D01*
X145267225Y-93068466D01*
X145080032Y-92990928D01*
X144881308Y-92951400D01*
X144678692Y-92951400D01*
X144479968Y-92990928D01*
X144292775Y-93068466D01*
X144124306Y-93181034D01*
X143981034Y-93324306D01*
X143868466Y-93492775D01*
X143790928Y-93679968D01*
X143751400Y-93878692D01*
X143751400Y-94081308D01*
X143790928Y-94280032D01*
X143868466Y-94467225D01*
X143981034Y-94635694D01*
X144124306Y-94778966D01*
X144292775Y-94891534D01*
X144479968Y-94969072D01*
X144678692Y-95008600D01*
X144881308Y-95008600D01*
X145080032Y-94969072D01*
X145262457Y-94893509D01*
X146507198Y-96138250D01*
X146507198Y-100356146D01*
X145693509Y-99542457D01*
X145769072Y-99360032D01*
X145808600Y-99161308D01*
X145808600Y-98958692D01*
X145769072Y-98759968D01*
X145691534Y-98572775D01*
X145578966Y-98404306D01*
X145435694Y-98261034D01*
X145267225Y-98148466D01*
X145080032Y-98070928D01*
X144881308Y-98031400D01*
X144678692Y-98031400D01*
X144479968Y-98070928D01*
X144292775Y-98148466D01*
X144124306Y-98261034D01*
X143981034Y-98404306D01*
X143868466Y-98572775D01*
X143790928Y-98759968D01*
X143751400Y-98958692D01*
X143751400Y-99161308D01*
X143790928Y-99360032D01*
X143868466Y-99547225D01*
X143981034Y-99715694D01*
X144124306Y-99858966D01*
X144292775Y-99971534D01*
X144479968Y-100049072D01*
X144678692Y-100088600D01*
X144881308Y-100088600D01*
X145080032Y-100049072D01*
X145262457Y-99973509D01*
X145999200Y-100710252D01*
X145999200Y-100946677D01*
X145995079Y-100936966D01*
X145842380Y-100712656D01*
X145648854Y-100522446D01*
X145421939Y-100373646D01*
X145170355Y-100271974D01*
X144957800Y-100373309D01*
X144957800Y-101422200D01*
X144977800Y-101422200D01*
X144977800Y-101777800D01*
X144957800Y-101777800D01*
X144957800Y-102826691D01*
X145170355Y-102928026D01*
X145421939Y-102826354D01*
X145648854Y-102677554D01*
X145842380Y-102487344D01*
X145995079Y-102263034D01*
X145999200Y-102253323D01*
X145999201Y-114055493D01*
X145926614Y-114085560D01*
X145840037Y-114143409D01*
X145766409Y-114217037D01*
X145708560Y-114303614D01*
X145668713Y-114399813D01*
X145648400Y-114501937D01*
X145648400Y-114606063D01*
X145668713Y-114708187D01*
X145708560Y-114804386D01*
X145766409Y-114890963D01*
X145840037Y-114964591D01*
X145926614Y-115022440D01*
X146022813Y-115062287D01*
X146124937Y-115082600D01*
X146229063Y-115082600D01*
X146331187Y-115062287D01*
X146427386Y-115022440D01*
X146507199Y-114969111D01*
X146507199Y-115892761D01*
X146507198Y-115892771D01*
X146507198Y-115899918D01*
X146475035Y-115921409D01*
X146401407Y-115995037D01*
X146343558Y-116081614D01*
X146303711Y-116177813D01*
X146283398Y-116279937D01*
X146283398Y-116384063D01*
X146303711Y-116486187D01*
X146343558Y-116582386D01*
X146401407Y-116668963D01*
X146475035Y-116742591D01*
X146561612Y-116800440D01*
X146657811Y-116840287D01*
X146759935Y-116860600D01*
X146864061Y-116860600D01*
X146966185Y-116840287D01*
X147062384Y-116800440D01*
X147148961Y-116742591D01*
X147222589Y-116668963D01*
X147280438Y-116582386D01*
X147320285Y-116486187D01*
X147340598Y-116384063D01*
X147340598Y-116279937D01*
X147320285Y-116177813D01*
X147304623Y-116140000D01*
X150387973Y-116140000D01*
X150390800Y-116516150D01*
X150536850Y-116662200D01*
X151284700Y-116662200D01*
X151284700Y-115701850D01*
X151640300Y-115701850D01*
X151640300Y-116662200D01*
X152388150Y-116662200D01*
X152534200Y-116516150D01*
X152537027Y-116140000D01*
X152525747Y-116025477D01*
X152492342Y-115915354D01*
X152438095Y-115813865D01*
X152365091Y-115724909D01*
X152276135Y-115651905D01*
X152174646Y-115597658D01*
X152064523Y-115564253D01*
X151950000Y-115552973D01*
X151786350Y-115555800D01*
X151640300Y-115701850D01*
X151284700Y-115701850D01*
X151138650Y-115555800D01*
X150975000Y-115552973D01*
X150860477Y-115564253D01*
X150750354Y-115597658D01*
X150648865Y-115651905D01*
X150559909Y-115724909D01*
X150486905Y-115813865D01*
X150432658Y-115915354D01*
X150399253Y-116025477D01*
X150387973Y-116140000D01*
X147304623Y-116140000D01*
X147280438Y-116081614D01*
X147222589Y-115995037D01*
X147148961Y-115921409D01*
X147116798Y-115899918D01*
X147116798Y-115731109D01*
X147196614Y-115784440D01*
X147292813Y-115824287D01*
X147394937Y-115844600D01*
X147499063Y-115844600D01*
X147601187Y-115824287D01*
X147697386Y-115784440D01*
X147783963Y-115726591D01*
X147857591Y-115652963D01*
X147915440Y-115566386D01*
X147955287Y-115470187D01*
X147975600Y-115368063D01*
X147975600Y-115263937D01*
X147955287Y-115161813D01*
X147915440Y-115065614D01*
X147857591Y-114979037D01*
X147783963Y-114905409D01*
X147697386Y-114847560D01*
X147624800Y-114817494D01*
X147624800Y-93994957D01*
X147626273Y-93979999D01*
X147624800Y-93965041D01*
X147624800Y-93965034D01*
X147620389Y-93920249D01*
X147602960Y-93862794D01*
X147574658Y-93809843D01*
X147536568Y-93763432D01*
X147524944Y-93753892D01*
X145693509Y-91922457D01*
X145769072Y-91740032D01*
X145808600Y-91541308D01*
X145808600Y-91338692D01*
X145769072Y-91139968D01*
X145691534Y-90952775D01*
X145578966Y-90784306D01*
X145435694Y-90641034D01*
X145267225Y-90528466D01*
X145080032Y-90450928D01*
X144881308Y-90411400D01*
X144678692Y-90411400D01*
X144479968Y-90450928D01*
X144292775Y-90528466D01*
X144124306Y-90641034D01*
X143981034Y-90784306D01*
X143868466Y-90952775D01*
X143790928Y-91139968D01*
X143751400Y-91338692D01*
X142764988Y-91338692D01*
X142762200Y-91177350D01*
X142616150Y-91031300D01*
X141655800Y-91031300D01*
X141300200Y-91031300D01*
X141280200Y-91031300D01*
X141280200Y-90675700D01*
X141300200Y-90675700D01*
X141300200Y-89927850D01*
X141655800Y-89927850D01*
X141655800Y-90675700D01*
X142616150Y-90675700D01*
X142762200Y-90529650D01*
X142765027Y-90366000D01*
X142753747Y-90251477D01*
X142720342Y-90141354D01*
X142666095Y-90039865D01*
X142593091Y-89950909D01*
X142504135Y-89877905D01*
X142402646Y-89823658D01*
X142292523Y-89790253D01*
X142178000Y-89778973D01*
X141801850Y-89781800D01*
X141655800Y-89927850D01*
X141300200Y-89927850D01*
X141154150Y-89781800D01*
X140778000Y-89778973D01*
X140663477Y-89790253D01*
X140553354Y-89823658D01*
X140451865Y-89877905D01*
X140362909Y-89950909D01*
X140289905Y-90039865D01*
X140258800Y-90098058D01*
X140258800Y-88734750D01*
X140548294Y-88734750D01*
X140548294Y-89222250D01*
X140557391Y-89314617D01*
X140584334Y-89403434D01*
X140628086Y-89485288D01*
X140686966Y-89557034D01*
X140758712Y-89615914D01*
X140840566Y-89659666D01*
X140929383Y-89686609D01*
X141021750Y-89695706D01*
X141934250Y-89695706D01*
X142026617Y-89686609D01*
X142115434Y-89659666D01*
X142197288Y-89615914D01*
X142269034Y-89557034D01*
X142327914Y-89485288D01*
X142371666Y-89403434D01*
X142384994Y-89359500D01*
X143856982Y-89359500D01*
X143868466Y-89387225D01*
X143981034Y-89555694D01*
X144124306Y-89698966D01*
X144292775Y-89811534D01*
X144479968Y-89889072D01*
X144678692Y-89928600D01*
X144881308Y-89928600D01*
X145080032Y-89889072D01*
X145267225Y-89811534D01*
X145435694Y-89698966D01*
X145578966Y-89555694D01*
X145691534Y-89387225D01*
X145735534Y-89281000D01*
X150083186Y-89281000D01*
X153034500Y-92232315D01*
X152959376Y-115932134D01*
X152912566Y-115946334D01*
X152830712Y-115990086D01*
X152758966Y-116048966D01*
X152700086Y-116120712D01*
X152656334Y-116202566D01*
X152629391Y-116291383D01*
X152620294Y-116383750D01*
X152620294Y-117296250D01*
X152629391Y-117388617D01*
X152656334Y-117477434D01*
X152700086Y-117559288D01*
X152758966Y-117631034D01*
X152830712Y-117689914D01*
X152912566Y-117733666D01*
X152956501Y-117746994D01*
X152956500Y-119204685D01*
X152844525Y-119316660D01*
X152714616Y-119262850D01*
X152506233Y-119221400D01*
X152293767Y-119221400D01*
X152085384Y-119262850D01*
X151889091Y-119344157D01*
X151712433Y-119462197D01*
X151562197Y-119612433D01*
X151444157Y-119789091D01*
X151362850Y-119985384D01*
X151321400Y-120193767D01*
X151321400Y-120406233D01*
X151362850Y-120614616D01*
X151444157Y-120810909D01*
X151562197Y-120987567D01*
X151712433Y-121137803D01*
X151889091Y-121255843D01*
X152085384Y-121337150D01*
X152293767Y-121378600D01*
X152506233Y-121378600D01*
X152714616Y-121337150D01*
X152910909Y-121255843D01*
X153087567Y-121137803D01*
X153237803Y-120987567D01*
X153355843Y-120810909D01*
X153437150Y-120614616D01*
X153478600Y-120406233D01*
X153478600Y-120193767D01*
X153861400Y-120193767D01*
X153861400Y-120406233D01*
X153902850Y-120614616D01*
X153984157Y-120810909D01*
X154102197Y-120987567D01*
X154252433Y-121137803D01*
X154429091Y-121255843D01*
X154625384Y-121337150D01*
X154833767Y-121378600D01*
X155046233Y-121378600D01*
X155254616Y-121337150D01*
X155450909Y-121255843D01*
X155627567Y-121137803D01*
X155777803Y-120987567D01*
X155895843Y-120810909D01*
X155905200Y-120788319D01*
X155905200Y-121443748D01*
X155459231Y-121889718D01*
X155450909Y-121884157D01*
X155254616Y-121802850D01*
X155046233Y-121761400D01*
X154833767Y-121761400D01*
X154625384Y-121802850D01*
X154429091Y-121884157D01*
X154252433Y-122002197D01*
X154102197Y-122152433D01*
X153984157Y-122329091D01*
X153902850Y-122525384D01*
X153861400Y-122733767D01*
X153861400Y-122946233D01*
X153902850Y-123154616D01*
X153984157Y-123350909D01*
X154102197Y-123527567D01*
X154252433Y-123677803D01*
X154429091Y-123795843D01*
X154625384Y-123877150D01*
X154833767Y-123918600D01*
X155046233Y-123918600D01*
X155254616Y-123877150D01*
X155450909Y-123795843D01*
X155627567Y-123677803D01*
X155777803Y-123527567D01*
X155895843Y-123350909D01*
X155977150Y-123154616D01*
X156018600Y-122946233D01*
X156018600Y-122733767D01*
X155977150Y-122525384D01*
X155895843Y-122329091D01*
X155890282Y-122320769D01*
X156414945Y-121796107D01*
X156426568Y-121786568D01*
X156464658Y-121740157D01*
X156492960Y-121687206D01*
X156510389Y-121629751D01*
X156514800Y-121584966D01*
X156514800Y-121584959D01*
X156516273Y-121570001D01*
X156514800Y-121555043D01*
X156514800Y-120788319D01*
X156524157Y-120810909D01*
X156642197Y-120987567D01*
X156792433Y-121137803D01*
X156969091Y-121255843D01*
X157165384Y-121337150D01*
X157373767Y-121378600D01*
X157586233Y-121378600D01*
X157794616Y-121337150D01*
X157990909Y-121255843D01*
X158167567Y-121137803D01*
X158317803Y-120987567D01*
X158435843Y-120810909D01*
X158445200Y-120788319D01*
X158445200Y-121443748D01*
X157999231Y-121889718D01*
X157990909Y-121884157D01*
X157794616Y-121802850D01*
X157586233Y-121761400D01*
X157373767Y-121761400D01*
X157165384Y-121802850D01*
X156969091Y-121884157D01*
X156792433Y-122002197D01*
X156642197Y-122152433D01*
X156524157Y-122329091D01*
X156442850Y-122525384D01*
X156401400Y-122733767D01*
X156401400Y-122946233D01*
X156442850Y-123154616D01*
X156524157Y-123350909D01*
X156642197Y-123527567D01*
X156792433Y-123677803D01*
X156969091Y-123795843D01*
X157165384Y-123877150D01*
X157373767Y-123918600D01*
X157586233Y-123918600D01*
X157794616Y-123877150D01*
X157990909Y-123795843D01*
X158167567Y-123677803D01*
X158317803Y-123527567D01*
X158435843Y-123350909D01*
X158517150Y-123154616D01*
X158558600Y-122946233D01*
X158558600Y-122733767D01*
X158517150Y-122525384D01*
X158435843Y-122329091D01*
X158430282Y-122320769D01*
X158954945Y-121796107D01*
X158966568Y-121786568D01*
X159004658Y-121740157D01*
X159032960Y-121687206D01*
X159050389Y-121629751D01*
X159054800Y-121584966D01*
X159054800Y-121584959D01*
X159056273Y-121570001D01*
X159054800Y-121555043D01*
X159054800Y-120788319D01*
X159064157Y-120810909D01*
X159182197Y-120987567D01*
X159332433Y-121137803D01*
X159509091Y-121255843D01*
X159705384Y-121337150D01*
X159913767Y-121378600D01*
X160126233Y-121378600D01*
X160334616Y-121337150D01*
X160530909Y-121255843D01*
X160707567Y-121137803D01*
X160857803Y-120987567D01*
X160975843Y-120810909D01*
X160985201Y-120788319D01*
X160985201Y-121443747D01*
X160539231Y-121889718D01*
X160530909Y-121884157D01*
X160334616Y-121802850D01*
X160126233Y-121761400D01*
X159913767Y-121761400D01*
X159705384Y-121802850D01*
X159509091Y-121884157D01*
X159332433Y-122002197D01*
X159182197Y-122152433D01*
X159064157Y-122329091D01*
X158982850Y-122525384D01*
X158941400Y-122733767D01*
X158941400Y-122946233D01*
X158982850Y-123154616D01*
X159064157Y-123350909D01*
X159182197Y-123527567D01*
X159332433Y-123677803D01*
X159509091Y-123795843D01*
X159705384Y-123877150D01*
X159913767Y-123918600D01*
X160126233Y-123918600D01*
X160334616Y-123877150D01*
X160530909Y-123795843D01*
X160707567Y-123677803D01*
X160857803Y-123527567D01*
X160975843Y-123350909D01*
X161057150Y-123154616D01*
X161098600Y-122946233D01*
X161098600Y-122733767D01*
X161057150Y-122525384D01*
X160975843Y-122329091D01*
X160970282Y-122320769D01*
X161494944Y-121796108D01*
X161506568Y-121786568D01*
X161544658Y-121740157D01*
X161572960Y-121687206D01*
X161590389Y-121629751D01*
X161594800Y-121584966D01*
X161594800Y-121584959D01*
X161596273Y-121570001D01*
X161594800Y-121555043D01*
X161594800Y-120788319D01*
X161604157Y-120810909D01*
X161722197Y-120987567D01*
X161872433Y-121137803D01*
X162049091Y-121255843D01*
X162245384Y-121337150D01*
X162453767Y-121378600D01*
X162666233Y-121378600D01*
X162874616Y-121337150D01*
X163070909Y-121255843D01*
X163247567Y-121137803D01*
X163397803Y-120987567D01*
X163515843Y-120810909D01*
X163525200Y-120788319D01*
X163525200Y-121443748D01*
X163079231Y-121889718D01*
X163070909Y-121884157D01*
X162874616Y-121802850D01*
X162666233Y-121761400D01*
X162453767Y-121761400D01*
X162245384Y-121802850D01*
X162049091Y-121884157D01*
X161872433Y-122002197D01*
X161722197Y-122152433D01*
X161604157Y-122329091D01*
X161522850Y-122525384D01*
X161481400Y-122733767D01*
X161481400Y-122946233D01*
X161522850Y-123154616D01*
X161604157Y-123350909D01*
X161722197Y-123527567D01*
X161872433Y-123677803D01*
X162049091Y-123795843D01*
X162245384Y-123877150D01*
X162453767Y-123918600D01*
X162666233Y-123918600D01*
X162874616Y-123877150D01*
X163070909Y-123795843D01*
X163247567Y-123677803D01*
X163397803Y-123527567D01*
X163515843Y-123350909D01*
X163597150Y-123154616D01*
X163638600Y-122946233D01*
X163638600Y-122733767D01*
X163597150Y-122525384D01*
X163515843Y-122329091D01*
X163510282Y-122320769D01*
X164034945Y-121796107D01*
X164046568Y-121786568D01*
X164084658Y-121740157D01*
X164112960Y-121687206D01*
X164130389Y-121629751D01*
X164134800Y-121584966D01*
X164134800Y-121584959D01*
X164136273Y-121570001D01*
X164134800Y-121555043D01*
X164134800Y-121347632D01*
X164162095Y-121362221D01*
X164205187Y-121375292D01*
X164250000Y-121379706D01*
X165950000Y-121379706D01*
X165994813Y-121375292D01*
X166037905Y-121362221D01*
X166077618Y-121340994D01*
X166111199Y-121313435D01*
X166111199Y-121397749D01*
X165619231Y-121889718D01*
X165610909Y-121884157D01*
X165414616Y-121802850D01*
X165206233Y-121761400D01*
X164993767Y-121761400D01*
X164785384Y-121802850D01*
X164589091Y-121884157D01*
X164412433Y-122002197D01*
X164262197Y-122152433D01*
X164144157Y-122329091D01*
X164062850Y-122525384D01*
X164021400Y-122733767D01*
X164021400Y-122946233D01*
X164062850Y-123154616D01*
X164144157Y-123350909D01*
X164262197Y-123527567D01*
X164412433Y-123677803D01*
X164589091Y-123795843D01*
X164785384Y-123877150D01*
X164993767Y-123918600D01*
X165206233Y-123918600D01*
X165414616Y-123877150D01*
X165610909Y-123795843D01*
X165787567Y-123677803D01*
X165937803Y-123527567D01*
X166055843Y-123350909D01*
X166137150Y-123154616D01*
X166178600Y-122946233D01*
X166178600Y-122733767D01*
X166137150Y-122525384D01*
X166055843Y-122329091D01*
X166050282Y-122320769D01*
X166620944Y-121750108D01*
X166632567Y-121740569D01*
X166670657Y-121694158D01*
X166698959Y-121641207D01*
X166716388Y-121583752D01*
X166720799Y-121538967D01*
X166720799Y-121538959D01*
X166722272Y-121524001D01*
X166720799Y-121509043D01*
X166720799Y-119186957D01*
X166722272Y-119171999D01*
X166720799Y-119157041D01*
X166720799Y-119157033D01*
X166716388Y-119112248D01*
X166712313Y-119098813D01*
X166698959Y-119054793D01*
X166693285Y-119044178D01*
X166670657Y-119001842D01*
X166632567Y-118955431D01*
X166620943Y-118945891D01*
X166166800Y-118491749D01*
X166166800Y-116256082D01*
X166198963Y-116234591D01*
X166272591Y-116160963D01*
X166330440Y-116074386D01*
X166370287Y-115978187D01*
X166390600Y-115876063D01*
X166390600Y-115771937D01*
X166370287Y-115669813D01*
X166330440Y-115573614D01*
X166272591Y-115487037D01*
X166198963Y-115413409D01*
X166112386Y-115355560D01*
X166032558Y-115322494D01*
X166574944Y-114780108D01*
X166586568Y-114770568D01*
X166624658Y-114724157D01*
X166652960Y-114671206D01*
X166670389Y-114613751D01*
X166674800Y-114568966D01*
X166674800Y-114568959D01*
X166676273Y-114554001D01*
X166674800Y-114539043D01*
X166674800Y-83961957D01*
X166676273Y-83946999D01*
X166674800Y-83932041D01*
X166674800Y-83932034D01*
X166670389Y-83887249D01*
X166668115Y-83879751D01*
X166652960Y-83829794D01*
X166641655Y-83808643D01*
X166624658Y-83776843D01*
X166586568Y-83730432D01*
X166574945Y-83720893D01*
X161389112Y-78535061D01*
X161379568Y-78523432D01*
X161333157Y-78485342D01*
X161280206Y-78457040D01*
X161222751Y-78439611D01*
X161177966Y-78435200D01*
X161177958Y-78435200D01*
X161163000Y-78433727D01*
X161148042Y-78435200D01*
X161007097Y-78435200D01*
X160931534Y-78252775D01*
X160818966Y-78084306D01*
X160675694Y-77941034D01*
X160507225Y-77828466D01*
X160320032Y-77750928D01*
X160121308Y-77711400D01*
X159918692Y-77711400D01*
X159719968Y-77750928D01*
X159532775Y-77828466D01*
X159364306Y-77941034D01*
X159221034Y-78084306D01*
X159108466Y-78252775D01*
X159030928Y-78439968D01*
X158991400Y-78638692D01*
X158991400Y-78841308D01*
X159030928Y-79040032D01*
X159108466Y-79227225D01*
X159221034Y-79395694D01*
X159364306Y-79538966D01*
X159532775Y-79651534D01*
X159719968Y-79729072D01*
X159918692Y-79768600D01*
X160121308Y-79768600D01*
X160320032Y-79729072D01*
X160507225Y-79651534D01*
X160675694Y-79538966D01*
X160818966Y-79395694D01*
X160931534Y-79227225D01*
X161007097Y-79044800D01*
X161036749Y-79044800D01*
X166065200Y-84073252D01*
X166065200Y-85116148D01*
X162024112Y-81075061D01*
X162014568Y-81063432D01*
X161968157Y-81025342D01*
X161915206Y-80997040D01*
X161857751Y-80979611D01*
X161812966Y-80975200D01*
X161812958Y-80975200D01*
X161798000Y-80973727D01*
X161783042Y-80975200D01*
X161007097Y-80975200D01*
X160931534Y-80792775D01*
X160818966Y-80624306D01*
X160675694Y-80481034D01*
X160507225Y-80368466D01*
X160320032Y-80290928D01*
X160121308Y-80251400D01*
X159918692Y-80251400D01*
X159719968Y-80290928D01*
X159532775Y-80368466D01*
X159364306Y-80481034D01*
X159221034Y-80624306D01*
X159108466Y-80792775D01*
X159030928Y-80979968D01*
X158991400Y-81178692D01*
X158991400Y-81381308D01*
X159030928Y-81580032D01*
X159108466Y-81767225D01*
X159221034Y-81935694D01*
X159364306Y-82078966D01*
X159532775Y-82191534D01*
X159719968Y-82269072D01*
X159918692Y-82308600D01*
X160121308Y-82308600D01*
X160320032Y-82269072D01*
X160507225Y-82191534D01*
X160675694Y-82078966D01*
X160818966Y-81935694D01*
X160931534Y-81767225D01*
X161007097Y-81584800D01*
X161671749Y-81584800D01*
X165557200Y-85470252D01*
X165557200Y-86386148D01*
X162786112Y-83615061D01*
X162776568Y-83603432D01*
X162730157Y-83565342D01*
X162677206Y-83537040D01*
X162619751Y-83519611D01*
X162574966Y-83515200D01*
X162574958Y-83515200D01*
X162560000Y-83513727D01*
X162545042Y-83515200D01*
X161007097Y-83515200D01*
X160931534Y-83332775D01*
X160818966Y-83164306D01*
X160675694Y-83021034D01*
X160507225Y-82908466D01*
X160320032Y-82830928D01*
X160121308Y-82791400D01*
X159918692Y-82791400D01*
X159719968Y-82830928D01*
X159532775Y-82908466D01*
X159364306Y-83021034D01*
X159221034Y-83164306D01*
X159108466Y-83332775D01*
X159030928Y-83519968D01*
X158991400Y-83718692D01*
X158991400Y-83921308D01*
X159030928Y-84120032D01*
X159108466Y-84307225D01*
X159221034Y-84475694D01*
X159364306Y-84618966D01*
X159532775Y-84731534D01*
X159719968Y-84809072D01*
X159918692Y-84848600D01*
X160121308Y-84848600D01*
X160320032Y-84809072D01*
X160507225Y-84731534D01*
X160675694Y-84618966D01*
X160818966Y-84475694D01*
X160931534Y-84307225D01*
X161007097Y-84124800D01*
X162433749Y-84124800D01*
X165049200Y-86740252D01*
X165049200Y-87656148D01*
X163548112Y-86155061D01*
X163538568Y-86143432D01*
X163492157Y-86105342D01*
X163439206Y-86077040D01*
X163381751Y-86059611D01*
X163336966Y-86055200D01*
X163336958Y-86055200D01*
X163322000Y-86053727D01*
X163307042Y-86055200D01*
X161007097Y-86055200D01*
X160931534Y-85872775D01*
X160818966Y-85704306D01*
X160675694Y-85561034D01*
X160507225Y-85448466D01*
X160320032Y-85370928D01*
X160121308Y-85331400D01*
X159918692Y-85331400D01*
X159719968Y-85370928D01*
X159532775Y-85448466D01*
X159364306Y-85561034D01*
X159221034Y-85704306D01*
X159108466Y-85872775D01*
X159030928Y-86059968D01*
X158991400Y-86258692D01*
X158991400Y-86461308D01*
X159030928Y-86660032D01*
X159108466Y-86847225D01*
X159221034Y-87015694D01*
X159364306Y-87158966D01*
X159532775Y-87271534D01*
X159719968Y-87349072D01*
X159918692Y-87388600D01*
X160121308Y-87388600D01*
X160320032Y-87349072D01*
X160507225Y-87271534D01*
X160675694Y-87158966D01*
X160818966Y-87015694D01*
X160931534Y-86847225D01*
X161007097Y-86664800D01*
X163195749Y-86664800D01*
X164541200Y-88010252D01*
X164541200Y-91271059D01*
X164510095Y-91212865D01*
X164437091Y-91123909D01*
X164348135Y-91050905D01*
X164246646Y-90996658D01*
X164136523Y-90963253D01*
X164022000Y-90951973D01*
X163645850Y-90954800D01*
X163499800Y-91100850D01*
X163499800Y-91848700D01*
X163519800Y-91848700D01*
X163519800Y-92204300D01*
X163499800Y-92204300D01*
X163499800Y-92952150D01*
X163645850Y-93098200D01*
X164022000Y-93101027D01*
X164136523Y-93089747D01*
X164246646Y-93056342D01*
X164348135Y-93002095D01*
X164437091Y-92929091D01*
X164510095Y-92840135D01*
X164541200Y-92781941D01*
X164541201Y-102719559D01*
X164510095Y-102661365D01*
X164437091Y-102572409D01*
X164348135Y-102499405D01*
X164246646Y-102445158D01*
X164136523Y-102411753D01*
X164022000Y-102400473D01*
X163645850Y-102403300D01*
X163499800Y-102549350D01*
X163499800Y-103297200D01*
X163519800Y-103297200D01*
X163519800Y-103652800D01*
X163499800Y-103652800D01*
X163499800Y-104400650D01*
X163645850Y-104546700D01*
X164022000Y-104549527D01*
X164136523Y-104538247D01*
X164246646Y-104504842D01*
X164348135Y-104450595D01*
X164437091Y-104377591D01*
X164510095Y-104288635D01*
X164541201Y-104230440D01*
X164541201Y-108229647D01*
X164533958Y-108220822D01*
X164522335Y-108211283D01*
X160933509Y-104622458D01*
X161009072Y-104440032D01*
X161048600Y-104241308D01*
X161048600Y-104038692D01*
X161033445Y-103962500D01*
X162034973Y-103962500D01*
X162046253Y-104077023D01*
X162079658Y-104187146D01*
X162133905Y-104288635D01*
X162206909Y-104377591D01*
X162295865Y-104450595D01*
X162397354Y-104504842D01*
X162507477Y-104538247D01*
X162622000Y-104549527D01*
X162998150Y-104546700D01*
X163144200Y-104400650D01*
X163144200Y-103652800D01*
X162183850Y-103652800D01*
X162037800Y-103798850D01*
X162034973Y-103962500D01*
X161033445Y-103962500D01*
X161009072Y-103839968D01*
X160931534Y-103652775D01*
X160818966Y-103484306D01*
X160675694Y-103341034D01*
X160507225Y-103228466D01*
X160320032Y-103150928D01*
X160121308Y-103111400D01*
X159918692Y-103111400D01*
X159719968Y-103150928D01*
X159532775Y-103228466D01*
X159364306Y-103341034D01*
X159221034Y-103484306D01*
X159108466Y-103652775D01*
X159030928Y-103839968D01*
X158991400Y-104038692D01*
X158991400Y-104241308D01*
X159030928Y-104440032D01*
X159108466Y-104627225D01*
X159221034Y-104795694D01*
X159364306Y-104938966D01*
X159532775Y-105051534D01*
X159719968Y-105129072D01*
X159918692Y-105168600D01*
X160121308Y-105168600D01*
X160320032Y-105129072D01*
X160502458Y-105053509D01*
X164012590Y-108563642D01*
X164012591Y-112844761D01*
X164012590Y-112844771D01*
X164012590Y-112851918D01*
X164007800Y-112855119D01*
X164007800Y-110377958D01*
X164009273Y-110363000D01*
X164007800Y-110348042D01*
X164007800Y-110348034D01*
X164003389Y-110303249D01*
X163985960Y-110245794D01*
X163957658Y-110192843D01*
X163943798Y-110175955D01*
X163929109Y-110158056D01*
X163929103Y-110158050D01*
X163919568Y-110146432D01*
X163907951Y-110136898D01*
X160933509Y-107162457D01*
X161009072Y-106980032D01*
X161048600Y-106781308D01*
X161048600Y-106578692D01*
X161009072Y-106379968D01*
X160931534Y-106192775D01*
X160818966Y-106024306D01*
X160675694Y-105881034D01*
X160507225Y-105768466D01*
X160320032Y-105690928D01*
X160121308Y-105651400D01*
X159918692Y-105651400D01*
X159719968Y-105690928D01*
X159532775Y-105768466D01*
X159364306Y-105881034D01*
X159221034Y-106024306D01*
X159108466Y-106192775D01*
X159030928Y-106379968D01*
X158991400Y-106578692D01*
X158991400Y-106781308D01*
X159030928Y-106980032D01*
X159108466Y-107167225D01*
X159221034Y-107335694D01*
X159364306Y-107478966D01*
X159532775Y-107591534D01*
X159719968Y-107669072D01*
X159918692Y-107708600D01*
X160121308Y-107708600D01*
X160320032Y-107669072D01*
X160502457Y-107593509D01*
X163398200Y-110489253D01*
X163398201Y-113479761D01*
X163398200Y-113479771D01*
X163398200Y-113486918D01*
X163372800Y-113503890D01*
X163372800Y-112282958D01*
X163374273Y-112268000D01*
X163372800Y-112253042D01*
X163372800Y-112253034D01*
X163368389Y-112208249D01*
X163350960Y-112150794D01*
X163322658Y-112097843D01*
X163284568Y-112051432D01*
X163272945Y-112041893D01*
X160933509Y-109702458D01*
X161009072Y-109520032D01*
X161048600Y-109321308D01*
X161048600Y-109118692D01*
X161009072Y-108919968D01*
X160931534Y-108732775D01*
X160818966Y-108564306D01*
X160675694Y-108421034D01*
X160507225Y-108308466D01*
X160320032Y-108230928D01*
X160121308Y-108191400D01*
X159918692Y-108191400D01*
X159719968Y-108230928D01*
X159532775Y-108308466D01*
X159364306Y-108421034D01*
X159221034Y-108564306D01*
X159108466Y-108732775D01*
X159030928Y-108919968D01*
X158991400Y-109118692D01*
X158991400Y-109321308D01*
X159030928Y-109520032D01*
X159108466Y-109707225D01*
X159221034Y-109875694D01*
X159364306Y-110018966D01*
X159532775Y-110131534D01*
X159719968Y-110209072D01*
X159918692Y-110248600D01*
X160121308Y-110248600D01*
X160320032Y-110209072D01*
X160502458Y-110133509D01*
X162763200Y-112394252D01*
X162763201Y-114121918D01*
X162736031Y-114140072D01*
X162733389Y-114113249D01*
X162732452Y-114110158D01*
X162726081Y-114089157D01*
X162715960Y-114055794D01*
X162687658Y-114002843D01*
X162649568Y-113956432D01*
X162637945Y-113946893D01*
X160933509Y-112242457D01*
X161009072Y-112060032D01*
X161048600Y-111861308D01*
X161048600Y-111658692D01*
X161009072Y-111459968D01*
X160931534Y-111272775D01*
X160818966Y-111104306D01*
X160675694Y-110961034D01*
X160507225Y-110848466D01*
X160320032Y-110770928D01*
X160121308Y-110731400D01*
X159918692Y-110731400D01*
X159719968Y-110770928D01*
X159532775Y-110848466D01*
X159364306Y-110961034D01*
X159221034Y-111104306D01*
X159108466Y-111272775D01*
X159030928Y-111459968D01*
X158991400Y-111658692D01*
X158991400Y-111861308D01*
X159030928Y-112060032D01*
X159108466Y-112247225D01*
X159221034Y-112415694D01*
X159364306Y-112558966D01*
X159532775Y-112671534D01*
X159719968Y-112749072D01*
X159918692Y-112788600D01*
X160121308Y-112788600D01*
X160320032Y-112749072D01*
X160502457Y-112673509D01*
X162128200Y-114299252D01*
X162128201Y-114756918D01*
X162096037Y-114778409D01*
X162022409Y-114852037D01*
X161964560Y-114938614D01*
X161924713Y-115034813D01*
X161904400Y-115136937D01*
X161904400Y-115241063D01*
X161924713Y-115343187D01*
X161964560Y-115439386D01*
X162022409Y-115525963D01*
X162096037Y-115599591D01*
X162182614Y-115657440D01*
X162278813Y-115697287D01*
X162380937Y-115717600D01*
X162485063Y-115717600D01*
X162569679Y-115700769D01*
X161989249Y-116281200D01*
X159145958Y-116281200D01*
X159131000Y-116279727D01*
X159116042Y-116281200D01*
X159116034Y-116281200D01*
X159071249Y-116285611D01*
X159013794Y-116303040D01*
X158960843Y-116331342D01*
X158914432Y-116369432D01*
X158904892Y-116381056D01*
X157275061Y-118010888D01*
X157263432Y-118020432D01*
X157225342Y-118066844D01*
X157202122Y-118110287D01*
X157197040Y-118119795D01*
X157179611Y-118177249D01*
X157179055Y-118182890D01*
X157175200Y-118222035D01*
X157175200Y-118222038D01*
X157173727Y-118237000D01*
X157175200Y-118251958D01*
X157175201Y-119082944D01*
X157175200Y-119082954D01*
X157175200Y-119260897D01*
X157165384Y-119262850D01*
X156969091Y-119344157D01*
X156792433Y-119462197D01*
X156642197Y-119612433D01*
X156524157Y-119789091D01*
X156514800Y-119811681D01*
X156514800Y-119685082D01*
X156546963Y-119663591D01*
X156620591Y-119589963D01*
X156678440Y-119503386D01*
X156718287Y-119407187D01*
X156738600Y-119305063D01*
X156738600Y-119200937D01*
X156718287Y-119098813D01*
X156678440Y-119002614D01*
X156620591Y-118916037D01*
X156546963Y-118842409D01*
X156514800Y-118820918D01*
X156514800Y-118490251D01*
X158700945Y-116304107D01*
X158712568Y-116294568D01*
X158750658Y-116248157D01*
X158778960Y-116195206D01*
X158796389Y-116137751D01*
X158800800Y-116092966D01*
X158800800Y-116092959D01*
X158802273Y-116078001D01*
X158800800Y-116063043D01*
X158800800Y-102987500D01*
X162034973Y-102987500D01*
X162037800Y-103151150D01*
X162183850Y-103297200D01*
X163144200Y-103297200D01*
X163144200Y-102549350D01*
X162998150Y-102403300D01*
X162622000Y-102400473D01*
X162507477Y-102411753D01*
X162397354Y-102445158D01*
X162295865Y-102499405D01*
X162206909Y-102572409D01*
X162133905Y-102661365D01*
X162079658Y-102762854D01*
X162046253Y-102872977D01*
X162034973Y-102987500D01*
X158800800Y-102987500D01*
X158800800Y-100710251D01*
X159537543Y-99973509D01*
X159719968Y-100049072D01*
X159918692Y-100088600D01*
X160121308Y-100088600D01*
X160320032Y-100049072D01*
X160507225Y-99971534D01*
X160675694Y-99858966D01*
X160818966Y-99715694D01*
X160931534Y-99547225D01*
X161009072Y-99360032D01*
X161048600Y-99161308D01*
X161048600Y-98958692D01*
X161009072Y-98759968D01*
X160931534Y-98572775D01*
X160818966Y-98404306D01*
X160675694Y-98261034D01*
X160507225Y-98148466D01*
X160320032Y-98070928D01*
X160121308Y-98031400D01*
X159918692Y-98031400D01*
X159719968Y-98070928D01*
X159532775Y-98148466D01*
X159364306Y-98261034D01*
X159221034Y-98404306D01*
X159108466Y-98572775D01*
X159030928Y-98759968D01*
X158991400Y-98958692D01*
X158991400Y-99161308D01*
X159030928Y-99360032D01*
X159106491Y-99542457D01*
X158291057Y-100357892D01*
X158279433Y-100367432D01*
X158241343Y-100413843D01*
X158226215Y-100442146D01*
X158213040Y-100466795D01*
X158195611Y-100524249D01*
X158189727Y-100584000D01*
X158191201Y-100598968D01*
X158191200Y-115951748D01*
X156005057Y-118137892D01*
X155993433Y-118147432D01*
X155955343Y-118193843D01*
X155952501Y-118199161D01*
X155927040Y-118246795D01*
X155909611Y-118304249D01*
X155903727Y-118364000D01*
X155905201Y-118378968D01*
X155905200Y-118820918D01*
X155873037Y-118842409D01*
X155799409Y-118916037D01*
X155741560Y-119002614D01*
X155701713Y-119098813D01*
X155681400Y-119200937D01*
X155681400Y-119305063D01*
X155701713Y-119407187D01*
X155741560Y-119503386D01*
X155799409Y-119589963D01*
X155873037Y-119663591D01*
X155905201Y-119685082D01*
X155905201Y-119811681D01*
X155895843Y-119789091D01*
X155777803Y-119612433D01*
X155627567Y-119462197D01*
X155450909Y-119344157D01*
X155254616Y-119262850D01*
X155046233Y-119221400D01*
X154833767Y-119221400D01*
X154625384Y-119262850D01*
X154429091Y-119344157D01*
X154252433Y-119462197D01*
X154102197Y-119612433D01*
X153984157Y-119789091D01*
X153902850Y-119985384D01*
X153861400Y-120193767D01*
X153478600Y-120193767D01*
X153437150Y-119985384D01*
X153383340Y-119855475D01*
X153593675Y-119645140D01*
X153608211Y-119633211D01*
X153631750Y-119604528D01*
X153655822Y-119575197D01*
X153691201Y-119509008D01*
X153692906Y-119503386D01*
X153712987Y-119437189D01*
X153718500Y-119381213D01*
X153718500Y-119381211D01*
X153720343Y-119362501D01*
X153718500Y-119343791D01*
X153718500Y-117746994D01*
X153762434Y-117733666D01*
X153844288Y-117689914D01*
X153916034Y-117631034D01*
X153974914Y-117559288D01*
X154018666Y-117477434D01*
X154045609Y-117388617D01*
X154054706Y-117296250D01*
X154054706Y-116383750D01*
X154045609Y-116291383D01*
X154018666Y-116202566D01*
X153974914Y-116120712D01*
X153916034Y-116048966D01*
X153844288Y-115990086D01*
X153762434Y-115946334D01*
X153721373Y-115933878D01*
X153783232Y-96418692D01*
X158991400Y-96418692D01*
X158991400Y-96621308D01*
X159030928Y-96820032D01*
X159108466Y-97007225D01*
X159221034Y-97175694D01*
X159364306Y-97318966D01*
X159532775Y-97431534D01*
X159719968Y-97509072D01*
X159918692Y-97548600D01*
X160121308Y-97548600D01*
X160320032Y-97509072D01*
X160507225Y-97431534D01*
X160675694Y-97318966D01*
X160818966Y-97175694D01*
X160931534Y-97007225D01*
X161009072Y-96820032D01*
X161048600Y-96621308D01*
X161048600Y-96418692D01*
X161009072Y-96219968D01*
X160931534Y-96032775D01*
X160818966Y-95864306D01*
X160675694Y-95721034D01*
X160507225Y-95608466D01*
X160320032Y-95530928D01*
X160121308Y-95491400D01*
X159918692Y-95491400D01*
X159719968Y-95530928D01*
X159532775Y-95608466D01*
X159364306Y-95721034D01*
X159221034Y-95864306D01*
X159108466Y-96032775D01*
X159030928Y-96219968D01*
X158991400Y-96418692D01*
X153783232Y-96418692D01*
X153794095Y-92991909D01*
X155038359Y-94236174D01*
X155050289Y-94250711D01*
X155078972Y-94274250D01*
X155108303Y-94298322D01*
X155174492Y-94333701D01*
X155246311Y-94355487D01*
X155302287Y-94361000D01*
X155302290Y-94361000D01*
X155321000Y-94362843D01*
X155339710Y-94361000D01*
X159064466Y-94361000D01*
X159108466Y-94467225D01*
X159221034Y-94635694D01*
X159364306Y-94778966D01*
X159532775Y-94891534D01*
X159719968Y-94969072D01*
X159918692Y-95008600D01*
X160121308Y-95008600D01*
X160320032Y-94969072D01*
X160507225Y-94891534D01*
X160675694Y-94778966D01*
X160818966Y-94635694D01*
X160931534Y-94467225D01*
X160975534Y-94361000D01*
X162446810Y-94361000D01*
X162472086Y-94408288D01*
X162530966Y-94480034D01*
X162602712Y-94538914D01*
X162684566Y-94582666D01*
X162773383Y-94609609D01*
X162865750Y-94618706D01*
X162941001Y-94618706D01*
X162941000Y-100882794D01*
X162865750Y-100882794D01*
X162773383Y-100891891D01*
X162684566Y-100918834D01*
X162602712Y-100962586D01*
X162530966Y-101021466D01*
X162472086Y-101093212D01*
X162428334Y-101175066D01*
X162415006Y-101219000D01*
X160975534Y-101219000D01*
X160931534Y-101112775D01*
X160818966Y-100944306D01*
X160675694Y-100801034D01*
X160507225Y-100688466D01*
X160320032Y-100610928D01*
X160121308Y-100571400D01*
X159918692Y-100571400D01*
X159719968Y-100610928D01*
X159532775Y-100688466D01*
X159364306Y-100801034D01*
X159221034Y-100944306D01*
X159108466Y-101112775D01*
X159030928Y-101299968D01*
X158991400Y-101498692D01*
X158991400Y-101701308D01*
X159030928Y-101900032D01*
X159108466Y-102087225D01*
X159221034Y-102255694D01*
X159364306Y-102398966D01*
X159532775Y-102511534D01*
X159719968Y-102589072D01*
X159918692Y-102628600D01*
X160121308Y-102628600D01*
X160320032Y-102589072D01*
X160507225Y-102511534D01*
X160675694Y-102398966D01*
X160818966Y-102255694D01*
X160931534Y-102087225D01*
X160975534Y-101981000D01*
X162415006Y-101981000D01*
X162428334Y-102024934D01*
X162472086Y-102106788D01*
X162530966Y-102178534D01*
X162602712Y-102237414D01*
X162684566Y-102281166D01*
X162773383Y-102308109D01*
X162865750Y-102317206D01*
X163778250Y-102317206D01*
X163870617Y-102308109D01*
X163959434Y-102281166D01*
X164041288Y-102237414D01*
X164113034Y-102178534D01*
X164171914Y-102106788D01*
X164215666Y-102024934D01*
X164242609Y-101936117D01*
X164251706Y-101843750D01*
X164251706Y-101356250D01*
X164242609Y-101263883D01*
X164215666Y-101175066D01*
X164171914Y-101093212D01*
X164113034Y-101021466D01*
X164041288Y-100962586D01*
X163959434Y-100918834D01*
X163870617Y-100891891D01*
X163778250Y-100882794D01*
X163703000Y-100882794D01*
X163703000Y-94618706D01*
X163778250Y-94618706D01*
X163870617Y-94609609D01*
X163959434Y-94582666D01*
X164041288Y-94538914D01*
X164113034Y-94480034D01*
X164171914Y-94408288D01*
X164215666Y-94326434D01*
X164242609Y-94237617D01*
X164251706Y-94145250D01*
X164251706Y-93657750D01*
X164242609Y-93565383D01*
X164215666Y-93476566D01*
X164171914Y-93394712D01*
X164113034Y-93322966D01*
X164041288Y-93264086D01*
X163959434Y-93220334D01*
X163870617Y-93193391D01*
X163778250Y-93184294D01*
X162865750Y-93184294D01*
X162773383Y-93193391D01*
X162684566Y-93220334D01*
X162602712Y-93264086D01*
X162530966Y-93322966D01*
X162472086Y-93394712D01*
X162428334Y-93476566D01*
X162401391Y-93565383D01*
X162398080Y-93599000D01*
X160975534Y-93599000D01*
X160931534Y-93492775D01*
X160818966Y-93324306D01*
X160675694Y-93181034D01*
X160507225Y-93068466D01*
X160320032Y-92990928D01*
X160121308Y-92951400D01*
X159918692Y-92951400D01*
X159719968Y-92990928D01*
X159532775Y-93068466D01*
X159364306Y-93181034D01*
X159221034Y-93324306D01*
X159108466Y-93492775D01*
X159064466Y-93599000D01*
X155478815Y-93599000D01*
X153710169Y-91830354D01*
X158691982Y-91830354D01*
X158698917Y-91853244D01*
X158804921Y-92103034D01*
X158957620Y-92327344D01*
X159151146Y-92517554D01*
X159378061Y-92666354D01*
X159629645Y-92768026D01*
X159842200Y-92666691D01*
X159842200Y-91617800D01*
X160197800Y-91617800D01*
X160197800Y-92666691D01*
X160410355Y-92768026D01*
X160661939Y-92666354D01*
X160888854Y-92517554D01*
X160892469Y-92514000D01*
X162034973Y-92514000D01*
X162046253Y-92628523D01*
X162079658Y-92738646D01*
X162133905Y-92840135D01*
X162206909Y-92929091D01*
X162295865Y-93002095D01*
X162397354Y-93056342D01*
X162507477Y-93089747D01*
X162622000Y-93101027D01*
X162998150Y-93098200D01*
X163144200Y-92952150D01*
X163144200Y-92204300D01*
X162183850Y-92204300D01*
X162037800Y-92350350D01*
X162034973Y-92514000D01*
X160892469Y-92514000D01*
X161082380Y-92327344D01*
X161235079Y-92103034D01*
X161341083Y-91853244D01*
X161348018Y-91830354D01*
X161245317Y-91617800D01*
X160197800Y-91617800D01*
X159842200Y-91617800D01*
X158794683Y-91617800D01*
X158691982Y-91830354D01*
X153710169Y-91830354D01*
X153699067Y-91819253D01*
X153687567Y-91805149D01*
X153672610Y-91792795D01*
X153418815Y-91539000D01*
X162034973Y-91539000D01*
X162037800Y-91702650D01*
X162183850Y-91848700D01*
X163144200Y-91848700D01*
X163144200Y-91100850D01*
X162998150Y-90954800D01*
X162622000Y-90951973D01*
X162507477Y-90963253D01*
X162397354Y-90996658D01*
X162295865Y-91050905D01*
X162206909Y-91123909D01*
X162133905Y-91212865D01*
X162079658Y-91314354D01*
X162046253Y-91424477D01*
X162034973Y-91539000D01*
X153418815Y-91539000D01*
X151170169Y-89290354D01*
X158691982Y-89290354D01*
X158698917Y-89313244D01*
X158804921Y-89563034D01*
X158957620Y-89787344D01*
X159151146Y-89977554D01*
X159378061Y-90126354D01*
X159486062Y-90170000D01*
X159378061Y-90213646D01*
X159151146Y-90362446D01*
X158957620Y-90552656D01*
X158804921Y-90776966D01*
X158698917Y-91026756D01*
X158691982Y-91049646D01*
X158794683Y-91262200D01*
X159842200Y-91262200D01*
X159842200Y-90213309D01*
X159751357Y-90170000D01*
X159842200Y-90126691D01*
X159842200Y-89077800D01*
X160197800Y-89077800D01*
X160197800Y-90126691D01*
X160288643Y-90170000D01*
X160197800Y-90213309D01*
X160197800Y-91262200D01*
X161245317Y-91262200D01*
X161348018Y-91049646D01*
X161341083Y-91026756D01*
X161235079Y-90776966D01*
X161082380Y-90552656D01*
X160888854Y-90362446D01*
X160661939Y-90213646D01*
X160553938Y-90170000D01*
X160661939Y-90126354D01*
X160888854Y-89977554D01*
X161082380Y-89787344D01*
X161235079Y-89563034D01*
X161341083Y-89313244D01*
X161348018Y-89290354D01*
X161245317Y-89077800D01*
X160197800Y-89077800D01*
X159842200Y-89077800D01*
X158794683Y-89077800D01*
X158691982Y-89290354D01*
X151170169Y-89290354D01*
X150523646Y-88643832D01*
X150511711Y-88629289D01*
X150453696Y-88581678D01*
X150387508Y-88546299D01*
X150315689Y-88524513D01*
X150259713Y-88519000D01*
X150259710Y-88519000D01*
X150241000Y-88517157D01*
X150222290Y-88519000D01*
X145735534Y-88519000D01*
X145731660Y-88509646D01*
X158691982Y-88509646D01*
X158794683Y-88722200D01*
X159842200Y-88722200D01*
X159842200Y-87673309D01*
X160197800Y-87673309D01*
X160197800Y-88722200D01*
X161245317Y-88722200D01*
X161348018Y-88509646D01*
X161341083Y-88486756D01*
X161235079Y-88236966D01*
X161082380Y-88012656D01*
X160888854Y-87822446D01*
X160661939Y-87673646D01*
X160410355Y-87571974D01*
X160197800Y-87673309D01*
X159842200Y-87673309D01*
X159629645Y-87571974D01*
X159378061Y-87673646D01*
X159151146Y-87822446D01*
X158957620Y-88012656D01*
X158804921Y-88236966D01*
X158698917Y-88486756D01*
X158691982Y-88509646D01*
X145731660Y-88509646D01*
X145691534Y-88412775D01*
X145578966Y-88244306D01*
X145435694Y-88101034D01*
X145267225Y-87988466D01*
X145080032Y-87910928D01*
X144881308Y-87871400D01*
X144678692Y-87871400D01*
X144479968Y-87910928D01*
X144292775Y-87988466D01*
X144124306Y-88101034D01*
X143981034Y-88244306D01*
X143868466Y-88412775D01*
X143791950Y-88597500D01*
X142384994Y-88597500D01*
X142371666Y-88553566D01*
X142327914Y-88471712D01*
X142269034Y-88399966D01*
X142197288Y-88341086D01*
X142115434Y-88297334D01*
X142026617Y-88270391D01*
X141934250Y-88261294D01*
X141021750Y-88261294D01*
X140929383Y-88270391D01*
X140840566Y-88297334D01*
X140758712Y-88341086D01*
X140686966Y-88399966D01*
X140628086Y-88471712D01*
X140584334Y-88553566D01*
X140557391Y-88642383D01*
X140548294Y-88734750D01*
X140258800Y-88734750D01*
X140258800Y-88073751D01*
X141667752Y-86664800D01*
X143792903Y-86664800D01*
X143868466Y-86847225D01*
X143981034Y-87015694D01*
X144124306Y-87158966D01*
X144292775Y-87271534D01*
X144479968Y-87349072D01*
X144678692Y-87388600D01*
X144881308Y-87388600D01*
X145080032Y-87349072D01*
X145267225Y-87271534D01*
X145435694Y-87158966D01*
X145578966Y-87015694D01*
X145691534Y-86847225D01*
X145769072Y-86660032D01*
X145808600Y-86461308D01*
X145808600Y-86258692D01*
X145769072Y-86059968D01*
X145691534Y-85872775D01*
X145578966Y-85704306D01*
X145435694Y-85561034D01*
X145267225Y-85448466D01*
X145080032Y-85370928D01*
X144881308Y-85331400D01*
X144678692Y-85331400D01*
X144479968Y-85370928D01*
X144292775Y-85448466D01*
X144124306Y-85561034D01*
X143981034Y-85704306D01*
X143868466Y-85872775D01*
X143792903Y-86055200D01*
X141556457Y-86055200D01*
X141541499Y-86053727D01*
X141526541Y-86055200D01*
X141526534Y-86055200D01*
X141487389Y-86059055D01*
X141481748Y-86059611D01*
X141424294Y-86077040D01*
X141371343Y-86105342D01*
X141324932Y-86143432D01*
X141315392Y-86155056D01*
X139750800Y-87719649D01*
X139750800Y-86740251D01*
X142366252Y-84124800D01*
X143792903Y-84124800D01*
X143868466Y-84307225D01*
X143981034Y-84475694D01*
X144124306Y-84618966D01*
X144292775Y-84731534D01*
X144479968Y-84809072D01*
X144678692Y-84848600D01*
X144881308Y-84848600D01*
X145080032Y-84809072D01*
X145267225Y-84731534D01*
X145435694Y-84618966D01*
X145578966Y-84475694D01*
X145691534Y-84307225D01*
X145769072Y-84120032D01*
X145808600Y-83921308D01*
X145808600Y-83718692D01*
X145769072Y-83519968D01*
X145691534Y-83332775D01*
X145578966Y-83164306D01*
X145435694Y-83021034D01*
X145267225Y-82908466D01*
X145080032Y-82830928D01*
X144881308Y-82791400D01*
X144678692Y-82791400D01*
X144479968Y-82830928D01*
X144292775Y-82908466D01*
X144124306Y-83021034D01*
X143981034Y-83164306D01*
X143868466Y-83332775D01*
X143792903Y-83515200D01*
X142254958Y-83515200D01*
X142240000Y-83513727D01*
X142225042Y-83515200D01*
X142225034Y-83515200D01*
X142185403Y-83519103D01*
X142180248Y-83519611D01*
X142122794Y-83537040D01*
X142069843Y-83565342D01*
X142023432Y-83603432D01*
X142013892Y-83615056D01*
X139242800Y-86386149D01*
X139242800Y-85438501D01*
X143096502Y-81584800D01*
X143792903Y-81584800D01*
X143868466Y-81767225D01*
X143981034Y-81935694D01*
X144124306Y-82078966D01*
X144292775Y-82191534D01*
X144479968Y-82269072D01*
X144678692Y-82308600D01*
X144881308Y-82308600D01*
X145080032Y-82269072D01*
X145267225Y-82191534D01*
X145435694Y-82078966D01*
X145578966Y-81935694D01*
X145691534Y-81767225D01*
X145769072Y-81580032D01*
X145808600Y-81381308D01*
X145808600Y-81178692D01*
X145769072Y-80979968D01*
X145691534Y-80792775D01*
X145578966Y-80624306D01*
X145435694Y-80481034D01*
X145267225Y-80368466D01*
X145080032Y-80290928D01*
X144881308Y-80251400D01*
X144678692Y-80251400D01*
X144479968Y-80290928D01*
X144292775Y-80368466D01*
X144124306Y-80481034D01*
X143981034Y-80624306D01*
X143868466Y-80792775D01*
X143792903Y-80975200D01*
X142985208Y-80975200D01*
X142970250Y-80973727D01*
X142955292Y-80975200D01*
X142955284Y-80975200D01*
X142910499Y-80979611D01*
X142853044Y-80997040D01*
X142800093Y-81025342D01*
X142753682Y-81063432D01*
X142744142Y-81075056D01*
X138734800Y-85084399D01*
X138734800Y-84105051D01*
X143750294Y-79089558D01*
X143750294Y-79540000D01*
X143754708Y-79584813D01*
X143767779Y-79627905D01*
X143789006Y-79667618D01*
X143817573Y-79702427D01*
X143852382Y-79730994D01*
X143892095Y-79752221D01*
X143935187Y-79765292D01*
X143980000Y-79769706D01*
X145580000Y-79769706D01*
X145624813Y-79765292D01*
X145667905Y-79752221D01*
X145707618Y-79730994D01*
X145742427Y-79702427D01*
X145770994Y-79667618D01*
X145792221Y-79627905D01*
X145805292Y-79584813D01*
X145809706Y-79540000D01*
X145809706Y-77940000D01*
X145805292Y-77895187D01*
X145792221Y-77852095D01*
X145770994Y-77812382D01*
X145742427Y-77777573D01*
X145707618Y-77749006D01*
X145667905Y-77727779D01*
X145624813Y-77714708D01*
X145580000Y-77710294D01*
X143980000Y-77710294D01*
X143935187Y-77714708D01*
X143892095Y-77727779D01*
X143852382Y-77749006D01*
X143817573Y-77777573D01*
X143789006Y-77812382D01*
X143767779Y-77852095D01*
X143754708Y-77895187D01*
X143750294Y-77940000D01*
X143750294Y-78435200D01*
X143683757Y-78435200D01*
X143668799Y-78433727D01*
X143653841Y-78435200D01*
X143653834Y-78435200D01*
X143614689Y-78439055D01*
X143609048Y-78439611D01*
X143551594Y-78457040D01*
X143498643Y-78485342D01*
X143452232Y-78523432D01*
X143442692Y-78535056D01*
X138225061Y-83752688D01*
X138213432Y-83762232D01*
X138175342Y-83808644D01*
X138147041Y-83861594D01*
X138147040Y-83861595D01*
X138139258Y-83887250D01*
X138129611Y-83919050D01*
X138125200Y-83963835D01*
X138125200Y-83963842D01*
X138123727Y-83978800D01*
X138125200Y-83993758D01*
X138125201Y-114729532D01*
X138123727Y-114744500D01*
X138129611Y-114804251D01*
X138147040Y-114861705D01*
X138147041Y-114861706D01*
X138175343Y-114914657D01*
X138213433Y-114961068D01*
X138225057Y-114970608D01*
X139074679Y-115820231D01*
X138990063Y-115803400D01*
X138885937Y-115803400D01*
X138783813Y-115823713D01*
X138687614Y-115863560D01*
X138601037Y-115921409D01*
X138527409Y-115995037D01*
X138469560Y-116081614D01*
X138429713Y-116177813D01*
X138409400Y-116279937D01*
X138409400Y-116384063D01*
X138429713Y-116486187D01*
X138469560Y-116582386D01*
X138527409Y-116668963D01*
X138601037Y-116742591D01*
X138633201Y-116764082D01*
X138633200Y-118999748D01*
X138179057Y-119453892D01*
X138167434Y-119463431D01*
X138129344Y-119509842D01*
X138115384Y-119535960D01*
X138101041Y-119562794D01*
X138083612Y-119620248D01*
X138077728Y-119679999D01*
X137261200Y-119679999D01*
X137261200Y-76301200D01*
X167538801Y-76301200D01*
X167538800Y-125374800D01*
M02*
