G04 #@! TF.GenerationSoftware,KiCad,Pcbnew,(5.1.5-0-10_14)*
G04 #@! TF.CreationDate,2020-05-05T19:22:01-07:00*
G04 #@! TF.ProjectId,N64 CIC Breakout,4e363420-4349-4432-9042-7265616b6f75,rev?*
G04 #@! TF.SameCoordinates,Original*
G04 #@! TF.FileFunction,Paste,Top*
G04 #@! TF.FilePolarity,Positive*
%FSLAX46Y46*%
G04 Gerber Fmt 4.6, Leading zero omitted, Abs format (unit mm)*
G04 Created by KiCad (PCBNEW (5.1.5-0-10_14)) date 2020-05-05 19:22:01*
%MOMM*%
%LPD*%
G04 APERTURE LIST*
%ADD10C,0.100000*%
G04 APERTURE END LIST*
D10*
G36*
X150714142Y-118173174D02*
G01*
X150737803Y-118176684D01*
X150761007Y-118182496D01*
X150783529Y-118190554D01*
X150805153Y-118200782D01*
X150825670Y-118213079D01*
X150844883Y-118227329D01*
X150862607Y-118243393D01*
X150878671Y-118261117D01*
X150892921Y-118280330D01*
X150905218Y-118300847D01*
X150915446Y-118322471D01*
X150923504Y-118344993D01*
X150929316Y-118368197D01*
X150932826Y-118391858D01*
X150934000Y-118415750D01*
X150934000Y-119328250D01*
X150932826Y-119352142D01*
X150929316Y-119375803D01*
X150923504Y-119399007D01*
X150915446Y-119421529D01*
X150905218Y-119443153D01*
X150892921Y-119463670D01*
X150878671Y-119482883D01*
X150862607Y-119500607D01*
X150844883Y-119516671D01*
X150825670Y-119530921D01*
X150805153Y-119543218D01*
X150783529Y-119553446D01*
X150761007Y-119561504D01*
X150737803Y-119567316D01*
X150714142Y-119570826D01*
X150690250Y-119572000D01*
X150202750Y-119572000D01*
X150178858Y-119570826D01*
X150155197Y-119567316D01*
X150131993Y-119561504D01*
X150109471Y-119553446D01*
X150087847Y-119543218D01*
X150067330Y-119530921D01*
X150048117Y-119516671D01*
X150030393Y-119500607D01*
X150014329Y-119482883D01*
X150000079Y-119463670D01*
X149987782Y-119443153D01*
X149977554Y-119421529D01*
X149969496Y-119399007D01*
X149963684Y-119375803D01*
X149960174Y-119352142D01*
X149959000Y-119328250D01*
X149959000Y-118415750D01*
X149960174Y-118391858D01*
X149963684Y-118368197D01*
X149969496Y-118344993D01*
X149977554Y-118322471D01*
X149987782Y-118300847D01*
X150000079Y-118280330D01*
X150014329Y-118261117D01*
X150030393Y-118243393D01*
X150048117Y-118227329D01*
X150067330Y-118213079D01*
X150087847Y-118200782D01*
X150109471Y-118190554D01*
X150131993Y-118182496D01*
X150155197Y-118176684D01*
X150178858Y-118173174D01*
X150202750Y-118172000D01*
X150690250Y-118172000D01*
X150714142Y-118173174D01*
G37*
G36*
X152589142Y-118173174D02*
G01*
X152612803Y-118176684D01*
X152636007Y-118182496D01*
X152658529Y-118190554D01*
X152680153Y-118200782D01*
X152700670Y-118213079D01*
X152719883Y-118227329D01*
X152737607Y-118243393D01*
X152753671Y-118261117D01*
X152767921Y-118280330D01*
X152780218Y-118300847D01*
X152790446Y-118322471D01*
X152798504Y-118344993D01*
X152804316Y-118368197D01*
X152807826Y-118391858D01*
X152809000Y-118415750D01*
X152809000Y-119328250D01*
X152807826Y-119352142D01*
X152804316Y-119375803D01*
X152798504Y-119399007D01*
X152790446Y-119421529D01*
X152780218Y-119443153D01*
X152767921Y-119463670D01*
X152753671Y-119482883D01*
X152737607Y-119500607D01*
X152719883Y-119516671D01*
X152700670Y-119530921D01*
X152680153Y-119543218D01*
X152658529Y-119553446D01*
X152636007Y-119561504D01*
X152612803Y-119567316D01*
X152589142Y-119570826D01*
X152565250Y-119572000D01*
X152077750Y-119572000D01*
X152053858Y-119570826D01*
X152030197Y-119567316D01*
X152006993Y-119561504D01*
X151984471Y-119553446D01*
X151962847Y-119543218D01*
X151942330Y-119530921D01*
X151923117Y-119516671D01*
X151905393Y-119500607D01*
X151889329Y-119482883D01*
X151875079Y-119463670D01*
X151862782Y-119443153D01*
X151852554Y-119421529D01*
X151844496Y-119399007D01*
X151838684Y-119375803D01*
X151835174Y-119352142D01*
X151834000Y-119328250D01*
X151834000Y-118415750D01*
X151835174Y-118391858D01*
X151838684Y-118368197D01*
X151844496Y-118344993D01*
X151852554Y-118322471D01*
X151862782Y-118300847D01*
X151875079Y-118280330D01*
X151889329Y-118261117D01*
X151905393Y-118243393D01*
X151923117Y-118227329D01*
X151942330Y-118213079D01*
X151962847Y-118200782D01*
X151984471Y-118190554D01*
X152006993Y-118182496D01*
X152030197Y-118176684D01*
X152053858Y-118173174D01*
X152077750Y-118172000D01*
X152565250Y-118172000D01*
X152589142Y-118173174D01*
G37*
G36*
X147001142Y-118173174D02*
G01*
X147024803Y-118176684D01*
X147048007Y-118182496D01*
X147070529Y-118190554D01*
X147092153Y-118200782D01*
X147112670Y-118213079D01*
X147131883Y-118227329D01*
X147149607Y-118243393D01*
X147165671Y-118261117D01*
X147179921Y-118280330D01*
X147192218Y-118300847D01*
X147202446Y-118322471D01*
X147210504Y-118344993D01*
X147216316Y-118368197D01*
X147219826Y-118391858D01*
X147221000Y-118415750D01*
X147221000Y-119328250D01*
X147219826Y-119352142D01*
X147216316Y-119375803D01*
X147210504Y-119399007D01*
X147202446Y-119421529D01*
X147192218Y-119443153D01*
X147179921Y-119463670D01*
X147165671Y-119482883D01*
X147149607Y-119500607D01*
X147131883Y-119516671D01*
X147112670Y-119530921D01*
X147092153Y-119543218D01*
X147070529Y-119553446D01*
X147048007Y-119561504D01*
X147024803Y-119567316D01*
X147001142Y-119570826D01*
X146977250Y-119572000D01*
X146489750Y-119572000D01*
X146465858Y-119570826D01*
X146442197Y-119567316D01*
X146418993Y-119561504D01*
X146396471Y-119553446D01*
X146374847Y-119543218D01*
X146354330Y-119530921D01*
X146335117Y-119516671D01*
X146317393Y-119500607D01*
X146301329Y-119482883D01*
X146287079Y-119463670D01*
X146274782Y-119443153D01*
X146264554Y-119421529D01*
X146256496Y-119399007D01*
X146250684Y-119375803D01*
X146247174Y-119352142D01*
X146246000Y-119328250D01*
X146246000Y-118415750D01*
X146247174Y-118391858D01*
X146250684Y-118368197D01*
X146256496Y-118344993D01*
X146264554Y-118322471D01*
X146274782Y-118300847D01*
X146287079Y-118280330D01*
X146301329Y-118261117D01*
X146317393Y-118243393D01*
X146335117Y-118227329D01*
X146354330Y-118213079D01*
X146374847Y-118200782D01*
X146396471Y-118190554D01*
X146418993Y-118182496D01*
X146442197Y-118176684D01*
X146465858Y-118173174D01*
X146489750Y-118172000D01*
X146977250Y-118172000D01*
X147001142Y-118173174D01*
G37*
G36*
X145126142Y-118173174D02*
G01*
X145149803Y-118176684D01*
X145173007Y-118182496D01*
X145195529Y-118190554D01*
X145217153Y-118200782D01*
X145237670Y-118213079D01*
X145256883Y-118227329D01*
X145274607Y-118243393D01*
X145290671Y-118261117D01*
X145304921Y-118280330D01*
X145317218Y-118300847D01*
X145327446Y-118322471D01*
X145335504Y-118344993D01*
X145341316Y-118368197D01*
X145344826Y-118391858D01*
X145346000Y-118415750D01*
X145346000Y-119328250D01*
X145344826Y-119352142D01*
X145341316Y-119375803D01*
X145335504Y-119399007D01*
X145327446Y-119421529D01*
X145317218Y-119443153D01*
X145304921Y-119463670D01*
X145290671Y-119482883D01*
X145274607Y-119500607D01*
X145256883Y-119516671D01*
X145237670Y-119530921D01*
X145217153Y-119543218D01*
X145195529Y-119553446D01*
X145173007Y-119561504D01*
X145149803Y-119567316D01*
X145126142Y-119570826D01*
X145102250Y-119572000D01*
X144614750Y-119572000D01*
X144590858Y-119570826D01*
X144567197Y-119567316D01*
X144543993Y-119561504D01*
X144521471Y-119553446D01*
X144499847Y-119543218D01*
X144479330Y-119530921D01*
X144460117Y-119516671D01*
X144442393Y-119500607D01*
X144426329Y-119482883D01*
X144412079Y-119463670D01*
X144399782Y-119443153D01*
X144389554Y-119421529D01*
X144381496Y-119399007D01*
X144375684Y-119375803D01*
X144372174Y-119352142D01*
X144371000Y-119328250D01*
X144371000Y-118415750D01*
X144372174Y-118391858D01*
X144375684Y-118368197D01*
X144381496Y-118344993D01*
X144389554Y-118322471D01*
X144399782Y-118300847D01*
X144412079Y-118280330D01*
X144426329Y-118261117D01*
X144442393Y-118243393D01*
X144460117Y-118227329D01*
X144479330Y-118213079D01*
X144499847Y-118200782D01*
X144521471Y-118190554D01*
X144543993Y-118182496D01*
X144567197Y-118176684D01*
X144590858Y-118173174D01*
X144614750Y-118172000D01*
X145102250Y-118172000D01*
X145126142Y-118173174D01*
G37*
M02*
