G04 #@! TF.GenerationSoftware,KiCad,Pcbnew,(5.1.5-0-10_14)*
G04 #@! TF.CreationDate,2020-05-05T19:22:01-07:00*
G04 #@! TF.ProjectId,N64 CIC Breakout,4e363420-4349-4432-9042-7265616b6f75,rev?*
G04 #@! TF.SameCoordinates,Original*
G04 #@! TF.FileFunction,Soldermask,Top*
G04 #@! TF.FilePolarity,Negative*
%FSLAX46Y46*%
G04 Gerber Fmt 4.6, Leading zero omitted, Abs format (unit mm)*
G04 Created by KiCad (PCBNEW (5.1.5-0-10_14)) date 2020-05-05 19:22:01*
%MOMM*%
%LPD*%
G04 APERTURE LIST*
%ADD10C,0.100000*%
G04 APERTURE END LIST*
D10*
G36*
X152513512Y-123563927D02*
G01*
X152662812Y-123593624D01*
X152826784Y-123661544D01*
X152974354Y-123760147D01*
X153099853Y-123885646D01*
X153198456Y-124033216D01*
X153266376Y-124197188D01*
X153301000Y-124371259D01*
X153301000Y-124548741D01*
X153266376Y-124722812D01*
X153198456Y-124886784D01*
X153099853Y-125034354D01*
X152974354Y-125159853D01*
X152826784Y-125258456D01*
X152662812Y-125326376D01*
X152513512Y-125356073D01*
X152488742Y-125361000D01*
X152311258Y-125361000D01*
X152286488Y-125356073D01*
X152137188Y-125326376D01*
X151973216Y-125258456D01*
X151825646Y-125159853D01*
X151700147Y-125034354D01*
X151601544Y-124886784D01*
X151533624Y-124722812D01*
X151499000Y-124548741D01*
X151499000Y-124371259D01*
X151533624Y-124197188D01*
X151601544Y-124033216D01*
X151700147Y-123885646D01*
X151825646Y-123760147D01*
X151973216Y-123661544D01*
X152137188Y-123593624D01*
X152286488Y-123563927D01*
X152311258Y-123559000D01*
X152488742Y-123559000D01*
X152513512Y-123563927D01*
G37*
G36*
X149973512Y-123563927D02*
G01*
X150122812Y-123593624D01*
X150286784Y-123661544D01*
X150434354Y-123760147D01*
X150559853Y-123885646D01*
X150658456Y-124033216D01*
X150726376Y-124197188D01*
X150761000Y-124371259D01*
X150761000Y-124548741D01*
X150726376Y-124722812D01*
X150658456Y-124886784D01*
X150559853Y-125034354D01*
X150434354Y-125159853D01*
X150286784Y-125258456D01*
X150122812Y-125326376D01*
X149973512Y-125356073D01*
X149948742Y-125361000D01*
X149771258Y-125361000D01*
X149746488Y-125356073D01*
X149597188Y-125326376D01*
X149433216Y-125258456D01*
X149285646Y-125159853D01*
X149160147Y-125034354D01*
X149061544Y-124886784D01*
X148993624Y-124722812D01*
X148959000Y-124548741D01*
X148959000Y-124371259D01*
X148993624Y-124197188D01*
X149061544Y-124033216D01*
X149160147Y-123885646D01*
X149285646Y-123760147D01*
X149433216Y-123661544D01*
X149597188Y-123593624D01*
X149746488Y-123563927D01*
X149771258Y-123559000D01*
X149948742Y-123559000D01*
X149973512Y-123563927D01*
G37*
G36*
X147433512Y-123563927D02*
G01*
X147582812Y-123593624D01*
X147746784Y-123661544D01*
X147894354Y-123760147D01*
X148019853Y-123885646D01*
X148118456Y-124033216D01*
X148186376Y-124197188D01*
X148221000Y-124371259D01*
X148221000Y-124548741D01*
X148186376Y-124722812D01*
X148118456Y-124886784D01*
X148019853Y-125034354D01*
X147894354Y-125159853D01*
X147746784Y-125258456D01*
X147582812Y-125326376D01*
X147433512Y-125356073D01*
X147408742Y-125361000D01*
X147231258Y-125361000D01*
X147206488Y-125356073D01*
X147057188Y-125326376D01*
X146893216Y-125258456D01*
X146745646Y-125159853D01*
X146620147Y-125034354D01*
X146521544Y-124886784D01*
X146453624Y-124722812D01*
X146419000Y-124548741D01*
X146419000Y-124371259D01*
X146453624Y-124197188D01*
X146521544Y-124033216D01*
X146620147Y-123885646D01*
X146745646Y-123760147D01*
X146893216Y-123661544D01*
X147057188Y-123593624D01*
X147206488Y-123563927D01*
X147231258Y-123559000D01*
X147408742Y-123559000D01*
X147433512Y-123563927D01*
G37*
G36*
X144893512Y-123563927D02*
G01*
X145042812Y-123593624D01*
X145206784Y-123661544D01*
X145354354Y-123760147D01*
X145479853Y-123885646D01*
X145578456Y-124033216D01*
X145646376Y-124197188D01*
X145681000Y-124371259D01*
X145681000Y-124548741D01*
X145646376Y-124722812D01*
X145578456Y-124886784D01*
X145479853Y-125034354D01*
X145354354Y-125159853D01*
X145206784Y-125258456D01*
X145042812Y-125326376D01*
X144893512Y-125356073D01*
X144868742Y-125361000D01*
X144691258Y-125361000D01*
X144666488Y-125356073D01*
X144517188Y-125326376D01*
X144353216Y-125258456D01*
X144205646Y-125159853D01*
X144080147Y-125034354D01*
X143981544Y-124886784D01*
X143913624Y-124722812D01*
X143879000Y-124548741D01*
X143879000Y-124371259D01*
X143913624Y-124197188D01*
X143981544Y-124033216D01*
X144080147Y-123885646D01*
X144205646Y-123760147D01*
X144353216Y-123661544D01*
X144517188Y-123593624D01*
X144666488Y-123563927D01*
X144691258Y-123559000D01*
X144868742Y-123559000D01*
X144893512Y-123563927D01*
G37*
G36*
X149973512Y-121023927D02*
G01*
X150122812Y-121053624D01*
X150286784Y-121121544D01*
X150434354Y-121220147D01*
X150559853Y-121345646D01*
X150658456Y-121493216D01*
X150726376Y-121657188D01*
X150761000Y-121831259D01*
X150761000Y-122008741D01*
X150726376Y-122182812D01*
X150658456Y-122346784D01*
X150559853Y-122494354D01*
X150434354Y-122619853D01*
X150286784Y-122718456D01*
X150122812Y-122786376D01*
X149973512Y-122816073D01*
X149948742Y-122821000D01*
X149771258Y-122821000D01*
X149746488Y-122816073D01*
X149597188Y-122786376D01*
X149433216Y-122718456D01*
X149285646Y-122619853D01*
X149160147Y-122494354D01*
X149061544Y-122346784D01*
X148993624Y-122182812D01*
X148959000Y-122008741D01*
X148959000Y-121831259D01*
X148993624Y-121657188D01*
X149061544Y-121493216D01*
X149160147Y-121345646D01*
X149285646Y-121220147D01*
X149433216Y-121121544D01*
X149597188Y-121053624D01*
X149746488Y-121023927D01*
X149771258Y-121019000D01*
X149948742Y-121019000D01*
X149973512Y-121023927D01*
G37*
G36*
X153301000Y-122821000D02*
G01*
X151499000Y-122821000D01*
X151499000Y-121019000D01*
X153301000Y-121019000D01*
X153301000Y-122821000D01*
G37*
G36*
X147433512Y-121023927D02*
G01*
X147582812Y-121053624D01*
X147746784Y-121121544D01*
X147894354Y-121220147D01*
X148019853Y-121345646D01*
X148118456Y-121493216D01*
X148186376Y-121657188D01*
X148221000Y-121831259D01*
X148221000Y-122008741D01*
X148186376Y-122182812D01*
X148118456Y-122346784D01*
X148019853Y-122494354D01*
X147894354Y-122619853D01*
X147746784Y-122718456D01*
X147582812Y-122786376D01*
X147433512Y-122816073D01*
X147408742Y-122821000D01*
X147231258Y-122821000D01*
X147206488Y-122816073D01*
X147057188Y-122786376D01*
X146893216Y-122718456D01*
X146745646Y-122619853D01*
X146620147Y-122494354D01*
X146521544Y-122346784D01*
X146453624Y-122182812D01*
X146419000Y-122008741D01*
X146419000Y-121831259D01*
X146453624Y-121657188D01*
X146521544Y-121493216D01*
X146620147Y-121345646D01*
X146745646Y-121220147D01*
X146893216Y-121121544D01*
X147057188Y-121053624D01*
X147206488Y-121023927D01*
X147231258Y-121019000D01*
X147408742Y-121019000D01*
X147433512Y-121023927D01*
G37*
G36*
X144893512Y-121023927D02*
G01*
X145042812Y-121053624D01*
X145206784Y-121121544D01*
X145354354Y-121220147D01*
X145479853Y-121345646D01*
X145578456Y-121493216D01*
X145646376Y-121657188D01*
X145681000Y-121831259D01*
X145681000Y-122008741D01*
X145646376Y-122182812D01*
X145578456Y-122346784D01*
X145479853Y-122494354D01*
X145354354Y-122619853D01*
X145206784Y-122718456D01*
X145042812Y-122786376D01*
X144893512Y-122816073D01*
X144868742Y-122821000D01*
X144691258Y-122821000D01*
X144666488Y-122816073D01*
X144517188Y-122786376D01*
X144353216Y-122718456D01*
X144205646Y-122619853D01*
X144080147Y-122494354D01*
X143981544Y-122346784D01*
X143913624Y-122182812D01*
X143879000Y-122008741D01*
X143879000Y-121831259D01*
X143913624Y-121657188D01*
X143981544Y-121493216D01*
X144080147Y-121345646D01*
X144205646Y-121220147D01*
X144353216Y-121121544D01*
X144517188Y-121053624D01*
X144666488Y-121023927D01*
X144691258Y-121019000D01*
X144868742Y-121019000D01*
X144893512Y-121023927D01*
G37*
G36*
X152693468Y-118125565D02*
G01*
X152732138Y-118137296D01*
X152767777Y-118156346D01*
X152799017Y-118181983D01*
X152824654Y-118213223D01*
X152843704Y-118248862D01*
X152855435Y-118287532D01*
X152860000Y-118333888D01*
X152860000Y-119410112D01*
X152855435Y-119456468D01*
X152843704Y-119495138D01*
X152824654Y-119530777D01*
X152799017Y-119562017D01*
X152767777Y-119587654D01*
X152732138Y-119606704D01*
X152693468Y-119618435D01*
X152647112Y-119623000D01*
X151995888Y-119623000D01*
X151949532Y-119618435D01*
X151910862Y-119606704D01*
X151875223Y-119587654D01*
X151843983Y-119562017D01*
X151818346Y-119530777D01*
X151799296Y-119495138D01*
X151787565Y-119456468D01*
X151783000Y-119410112D01*
X151783000Y-118333888D01*
X151787565Y-118287532D01*
X151799296Y-118248862D01*
X151818346Y-118213223D01*
X151843983Y-118181983D01*
X151875223Y-118156346D01*
X151910862Y-118137296D01*
X151949532Y-118125565D01*
X151995888Y-118121000D01*
X152647112Y-118121000D01*
X152693468Y-118125565D01*
G37*
G36*
X150818468Y-118125565D02*
G01*
X150857138Y-118137296D01*
X150892777Y-118156346D01*
X150924017Y-118181983D01*
X150949654Y-118213223D01*
X150968704Y-118248862D01*
X150980435Y-118287532D01*
X150985000Y-118333888D01*
X150985000Y-119410112D01*
X150980435Y-119456468D01*
X150968704Y-119495138D01*
X150949654Y-119530777D01*
X150924017Y-119562017D01*
X150892777Y-119587654D01*
X150857138Y-119606704D01*
X150818468Y-119618435D01*
X150772112Y-119623000D01*
X150120888Y-119623000D01*
X150074532Y-119618435D01*
X150035862Y-119606704D01*
X150000223Y-119587654D01*
X149968983Y-119562017D01*
X149943346Y-119530777D01*
X149924296Y-119495138D01*
X149912565Y-119456468D01*
X149908000Y-119410112D01*
X149908000Y-118333888D01*
X149912565Y-118287532D01*
X149924296Y-118248862D01*
X149943346Y-118213223D01*
X149968983Y-118181983D01*
X150000223Y-118156346D01*
X150035862Y-118137296D01*
X150074532Y-118125565D01*
X150120888Y-118121000D01*
X150772112Y-118121000D01*
X150818468Y-118125565D01*
G37*
G36*
X145230468Y-118125565D02*
G01*
X145269138Y-118137296D01*
X145304777Y-118156346D01*
X145336017Y-118181983D01*
X145361654Y-118213223D01*
X145380704Y-118248862D01*
X145392435Y-118287532D01*
X145397000Y-118333888D01*
X145397000Y-119410112D01*
X145392435Y-119456468D01*
X145380704Y-119495138D01*
X145361654Y-119530777D01*
X145336017Y-119562017D01*
X145304777Y-119587654D01*
X145269138Y-119606704D01*
X145230468Y-119618435D01*
X145184112Y-119623000D01*
X144532888Y-119623000D01*
X144486532Y-119618435D01*
X144447862Y-119606704D01*
X144412223Y-119587654D01*
X144380983Y-119562017D01*
X144355346Y-119530777D01*
X144336296Y-119495138D01*
X144324565Y-119456468D01*
X144320000Y-119410112D01*
X144320000Y-118333888D01*
X144324565Y-118287532D01*
X144336296Y-118248862D01*
X144355346Y-118213223D01*
X144380983Y-118181983D01*
X144412223Y-118156346D01*
X144447862Y-118137296D01*
X144486532Y-118125565D01*
X144532888Y-118121000D01*
X145184112Y-118121000D01*
X145230468Y-118125565D01*
G37*
G36*
X147105468Y-118125565D02*
G01*
X147144138Y-118137296D01*
X147179777Y-118156346D01*
X147211017Y-118181983D01*
X147236654Y-118213223D01*
X147255704Y-118248862D01*
X147267435Y-118287532D01*
X147272000Y-118333888D01*
X147272000Y-119410112D01*
X147267435Y-119456468D01*
X147255704Y-119495138D01*
X147236654Y-119530777D01*
X147211017Y-119562017D01*
X147179777Y-119587654D01*
X147144138Y-119606704D01*
X147105468Y-119618435D01*
X147059112Y-119623000D01*
X146407888Y-119623000D01*
X146361532Y-119618435D01*
X146322862Y-119606704D01*
X146287223Y-119587654D01*
X146255983Y-119562017D01*
X146230346Y-119530777D01*
X146211296Y-119495138D01*
X146199565Y-119456468D01*
X146195000Y-119410112D01*
X146195000Y-118333888D01*
X146199565Y-118287532D01*
X146211296Y-118248862D01*
X146230346Y-118213223D01*
X146255983Y-118181983D01*
X146287223Y-118156346D01*
X146322862Y-118137296D01*
X146361532Y-118125565D01*
X146407888Y-118121000D01*
X147059112Y-118121000D01*
X147105468Y-118125565D01*
G37*
G36*
X153251000Y-116929000D02*
G01*
X151549000Y-116929000D01*
X151549000Y-115227000D01*
X153251000Y-115227000D01*
X153251000Y-116929000D01*
G37*
G36*
X145028228Y-115259703D02*
G01*
X145183100Y-115323853D01*
X145322481Y-115416985D01*
X145441015Y-115535519D01*
X145534147Y-115674900D01*
X145598297Y-115829772D01*
X145631000Y-115994184D01*
X145631000Y-116161816D01*
X145598297Y-116326228D01*
X145534147Y-116481100D01*
X145441015Y-116620481D01*
X145322481Y-116739015D01*
X145183100Y-116832147D01*
X145028228Y-116896297D01*
X144863816Y-116929000D01*
X144696184Y-116929000D01*
X144531772Y-116896297D01*
X144376900Y-116832147D01*
X144237519Y-116739015D01*
X144118985Y-116620481D01*
X144025853Y-116481100D01*
X143961703Y-116326228D01*
X143929000Y-116161816D01*
X143929000Y-115994184D01*
X143961703Y-115829772D01*
X144025853Y-115674900D01*
X144118985Y-115535519D01*
X144237519Y-115416985D01*
X144376900Y-115323853D01*
X144531772Y-115259703D01*
X144696184Y-115227000D01*
X144863816Y-115227000D01*
X145028228Y-115259703D01*
G37*
G36*
X152648228Y-112719703D02*
G01*
X152803100Y-112783853D01*
X152942481Y-112876985D01*
X153061015Y-112995519D01*
X153154147Y-113134900D01*
X153218297Y-113289772D01*
X153251000Y-113454184D01*
X153251000Y-113621816D01*
X153218297Y-113786228D01*
X153154147Y-113941100D01*
X153061015Y-114080481D01*
X152942481Y-114199015D01*
X152803100Y-114292147D01*
X152648228Y-114356297D01*
X152483816Y-114389000D01*
X152316184Y-114389000D01*
X152151772Y-114356297D01*
X151996900Y-114292147D01*
X151857519Y-114199015D01*
X151738985Y-114080481D01*
X151645853Y-113941100D01*
X151581703Y-113786228D01*
X151549000Y-113621816D01*
X151549000Y-113454184D01*
X151581703Y-113289772D01*
X151645853Y-113134900D01*
X151738985Y-112995519D01*
X151857519Y-112876985D01*
X151996900Y-112783853D01*
X152151772Y-112719703D01*
X152316184Y-112687000D01*
X152483816Y-112687000D01*
X152648228Y-112719703D01*
G37*
G36*
X145028228Y-112719703D02*
G01*
X145183100Y-112783853D01*
X145322481Y-112876985D01*
X145441015Y-112995519D01*
X145534147Y-113134900D01*
X145598297Y-113289772D01*
X145631000Y-113454184D01*
X145631000Y-113621816D01*
X145598297Y-113786228D01*
X145534147Y-113941100D01*
X145441015Y-114080481D01*
X145322481Y-114199015D01*
X145183100Y-114292147D01*
X145028228Y-114356297D01*
X144863816Y-114389000D01*
X144696184Y-114389000D01*
X144531772Y-114356297D01*
X144376900Y-114292147D01*
X144237519Y-114199015D01*
X144118985Y-114080481D01*
X144025853Y-113941100D01*
X143961703Y-113786228D01*
X143929000Y-113621816D01*
X143929000Y-113454184D01*
X143961703Y-113289772D01*
X144025853Y-113134900D01*
X144118985Y-112995519D01*
X144237519Y-112876985D01*
X144376900Y-112783853D01*
X144531772Y-112719703D01*
X144696184Y-112687000D01*
X144863816Y-112687000D01*
X145028228Y-112719703D01*
G37*
G36*
X152648228Y-110179703D02*
G01*
X152803100Y-110243853D01*
X152942481Y-110336985D01*
X153061015Y-110455519D01*
X153154147Y-110594900D01*
X153218297Y-110749772D01*
X153251000Y-110914184D01*
X153251000Y-111081816D01*
X153218297Y-111246228D01*
X153154147Y-111401100D01*
X153061015Y-111540481D01*
X152942481Y-111659015D01*
X152803100Y-111752147D01*
X152648228Y-111816297D01*
X152483816Y-111849000D01*
X152316184Y-111849000D01*
X152151772Y-111816297D01*
X151996900Y-111752147D01*
X151857519Y-111659015D01*
X151738985Y-111540481D01*
X151645853Y-111401100D01*
X151581703Y-111246228D01*
X151549000Y-111081816D01*
X151549000Y-110914184D01*
X151581703Y-110749772D01*
X151645853Y-110594900D01*
X151738985Y-110455519D01*
X151857519Y-110336985D01*
X151996900Y-110243853D01*
X152151772Y-110179703D01*
X152316184Y-110147000D01*
X152483816Y-110147000D01*
X152648228Y-110179703D01*
G37*
G36*
X145028228Y-110179703D02*
G01*
X145183100Y-110243853D01*
X145322481Y-110336985D01*
X145441015Y-110455519D01*
X145534147Y-110594900D01*
X145598297Y-110749772D01*
X145631000Y-110914184D01*
X145631000Y-111081816D01*
X145598297Y-111246228D01*
X145534147Y-111401100D01*
X145441015Y-111540481D01*
X145322481Y-111659015D01*
X145183100Y-111752147D01*
X145028228Y-111816297D01*
X144863816Y-111849000D01*
X144696184Y-111849000D01*
X144531772Y-111816297D01*
X144376900Y-111752147D01*
X144237519Y-111659015D01*
X144118985Y-111540481D01*
X144025853Y-111401100D01*
X143961703Y-111246228D01*
X143929000Y-111081816D01*
X143929000Y-110914184D01*
X143961703Y-110749772D01*
X144025853Y-110594900D01*
X144118985Y-110455519D01*
X144237519Y-110336985D01*
X144376900Y-110243853D01*
X144531772Y-110179703D01*
X144696184Y-110147000D01*
X144863816Y-110147000D01*
X145028228Y-110179703D01*
G37*
G36*
X145028228Y-107639703D02*
G01*
X145183100Y-107703853D01*
X145322481Y-107796985D01*
X145441015Y-107915519D01*
X145534147Y-108054900D01*
X145598297Y-108209772D01*
X145631000Y-108374184D01*
X145631000Y-108541816D01*
X145598297Y-108706228D01*
X145534147Y-108861100D01*
X145441015Y-109000481D01*
X145322481Y-109119015D01*
X145183100Y-109212147D01*
X145028228Y-109276297D01*
X144863816Y-109309000D01*
X144696184Y-109309000D01*
X144531772Y-109276297D01*
X144376900Y-109212147D01*
X144237519Y-109119015D01*
X144118985Y-109000481D01*
X144025853Y-108861100D01*
X143961703Y-108706228D01*
X143929000Y-108541816D01*
X143929000Y-108374184D01*
X143961703Y-108209772D01*
X144025853Y-108054900D01*
X144118985Y-107915519D01*
X144237519Y-107796985D01*
X144376900Y-107703853D01*
X144531772Y-107639703D01*
X144696184Y-107607000D01*
X144863816Y-107607000D01*
X145028228Y-107639703D01*
G37*
G36*
X152648228Y-107639703D02*
G01*
X152803100Y-107703853D01*
X152942481Y-107796985D01*
X153061015Y-107915519D01*
X153154147Y-108054900D01*
X153218297Y-108209772D01*
X153251000Y-108374184D01*
X153251000Y-108541816D01*
X153218297Y-108706228D01*
X153154147Y-108861100D01*
X153061015Y-109000481D01*
X152942481Y-109119015D01*
X152803100Y-109212147D01*
X152648228Y-109276297D01*
X152483816Y-109309000D01*
X152316184Y-109309000D01*
X152151772Y-109276297D01*
X151996900Y-109212147D01*
X151857519Y-109119015D01*
X151738985Y-109000481D01*
X151645853Y-108861100D01*
X151581703Y-108706228D01*
X151549000Y-108541816D01*
X151549000Y-108374184D01*
X151581703Y-108209772D01*
X151645853Y-108054900D01*
X151738985Y-107915519D01*
X151857519Y-107796985D01*
X151996900Y-107703853D01*
X152151772Y-107639703D01*
X152316184Y-107607000D01*
X152483816Y-107607000D01*
X152648228Y-107639703D01*
G37*
G36*
X145028228Y-105099703D02*
G01*
X145183100Y-105163853D01*
X145322481Y-105256985D01*
X145441015Y-105375519D01*
X145534147Y-105514900D01*
X145598297Y-105669772D01*
X145631000Y-105834184D01*
X145631000Y-106001816D01*
X145598297Y-106166228D01*
X145534147Y-106321100D01*
X145441015Y-106460481D01*
X145322481Y-106579015D01*
X145183100Y-106672147D01*
X145028228Y-106736297D01*
X144863816Y-106769000D01*
X144696184Y-106769000D01*
X144531772Y-106736297D01*
X144376900Y-106672147D01*
X144237519Y-106579015D01*
X144118985Y-106460481D01*
X144025853Y-106321100D01*
X143961703Y-106166228D01*
X143929000Y-106001816D01*
X143929000Y-105834184D01*
X143961703Y-105669772D01*
X144025853Y-105514900D01*
X144118985Y-105375519D01*
X144237519Y-105256985D01*
X144376900Y-105163853D01*
X144531772Y-105099703D01*
X144696184Y-105067000D01*
X144863816Y-105067000D01*
X145028228Y-105099703D01*
G37*
G36*
X152648228Y-105099703D02*
G01*
X152803100Y-105163853D01*
X152942481Y-105256985D01*
X153061015Y-105375519D01*
X153154147Y-105514900D01*
X153218297Y-105669772D01*
X153251000Y-105834184D01*
X153251000Y-106001816D01*
X153218297Y-106166228D01*
X153154147Y-106321100D01*
X153061015Y-106460481D01*
X152942481Y-106579015D01*
X152803100Y-106672147D01*
X152648228Y-106736297D01*
X152483816Y-106769000D01*
X152316184Y-106769000D01*
X152151772Y-106736297D01*
X151996900Y-106672147D01*
X151857519Y-106579015D01*
X151738985Y-106460481D01*
X151645853Y-106321100D01*
X151581703Y-106166228D01*
X151549000Y-106001816D01*
X151549000Y-105834184D01*
X151581703Y-105669772D01*
X151645853Y-105514900D01*
X151738985Y-105375519D01*
X151857519Y-105256985D01*
X151996900Y-105163853D01*
X152151772Y-105099703D01*
X152316184Y-105067000D01*
X152483816Y-105067000D01*
X152648228Y-105099703D01*
G37*
G36*
X145028228Y-102559703D02*
G01*
X145183100Y-102623853D01*
X145322481Y-102716985D01*
X145441015Y-102835519D01*
X145534147Y-102974900D01*
X145598297Y-103129772D01*
X145631000Y-103294184D01*
X145631000Y-103461816D01*
X145598297Y-103626228D01*
X145534147Y-103781100D01*
X145441015Y-103920481D01*
X145322481Y-104039015D01*
X145183100Y-104132147D01*
X145028228Y-104196297D01*
X144863816Y-104229000D01*
X144696184Y-104229000D01*
X144531772Y-104196297D01*
X144376900Y-104132147D01*
X144237519Y-104039015D01*
X144118985Y-103920481D01*
X144025853Y-103781100D01*
X143961703Y-103626228D01*
X143929000Y-103461816D01*
X143929000Y-103294184D01*
X143961703Y-103129772D01*
X144025853Y-102974900D01*
X144118985Y-102835519D01*
X144237519Y-102716985D01*
X144376900Y-102623853D01*
X144531772Y-102559703D01*
X144696184Y-102527000D01*
X144863816Y-102527000D01*
X145028228Y-102559703D01*
G37*
G36*
X152648228Y-102559703D02*
G01*
X152803100Y-102623853D01*
X152942481Y-102716985D01*
X153061015Y-102835519D01*
X153154147Y-102974900D01*
X153218297Y-103129772D01*
X153251000Y-103294184D01*
X153251000Y-103461816D01*
X153218297Y-103626228D01*
X153154147Y-103781100D01*
X153061015Y-103920481D01*
X152942481Y-104039015D01*
X152803100Y-104132147D01*
X152648228Y-104196297D01*
X152483816Y-104229000D01*
X152316184Y-104229000D01*
X152151772Y-104196297D01*
X151996900Y-104132147D01*
X151857519Y-104039015D01*
X151738985Y-103920481D01*
X151645853Y-103781100D01*
X151581703Y-103626228D01*
X151549000Y-103461816D01*
X151549000Y-103294184D01*
X151581703Y-103129772D01*
X151645853Y-102974900D01*
X151738985Y-102835519D01*
X151857519Y-102716985D01*
X151996900Y-102623853D01*
X152151772Y-102559703D01*
X152316184Y-102527000D01*
X152483816Y-102527000D01*
X152648228Y-102559703D01*
G37*
G36*
X152648228Y-100019703D02*
G01*
X152803100Y-100083853D01*
X152942481Y-100176985D01*
X153061015Y-100295519D01*
X153154147Y-100434900D01*
X153218297Y-100589772D01*
X153251000Y-100754184D01*
X153251000Y-100921816D01*
X153218297Y-101086228D01*
X153154147Y-101241100D01*
X153061015Y-101380481D01*
X152942481Y-101499015D01*
X152803100Y-101592147D01*
X152648228Y-101656297D01*
X152483816Y-101689000D01*
X152316184Y-101689000D01*
X152151772Y-101656297D01*
X151996900Y-101592147D01*
X151857519Y-101499015D01*
X151738985Y-101380481D01*
X151645853Y-101241100D01*
X151581703Y-101086228D01*
X151549000Y-100921816D01*
X151549000Y-100754184D01*
X151581703Y-100589772D01*
X151645853Y-100434900D01*
X151738985Y-100295519D01*
X151857519Y-100176985D01*
X151996900Y-100083853D01*
X152151772Y-100019703D01*
X152316184Y-99987000D01*
X152483816Y-99987000D01*
X152648228Y-100019703D01*
G37*
G36*
X145028228Y-100019703D02*
G01*
X145183100Y-100083853D01*
X145322481Y-100176985D01*
X145441015Y-100295519D01*
X145534147Y-100434900D01*
X145598297Y-100589772D01*
X145631000Y-100754184D01*
X145631000Y-100921816D01*
X145598297Y-101086228D01*
X145534147Y-101241100D01*
X145441015Y-101380481D01*
X145322481Y-101499015D01*
X145183100Y-101592147D01*
X145028228Y-101656297D01*
X144863816Y-101689000D01*
X144696184Y-101689000D01*
X144531772Y-101656297D01*
X144376900Y-101592147D01*
X144237519Y-101499015D01*
X144118985Y-101380481D01*
X144025853Y-101241100D01*
X143961703Y-101086228D01*
X143929000Y-100921816D01*
X143929000Y-100754184D01*
X143961703Y-100589772D01*
X144025853Y-100434900D01*
X144118985Y-100295519D01*
X144237519Y-100176985D01*
X144376900Y-100083853D01*
X144531772Y-100019703D01*
X144696184Y-99987000D01*
X144863816Y-99987000D01*
X145028228Y-100019703D01*
G37*
G36*
X152648228Y-97479703D02*
G01*
X152803100Y-97543853D01*
X152942481Y-97636985D01*
X153061015Y-97755519D01*
X153154147Y-97894900D01*
X153218297Y-98049772D01*
X153251000Y-98214184D01*
X153251000Y-98381816D01*
X153218297Y-98546228D01*
X153154147Y-98701100D01*
X153061015Y-98840481D01*
X152942481Y-98959015D01*
X152803100Y-99052147D01*
X152648228Y-99116297D01*
X152483816Y-99149000D01*
X152316184Y-99149000D01*
X152151772Y-99116297D01*
X151996900Y-99052147D01*
X151857519Y-98959015D01*
X151738985Y-98840481D01*
X151645853Y-98701100D01*
X151581703Y-98546228D01*
X151549000Y-98381816D01*
X151549000Y-98214184D01*
X151581703Y-98049772D01*
X151645853Y-97894900D01*
X151738985Y-97755519D01*
X151857519Y-97636985D01*
X151996900Y-97543853D01*
X152151772Y-97479703D01*
X152316184Y-97447000D01*
X152483816Y-97447000D01*
X152648228Y-97479703D01*
G37*
G36*
X145028228Y-97479703D02*
G01*
X145183100Y-97543853D01*
X145322481Y-97636985D01*
X145441015Y-97755519D01*
X145534147Y-97894900D01*
X145598297Y-98049772D01*
X145631000Y-98214184D01*
X145631000Y-98381816D01*
X145598297Y-98546228D01*
X145534147Y-98701100D01*
X145441015Y-98840481D01*
X145322481Y-98959015D01*
X145183100Y-99052147D01*
X145028228Y-99116297D01*
X144863816Y-99149000D01*
X144696184Y-99149000D01*
X144531772Y-99116297D01*
X144376900Y-99052147D01*
X144237519Y-98959015D01*
X144118985Y-98840481D01*
X144025853Y-98701100D01*
X143961703Y-98546228D01*
X143929000Y-98381816D01*
X143929000Y-98214184D01*
X143961703Y-98049772D01*
X144025853Y-97894900D01*
X144118985Y-97755519D01*
X144237519Y-97636985D01*
X144376900Y-97543853D01*
X144531772Y-97479703D01*
X144696184Y-97447000D01*
X144863816Y-97447000D01*
X145028228Y-97479703D01*
G37*
M02*
