G04 #@! TF.GenerationSoftware,KiCad,Pcbnew,(5.1.5-0-10_14)*
G04 #@! TF.CreationDate,2020-05-05T19:22:01-07:00*
G04 #@! TF.ProjectId,N64 CIC Breakout,4e363420-4349-4432-9042-7265616b6f75,rev?*
G04 #@! TF.SameCoordinates,Original*
G04 #@! TF.FileFunction,Copper,L1,Top*
G04 #@! TF.FilePolarity,Positive*
%FSLAX46Y46*%
G04 Gerber Fmt 4.6, Leading zero omitted, Abs format (unit mm)*
G04 Created by KiCad (PCBNEW (5.1.5-0-10_14)) date 2020-05-05 19:22:01*
%MOMM*%
%LPD*%
G04 APERTURE LIST*
%ADD10O,1.700000X1.700000*%
%ADD11R,1.700000X1.700000*%
%ADD12C,0.100000*%
%ADD13O,1.600000X1.600000*%
%ADD14R,1.600000X1.600000*%
%ADD15C,0.600000*%
%ADD16C,0.304800*%
%ADD17C,0.152400*%
G04 APERTURE END LIST*
D10*
X144780000Y-124460000D03*
X144780000Y-121920000D03*
X147320000Y-124460000D03*
X147320000Y-121920000D03*
X149860000Y-124460000D03*
X149860000Y-121920000D03*
X152400000Y-124460000D03*
D11*
X152400000Y-121920000D03*
G04 #@! TA.AperFunction,SMDPad,CuDef*
D12*
G36*
X150714142Y-118173174D02*
G01*
X150737803Y-118176684D01*
X150761007Y-118182496D01*
X150783529Y-118190554D01*
X150805153Y-118200782D01*
X150825670Y-118213079D01*
X150844883Y-118227329D01*
X150862607Y-118243393D01*
X150878671Y-118261117D01*
X150892921Y-118280330D01*
X150905218Y-118300847D01*
X150915446Y-118322471D01*
X150923504Y-118344993D01*
X150929316Y-118368197D01*
X150932826Y-118391858D01*
X150934000Y-118415750D01*
X150934000Y-119328250D01*
X150932826Y-119352142D01*
X150929316Y-119375803D01*
X150923504Y-119399007D01*
X150915446Y-119421529D01*
X150905218Y-119443153D01*
X150892921Y-119463670D01*
X150878671Y-119482883D01*
X150862607Y-119500607D01*
X150844883Y-119516671D01*
X150825670Y-119530921D01*
X150805153Y-119543218D01*
X150783529Y-119553446D01*
X150761007Y-119561504D01*
X150737803Y-119567316D01*
X150714142Y-119570826D01*
X150690250Y-119572000D01*
X150202750Y-119572000D01*
X150178858Y-119570826D01*
X150155197Y-119567316D01*
X150131993Y-119561504D01*
X150109471Y-119553446D01*
X150087847Y-119543218D01*
X150067330Y-119530921D01*
X150048117Y-119516671D01*
X150030393Y-119500607D01*
X150014329Y-119482883D01*
X150000079Y-119463670D01*
X149987782Y-119443153D01*
X149977554Y-119421529D01*
X149969496Y-119399007D01*
X149963684Y-119375803D01*
X149960174Y-119352142D01*
X149959000Y-119328250D01*
X149959000Y-118415750D01*
X149960174Y-118391858D01*
X149963684Y-118368197D01*
X149969496Y-118344993D01*
X149977554Y-118322471D01*
X149987782Y-118300847D01*
X150000079Y-118280330D01*
X150014329Y-118261117D01*
X150030393Y-118243393D01*
X150048117Y-118227329D01*
X150067330Y-118213079D01*
X150087847Y-118200782D01*
X150109471Y-118190554D01*
X150131993Y-118182496D01*
X150155197Y-118176684D01*
X150178858Y-118173174D01*
X150202750Y-118172000D01*
X150690250Y-118172000D01*
X150714142Y-118173174D01*
G37*
G04 #@! TD.AperFunction*
G04 #@! TA.AperFunction,SMDPad,CuDef*
G36*
X152589142Y-118173174D02*
G01*
X152612803Y-118176684D01*
X152636007Y-118182496D01*
X152658529Y-118190554D01*
X152680153Y-118200782D01*
X152700670Y-118213079D01*
X152719883Y-118227329D01*
X152737607Y-118243393D01*
X152753671Y-118261117D01*
X152767921Y-118280330D01*
X152780218Y-118300847D01*
X152790446Y-118322471D01*
X152798504Y-118344993D01*
X152804316Y-118368197D01*
X152807826Y-118391858D01*
X152809000Y-118415750D01*
X152809000Y-119328250D01*
X152807826Y-119352142D01*
X152804316Y-119375803D01*
X152798504Y-119399007D01*
X152790446Y-119421529D01*
X152780218Y-119443153D01*
X152767921Y-119463670D01*
X152753671Y-119482883D01*
X152737607Y-119500607D01*
X152719883Y-119516671D01*
X152700670Y-119530921D01*
X152680153Y-119543218D01*
X152658529Y-119553446D01*
X152636007Y-119561504D01*
X152612803Y-119567316D01*
X152589142Y-119570826D01*
X152565250Y-119572000D01*
X152077750Y-119572000D01*
X152053858Y-119570826D01*
X152030197Y-119567316D01*
X152006993Y-119561504D01*
X151984471Y-119553446D01*
X151962847Y-119543218D01*
X151942330Y-119530921D01*
X151923117Y-119516671D01*
X151905393Y-119500607D01*
X151889329Y-119482883D01*
X151875079Y-119463670D01*
X151862782Y-119443153D01*
X151852554Y-119421529D01*
X151844496Y-119399007D01*
X151838684Y-119375803D01*
X151835174Y-119352142D01*
X151834000Y-119328250D01*
X151834000Y-118415750D01*
X151835174Y-118391858D01*
X151838684Y-118368197D01*
X151844496Y-118344993D01*
X151852554Y-118322471D01*
X151862782Y-118300847D01*
X151875079Y-118280330D01*
X151889329Y-118261117D01*
X151905393Y-118243393D01*
X151923117Y-118227329D01*
X151942330Y-118213079D01*
X151962847Y-118200782D01*
X151984471Y-118190554D01*
X152006993Y-118182496D01*
X152030197Y-118176684D01*
X152053858Y-118173174D01*
X152077750Y-118172000D01*
X152565250Y-118172000D01*
X152589142Y-118173174D01*
G37*
G04 #@! TD.AperFunction*
G04 #@! TA.AperFunction,SMDPad,CuDef*
G36*
X147001142Y-118173174D02*
G01*
X147024803Y-118176684D01*
X147048007Y-118182496D01*
X147070529Y-118190554D01*
X147092153Y-118200782D01*
X147112670Y-118213079D01*
X147131883Y-118227329D01*
X147149607Y-118243393D01*
X147165671Y-118261117D01*
X147179921Y-118280330D01*
X147192218Y-118300847D01*
X147202446Y-118322471D01*
X147210504Y-118344993D01*
X147216316Y-118368197D01*
X147219826Y-118391858D01*
X147221000Y-118415750D01*
X147221000Y-119328250D01*
X147219826Y-119352142D01*
X147216316Y-119375803D01*
X147210504Y-119399007D01*
X147202446Y-119421529D01*
X147192218Y-119443153D01*
X147179921Y-119463670D01*
X147165671Y-119482883D01*
X147149607Y-119500607D01*
X147131883Y-119516671D01*
X147112670Y-119530921D01*
X147092153Y-119543218D01*
X147070529Y-119553446D01*
X147048007Y-119561504D01*
X147024803Y-119567316D01*
X147001142Y-119570826D01*
X146977250Y-119572000D01*
X146489750Y-119572000D01*
X146465858Y-119570826D01*
X146442197Y-119567316D01*
X146418993Y-119561504D01*
X146396471Y-119553446D01*
X146374847Y-119543218D01*
X146354330Y-119530921D01*
X146335117Y-119516671D01*
X146317393Y-119500607D01*
X146301329Y-119482883D01*
X146287079Y-119463670D01*
X146274782Y-119443153D01*
X146264554Y-119421529D01*
X146256496Y-119399007D01*
X146250684Y-119375803D01*
X146247174Y-119352142D01*
X146246000Y-119328250D01*
X146246000Y-118415750D01*
X146247174Y-118391858D01*
X146250684Y-118368197D01*
X146256496Y-118344993D01*
X146264554Y-118322471D01*
X146274782Y-118300847D01*
X146287079Y-118280330D01*
X146301329Y-118261117D01*
X146317393Y-118243393D01*
X146335117Y-118227329D01*
X146354330Y-118213079D01*
X146374847Y-118200782D01*
X146396471Y-118190554D01*
X146418993Y-118182496D01*
X146442197Y-118176684D01*
X146465858Y-118173174D01*
X146489750Y-118172000D01*
X146977250Y-118172000D01*
X147001142Y-118173174D01*
G37*
G04 #@! TD.AperFunction*
G04 #@! TA.AperFunction,SMDPad,CuDef*
G36*
X145126142Y-118173174D02*
G01*
X145149803Y-118176684D01*
X145173007Y-118182496D01*
X145195529Y-118190554D01*
X145217153Y-118200782D01*
X145237670Y-118213079D01*
X145256883Y-118227329D01*
X145274607Y-118243393D01*
X145290671Y-118261117D01*
X145304921Y-118280330D01*
X145317218Y-118300847D01*
X145327446Y-118322471D01*
X145335504Y-118344993D01*
X145341316Y-118368197D01*
X145344826Y-118391858D01*
X145346000Y-118415750D01*
X145346000Y-119328250D01*
X145344826Y-119352142D01*
X145341316Y-119375803D01*
X145335504Y-119399007D01*
X145327446Y-119421529D01*
X145317218Y-119443153D01*
X145304921Y-119463670D01*
X145290671Y-119482883D01*
X145274607Y-119500607D01*
X145256883Y-119516671D01*
X145237670Y-119530921D01*
X145217153Y-119543218D01*
X145195529Y-119553446D01*
X145173007Y-119561504D01*
X145149803Y-119567316D01*
X145126142Y-119570826D01*
X145102250Y-119572000D01*
X144614750Y-119572000D01*
X144590858Y-119570826D01*
X144567197Y-119567316D01*
X144543993Y-119561504D01*
X144521471Y-119553446D01*
X144499847Y-119543218D01*
X144479330Y-119530921D01*
X144460117Y-119516671D01*
X144442393Y-119500607D01*
X144426329Y-119482883D01*
X144412079Y-119463670D01*
X144399782Y-119443153D01*
X144389554Y-119421529D01*
X144381496Y-119399007D01*
X144375684Y-119375803D01*
X144372174Y-119352142D01*
X144371000Y-119328250D01*
X144371000Y-118415750D01*
X144372174Y-118391858D01*
X144375684Y-118368197D01*
X144381496Y-118344993D01*
X144389554Y-118322471D01*
X144399782Y-118300847D01*
X144412079Y-118280330D01*
X144426329Y-118261117D01*
X144442393Y-118243393D01*
X144460117Y-118227329D01*
X144479330Y-118213079D01*
X144499847Y-118200782D01*
X144521471Y-118190554D01*
X144543993Y-118182496D01*
X144567197Y-118176684D01*
X144590858Y-118173174D01*
X144614750Y-118172000D01*
X145102250Y-118172000D01*
X145126142Y-118173174D01*
G37*
G04 #@! TD.AperFunction*
D13*
X144780000Y-116078000D03*
X152400000Y-98298000D03*
X144780000Y-113538000D03*
X152400000Y-100838000D03*
X144780000Y-110998000D03*
X152400000Y-103378000D03*
X144780000Y-108458000D03*
X152400000Y-105918000D03*
X144780000Y-105918000D03*
X152400000Y-108458000D03*
X144780000Y-103378000D03*
X152400000Y-110998000D03*
X144780000Y-100838000D03*
X152400000Y-113538000D03*
X144780000Y-98298000D03*
D14*
X152400000Y-116078000D03*
D15*
X145796000Y-120294400D03*
X149352000Y-119380000D03*
X149352000Y-118364000D03*
X147828000Y-119380000D03*
X147828000Y-118364000D03*
X153924000Y-98298000D03*
X153924000Y-100838000D03*
X153924000Y-103378000D03*
X143256000Y-108458000D03*
D16*
X144372973Y-119357527D02*
X144858500Y-118872000D01*
X143625199Y-123305199D02*
X143625199Y-120105301D01*
X143625199Y-120105301D02*
X144372973Y-119357527D01*
X144780000Y-124460000D02*
X143625199Y-123305199D01*
X152400000Y-118950500D02*
X152321500Y-118872000D01*
X152575500Y-116253500D02*
X152400000Y-116078000D01*
X144858500Y-116156500D02*
X144780000Y-116078000D01*
X144858500Y-118872000D02*
X144858500Y-116156500D01*
X152400000Y-118793500D02*
X152321500Y-118872000D01*
X152400000Y-116078000D02*
X152400000Y-118793500D01*
D17*
X145579999Y-114337999D02*
X144780000Y-113538000D01*
X145808601Y-114566601D02*
X145579999Y-114337999D01*
X145808601Y-120281799D02*
X145796000Y-120294400D01*
X145808601Y-114566601D02*
X145808601Y-120281799D01*
X148590000Y-114808000D02*
X145579999Y-111797999D01*
X145579999Y-111797999D02*
X144780000Y-110998000D01*
X148590000Y-123190000D02*
X148590000Y-114808000D01*
X147320000Y-124460000D02*
X148590000Y-123190000D01*
D16*
X147828000Y-118364000D02*
X147320000Y-118872000D01*
X147320000Y-118872000D02*
X147828000Y-119380000D01*
X147320000Y-118872000D02*
X146733500Y-118872000D01*
X149352000Y-119380000D02*
X149860000Y-118872000D01*
X149860000Y-118872000D02*
X149352000Y-118364000D01*
X149860000Y-118872000D02*
X150446500Y-118872000D01*
X152400000Y-98298000D02*
X153924000Y-98298000D01*
X152400000Y-100838000D02*
X153924000Y-100838000D01*
X152400000Y-103378000D02*
X153924000Y-103378000D01*
X144780000Y-108458000D02*
X143256000Y-108458000D01*
D17*
X145579999Y-104177999D02*
X144780000Y-103378000D01*
X151321399Y-109919399D02*
X145579999Y-104177999D01*
X151321399Y-123381399D02*
X151321399Y-109919399D01*
X152400000Y-124460000D02*
X151321399Y-123381399D01*
X145579999Y-99097999D02*
X144780000Y-98298000D01*
X151130000Y-104648000D02*
X145579999Y-99097999D01*
X153924000Y-105664000D02*
X152908000Y-104648000D01*
X153924000Y-119393600D02*
X153924000Y-105664000D01*
X152400000Y-120917600D02*
X153924000Y-119393600D01*
X152908000Y-104648000D02*
X151130000Y-104648000D01*
X152400000Y-121920000D02*
X152400000Y-120917600D01*
G36*
X154838801Y-126898800D02*
G01*
X142341200Y-126898800D01*
X142341200Y-120105301D01*
X143242356Y-120105301D01*
X143244200Y-120124021D01*
X143244199Y-123286489D01*
X143242356Y-123305199D01*
X143244199Y-123323909D01*
X143244199Y-123323911D01*
X143249712Y-123379887D01*
X143254711Y-123396365D01*
X143271498Y-123451706D01*
X143306877Y-123517895D01*
X143322865Y-123537376D01*
X143354488Y-123575910D01*
X143369031Y-123587845D01*
X143796660Y-124015475D01*
X143742850Y-124145384D01*
X143701400Y-124353767D01*
X143701400Y-124566233D01*
X143742850Y-124774616D01*
X143824157Y-124970909D01*
X143942197Y-125147567D01*
X144092433Y-125297803D01*
X144269091Y-125415843D01*
X144465384Y-125497150D01*
X144673767Y-125538600D01*
X144886233Y-125538600D01*
X145094616Y-125497150D01*
X145290909Y-125415843D01*
X145467567Y-125297803D01*
X145617803Y-125147567D01*
X145735843Y-124970909D01*
X145817150Y-124774616D01*
X145858600Y-124566233D01*
X145858600Y-124353767D01*
X145817150Y-124145384D01*
X145735843Y-123949091D01*
X145617803Y-123772433D01*
X145467567Y-123622197D01*
X145290909Y-123504157D01*
X145094616Y-123422850D01*
X144886233Y-123381400D01*
X144673767Y-123381400D01*
X144465384Y-123422850D01*
X144335475Y-123476660D01*
X144006199Y-123147385D01*
X144006199Y-122671569D01*
X144092433Y-122757803D01*
X144269091Y-122875843D01*
X144465384Y-122957150D01*
X144673767Y-122998600D01*
X144886233Y-122998600D01*
X145094616Y-122957150D01*
X145290909Y-122875843D01*
X145467567Y-122757803D01*
X145617803Y-122607567D01*
X145735843Y-122430909D01*
X145782511Y-122318240D01*
X145942192Y-122318240D01*
X146046359Y-122579385D01*
X146199471Y-122815190D01*
X146395645Y-123016594D01*
X146627341Y-123175856D01*
X146885656Y-123286856D01*
X146921761Y-123297801D01*
X147142200Y-123195820D01*
X147142200Y-122097800D01*
X146042907Y-122097800D01*
X145942192Y-122318240D01*
X145782511Y-122318240D01*
X145817150Y-122234616D01*
X145858600Y-122026233D01*
X145858600Y-121813767D01*
X145817150Y-121605384D01*
X145782512Y-121521760D01*
X145942192Y-121521760D01*
X146042907Y-121742200D01*
X147142200Y-121742200D01*
X147142200Y-120644180D01*
X146921761Y-120542199D01*
X146885656Y-120553144D01*
X146627341Y-120664144D01*
X146395645Y-120823406D01*
X146199471Y-121024810D01*
X146046359Y-121260615D01*
X145942192Y-121521760D01*
X145782512Y-121521760D01*
X145735843Y-121409091D01*
X145617803Y-121232433D01*
X145467567Y-121082197D01*
X145290909Y-120964157D01*
X145094616Y-120882850D01*
X144886233Y-120841400D01*
X144673767Y-120841400D01*
X144465384Y-120882850D01*
X144269091Y-120964157D01*
X144092433Y-121082197D01*
X144006199Y-121168431D01*
X144006199Y-120263115D01*
X144487337Y-119781978D01*
X144522383Y-119792609D01*
X144614750Y-119801706D01*
X145102250Y-119801706D01*
X145194617Y-119792609D01*
X145283434Y-119765666D01*
X145365288Y-119721914D01*
X145437034Y-119663034D01*
X145495914Y-119591288D01*
X145503802Y-119576531D01*
X145503802Y-119853898D01*
X145459037Y-119883809D01*
X145385409Y-119957437D01*
X145327560Y-120044014D01*
X145287713Y-120140213D01*
X145267400Y-120242337D01*
X145267400Y-120346463D01*
X145287713Y-120448587D01*
X145327560Y-120544786D01*
X145385409Y-120631363D01*
X145459037Y-120704991D01*
X145545614Y-120762840D01*
X145641813Y-120802687D01*
X145743937Y-120823000D01*
X145848063Y-120823000D01*
X145950187Y-120802687D01*
X146046386Y-120762840D01*
X146132963Y-120704991D01*
X146206591Y-120631363D01*
X146264440Y-120544786D01*
X146304287Y-120448587D01*
X146324600Y-120346463D01*
X146324600Y-120242337D01*
X146307817Y-120157959D01*
X146409650Y-120156200D01*
X146555700Y-120010150D01*
X146555700Y-119049800D01*
X146911300Y-119049800D01*
X146911300Y-120010150D01*
X147057350Y-120156200D01*
X147221000Y-120159027D01*
X147335523Y-120147747D01*
X147445646Y-120114342D01*
X147547135Y-120060095D01*
X147636091Y-119987091D01*
X147709095Y-119898135D01*
X147763342Y-119796646D01*
X147796747Y-119686523D01*
X147808027Y-119572000D01*
X147805200Y-119195850D01*
X147659150Y-119049800D01*
X146911300Y-119049800D01*
X146555700Y-119049800D01*
X146535700Y-119049800D01*
X146535700Y-118694200D01*
X146555700Y-118694200D01*
X146555700Y-117733850D01*
X146911300Y-117733850D01*
X146911300Y-118694200D01*
X147659150Y-118694200D01*
X147805200Y-118548150D01*
X147808027Y-118172000D01*
X147796747Y-118057477D01*
X147763342Y-117947354D01*
X147709095Y-117845865D01*
X147636091Y-117756909D01*
X147547135Y-117683905D01*
X147445646Y-117629658D01*
X147335523Y-117596253D01*
X147221000Y-117584973D01*
X147057350Y-117587800D01*
X146911300Y-117733850D01*
X146555700Y-117733850D01*
X146409650Y-117587800D01*
X146246000Y-117584973D01*
X146131477Y-117596253D01*
X146113401Y-117601736D01*
X146113401Y-114581558D01*
X146114874Y-114566600D01*
X146113401Y-114551642D01*
X146113401Y-114551635D01*
X146108990Y-114506850D01*
X146091561Y-114449395D01*
X146063259Y-114396444D01*
X146025169Y-114350033D01*
X146013546Y-114340494D01*
X145806111Y-114133060D01*
X145806107Y-114133055D01*
X145693509Y-114020457D01*
X145769072Y-113838032D01*
X145808600Y-113639308D01*
X145808600Y-113436692D01*
X145769072Y-113237968D01*
X145691534Y-113050775D01*
X145578966Y-112882306D01*
X145435694Y-112739034D01*
X145267225Y-112626466D01*
X145080032Y-112548928D01*
X144881308Y-112509400D01*
X144678692Y-112509400D01*
X144479968Y-112548928D01*
X144292775Y-112626466D01*
X144124306Y-112739034D01*
X143981034Y-112882306D01*
X143868466Y-113050775D01*
X143790928Y-113237968D01*
X143751400Y-113436692D01*
X143751400Y-113639308D01*
X143790928Y-113838032D01*
X143868466Y-114025225D01*
X143981034Y-114193694D01*
X144124306Y-114336966D01*
X144292775Y-114449534D01*
X144479968Y-114527072D01*
X144678692Y-114566600D01*
X144881308Y-114566600D01*
X145080032Y-114527072D01*
X145262457Y-114451509D01*
X145375055Y-114564107D01*
X145375060Y-114564111D01*
X145503801Y-114692853D01*
X145503801Y-115347141D01*
X145435694Y-115279034D01*
X145267225Y-115166466D01*
X145080032Y-115088928D01*
X144881308Y-115049400D01*
X144678692Y-115049400D01*
X144479968Y-115088928D01*
X144292775Y-115166466D01*
X144124306Y-115279034D01*
X143981034Y-115422306D01*
X143868466Y-115590775D01*
X143790928Y-115777968D01*
X143751400Y-115976692D01*
X143751400Y-116179308D01*
X143790928Y-116378032D01*
X143868466Y-116565225D01*
X143981034Y-116733694D01*
X144124306Y-116876966D01*
X144292775Y-116989534D01*
X144477501Y-117066050D01*
X144477500Y-117965006D01*
X144433566Y-117978334D01*
X144351712Y-118022086D01*
X144279966Y-118080966D01*
X144221086Y-118152712D01*
X144177334Y-118234566D01*
X144150391Y-118323383D01*
X144141294Y-118415750D01*
X144141294Y-119050392D01*
X144116802Y-119074884D01*
X144116797Y-119074888D01*
X143369026Y-119822660D01*
X143354489Y-119834590D01*
X143342560Y-119849126D01*
X143306877Y-119892605D01*
X143271498Y-119958794D01*
X143249713Y-120030613D01*
X143242356Y-120105301D01*
X142341200Y-120105301D01*
X142341200Y-110896692D01*
X143751400Y-110896692D01*
X143751400Y-111099308D01*
X143790928Y-111298032D01*
X143868466Y-111485225D01*
X143981034Y-111653694D01*
X144124306Y-111796966D01*
X144292775Y-111909534D01*
X144479968Y-111987072D01*
X144678692Y-112026600D01*
X144881308Y-112026600D01*
X145080032Y-111987072D01*
X145262457Y-111911509D01*
X145375055Y-112024107D01*
X145375061Y-112024112D01*
X148285201Y-114934253D01*
X148285200Y-120865340D01*
X148244355Y-120823406D01*
X148012659Y-120664144D01*
X147754344Y-120553144D01*
X147718239Y-120542199D01*
X147497800Y-120644180D01*
X147497800Y-121742200D01*
X147517800Y-121742200D01*
X147517800Y-122097800D01*
X147497800Y-122097800D01*
X147497800Y-123195820D01*
X147718239Y-123297801D01*
X147754344Y-123286856D01*
X148012659Y-123175856D01*
X148244355Y-123016594D01*
X148285200Y-122974660D01*
X148285200Y-123063748D01*
X147839231Y-123509718D01*
X147830909Y-123504157D01*
X147634616Y-123422850D01*
X147426233Y-123381400D01*
X147213767Y-123381400D01*
X147005384Y-123422850D01*
X146809091Y-123504157D01*
X146632433Y-123622197D01*
X146482197Y-123772433D01*
X146364157Y-123949091D01*
X146282850Y-124145384D01*
X146241400Y-124353767D01*
X146241400Y-124566233D01*
X146282850Y-124774616D01*
X146364157Y-124970909D01*
X146482197Y-125147567D01*
X146632433Y-125297803D01*
X146809091Y-125415843D01*
X147005384Y-125497150D01*
X147213767Y-125538600D01*
X147426233Y-125538600D01*
X147634616Y-125497150D01*
X147830909Y-125415843D01*
X148007567Y-125297803D01*
X148157803Y-125147567D01*
X148275843Y-124970909D01*
X148322511Y-124858240D01*
X148482192Y-124858240D01*
X148586359Y-125119385D01*
X148739471Y-125355190D01*
X148935645Y-125556594D01*
X149167341Y-125715856D01*
X149425656Y-125826856D01*
X149461761Y-125837801D01*
X149682200Y-125735820D01*
X149682200Y-124637800D01*
X150037800Y-124637800D01*
X150037800Y-125735820D01*
X150258239Y-125837801D01*
X150294344Y-125826856D01*
X150552659Y-125715856D01*
X150784355Y-125556594D01*
X150980529Y-125355190D01*
X151133641Y-125119385D01*
X151237808Y-124858240D01*
X151137093Y-124637800D01*
X150037800Y-124637800D01*
X149682200Y-124637800D01*
X148582907Y-124637800D01*
X148482192Y-124858240D01*
X148322511Y-124858240D01*
X148357150Y-124774616D01*
X148398600Y-124566233D01*
X148398600Y-124353767D01*
X148357150Y-124145384D01*
X148275843Y-123949091D01*
X148270282Y-123940769D01*
X148794945Y-123416107D01*
X148806568Y-123406568D01*
X148844658Y-123360157D01*
X148872960Y-123307206D01*
X148890389Y-123249751D01*
X148894800Y-123204966D01*
X148894800Y-123204959D01*
X148896273Y-123190001D01*
X148894800Y-123175043D01*
X148894800Y-122974660D01*
X148935645Y-123016594D01*
X149167341Y-123175856D01*
X149200256Y-123190000D01*
X149167341Y-123204144D01*
X148935645Y-123363406D01*
X148739471Y-123564810D01*
X148586359Y-123800615D01*
X148482192Y-124061760D01*
X148582907Y-124282200D01*
X149682200Y-124282200D01*
X149682200Y-122097800D01*
X149662200Y-122097800D01*
X149662200Y-121742200D01*
X149682200Y-121742200D01*
X149682200Y-120644180D01*
X149461761Y-120542199D01*
X149425656Y-120553144D01*
X149167341Y-120664144D01*
X148935645Y-120823406D01*
X148894800Y-120865340D01*
X148894800Y-119572000D01*
X149371973Y-119572000D01*
X149383253Y-119686523D01*
X149416658Y-119796646D01*
X149470905Y-119898135D01*
X149543909Y-119987091D01*
X149632865Y-120060095D01*
X149734354Y-120114342D01*
X149844477Y-120147747D01*
X149959000Y-120159027D01*
X150122650Y-120156200D01*
X150268700Y-120010150D01*
X150268700Y-119049800D01*
X149520850Y-119049800D01*
X149374800Y-119195850D01*
X149371973Y-119572000D01*
X148894800Y-119572000D01*
X148894800Y-118172000D01*
X149371973Y-118172000D01*
X149374800Y-118548150D01*
X149520850Y-118694200D01*
X150268700Y-118694200D01*
X150268700Y-117733850D01*
X150122650Y-117587800D01*
X149959000Y-117584973D01*
X149844477Y-117596253D01*
X149734354Y-117629658D01*
X149632865Y-117683905D01*
X149543909Y-117756909D01*
X149470905Y-117845865D01*
X149416658Y-117947354D01*
X149383253Y-118057477D01*
X149371973Y-118172000D01*
X148894800Y-118172000D01*
X148894800Y-114822957D01*
X148896273Y-114807999D01*
X148894800Y-114793041D01*
X148894800Y-114793034D01*
X148890389Y-114748249D01*
X148872960Y-114690794D01*
X148844658Y-114637843D01*
X148806568Y-114591432D01*
X148794944Y-114581892D01*
X145806112Y-111593061D01*
X145806107Y-111593055D01*
X145693509Y-111480457D01*
X145769072Y-111298032D01*
X145808600Y-111099308D01*
X145808600Y-110896692D01*
X145769072Y-110697968D01*
X145691534Y-110510775D01*
X145578966Y-110342306D01*
X145435694Y-110199034D01*
X145267225Y-110086466D01*
X145080032Y-110008928D01*
X144881308Y-109969400D01*
X144678692Y-109969400D01*
X144479968Y-110008928D01*
X144292775Y-110086466D01*
X144124306Y-110199034D01*
X143981034Y-110342306D01*
X143868466Y-110510775D01*
X143790928Y-110697968D01*
X143751400Y-110896692D01*
X142341200Y-110896692D01*
X142341200Y-108848354D01*
X143451982Y-108848354D01*
X143458917Y-108871244D01*
X143564921Y-109121034D01*
X143717620Y-109345344D01*
X143911146Y-109535554D01*
X144138061Y-109684354D01*
X144389645Y-109786026D01*
X144602200Y-109684691D01*
X144602200Y-108635800D01*
X144957800Y-108635800D01*
X144957800Y-109684691D01*
X145170355Y-109786026D01*
X145421939Y-109684354D01*
X145648854Y-109535554D01*
X145842380Y-109345344D01*
X145995079Y-109121034D01*
X146101083Y-108871244D01*
X146108018Y-108848354D01*
X146005317Y-108635800D01*
X144957800Y-108635800D01*
X144602200Y-108635800D01*
X143554683Y-108635800D01*
X143451982Y-108848354D01*
X142341200Y-108848354D01*
X142341200Y-108067646D01*
X143451982Y-108067646D01*
X143554683Y-108280200D01*
X144602200Y-108280200D01*
X144602200Y-107231309D01*
X144957800Y-107231309D01*
X144957800Y-108280200D01*
X146005317Y-108280200D01*
X146108018Y-108067646D01*
X146101083Y-108044756D01*
X145995079Y-107794966D01*
X145842380Y-107570656D01*
X145648854Y-107380446D01*
X145421939Y-107231646D01*
X145170355Y-107129974D01*
X144957800Y-107231309D01*
X144602200Y-107231309D01*
X144389645Y-107129974D01*
X144138061Y-107231646D01*
X143911146Y-107380446D01*
X143717620Y-107570656D01*
X143564921Y-107794966D01*
X143458917Y-108044756D01*
X143451982Y-108067646D01*
X142341200Y-108067646D01*
X142341200Y-105816692D01*
X143751400Y-105816692D01*
X143751400Y-106019308D01*
X143790928Y-106218032D01*
X143868466Y-106405225D01*
X143981034Y-106573694D01*
X144124306Y-106716966D01*
X144292775Y-106829534D01*
X144479968Y-106907072D01*
X144678692Y-106946600D01*
X144881308Y-106946600D01*
X145080032Y-106907072D01*
X145267225Y-106829534D01*
X145435694Y-106716966D01*
X145578966Y-106573694D01*
X145691534Y-106405225D01*
X145769072Y-106218032D01*
X145808600Y-106019308D01*
X145808600Y-105816692D01*
X145769072Y-105617968D01*
X145691534Y-105430775D01*
X145578966Y-105262306D01*
X145435694Y-105119034D01*
X145267225Y-105006466D01*
X145080032Y-104928928D01*
X144881308Y-104889400D01*
X144678692Y-104889400D01*
X144479968Y-104928928D01*
X144292775Y-105006466D01*
X144124306Y-105119034D01*
X143981034Y-105262306D01*
X143868466Y-105430775D01*
X143790928Y-105617968D01*
X143751400Y-105816692D01*
X142341200Y-105816692D01*
X142341200Y-100736692D01*
X143751400Y-100736692D01*
X143751400Y-100939308D01*
X143790928Y-101138032D01*
X143868466Y-101325225D01*
X143981034Y-101493694D01*
X144124306Y-101636966D01*
X144292775Y-101749534D01*
X144479968Y-101827072D01*
X144678692Y-101866600D01*
X144881308Y-101866600D01*
X145080032Y-101827072D01*
X145267225Y-101749534D01*
X145435694Y-101636966D01*
X145578966Y-101493694D01*
X145691534Y-101325225D01*
X145769072Y-101138032D01*
X145808600Y-100939308D01*
X145808600Y-100736692D01*
X145769072Y-100537968D01*
X145691534Y-100350775D01*
X145578966Y-100182306D01*
X145435694Y-100039034D01*
X145267225Y-99926466D01*
X145080032Y-99848928D01*
X144881308Y-99809400D01*
X144678692Y-99809400D01*
X144479968Y-99848928D01*
X144292775Y-99926466D01*
X144124306Y-100039034D01*
X143981034Y-100182306D01*
X143868466Y-100350775D01*
X143790928Y-100537968D01*
X143751400Y-100736692D01*
X142341200Y-100736692D01*
X142341200Y-98196692D01*
X143751400Y-98196692D01*
X143751400Y-98399308D01*
X143790928Y-98598032D01*
X143868466Y-98785225D01*
X143981034Y-98953694D01*
X144124306Y-99096966D01*
X144292775Y-99209534D01*
X144479968Y-99287072D01*
X144678692Y-99326600D01*
X144881308Y-99326600D01*
X145080032Y-99287072D01*
X145262457Y-99211509D01*
X145375055Y-99324107D01*
X145375061Y-99324112D01*
X150903891Y-104852943D01*
X150913432Y-104864568D01*
X150959843Y-104902658D01*
X151008992Y-104928928D01*
X151012794Y-104930960D01*
X151070248Y-104948389D01*
X151075403Y-104948897D01*
X151115034Y-104952800D01*
X151115042Y-104952800D01*
X151130000Y-104954273D01*
X151144958Y-104952800D01*
X152042336Y-104952800D01*
X151912775Y-105006466D01*
X151744306Y-105119034D01*
X151601034Y-105262306D01*
X151488466Y-105430775D01*
X151410928Y-105617968D01*
X151371400Y-105816692D01*
X151371400Y-106019308D01*
X151410928Y-106218032D01*
X151488466Y-106405225D01*
X151601034Y-106573694D01*
X151744306Y-106716966D01*
X151912775Y-106829534D01*
X152099968Y-106907072D01*
X152298692Y-106946600D01*
X152501308Y-106946600D01*
X152700032Y-106907072D01*
X152887225Y-106829534D01*
X153055694Y-106716966D01*
X153198966Y-106573694D01*
X153311534Y-106405225D01*
X153389072Y-106218032D01*
X153428600Y-106019308D01*
X153428600Y-105816692D01*
X153389072Y-105617968D01*
X153348170Y-105519221D01*
X153619201Y-105790253D01*
X153619200Y-119267348D01*
X152195057Y-120691492D01*
X152183433Y-120701032D01*
X152145343Y-120747443D01*
X152130215Y-120775746D01*
X152117040Y-120800395D01*
X152104936Y-120840294D01*
X151626199Y-120840294D01*
X151626199Y-119462838D01*
X151640334Y-119509434D01*
X151684086Y-119591288D01*
X151742966Y-119663034D01*
X151814712Y-119721914D01*
X151896566Y-119765666D01*
X151985383Y-119792609D01*
X152077750Y-119801706D01*
X152565250Y-119801706D01*
X152657617Y-119792609D01*
X152746434Y-119765666D01*
X152828288Y-119721914D01*
X152900034Y-119663034D01*
X152958914Y-119591288D01*
X153002666Y-119509434D01*
X153029609Y-119420617D01*
X153038706Y-119328250D01*
X153038706Y-118415750D01*
X153029609Y-118323383D01*
X153002666Y-118234566D01*
X152958914Y-118152712D01*
X152900034Y-118080966D01*
X152828288Y-118022086D01*
X152781000Y-117996810D01*
X152781000Y-117107706D01*
X153200000Y-117107706D01*
X153244813Y-117103292D01*
X153287905Y-117090221D01*
X153327618Y-117068994D01*
X153362427Y-117040427D01*
X153390994Y-117005618D01*
X153412221Y-116965905D01*
X153425292Y-116922813D01*
X153429706Y-116878000D01*
X153429706Y-115278000D01*
X153425292Y-115233187D01*
X153412221Y-115190095D01*
X153390994Y-115150382D01*
X153362427Y-115115573D01*
X153327618Y-115087006D01*
X153287905Y-115065779D01*
X153244813Y-115052708D01*
X153200000Y-115048294D01*
X151626199Y-115048294D01*
X151626199Y-114218859D01*
X151744306Y-114336966D01*
X151912775Y-114449534D01*
X152099968Y-114527072D01*
X152298692Y-114566600D01*
X152501308Y-114566600D01*
X152700032Y-114527072D01*
X152887225Y-114449534D01*
X153055694Y-114336966D01*
X153198966Y-114193694D01*
X153311534Y-114025225D01*
X153389072Y-113838032D01*
X153428600Y-113639308D01*
X153428600Y-113436692D01*
X153389072Y-113237968D01*
X153311534Y-113050775D01*
X153198966Y-112882306D01*
X153055694Y-112739034D01*
X152887225Y-112626466D01*
X152700032Y-112548928D01*
X152501308Y-112509400D01*
X152298692Y-112509400D01*
X152099968Y-112548928D01*
X151912775Y-112626466D01*
X151744306Y-112739034D01*
X151626199Y-112857141D01*
X151626199Y-111678859D01*
X151744306Y-111796966D01*
X151912775Y-111909534D01*
X152099968Y-111987072D01*
X152298692Y-112026600D01*
X152501308Y-112026600D01*
X152700032Y-111987072D01*
X152887225Y-111909534D01*
X153055694Y-111796966D01*
X153198966Y-111653694D01*
X153311534Y-111485225D01*
X153389072Y-111298032D01*
X153428600Y-111099308D01*
X153428600Y-110896692D01*
X153389072Y-110697968D01*
X153311534Y-110510775D01*
X153198966Y-110342306D01*
X153055694Y-110199034D01*
X152887225Y-110086466D01*
X152700032Y-110008928D01*
X152501308Y-109969400D01*
X152298692Y-109969400D01*
X152099968Y-110008928D01*
X151912775Y-110086466D01*
X151744306Y-110199034D01*
X151626199Y-110317141D01*
X151626199Y-109934357D01*
X151627672Y-109919399D01*
X151626199Y-109904441D01*
X151626199Y-109904433D01*
X151621788Y-109859648D01*
X151604359Y-109802193D01*
X151576057Y-109749242D01*
X151537967Y-109702831D01*
X151526343Y-109693291D01*
X150189744Y-108356692D01*
X151371400Y-108356692D01*
X151371400Y-108559308D01*
X151410928Y-108758032D01*
X151488466Y-108945225D01*
X151601034Y-109113694D01*
X151744306Y-109256966D01*
X151912775Y-109369534D01*
X152099968Y-109447072D01*
X152298692Y-109486600D01*
X152501308Y-109486600D01*
X152700032Y-109447072D01*
X152887225Y-109369534D01*
X153055694Y-109256966D01*
X153198966Y-109113694D01*
X153311534Y-108945225D01*
X153389072Y-108758032D01*
X153428600Y-108559308D01*
X153428600Y-108356692D01*
X153389072Y-108157968D01*
X153311534Y-107970775D01*
X153198966Y-107802306D01*
X153055694Y-107659034D01*
X152887225Y-107546466D01*
X152700032Y-107468928D01*
X152501308Y-107429400D01*
X152298692Y-107429400D01*
X152099968Y-107468928D01*
X151912775Y-107546466D01*
X151744306Y-107659034D01*
X151601034Y-107802306D01*
X151488466Y-107970775D01*
X151410928Y-108157968D01*
X151371400Y-108356692D01*
X150189744Y-108356692D01*
X145806112Y-103973061D01*
X145806107Y-103973055D01*
X145693509Y-103860457D01*
X145769072Y-103678032D01*
X145808600Y-103479308D01*
X145808600Y-103276692D01*
X145769072Y-103077968D01*
X145691534Y-102890775D01*
X145578966Y-102722306D01*
X145435694Y-102579034D01*
X145267225Y-102466466D01*
X145080032Y-102388928D01*
X144881308Y-102349400D01*
X144678692Y-102349400D01*
X144479968Y-102388928D01*
X144292775Y-102466466D01*
X144124306Y-102579034D01*
X143981034Y-102722306D01*
X143868466Y-102890775D01*
X143790928Y-103077968D01*
X143751400Y-103276692D01*
X143751400Y-103479308D01*
X143790928Y-103678032D01*
X143868466Y-103865225D01*
X143981034Y-104033694D01*
X144124306Y-104176966D01*
X144292775Y-104289534D01*
X144479968Y-104367072D01*
X144678692Y-104406600D01*
X144881308Y-104406600D01*
X145080032Y-104367072D01*
X145262457Y-104291509D01*
X145375055Y-104404107D01*
X145375061Y-104404112D01*
X151016600Y-110045652D01*
X151016599Y-117593109D01*
X150934000Y-117584973D01*
X150770350Y-117587800D01*
X150624300Y-117733850D01*
X150624300Y-118694200D01*
X150644300Y-118694200D01*
X150644300Y-119049800D01*
X150624300Y-119049800D01*
X150624300Y-120010150D01*
X150770350Y-120156200D01*
X150934000Y-120159027D01*
X151016599Y-120150891D01*
X151016599Y-121080361D01*
X150980529Y-121024810D01*
X150784355Y-120823406D01*
X150552659Y-120664144D01*
X150294344Y-120553144D01*
X150258239Y-120542199D01*
X150037800Y-120644180D01*
X150037800Y-121742200D01*
X150057800Y-121742200D01*
X150057800Y-122097800D01*
X150037800Y-122097800D01*
X150037800Y-124282200D01*
X151137093Y-124282200D01*
X151237808Y-124061760D01*
X151133641Y-123800615D01*
X150980529Y-123564810D01*
X150784355Y-123363406D01*
X150552659Y-123204144D01*
X150519744Y-123190000D01*
X150552659Y-123175856D01*
X150784355Y-123016594D01*
X150980529Y-122815190D01*
X151016599Y-122759639D01*
X151016599Y-123366441D01*
X151015126Y-123381399D01*
X151016599Y-123396357D01*
X151016599Y-123396364D01*
X151021010Y-123441149D01*
X151038439Y-123498604D01*
X151066741Y-123551555D01*
X151104831Y-123597967D01*
X151116460Y-123607511D01*
X151449718Y-123940769D01*
X151444157Y-123949091D01*
X151362850Y-124145384D01*
X151321400Y-124353767D01*
X151321400Y-124566233D01*
X151362850Y-124774616D01*
X151444157Y-124970909D01*
X151562197Y-125147567D01*
X151712433Y-125297803D01*
X151889091Y-125415843D01*
X152085384Y-125497150D01*
X152293767Y-125538600D01*
X152506233Y-125538600D01*
X152714616Y-125497150D01*
X152910909Y-125415843D01*
X153087567Y-125297803D01*
X153237803Y-125147567D01*
X153355843Y-124970909D01*
X153437150Y-124774616D01*
X153478600Y-124566233D01*
X153478600Y-124353767D01*
X153437150Y-124145384D01*
X153355843Y-123949091D01*
X153237803Y-123772433D01*
X153087567Y-123622197D01*
X152910909Y-123504157D01*
X152714616Y-123422850D01*
X152506233Y-123381400D01*
X152293767Y-123381400D01*
X152085384Y-123422850D01*
X151889091Y-123504157D01*
X151880769Y-123509718D01*
X151626199Y-123255148D01*
X151626199Y-122999706D01*
X153250000Y-122999706D01*
X153294813Y-122995292D01*
X153337905Y-122982221D01*
X153377618Y-122960994D01*
X153412427Y-122932427D01*
X153440994Y-122897618D01*
X153462221Y-122857905D01*
X153475292Y-122814813D01*
X153479706Y-122770000D01*
X153479706Y-121070000D01*
X153475292Y-121025187D01*
X153462221Y-120982095D01*
X153440994Y-120942382D01*
X153412427Y-120907573D01*
X153377618Y-120879006D01*
X153337905Y-120857779D01*
X153294813Y-120844708D01*
X153250000Y-120840294D01*
X152908357Y-120840294D01*
X154128945Y-119619707D01*
X154140568Y-119610168D01*
X154178658Y-119563757D01*
X154206960Y-119510806D01*
X154224389Y-119453351D01*
X154228800Y-119408566D01*
X154228800Y-119408559D01*
X154230273Y-119393601D01*
X154228800Y-119378643D01*
X154228800Y-105678958D01*
X154230273Y-105664000D01*
X154228800Y-105649042D01*
X154228800Y-105649034D01*
X154224389Y-105604249D01*
X154206960Y-105546794D01*
X154178658Y-105493843D01*
X154140568Y-105447432D01*
X154128944Y-105437892D01*
X153195021Y-104503970D01*
X153268854Y-104455554D01*
X153462380Y-104265344D01*
X153615079Y-104041034D01*
X153721083Y-103791244D01*
X153728018Y-103768354D01*
X153625317Y-103555800D01*
X152577800Y-103555800D01*
X152577800Y-103575800D01*
X152222200Y-103575800D01*
X152222200Y-103555800D01*
X151174683Y-103555800D01*
X151071982Y-103768354D01*
X151078917Y-103791244D01*
X151184921Y-104041034D01*
X151337620Y-104265344D01*
X151416833Y-104343200D01*
X151256252Y-104343200D01*
X148141406Y-101228354D01*
X151071982Y-101228354D01*
X151078917Y-101251244D01*
X151184921Y-101501034D01*
X151337620Y-101725344D01*
X151531146Y-101915554D01*
X151758061Y-102064354D01*
X151866062Y-102108000D01*
X151758061Y-102151646D01*
X151531146Y-102300446D01*
X151337620Y-102490656D01*
X151184921Y-102714966D01*
X151078917Y-102964756D01*
X151071982Y-102987646D01*
X151174683Y-103200200D01*
X152222200Y-103200200D01*
X152222200Y-102151309D01*
X152131357Y-102108000D01*
X152222200Y-102064691D01*
X152222200Y-101015800D01*
X152577800Y-101015800D01*
X152577800Y-102064691D01*
X152668643Y-102108000D01*
X152577800Y-102151309D01*
X152577800Y-103200200D01*
X153625317Y-103200200D01*
X153728018Y-102987646D01*
X153721083Y-102964756D01*
X153615079Y-102714966D01*
X153462380Y-102490656D01*
X153268854Y-102300446D01*
X153041939Y-102151646D01*
X152933938Y-102108000D01*
X153041939Y-102064354D01*
X153268854Y-101915554D01*
X153462380Y-101725344D01*
X153615079Y-101501034D01*
X153721083Y-101251244D01*
X153728018Y-101228354D01*
X153625317Y-101015800D01*
X152577800Y-101015800D01*
X152222200Y-101015800D01*
X151174683Y-101015800D01*
X151071982Y-101228354D01*
X148141406Y-101228354D01*
X145806112Y-98893061D01*
X145806107Y-98893055D01*
X145693509Y-98780457D01*
X145731659Y-98688354D01*
X151071982Y-98688354D01*
X151078917Y-98711244D01*
X151184921Y-98961034D01*
X151337620Y-99185344D01*
X151531146Y-99375554D01*
X151758061Y-99524354D01*
X151866062Y-99568000D01*
X151758061Y-99611646D01*
X151531146Y-99760446D01*
X151337620Y-99950656D01*
X151184921Y-100174966D01*
X151078917Y-100424756D01*
X151071982Y-100447646D01*
X151174683Y-100660200D01*
X152222200Y-100660200D01*
X152222200Y-99611309D01*
X152131357Y-99568000D01*
X152222200Y-99524691D01*
X152222200Y-98475800D01*
X152577800Y-98475800D01*
X152577800Y-99524691D01*
X152668643Y-99568000D01*
X152577800Y-99611309D01*
X152577800Y-100660200D01*
X153625317Y-100660200D01*
X153728018Y-100447646D01*
X153721083Y-100424756D01*
X153615079Y-100174966D01*
X153462380Y-99950656D01*
X153268854Y-99760446D01*
X153041939Y-99611646D01*
X152933938Y-99568000D01*
X153041939Y-99524354D01*
X153268854Y-99375554D01*
X153462380Y-99185344D01*
X153615079Y-98961034D01*
X153721083Y-98711244D01*
X153728018Y-98688354D01*
X153625317Y-98475800D01*
X152577800Y-98475800D01*
X152222200Y-98475800D01*
X151174683Y-98475800D01*
X151071982Y-98688354D01*
X145731659Y-98688354D01*
X145769072Y-98598032D01*
X145808600Y-98399308D01*
X145808600Y-98196692D01*
X145769072Y-97997968D01*
X145731660Y-97907646D01*
X151071982Y-97907646D01*
X151174683Y-98120200D01*
X152222200Y-98120200D01*
X152222200Y-97071309D01*
X152577800Y-97071309D01*
X152577800Y-98120200D01*
X153625317Y-98120200D01*
X153728018Y-97907646D01*
X153721083Y-97884756D01*
X153615079Y-97634966D01*
X153462380Y-97410656D01*
X153268854Y-97220446D01*
X153041939Y-97071646D01*
X152790355Y-96969974D01*
X152577800Y-97071309D01*
X152222200Y-97071309D01*
X152009645Y-96969974D01*
X151758061Y-97071646D01*
X151531146Y-97220446D01*
X151337620Y-97410656D01*
X151184921Y-97634966D01*
X151078917Y-97884756D01*
X151071982Y-97907646D01*
X145731660Y-97907646D01*
X145691534Y-97810775D01*
X145578966Y-97642306D01*
X145435694Y-97499034D01*
X145267225Y-97386466D01*
X145080032Y-97308928D01*
X144881308Y-97269400D01*
X144678692Y-97269400D01*
X144479968Y-97308928D01*
X144292775Y-97386466D01*
X144124306Y-97499034D01*
X143981034Y-97642306D01*
X143868466Y-97810775D01*
X143790928Y-97997968D01*
X143751400Y-98196692D01*
X142341200Y-98196692D01*
X142341200Y-95351200D01*
X154838800Y-95351200D01*
X154838801Y-126898800D01*
G37*
X154838801Y-126898800D02*
X142341200Y-126898800D01*
X142341200Y-120105301D01*
X143242356Y-120105301D01*
X143244200Y-120124021D01*
X143244199Y-123286489D01*
X143242356Y-123305199D01*
X143244199Y-123323909D01*
X143244199Y-123323911D01*
X143249712Y-123379887D01*
X143254711Y-123396365D01*
X143271498Y-123451706D01*
X143306877Y-123517895D01*
X143322865Y-123537376D01*
X143354488Y-123575910D01*
X143369031Y-123587845D01*
X143796660Y-124015475D01*
X143742850Y-124145384D01*
X143701400Y-124353767D01*
X143701400Y-124566233D01*
X143742850Y-124774616D01*
X143824157Y-124970909D01*
X143942197Y-125147567D01*
X144092433Y-125297803D01*
X144269091Y-125415843D01*
X144465384Y-125497150D01*
X144673767Y-125538600D01*
X144886233Y-125538600D01*
X145094616Y-125497150D01*
X145290909Y-125415843D01*
X145467567Y-125297803D01*
X145617803Y-125147567D01*
X145735843Y-124970909D01*
X145817150Y-124774616D01*
X145858600Y-124566233D01*
X145858600Y-124353767D01*
X145817150Y-124145384D01*
X145735843Y-123949091D01*
X145617803Y-123772433D01*
X145467567Y-123622197D01*
X145290909Y-123504157D01*
X145094616Y-123422850D01*
X144886233Y-123381400D01*
X144673767Y-123381400D01*
X144465384Y-123422850D01*
X144335475Y-123476660D01*
X144006199Y-123147385D01*
X144006199Y-122671569D01*
X144092433Y-122757803D01*
X144269091Y-122875843D01*
X144465384Y-122957150D01*
X144673767Y-122998600D01*
X144886233Y-122998600D01*
X145094616Y-122957150D01*
X145290909Y-122875843D01*
X145467567Y-122757803D01*
X145617803Y-122607567D01*
X145735843Y-122430909D01*
X145782511Y-122318240D01*
X145942192Y-122318240D01*
X146046359Y-122579385D01*
X146199471Y-122815190D01*
X146395645Y-123016594D01*
X146627341Y-123175856D01*
X146885656Y-123286856D01*
X146921761Y-123297801D01*
X147142200Y-123195820D01*
X147142200Y-122097800D01*
X146042907Y-122097800D01*
X145942192Y-122318240D01*
X145782511Y-122318240D01*
X145817150Y-122234616D01*
X145858600Y-122026233D01*
X145858600Y-121813767D01*
X145817150Y-121605384D01*
X145782512Y-121521760D01*
X145942192Y-121521760D01*
X146042907Y-121742200D01*
X147142200Y-121742200D01*
X147142200Y-120644180D01*
X146921761Y-120542199D01*
X146885656Y-120553144D01*
X146627341Y-120664144D01*
X146395645Y-120823406D01*
X146199471Y-121024810D01*
X146046359Y-121260615D01*
X145942192Y-121521760D01*
X145782512Y-121521760D01*
X145735843Y-121409091D01*
X145617803Y-121232433D01*
X145467567Y-121082197D01*
X145290909Y-120964157D01*
X145094616Y-120882850D01*
X144886233Y-120841400D01*
X144673767Y-120841400D01*
X144465384Y-120882850D01*
X144269091Y-120964157D01*
X144092433Y-121082197D01*
X144006199Y-121168431D01*
X144006199Y-120263115D01*
X144487337Y-119781978D01*
X144522383Y-119792609D01*
X144614750Y-119801706D01*
X145102250Y-119801706D01*
X145194617Y-119792609D01*
X145283434Y-119765666D01*
X145365288Y-119721914D01*
X145437034Y-119663034D01*
X145495914Y-119591288D01*
X145503802Y-119576531D01*
X145503802Y-119853898D01*
X145459037Y-119883809D01*
X145385409Y-119957437D01*
X145327560Y-120044014D01*
X145287713Y-120140213D01*
X145267400Y-120242337D01*
X145267400Y-120346463D01*
X145287713Y-120448587D01*
X145327560Y-120544786D01*
X145385409Y-120631363D01*
X145459037Y-120704991D01*
X145545614Y-120762840D01*
X145641813Y-120802687D01*
X145743937Y-120823000D01*
X145848063Y-120823000D01*
X145950187Y-120802687D01*
X146046386Y-120762840D01*
X146132963Y-120704991D01*
X146206591Y-120631363D01*
X146264440Y-120544786D01*
X146304287Y-120448587D01*
X146324600Y-120346463D01*
X146324600Y-120242337D01*
X146307817Y-120157959D01*
X146409650Y-120156200D01*
X146555700Y-120010150D01*
X146555700Y-119049800D01*
X146911300Y-119049800D01*
X146911300Y-120010150D01*
X147057350Y-120156200D01*
X147221000Y-120159027D01*
X147335523Y-120147747D01*
X147445646Y-120114342D01*
X147547135Y-120060095D01*
X147636091Y-119987091D01*
X147709095Y-119898135D01*
X147763342Y-119796646D01*
X147796747Y-119686523D01*
X147808027Y-119572000D01*
X147805200Y-119195850D01*
X147659150Y-119049800D01*
X146911300Y-119049800D01*
X146555700Y-119049800D01*
X146535700Y-119049800D01*
X146535700Y-118694200D01*
X146555700Y-118694200D01*
X146555700Y-117733850D01*
X146911300Y-117733850D01*
X146911300Y-118694200D01*
X147659150Y-118694200D01*
X147805200Y-118548150D01*
X147808027Y-118172000D01*
X147796747Y-118057477D01*
X147763342Y-117947354D01*
X147709095Y-117845865D01*
X147636091Y-117756909D01*
X147547135Y-117683905D01*
X147445646Y-117629658D01*
X147335523Y-117596253D01*
X147221000Y-117584973D01*
X147057350Y-117587800D01*
X146911300Y-117733850D01*
X146555700Y-117733850D01*
X146409650Y-117587800D01*
X146246000Y-117584973D01*
X146131477Y-117596253D01*
X146113401Y-117601736D01*
X146113401Y-114581558D01*
X146114874Y-114566600D01*
X146113401Y-114551642D01*
X146113401Y-114551635D01*
X146108990Y-114506850D01*
X146091561Y-114449395D01*
X146063259Y-114396444D01*
X146025169Y-114350033D01*
X146013546Y-114340494D01*
X145806111Y-114133060D01*
X145806107Y-114133055D01*
X145693509Y-114020457D01*
X145769072Y-113838032D01*
X145808600Y-113639308D01*
X145808600Y-113436692D01*
X145769072Y-113237968D01*
X145691534Y-113050775D01*
X145578966Y-112882306D01*
X145435694Y-112739034D01*
X145267225Y-112626466D01*
X145080032Y-112548928D01*
X144881308Y-112509400D01*
X144678692Y-112509400D01*
X144479968Y-112548928D01*
X144292775Y-112626466D01*
X144124306Y-112739034D01*
X143981034Y-112882306D01*
X143868466Y-113050775D01*
X143790928Y-113237968D01*
X143751400Y-113436692D01*
X143751400Y-113639308D01*
X143790928Y-113838032D01*
X143868466Y-114025225D01*
X143981034Y-114193694D01*
X144124306Y-114336966D01*
X144292775Y-114449534D01*
X144479968Y-114527072D01*
X144678692Y-114566600D01*
X144881308Y-114566600D01*
X145080032Y-114527072D01*
X145262457Y-114451509D01*
X145375055Y-114564107D01*
X145375060Y-114564111D01*
X145503801Y-114692853D01*
X145503801Y-115347141D01*
X145435694Y-115279034D01*
X145267225Y-115166466D01*
X145080032Y-115088928D01*
X144881308Y-115049400D01*
X144678692Y-115049400D01*
X144479968Y-115088928D01*
X144292775Y-115166466D01*
X144124306Y-115279034D01*
X143981034Y-115422306D01*
X143868466Y-115590775D01*
X143790928Y-115777968D01*
X143751400Y-115976692D01*
X143751400Y-116179308D01*
X143790928Y-116378032D01*
X143868466Y-116565225D01*
X143981034Y-116733694D01*
X144124306Y-116876966D01*
X144292775Y-116989534D01*
X144477501Y-117066050D01*
X144477500Y-117965006D01*
X144433566Y-117978334D01*
X144351712Y-118022086D01*
X144279966Y-118080966D01*
X144221086Y-118152712D01*
X144177334Y-118234566D01*
X144150391Y-118323383D01*
X144141294Y-118415750D01*
X144141294Y-119050392D01*
X144116802Y-119074884D01*
X144116797Y-119074888D01*
X143369026Y-119822660D01*
X143354489Y-119834590D01*
X143342560Y-119849126D01*
X143306877Y-119892605D01*
X143271498Y-119958794D01*
X143249713Y-120030613D01*
X143242356Y-120105301D01*
X142341200Y-120105301D01*
X142341200Y-110896692D01*
X143751400Y-110896692D01*
X143751400Y-111099308D01*
X143790928Y-111298032D01*
X143868466Y-111485225D01*
X143981034Y-111653694D01*
X144124306Y-111796966D01*
X144292775Y-111909534D01*
X144479968Y-111987072D01*
X144678692Y-112026600D01*
X144881308Y-112026600D01*
X145080032Y-111987072D01*
X145262457Y-111911509D01*
X145375055Y-112024107D01*
X145375061Y-112024112D01*
X148285201Y-114934253D01*
X148285200Y-120865340D01*
X148244355Y-120823406D01*
X148012659Y-120664144D01*
X147754344Y-120553144D01*
X147718239Y-120542199D01*
X147497800Y-120644180D01*
X147497800Y-121742200D01*
X147517800Y-121742200D01*
X147517800Y-122097800D01*
X147497800Y-122097800D01*
X147497800Y-123195820D01*
X147718239Y-123297801D01*
X147754344Y-123286856D01*
X148012659Y-123175856D01*
X148244355Y-123016594D01*
X148285200Y-122974660D01*
X148285200Y-123063748D01*
X147839231Y-123509718D01*
X147830909Y-123504157D01*
X147634616Y-123422850D01*
X147426233Y-123381400D01*
X147213767Y-123381400D01*
X147005384Y-123422850D01*
X146809091Y-123504157D01*
X146632433Y-123622197D01*
X146482197Y-123772433D01*
X146364157Y-123949091D01*
X146282850Y-124145384D01*
X146241400Y-124353767D01*
X146241400Y-124566233D01*
X146282850Y-124774616D01*
X146364157Y-124970909D01*
X146482197Y-125147567D01*
X146632433Y-125297803D01*
X146809091Y-125415843D01*
X147005384Y-125497150D01*
X147213767Y-125538600D01*
X147426233Y-125538600D01*
X147634616Y-125497150D01*
X147830909Y-125415843D01*
X148007567Y-125297803D01*
X148157803Y-125147567D01*
X148275843Y-124970909D01*
X148322511Y-124858240D01*
X148482192Y-124858240D01*
X148586359Y-125119385D01*
X148739471Y-125355190D01*
X148935645Y-125556594D01*
X149167341Y-125715856D01*
X149425656Y-125826856D01*
X149461761Y-125837801D01*
X149682200Y-125735820D01*
X149682200Y-124637800D01*
X150037800Y-124637800D01*
X150037800Y-125735820D01*
X150258239Y-125837801D01*
X150294344Y-125826856D01*
X150552659Y-125715856D01*
X150784355Y-125556594D01*
X150980529Y-125355190D01*
X151133641Y-125119385D01*
X151237808Y-124858240D01*
X151137093Y-124637800D01*
X150037800Y-124637800D01*
X149682200Y-124637800D01*
X148582907Y-124637800D01*
X148482192Y-124858240D01*
X148322511Y-124858240D01*
X148357150Y-124774616D01*
X148398600Y-124566233D01*
X148398600Y-124353767D01*
X148357150Y-124145384D01*
X148275843Y-123949091D01*
X148270282Y-123940769D01*
X148794945Y-123416107D01*
X148806568Y-123406568D01*
X148844658Y-123360157D01*
X148872960Y-123307206D01*
X148890389Y-123249751D01*
X148894800Y-123204966D01*
X148894800Y-123204959D01*
X148896273Y-123190001D01*
X148894800Y-123175043D01*
X148894800Y-122974660D01*
X148935645Y-123016594D01*
X149167341Y-123175856D01*
X149200256Y-123190000D01*
X149167341Y-123204144D01*
X148935645Y-123363406D01*
X148739471Y-123564810D01*
X148586359Y-123800615D01*
X148482192Y-124061760D01*
X148582907Y-124282200D01*
X149682200Y-124282200D01*
X149682200Y-122097800D01*
X149662200Y-122097800D01*
X149662200Y-121742200D01*
X149682200Y-121742200D01*
X149682200Y-120644180D01*
X149461761Y-120542199D01*
X149425656Y-120553144D01*
X149167341Y-120664144D01*
X148935645Y-120823406D01*
X148894800Y-120865340D01*
X148894800Y-119572000D01*
X149371973Y-119572000D01*
X149383253Y-119686523D01*
X149416658Y-119796646D01*
X149470905Y-119898135D01*
X149543909Y-119987091D01*
X149632865Y-120060095D01*
X149734354Y-120114342D01*
X149844477Y-120147747D01*
X149959000Y-120159027D01*
X150122650Y-120156200D01*
X150268700Y-120010150D01*
X150268700Y-119049800D01*
X149520850Y-119049800D01*
X149374800Y-119195850D01*
X149371973Y-119572000D01*
X148894800Y-119572000D01*
X148894800Y-118172000D01*
X149371973Y-118172000D01*
X149374800Y-118548150D01*
X149520850Y-118694200D01*
X150268700Y-118694200D01*
X150268700Y-117733850D01*
X150122650Y-117587800D01*
X149959000Y-117584973D01*
X149844477Y-117596253D01*
X149734354Y-117629658D01*
X149632865Y-117683905D01*
X149543909Y-117756909D01*
X149470905Y-117845865D01*
X149416658Y-117947354D01*
X149383253Y-118057477D01*
X149371973Y-118172000D01*
X148894800Y-118172000D01*
X148894800Y-114822957D01*
X148896273Y-114807999D01*
X148894800Y-114793041D01*
X148894800Y-114793034D01*
X148890389Y-114748249D01*
X148872960Y-114690794D01*
X148844658Y-114637843D01*
X148806568Y-114591432D01*
X148794944Y-114581892D01*
X145806112Y-111593061D01*
X145806107Y-111593055D01*
X145693509Y-111480457D01*
X145769072Y-111298032D01*
X145808600Y-111099308D01*
X145808600Y-110896692D01*
X145769072Y-110697968D01*
X145691534Y-110510775D01*
X145578966Y-110342306D01*
X145435694Y-110199034D01*
X145267225Y-110086466D01*
X145080032Y-110008928D01*
X144881308Y-109969400D01*
X144678692Y-109969400D01*
X144479968Y-110008928D01*
X144292775Y-110086466D01*
X144124306Y-110199034D01*
X143981034Y-110342306D01*
X143868466Y-110510775D01*
X143790928Y-110697968D01*
X143751400Y-110896692D01*
X142341200Y-110896692D01*
X142341200Y-108848354D01*
X143451982Y-108848354D01*
X143458917Y-108871244D01*
X143564921Y-109121034D01*
X143717620Y-109345344D01*
X143911146Y-109535554D01*
X144138061Y-109684354D01*
X144389645Y-109786026D01*
X144602200Y-109684691D01*
X144602200Y-108635800D01*
X144957800Y-108635800D01*
X144957800Y-109684691D01*
X145170355Y-109786026D01*
X145421939Y-109684354D01*
X145648854Y-109535554D01*
X145842380Y-109345344D01*
X145995079Y-109121034D01*
X146101083Y-108871244D01*
X146108018Y-108848354D01*
X146005317Y-108635800D01*
X144957800Y-108635800D01*
X144602200Y-108635800D01*
X143554683Y-108635800D01*
X143451982Y-108848354D01*
X142341200Y-108848354D01*
X142341200Y-108067646D01*
X143451982Y-108067646D01*
X143554683Y-108280200D01*
X144602200Y-108280200D01*
X144602200Y-107231309D01*
X144957800Y-107231309D01*
X144957800Y-108280200D01*
X146005317Y-108280200D01*
X146108018Y-108067646D01*
X146101083Y-108044756D01*
X145995079Y-107794966D01*
X145842380Y-107570656D01*
X145648854Y-107380446D01*
X145421939Y-107231646D01*
X145170355Y-107129974D01*
X144957800Y-107231309D01*
X144602200Y-107231309D01*
X144389645Y-107129974D01*
X144138061Y-107231646D01*
X143911146Y-107380446D01*
X143717620Y-107570656D01*
X143564921Y-107794966D01*
X143458917Y-108044756D01*
X143451982Y-108067646D01*
X142341200Y-108067646D01*
X142341200Y-105816692D01*
X143751400Y-105816692D01*
X143751400Y-106019308D01*
X143790928Y-106218032D01*
X143868466Y-106405225D01*
X143981034Y-106573694D01*
X144124306Y-106716966D01*
X144292775Y-106829534D01*
X144479968Y-106907072D01*
X144678692Y-106946600D01*
X144881308Y-106946600D01*
X145080032Y-106907072D01*
X145267225Y-106829534D01*
X145435694Y-106716966D01*
X145578966Y-106573694D01*
X145691534Y-106405225D01*
X145769072Y-106218032D01*
X145808600Y-106019308D01*
X145808600Y-105816692D01*
X145769072Y-105617968D01*
X145691534Y-105430775D01*
X145578966Y-105262306D01*
X145435694Y-105119034D01*
X145267225Y-105006466D01*
X145080032Y-104928928D01*
X144881308Y-104889400D01*
X144678692Y-104889400D01*
X144479968Y-104928928D01*
X144292775Y-105006466D01*
X144124306Y-105119034D01*
X143981034Y-105262306D01*
X143868466Y-105430775D01*
X143790928Y-105617968D01*
X143751400Y-105816692D01*
X142341200Y-105816692D01*
X142341200Y-100736692D01*
X143751400Y-100736692D01*
X143751400Y-100939308D01*
X143790928Y-101138032D01*
X143868466Y-101325225D01*
X143981034Y-101493694D01*
X144124306Y-101636966D01*
X144292775Y-101749534D01*
X144479968Y-101827072D01*
X144678692Y-101866600D01*
X144881308Y-101866600D01*
X145080032Y-101827072D01*
X145267225Y-101749534D01*
X145435694Y-101636966D01*
X145578966Y-101493694D01*
X145691534Y-101325225D01*
X145769072Y-101138032D01*
X145808600Y-100939308D01*
X145808600Y-100736692D01*
X145769072Y-100537968D01*
X145691534Y-100350775D01*
X145578966Y-100182306D01*
X145435694Y-100039034D01*
X145267225Y-99926466D01*
X145080032Y-99848928D01*
X144881308Y-99809400D01*
X144678692Y-99809400D01*
X144479968Y-99848928D01*
X144292775Y-99926466D01*
X144124306Y-100039034D01*
X143981034Y-100182306D01*
X143868466Y-100350775D01*
X143790928Y-100537968D01*
X143751400Y-100736692D01*
X142341200Y-100736692D01*
X142341200Y-98196692D01*
X143751400Y-98196692D01*
X143751400Y-98399308D01*
X143790928Y-98598032D01*
X143868466Y-98785225D01*
X143981034Y-98953694D01*
X144124306Y-99096966D01*
X144292775Y-99209534D01*
X144479968Y-99287072D01*
X144678692Y-99326600D01*
X144881308Y-99326600D01*
X145080032Y-99287072D01*
X145262457Y-99211509D01*
X145375055Y-99324107D01*
X145375061Y-99324112D01*
X150903891Y-104852943D01*
X150913432Y-104864568D01*
X150959843Y-104902658D01*
X151008992Y-104928928D01*
X151012794Y-104930960D01*
X151070248Y-104948389D01*
X151075403Y-104948897D01*
X151115034Y-104952800D01*
X151115042Y-104952800D01*
X151130000Y-104954273D01*
X151144958Y-104952800D01*
X152042336Y-104952800D01*
X151912775Y-105006466D01*
X151744306Y-105119034D01*
X151601034Y-105262306D01*
X151488466Y-105430775D01*
X151410928Y-105617968D01*
X151371400Y-105816692D01*
X151371400Y-106019308D01*
X151410928Y-106218032D01*
X151488466Y-106405225D01*
X151601034Y-106573694D01*
X151744306Y-106716966D01*
X151912775Y-106829534D01*
X152099968Y-106907072D01*
X152298692Y-106946600D01*
X152501308Y-106946600D01*
X152700032Y-106907072D01*
X152887225Y-106829534D01*
X153055694Y-106716966D01*
X153198966Y-106573694D01*
X153311534Y-106405225D01*
X153389072Y-106218032D01*
X153428600Y-106019308D01*
X153428600Y-105816692D01*
X153389072Y-105617968D01*
X153348170Y-105519221D01*
X153619201Y-105790253D01*
X153619200Y-119267348D01*
X152195057Y-120691492D01*
X152183433Y-120701032D01*
X152145343Y-120747443D01*
X152130215Y-120775746D01*
X152117040Y-120800395D01*
X152104936Y-120840294D01*
X151626199Y-120840294D01*
X151626199Y-119462838D01*
X151640334Y-119509434D01*
X151684086Y-119591288D01*
X151742966Y-119663034D01*
X151814712Y-119721914D01*
X151896566Y-119765666D01*
X151985383Y-119792609D01*
X152077750Y-119801706D01*
X152565250Y-119801706D01*
X152657617Y-119792609D01*
X152746434Y-119765666D01*
X152828288Y-119721914D01*
X152900034Y-119663034D01*
X152958914Y-119591288D01*
X153002666Y-119509434D01*
X153029609Y-119420617D01*
X153038706Y-119328250D01*
X153038706Y-118415750D01*
X153029609Y-118323383D01*
X153002666Y-118234566D01*
X152958914Y-118152712D01*
X152900034Y-118080966D01*
X152828288Y-118022086D01*
X152781000Y-117996810D01*
X152781000Y-117107706D01*
X153200000Y-117107706D01*
X153244813Y-117103292D01*
X153287905Y-117090221D01*
X153327618Y-117068994D01*
X153362427Y-117040427D01*
X153390994Y-117005618D01*
X153412221Y-116965905D01*
X153425292Y-116922813D01*
X153429706Y-116878000D01*
X153429706Y-115278000D01*
X153425292Y-115233187D01*
X153412221Y-115190095D01*
X153390994Y-115150382D01*
X153362427Y-115115573D01*
X153327618Y-115087006D01*
X153287905Y-115065779D01*
X153244813Y-115052708D01*
X153200000Y-115048294D01*
X151626199Y-115048294D01*
X151626199Y-114218859D01*
X151744306Y-114336966D01*
X151912775Y-114449534D01*
X152099968Y-114527072D01*
X152298692Y-114566600D01*
X152501308Y-114566600D01*
X152700032Y-114527072D01*
X152887225Y-114449534D01*
X153055694Y-114336966D01*
X153198966Y-114193694D01*
X153311534Y-114025225D01*
X153389072Y-113838032D01*
X153428600Y-113639308D01*
X153428600Y-113436692D01*
X153389072Y-113237968D01*
X153311534Y-113050775D01*
X153198966Y-112882306D01*
X153055694Y-112739034D01*
X152887225Y-112626466D01*
X152700032Y-112548928D01*
X152501308Y-112509400D01*
X152298692Y-112509400D01*
X152099968Y-112548928D01*
X151912775Y-112626466D01*
X151744306Y-112739034D01*
X151626199Y-112857141D01*
X151626199Y-111678859D01*
X151744306Y-111796966D01*
X151912775Y-111909534D01*
X152099968Y-111987072D01*
X152298692Y-112026600D01*
X152501308Y-112026600D01*
X152700032Y-111987072D01*
X152887225Y-111909534D01*
X153055694Y-111796966D01*
X153198966Y-111653694D01*
X153311534Y-111485225D01*
X153389072Y-111298032D01*
X153428600Y-111099308D01*
X153428600Y-110896692D01*
X153389072Y-110697968D01*
X153311534Y-110510775D01*
X153198966Y-110342306D01*
X153055694Y-110199034D01*
X152887225Y-110086466D01*
X152700032Y-110008928D01*
X152501308Y-109969400D01*
X152298692Y-109969400D01*
X152099968Y-110008928D01*
X151912775Y-110086466D01*
X151744306Y-110199034D01*
X151626199Y-110317141D01*
X151626199Y-109934357D01*
X151627672Y-109919399D01*
X151626199Y-109904441D01*
X151626199Y-109904433D01*
X151621788Y-109859648D01*
X151604359Y-109802193D01*
X151576057Y-109749242D01*
X151537967Y-109702831D01*
X151526343Y-109693291D01*
X150189744Y-108356692D01*
X151371400Y-108356692D01*
X151371400Y-108559308D01*
X151410928Y-108758032D01*
X151488466Y-108945225D01*
X151601034Y-109113694D01*
X151744306Y-109256966D01*
X151912775Y-109369534D01*
X152099968Y-109447072D01*
X152298692Y-109486600D01*
X152501308Y-109486600D01*
X152700032Y-109447072D01*
X152887225Y-109369534D01*
X153055694Y-109256966D01*
X153198966Y-109113694D01*
X153311534Y-108945225D01*
X153389072Y-108758032D01*
X153428600Y-108559308D01*
X153428600Y-108356692D01*
X153389072Y-108157968D01*
X153311534Y-107970775D01*
X153198966Y-107802306D01*
X153055694Y-107659034D01*
X152887225Y-107546466D01*
X152700032Y-107468928D01*
X152501308Y-107429400D01*
X152298692Y-107429400D01*
X152099968Y-107468928D01*
X151912775Y-107546466D01*
X151744306Y-107659034D01*
X151601034Y-107802306D01*
X151488466Y-107970775D01*
X151410928Y-108157968D01*
X151371400Y-108356692D01*
X150189744Y-108356692D01*
X145806112Y-103973061D01*
X145806107Y-103973055D01*
X145693509Y-103860457D01*
X145769072Y-103678032D01*
X145808600Y-103479308D01*
X145808600Y-103276692D01*
X145769072Y-103077968D01*
X145691534Y-102890775D01*
X145578966Y-102722306D01*
X145435694Y-102579034D01*
X145267225Y-102466466D01*
X145080032Y-102388928D01*
X144881308Y-102349400D01*
X144678692Y-102349400D01*
X144479968Y-102388928D01*
X144292775Y-102466466D01*
X144124306Y-102579034D01*
X143981034Y-102722306D01*
X143868466Y-102890775D01*
X143790928Y-103077968D01*
X143751400Y-103276692D01*
X143751400Y-103479308D01*
X143790928Y-103678032D01*
X143868466Y-103865225D01*
X143981034Y-104033694D01*
X144124306Y-104176966D01*
X144292775Y-104289534D01*
X144479968Y-104367072D01*
X144678692Y-104406600D01*
X144881308Y-104406600D01*
X145080032Y-104367072D01*
X145262457Y-104291509D01*
X145375055Y-104404107D01*
X145375061Y-104404112D01*
X151016600Y-110045652D01*
X151016599Y-117593109D01*
X150934000Y-117584973D01*
X150770350Y-117587800D01*
X150624300Y-117733850D01*
X150624300Y-118694200D01*
X150644300Y-118694200D01*
X150644300Y-119049800D01*
X150624300Y-119049800D01*
X150624300Y-120010150D01*
X150770350Y-120156200D01*
X150934000Y-120159027D01*
X151016599Y-120150891D01*
X151016599Y-121080361D01*
X150980529Y-121024810D01*
X150784355Y-120823406D01*
X150552659Y-120664144D01*
X150294344Y-120553144D01*
X150258239Y-120542199D01*
X150037800Y-120644180D01*
X150037800Y-121742200D01*
X150057800Y-121742200D01*
X150057800Y-122097800D01*
X150037800Y-122097800D01*
X150037800Y-124282200D01*
X151137093Y-124282200D01*
X151237808Y-124061760D01*
X151133641Y-123800615D01*
X150980529Y-123564810D01*
X150784355Y-123363406D01*
X150552659Y-123204144D01*
X150519744Y-123190000D01*
X150552659Y-123175856D01*
X150784355Y-123016594D01*
X150980529Y-122815190D01*
X151016599Y-122759639D01*
X151016599Y-123366441D01*
X151015126Y-123381399D01*
X151016599Y-123396357D01*
X151016599Y-123396364D01*
X151021010Y-123441149D01*
X151038439Y-123498604D01*
X151066741Y-123551555D01*
X151104831Y-123597967D01*
X151116460Y-123607511D01*
X151449718Y-123940769D01*
X151444157Y-123949091D01*
X151362850Y-124145384D01*
X151321400Y-124353767D01*
X151321400Y-124566233D01*
X151362850Y-124774616D01*
X151444157Y-124970909D01*
X151562197Y-125147567D01*
X151712433Y-125297803D01*
X151889091Y-125415843D01*
X152085384Y-125497150D01*
X152293767Y-125538600D01*
X152506233Y-125538600D01*
X152714616Y-125497150D01*
X152910909Y-125415843D01*
X153087567Y-125297803D01*
X153237803Y-125147567D01*
X153355843Y-124970909D01*
X153437150Y-124774616D01*
X153478600Y-124566233D01*
X153478600Y-124353767D01*
X153437150Y-124145384D01*
X153355843Y-123949091D01*
X153237803Y-123772433D01*
X153087567Y-123622197D01*
X152910909Y-123504157D01*
X152714616Y-123422850D01*
X152506233Y-123381400D01*
X152293767Y-123381400D01*
X152085384Y-123422850D01*
X151889091Y-123504157D01*
X151880769Y-123509718D01*
X151626199Y-123255148D01*
X151626199Y-122999706D01*
X153250000Y-122999706D01*
X153294813Y-122995292D01*
X153337905Y-122982221D01*
X153377618Y-122960994D01*
X153412427Y-122932427D01*
X153440994Y-122897618D01*
X153462221Y-122857905D01*
X153475292Y-122814813D01*
X153479706Y-122770000D01*
X153479706Y-121070000D01*
X153475292Y-121025187D01*
X153462221Y-120982095D01*
X153440994Y-120942382D01*
X153412427Y-120907573D01*
X153377618Y-120879006D01*
X153337905Y-120857779D01*
X153294813Y-120844708D01*
X153250000Y-120840294D01*
X152908357Y-120840294D01*
X154128945Y-119619707D01*
X154140568Y-119610168D01*
X154178658Y-119563757D01*
X154206960Y-119510806D01*
X154224389Y-119453351D01*
X154228800Y-119408566D01*
X154228800Y-119408559D01*
X154230273Y-119393601D01*
X154228800Y-119378643D01*
X154228800Y-105678958D01*
X154230273Y-105664000D01*
X154228800Y-105649042D01*
X154228800Y-105649034D01*
X154224389Y-105604249D01*
X154206960Y-105546794D01*
X154178658Y-105493843D01*
X154140568Y-105447432D01*
X154128944Y-105437892D01*
X153195021Y-104503970D01*
X153268854Y-104455554D01*
X153462380Y-104265344D01*
X153615079Y-104041034D01*
X153721083Y-103791244D01*
X153728018Y-103768354D01*
X153625317Y-103555800D01*
X152577800Y-103555800D01*
X152577800Y-103575800D01*
X152222200Y-103575800D01*
X152222200Y-103555800D01*
X151174683Y-103555800D01*
X151071982Y-103768354D01*
X151078917Y-103791244D01*
X151184921Y-104041034D01*
X151337620Y-104265344D01*
X151416833Y-104343200D01*
X151256252Y-104343200D01*
X148141406Y-101228354D01*
X151071982Y-101228354D01*
X151078917Y-101251244D01*
X151184921Y-101501034D01*
X151337620Y-101725344D01*
X151531146Y-101915554D01*
X151758061Y-102064354D01*
X151866062Y-102108000D01*
X151758061Y-102151646D01*
X151531146Y-102300446D01*
X151337620Y-102490656D01*
X151184921Y-102714966D01*
X151078917Y-102964756D01*
X151071982Y-102987646D01*
X151174683Y-103200200D01*
X152222200Y-103200200D01*
X152222200Y-102151309D01*
X152131357Y-102108000D01*
X152222200Y-102064691D01*
X152222200Y-101015800D01*
X152577800Y-101015800D01*
X152577800Y-102064691D01*
X152668643Y-102108000D01*
X152577800Y-102151309D01*
X152577800Y-103200200D01*
X153625317Y-103200200D01*
X153728018Y-102987646D01*
X153721083Y-102964756D01*
X153615079Y-102714966D01*
X153462380Y-102490656D01*
X153268854Y-102300446D01*
X153041939Y-102151646D01*
X152933938Y-102108000D01*
X153041939Y-102064354D01*
X153268854Y-101915554D01*
X153462380Y-101725344D01*
X153615079Y-101501034D01*
X153721083Y-101251244D01*
X153728018Y-101228354D01*
X153625317Y-101015800D01*
X152577800Y-101015800D01*
X152222200Y-101015800D01*
X151174683Y-101015800D01*
X151071982Y-101228354D01*
X148141406Y-101228354D01*
X145806112Y-98893061D01*
X145806107Y-98893055D01*
X145693509Y-98780457D01*
X145731659Y-98688354D01*
X151071982Y-98688354D01*
X151078917Y-98711244D01*
X151184921Y-98961034D01*
X151337620Y-99185344D01*
X151531146Y-99375554D01*
X151758061Y-99524354D01*
X151866062Y-99568000D01*
X151758061Y-99611646D01*
X151531146Y-99760446D01*
X151337620Y-99950656D01*
X151184921Y-100174966D01*
X151078917Y-100424756D01*
X151071982Y-100447646D01*
X151174683Y-100660200D01*
X152222200Y-100660200D01*
X152222200Y-99611309D01*
X152131357Y-99568000D01*
X152222200Y-99524691D01*
X152222200Y-98475800D01*
X152577800Y-98475800D01*
X152577800Y-99524691D01*
X152668643Y-99568000D01*
X152577800Y-99611309D01*
X152577800Y-100660200D01*
X153625317Y-100660200D01*
X153728018Y-100447646D01*
X153721083Y-100424756D01*
X153615079Y-100174966D01*
X153462380Y-99950656D01*
X153268854Y-99760446D01*
X153041939Y-99611646D01*
X152933938Y-99568000D01*
X153041939Y-99524354D01*
X153268854Y-99375554D01*
X153462380Y-99185344D01*
X153615079Y-98961034D01*
X153721083Y-98711244D01*
X153728018Y-98688354D01*
X153625317Y-98475800D01*
X152577800Y-98475800D01*
X152222200Y-98475800D01*
X151174683Y-98475800D01*
X151071982Y-98688354D01*
X145731659Y-98688354D01*
X145769072Y-98598032D01*
X145808600Y-98399308D01*
X145808600Y-98196692D01*
X145769072Y-97997968D01*
X145731660Y-97907646D01*
X151071982Y-97907646D01*
X151174683Y-98120200D01*
X152222200Y-98120200D01*
X152222200Y-97071309D01*
X152577800Y-97071309D01*
X152577800Y-98120200D01*
X153625317Y-98120200D01*
X153728018Y-97907646D01*
X153721083Y-97884756D01*
X153615079Y-97634966D01*
X153462380Y-97410656D01*
X153268854Y-97220446D01*
X153041939Y-97071646D01*
X152790355Y-96969974D01*
X152577800Y-97071309D01*
X152222200Y-97071309D01*
X152009645Y-96969974D01*
X151758061Y-97071646D01*
X151531146Y-97220446D01*
X151337620Y-97410656D01*
X151184921Y-97634966D01*
X151078917Y-97884756D01*
X151071982Y-97907646D01*
X145731660Y-97907646D01*
X145691534Y-97810775D01*
X145578966Y-97642306D01*
X145435694Y-97499034D01*
X145267225Y-97386466D01*
X145080032Y-97308928D01*
X144881308Y-97269400D01*
X144678692Y-97269400D01*
X144479968Y-97308928D01*
X144292775Y-97386466D01*
X144124306Y-97499034D01*
X143981034Y-97642306D01*
X143868466Y-97810775D01*
X143790928Y-97997968D01*
X143751400Y-98196692D01*
X142341200Y-98196692D01*
X142341200Y-95351200D01*
X154838800Y-95351200D01*
X154838801Y-126898800D01*
M02*
