M48
; DRILL file {KiCad (5.1.5-0-10_14)} date Tuesday, May 05, 2020 at 07:22:04 PM
; FORMAT={-:-/ absolute / inch / decimal}
; #@! TF.CreationDate,2020-05-05T19:22:04-07:00
; #@! TF.GenerationSoftware,Kicad,Pcbnew,(5.1.5-0-10_14)
; #@! TF.FileFunction,Plated,1,2,PTH
FMAT,2
INCH
T1C0.0118
T2C0.0315
T3C0.0394
%
G90
G05
T1
X5.64Y-4.27
X5.74Y-4.736
X5.82Y-4.66
X5.82Y-4.7
X5.88Y-4.66
X5.88Y-4.7
X6.06Y-3.87
X6.06Y-3.97
X6.06Y-4.07
T2
X5.7Y-3.87
X5.7Y-3.97
X5.7Y-4.07
X5.7Y-4.17
X5.7Y-4.27
X5.7Y-4.37
X5.7Y-4.47
X5.7Y-4.57
X6.0Y-3.87
X6.0Y-3.97
X6.0Y-4.07
X6.0Y-4.17
X6.0Y-4.27
X6.0Y-4.37
X6.0Y-4.47
X6.0Y-4.57
T3
X5.7Y-4.8
X5.7Y-4.9
X5.8Y-4.8
X5.8Y-4.9
X5.9Y-4.8
X5.9Y-4.9
X6.0Y-4.8
X6.0Y-4.9
T0
M30
