G04 #@! TF.GenerationSoftware,KiCad,Pcbnew,(5.1.6-0-10_14)*
G04 #@! TF.CreationDate,2020-08-15T08:11:16-07:00*
G04 #@! TF.ProjectId,fpga-ice40,66706761-2d69-4636-9534-302e6b696361,r0.1*
G04 #@! TF.SameCoordinates,Original*
G04 #@! TF.FileFunction,Legend,Top*
G04 #@! TF.FilePolarity,Positive*
%FSLAX46Y46*%
G04 Gerber Fmt 4.6, Leading zero omitted, Abs format (unit mm)*
G04 Created by KiCad (PCBNEW (5.1.6-0-10_14)) date 2020-08-15 08:11:16*
%MOMM*%
%LPD*%
G01*
G04 APERTURE LIST*
%ADD10C,0.150000*%
%ADD11C,0.120000*%
%ADD12C,0.200000*%
G04 APERTURE END LIST*
D10*
X173907261Y-82161904D02*
X174402500Y-82161904D01*
X174135833Y-82466666D01*
X174250119Y-82466666D01*
X174326309Y-82504761D01*
X174364404Y-82542857D01*
X174402500Y-82619047D01*
X174402500Y-82809523D01*
X174364404Y-82885714D01*
X174326309Y-82923809D01*
X174250119Y-82961904D01*
X174021547Y-82961904D01*
X173945357Y-82923809D01*
X173907261Y-82885714D01*
X174631071Y-82161904D02*
X174897738Y-82961904D01*
X175164404Y-82161904D01*
X175354880Y-82161904D02*
X175850119Y-82161904D01*
X175583452Y-82466666D01*
X175697738Y-82466666D01*
X175773928Y-82504761D01*
X175812023Y-82542857D01*
X175850119Y-82619047D01*
X175850119Y-82809523D01*
X175812023Y-82885714D01*
X175773928Y-82923809D01*
X175697738Y-82961904D01*
X175469166Y-82961904D01*
X175392976Y-82923809D01*
X175354880Y-82885714D01*
D11*
X187950000Y-70000000D02*
X187950000Y-72050000D01*
X177200000Y-70000000D02*
X187950000Y-70000000D01*
X167850000Y-70000000D02*
X167850000Y-72050000D01*
X157500000Y-70000000D02*
X167850000Y-70000000D01*
D10*
X173647619Y-69992857D02*
X173380952Y-69992857D01*
X173380952Y-70411904D02*
X173380952Y-69611904D01*
X173761904Y-69611904D01*
X174447619Y-70411904D02*
X174066666Y-70411904D01*
X174066666Y-69611904D01*
X174676190Y-70183333D02*
X175057142Y-70183333D01*
X174600000Y-70411904D02*
X174866666Y-69611904D01*
X175133333Y-70411904D01*
X175361904Y-70373809D02*
X175476190Y-70411904D01*
X175666666Y-70411904D01*
X175742857Y-70373809D01*
X175780952Y-70335714D01*
X175819047Y-70259523D01*
X175819047Y-70183333D01*
X175780952Y-70107142D01*
X175742857Y-70069047D01*
X175666666Y-70030952D01*
X175514285Y-69992857D01*
X175438095Y-69954761D01*
X175400000Y-69916666D01*
X175361904Y-69840476D01*
X175361904Y-69764285D01*
X175400000Y-69688095D01*
X175438095Y-69650000D01*
X175514285Y-69611904D01*
X175704761Y-69611904D01*
X175819047Y-69650000D01*
X176161904Y-70411904D02*
X176161904Y-69611904D01*
X176161904Y-69992857D02*
X176619047Y-69992857D01*
X176619047Y-70411904D02*
X176619047Y-69611904D01*
X153394190Y-70335714D02*
X153356095Y-70373809D01*
X153241809Y-70411904D01*
X153165619Y-70411904D01*
X153051333Y-70373809D01*
X152975142Y-70297619D01*
X152937047Y-70221428D01*
X152898952Y-70069047D01*
X152898952Y-69954761D01*
X152937047Y-69802380D01*
X152975142Y-69726190D01*
X153051333Y-69650000D01*
X153165619Y-69611904D01*
X153241809Y-69611904D01*
X153356095Y-69650000D01*
X153394190Y-69688095D01*
X153889428Y-69611904D02*
X154041809Y-69611904D01*
X154118000Y-69650000D01*
X154194190Y-69726190D01*
X154232285Y-69878571D01*
X154232285Y-70145238D01*
X154194190Y-70297619D01*
X154118000Y-70373809D01*
X154041809Y-70411904D01*
X153889428Y-70411904D01*
X153813238Y-70373809D01*
X153737047Y-70297619D01*
X153698952Y-70145238D01*
X153698952Y-69878571D01*
X153737047Y-69726190D01*
X153813238Y-69650000D01*
X153889428Y-69611904D01*
X154575142Y-70411904D02*
X154575142Y-69611904D01*
X155032285Y-70411904D01*
X155032285Y-69611904D01*
X155679904Y-69992857D02*
X155413238Y-69992857D01*
X155413238Y-70411904D02*
X155413238Y-69611904D01*
X155794190Y-69611904D01*
X156098952Y-70411904D02*
X156098952Y-69611904D01*
X156898952Y-69650000D02*
X156822761Y-69611904D01*
X156708476Y-69611904D01*
X156594190Y-69650000D01*
X156518000Y-69726190D01*
X156479904Y-69802380D01*
X156441809Y-69954761D01*
X156441809Y-70069047D01*
X156479904Y-70221428D01*
X156518000Y-70297619D01*
X156594190Y-70373809D01*
X156708476Y-70411904D01*
X156784666Y-70411904D01*
X156898952Y-70373809D01*
X156937047Y-70335714D01*
X156937047Y-70069047D01*
X156784666Y-70069047D01*
X146609523Y-79211904D02*
X146609523Y-78411904D01*
X146800000Y-78411904D01*
X146914285Y-78450000D01*
X146990476Y-78526190D01*
X147028571Y-78602380D01*
X147066666Y-78754761D01*
X147066666Y-78869047D01*
X147028571Y-79021428D01*
X146990476Y-79097619D01*
X146914285Y-79173809D01*
X146800000Y-79211904D01*
X146609523Y-79211904D01*
X147333333Y-78411904D02*
X147828571Y-78411904D01*
X147561904Y-78716666D01*
X147676190Y-78716666D01*
X147752380Y-78754761D01*
X147790476Y-78792857D01*
X147828571Y-78869047D01*
X147828571Y-79059523D01*
X147790476Y-79135714D01*
X147752380Y-79173809D01*
X147676190Y-79211904D01*
X147447619Y-79211904D01*
X147371428Y-79173809D01*
X147333333Y-79135714D01*
X146759523Y-70411904D02*
X146759523Y-69611904D01*
X146950000Y-69611904D01*
X147064285Y-69650000D01*
X147140476Y-69726190D01*
X147178571Y-69802380D01*
X147216666Y-69954761D01*
X147216666Y-70069047D01*
X147178571Y-70221428D01*
X147140476Y-70297619D01*
X147064285Y-70373809D01*
X146950000Y-70411904D01*
X146759523Y-70411904D01*
X147711904Y-69611904D02*
X147788095Y-69611904D01*
X147864285Y-69650000D01*
X147902380Y-69688095D01*
X147940476Y-69764285D01*
X147978571Y-69916666D01*
X147978571Y-70107142D01*
X147940476Y-70259523D01*
X147902380Y-70335714D01*
X147864285Y-70373809D01*
X147788095Y-70411904D01*
X147711904Y-70411904D01*
X147635714Y-70373809D01*
X147597619Y-70335714D01*
X147559523Y-70259523D01*
X147521428Y-70107142D01*
X147521428Y-69916666D01*
X147559523Y-69764285D01*
X147597619Y-69688095D01*
X147635714Y-69650000D01*
X147711904Y-69611904D01*
X180700119Y-82935714D02*
X180662023Y-82973809D01*
X180547738Y-83011904D01*
X180471547Y-83011904D01*
X180357261Y-82973809D01*
X180281071Y-82897619D01*
X180242976Y-82821428D01*
X180204880Y-82669047D01*
X180204880Y-82554761D01*
X180242976Y-82402380D01*
X180281071Y-82326190D01*
X180357261Y-82250000D01*
X180471547Y-82211904D01*
X180547738Y-82211904D01*
X180662023Y-82250000D01*
X180700119Y-82288095D01*
X181042976Y-83011904D02*
X181042976Y-82211904D01*
X181233452Y-82211904D01*
X181347738Y-82250000D01*
X181423928Y-82326190D01*
X181462023Y-82402380D01*
X181500119Y-82554761D01*
X181500119Y-82669047D01*
X181462023Y-82821428D01*
X181423928Y-82897619D01*
X181347738Y-82973809D01*
X181233452Y-83011904D01*
X181042976Y-83011904D01*
X181995357Y-82211904D02*
X182147738Y-82211904D01*
X182223928Y-82250000D01*
X182300119Y-82326190D01*
X182338214Y-82478571D01*
X182338214Y-82745238D01*
X182300119Y-82897619D01*
X182223928Y-82973809D01*
X182147738Y-83011904D01*
X181995357Y-83011904D01*
X181919166Y-82973809D01*
X181842976Y-82897619D01*
X181804880Y-82745238D01*
X181804880Y-82478571D01*
X181842976Y-82326190D01*
X181919166Y-82250000D01*
X181995357Y-82211904D01*
X182681071Y-83011904D02*
X182681071Y-82211904D01*
X183138214Y-83011904D01*
X183138214Y-82211904D01*
X183519166Y-82592857D02*
X183785833Y-82592857D01*
X183900119Y-83011904D02*
X183519166Y-83011904D01*
X183519166Y-82211904D01*
X183900119Y-82211904D01*
D11*
X175112779Y-95210000D02*
X174787221Y-95210000D01*
X175112779Y-94190000D02*
X174787221Y-94190000D01*
X175112779Y-93710000D02*
X174787221Y-93710000D01*
X175112779Y-92690000D02*
X174787221Y-92690000D01*
X191250000Y-100920000D02*
X192250000Y-100920000D01*
X191250000Y-104280000D02*
X192250000Y-104280000D01*
X175450000Y-104280000D02*
X174450000Y-104280000D01*
X175450000Y-100920000D02*
X174450000Y-100920000D01*
X191250000Y-96120000D02*
X192250000Y-96120000D01*
X191250000Y-99480000D02*
X192250000Y-99480000D01*
X175450000Y-99480000D02*
X174450000Y-99480000D01*
X175450000Y-96120000D02*
X174450000Y-96120000D01*
X191250000Y-91870000D02*
X192250000Y-91870000D01*
X191250000Y-95230000D02*
X192250000Y-95230000D01*
X191250000Y-88070000D02*
X192250000Y-88070000D01*
X191250000Y-91430000D02*
X192250000Y-91430000D01*
X175450000Y-91780000D02*
X174450000Y-91780000D01*
X175450000Y-88420000D02*
X174450000Y-88420000D01*
X191250000Y-84270000D02*
X192250000Y-84270000D01*
X191250000Y-87630000D02*
X192250000Y-87630000D01*
X175450000Y-87980000D02*
X174450000Y-87980000D01*
X175450000Y-84620000D02*
X174450000Y-84620000D01*
X142850000Y-105150000D02*
X148050000Y-105150000D01*
X142850000Y-106850000D02*
X148050000Y-106850000D01*
X142850000Y-105150000D02*
X142850000Y-106850000D01*
X148050000Y-105150000D02*
X148050000Y-106850000D01*
D12*
X141825000Y-105850000D02*
X141825000Y-106050000D01*
X138825000Y-105850000D02*
X138825000Y-106050000D01*
X139925000Y-104750000D02*
X140725000Y-104750000D01*
X139925000Y-107150000D02*
X140725000Y-107150000D01*
D11*
X138360000Y-105887221D02*
X138360000Y-106212779D01*
X137340000Y-105887221D02*
X137340000Y-106212779D01*
X148510000Y-109437221D02*
X148510000Y-109762779D01*
X147490000Y-109437221D02*
X147490000Y-109762779D01*
D10*
X183875000Y-110425000D02*
X183875000Y-110325000D01*
X179225000Y-110425000D02*
X179225000Y-110225000D01*
X179225000Y-107175000D02*
X179225000Y-107375000D01*
X183875000Y-107175000D02*
X183875000Y-107375000D01*
X183875000Y-110425000D02*
X179225000Y-110425000D01*
X183875000Y-107175000D02*
X179225000Y-107175000D01*
X183875000Y-110325000D02*
X185225000Y-110325000D01*
D11*
X186837221Y-106790000D02*
X187162779Y-106790000D01*
X186837221Y-107810000D02*
X187162779Y-107810000D01*
X186837221Y-108290000D02*
X187162779Y-108290000D01*
X186837221Y-109310000D02*
X187162779Y-109310000D01*
X187162779Y-110810000D02*
X186837221Y-110810000D01*
X187162779Y-109790000D02*
X186837221Y-109790000D01*
X175860000Y-108962779D02*
X175860000Y-108637221D01*
X174840000Y-108962779D02*
X174840000Y-108637221D01*
X177360000Y-108962779D02*
X177360000Y-108637221D01*
X176340000Y-108962779D02*
X176340000Y-108637221D01*
D10*
X138600000Y-80300000D02*
X148200000Y-80300000D01*
X148200000Y-80300000D02*
X148200000Y-81500000D01*
X148200000Y-83900000D02*
X148200000Y-87300000D01*
X148200000Y-89700000D02*
X148200000Y-92300000D01*
X148200000Y-92300000D02*
X147800000Y-92300000D01*
X146000000Y-92300000D02*
X144000000Y-92300000D01*
X142400000Y-92300000D02*
X138000000Y-92300000D01*
X145425000Y-104325000D02*
X145425000Y-103750000D01*
X139675000Y-104325000D02*
X139675000Y-103675000D01*
X139675000Y-93675000D02*
X139675000Y-94325000D01*
X145425000Y-93675000D02*
X145425000Y-94325000D01*
X145425000Y-104325000D02*
X139675000Y-104325000D01*
X145425000Y-93675000D02*
X139675000Y-93675000D01*
X145425000Y-103750000D02*
X147025000Y-103750000D01*
D11*
X177000000Y-83335000D02*
X179285000Y-83335000D01*
X179285000Y-83335000D02*
X179285000Y-81865000D01*
X179285000Y-81865000D02*
X177000000Y-81865000D01*
X139390000Y-75500000D02*
X139390000Y-77300000D01*
X142610000Y-77300000D02*
X142610000Y-74850000D01*
X144137221Y-77790000D02*
X144462779Y-77790000D01*
X144137221Y-78810000D02*
X144462779Y-78810000D01*
X177747500Y-76250000D02*
X177747500Y-73502500D01*
X177747500Y-73502500D02*
X177465000Y-73502500D01*
X177747500Y-76250000D02*
X177747500Y-78997500D01*
X177747500Y-78997500D02*
X177465000Y-78997500D01*
X172252500Y-76250000D02*
X172252500Y-73502500D01*
X172252500Y-73502500D02*
X172535000Y-73502500D01*
X172252500Y-76250000D02*
X172252500Y-78997500D01*
X172252500Y-78997500D02*
X172535000Y-78997500D01*
X172535000Y-78997500D02*
X172535000Y-80650000D01*
X157665500Y-76250000D02*
X157665500Y-73502500D01*
X157665500Y-73502500D02*
X157383000Y-73502500D01*
X157665500Y-76250000D02*
X157665500Y-78997500D01*
X157665500Y-78997500D02*
X157383000Y-78997500D01*
X152170500Y-76250000D02*
X152170500Y-73502500D01*
X152170500Y-73502500D02*
X152453000Y-73502500D01*
X152170500Y-76250000D02*
X152170500Y-78997500D01*
X152170500Y-78997500D02*
X152453000Y-78997500D01*
X152453000Y-78997500D02*
X152453000Y-80650000D01*
D12*
X163350000Y-109500000D02*
X163350000Y-109700000D01*
X160350000Y-109500000D02*
X160350000Y-109700000D01*
X161450000Y-108400000D02*
X162250000Y-108400000D01*
X161450000Y-110800000D02*
X162250000Y-110800000D01*
D11*
X186575000Y-81520000D02*
X186575000Y-79620000D01*
D10*
X184796000Y-76885000D02*
X182256000Y-76885000D01*
X184796000Y-75615000D02*
X184796000Y-76885000D01*
X182256000Y-75615000D02*
X184796000Y-75615000D01*
X187945600Y-74421200D02*
X187945600Y-74268800D01*
X187945600Y-75691200D02*
X187945600Y-75538800D01*
X187945600Y-76961200D02*
X187945600Y-76783400D01*
X187945600Y-78231200D02*
X187945600Y-78078800D01*
X182154400Y-78078800D02*
X182154400Y-78231200D01*
X182154400Y-76808800D02*
X182154400Y-76961200D01*
X182154400Y-75538800D02*
X182154400Y-75691200D01*
X182154400Y-74268800D02*
X182154400Y-74421200D01*
X187950000Y-73100000D02*
X182150000Y-73100000D01*
X187950000Y-79400000D02*
X182150000Y-79400000D01*
D11*
X183525000Y-81520000D02*
X183525000Y-79620000D01*
X183525000Y-81520000D02*
X186575000Y-81520000D01*
X183525000Y-70980000D02*
X183525000Y-72880000D01*
X186575000Y-70980000D02*
X186575000Y-72880000D01*
X186575000Y-70980000D02*
X183525000Y-70980000D01*
X166475000Y-81520000D02*
X166475000Y-79620000D01*
D10*
X164696000Y-76885000D02*
X162156000Y-76885000D01*
X164696000Y-75615000D02*
X164696000Y-76885000D01*
X162156000Y-75615000D02*
X164696000Y-75615000D01*
X167845600Y-74421200D02*
X167845600Y-74268800D01*
X167845600Y-75691200D02*
X167845600Y-75538800D01*
X167845600Y-76961200D02*
X167845600Y-76783400D01*
X167845600Y-78231200D02*
X167845600Y-78078800D01*
X162054400Y-78078800D02*
X162054400Y-78231200D01*
X162054400Y-76808800D02*
X162054400Y-76961200D01*
X162054400Y-75538800D02*
X162054400Y-75691200D01*
X162054400Y-74268800D02*
X162054400Y-74421200D01*
X167850000Y-73100000D02*
X162050000Y-73100000D01*
X167850000Y-79400000D02*
X162050000Y-79400000D01*
D11*
X163425000Y-81520000D02*
X163425000Y-79620000D01*
X163425000Y-81520000D02*
X166475000Y-81520000D01*
X163425000Y-70980000D02*
X163425000Y-72880000D01*
X166475000Y-70980000D02*
X166475000Y-72880000D01*
X166475000Y-70980000D02*
X163425000Y-70980000D01*
X188000000Y-117030000D02*
X137080000Y-117030000D01*
X137080000Y-117030000D02*
X137080000Y-118030000D01*
X188000000Y-118030000D02*
X188000000Y-117030000D01*
X187050000Y-116632929D02*
X187050000Y-117030000D01*
X186290000Y-116632929D02*
X186290000Y-117030000D01*
X187050000Y-114160000D02*
X187050000Y-114547071D01*
X186290000Y-114160000D02*
X186290000Y-114547071D01*
X184510000Y-116632929D02*
X184510000Y-117030000D01*
X183750000Y-116632929D02*
X183750000Y-117030000D01*
X184510000Y-114092929D02*
X184510000Y-114547071D01*
X183750000Y-114092929D02*
X183750000Y-114547071D01*
X181970000Y-116632929D02*
X181970000Y-117030000D01*
X181210000Y-116632929D02*
X181210000Y-117030000D01*
X181970000Y-114092929D02*
X181970000Y-114547071D01*
X181210000Y-114092929D02*
X181210000Y-114547071D01*
X179430000Y-116632929D02*
X179430000Y-117030000D01*
X178670000Y-116632929D02*
X178670000Y-117030000D01*
X179430000Y-114092929D02*
X179430000Y-114547071D01*
X178670000Y-114092929D02*
X178670000Y-114547071D01*
X176890000Y-116632929D02*
X176890000Y-117030000D01*
X176130000Y-116632929D02*
X176130000Y-117030000D01*
X176890000Y-114092929D02*
X176890000Y-114547071D01*
X176130000Y-114092929D02*
X176130000Y-114547071D01*
X174350000Y-116632929D02*
X174350000Y-117030000D01*
X173590000Y-116632929D02*
X173590000Y-117030000D01*
X174350000Y-114092929D02*
X174350000Y-114547071D01*
X173590000Y-114092929D02*
X173590000Y-114547071D01*
X171810000Y-116632929D02*
X171810000Y-117030000D01*
X171050000Y-116632929D02*
X171050000Y-117030000D01*
X171810000Y-114092929D02*
X171810000Y-114547071D01*
X171050000Y-114092929D02*
X171050000Y-114547071D01*
X169270000Y-116632929D02*
X169270000Y-117030000D01*
X168510000Y-116632929D02*
X168510000Y-117030000D01*
X169270000Y-114092929D02*
X169270000Y-114547071D01*
X168510000Y-114092929D02*
X168510000Y-114547071D01*
X166730000Y-116632929D02*
X166730000Y-117030000D01*
X165970000Y-116632929D02*
X165970000Y-117030000D01*
X166730000Y-114092929D02*
X166730000Y-114547071D01*
X165970000Y-114092929D02*
X165970000Y-114547071D01*
X164190000Y-116632929D02*
X164190000Y-117030000D01*
X163430000Y-116632929D02*
X163430000Y-117030000D01*
X164190000Y-114092929D02*
X164190000Y-114547071D01*
X163430000Y-114092929D02*
X163430000Y-114547071D01*
X161650000Y-116632929D02*
X161650000Y-117030000D01*
X160890000Y-116632929D02*
X160890000Y-117030000D01*
X161650000Y-114092929D02*
X161650000Y-114547071D01*
X160890000Y-114092929D02*
X160890000Y-114547071D01*
X159110000Y-116632929D02*
X159110000Y-117030000D01*
X158350000Y-116632929D02*
X158350000Y-117030000D01*
X159110000Y-114092929D02*
X159110000Y-114547071D01*
X158350000Y-114092929D02*
X158350000Y-114547071D01*
X156570000Y-116632929D02*
X156570000Y-117030000D01*
X155810000Y-116632929D02*
X155810000Y-117030000D01*
X156570000Y-114092929D02*
X156570000Y-114547071D01*
X155810000Y-114092929D02*
X155810000Y-114547071D01*
X154030000Y-116632929D02*
X154030000Y-117030000D01*
X153270000Y-116632929D02*
X153270000Y-117030000D01*
X154030000Y-114092929D02*
X154030000Y-114547071D01*
X153270000Y-114092929D02*
X153270000Y-114547071D01*
X151490000Y-116632929D02*
X151490000Y-117030000D01*
X150730000Y-116632929D02*
X150730000Y-117030000D01*
X151490000Y-114092929D02*
X151490000Y-114547071D01*
X150730000Y-114092929D02*
X150730000Y-114547071D01*
X148950000Y-116632929D02*
X148950000Y-117030000D01*
X148190000Y-116632929D02*
X148190000Y-117030000D01*
X148950000Y-114092929D02*
X148950000Y-114547071D01*
X148190000Y-114092929D02*
X148190000Y-114547071D01*
X146410000Y-116632929D02*
X146410000Y-117030000D01*
X145650000Y-116632929D02*
X145650000Y-117030000D01*
X146410000Y-114092929D02*
X146410000Y-114547071D01*
X145650000Y-114092929D02*
X145650000Y-114547071D01*
X143870000Y-116632929D02*
X143870000Y-117030000D01*
X143110000Y-116632929D02*
X143110000Y-117030000D01*
X143870000Y-114092929D02*
X143870000Y-114547071D01*
X143110000Y-114092929D02*
X143110000Y-114547071D01*
X141330000Y-116632929D02*
X141330000Y-117030000D01*
X140570000Y-116632929D02*
X140570000Y-117030000D01*
X141330000Y-114092929D02*
X141330000Y-114547071D01*
X140570000Y-114092929D02*
X140570000Y-114547071D01*
X138790000Y-116632929D02*
X138790000Y-117030000D01*
X138030000Y-116632929D02*
X138030000Y-117030000D01*
X138790000Y-114092929D02*
X138790000Y-114547071D01*
X138030000Y-114092929D02*
X138030000Y-114547071D01*
X186670000Y-111780000D02*
X187940000Y-111780000D01*
X187940000Y-111780000D02*
X187940000Y-113050000D01*
X151058000Y-71245000D02*
X149243000Y-71245000D01*
X151058000Y-70990000D02*
X151058000Y-71245000D01*
X154918000Y-70990000D02*
X151058000Y-70990000D01*
X158778000Y-70990000D02*
X158778000Y-71245000D01*
X154918000Y-70990000D02*
X158778000Y-70990000D01*
X151058000Y-81510000D02*
X151058000Y-81255000D01*
X154918000Y-81510000D02*
X151058000Y-81510000D01*
X158778000Y-81510000D02*
X158778000Y-81255000D01*
X154918000Y-81510000D02*
X158778000Y-81510000D01*
X146480000Y-109100000D02*
X146480000Y-110100000D01*
X143120000Y-109100000D02*
X143120000Y-110100000D01*
X159860000Y-109437221D02*
X159860000Y-109762779D01*
X158840000Y-109437221D02*
X158840000Y-109762779D01*
X148150000Y-76365000D02*
X145865000Y-76365000D01*
X145865000Y-76365000D02*
X145865000Y-77835000D01*
X145865000Y-77835000D02*
X148150000Y-77835000D01*
X148150000Y-74565000D02*
X145865000Y-74565000D01*
X145865000Y-74565000D02*
X145865000Y-76035000D01*
X145865000Y-76035000D02*
X148150000Y-76035000D01*
X148150000Y-72765000D02*
X145865000Y-72765000D01*
X145865000Y-72765000D02*
X145865000Y-74235000D01*
X145865000Y-74235000D02*
X148150000Y-74235000D01*
X148150000Y-70965000D02*
X145865000Y-70965000D01*
X145865000Y-70965000D02*
X145865000Y-72435000D01*
X145865000Y-72435000D02*
X148150000Y-72435000D01*
X185000000Y-83335000D02*
X187285000Y-83335000D01*
X187285000Y-83335000D02*
X187285000Y-81865000D01*
X187285000Y-81865000D02*
X185000000Y-81865000D01*
X137862779Y-75810000D02*
X137537221Y-75810000D01*
X137862779Y-74790000D02*
X137537221Y-74790000D01*
X137537221Y-76290000D02*
X137862779Y-76290000D01*
X137537221Y-77310000D02*
X137862779Y-77310000D01*
X144462779Y-75810000D02*
X144137221Y-75810000D01*
X144462779Y-74790000D02*
X144137221Y-74790000D01*
X137862779Y-78810000D02*
X137537221Y-78810000D01*
X137862779Y-77790000D02*
X137537221Y-77790000D01*
X144137221Y-76290000D02*
X144462779Y-76290000D01*
X144137221Y-77310000D02*
X144462779Y-77310000D01*
X137190000Y-73310000D02*
X137570000Y-73310000D01*
X137190000Y-69260000D02*
X137190000Y-69000000D01*
X137190000Y-73310000D02*
X137190000Y-71540000D01*
X144810000Y-73310000D02*
X144430000Y-73310000D01*
X144810000Y-71540000D02*
X144810000Y-73310000D01*
X144810000Y-69000000D02*
X144810000Y-69260000D01*
X188640000Y-84100000D02*
X188640000Y-83700000D01*
X178040000Y-84100000D02*
X178040000Y-83700000D01*
X178040000Y-106300000D02*
X178040000Y-105900000D01*
X188640000Y-83700000D02*
X178040000Y-83700000D01*
X188640000Y-106300000D02*
X178040000Y-106300000D01*
X188640000Y-105900000D02*
X188640000Y-106300000D01*
X189840000Y-105900000D02*
X188640000Y-105900000D01*
X172630000Y-109100000D02*
X172630000Y-110100000D01*
X169270000Y-109100000D02*
X169270000Y-110100000D01*
X167730000Y-109100000D02*
X167730000Y-110100000D01*
X164370000Y-109100000D02*
X164370000Y-110100000D01*
X154370000Y-109100000D02*
X154370000Y-110100000D01*
X157730000Y-109100000D02*
X157730000Y-110100000D01*
X152830000Y-109100000D02*
X152830000Y-110100000D01*
X149470000Y-109100000D02*
X149470000Y-110100000D01*
X141380000Y-109100000D02*
X141380000Y-110100000D01*
X138020000Y-109100000D02*
X138020000Y-110100000D01*
X171140000Y-71245000D02*
X169325000Y-71245000D01*
X171140000Y-70990000D02*
X171140000Y-71245000D01*
X175000000Y-70990000D02*
X171140000Y-70990000D01*
X178860000Y-70990000D02*
X178860000Y-71245000D01*
X175000000Y-70990000D02*
X178860000Y-70990000D01*
X171140000Y-81510000D02*
X171140000Y-81255000D01*
X175000000Y-81510000D02*
X171140000Y-81510000D01*
X178860000Y-81510000D02*
X178860000Y-81255000D01*
X175000000Y-81510000D02*
X178860000Y-81510000D01*
X151890000Y-84890000D02*
X150940000Y-84890000D01*
X150940000Y-84890000D02*
X150940000Y-85840000D01*
X170210000Y-84890000D02*
X171160000Y-84890000D01*
X171160000Y-84890000D02*
X171160000Y-85840000D01*
X151890000Y-105110000D02*
X150940000Y-105110000D01*
X150940000Y-105110000D02*
X150940000Y-104160000D01*
X170210000Y-105110000D02*
X171160000Y-105110000D01*
X171160000Y-105110000D02*
X171160000Y-104160000D01*
X171160000Y-104160000D02*
X172450000Y-104160000D01*
D10*
X143373809Y-106361904D02*
X143373809Y-105561904D01*
X143830952Y-106361904D01*
X143830952Y-105561904D01*
X144211904Y-105942857D02*
X144478571Y-105942857D01*
X144592857Y-106361904D02*
X144211904Y-106361904D01*
X144211904Y-105561904D01*
X144592857Y-105561904D01*
X145316666Y-106361904D02*
X144935714Y-106361904D01*
X144935714Y-105561904D01*
X146002380Y-105600000D02*
X145926190Y-105561904D01*
X145811904Y-105561904D01*
X145697619Y-105600000D01*
X145621428Y-105676190D01*
X145583333Y-105752380D01*
X145545238Y-105904761D01*
X145545238Y-106019047D01*
X145583333Y-106171428D01*
X145621428Y-106247619D01*
X145697619Y-106323809D01*
X145811904Y-106361904D01*
X145888095Y-106361904D01*
X146002380Y-106323809D01*
X146040476Y-106285714D01*
X146040476Y-106019047D01*
X145888095Y-106019047D01*
X146345238Y-106133333D02*
X146726190Y-106133333D01*
X146269047Y-106361904D02*
X146535714Y-105561904D01*
X146802380Y-106361904D01*
X147069047Y-105561904D02*
X147069047Y-106209523D01*
X147107142Y-106285714D01*
X147145238Y-106323809D01*
X147221428Y-106361904D01*
X147373809Y-106361904D01*
X147450000Y-106323809D01*
X147488095Y-106285714D01*
X147526190Y-106209523D01*
X147526190Y-105561904D01*
M02*
