G04 #@! TF.GenerationSoftware,KiCad,Pcbnew,(5.1.6-0-10_14)*
G04 #@! TF.CreationDate,2020-08-15T08:11:16-07:00*
G04 #@! TF.ProjectId,fpga-ice40,66706761-2d69-4636-9534-302e6b696361,r0.1*
G04 #@! TF.SameCoordinates,Original*
G04 #@! TF.FileFunction,Paste,Top*
G04 #@! TF.FilePolarity,Positive*
%FSLAX46Y46*%
G04 Gerber Fmt 4.6, Leading zero omitted, Abs format (unit mm)*
G04 Created by KiCad (PCBNEW (5.1.6-0-10_14)) date 2020-08-15 08:11:16*
%MOMM*%
%LPD*%
G01*
G04 APERTURE LIST*
%ADD10R,0.800000X0.500000*%
%ADD11R,0.800000X0.400000*%
%ADD12R,1.450000X0.450000*%
%ADD13R,1.350000X1.900000*%
%ADD14R,1.000000X1.200000*%
%ADD15R,1.350000X1.550000*%
%ADD16R,1.800000X1.170000*%
%ADD17R,1.100000X0.750000*%
%ADD18R,1.750000X0.450000*%
%ADD19R,0.650000X1.060000*%
%ADD20R,2.800000X0.740000*%
%ADD21R,0.500000X0.800000*%
%ADD22R,0.400000X0.800000*%
%ADD23R,1.000000X1.900000*%
%ADD24R,1.800000X1.900000*%
%ADD25R,1.650000X1.300000*%
%ADD26R,1.425000X1.550000*%
%ADD27R,0.450000X1.380000*%
%ADD28R,1.510000X0.458000*%
G04 APERTURE END LIST*
G36*
G01*
X174600000Y-94443750D02*
X174600000Y-94956250D01*
G75*
G02*
X174381250Y-95175000I-218750J0D01*
G01*
X173943750Y-95175000D01*
G75*
G02*
X173725000Y-94956250I0J218750D01*
G01*
X173725000Y-94443750D01*
G75*
G02*
X173943750Y-94225000I218750J0D01*
G01*
X174381250Y-94225000D01*
G75*
G02*
X174600000Y-94443750I0J-218750D01*
G01*
G37*
G36*
G01*
X176175000Y-94443750D02*
X176175000Y-94956250D01*
G75*
G02*
X175956250Y-95175000I-218750J0D01*
G01*
X175518750Y-95175000D01*
G75*
G02*
X175300000Y-94956250I0J218750D01*
G01*
X175300000Y-94443750D01*
G75*
G02*
X175518750Y-94225000I218750J0D01*
G01*
X175956250Y-94225000D01*
G75*
G02*
X176175000Y-94443750I0J-218750D01*
G01*
G37*
G36*
G01*
X174600000Y-92943750D02*
X174600000Y-93456250D01*
G75*
G02*
X174381250Y-93675000I-218750J0D01*
G01*
X173943750Y-93675000D01*
G75*
G02*
X173725000Y-93456250I0J218750D01*
G01*
X173725000Y-92943750D01*
G75*
G02*
X173943750Y-92725000I218750J0D01*
G01*
X174381250Y-92725000D01*
G75*
G02*
X174600000Y-92943750I0J-218750D01*
G01*
G37*
G36*
G01*
X176175000Y-92943750D02*
X176175000Y-93456250D01*
G75*
G02*
X175956250Y-93675000I-218750J0D01*
G01*
X175518750Y-93675000D01*
G75*
G02*
X175300000Y-93456250I0J218750D01*
G01*
X175300000Y-92943750D01*
G75*
G02*
X175518750Y-92725000I218750J0D01*
G01*
X175956250Y-92725000D01*
G75*
G02*
X176175000Y-92943750I0J-218750D01*
G01*
G37*
D10*
X190850000Y-101400000D03*
D11*
X190850000Y-102200000D03*
D10*
X190850000Y-103800000D03*
D11*
X190850000Y-103000000D03*
D10*
X192650000Y-101400000D03*
D11*
X192650000Y-103000000D03*
X192650000Y-102200000D03*
D10*
X192650000Y-103800000D03*
X175850000Y-103800000D03*
D11*
X175850000Y-103000000D03*
D10*
X175850000Y-101400000D03*
D11*
X175850000Y-102200000D03*
D10*
X174050000Y-103800000D03*
D11*
X174050000Y-102200000D03*
X174050000Y-103000000D03*
D10*
X174050000Y-101400000D03*
X190850000Y-96600000D03*
D11*
X190850000Y-97400000D03*
D10*
X190850000Y-99000000D03*
D11*
X190850000Y-98200000D03*
D10*
X192650000Y-96600000D03*
D11*
X192650000Y-98200000D03*
X192650000Y-97400000D03*
D10*
X192650000Y-99000000D03*
X175850000Y-99000000D03*
D11*
X175850000Y-98200000D03*
D10*
X175850000Y-96600000D03*
D11*
X175850000Y-97400000D03*
D10*
X174050000Y-99000000D03*
D11*
X174050000Y-97400000D03*
X174050000Y-98200000D03*
D10*
X174050000Y-96600000D03*
X190850000Y-92350000D03*
D11*
X190850000Y-93150000D03*
D10*
X190850000Y-94750000D03*
D11*
X190850000Y-93950000D03*
D10*
X192650000Y-92350000D03*
D11*
X192650000Y-93950000D03*
X192650000Y-93150000D03*
D10*
X192650000Y-94750000D03*
X190850000Y-88550000D03*
D11*
X190850000Y-89350000D03*
D10*
X190850000Y-90950000D03*
D11*
X190850000Y-90150000D03*
D10*
X192650000Y-88550000D03*
D11*
X192650000Y-90150000D03*
X192650000Y-89350000D03*
D10*
X192650000Y-90950000D03*
X175850000Y-91300000D03*
D11*
X175850000Y-90500000D03*
D10*
X175850000Y-88900000D03*
D11*
X175850000Y-89700000D03*
D10*
X174050000Y-91300000D03*
D11*
X174050000Y-89700000D03*
X174050000Y-90500000D03*
D10*
X174050000Y-88900000D03*
X190850000Y-84750000D03*
D11*
X190850000Y-85550000D03*
D10*
X190850000Y-87150000D03*
D11*
X190850000Y-86350000D03*
D10*
X192650000Y-84750000D03*
D11*
X192650000Y-86350000D03*
X192650000Y-85550000D03*
D10*
X192650000Y-87150000D03*
X175850000Y-87500000D03*
D11*
X175850000Y-86700000D03*
D10*
X175850000Y-85100000D03*
D11*
X175850000Y-85900000D03*
D10*
X174050000Y-87500000D03*
D11*
X174050000Y-85900000D03*
X174050000Y-86700000D03*
D10*
X174050000Y-85100000D03*
G36*
G01*
X138900000Y-105475000D02*
X138900000Y-104975000D01*
G75*
G02*
X139100000Y-104775000I200000J0D01*
G01*
X139500000Y-104775000D01*
G75*
G02*
X139700000Y-104975000I0J-200000D01*
G01*
X139700000Y-105475000D01*
G75*
G02*
X139500000Y-105675000I-200000J0D01*
G01*
X139100000Y-105675000D01*
G75*
G02*
X138900000Y-105475000I0J200000D01*
G01*
G37*
G36*
G01*
X138900000Y-106925000D02*
X138900000Y-106425000D01*
G75*
G02*
X139100000Y-106225000I200000J0D01*
G01*
X139500000Y-106225000D01*
G75*
G02*
X139700000Y-106425000I0J-200000D01*
G01*
X139700000Y-106925000D01*
G75*
G02*
X139500000Y-107125000I-200000J0D01*
G01*
X139100000Y-107125000D01*
G75*
G02*
X138900000Y-106925000I0J200000D01*
G01*
G37*
G36*
G01*
X140949999Y-105475000D02*
X140949999Y-104975000D01*
G75*
G02*
X141149999Y-104775000I200000J0D01*
G01*
X141549999Y-104775000D01*
G75*
G02*
X141749999Y-104975000I0J-200000D01*
G01*
X141749999Y-105475000D01*
G75*
G02*
X141549999Y-105675000I-200000J0D01*
G01*
X141149999Y-105675000D01*
G75*
G02*
X140949999Y-105475000I0J200000D01*
G01*
G37*
G36*
G01*
X140949999Y-106925000D02*
X140949999Y-106425000D01*
G75*
G02*
X141149999Y-106225000I200000J0D01*
G01*
X141549999Y-106225000D01*
G75*
G02*
X141749999Y-106425000I0J-200000D01*
G01*
X141749999Y-106925000D01*
G75*
G02*
X141549999Y-107125000I-200000J0D01*
G01*
X141149999Y-107125000D01*
G75*
G02*
X140949999Y-106925000I0J200000D01*
G01*
G37*
G36*
G01*
X137593750Y-106400000D02*
X138106250Y-106400000D01*
G75*
G02*
X138325000Y-106618750I0J-218750D01*
G01*
X138325000Y-107056250D01*
G75*
G02*
X138106250Y-107275000I-218750J0D01*
G01*
X137593750Y-107275000D01*
G75*
G02*
X137375000Y-107056250I0J218750D01*
G01*
X137375000Y-106618750D01*
G75*
G02*
X137593750Y-106400000I218750J0D01*
G01*
G37*
G36*
G01*
X137593750Y-104825000D02*
X138106250Y-104825000D01*
G75*
G02*
X138325000Y-105043750I0J-218750D01*
G01*
X138325000Y-105481250D01*
G75*
G02*
X138106250Y-105700000I-218750J0D01*
G01*
X137593750Y-105700000D01*
G75*
G02*
X137375000Y-105481250I0J218750D01*
G01*
X137375000Y-105043750D01*
G75*
G02*
X137593750Y-104825000I218750J0D01*
G01*
G37*
G36*
G01*
X147743750Y-109950000D02*
X148256250Y-109950000D01*
G75*
G02*
X148475000Y-110168750I0J-218750D01*
G01*
X148475000Y-110606250D01*
G75*
G02*
X148256250Y-110825000I-218750J0D01*
G01*
X147743750Y-110825000D01*
G75*
G02*
X147525000Y-110606250I0J218750D01*
G01*
X147525000Y-110168750D01*
G75*
G02*
X147743750Y-109950000I218750J0D01*
G01*
G37*
G36*
G01*
X147743750Y-108375000D02*
X148256250Y-108375000D01*
G75*
G02*
X148475000Y-108593750I0J-218750D01*
G01*
X148475000Y-109031250D01*
G75*
G02*
X148256250Y-109250000I-218750J0D01*
G01*
X147743750Y-109250000D01*
G75*
G02*
X147525000Y-109031250I0J218750D01*
G01*
X147525000Y-108593750D01*
G75*
G02*
X147743750Y-108375000I218750J0D01*
G01*
G37*
D12*
X178600000Y-109775000D03*
X178600000Y-109125000D03*
X178600000Y-108475000D03*
X178600000Y-107825000D03*
X184500000Y-107825000D03*
X184500000Y-108475000D03*
X184500000Y-109125000D03*
X184500000Y-109775000D03*
G36*
G01*
X187350000Y-107556250D02*
X187350000Y-107043750D01*
G75*
G02*
X187568750Y-106825000I218750J0D01*
G01*
X188006250Y-106825000D01*
G75*
G02*
X188225000Y-107043750I0J-218750D01*
G01*
X188225000Y-107556250D01*
G75*
G02*
X188006250Y-107775000I-218750J0D01*
G01*
X187568750Y-107775000D01*
G75*
G02*
X187350000Y-107556250I0J218750D01*
G01*
G37*
G36*
G01*
X185775000Y-107556250D02*
X185775000Y-107043750D01*
G75*
G02*
X185993750Y-106825000I218750J0D01*
G01*
X186431250Y-106825000D01*
G75*
G02*
X186650000Y-107043750I0J-218750D01*
G01*
X186650000Y-107556250D01*
G75*
G02*
X186431250Y-107775000I-218750J0D01*
G01*
X185993750Y-107775000D01*
G75*
G02*
X185775000Y-107556250I0J218750D01*
G01*
G37*
G36*
G01*
X187350000Y-109056250D02*
X187350000Y-108543750D01*
G75*
G02*
X187568750Y-108325000I218750J0D01*
G01*
X188006250Y-108325000D01*
G75*
G02*
X188225000Y-108543750I0J-218750D01*
G01*
X188225000Y-109056250D01*
G75*
G02*
X188006250Y-109275000I-218750J0D01*
G01*
X187568750Y-109275000D01*
G75*
G02*
X187350000Y-109056250I0J218750D01*
G01*
G37*
G36*
G01*
X185775000Y-109056250D02*
X185775000Y-108543750D01*
G75*
G02*
X185993750Y-108325000I218750J0D01*
G01*
X186431250Y-108325000D01*
G75*
G02*
X186650000Y-108543750I0J-218750D01*
G01*
X186650000Y-109056250D01*
G75*
G02*
X186431250Y-109275000I-218750J0D01*
G01*
X185993750Y-109275000D01*
G75*
G02*
X185775000Y-109056250I0J218750D01*
G01*
G37*
G36*
G01*
X186650000Y-110043750D02*
X186650000Y-110556250D01*
G75*
G02*
X186431250Y-110775000I-218750J0D01*
G01*
X185993750Y-110775000D01*
G75*
G02*
X185775000Y-110556250I0J218750D01*
G01*
X185775000Y-110043750D01*
G75*
G02*
X185993750Y-109825000I218750J0D01*
G01*
X186431250Y-109825000D01*
G75*
G02*
X186650000Y-110043750I0J-218750D01*
G01*
G37*
G36*
G01*
X188225000Y-110043750D02*
X188225000Y-110556250D01*
G75*
G02*
X188006250Y-110775000I-218750J0D01*
G01*
X187568750Y-110775000D01*
G75*
G02*
X187350000Y-110556250I0J218750D01*
G01*
X187350000Y-110043750D01*
G75*
G02*
X187568750Y-109825000I218750J0D01*
G01*
X188006250Y-109825000D01*
G75*
G02*
X188225000Y-110043750I0J-218750D01*
G01*
G37*
G36*
G01*
X175606250Y-110025000D02*
X175093750Y-110025000D01*
G75*
G02*
X174875000Y-109806250I0J218750D01*
G01*
X174875000Y-109368750D01*
G75*
G02*
X175093750Y-109150000I218750J0D01*
G01*
X175606250Y-109150000D01*
G75*
G02*
X175825000Y-109368750I0J-218750D01*
G01*
X175825000Y-109806250D01*
G75*
G02*
X175606250Y-110025000I-218750J0D01*
G01*
G37*
G36*
G01*
X175606250Y-108450000D02*
X175093750Y-108450000D01*
G75*
G02*
X174875000Y-108231250I0J218750D01*
G01*
X174875000Y-107793750D01*
G75*
G02*
X175093750Y-107575000I218750J0D01*
G01*
X175606250Y-107575000D01*
G75*
G02*
X175825000Y-107793750I0J-218750D01*
G01*
X175825000Y-108231250D01*
G75*
G02*
X175606250Y-108450000I-218750J0D01*
G01*
G37*
G36*
G01*
X177106250Y-110025000D02*
X176593750Y-110025000D01*
G75*
G02*
X176375000Y-109806250I0J218750D01*
G01*
X176375000Y-109368750D01*
G75*
G02*
X176593750Y-109150000I218750J0D01*
G01*
X177106250Y-109150000D01*
G75*
G02*
X177325000Y-109368750I0J-218750D01*
G01*
X177325000Y-109806250D01*
G75*
G02*
X177106250Y-110025000I-218750J0D01*
G01*
G37*
G36*
G01*
X177106250Y-108450000D02*
X176593750Y-108450000D01*
G75*
G02*
X176375000Y-108231250I0J218750D01*
G01*
X176375000Y-107793750D01*
G75*
G02*
X176593750Y-107575000I218750J0D01*
G01*
X177106250Y-107575000D01*
G75*
G02*
X177325000Y-107793750I0J-218750D01*
G01*
X177325000Y-108231250D01*
G75*
G02*
X177106250Y-108450000I-218750J0D01*
G01*
G37*
D13*
X147900000Y-82600000D03*
X147900000Y-88500000D03*
D14*
X146900000Y-92000000D03*
X143200000Y-92000000D03*
D15*
X137100000Y-91800000D03*
D16*
X137350000Y-80500000D03*
D17*
X137000000Y-81705000D03*
X137000000Y-82805000D03*
X137000000Y-83905000D03*
X137000000Y-85005000D03*
X137000000Y-86105000D03*
X137000000Y-87205000D03*
X137000000Y-88305000D03*
X137000000Y-89405000D03*
D18*
X138950000Y-103225000D03*
X138950000Y-102575000D03*
X138950000Y-101925000D03*
X138950000Y-101275000D03*
X138950000Y-100625000D03*
X138950000Y-99975000D03*
X138950000Y-99325000D03*
X138950000Y-98675000D03*
X138950000Y-98025000D03*
X138950000Y-97375000D03*
X138950000Y-96725000D03*
X138950000Y-96075000D03*
X138950000Y-95425000D03*
X138950000Y-94775000D03*
X146150000Y-94775000D03*
X146150000Y-95425000D03*
X146150000Y-96075000D03*
X146150000Y-96725000D03*
X146150000Y-97375000D03*
X146150000Y-98025000D03*
X146150000Y-98675000D03*
X146150000Y-99325000D03*
X146150000Y-99975000D03*
X146150000Y-100625000D03*
X146150000Y-101275000D03*
X146150000Y-101925000D03*
X146150000Y-102575000D03*
X146150000Y-103225000D03*
G36*
G01*
X177450000Y-82343750D02*
X177450000Y-82856250D01*
G75*
G02*
X177231250Y-83075000I-218750J0D01*
G01*
X176793750Y-83075000D01*
G75*
G02*
X176575000Y-82856250I0J218750D01*
G01*
X176575000Y-82343750D01*
G75*
G02*
X176793750Y-82125000I218750J0D01*
G01*
X177231250Y-82125000D01*
G75*
G02*
X177450000Y-82343750I0J-218750D01*
G01*
G37*
G36*
G01*
X179025000Y-82343750D02*
X179025000Y-82856250D01*
G75*
G02*
X178806250Y-83075000I-218750J0D01*
G01*
X178368750Y-83075000D01*
G75*
G02*
X178150000Y-82856250I0J218750D01*
G01*
X178150000Y-82343750D01*
G75*
G02*
X178368750Y-82125000I218750J0D01*
G01*
X178806250Y-82125000D01*
G75*
G02*
X179025000Y-82343750I0J-218750D01*
G01*
G37*
D19*
X141000000Y-77500000D03*
X141950000Y-77500000D03*
X140050000Y-77500000D03*
X140050000Y-75300000D03*
X141000000Y-75300000D03*
X141950000Y-75300000D03*
G36*
G01*
X144650000Y-78556250D02*
X144650000Y-78043750D01*
G75*
G02*
X144868750Y-77825000I218750J0D01*
G01*
X145306250Y-77825000D01*
G75*
G02*
X145525000Y-78043750I0J-218750D01*
G01*
X145525000Y-78556250D01*
G75*
G02*
X145306250Y-78775000I-218750J0D01*
G01*
X144868750Y-78775000D01*
G75*
G02*
X144650000Y-78556250I0J218750D01*
G01*
G37*
G36*
G01*
X143075000Y-78556250D02*
X143075000Y-78043750D01*
G75*
G02*
X143293750Y-77825000I218750J0D01*
G01*
X143731250Y-77825000D01*
G75*
G02*
X143950000Y-78043750I0J-218750D01*
G01*
X143950000Y-78556250D01*
G75*
G02*
X143731250Y-78775000I-218750J0D01*
G01*
X143293750Y-78775000D01*
G75*
G02*
X143075000Y-78556250I0J218750D01*
G01*
G37*
G36*
G01*
X173245000Y-73450000D02*
X172945000Y-73450000D01*
G75*
G02*
X172795000Y-73300000I0J150000D01*
G01*
X172795000Y-72000000D01*
G75*
G02*
X172945000Y-71850000I150000J0D01*
G01*
X173245000Y-71850000D01*
G75*
G02*
X173395000Y-72000000I0J-150000D01*
G01*
X173395000Y-73300000D01*
G75*
G02*
X173245000Y-73450000I-150000J0D01*
G01*
G37*
G36*
G01*
X174515000Y-73450000D02*
X174215000Y-73450000D01*
G75*
G02*
X174065000Y-73300000I0J150000D01*
G01*
X174065000Y-72000000D01*
G75*
G02*
X174215000Y-71850000I150000J0D01*
G01*
X174515000Y-71850000D01*
G75*
G02*
X174665000Y-72000000I0J-150000D01*
G01*
X174665000Y-73300000D01*
G75*
G02*
X174515000Y-73450000I-150000J0D01*
G01*
G37*
G36*
G01*
X175785000Y-73450000D02*
X175485000Y-73450000D01*
G75*
G02*
X175335000Y-73300000I0J150000D01*
G01*
X175335000Y-72000000D01*
G75*
G02*
X175485000Y-71850000I150000J0D01*
G01*
X175785000Y-71850000D01*
G75*
G02*
X175935000Y-72000000I0J-150000D01*
G01*
X175935000Y-73300000D01*
G75*
G02*
X175785000Y-73450000I-150000J0D01*
G01*
G37*
G36*
G01*
X177055000Y-73450000D02*
X176755000Y-73450000D01*
G75*
G02*
X176605000Y-73300000I0J150000D01*
G01*
X176605000Y-72000000D01*
G75*
G02*
X176755000Y-71850000I150000J0D01*
G01*
X177055000Y-71850000D01*
G75*
G02*
X177205000Y-72000000I0J-150000D01*
G01*
X177205000Y-73300000D01*
G75*
G02*
X177055000Y-73450000I-150000J0D01*
G01*
G37*
G36*
G01*
X177055000Y-80650000D02*
X176755000Y-80650000D01*
G75*
G02*
X176605000Y-80500000I0J150000D01*
G01*
X176605000Y-79200000D01*
G75*
G02*
X176755000Y-79050000I150000J0D01*
G01*
X177055000Y-79050000D01*
G75*
G02*
X177205000Y-79200000I0J-150000D01*
G01*
X177205000Y-80500000D01*
G75*
G02*
X177055000Y-80650000I-150000J0D01*
G01*
G37*
G36*
G01*
X175785000Y-80650000D02*
X175485000Y-80650000D01*
G75*
G02*
X175335000Y-80500000I0J150000D01*
G01*
X175335000Y-79200000D01*
G75*
G02*
X175485000Y-79050000I150000J0D01*
G01*
X175785000Y-79050000D01*
G75*
G02*
X175935000Y-79200000I0J-150000D01*
G01*
X175935000Y-80500000D01*
G75*
G02*
X175785000Y-80650000I-150000J0D01*
G01*
G37*
G36*
G01*
X174515000Y-80650000D02*
X174215000Y-80650000D01*
G75*
G02*
X174065000Y-80500000I0J150000D01*
G01*
X174065000Y-79200000D01*
G75*
G02*
X174215000Y-79050000I150000J0D01*
G01*
X174515000Y-79050000D01*
G75*
G02*
X174665000Y-79200000I0J-150000D01*
G01*
X174665000Y-80500000D01*
G75*
G02*
X174515000Y-80650000I-150000J0D01*
G01*
G37*
G36*
G01*
X173245000Y-80650000D02*
X172945000Y-80650000D01*
G75*
G02*
X172795000Y-80500000I0J150000D01*
G01*
X172795000Y-79200000D01*
G75*
G02*
X172945000Y-79050000I150000J0D01*
G01*
X173245000Y-79050000D01*
G75*
G02*
X173395000Y-79200000I0J-150000D01*
G01*
X173395000Y-80500000D01*
G75*
G02*
X173245000Y-80650000I-150000J0D01*
G01*
G37*
G36*
G01*
X153163000Y-73450000D02*
X152863000Y-73450000D01*
G75*
G02*
X152713000Y-73300000I0J150000D01*
G01*
X152713000Y-72000000D01*
G75*
G02*
X152863000Y-71850000I150000J0D01*
G01*
X153163000Y-71850000D01*
G75*
G02*
X153313000Y-72000000I0J-150000D01*
G01*
X153313000Y-73300000D01*
G75*
G02*
X153163000Y-73450000I-150000J0D01*
G01*
G37*
G36*
G01*
X154433000Y-73450000D02*
X154133000Y-73450000D01*
G75*
G02*
X153983000Y-73300000I0J150000D01*
G01*
X153983000Y-72000000D01*
G75*
G02*
X154133000Y-71850000I150000J0D01*
G01*
X154433000Y-71850000D01*
G75*
G02*
X154583000Y-72000000I0J-150000D01*
G01*
X154583000Y-73300000D01*
G75*
G02*
X154433000Y-73450000I-150000J0D01*
G01*
G37*
G36*
G01*
X155703000Y-73450000D02*
X155403000Y-73450000D01*
G75*
G02*
X155253000Y-73300000I0J150000D01*
G01*
X155253000Y-72000000D01*
G75*
G02*
X155403000Y-71850000I150000J0D01*
G01*
X155703000Y-71850000D01*
G75*
G02*
X155853000Y-72000000I0J-150000D01*
G01*
X155853000Y-73300000D01*
G75*
G02*
X155703000Y-73450000I-150000J0D01*
G01*
G37*
G36*
G01*
X156973000Y-73450000D02*
X156673000Y-73450000D01*
G75*
G02*
X156523000Y-73300000I0J150000D01*
G01*
X156523000Y-72000000D01*
G75*
G02*
X156673000Y-71850000I150000J0D01*
G01*
X156973000Y-71850000D01*
G75*
G02*
X157123000Y-72000000I0J-150000D01*
G01*
X157123000Y-73300000D01*
G75*
G02*
X156973000Y-73450000I-150000J0D01*
G01*
G37*
G36*
G01*
X156973000Y-80650000D02*
X156673000Y-80650000D01*
G75*
G02*
X156523000Y-80500000I0J150000D01*
G01*
X156523000Y-79200000D01*
G75*
G02*
X156673000Y-79050000I150000J0D01*
G01*
X156973000Y-79050000D01*
G75*
G02*
X157123000Y-79200000I0J-150000D01*
G01*
X157123000Y-80500000D01*
G75*
G02*
X156973000Y-80650000I-150000J0D01*
G01*
G37*
G36*
G01*
X155703000Y-80650000D02*
X155403000Y-80650000D01*
G75*
G02*
X155253000Y-80500000I0J150000D01*
G01*
X155253000Y-79200000D01*
G75*
G02*
X155403000Y-79050000I150000J0D01*
G01*
X155703000Y-79050000D01*
G75*
G02*
X155853000Y-79200000I0J-150000D01*
G01*
X155853000Y-80500000D01*
G75*
G02*
X155703000Y-80650000I-150000J0D01*
G01*
G37*
G36*
G01*
X154433000Y-80650000D02*
X154133000Y-80650000D01*
G75*
G02*
X153983000Y-80500000I0J150000D01*
G01*
X153983000Y-79200000D01*
G75*
G02*
X154133000Y-79050000I150000J0D01*
G01*
X154433000Y-79050000D01*
G75*
G02*
X154583000Y-79200000I0J-150000D01*
G01*
X154583000Y-80500000D01*
G75*
G02*
X154433000Y-80650000I-150000J0D01*
G01*
G37*
G36*
G01*
X153163000Y-80650000D02*
X152863000Y-80650000D01*
G75*
G02*
X152713000Y-80500000I0J150000D01*
G01*
X152713000Y-79200000D01*
G75*
G02*
X152863000Y-79050000I150000J0D01*
G01*
X153163000Y-79050000D01*
G75*
G02*
X153313000Y-79200000I0J-150000D01*
G01*
X153313000Y-80500000D01*
G75*
G02*
X153163000Y-80650000I-150000J0D01*
G01*
G37*
G36*
G01*
X160425000Y-109125000D02*
X160425000Y-108625000D01*
G75*
G02*
X160625000Y-108425000I200000J0D01*
G01*
X161025000Y-108425000D01*
G75*
G02*
X161225000Y-108625000I0J-200000D01*
G01*
X161225000Y-109125000D01*
G75*
G02*
X161025000Y-109325000I-200000J0D01*
G01*
X160625000Y-109325000D01*
G75*
G02*
X160425000Y-109125000I0J200000D01*
G01*
G37*
G36*
G01*
X160425000Y-110575000D02*
X160425000Y-110075000D01*
G75*
G02*
X160625000Y-109875000I200000J0D01*
G01*
X161025000Y-109875000D01*
G75*
G02*
X161225000Y-110075000I0J-200000D01*
G01*
X161225000Y-110575000D01*
G75*
G02*
X161025000Y-110775000I-200000J0D01*
G01*
X160625000Y-110775000D01*
G75*
G02*
X160425000Y-110575000I0J200000D01*
G01*
G37*
G36*
G01*
X162474999Y-109125000D02*
X162474999Y-108625000D01*
G75*
G02*
X162674999Y-108425000I200000J0D01*
G01*
X163074999Y-108425000D01*
G75*
G02*
X163274999Y-108625000I0J-200000D01*
G01*
X163274999Y-109125000D01*
G75*
G02*
X163074999Y-109325000I-200000J0D01*
G01*
X162674999Y-109325000D01*
G75*
G02*
X162474999Y-109125000I0J200000D01*
G01*
G37*
G36*
G01*
X162474999Y-110575000D02*
X162474999Y-110075000D01*
G75*
G02*
X162674999Y-109875000I200000J0D01*
G01*
X163074999Y-109875000D01*
G75*
G02*
X163274999Y-110075000I0J-200000D01*
G01*
X163274999Y-110575000D01*
G75*
G02*
X163074999Y-110775000I-200000J0D01*
G01*
X162674999Y-110775000D01*
G75*
G02*
X162474999Y-110575000I0J200000D01*
G01*
G37*
D20*
X187050000Y-78790000D03*
X183050000Y-78790000D03*
X187050000Y-77520000D03*
X183050000Y-77520000D03*
X187050000Y-76250000D03*
X183050000Y-76250000D03*
X187050000Y-74980000D03*
X183050000Y-74980000D03*
X187050000Y-73710000D03*
X183050000Y-73710000D03*
X166950000Y-78790000D03*
X162950000Y-78790000D03*
X166950000Y-77520000D03*
X162950000Y-77520000D03*
X166950000Y-76250000D03*
X162950000Y-76250000D03*
X166950000Y-74980000D03*
X162950000Y-74980000D03*
X166950000Y-73710000D03*
X162950000Y-73710000D03*
G36*
G01*
X149243000Y-71955000D02*
X149243000Y-71655000D01*
G75*
G02*
X149393000Y-71505000I150000J0D01*
G01*
X151143000Y-71505000D01*
G75*
G02*
X151293000Y-71655000I0J-150000D01*
G01*
X151293000Y-71955000D01*
G75*
G02*
X151143000Y-72105000I-150000J0D01*
G01*
X149393000Y-72105000D01*
G75*
G02*
X149243000Y-71955000I0J150000D01*
G01*
G37*
G36*
G01*
X149243000Y-73225000D02*
X149243000Y-72925000D01*
G75*
G02*
X149393000Y-72775000I150000J0D01*
G01*
X151143000Y-72775000D01*
G75*
G02*
X151293000Y-72925000I0J-150000D01*
G01*
X151293000Y-73225000D01*
G75*
G02*
X151143000Y-73375000I-150000J0D01*
G01*
X149393000Y-73375000D01*
G75*
G02*
X149243000Y-73225000I0J150000D01*
G01*
G37*
G36*
G01*
X149243000Y-74495000D02*
X149243000Y-74195000D01*
G75*
G02*
X149393000Y-74045000I150000J0D01*
G01*
X151143000Y-74045000D01*
G75*
G02*
X151293000Y-74195000I0J-150000D01*
G01*
X151293000Y-74495000D01*
G75*
G02*
X151143000Y-74645000I-150000J0D01*
G01*
X149393000Y-74645000D01*
G75*
G02*
X149243000Y-74495000I0J150000D01*
G01*
G37*
G36*
G01*
X149243000Y-75765000D02*
X149243000Y-75465000D01*
G75*
G02*
X149393000Y-75315000I150000J0D01*
G01*
X151143000Y-75315000D01*
G75*
G02*
X151293000Y-75465000I0J-150000D01*
G01*
X151293000Y-75765000D01*
G75*
G02*
X151143000Y-75915000I-150000J0D01*
G01*
X149393000Y-75915000D01*
G75*
G02*
X149243000Y-75765000I0J150000D01*
G01*
G37*
G36*
G01*
X149243000Y-77035000D02*
X149243000Y-76735000D01*
G75*
G02*
X149393000Y-76585000I150000J0D01*
G01*
X151143000Y-76585000D01*
G75*
G02*
X151293000Y-76735000I0J-150000D01*
G01*
X151293000Y-77035000D01*
G75*
G02*
X151143000Y-77185000I-150000J0D01*
G01*
X149393000Y-77185000D01*
G75*
G02*
X149243000Y-77035000I0J150000D01*
G01*
G37*
G36*
G01*
X149243000Y-78305000D02*
X149243000Y-78005000D01*
G75*
G02*
X149393000Y-77855000I150000J0D01*
G01*
X151143000Y-77855000D01*
G75*
G02*
X151293000Y-78005000I0J-150000D01*
G01*
X151293000Y-78305000D01*
G75*
G02*
X151143000Y-78455000I-150000J0D01*
G01*
X149393000Y-78455000D01*
G75*
G02*
X149243000Y-78305000I0J150000D01*
G01*
G37*
G36*
G01*
X149243000Y-79575000D02*
X149243000Y-79275000D01*
G75*
G02*
X149393000Y-79125000I150000J0D01*
G01*
X151143000Y-79125000D01*
G75*
G02*
X151293000Y-79275000I0J-150000D01*
G01*
X151293000Y-79575000D01*
G75*
G02*
X151143000Y-79725000I-150000J0D01*
G01*
X149393000Y-79725000D01*
G75*
G02*
X149243000Y-79575000I0J150000D01*
G01*
G37*
G36*
G01*
X149243000Y-80845000D02*
X149243000Y-80545000D01*
G75*
G02*
X149393000Y-80395000I150000J0D01*
G01*
X151143000Y-80395000D01*
G75*
G02*
X151293000Y-80545000I0J-150000D01*
G01*
X151293000Y-80845000D01*
G75*
G02*
X151143000Y-80995000I-150000J0D01*
G01*
X149393000Y-80995000D01*
G75*
G02*
X149243000Y-80845000I0J150000D01*
G01*
G37*
G36*
G01*
X158543000Y-80845000D02*
X158543000Y-80545000D01*
G75*
G02*
X158693000Y-80395000I150000J0D01*
G01*
X160443000Y-80395000D01*
G75*
G02*
X160593000Y-80545000I0J-150000D01*
G01*
X160593000Y-80845000D01*
G75*
G02*
X160443000Y-80995000I-150000J0D01*
G01*
X158693000Y-80995000D01*
G75*
G02*
X158543000Y-80845000I0J150000D01*
G01*
G37*
G36*
G01*
X158543000Y-79575000D02*
X158543000Y-79275000D01*
G75*
G02*
X158693000Y-79125000I150000J0D01*
G01*
X160443000Y-79125000D01*
G75*
G02*
X160593000Y-79275000I0J-150000D01*
G01*
X160593000Y-79575000D01*
G75*
G02*
X160443000Y-79725000I-150000J0D01*
G01*
X158693000Y-79725000D01*
G75*
G02*
X158543000Y-79575000I0J150000D01*
G01*
G37*
G36*
G01*
X158543000Y-78305000D02*
X158543000Y-78005000D01*
G75*
G02*
X158693000Y-77855000I150000J0D01*
G01*
X160443000Y-77855000D01*
G75*
G02*
X160593000Y-78005000I0J-150000D01*
G01*
X160593000Y-78305000D01*
G75*
G02*
X160443000Y-78455000I-150000J0D01*
G01*
X158693000Y-78455000D01*
G75*
G02*
X158543000Y-78305000I0J150000D01*
G01*
G37*
G36*
G01*
X158543000Y-77035000D02*
X158543000Y-76735000D01*
G75*
G02*
X158693000Y-76585000I150000J0D01*
G01*
X160443000Y-76585000D01*
G75*
G02*
X160593000Y-76735000I0J-150000D01*
G01*
X160593000Y-77035000D01*
G75*
G02*
X160443000Y-77185000I-150000J0D01*
G01*
X158693000Y-77185000D01*
G75*
G02*
X158543000Y-77035000I0J150000D01*
G01*
G37*
G36*
G01*
X158543000Y-75765000D02*
X158543000Y-75465000D01*
G75*
G02*
X158693000Y-75315000I150000J0D01*
G01*
X160443000Y-75315000D01*
G75*
G02*
X160593000Y-75465000I0J-150000D01*
G01*
X160593000Y-75765000D01*
G75*
G02*
X160443000Y-75915000I-150000J0D01*
G01*
X158693000Y-75915000D01*
G75*
G02*
X158543000Y-75765000I0J150000D01*
G01*
G37*
G36*
G01*
X158543000Y-74495000D02*
X158543000Y-74195000D01*
G75*
G02*
X158693000Y-74045000I150000J0D01*
G01*
X160443000Y-74045000D01*
G75*
G02*
X160593000Y-74195000I0J-150000D01*
G01*
X160593000Y-74495000D01*
G75*
G02*
X160443000Y-74645000I-150000J0D01*
G01*
X158693000Y-74645000D01*
G75*
G02*
X158543000Y-74495000I0J150000D01*
G01*
G37*
G36*
G01*
X158543000Y-73225000D02*
X158543000Y-72925000D01*
G75*
G02*
X158693000Y-72775000I150000J0D01*
G01*
X160443000Y-72775000D01*
G75*
G02*
X160593000Y-72925000I0J-150000D01*
G01*
X160593000Y-73225000D01*
G75*
G02*
X160443000Y-73375000I-150000J0D01*
G01*
X158693000Y-73375000D01*
G75*
G02*
X158543000Y-73225000I0J150000D01*
G01*
G37*
G36*
G01*
X158543000Y-71955000D02*
X158543000Y-71655000D01*
G75*
G02*
X158693000Y-71505000I150000J0D01*
G01*
X160443000Y-71505000D01*
G75*
G02*
X160593000Y-71655000I0J-150000D01*
G01*
X160593000Y-71955000D01*
G75*
G02*
X160443000Y-72105000I-150000J0D01*
G01*
X158693000Y-72105000D01*
G75*
G02*
X158543000Y-71955000I0J150000D01*
G01*
G37*
D21*
X146000000Y-108700000D03*
D22*
X145200000Y-108700000D03*
D21*
X143600000Y-108700000D03*
D22*
X144400000Y-108700000D03*
D21*
X146000000Y-110500000D03*
D22*
X144400000Y-110500000D03*
X145200000Y-110500000D03*
D21*
X143600000Y-110500000D03*
G36*
G01*
X159093750Y-109950000D02*
X159606250Y-109950000D01*
G75*
G02*
X159825000Y-110168750I0J-218750D01*
G01*
X159825000Y-110606250D01*
G75*
G02*
X159606250Y-110825000I-218750J0D01*
G01*
X159093750Y-110825000D01*
G75*
G02*
X158875000Y-110606250I0J218750D01*
G01*
X158875000Y-110168750D01*
G75*
G02*
X159093750Y-109950000I218750J0D01*
G01*
G37*
G36*
G01*
X159093750Y-108375000D02*
X159606250Y-108375000D01*
G75*
G02*
X159825000Y-108593750I0J-218750D01*
G01*
X159825000Y-109031250D01*
G75*
G02*
X159606250Y-109250000I-218750J0D01*
G01*
X159093750Y-109250000D01*
G75*
G02*
X158875000Y-109031250I0J218750D01*
G01*
X158875000Y-108593750D01*
G75*
G02*
X159093750Y-108375000I218750J0D01*
G01*
G37*
G36*
G01*
X147700000Y-77356250D02*
X147700000Y-76843750D01*
G75*
G02*
X147918750Y-76625000I218750J0D01*
G01*
X148356250Y-76625000D01*
G75*
G02*
X148575000Y-76843750I0J-218750D01*
G01*
X148575000Y-77356250D01*
G75*
G02*
X148356250Y-77575000I-218750J0D01*
G01*
X147918750Y-77575000D01*
G75*
G02*
X147700000Y-77356250I0J218750D01*
G01*
G37*
G36*
G01*
X146125000Y-77356250D02*
X146125000Y-76843750D01*
G75*
G02*
X146343750Y-76625000I218750J0D01*
G01*
X146781250Y-76625000D01*
G75*
G02*
X147000000Y-76843750I0J-218750D01*
G01*
X147000000Y-77356250D01*
G75*
G02*
X146781250Y-77575000I-218750J0D01*
G01*
X146343750Y-77575000D01*
G75*
G02*
X146125000Y-77356250I0J218750D01*
G01*
G37*
G36*
G01*
X147700000Y-75556250D02*
X147700000Y-75043750D01*
G75*
G02*
X147918750Y-74825000I218750J0D01*
G01*
X148356250Y-74825000D01*
G75*
G02*
X148575000Y-75043750I0J-218750D01*
G01*
X148575000Y-75556250D01*
G75*
G02*
X148356250Y-75775000I-218750J0D01*
G01*
X147918750Y-75775000D01*
G75*
G02*
X147700000Y-75556250I0J218750D01*
G01*
G37*
G36*
G01*
X146125000Y-75556250D02*
X146125000Y-75043750D01*
G75*
G02*
X146343750Y-74825000I218750J0D01*
G01*
X146781250Y-74825000D01*
G75*
G02*
X147000000Y-75043750I0J-218750D01*
G01*
X147000000Y-75556250D01*
G75*
G02*
X146781250Y-75775000I-218750J0D01*
G01*
X146343750Y-75775000D01*
G75*
G02*
X146125000Y-75556250I0J218750D01*
G01*
G37*
G36*
G01*
X147700000Y-73756250D02*
X147700000Y-73243750D01*
G75*
G02*
X147918750Y-73025000I218750J0D01*
G01*
X148356250Y-73025000D01*
G75*
G02*
X148575000Y-73243750I0J-218750D01*
G01*
X148575000Y-73756250D01*
G75*
G02*
X148356250Y-73975000I-218750J0D01*
G01*
X147918750Y-73975000D01*
G75*
G02*
X147700000Y-73756250I0J218750D01*
G01*
G37*
G36*
G01*
X146125000Y-73756250D02*
X146125000Y-73243750D01*
G75*
G02*
X146343750Y-73025000I218750J0D01*
G01*
X146781250Y-73025000D01*
G75*
G02*
X147000000Y-73243750I0J-218750D01*
G01*
X147000000Y-73756250D01*
G75*
G02*
X146781250Y-73975000I-218750J0D01*
G01*
X146343750Y-73975000D01*
G75*
G02*
X146125000Y-73756250I0J218750D01*
G01*
G37*
G36*
G01*
X147700000Y-71956250D02*
X147700000Y-71443750D01*
G75*
G02*
X147918750Y-71225000I218750J0D01*
G01*
X148356250Y-71225000D01*
G75*
G02*
X148575000Y-71443750I0J-218750D01*
G01*
X148575000Y-71956250D01*
G75*
G02*
X148356250Y-72175000I-218750J0D01*
G01*
X147918750Y-72175000D01*
G75*
G02*
X147700000Y-71956250I0J218750D01*
G01*
G37*
G36*
G01*
X146125000Y-71956250D02*
X146125000Y-71443750D01*
G75*
G02*
X146343750Y-71225000I218750J0D01*
G01*
X146781250Y-71225000D01*
G75*
G02*
X147000000Y-71443750I0J-218750D01*
G01*
X147000000Y-71956250D01*
G75*
G02*
X146781250Y-72175000I-218750J0D01*
G01*
X146343750Y-72175000D01*
G75*
G02*
X146125000Y-71956250I0J218750D01*
G01*
G37*
G36*
G01*
X185450000Y-82343750D02*
X185450000Y-82856250D01*
G75*
G02*
X185231250Y-83075000I-218750J0D01*
G01*
X184793750Y-83075000D01*
G75*
G02*
X184575000Y-82856250I0J218750D01*
G01*
X184575000Y-82343750D01*
G75*
G02*
X184793750Y-82125000I218750J0D01*
G01*
X185231250Y-82125000D01*
G75*
G02*
X185450000Y-82343750I0J-218750D01*
G01*
G37*
G36*
G01*
X187025000Y-82343750D02*
X187025000Y-82856250D01*
G75*
G02*
X186806250Y-83075000I-218750J0D01*
G01*
X186368750Y-83075000D01*
G75*
G02*
X186150000Y-82856250I0J218750D01*
G01*
X186150000Y-82343750D01*
G75*
G02*
X186368750Y-82125000I218750J0D01*
G01*
X186806250Y-82125000D01*
G75*
G02*
X187025000Y-82343750I0J-218750D01*
G01*
G37*
G36*
G01*
X137350000Y-75043750D02*
X137350000Y-75556250D01*
G75*
G02*
X137131250Y-75775000I-218750J0D01*
G01*
X136693750Y-75775000D01*
G75*
G02*
X136475000Y-75556250I0J218750D01*
G01*
X136475000Y-75043750D01*
G75*
G02*
X136693750Y-74825000I218750J0D01*
G01*
X137131250Y-74825000D01*
G75*
G02*
X137350000Y-75043750I0J-218750D01*
G01*
G37*
G36*
G01*
X138925000Y-75043750D02*
X138925000Y-75556250D01*
G75*
G02*
X138706250Y-75775000I-218750J0D01*
G01*
X138268750Y-75775000D01*
G75*
G02*
X138050000Y-75556250I0J218750D01*
G01*
X138050000Y-75043750D01*
G75*
G02*
X138268750Y-74825000I218750J0D01*
G01*
X138706250Y-74825000D01*
G75*
G02*
X138925000Y-75043750I0J-218750D01*
G01*
G37*
G36*
G01*
X138050000Y-77056250D02*
X138050000Y-76543750D01*
G75*
G02*
X138268750Y-76325000I218750J0D01*
G01*
X138706250Y-76325000D01*
G75*
G02*
X138925000Y-76543750I0J-218750D01*
G01*
X138925000Y-77056250D01*
G75*
G02*
X138706250Y-77275000I-218750J0D01*
G01*
X138268750Y-77275000D01*
G75*
G02*
X138050000Y-77056250I0J218750D01*
G01*
G37*
G36*
G01*
X136475000Y-77056250D02*
X136475000Y-76543750D01*
G75*
G02*
X136693750Y-76325000I218750J0D01*
G01*
X137131250Y-76325000D01*
G75*
G02*
X137350000Y-76543750I0J-218750D01*
G01*
X137350000Y-77056250D01*
G75*
G02*
X137131250Y-77275000I-218750J0D01*
G01*
X136693750Y-77275000D01*
G75*
G02*
X136475000Y-77056250I0J218750D01*
G01*
G37*
G36*
G01*
X143950000Y-75043750D02*
X143950000Y-75556250D01*
G75*
G02*
X143731250Y-75775000I-218750J0D01*
G01*
X143293750Y-75775000D01*
G75*
G02*
X143075000Y-75556250I0J218750D01*
G01*
X143075000Y-75043750D01*
G75*
G02*
X143293750Y-74825000I218750J0D01*
G01*
X143731250Y-74825000D01*
G75*
G02*
X143950000Y-75043750I0J-218750D01*
G01*
G37*
G36*
G01*
X145525000Y-75043750D02*
X145525000Y-75556250D01*
G75*
G02*
X145306250Y-75775000I-218750J0D01*
G01*
X144868750Y-75775000D01*
G75*
G02*
X144650000Y-75556250I0J218750D01*
G01*
X144650000Y-75043750D01*
G75*
G02*
X144868750Y-74825000I218750J0D01*
G01*
X145306250Y-74825000D01*
G75*
G02*
X145525000Y-75043750I0J-218750D01*
G01*
G37*
G36*
G01*
X137350000Y-78043750D02*
X137350000Y-78556250D01*
G75*
G02*
X137131250Y-78775000I-218750J0D01*
G01*
X136693750Y-78775000D01*
G75*
G02*
X136475000Y-78556250I0J218750D01*
G01*
X136475000Y-78043750D01*
G75*
G02*
X136693750Y-77825000I218750J0D01*
G01*
X137131250Y-77825000D01*
G75*
G02*
X137350000Y-78043750I0J-218750D01*
G01*
G37*
G36*
G01*
X138925000Y-78043750D02*
X138925000Y-78556250D01*
G75*
G02*
X138706250Y-78775000I-218750J0D01*
G01*
X138268750Y-78775000D01*
G75*
G02*
X138050000Y-78556250I0J218750D01*
G01*
X138050000Y-78043750D01*
G75*
G02*
X138268750Y-77825000I218750J0D01*
G01*
X138706250Y-77825000D01*
G75*
G02*
X138925000Y-78043750I0J-218750D01*
G01*
G37*
G36*
G01*
X144650000Y-77056250D02*
X144650000Y-76543750D01*
G75*
G02*
X144868750Y-76325000I218750J0D01*
G01*
X145306250Y-76325000D01*
G75*
G02*
X145525000Y-76543750I0J-218750D01*
G01*
X145525000Y-77056250D01*
G75*
G02*
X145306250Y-77275000I-218750J0D01*
G01*
X144868750Y-77275000D01*
G75*
G02*
X144650000Y-77056250I0J218750D01*
G01*
G37*
G36*
G01*
X143075000Y-77056250D02*
X143075000Y-76543750D01*
G75*
G02*
X143293750Y-76325000I218750J0D01*
G01*
X143731250Y-76325000D01*
G75*
G02*
X143950000Y-76543750I0J-218750D01*
G01*
X143950000Y-77056250D01*
G75*
G02*
X143731250Y-77275000I-218750J0D01*
G01*
X143293750Y-77275000D01*
G75*
G02*
X143075000Y-77056250I0J218750D01*
G01*
G37*
D23*
X139450000Y-70400000D03*
D24*
X142150000Y-70400000D03*
D25*
X137625000Y-70400000D03*
X144375000Y-70400000D03*
D26*
X138512500Y-72975000D03*
X143487500Y-72975000D03*
D27*
X139700000Y-73060000D03*
X140350000Y-73060000D03*
X141000000Y-73060000D03*
X141650000Y-73060000D03*
X142300000Y-73060000D03*
D28*
X177590000Y-105400000D03*
X177590000Y-104600000D03*
X177590000Y-103800000D03*
X177590000Y-103000000D03*
X177590000Y-102200000D03*
X177590000Y-101400000D03*
X177590000Y-100600000D03*
X177590000Y-99800000D03*
X177590000Y-99000000D03*
X177590000Y-98200000D03*
X177590000Y-97400000D03*
X177590000Y-96600000D03*
X177590000Y-95800000D03*
X177590000Y-95000000D03*
X177590000Y-94200000D03*
X177590000Y-93400000D03*
X177590000Y-92600000D03*
X177590000Y-91800000D03*
X177590000Y-91000000D03*
X177590000Y-90200000D03*
X177590000Y-89400000D03*
X177590000Y-88600000D03*
X177590000Y-87800000D03*
X177590000Y-87000000D03*
X177590000Y-86200000D03*
X177590000Y-85400000D03*
X177590000Y-84600000D03*
X189090000Y-84600000D03*
X189090000Y-85400000D03*
X189090000Y-86200000D03*
X189090000Y-87000000D03*
X189090000Y-87800000D03*
X189090000Y-88600000D03*
X189090000Y-89400000D03*
X189090000Y-90200000D03*
X189090000Y-91000000D03*
X189090000Y-91800000D03*
X189090000Y-92600000D03*
X189090000Y-93400000D03*
X189090000Y-94200000D03*
X189090000Y-95000000D03*
X189090000Y-95800000D03*
X189090000Y-96600000D03*
X189090000Y-97400000D03*
X189090000Y-98200000D03*
X189090000Y-99000000D03*
X189090000Y-99800000D03*
X189090000Y-100600000D03*
X189090000Y-101400000D03*
X189090000Y-102200000D03*
X189090000Y-103000000D03*
X189090000Y-103800000D03*
X189090000Y-104600000D03*
X189090000Y-105400000D03*
D21*
X172150000Y-108700000D03*
D22*
X171350000Y-108700000D03*
D21*
X169750000Y-108700000D03*
D22*
X170550000Y-108700000D03*
D21*
X172150000Y-110500000D03*
D22*
X170550000Y-110500000D03*
X171350000Y-110500000D03*
D21*
X169750000Y-110500000D03*
X167250000Y-108700000D03*
D22*
X166450000Y-108700000D03*
D21*
X164850000Y-108700000D03*
D22*
X165650000Y-108700000D03*
D21*
X167250000Y-110500000D03*
D22*
X165650000Y-110500000D03*
X166450000Y-110500000D03*
D21*
X164850000Y-110500000D03*
X154850000Y-110500000D03*
D22*
X156450000Y-110500000D03*
X155650000Y-110500000D03*
D21*
X157250000Y-110500000D03*
D22*
X155650000Y-108700000D03*
D21*
X154850000Y-108700000D03*
D22*
X156450000Y-108700000D03*
D21*
X157250000Y-108700000D03*
X152350000Y-108700000D03*
D22*
X151550000Y-108700000D03*
D21*
X149950000Y-108700000D03*
D22*
X150750000Y-108700000D03*
D21*
X152350000Y-110500000D03*
D22*
X150750000Y-110500000D03*
X151550000Y-110500000D03*
D21*
X149950000Y-110500000D03*
X140900000Y-108700000D03*
D22*
X140100000Y-108700000D03*
D21*
X138500000Y-108700000D03*
D22*
X139300000Y-108700000D03*
D21*
X140900000Y-110500000D03*
D22*
X139300000Y-110500000D03*
X140100000Y-110500000D03*
D21*
X138500000Y-110500000D03*
G36*
G01*
X169325000Y-71955000D02*
X169325000Y-71655000D01*
G75*
G02*
X169475000Y-71505000I150000J0D01*
G01*
X171225000Y-71505000D01*
G75*
G02*
X171375000Y-71655000I0J-150000D01*
G01*
X171375000Y-71955000D01*
G75*
G02*
X171225000Y-72105000I-150000J0D01*
G01*
X169475000Y-72105000D01*
G75*
G02*
X169325000Y-71955000I0J150000D01*
G01*
G37*
G36*
G01*
X169325000Y-73225000D02*
X169325000Y-72925000D01*
G75*
G02*
X169475000Y-72775000I150000J0D01*
G01*
X171225000Y-72775000D01*
G75*
G02*
X171375000Y-72925000I0J-150000D01*
G01*
X171375000Y-73225000D01*
G75*
G02*
X171225000Y-73375000I-150000J0D01*
G01*
X169475000Y-73375000D01*
G75*
G02*
X169325000Y-73225000I0J150000D01*
G01*
G37*
G36*
G01*
X169325000Y-74495000D02*
X169325000Y-74195000D01*
G75*
G02*
X169475000Y-74045000I150000J0D01*
G01*
X171225000Y-74045000D01*
G75*
G02*
X171375000Y-74195000I0J-150000D01*
G01*
X171375000Y-74495000D01*
G75*
G02*
X171225000Y-74645000I-150000J0D01*
G01*
X169475000Y-74645000D01*
G75*
G02*
X169325000Y-74495000I0J150000D01*
G01*
G37*
G36*
G01*
X169325000Y-75765000D02*
X169325000Y-75465000D01*
G75*
G02*
X169475000Y-75315000I150000J0D01*
G01*
X171225000Y-75315000D01*
G75*
G02*
X171375000Y-75465000I0J-150000D01*
G01*
X171375000Y-75765000D01*
G75*
G02*
X171225000Y-75915000I-150000J0D01*
G01*
X169475000Y-75915000D01*
G75*
G02*
X169325000Y-75765000I0J150000D01*
G01*
G37*
G36*
G01*
X169325000Y-77035000D02*
X169325000Y-76735000D01*
G75*
G02*
X169475000Y-76585000I150000J0D01*
G01*
X171225000Y-76585000D01*
G75*
G02*
X171375000Y-76735000I0J-150000D01*
G01*
X171375000Y-77035000D01*
G75*
G02*
X171225000Y-77185000I-150000J0D01*
G01*
X169475000Y-77185000D01*
G75*
G02*
X169325000Y-77035000I0J150000D01*
G01*
G37*
G36*
G01*
X169325000Y-78305000D02*
X169325000Y-78005000D01*
G75*
G02*
X169475000Y-77855000I150000J0D01*
G01*
X171225000Y-77855000D01*
G75*
G02*
X171375000Y-78005000I0J-150000D01*
G01*
X171375000Y-78305000D01*
G75*
G02*
X171225000Y-78455000I-150000J0D01*
G01*
X169475000Y-78455000D01*
G75*
G02*
X169325000Y-78305000I0J150000D01*
G01*
G37*
G36*
G01*
X169325000Y-79575000D02*
X169325000Y-79275000D01*
G75*
G02*
X169475000Y-79125000I150000J0D01*
G01*
X171225000Y-79125000D01*
G75*
G02*
X171375000Y-79275000I0J-150000D01*
G01*
X171375000Y-79575000D01*
G75*
G02*
X171225000Y-79725000I-150000J0D01*
G01*
X169475000Y-79725000D01*
G75*
G02*
X169325000Y-79575000I0J150000D01*
G01*
G37*
G36*
G01*
X169325000Y-80845000D02*
X169325000Y-80545000D01*
G75*
G02*
X169475000Y-80395000I150000J0D01*
G01*
X171225000Y-80395000D01*
G75*
G02*
X171375000Y-80545000I0J-150000D01*
G01*
X171375000Y-80845000D01*
G75*
G02*
X171225000Y-80995000I-150000J0D01*
G01*
X169475000Y-80995000D01*
G75*
G02*
X169325000Y-80845000I0J150000D01*
G01*
G37*
G36*
G01*
X178625000Y-80845000D02*
X178625000Y-80545000D01*
G75*
G02*
X178775000Y-80395000I150000J0D01*
G01*
X180525000Y-80395000D01*
G75*
G02*
X180675000Y-80545000I0J-150000D01*
G01*
X180675000Y-80845000D01*
G75*
G02*
X180525000Y-80995000I-150000J0D01*
G01*
X178775000Y-80995000D01*
G75*
G02*
X178625000Y-80845000I0J150000D01*
G01*
G37*
G36*
G01*
X178625000Y-79575000D02*
X178625000Y-79275000D01*
G75*
G02*
X178775000Y-79125000I150000J0D01*
G01*
X180525000Y-79125000D01*
G75*
G02*
X180675000Y-79275000I0J-150000D01*
G01*
X180675000Y-79575000D01*
G75*
G02*
X180525000Y-79725000I-150000J0D01*
G01*
X178775000Y-79725000D01*
G75*
G02*
X178625000Y-79575000I0J150000D01*
G01*
G37*
G36*
G01*
X178625000Y-78305000D02*
X178625000Y-78005000D01*
G75*
G02*
X178775000Y-77855000I150000J0D01*
G01*
X180525000Y-77855000D01*
G75*
G02*
X180675000Y-78005000I0J-150000D01*
G01*
X180675000Y-78305000D01*
G75*
G02*
X180525000Y-78455000I-150000J0D01*
G01*
X178775000Y-78455000D01*
G75*
G02*
X178625000Y-78305000I0J150000D01*
G01*
G37*
G36*
G01*
X178625000Y-77035000D02*
X178625000Y-76735000D01*
G75*
G02*
X178775000Y-76585000I150000J0D01*
G01*
X180525000Y-76585000D01*
G75*
G02*
X180675000Y-76735000I0J-150000D01*
G01*
X180675000Y-77035000D01*
G75*
G02*
X180525000Y-77185000I-150000J0D01*
G01*
X178775000Y-77185000D01*
G75*
G02*
X178625000Y-77035000I0J150000D01*
G01*
G37*
G36*
G01*
X178625000Y-75765000D02*
X178625000Y-75465000D01*
G75*
G02*
X178775000Y-75315000I150000J0D01*
G01*
X180525000Y-75315000D01*
G75*
G02*
X180675000Y-75465000I0J-150000D01*
G01*
X180675000Y-75765000D01*
G75*
G02*
X180525000Y-75915000I-150000J0D01*
G01*
X178775000Y-75915000D01*
G75*
G02*
X178625000Y-75765000I0J150000D01*
G01*
G37*
G36*
G01*
X178625000Y-74495000D02*
X178625000Y-74195000D01*
G75*
G02*
X178775000Y-74045000I150000J0D01*
G01*
X180525000Y-74045000D01*
G75*
G02*
X180675000Y-74195000I0J-150000D01*
G01*
X180675000Y-74495000D01*
G75*
G02*
X180525000Y-74645000I-150000J0D01*
G01*
X178775000Y-74645000D01*
G75*
G02*
X178625000Y-74495000I0J150000D01*
G01*
G37*
G36*
G01*
X178625000Y-73225000D02*
X178625000Y-72925000D01*
G75*
G02*
X178775000Y-72775000I150000J0D01*
G01*
X180525000Y-72775000D01*
G75*
G02*
X180675000Y-72925000I0J-150000D01*
G01*
X180675000Y-73225000D01*
G75*
G02*
X180525000Y-73375000I-150000J0D01*
G01*
X178775000Y-73375000D01*
G75*
G02*
X178625000Y-73225000I0J150000D01*
G01*
G37*
G36*
G01*
X178625000Y-71955000D02*
X178625000Y-71655000D01*
G75*
G02*
X178775000Y-71505000I150000J0D01*
G01*
X180525000Y-71505000D01*
G75*
G02*
X180675000Y-71655000I0J-150000D01*
G01*
X180675000Y-71955000D01*
G75*
G02*
X180525000Y-72105000I-150000J0D01*
G01*
X178775000Y-72105000D01*
G75*
G02*
X178625000Y-71955000I0J150000D01*
G01*
G37*
G36*
G01*
X169950000Y-105000000D02*
X169950000Y-106325000D01*
G75*
G02*
X169875000Y-106400000I-75000J0D01*
G01*
X169725000Y-106400000D01*
G75*
G02*
X169650000Y-106325000I0J75000D01*
G01*
X169650000Y-105000000D01*
G75*
G02*
X169725000Y-104925000I75000J0D01*
G01*
X169875000Y-104925000D01*
G75*
G02*
X169950000Y-105000000I0J-75000D01*
G01*
G37*
G36*
G01*
X169450000Y-105000000D02*
X169450000Y-106325000D01*
G75*
G02*
X169375000Y-106400000I-75000J0D01*
G01*
X169225000Y-106400000D01*
G75*
G02*
X169150000Y-106325000I0J75000D01*
G01*
X169150000Y-105000000D01*
G75*
G02*
X169225000Y-104925000I75000J0D01*
G01*
X169375000Y-104925000D01*
G75*
G02*
X169450000Y-105000000I0J-75000D01*
G01*
G37*
G36*
G01*
X168950000Y-105000000D02*
X168950000Y-106325000D01*
G75*
G02*
X168875000Y-106400000I-75000J0D01*
G01*
X168725000Y-106400000D01*
G75*
G02*
X168650000Y-106325000I0J75000D01*
G01*
X168650000Y-105000000D01*
G75*
G02*
X168725000Y-104925000I75000J0D01*
G01*
X168875000Y-104925000D01*
G75*
G02*
X168950000Y-105000000I0J-75000D01*
G01*
G37*
G36*
G01*
X168450000Y-105000000D02*
X168450000Y-106325000D01*
G75*
G02*
X168375000Y-106400000I-75000J0D01*
G01*
X168225000Y-106400000D01*
G75*
G02*
X168150000Y-106325000I0J75000D01*
G01*
X168150000Y-105000000D01*
G75*
G02*
X168225000Y-104925000I75000J0D01*
G01*
X168375000Y-104925000D01*
G75*
G02*
X168450000Y-105000000I0J-75000D01*
G01*
G37*
G36*
G01*
X167950000Y-105000000D02*
X167950000Y-106325000D01*
G75*
G02*
X167875000Y-106400000I-75000J0D01*
G01*
X167725000Y-106400000D01*
G75*
G02*
X167650000Y-106325000I0J75000D01*
G01*
X167650000Y-105000000D01*
G75*
G02*
X167725000Y-104925000I75000J0D01*
G01*
X167875000Y-104925000D01*
G75*
G02*
X167950000Y-105000000I0J-75000D01*
G01*
G37*
G36*
G01*
X167450000Y-105000000D02*
X167450000Y-106325000D01*
G75*
G02*
X167375000Y-106400000I-75000J0D01*
G01*
X167225000Y-106400000D01*
G75*
G02*
X167150000Y-106325000I0J75000D01*
G01*
X167150000Y-105000000D01*
G75*
G02*
X167225000Y-104925000I75000J0D01*
G01*
X167375000Y-104925000D01*
G75*
G02*
X167450000Y-105000000I0J-75000D01*
G01*
G37*
G36*
G01*
X166950000Y-105000000D02*
X166950000Y-106325000D01*
G75*
G02*
X166875000Y-106400000I-75000J0D01*
G01*
X166725000Y-106400000D01*
G75*
G02*
X166650000Y-106325000I0J75000D01*
G01*
X166650000Y-105000000D01*
G75*
G02*
X166725000Y-104925000I75000J0D01*
G01*
X166875000Y-104925000D01*
G75*
G02*
X166950000Y-105000000I0J-75000D01*
G01*
G37*
G36*
G01*
X166450000Y-105000000D02*
X166450000Y-106325000D01*
G75*
G02*
X166375000Y-106400000I-75000J0D01*
G01*
X166225000Y-106400000D01*
G75*
G02*
X166150000Y-106325000I0J75000D01*
G01*
X166150000Y-105000000D01*
G75*
G02*
X166225000Y-104925000I75000J0D01*
G01*
X166375000Y-104925000D01*
G75*
G02*
X166450000Y-105000000I0J-75000D01*
G01*
G37*
G36*
G01*
X165950000Y-105000000D02*
X165950000Y-106325000D01*
G75*
G02*
X165875000Y-106400000I-75000J0D01*
G01*
X165725000Y-106400000D01*
G75*
G02*
X165650000Y-106325000I0J75000D01*
G01*
X165650000Y-105000000D01*
G75*
G02*
X165725000Y-104925000I75000J0D01*
G01*
X165875000Y-104925000D01*
G75*
G02*
X165950000Y-105000000I0J-75000D01*
G01*
G37*
G36*
G01*
X165450000Y-105000000D02*
X165450000Y-106325000D01*
G75*
G02*
X165375000Y-106400000I-75000J0D01*
G01*
X165225000Y-106400000D01*
G75*
G02*
X165150000Y-106325000I0J75000D01*
G01*
X165150000Y-105000000D01*
G75*
G02*
X165225000Y-104925000I75000J0D01*
G01*
X165375000Y-104925000D01*
G75*
G02*
X165450000Y-105000000I0J-75000D01*
G01*
G37*
G36*
G01*
X164950000Y-105000000D02*
X164950000Y-106325000D01*
G75*
G02*
X164875000Y-106400000I-75000J0D01*
G01*
X164725000Y-106400000D01*
G75*
G02*
X164650000Y-106325000I0J75000D01*
G01*
X164650000Y-105000000D01*
G75*
G02*
X164725000Y-104925000I75000J0D01*
G01*
X164875000Y-104925000D01*
G75*
G02*
X164950000Y-105000000I0J-75000D01*
G01*
G37*
G36*
G01*
X164450000Y-105000000D02*
X164450000Y-106325000D01*
G75*
G02*
X164375000Y-106400000I-75000J0D01*
G01*
X164225000Y-106400000D01*
G75*
G02*
X164150000Y-106325000I0J75000D01*
G01*
X164150000Y-105000000D01*
G75*
G02*
X164225000Y-104925000I75000J0D01*
G01*
X164375000Y-104925000D01*
G75*
G02*
X164450000Y-105000000I0J-75000D01*
G01*
G37*
G36*
G01*
X163950000Y-105000000D02*
X163950000Y-106325000D01*
G75*
G02*
X163875000Y-106400000I-75000J0D01*
G01*
X163725000Y-106400000D01*
G75*
G02*
X163650000Y-106325000I0J75000D01*
G01*
X163650000Y-105000000D01*
G75*
G02*
X163725000Y-104925000I75000J0D01*
G01*
X163875000Y-104925000D01*
G75*
G02*
X163950000Y-105000000I0J-75000D01*
G01*
G37*
G36*
G01*
X163450000Y-105000000D02*
X163450000Y-106325000D01*
G75*
G02*
X163375000Y-106400000I-75000J0D01*
G01*
X163225000Y-106400000D01*
G75*
G02*
X163150000Y-106325000I0J75000D01*
G01*
X163150000Y-105000000D01*
G75*
G02*
X163225000Y-104925000I75000J0D01*
G01*
X163375000Y-104925000D01*
G75*
G02*
X163450000Y-105000000I0J-75000D01*
G01*
G37*
G36*
G01*
X162950000Y-105000000D02*
X162950000Y-106325000D01*
G75*
G02*
X162875000Y-106400000I-75000J0D01*
G01*
X162725000Y-106400000D01*
G75*
G02*
X162650000Y-106325000I0J75000D01*
G01*
X162650000Y-105000000D01*
G75*
G02*
X162725000Y-104925000I75000J0D01*
G01*
X162875000Y-104925000D01*
G75*
G02*
X162950000Y-105000000I0J-75000D01*
G01*
G37*
G36*
G01*
X162450000Y-105000000D02*
X162450000Y-106325000D01*
G75*
G02*
X162375000Y-106400000I-75000J0D01*
G01*
X162225000Y-106400000D01*
G75*
G02*
X162150000Y-106325000I0J75000D01*
G01*
X162150000Y-105000000D01*
G75*
G02*
X162225000Y-104925000I75000J0D01*
G01*
X162375000Y-104925000D01*
G75*
G02*
X162450000Y-105000000I0J-75000D01*
G01*
G37*
G36*
G01*
X161950000Y-105000000D02*
X161950000Y-106325000D01*
G75*
G02*
X161875000Y-106400000I-75000J0D01*
G01*
X161725000Y-106400000D01*
G75*
G02*
X161650000Y-106325000I0J75000D01*
G01*
X161650000Y-105000000D01*
G75*
G02*
X161725000Y-104925000I75000J0D01*
G01*
X161875000Y-104925000D01*
G75*
G02*
X161950000Y-105000000I0J-75000D01*
G01*
G37*
G36*
G01*
X161450000Y-105000000D02*
X161450000Y-106325000D01*
G75*
G02*
X161375000Y-106400000I-75000J0D01*
G01*
X161225000Y-106400000D01*
G75*
G02*
X161150000Y-106325000I0J75000D01*
G01*
X161150000Y-105000000D01*
G75*
G02*
X161225000Y-104925000I75000J0D01*
G01*
X161375000Y-104925000D01*
G75*
G02*
X161450000Y-105000000I0J-75000D01*
G01*
G37*
G36*
G01*
X160950000Y-105000000D02*
X160950000Y-106325000D01*
G75*
G02*
X160875000Y-106400000I-75000J0D01*
G01*
X160725000Y-106400000D01*
G75*
G02*
X160650000Y-106325000I0J75000D01*
G01*
X160650000Y-105000000D01*
G75*
G02*
X160725000Y-104925000I75000J0D01*
G01*
X160875000Y-104925000D01*
G75*
G02*
X160950000Y-105000000I0J-75000D01*
G01*
G37*
G36*
G01*
X160450000Y-105000000D02*
X160450000Y-106325000D01*
G75*
G02*
X160375000Y-106400000I-75000J0D01*
G01*
X160225000Y-106400000D01*
G75*
G02*
X160150000Y-106325000I0J75000D01*
G01*
X160150000Y-105000000D01*
G75*
G02*
X160225000Y-104925000I75000J0D01*
G01*
X160375000Y-104925000D01*
G75*
G02*
X160450000Y-105000000I0J-75000D01*
G01*
G37*
G36*
G01*
X159950000Y-105000000D02*
X159950000Y-106325000D01*
G75*
G02*
X159875000Y-106400000I-75000J0D01*
G01*
X159725000Y-106400000D01*
G75*
G02*
X159650000Y-106325000I0J75000D01*
G01*
X159650000Y-105000000D01*
G75*
G02*
X159725000Y-104925000I75000J0D01*
G01*
X159875000Y-104925000D01*
G75*
G02*
X159950000Y-105000000I0J-75000D01*
G01*
G37*
G36*
G01*
X159450000Y-105000000D02*
X159450000Y-106325000D01*
G75*
G02*
X159375000Y-106400000I-75000J0D01*
G01*
X159225000Y-106400000D01*
G75*
G02*
X159150000Y-106325000I0J75000D01*
G01*
X159150000Y-105000000D01*
G75*
G02*
X159225000Y-104925000I75000J0D01*
G01*
X159375000Y-104925000D01*
G75*
G02*
X159450000Y-105000000I0J-75000D01*
G01*
G37*
G36*
G01*
X158950000Y-105000000D02*
X158950000Y-106325000D01*
G75*
G02*
X158875000Y-106400000I-75000J0D01*
G01*
X158725000Y-106400000D01*
G75*
G02*
X158650000Y-106325000I0J75000D01*
G01*
X158650000Y-105000000D01*
G75*
G02*
X158725000Y-104925000I75000J0D01*
G01*
X158875000Y-104925000D01*
G75*
G02*
X158950000Y-105000000I0J-75000D01*
G01*
G37*
G36*
G01*
X158450000Y-105000000D02*
X158450000Y-106325000D01*
G75*
G02*
X158375000Y-106400000I-75000J0D01*
G01*
X158225000Y-106400000D01*
G75*
G02*
X158150000Y-106325000I0J75000D01*
G01*
X158150000Y-105000000D01*
G75*
G02*
X158225000Y-104925000I75000J0D01*
G01*
X158375000Y-104925000D01*
G75*
G02*
X158450000Y-105000000I0J-75000D01*
G01*
G37*
G36*
G01*
X157950000Y-105000000D02*
X157950000Y-106325000D01*
G75*
G02*
X157875000Y-106400000I-75000J0D01*
G01*
X157725000Y-106400000D01*
G75*
G02*
X157650000Y-106325000I0J75000D01*
G01*
X157650000Y-105000000D01*
G75*
G02*
X157725000Y-104925000I75000J0D01*
G01*
X157875000Y-104925000D01*
G75*
G02*
X157950000Y-105000000I0J-75000D01*
G01*
G37*
G36*
G01*
X157450000Y-105000000D02*
X157450000Y-106325000D01*
G75*
G02*
X157375000Y-106400000I-75000J0D01*
G01*
X157225000Y-106400000D01*
G75*
G02*
X157150000Y-106325000I0J75000D01*
G01*
X157150000Y-105000000D01*
G75*
G02*
X157225000Y-104925000I75000J0D01*
G01*
X157375000Y-104925000D01*
G75*
G02*
X157450000Y-105000000I0J-75000D01*
G01*
G37*
G36*
G01*
X156950000Y-105000000D02*
X156950000Y-106325000D01*
G75*
G02*
X156875000Y-106400000I-75000J0D01*
G01*
X156725000Y-106400000D01*
G75*
G02*
X156650000Y-106325000I0J75000D01*
G01*
X156650000Y-105000000D01*
G75*
G02*
X156725000Y-104925000I75000J0D01*
G01*
X156875000Y-104925000D01*
G75*
G02*
X156950000Y-105000000I0J-75000D01*
G01*
G37*
G36*
G01*
X156450000Y-105000000D02*
X156450000Y-106325000D01*
G75*
G02*
X156375000Y-106400000I-75000J0D01*
G01*
X156225000Y-106400000D01*
G75*
G02*
X156150000Y-106325000I0J75000D01*
G01*
X156150000Y-105000000D01*
G75*
G02*
X156225000Y-104925000I75000J0D01*
G01*
X156375000Y-104925000D01*
G75*
G02*
X156450000Y-105000000I0J-75000D01*
G01*
G37*
G36*
G01*
X155950000Y-105000000D02*
X155950000Y-106325000D01*
G75*
G02*
X155875000Y-106400000I-75000J0D01*
G01*
X155725000Y-106400000D01*
G75*
G02*
X155650000Y-106325000I0J75000D01*
G01*
X155650000Y-105000000D01*
G75*
G02*
X155725000Y-104925000I75000J0D01*
G01*
X155875000Y-104925000D01*
G75*
G02*
X155950000Y-105000000I0J-75000D01*
G01*
G37*
G36*
G01*
X155450000Y-105000000D02*
X155450000Y-106325000D01*
G75*
G02*
X155375000Y-106400000I-75000J0D01*
G01*
X155225000Y-106400000D01*
G75*
G02*
X155150000Y-106325000I0J75000D01*
G01*
X155150000Y-105000000D01*
G75*
G02*
X155225000Y-104925000I75000J0D01*
G01*
X155375000Y-104925000D01*
G75*
G02*
X155450000Y-105000000I0J-75000D01*
G01*
G37*
G36*
G01*
X154950000Y-105000000D02*
X154950000Y-106325000D01*
G75*
G02*
X154875000Y-106400000I-75000J0D01*
G01*
X154725000Y-106400000D01*
G75*
G02*
X154650000Y-106325000I0J75000D01*
G01*
X154650000Y-105000000D01*
G75*
G02*
X154725000Y-104925000I75000J0D01*
G01*
X154875000Y-104925000D01*
G75*
G02*
X154950000Y-105000000I0J-75000D01*
G01*
G37*
G36*
G01*
X154450000Y-105000000D02*
X154450000Y-106325000D01*
G75*
G02*
X154375000Y-106400000I-75000J0D01*
G01*
X154225000Y-106400000D01*
G75*
G02*
X154150000Y-106325000I0J75000D01*
G01*
X154150000Y-105000000D01*
G75*
G02*
X154225000Y-104925000I75000J0D01*
G01*
X154375000Y-104925000D01*
G75*
G02*
X154450000Y-105000000I0J-75000D01*
G01*
G37*
G36*
G01*
X153950000Y-105000000D02*
X153950000Y-106325000D01*
G75*
G02*
X153875000Y-106400000I-75000J0D01*
G01*
X153725000Y-106400000D01*
G75*
G02*
X153650000Y-106325000I0J75000D01*
G01*
X153650000Y-105000000D01*
G75*
G02*
X153725000Y-104925000I75000J0D01*
G01*
X153875000Y-104925000D01*
G75*
G02*
X153950000Y-105000000I0J-75000D01*
G01*
G37*
G36*
G01*
X153450000Y-105000000D02*
X153450000Y-106325000D01*
G75*
G02*
X153375000Y-106400000I-75000J0D01*
G01*
X153225000Y-106400000D01*
G75*
G02*
X153150000Y-106325000I0J75000D01*
G01*
X153150000Y-105000000D01*
G75*
G02*
X153225000Y-104925000I75000J0D01*
G01*
X153375000Y-104925000D01*
G75*
G02*
X153450000Y-105000000I0J-75000D01*
G01*
G37*
G36*
G01*
X152950000Y-105000000D02*
X152950000Y-106325000D01*
G75*
G02*
X152875000Y-106400000I-75000J0D01*
G01*
X152725000Y-106400000D01*
G75*
G02*
X152650000Y-106325000I0J75000D01*
G01*
X152650000Y-105000000D01*
G75*
G02*
X152725000Y-104925000I75000J0D01*
G01*
X152875000Y-104925000D01*
G75*
G02*
X152950000Y-105000000I0J-75000D01*
G01*
G37*
G36*
G01*
X152450000Y-105000000D02*
X152450000Y-106325000D01*
G75*
G02*
X152375000Y-106400000I-75000J0D01*
G01*
X152225000Y-106400000D01*
G75*
G02*
X152150000Y-106325000I0J75000D01*
G01*
X152150000Y-105000000D01*
G75*
G02*
X152225000Y-104925000I75000J0D01*
G01*
X152375000Y-104925000D01*
G75*
G02*
X152450000Y-105000000I0J-75000D01*
G01*
G37*
G36*
G01*
X151125000Y-103675000D02*
X151125000Y-103825000D01*
G75*
G02*
X151050000Y-103900000I-75000J0D01*
G01*
X149725000Y-103900000D01*
G75*
G02*
X149650000Y-103825000I0J75000D01*
G01*
X149650000Y-103675000D01*
G75*
G02*
X149725000Y-103600000I75000J0D01*
G01*
X151050000Y-103600000D01*
G75*
G02*
X151125000Y-103675000I0J-75000D01*
G01*
G37*
G36*
G01*
X151125000Y-103175000D02*
X151125000Y-103325000D01*
G75*
G02*
X151050000Y-103400000I-75000J0D01*
G01*
X149725000Y-103400000D01*
G75*
G02*
X149650000Y-103325000I0J75000D01*
G01*
X149650000Y-103175000D01*
G75*
G02*
X149725000Y-103100000I75000J0D01*
G01*
X151050000Y-103100000D01*
G75*
G02*
X151125000Y-103175000I0J-75000D01*
G01*
G37*
G36*
G01*
X151125000Y-102675000D02*
X151125000Y-102825000D01*
G75*
G02*
X151050000Y-102900000I-75000J0D01*
G01*
X149725000Y-102900000D01*
G75*
G02*
X149650000Y-102825000I0J75000D01*
G01*
X149650000Y-102675000D01*
G75*
G02*
X149725000Y-102600000I75000J0D01*
G01*
X151050000Y-102600000D01*
G75*
G02*
X151125000Y-102675000I0J-75000D01*
G01*
G37*
G36*
G01*
X151125000Y-102175000D02*
X151125000Y-102325000D01*
G75*
G02*
X151050000Y-102400000I-75000J0D01*
G01*
X149725000Y-102400000D01*
G75*
G02*
X149650000Y-102325000I0J75000D01*
G01*
X149650000Y-102175000D01*
G75*
G02*
X149725000Y-102100000I75000J0D01*
G01*
X151050000Y-102100000D01*
G75*
G02*
X151125000Y-102175000I0J-75000D01*
G01*
G37*
G36*
G01*
X151125000Y-101675000D02*
X151125000Y-101825000D01*
G75*
G02*
X151050000Y-101900000I-75000J0D01*
G01*
X149725000Y-101900000D01*
G75*
G02*
X149650000Y-101825000I0J75000D01*
G01*
X149650000Y-101675000D01*
G75*
G02*
X149725000Y-101600000I75000J0D01*
G01*
X151050000Y-101600000D01*
G75*
G02*
X151125000Y-101675000I0J-75000D01*
G01*
G37*
G36*
G01*
X151125000Y-101175000D02*
X151125000Y-101325000D01*
G75*
G02*
X151050000Y-101400000I-75000J0D01*
G01*
X149725000Y-101400000D01*
G75*
G02*
X149650000Y-101325000I0J75000D01*
G01*
X149650000Y-101175000D01*
G75*
G02*
X149725000Y-101100000I75000J0D01*
G01*
X151050000Y-101100000D01*
G75*
G02*
X151125000Y-101175000I0J-75000D01*
G01*
G37*
G36*
G01*
X151125000Y-100675000D02*
X151125000Y-100825000D01*
G75*
G02*
X151050000Y-100900000I-75000J0D01*
G01*
X149725000Y-100900000D01*
G75*
G02*
X149650000Y-100825000I0J75000D01*
G01*
X149650000Y-100675000D01*
G75*
G02*
X149725000Y-100600000I75000J0D01*
G01*
X151050000Y-100600000D01*
G75*
G02*
X151125000Y-100675000I0J-75000D01*
G01*
G37*
G36*
G01*
X151125000Y-100175000D02*
X151125000Y-100325000D01*
G75*
G02*
X151050000Y-100400000I-75000J0D01*
G01*
X149725000Y-100400000D01*
G75*
G02*
X149650000Y-100325000I0J75000D01*
G01*
X149650000Y-100175000D01*
G75*
G02*
X149725000Y-100100000I75000J0D01*
G01*
X151050000Y-100100000D01*
G75*
G02*
X151125000Y-100175000I0J-75000D01*
G01*
G37*
G36*
G01*
X151125000Y-99675000D02*
X151125000Y-99825000D01*
G75*
G02*
X151050000Y-99900000I-75000J0D01*
G01*
X149725000Y-99900000D01*
G75*
G02*
X149650000Y-99825000I0J75000D01*
G01*
X149650000Y-99675000D01*
G75*
G02*
X149725000Y-99600000I75000J0D01*
G01*
X151050000Y-99600000D01*
G75*
G02*
X151125000Y-99675000I0J-75000D01*
G01*
G37*
G36*
G01*
X151125000Y-99175000D02*
X151125000Y-99325000D01*
G75*
G02*
X151050000Y-99400000I-75000J0D01*
G01*
X149725000Y-99400000D01*
G75*
G02*
X149650000Y-99325000I0J75000D01*
G01*
X149650000Y-99175000D01*
G75*
G02*
X149725000Y-99100000I75000J0D01*
G01*
X151050000Y-99100000D01*
G75*
G02*
X151125000Y-99175000I0J-75000D01*
G01*
G37*
G36*
G01*
X151125000Y-98675000D02*
X151125000Y-98825000D01*
G75*
G02*
X151050000Y-98900000I-75000J0D01*
G01*
X149725000Y-98900000D01*
G75*
G02*
X149650000Y-98825000I0J75000D01*
G01*
X149650000Y-98675000D01*
G75*
G02*
X149725000Y-98600000I75000J0D01*
G01*
X151050000Y-98600000D01*
G75*
G02*
X151125000Y-98675000I0J-75000D01*
G01*
G37*
G36*
G01*
X151125000Y-98175000D02*
X151125000Y-98325000D01*
G75*
G02*
X151050000Y-98400000I-75000J0D01*
G01*
X149725000Y-98400000D01*
G75*
G02*
X149650000Y-98325000I0J75000D01*
G01*
X149650000Y-98175000D01*
G75*
G02*
X149725000Y-98100000I75000J0D01*
G01*
X151050000Y-98100000D01*
G75*
G02*
X151125000Y-98175000I0J-75000D01*
G01*
G37*
G36*
G01*
X151125000Y-97675000D02*
X151125000Y-97825000D01*
G75*
G02*
X151050000Y-97900000I-75000J0D01*
G01*
X149725000Y-97900000D01*
G75*
G02*
X149650000Y-97825000I0J75000D01*
G01*
X149650000Y-97675000D01*
G75*
G02*
X149725000Y-97600000I75000J0D01*
G01*
X151050000Y-97600000D01*
G75*
G02*
X151125000Y-97675000I0J-75000D01*
G01*
G37*
G36*
G01*
X151125000Y-97175000D02*
X151125000Y-97325000D01*
G75*
G02*
X151050000Y-97400000I-75000J0D01*
G01*
X149725000Y-97400000D01*
G75*
G02*
X149650000Y-97325000I0J75000D01*
G01*
X149650000Y-97175000D01*
G75*
G02*
X149725000Y-97100000I75000J0D01*
G01*
X151050000Y-97100000D01*
G75*
G02*
X151125000Y-97175000I0J-75000D01*
G01*
G37*
G36*
G01*
X151125000Y-96675000D02*
X151125000Y-96825000D01*
G75*
G02*
X151050000Y-96900000I-75000J0D01*
G01*
X149725000Y-96900000D01*
G75*
G02*
X149650000Y-96825000I0J75000D01*
G01*
X149650000Y-96675000D01*
G75*
G02*
X149725000Y-96600000I75000J0D01*
G01*
X151050000Y-96600000D01*
G75*
G02*
X151125000Y-96675000I0J-75000D01*
G01*
G37*
G36*
G01*
X151125000Y-96175000D02*
X151125000Y-96325000D01*
G75*
G02*
X151050000Y-96400000I-75000J0D01*
G01*
X149725000Y-96400000D01*
G75*
G02*
X149650000Y-96325000I0J75000D01*
G01*
X149650000Y-96175000D01*
G75*
G02*
X149725000Y-96100000I75000J0D01*
G01*
X151050000Y-96100000D01*
G75*
G02*
X151125000Y-96175000I0J-75000D01*
G01*
G37*
G36*
G01*
X151125000Y-95675000D02*
X151125000Y-95825000D01*
G75*
G02*
X151050000Y-95900000I-75000J0D01*
G01*
X149725000Y-95900000D01*
G75*
G02*
X149650000Y-95825000I0J75000D01*
G01*
X149650000Y-95675000D01*
G75*
G02*
X149725000Y-95600000I75000J0D01*
G01*
X151050000Y-95600000D01*
G75*
G02*
X151125000Y-95675000I0J-75000D01*
G01*
G37*
G36*
G01*
X151125000Y-95175000D02*
X151125000Y-95325000D01*
G75*
G02*
X151050000Y-95400000I-75000J0D01*
G01*
X149725000Y-95400000D01*
G75*
G02*
X149650000Y-95325000I0J75000D01*
G01*
X149650000Y-95175000D01*
G75*
G02*
X149725000Y-95100000I75000J0D01*
G01*
X151050000Y-95100000D01*
G75*
G02*
X151125000Y-95175000I0J-75000D01*
G01*
G37*
G36*
G01*
X151125000Y-94675000D02*
X151125000Y-94825000D01*
G75*
G02*
X151050000Y-94900000I-75000J0D01*
G01*
X149725000Y-94900000D01*
G75*
G02*
X149650000Y-94825000I0J75000D01*
G01*
X149650000Y-94675000D01*
G75*
G02*
X149725000Y-94600000I75000J0D01*
G01*
X151050000Y-94600000D01*
G75*
G02*
X151125000Y-94675000I0J-75000D01*
G01*
G37*
G36*
G01*
X151125000Y-94175000D02*
X151125000Y-94325000D01*
G75*
G02*
X151050000Y-94400000I-75000J0D01*
G01*
X149725000Y-94400000D01*
G75*
G02*
X149650000Y-94325000I0J75000D01*
G01*
X149650000Y-94175000D01*
G75*
G02*
X149725000Y-94100000I75000J0D01*
G01*
X151050000Y-94100000D01*
G75*
G02*
X151125000Y-94175000I0J-75000D01*
G01*
G37*
G36*
G01*
X151125000Y-93675000D02*
X151125000Y-93825000D01*
G75*
G02*
X151050000Y-93900000I-75000J0D01*
G01*
X149725000Y-93900000D01*
G75*
G02*
X149650000Y-93825000I0J75000D01*
G01*
X149650000Y-93675000D01*
G75*
G02*
X149725000Y-93600000I75000J0D01*
G01*
X151050000Y-93600000D01*
G75*
G02*
X151125000Y-93675000I0J-75000D01*
G01*
G37*
G36*
G01*
X151125000Y-93175000D02*
X151125000Y-93325000D01*
G75*
G02*
X151050000Y-93400000I-75000J0D01*
G01*
X149725000Y-93400000D01*
G75*
G02*
X149650000Y-93325000I0J75000D01*
G01*
X149650000Y-93175000D01*
G75*
G02*
X149725000Y-93100000I75000J0D01*
G01*
X151050000Y-93100000D01*
G75*
G02*
X151125000Y-93175000I0J-75000D01*
G01*
G37*
G36*
G01*
X151125000Y-92675000D02*
X151125000Y-92825000D01*
G75*
G02*
X151050000Y-92900000I-75000J0D01*
G01*
X149725000Y-92900000D01*
G75*
G02*
X149650000Y-92825000I0J75000D01*
G01*
X149650000Y-92675000D01*
G75*
G02*
X149725000Y-92600000I75000J0D01*
G01*
X151050000Y-92600000D01*
G75*
G02*
X151125000Y-92675000I0J-75000D01*
G01*
G37*
G36*
G01*
X151125000Y-92175000D02*
X151125000Y-92325000D01*
G75*
G02*
X151050000Y-92400000I-75000J0D01*
G01*
X149725000Y-92400000D01*
G75*
G02*
X149650000Y-92325000I0J75000D01*
G01*
X149650000Y-92175000D01*
G75*
G02*
X149725000Y-92100000I75000J0D01*
G01*
X151050000Y-92100000D01*
G75*
G02*
X151125000Y-92175000I0J-75000D01*
G01*
G37*
G36*
G01*
X151125000Y-91675000D02*
X151125000Y-91825000D01*
G75*
G02*
X151050000Y-91900000I-75000J0D01*
G01*
X149725000Y-91900000D01*
G75*
G02*
X149650000Y-91825000I0J75000D01*
G01*
X149650000Y-91675000D01*
G75*
G02*
X149725000Y-91600000I75000J0D01*
G01*
X151050000Y-91600000D01*
G75*
G02*
X151125000Y-91675000I0J-75000D01*
G01*
G37*
G36*
G01*
X151125000Y-91175000D02*
X151125000Y-91325000D01*
G75*
G02*
X151050000Y-91400000I-75000J0D01*
G01*
X149725000Y-91400000D01*
G75*
G02*
X149650000Y-91325000I0J75000D01*
G01*
X149650000Y-91175000D01*
G75*
G02*
X149725000Y-91100000I75000J0D01*
G01*
X151050000Y-91100000D01*
G75*
G02*
X151125000Y-91175000I0J-75000D01*
G01*
G37*
G36*
G01*
X151125000Y-90675000D02*
X151125000Y-90825000D01*
G75*
G02*
X151050000Y-90900000I-75000J0D01*
G01*
X149725000Y-90900000D01*
G75*
G02*
X149650000Y-90825000I0J75000D01*
G01*
X149650000Y-90675000D01*
G75*
G02*
X149725000Y-90600000I75000J0D01*
G01*
X151050000Y-90600000D01*
G75*
G02*
X151125000Y-90675000I0J-75000D01*
G01*
G37*
G36*
G01*
X151125000Y-90175000D02*
X151125000Y-90325000D01*
G75*
G02*
X151050000Y-90400000I-75000J0D01*
G01*
X149725000Y-90400000D01*
G75*
G02*
X149650000Y-90325000I0J75000D01*
G01*
X149650000Y-90175000D01*
G75*
G02*
X149725000Y-90100000I75000J0D01*
G01*
X151050000Y-90100000D01*
G75*
G02*
X151125000Y-90175000I0J-75000D01*
G01*
G37*
G36*
G01*
X151125000Y-89675000D02*
X151125000Y-89825000D01*
G75*
G02*
X151050000Y-89900000I-75000J0D01*
G01*
X149725000Y-89900000D01*
G75*
G02*
X149650000Y-89825000I0J75000D01*
G01*
X149650000Y-89675000D01*
G75*
G02*
X149725000Y-89600000I75000J0D01*
G01*
X151050000Y-89600000D01*
G75*
G02*
X151125000Y-89675000I0J-75000D01*
G01*
G37*
G36*
G01*
X151125000Y-89175000D02*
X151125000Y-89325000D01*
G75*
G02*
X151050000Y-89400000I-75000J0D01*
G01*
X149725000Y-89400000D01*
G75*
G02*
X149650000Y-89325000I0J75000D01*
G01*
X149650000Y-89175000D01*
G75*
G02*
X149725000Y-89100000I75000J0D01*
G01*
X151050000Y-89100000D01*
G75*
G02*
X151125000Y-89175000I0J-75000D01*
G01*
G37*
G36*
G01*
X151125000Y-88675000D02*
X151125000Y-88825000D01*
G75*
G02*
X151050000Y-88900000I-75000J0D01*
G01*
X149725000Y-88900000D01*
G75*
G02*
X149650000Y-88825000I0J75000D01*
G01*
X149650000Y-88675000D01*
G75*
G02*
X149725000Y-88600000I75000J0D01*
G01*
X151050000Y-88600000D01*
G75*
G02*
X151125000Y-88675000I0J-75000D01*
G01*
G37*
G36*
G01*
X151125000Y-88175000D02*
X151125000Y-88325000D01*
G75*
G02*
X151050000Y-88400000I-75000J0D01*
G01*
X149725000Y-88400000D01*
G75*
G02*
X149650000Y-88325000I0J75000D01*
G01*
X149650000Y-88175000D01*
G75*
G02*
X149725000Y-88100000I75000J0D01*
G01*
X151050000Y-88100000D01*
G75*
G02*
X151125000Y-88175000I0J-75000D01*
G01*
G37*
G36*
G01*
X151125000Y-87675000D02*
X151125000Y-87825000D01*
G75*
G02*
X151050000Y-87900000I-75000J0D01*
G01*
X149725000Y-87900000D01*
G75*
G02*
X149650000Y-87825000I0J75000D01*
G01*
X149650000Y-87675000D01*
G75*
G02*
X149725000Y-87600000I75000J0D01*
G01*
X151050000Y-87600000D01*
G75*
G02*
X151125000Y-87675000I0J-75000D01*
G01*
G37*
G36*
G01*
X151125000Y-87175000D02*
X151125000Y-87325000D01*
G75*
G02*
X151050000Y-87400000I-75000J0D01*
G01*
X149725000Y-87400000D01*
G75*
G02*
X149650000Y-87325000I0J75000D01*
G01*
X149650000Y-87175000D01*
G75*
G02*
X149725000Y-87100000I75000J0D01*
G01*
X151050000Y-87100000D01*
G75*
G02*
X151125000Y-87175000I0J-75000D01*
G01*
G37*
G36*
G01*
X151125000Y-86675000D02*
X151125000Y-86825000D01*
G75*
G02*
X151050000Y-86900000I-75000J0D01*
G01*
X149725000Y-86900000D01*
G75*
G02*
X149650000Y-86825000I0J75000D01*
G01*
X149650000Y-86675000D01*
G75*
G02*
X149725000Y-86600000I75000J0D01*
G01*
X151050000Y-86600000D01*
G75*
G02*
X151125000Y-86675000I0J-75000D01*
G01*
G37*
G36*
G01*
X151125000Y-86175000D02*
X151125000Y-86325000D01*
G75*
G02*
X151050000Y-86400000I-75000J0D01*
G01*
X149725000Y-86400000D01*
G75*
G02*
X149650000Y-86325000I0J75000D01*
G01*
X149650000Y-86175000D01*
G75*
G02*
X149725000Y-86100000I75000J0D01*
G01*
X151050000Y-86100000D01*
G75*
G02*
X151125000Y-86175000I0J-75000D01*
G01*
G37*
G36*
G01*
X152450000Y-83675000D02*
X152450000Y-85000000D01*
G75*
G02*
X152375000Y-85075000I-75000J0D01*
G01*
X152225000Y-85075000D01*
G75*
G02*
X152150000Y-85000000I0J75000D01*
G01*
X152150000Y-83675000D01*
G75*
G02*
X152225000Y-83600000I75000J0D01*
G01*
X152375000Y-83600000D01*
G75*
G02*
X152450000Y-83675000I0J-75000D01*
G01*
G37*
G36*
G01*
X152950000Y-83675000D02*
X152950000Y-85000000D01*
G75*
G02*
X152875000Y-85075000I-75000J0D01*
G01*
X152725000Y-85075000D01*
G75*
G02*
X152650000Y-85000000I0J75000D01*
G01*
X152650000Y-83675000D01*
G75*
G02*
X152725000Y-83600000I75000J0D01*
G01*
X152875000Y-83600000D01*
G75*
G02*
X152950000Y-83675000I0J-75000D01*
G01*
G37*
G36*
G01*
X153450000Y-83675000D02*
X153450000Y-85000000D01*
G75*
G02*
X153375000Y-85075000I-75000J0D01*
G01*
X153225000Y-85075000D01*
G75*
G02*
X153150000Y-85000000I0J75000D01*
G01*
X153150000Y-83675000D01*
G75*
G02*
X153225000Y-83600000I75000J0D01*
G01*
X153375000Y-83600000D01*
G75*
G02*
X153450000Y-83675000I0J-75000D01*
G01*
G37*
G36*
G01*
X153950000Y-83675000D02*
X153950000Y-85000000D01*
G75*
G02*
X153875000Y-85075000I-75000J0D01*
G01*
X153725000Y-85075000D01*
G75*
G02*
X153650000Y-85000000I0J75000D01*
G01*
X153650000Y-83675000D01*
G75*
G02*
X153725000Y-83600000I75000J0D01*
G01*
X153875000Y-83600000D01*
G75*
G02*
X153950000Y-83675000I0J-75000D01*
G01*
G37*
G36*
G01*
X154450000Y-83675000D02*
X154450000Y-85000000D01*
G75*
G02*
X154375000Y-85075000I-75000J0D01*
G01*
X154225000Y-85075000D01*
G75*
G02*
X154150000Y-85000000I0J75000D01*
G01*
X154150000Y-83675000D01*
G75*
G02*
X154225000Y-83600000I75000J0D01*
G01*
X154375000Y-83600000D01*
G75*
G02*
X154450000Y-83675000I0J-75000D01*
G01*
G37*
G36*
G01*
X154950000Y-83675000D02*
X154950000Y-85000000D01*
G75*
G02*
X154875000Y-85075000I-75000J0D01*
G01*
X154725000Y-85075000D01*
G75*
G02*
X154650000Y-85000000I0J75000D01*
G01*
X154650000Y-83675000D01*
G75*
G02*
X154725000Y-83600000I75000J0D01*
G01*
X154875000Y-83600000D01*
G75*
G02*
X154950000Y-83675000I0J-75000D01*
G01*
G37*
G36*
G01*
X155450000Y-83675000D02*
X155450000Y-85000000D01*
G75*
G02*
X155375000Y-85075000I-75000J0D01*
G01*
X155225000Y-85075000D01*
G75*
G02*
X155150000Y-85000000I0J75000D01*
G01*
X155150000Y-83675000D01*
G75*
G02*
X155225000Y-83600000I75000J0D01*
G01*
X155375000Y-83600000D01*
G75*
G02*
X155450000Y-83675000I0J-75000D01*
G01*
G37*
G36*
G01*
X155950000Y-83675000D02*
X155950000Y-85000000D01*
G75*
G02*
X155875000Y-85075000I-75000J0D01*
G01*
X155725000Y-85075000D01*
G75*
G02*
X155650000Y-85000000I0J75000D01*
G01*
X155650000Y-83675000D01*
G75*
G02*
X155725000Y-83600000I75000J0D01*
G01*
X155875000Y-83600000D01*
G75*
G02*
X155950000Y-83675000I0J-75000D01*
G01*
G37*
G36*
G01*
X156450000Y-83675000D02*
X156450000Y-85000000D01*
G75*
G02*
X156375000Y-85075000I-75000J0D01*
G01*
X156225000Y-85075000D01*
G75*
G02*
X156150000Y-85000000I0J75000D01*
G01*
X156150000Y-83675000D01*
G75*
G02*
X156225000Y-83600000I75000J0D01*
G01*
X156375000Y-83600000D01*
G75*
G02*
X156450000Y-83675000I0J-75000D01*
G01*
G37*
G36*
G01*
X156950000Y-83675000D02*
X156950000Y-85000000D01*
G75*
G02*
X156875000Y-85075000I-75000J0D01*
G01*
X156725000Y-85075000D01*
G75*
G02*
X156650000Y-85000000I0J75000D01*
G01*
X156650000Y-83675000D01*
G75*
G02*
X156725000Y-83600000I75000J0D01*
G01*
X156875000Y-83600000D01*
G75*
G02*
X156950000Y-83675000I0J-75000D01*
G01*
G37*
G36*
G01*
X157450000Y-83675000D02*
X157450000Y-85000000D01*
G75*
G02*
X157375000Y-85075000I-75000J0D01*
G01*
X157225000Y-85075000D01*
G75*
G02*
X157150000Y-85000000I0J75000D01*
G01*
X157150000Y-83675000D01*
G75*
G02*
X157225000Y-83600000I75000J0D01*
G01*
X157375000Y-83600000D01*
G75*
G02*
X157450000Y-83675000I0J-75000D01*
G01*
G37*
G36*
G01*
X157950000Y-83675000D02*
X157950000Y-85000000D01*
G75*
G02*
X157875000Y-85075000I-75000J0D01*
G01*
X157725000Y-85075000D01*
G75*
G02*
X157650000Y-85000000I0J75000D01*
G01*
X157650000Y-83675000D01*
G75*
G02*
X157725000Y-83600000I75000J0D01*
G01*
X157875000Y-83600000D01*
G75*
G02*
X157950000Y-83675000I0J-75000D01*
G01*
G37*
G36*
G01*
X158450000Y-83675000D02*
X158450000Y-85000000D01*
G75*
G02*
X158375000Y-85075000I-75000J0D01*
G01*
X158225000Y-85075000D01*
G75*
G02*
X158150000Y-85000000I0J75000D01*
G01*
X158150000Y-83675000D01*
G75*
G02*
X158225000Y-83600000I75000J0D01*
G01*
X158375000Y-83600000D01*
G75*
G02*
X158450000Y-83675000I0J-75000D01*
G01*
G37*
G36*
G01*
X158950000Y-83675000D02*
X158950000Y-85000000D01*
G75*
G02*
X158875000Y-85075000I-75000J0D01*
G01*
X158725000Y-85075000D01*
G75*
G02*
X158650000Y-85000000I0J75000D01*
G01*
X158650000Y-83675000D01*
G75*
G02*
X158725000Y-83600000I75000J0D01*
G01*
X158875000Y-83600000D01*
G75*
G02*
X158950000Y-83675000I0J-75000D01*
G01*
G37*
G36*
G01*
X159450000Y-83675000D02*
X159450000Y-85000000D01*
G75*
G02*
X159375000Y-85075000I-75000J0D01*
G01*
X159225000Y-85075000D01*
G75*
G02*
X159150000Y-85000000I0J75000D01*
G01*
X159150000Y-83675000D01*
G75*
G02*
X159225000Y-83600000I75000J0D01*
G01*
X159375000Y-83600000D01*
G75*
G02*
X159450000Y-83675000I0J-75000D01*
G01*
G37*
G36*
G01*
X159950000Y-83675000D02*
X159950000Y-85000000D01*
G75*
G02*
X159875000Y-85075000I-75000J0D01*
G01*
X159725000Y-85075000D01*
G75*
G02*
X159650000Y-85000000I0J75000D01*
G01*
X159650000Y-83675000D01*
G75*
G02*
X159725000Y-83600000I75000J0D01*
G01*
X159875000Y-83600000D01*
G75*
G02*
X159950000Y-83675000I0J-75000D01*
G01*
G37*
G36*
G01*
X160450000Y-83675000D02*
X160450000Y-85000000D01*
G75*
G02*
X160375000Y-85075000I-75000J0D01*
G01*
X160225000Y-85075000D01*
G75*
G02*
X160150000Y-85000000I0J75000D01*
G01*
X160150000Y-83675000D01*
G75*
G02*
X160225000Y-83600000I75000J0D01*
G01*
X160375000Y-83600000D01*
G75*
G02*
X160450000Y-83675000I0J-75000D01*
G01*
G37*
G36*
G01*
X160950000Y-83675000D02*
X160950000Y-85000000D01*
G75*
G02*
X160875000Y-85075000I-75000J0D01*
G01*
X160725000Y-85075000D01*
G75*
G02*
X160650000Y-85000000I0J75000D01*
G01*
X160650000Y-83675000D01*
G75*
G02*
X160725000Y-83600000I75000J0D01*
G01*
X160875000Y-83600000D01*
G75*
G02*
X160950000Y-83675000I0J-75000D01*
G01*
G37*
G36*
G01*
X161450000Y-83675000D02*
X161450000Y-85000000D01*
G75*
G02*
X161375000Y-85075000I-75000J0D01*
G01*
X161225000Y-85075000D01*
G75*
G02*
X161150000Y-85000000I0J75000D01*
G01*
X161150000Y-83675000D01*
G75*
G02*
X161225000Y-83600000I75000J0D01*
G01*
X161375000Y-83600000D01*
G75*
G02*
X161450000Y-83675000I0J-75000D01*
G01*
G37*
G36*
G01*
X161950000Y-83675000D02*
X161950000Y-85000000D01*
G75*
G02*
X161875000Y-85075000I-75000J0D01*
G01*
X161725000Y-85075000D01*
G75*
G02*
X161650000Y-85000000I0J75000D01*
G01*
X161650000Y-83675000D01*
G75*
G02*
X161725000Y-83600000I75000J0D01*
G01*
X161875000Y-83600000D01*
G75*
G02*
X161950000Y-83675000I0J-75000D01*
G01*
G37*
G36*
G01*
X162450000Y-83675000D02*
X162450000Y-85000000D01*
G75*
G02*
X162375000Y-85075000I-75000J0D01*
G01*
X162225000Y-85075000D01*
G75*
G02*
X162150000Y-85000000I0J75000D01*
G01*
X162150000Y-83675000D01*
G75*
G02*
X162225000Y-83600000I75000J0D01*
G01*
X162375000Y-83600000D01*
G75*
G02*
X162450000Y-83675000I0J-75000D01*
G01*
G37*
G36*
G01*
X162950000Y-83675000D02*
X162950000Y-85000000D01*
G75*
G02*
X162875000Y-85075000I-75000J0D01*
G01*
X162725000Y-85075000D01*
G75*
G02*
X162650000Y-85000000I0J75000D01*
G01*
X162650000Y-83675000D01*
G75*
G02*
X162725000Y-83600000I75000J0D01*
G01*
X162875000Y-83600000D01*
G75*
G02*
X162950000Y-83675000I0J-75000D01*
G01*
G37*
G36*
G01*
X163450000Y-83675000D02*
X163450000Y-85000000D01*
G75*
G02*
X163375000Y-85075000I-75000J0D01*
G01*
X163225000Y-85075000D01*
G75*
G02*
X163150000Y-85000000I0J75000D01*
G01*
X163150000Y-83675000D01*
G75*
G02*
X163225000Y-83600000I75000J0D01*
G01*
X163375000Y-83600000D01*
G75*
G02*
X163450000Y-83675000I0J-75000D01*
G01*
G37*
G36*
G01*
X163950000Y-83675000D02*
X163950000Y-85000000D01*
G75*
G02*
X163875000Y-85075000I-75000J0D01*
G01*
X163725000Y-85075000D01*
G75*
G02*
X163650000Y-85000000I0J75000D01*
G01*
X163650000Y-83675000D01*
G75*
G02*
X163725000Y-83600000I75000J0D01*
G01*
X163875000Y-83600000D01*
G75*
G02*
X163950000Y-83675000I0J-75000D01*
G01*
G37*
G36*
G01*
X164450000Y-83675000D02*
X164450000Y-85000000D01*
G75*
G02*
X164375000Y-85075000I-75000J0D01*
G01*
X164225000Y-85075000D01*
G75*
G02*
X164150000Y-85000000I0J75000D01*
G01*
X164150000Y-83675000D01*
G75*
G02*
X164225000Y-83600000I75000J0D01*
G01*
X164375000Y-83600000D01*
G75*
G02*
X164450000Y-83675000I0J-75000D01*
G01*
G37*
G36*
G01*
X164950000Y-83675000D02*
X164950000Y-85000000D01*
G75*
G02*
X164875000Y-85075000I-75000J0D01*
G01*
X164725000Y-85075000D01*
G75*
G02*
X164650000Y-85000000I0J75000D01*
G01*
X164650000Y-83675000D01*
G75*
G02*
X164725000Y-83600000I75000J0D01*
G01*
X164875000Y-83600000D01*
G75*
G02*
X164950000Y-83675000I0J-75000D01*
G01*
G37*
G36*
G01*
X165450000Y-83675000D02*
X165450000Y-85000000D01*
G75*
G02*
X165375000Y-85075000I-75000J0D01*
G01*
X165225000Y-85075000D01*
G75*
G02*
X165150000Y-85000000I0J75000D01*
G01*
X165150000Y-83675000D01*
G75*
G02*
X165225000Y-83600000I75000J0D01*
G01*
X165375000Y-83600000D01*
G75*
G02*
X165450000Y-83675000I0J-75000D01*
G01*
G37*
G36*
G01*
X165950000Y-83675000D02*
X165950000Y-85000000D01*
G75*
G02*
X165875000Y-85075000I-75000J0D01*
G01*
X165725000Y-85075000D01*
G75*
G02*
X165650000Y-85000000I0J75000D01*
G01*
X165650000Y-83675000D01*
G75*
G02*
X165725000Y-83600000I75000J0D01*
G01*
X165875000Y-83600000D01*
G75*
G02*
X165950000Y-83675000I0J-75000D01*
G01*
G37*
G36*
G01*
X166450000Y-83675000D02*
X166450000Y-85000000D01*
G75*
G02*
X166375000Y-85075000I-75000J0D01*
G01*
X166225000Y-85075000D01*
G75*
G02*
X166150000Y-85000000I0J75000D01*
G01*
X166150000Y-83675000D01*
G75*
G02*
X166225000Y-83600000I75000J0D01*
G01*
X166375000Y-83600000D01*
G75*
G02*
X166450000Y-83675000I0J-75000D01*
G01*
G37*
G36*
G01*
X166950000Y-83675000D02*
X166950000Y-85000000D01*
G75*
G02*
X166875000Y-85075000I-75000J0D01*
G01*
X166725000Y-85075000D01*
G75*
G02*
X166650000Y-85000000I0J75000D01*
G01*
X166650000Y-83675000D01*
G75*
G02*
X166725000Y-83600000I75000J0D01*
G01*
X166875000Y-83600000D01*
G75*
G02*
X166950000Y-83675000I0J-75000D01*
G01*
G37*
G36*
G01*
X167450000Y-83675000D02*
X167450000Y-85000000D01*
G75*
G02*
X167375000Y-85075000I-75000J0D01*
G01*
X167225000Y-85075000D01*
G75*
G02*
X167150000Y-85000000I0J75000D01*
G01*
X167150000Y-83675000D01*
G75*
G02*
X167225000Y-83600000I75000J0D01*
G01*
X167375000Y-83600000D01*
G75*
G02*
X167450000Y-83675000I0J-75000D01*
G01*
G37*
G36*
G01*
X167950000Y-83675000D02*
X167950000Y-85000000D01*
G75*
G02*
X167875000Y-85075000I-75000J0D01*
G01*
X167725000Y-85075000D01*
G75*
G02*
X167650000Y-85000000I0J75000D01*
G01*
X167650000Y-83675000D01*
G75*
G02*
X167725000Y-83600000I75000J0D01*
G01*
X167875000Y-83600000D01*
G75*
G02*
X167950000Y-83675000I0J-75000D01*
G01*
G37*
G36*
G01*
X168450000Y-83675000D02*
X168450000Y-85000000D01*
G75*
G02*
X168375000Y-85075000I-75000J0D01*
G01*
X168225000Y-85075000D01*
G75*
G02*
X168150000Y-85000000I0J75000D01*
G01*
X168150000Y-83675000D01*
G75*
G02*
X168225000Y-83600000I75000J0D01*
G01*
X168375000Y-83600000D01*
G75*
G02*
X168450000Y-83675000I0J-75000D01*
G01*
G37*
G36*
G01*
X168950000Y-83675000D02*
X168950000Y-85000000D01*
G75*
G02*
X168875000Y-85075000I-75000J0D01*
G01*
X168725000Y-85075000D01*
G75*
G02*
X168650000Y-85000000I0J75000D01*
G01*
X168650000Y-83675000D01*
G75*
G02*
X168725000Y-83600000I75000J0D01*
G01*
X168875000Y-83600000D01*
G75*
G02*
X168950000Y-83675000I0J-75000D01*
G01*
G37*
G36*
G01*
X169450000Y-83675000D02*
X169450000Y-85000000D01*
G75*
G02*
X169375000Y-85075000I-75000J0D01*
G01*
X169225000Y-85075000D01*
G75*
G02*
X169150000Y-85000000I0J75000D01*
G01*
X169150000Y-83675000D01*
G75*
G02*
X169225000Y-83600000I75000J0D01*
G01*
X169375000Y-83600000D01*
G75*
G02*
X169450000Y-83675000I0J-75000D01*
G01*
G37*
G36*
G01*
X169950000Y-83675000D02*
X169950000Y-85000000D01*
G75*
G02*
X169875000Y-85075000I-75000J0D01*
G01*
X169725000Y-85075000D01*
G75*
G02*
X169650000Y-85000000I0J75000D01*
G01*
X169650000Y-83675000D01*
G75*
G02*
X169725000Y-83600000I75000J0D01*
G01*
X169875000Y-83600000D01*
G75*
G02*
X169950000Y-83675000I0J-75000D01*
G01*
G37*
G36*
G01*
X172450000Y-86175000D02*
X172450000Y-86325000D01*
G75*
G02*
X172375000Y-86400000I-75000J0D01*
G01*
X171050000Y-86400000D01*
G75*
G02*
X170975000Y-86325000I0J75000D01*
G01*
X170975000Y-86175000D01*
G75*
G02*
X171050000Y-86100000I75000J0D01*
G01*
X172375000Y-86100000D01*
G75*
G02*
X172450000Y-86175000I0J-75000D01*
G01*
G37*
G36*
G01*
X172450000Y-86675000D02*
X172450000Y-86825000D01*
G75*
G02*
X172375000Y-86900000I-75000J0D01*
G01*
X171050000Y-86900000D01*
G75*
G02*
X170975000Y-86825000I0J75000D01*
G01*
X170975000Y-86675000D01*
G75*
G02*
X171050000Y-86600000I75000J0D01*
G01*
X172375000Y-86600000D01*
G75*
G02*
X172450000Y-86675000I0J-75000D01*
G01*
G37*
G36*
G01*
X172450000Y-87175000D02*
X172450000Y-87325000D01*
G75*
G02*
X172375000Y-87400000I-75000J0D01*
G01*
X171050000Y-87400000D01*
G75*
G02*
X170975000Y-87325000I0J75000D01*
G01*
X170975000Y-87175000D01*
G75*
G02*
X171050000Y-87100000I75000J0D01*
G01*
X172375000Y-87100000D01*
G75*
G02*
X172450000Y-87175000I0J-75000D01*
G01*
G37*
G36*
G01*
X172450000Y-87675000D02*
X172450000Y-87825000D01*
G75*
G02*
X172375000Y-87900000I-75000J0D01*
G01*
X171050000Y-87900000D01*
G75*
G02*
X170975000Y-87825000I0J75000D01*
G01*
X170975000Y-87675000D01*
G75*
G02*
X171050000Y-87600000I75000J0D01*
G01*
X172375000Y-87600000D01*
G75*
G02*
X172450000Y-87675000I0J-75000D01*
G01*
G37*
G36*
G01*
X172450000Y-88175000D02*
X172450000Y-88325000D01*
G75*
G02*
X172375000Y-88400000I-75000J0D01*
G01*
X171050000Y-88400000D01*
G75*
G02*
X170975000Y-88325000I0J75000D01*
G01*
X170975000Y-88175000D01*
G75*
G02*
X171050000Y-88100000I75000J0D01*
G01*
X172375000Y-88100000D01*
G75*
G02*
X172450000Y-88175000I0J-75000D01*
G01*
G37*
G36*
G01*
X172450000Y-88675000D02*
X172450000Y-88825000D01*
G75*
G02*
X172375000Y-88900000I-75000J0D01*
G01*
X171050000Y-88900000D01*
G75*
G02*
X170975000Y-88825000I0J75000D01*
G01*
X170975000Y-88675000D01*
G75*
G02*
X171050000Y-88600000I75000J0D01*
G01*
X172375000Y-88600000D01*
G75*
G02*
X172450000Y-88675000I0J-75000D01*
G01*
G37*
G36*
G01*
X172450000Y-89175000D02*
X172450000Y-89325000D01*
G75*
G02*
X172375000Y-89400000I-75000J0D01*
G01*
X171050000Y-89400000D01*
G75*
G02*
X170975000Y-89325000I0J75000D01*
G01*
X170975000Y-89175000D01*
G75*
G02*
X171050000Y-89100000I75000J0D01*
G01*
X172375000Y-89100000D01*
G75*
G02*
X172450000Y-89175000I0J-75000D01*
G01*
G37*
G36*
G01*
X172450000Y-89675000D02*
X172450000Y-89825000D01*
G75*
G02*
X172375000Y-89900000I-75000J0D01*
G01*
X171050000Y-89900000D01*
G75*
G02*
X170975000Y-89825000I0J75000D01*
G01*
X170975000Y-89675000D01*
G75*
G02*
X171050000Y-89600000I75000J0D01*
G01*
X172375000Y-89600000D01*
G75*
G02*
X172450000Y-89675000I0J-75000D01*
G01*
G37*
G36*
G01*
X172450000Y-90175000D02*
X172450000Y-90325000D01*
G75*
G02*
X172375000Y-90400000I-75000J0D01*
G01*
X171050000Y-90400000D01*
G75*
G02*
X170975000Y-90325000I0J75000D01*
G01*
X170975000Y-90175000D01*
G75*
G02*
X171050000Y-90100000I75000J0D01*
G01*
X172375000Y-90100000D01*
G75*
G02*
X172450000Y-90175000I0J-75000D01*
G01*
G37*
G36*
G01*
X172450000Y-90675000D02*
X172450000Y-90825000D01*
G75*
G02*
X172375000Y-90900000I-75000J0D01*
G01*
X171050000Y-90900000D01*
G75*
G02*
X170975000Y-90825000I0J75000D01*
G01*
X170975000Y-90675000D01*
G75*
G02*
X171050000Y-90600000I75000J0D01*
G01*
X172375000Y-90600000D01*
G75*
G02*
X172450000Y-90675000I0J-75000D01*
G01*
G37*
G36*
G01*
X172450000Y-91175000D02*
X172450000Y-91325000D01*
G75*
G02*
X172375000Y-91400000I-75000J0D01*
G01*
X171050000Y-91400000D01*
G75*
G02*
X170975000Y-91325000I0J75000D01*
G01*
X170975000Y-91175000D01*
G75*
G02*
X171050000Y-91100000I75000J0D01*
G01*
X172375000Y-91100000D01*
G75*
G02*
X172450000Y-91175000I0J-75000D01*
G01*
G37*
G36*
G01*
X172450000Y-91675000D02*
X172450000Y-91825000D01*
G75*
G02*
X172375000Y-91900000I-75000J0D01*
G01*
X171050000Y-91900000D01*
G75*
G02*
X170975000Y-91825000I0J75000D01*
G01*
X170975000Y-91675000D01*
G75*
G02*
X171050000Y-91600000I75000J0D01*
G01*
X172375000Y-91600000D01*
G75*
G02*
X172450000Y-91675000I0J-75000D01*
G01*
G37*
G36*
G01*
X172450000Y-92175000D02*
X172450000Y-92325000D01*
G75*
G02*
X172375000Y-92400000I-75000J0D01*
G01*
X171050000Y-92400000D01*
G75*
G02*
X170975000Y-92325000I0J75000D01*
G01*
X170975000Y-92175000D01*
G75*
G02*
X171050000Y-92100000I75000J0D01*
G01*
X172375000Y-92100000D01*
G75*
G02*
X172450000Y-92175000I0J-75000D01*
G01*
G37*
G36*
G01*
X172450000Y-92675000D02*
X172450000Y-92825000D01*
G75*
G02*
X172375000Y-92900000I-75000J0D01*
G01*
X171050000Y-92900000D01*
G75*
G02*
X170975000Y-92825000I0J75000D01*
G01*
X170975000Y-92675000D01*
G75*
G02*
X171050000Y-92600000I75000J0D01*
G01*
X172375000Y-92600000D01*
G75*
G02*
X172450000Y-92675000I0J-75000D01*
G01*
G37*
G36*
G01*
X172450000Y-93175000D02*
X172450000Y-93325000D01*
G75*
G02*
X172375000Y-93400000I-75000J0D01*
G01*
X171050000Y-93400000D01*
G75*
G02*
X170975000Y-93325000I0J75000D01*
G01*
X170975000Y-93175000D01*
G75*
G02*
X171050000Y-93100000I75000J0D01*
G01*
X172375000Y-93100000D01*
G75*
G02*
X172450000Y-93175000I0J-75000D01*
G01*
G37*
G36*
G01*
X172450000Y-93675000D02*
X172450000Y-93825000D01*
G75*
G02*
X172375000Y-93900000I-75000J0D01*
G01*
X171050000Y-93900000D01*
G75*
G02*
X170975000Y-93825000I0J75000D01*
G01*
X170975000Y-93675000D01*
G75*
G02*
X171050000Y-93600000I75000J0D01*
G01*
X172375000Y-93600000D01*
G75*
G02*
X172450000Y-93675000I0J-75000D01*
G01*
G37*
G36*
G01*
X172450000Y-94175000D02*
X172450000Y-94325000D01*
G75*
G02*
X172375000Y-94400000I-75000J0D01*
G01*
X171050000Y-94400000D01*
G75*
G02*
X170975000Y-94325000I0J75000D01*
G01*
X170975000Y-94175000D01*
G75*
G02*
X171050000Y-94100000I75000J0D01*
G01*
X172375000Y-94100000D01*
G75*
G02*
X172450000Y-94175000I0J-75000D01*
G01*
G37*
G36*
G01*
X172450000Y-94675000D02*
X172450000Y-94825000D01*
G75*
G02*
X172375000Y-94900000I-75000J0D01*
G01*
X171050000Y-94900000D01*
G75*
G02*
X170975000Y-94825000I0J75000D01*
G01*
X170975000Y-94675000D01*
G75*
G02*
X171050000Y-94600000I75000J0D01*
G01*
X172375000Y-94600000D01*
G75*
G02*
X172450000Y-94675000I0J-75000D01*
G01*
G37*
G36*
G01*
X172450000Y-95175000D02*
X172450000Y-95325000D01*
G75*
G02*
X172375000Y-95400000I-75000J0D01*
G01*
X171050000Y-95400000D01*
G75*
G02*
X170975000Y-95325000I0J75000D01*
G01*
X170975000Y-95175000D01*
G75*
G02*
X171050000Y-95100000I75000J0D01*
G01*
X172375000Y-95100000D01*
G75*
G02*
X172450000Y-95175000I0J-75000D01*
G01*
G37*
G36*
G01*
X172450000Y-95675000D02*
X172450000Y-95825000D01*
G75*
G02*
X172375000Y-95900000I-75000J0D01*
G01*
X171050000Y-95900000D01*
G75*
G02*
X170975000Y-95825000I0J75000D01*
G01*
X170975000Y-95675000D01*
G75*
G02*
X171050000Y-95600000I75000J0D01*
G01*
X172375000Y-95600000D01*
G75*
G02*
X172450000Y-95675000I0J-75000D01*
G01*
G37*
G36*
G01*
X172450000Y-96175000D02*
X172450000Y-96325000D01*
G75*
G02*
X172375000Y-96400000I-75000J0D01*
G01*
X171050000Y-96400000D01*
G75*
G02*
X170975000Y-96325000I0J75000D01*
G01*
X170975000Y-96175000D01*
G75*
G02*
X171050000Y-96100000I75000J0D01*
G01*
X172375000Y-96100000D01*
G75*
G02*
X172450000Y-96175000I0J-75000D01*
G01*
G37*
G36*
G01*
X172450000Y-96675000D02*
X172450000Y-96825000D01*
G75*
G02*
X172375000Y-96900000I-75000J0D01*
G01*
X171050000Y-96900000D01*
G75*
G02*
X170975000Y-96825000I0J75000D01*
G01*
X170975000Y-96675000D01*
G75*
G02*
X171050000Y-96600000I75000J0D01*
G01*
X172375000Y-96600000D01*
G75*
G02*
X172450000Y-96675000I0J-75000D01*
G01*
G37*
G36*
G01*
X172450000Y-97175000D02*
X172450000Y-97325000D01*
G75*
G02*
X172375000Y-97400000I-75000J0D01*
G01*
X171050000Y-97400000D01*
G75*
G02*
X170975000Y-97325000I0J75000D01*
G01*
X170975000Y-97175000D01*
G75*
G02*
X171050000Y-97100000I75000J0D01*
G01*
X172375000Y-97100000D01*
G75*
G02*
X172450000Y-97175000I0J-75000D01*
G01*
G37*
G36*
G01*
X172450000Y-97675000D02*
X172450000Y-97825000D01*
G75*
G02*
X172375000Y-97900000I-75000J0D01*
G01*
X171050000Y-97900000D01*
G75*
G02*
X170975000Y-97825000I0J75000D01*
G01*
X170975000Y-97675000D01*
G75*
G02*
X171050000Y-97600000I75000J0D01*
G01*
X172375000Y-97600000D01*
G75*
G02*
X172450000Y-97675000I0J-75000D01*
G01*
G37*
G36*
G01*
X172450000Y-98175000D02*
X172450000Y-98325000D01*
G75*
G02*
X172375000Y-98400000I-75000J0D01*
G01*
X171050000Y-98400000D01*
G75*
G02*
X170975000Y-98325000I0J75000D01*
G01*
X170975000Y-98175000D01*
G75*
G02*
X171050000Y-98100000I75000J0D01*
G01*
X172375000Y-98100000D01*
G75*
G02*
X172450000Y-98175000I0J-75000D01*
G01*
G37*
G36*
G01*
X172450000Y-98675000D02*
X172450000Y-98825000D01*
G75*
G02*
X172375000Y-98900000I-75000J0D01*
G01*
X171050000Y-98900000D01*
G75*
G02*
X170975000Y-98825000I0J75000D01*
G01*
X170975000Y-98675000D01*
G75*
G02*
X171050000Y-98600000I75000J0D01*
G01*
X172375000Y-98600000D01*
G75*
G02*
X172450000Y-98675000I0J-75000D01*
G01*
G37*
G36*
G01*
X172450000Y-99175000D02*
X172450000Y-99325000D01*
G75*
G02*
X172375000Y-99400000I-75000J0D01*
G01*
X171050000Y-99400000D01*
G75*
G02*
X170975000Y-99325000I0J75000D01*
G01*
X170975000Y-99175000D01*
G75*
G02*
X171050000Y-99100000I75000J0D01*
G01*
X172375000Y-99100000D01*
G75*
G02*
X172450000Y-99175000I0J-75000D01*
G01*
G37*
G36*
G01*
X172450000Y-99675000D02*
X172450000Y-99825000D01*
G75*
G02*
X172375000Y-99900000I-75000J0D01*
G01*
X171050000Y-99900000D01*
G75*
G02*
X170975000Y-99825000I0J75000D01*
G01*
X170975000Y-99675000D01*
G75*
G02*
X171050000Y-99600000I75000J0D01*
G01*
X172375000Y-99600000D01*
G75*
G02*
X172450000Y-99675000I0J-75000D01*
G01*
G37*
G36*
G01*
X172450000Y-100175000D02*
X172450000Y-100325000D01*
G75*
G02*
X172375000Y-100400000I-75000J0D01*
G01*
X171050000Y-100400000D01*
G75*
G02*
X170975000Y-100325000I0J75000D01*
G01*
X170975000Y-100175000D01*
G75*
G02*
X171050000Y-100100000I75000J0D01*
G01*
X172375000Y-100100000D01*
G75*
G02*
X172450000Y-100175000I0J-75000D01*
G01*
G37*
G36*
G01*
X172450000Y-100675000D02*
X172450000Y-100825000D01*
G75*
G02*
X172375000Y-100900000I-75000J0D01*
G01*
X171050000Y-100900000D01*
G75*
G02*
X170975000Y-100825000I0J75000D01*
G01*
X170975000Y-100675000D01*
G75*
G02*
X171050000Y-100600000I75000J0D01*
G01*
X172375000Y-100600000D01*
G75*
G02*
X172450000Y-100675000I0J-75000D01*
G01*
G37*
G36*
G01*
X172450000Y-101175000D02*
X172450000Y-101325000D01*
G75*
G02*
X172375000Y-101400000I-75000J0D01*
G01*
X171050000Y-101400000D01*
G75*
G02*
X170975000Y-101325000I0J75000D01*
G01*
X170975000Y-101175000D01*
G75*
G02*
X171050000Y-101100000I75000J0D01*
G01*
X172375000Y-101100000D01*
G75*
G02*
X172450000Y-101175000I0J-75000D01*
G01*
G37*
G36*
G01*
X172450000Y-101675000D02*
X172450000Y-101825000D01*
G75*
G02*
X172375000Y-101900000I-75000J0D01*
G01*
X171050000Y-101900000D01*
G75*
G02*
X170975000Y-101825000I0J75000D01*
G01*
X170975000Y-101675000D01*
G75*
G02*
X171050000Y-101600000I75000J0D01*
G01*
X172375000Y-101600000D01*
G75*
G02*
X172450000Y-101675000I0J-75000D01*
G01*
G37*
G36*
G01*
X172450000Y-102175000D02*
X172450000Y-102325000D01*
G75*
G02*
X172375000Y-102400000I-75000J0D01*
G01*
X171050000Y-102400000D01*
G75*
G02*
X170975000Y-102325000I0J75000D01*
G01*
X170975000Y-102175000D01*
G75*
G02*
X171050000Y-102100000I75000J0D01*
G01*
X172375000Y-102100000D01*
G75*
G02*
X172450000Y-102175000I0J-75000D01*
G01*
G37*
G36*
G01*
X172450000Y-102675000D02*
X172450000Y-102825000D01*
G75*
G02*
X172375000Y-102900000I-75000J0D01*
G01*
X171050000Y-102900000D01*
G75*
G02*
X170975000Y-102825000I0J75000D01*
G01*
X170975000Y-102675000D01*
G75*
G02*
X171050000Y-102600000I75000J0D01*
G01*
X172375000Y-102600000D01*
G75*
G02*
X172450000Y-102675000I0J-75000D01*
G01*
G37*
G36*
G01*
X172450000Y-103175000D02*
X172450000Y-103325000D01*
G75*
G02*
X172375000Y-103400000I-75000J0D01*
G01*
X171050000Y-103400000D01*
G75*
G02*
X170975000Y-103325000I0J75000D01*
G01*
X170975000Y-103175000D01*
G75*
G02*
X171050000Y-103100000I75000J0D01*
G01*
X172375000Y-103100000D01*
G75*
G02*
X172450000Y-103175000I0J-75000D01*
G01*
G37*
G36*
G01*
X172450000Y-103675000D02*
X172450000Y-103825000D01*
G75*
G02*
X172375000Y-103900000I-75000J0D01*
G01*
X171050000Y-103900000D01*
G75*
G02*
X170975000Y-103825000I0J75000D01*
G01*
X170975000Y-103675000D01*
G75*
G02*
X171050000Y-103600000I75000J0D01*
G01*
X172375000Y-103600000D01*
G75*
G02*
X172450000Y-103675000I0J-75000D01*
G01*
G37*
M02*
