G04 #@! TF.GenerationSoftware,KiCad,Pcbnew,(5.1.6-0-10_14)*
G04 #@! TF.CreationDate,2020-08-15T08:11:16-07:00*
G04 #@! TF.ProjectId,fpga-ice40,66706761-2d69-4636-9534-302e6b696361,r0.1*
G04 #@! TF.SameCoordinates,Original*
G04 #@! TF.FileFunction,Legend,Bot*
G04 #@! TF.FilePolarity,Positive*
%FSLAX46Y46*%
G04 Gerber Fmt 4.6, Leading zero omitted, Abs format (unit mm)*
G04 Created by KiCad (PCBNEW (5.1.6-0-10_14)) date 2020-08-15 08:11:16*
%MOMM*%
%LPD*%
G01*
G04 APERTURE LIST*
%ADD10C,0.120000*%
G04 APERTURE END LIST*
D10*
X182775000Y-103800000D02*
X182775000Y-103400000D01*
X181500000Y-104200000D02*
X181500000Y-103800000D01*
X183213095Y-102857714D02*
X183213095Y-102362476D01*
X182908333Y-102629142D01*
X182908333Y-102514857D01*
X182870238Y-102438666D01*
X182832142Y-102400571D01*
X182755952Y-102362476D01*
X182565476Y-102362476D01*
X182489285Y-102400571D01*
X182451190Y-102438666D01*
X182413095Y-102514857D01*
X182413095Y-102743428D01*
X182451190Y-102819619D01*
X182489285Y-102857714D01*
X183213095Y-102133904D02*
X182413095Y-101867238D01*
X183213095Y-101600571D01*
X183213095Y-101410095D02*
X183213095Y-100914857D01*
X182908333Y-101181523D01*
X182908333Y-101067238D01*
X182870238Y-100991047D01*
X182832142Y-100952952D01*
X182755952Y-100914857D01*
X182565476Y-100914857D01*
X182489285Y-100952952D01*
X182451190Y-100991047D01*
X182413095Y-101067238D01*
X182413095Y-101295809D01*
X182451190Y-101372000D01*
X182489285Y-101410095D01*
X184050000Y-103800000D02*
X184050000Y-104200000D01*
X178950000Y-103800000D02*
X184050000Y-103800000D01*
X178950000Y-104200000D02*
X178950000Y-103800000D01*
X183688095Y-106781523D02*
X184488095Y-106781523D01*
X183916666Y-106514857D01*
X184488095Y-106248190D01*
X183688095Y-106248190D01*
X184488095Y-105867238D02*
X183840476Y-105867238D01*
X183764285Y-105829142D01*
X183726190Y-105791047D01*
X183688095Y-105714857D01*
X183688095Y-105562476D01*
X183726190Y-105486285D01*
X183764285Y-105448190D01*
X183840476Y-105410095D01*
X184488095Y-105410095D01*
X184488095Y-105105333D02*
X183688095Y-104572000D01*
X184488095Y-104572000D02*
X183688095Y-105105333D01*
X181138095Y-106781523D02*
X181938095Y-106781523D01*
X181138095Y-106324380D01*
X181938095Y-106324380D01*
X181938095Y-105600571D02*
X181938095Y-105752952D01*
X181900000Y-105829142D01*
X181861904Y-105867238D01*
X181747619Y-105943428D01*
X181595238Y-105981523D01*
X181290476Y-105981523D01*
X181214285Y-105943428D01*
X181176190Y-105905333D01*
X181138095Y-105829142D01*
X181138095Y-105676761D01*
X181176190Y-105600571D01*
X181214285Y-105562476D01*
X181290476Y-105524380D01*
X181480952Y-105524380D01*
X181557142Y-105562476D01*
X181595238Y-105600571D01*
X181633333Y-105676761D01*
X181633333Y-105829142D01*
X181595238Y-105905333D01*
X181557142Y-105943428D01*
X181480952Y-105981523D01*
X181671428Y-104838666D02*
X181138095Y-104838666D01*
X181976190Y-105029142D02*
X181404761Y-105219619D01*
X181404761Y-104724380D01*
X179388095Y-106781523D02*
X178740476Y-106781523D01*
X178664285Y-106743428D01*
X178626190Y-106705333D01*
X178588095Y-106629142D01*
X178588095Y-106476761D01*
X178626190Y-106400571D01*
X178664285Y-106362476D01*
X178740476Y-106324380D01*
X179388095Y-106324380D01*
X178626190Y-105981523D02*
X178588095Y-105867238D01*
X178588095Y-105676761D01*
X178626190Y-105600571D01*
X178664285Y-105562476D01*
X178740476Y-105524380D01*
X178816666Y-105524380D01*
X178892857Y-105562476D01*
X178930952Y-105600571D01*
X178969047Y-105676761D01*
X179007142Y-105829142D01*
X179045238Y-105905333D01*
X179083333Y-105943428D01*
X179159523Y-105981523D01*
X179235714Y-105981523D01*
X179311904Y-105943428D01*
X179350000Y-105905333D01*
X179388095Y-105829142D01*
X179388095Y-105638666D01*
X179350000Y-105524380D01*
X179007142Y-104914857D02*
X178969047Y-104800571D01*
X178930952Y-104762476D01*
X178854761Y-104724380D01*
X178740476Y-104724380D01*
X178664285Y-104762476D01*
X178626190Y-104800571D01*
X178588095Y-104876761D01*
X178588095Y-105181523D01*
X179388095Y-105181523D01*
X179388095Y-104914857D01*
X179350000Y-104838666D01*
X179311904Y-104800571D01*
X179235714Y-104762476D01*
X179159523Y-104762476D01*
X179083333Y-104800571D01*
X179045238Y-104838666D01*
X179007142Y-104914857D01*
X179007142Y-105181523D01*
X177762779Y-95340000D02*
X177437221Y-95340000D01*
X177762779Y-96360000D02*
X177437221Y-96360000D01*
X185012779Y-94540000D02*
X184687221Y-94540000D01*
X185012779Y-95560000D02*
X184687221Y-95560000D01*
X189937221Y-107010000D02*
X190262779Y-107010000D01*
X189937221Y-105990000D02*
X190262779Y-105990000D01*
X177950000Y-110200000D02*
X179950000Y-110200000D01*
X177950000Y-107400000D02*
X177950000Y-110200000D01*
X179950000Y-107400000D02*
X177950000Y-107400000D01*
X179950000Y-110200000D02*
X179950000Y-107400000D01*
X180500000Y-110200000D02*
X182500000Y-110200000D01*
X180500000Y-107400000D02*
X180500000Y-110200000D01*
X182500000Y-107400000D02*
X180500000Y-107400000D01*
X182500000Y-110200000D02*
X182500000Y-107400000D01*
X183050000Y-110200000D02*
X185050000Y-110200000D01*
X183050000Y-107400000D02*
X183050000Y-110200000D01*
X185050000Y-107400000D02*
X183050000Y-107400000D01*
X185050000Y-110200000D02*
X185050000Y-107400000D01*
X187810000Y-109058578D02*
X187810000Y-108541422D01*
X186390000Y-109058578D02*
X186390000Y-108541422D01*
X145987221Y-101760000D02*
X146312779Y-101760000D01*
X145987221Y-100740000D02*
X146312779Y-100740000D01*
X163950000Y-99635000D02*
X161240000Y-99635000D01*
X161240000Y-99635000D02*
X161240000Y-98065000D01*
X161240000Y-98065000D02*
X163950000Y-98065000D01*
X143850000Y-80885000D02*
X141140000Y-80885000D01*
X141140000Y-80885000D02*
X141140000Y-79315000D01*
X141140000Y-79315000D02*
X143850000Y-79315000D01*
X154212779Y-89390000D02*
X153887221Y-89390000D01*
X154212779Y-90410000D02*
X153887221Y-90410000D01*
X140491422Y-92360000D02*
X141008578Y-92360000D01*
X140491422Y-90940000D02*
X141008578Y-90940000D01*
X159408578Y-98140000D02*
X158891422Y-98140000D01*
X159408578Y-99560000D02*
X158891422Y-99560000D01*
X139358578Y-79390000D02*
X138841422Y-79390000D01*
X139358578Y-80810000D02*
X138841422Y-80810000D01*
X138787221Y-102810000D02*
X139112779Y-102810000D01*
X138787221Y-101790000D02*
X139112779Y-101790000D01*
X177962779Y-82090000D02*
X177637221Y-82090000D01*
X177962779Y-83110000D02*
X177637221Y-83110000D01*
X165540000Y-105587221D02*
X165540000Y-105912779D01*
X166560000Y-105587221D02*
X166560000Y-105912779D01*
X167040000Y-105587221D02*
X167040000Y-105912779D01*
X168060000Y-105587221D02*
X168060000Y-105912779D01*
X140687221Y-88110000D02*
X141012779Y-88110000D01*
X140687221Y-87090000D02*
X141012779Y-87090000D01*
X147700000Y-103650000D02*
X147700000Y-105650000D01*
X147700000Y-105650000D02*
X143850000Y-105650000D01*
X147700000Y-103650000D02*
X143850000Y-103650000D01*
X158150000Y-77882000D02*
X159150000Y-77882000D01*
X158150000Y-74522000D02*
X159150000Y-74522000D01*
X174500000Y-74520000D02*
X173500000Y-74520000D01*
X174500000Y-77880000D02*
X173500000Y-77880000D01*
X163050000Y-77810000D02*
X161250000Y-77810000D01*
X161250000Y-74590000D02*
X163700000Y-74590000D01*
X176510000Y-109058578D02*
X176510000Y-108541422D01*
X175090000Y-109058578D02*
X175090000Y-108541422D01*
X149780000Y-81400000D02*
X149780000Y-80400000D01*
X146420000Y-81400000D02*
X146420000Y-80400000D01*
X139112779Y-97290000D02*
X138787221Y-97290000D01*
X139112779Y-98310000D02*
X138787221Y-98310000D01*
X184660000Y-81812779D02*
X184660000Y-81487221D01*
X183640000Y-81812779D02*
X183640000Y-81487221D01*
X185070000Y-80690000D02*
X186000000Y-80690000D01*
X188230000Y-80690000D02*
X187300000Y-80690000D01*
X188230000Y-80690000D02*
X188230000Y-82850000D01*
X185070000Y-80690000D02*
X185070000Y-82150000D01*
X159408578Y-100090000D02*
X158891422Y-100090000D01*
X159408578Y-101510000D02*
X158891422Y-101510000D01*
X157640000Y-91440000D02*
X158900000Y-91440000D01*
X164460000Y-91440000D02*
X163200000Y-91440000D01*
X157640000Y-95200000D02*
X157640000Y-91440000D01*
X164460000Y-97450000D02*
X164460000Y-91440000D01*
X137590000Y-72790000D02*
X138850000Y-72790000D01*
X144410000Y-72790000D02*
X143150000Y-72790000D01*
X137590000Y-76550000D02*
X137590000Y-72790000D01*
X144410000Y-78800000D02*
X144410000Y-72790000D01*
X174610000Y-109058578D02*
X174610000Y-108541422D01*
X173190000Y-109058578D02*
X173190000Y-108541422D01*
X138787221Y-101310000D02*
X139112779Y-101310000D01*
X138787221Y-100290000D02*
X139112779Y-100290000D01*
X139112779Y-98790000D02*
X138787221Y-98790000D01*
X139112779Y-99810000D02*
X138787221Y-99810000D01*
X154212779Y-90890000D02*
X153887221Y-90890000D01*
X154212779Y-91910000D02*
X153887221Y-91910000D01*
X154212779Y-92390000D02*
X153887221Y-92390000D01*
X154212779Y-93410000D02*
X153887221Y-93410000D01*
X146312779Y-102240000D02*
X145987221Y-102240000D01*
X146312779Y-103260000D02*
X145987221Y-103260000D01*
X152837221Y-85060000D02*
X153162779Y-85060000D01*
X152837221Y-84040000D02*
X153162779Y-84040000D01*
X146362779Y-95490000D02*
X146037221Y-95490000D01*
X146362779Y-96510000D02*
X146037221Y-96510000D01*
X139112779Y-95790000D02*
X138787221Y-95790000D01*
X139112779Y-96810000D02*
X138787221Y-96810000D01*
X162060000Y-105587221D02*
X162060000Y-105912779D01*
X161040000Y-105587221D02*
X161040000Y-105912779D01*
X140350000Y-86680000D02*
X141350000Y-86680000D01*
X140350000Y-83320000D02*
X141350000Y-83320000D01*
X154418000Y-74522000D02*
X153418000Y-74522000D01*
X154418000Y-77882000D02*
X153418000Y-77882000D01*
X162540000Y-105912779D02*
X162540000Y-105587221D01*
X163560000Y-105912779D02*
X163560000Y-105587221D01*
X161560000Y-84087221D02*
X161560000Y-84412779D01*
X160540000Y-84087221D02*
X160540000Y-84412779D01*
X140687221Y-81890000D02*
X141012779Y-81890000D01*
X140687221Y-82910000D02*
X141012779Y-82910000D01*
X160560000Y-105587221D02*
X160560000Y-105912779D01*
X159540000Y-105587221D02*
X159540000Y-105912779D01*
X137940000Y-85162779D02*
X137940000Y-84837221D01*
X138960000Y-85162779D02*
X138960000Y-84837221D01*
X169840000Y-73637221D02*
X169840000Y-73962779D01*
X170860000Y-73637221D02*
X170860000Y-73962779D01*
X149790000Y-73637221D02*
X149790000Y-73962779D01*
X150810000Y-73637221D02*
X150810000Y-73962779D01*
X177762779Y-97860000D02*
X177437221Y-97860000D01*
X177762779Y-96840000D02*
X177437221Y-96840000D01*
X177762779Y-101260000D02*
X177437221Y-101260000D01*
X177762779Y-100240000D02*
X177437221Y-100240000D01*
X188937221Y-100710000D02*
X189262779Y-100710000D01*
X188937221Y-99690000D02*
X189262779Y-99690000D01*
X189937221Y-105510000D02*
X190262779Y-105510000D01*
X189937221Y-104490000D02*
X190262779Y-104490000D01*
X188937221Y-83490000D02*
X189262779Y-83490000D01*
X188937221Y-84510000D02*
X189262779Y-84510000D01*
X188937221Y-96210000D02*
X189262779Y-96210000D01*
X188937221Y-95190000D02*
X189262779Y-95190000D01*
X171637221Y-89010000D02*
X171962779Y-89010000D01*
X171637221Y-87990000D02*
X171962779Y-87990000D01*
X171587221Y-101260000D02*
X171912779Y-101260000D01*
X171587221Y-100240000D02*
X171912779Y-100240000D01*
X159040000Y-84412779D02*
X159040000Y-84087221D01*
X160060000Y-84412779D02*
X160060000Y-84087221D01*
X166060000Y-84412779D02*
X166060000Y-84087221D01*
X165040000Y-84412779D02*
X165040000Y-84087221D01*
X150462779Y-99990000D02*
X150137221Y-99990000D01*
X150462779Y-101010000D02*
X150137221Y-101010000D01*
X150462779Y-92990000D02*
X150137221Y-92990000D01*
X150462779Y-94010000D02*
X150137221Y-94010000D01*
X164040000Y-105587221D02*
X164040000Y-105912779D01*
X165060000Y-105587221D02*
X165060000Y-105912779D01*
X158040000Y-105587221D02*
X158040000Y-105912779D01*
X159060000Y-105587221D02*
X159060000Y-105912779D01*
X163060000Y-84412779D02*
X163060000Y-84087221D01*
X162040000Y-84412779D02*
X162040000Y-84087221D01*
X164560000Y-84412779D02*
X164560000Y-84087221D01*
X163540000Y-84412779D02*
X163540000Y-84087221D01*
X153540000Y-105587221D02*
X153540000Y-105912779D01*
X154560000Y-105587221D02*
X154560000Y-105912779D01*
X150462779Y-95990000D02*
X150137221Y-95990000D01*
X150462779Y-97010000D02*
X150137221Y-97010000D01*
X169560000Y-84494779D02*
X169560000Y-84169221D01*
X168540000Y-84494779D02*
X168540000Y-84169221D01*
X171637221Y-90510000D02*
X171962779Y-90510000D01*
X171637221Y-89490000D02*
X171962779Y-89490000D01*
M02*
