M48
; DRILL file {KiCad (5.1.6-0-10_14)} date Saturday, August 15, 2020 at 08:11:44 AM
; FORMAT={-:-/ absolute / inch / decimal}
; #@! TF.CreationDate,2020-08-15T08:11:44-07:00
; #@! TF.GenerationSoftware,Kicad,Pcbnew,(5.1.6-0-10_14)
; #@! TF.FileFunction,Plated,1,4,PTH
FMAT,2
INCH
T1C0.0118
T2C0.0394
%
G90
G05
T1
X5.3839Y-4.315
X5.3858Y-2.8268
X5.3858Y-2.8622
X5.3858Y-2.8976
X5.3976Y-4.2047
X5.4055Y-4.0787
X5.4134Y-3.8091
X5.4134Y-3.874
X5.4154Y-3.128
X5.4429Y-3.6811
X5.4434Y-3.2899
X5.4508Y-3.4094
X5.4508Y-3.5886
X5.4528Y-4.2362
X5.4803Y-2.9528
X5.4803Y-2.9764
X5.4843Y-4.1122
X5.4843Y-4.248
X5.4882Y-3.5591
X5.4961Y-3.1988
X5.5157Y-4.2362
X5.5295Y-3.1988
X5.5354Y-3.7815
X5.5354Y-3.8209
X5.5354Y-3.8583
X5.5354Y-3.8839
X5.5354Y-3.9134
X5.5354Y-3.9539
X5.5354Y-3.9882
X5.5472Y-4.248
X5.563Y-4.0138
X5.563Y-3.9331
X5.5886Y-4.2343
X5.5925Y-3.5591
X5.5945Y-3.8091
X5.6004Y-4.2795
X5.626Y-4.002
X5.6398Y-3.2874
X5.6398Y-3.4055
X5.6398Y-3.3268
X5.6402Y-3.3666
X5.6535Y-3.2461
X5.6535Y-3.4961
X5.6535Y-4.2362
X5.6673Y-3.3858
X5.6676Y-3.3466
X5.6693Y-3.3072
X5.6732Y-4.0787
X5.685Y-4.248
X5.6929Y-3.7815
X5.6929Y-3.8955
X5.6929Y-3.9862
X5.6929Y-4.0453
X5.7067Y-3.1339
X5.7165Y-4.2362
X5.7185Y-2.8484
X5.7185Y-2.8996
X5.7323Y-3.1988
X5.7421Y-3.1476
X5.748Y-3.2638
X5.748Y-4.248
X5.75Y-3.0827
X5.75Y-3.1083
X5.7539Y-2.7795
X5.7618Y-3.5768
X5.7835Y-3.5512
X5.7874Y-4.248
X5.8051Y-3.0492
X5.8051Y-2.8386
X5.8051Y-2.9094
X5.8051Y-2.9803
X5.813Y-3.9862
X5.8287Y-3.685
X5.8287Y-3.7697
X5.8484Y-4.1161
X5.8642Y-3.9862
X5.8661Y-4.3622
X5.874Y-3.7697
X5.874Y-4.0846
X5.876Y-2.7559
X5.876Y-3.6516
X5.9075Y-3.2815
X5.9665Y-4.065
X5.9665Y-3.3957
X5.9665Y-3.435
X5.9665Y-3.4941
X5.9665Y-3.5335
X5.9665Y-3.5733
X5.9665Y-3.6122
X5.9665Y-3.7106
X5.9665Y-3.7697
X5.9665Y-3.8484
X5.9665Y-3.8878
X5.9685Y-2.9016
X5.9705Y-2.7559
X5.9705Y-3.9272
X5.9823Y-2.8602
X5.9921Y-3.6457
X5.9941Y-3.8681
X5.9941Y-3.4154
X5.9941Y-3.4547
X5.9941Y-3.5139
X5.9941Y-3.5531
X5.9941Y-3.5925
X5.9961Y-3.3661
X6.0Y-3.8051
X6.0157Y-3.0748
X6.0276Y-2.9272
X6.0276Y-4.0079
X6.0335Y-3.5059
X6.0335Y-3.6909
X6.0354Y-4.1201
X6.0354Y-4.2047
X6.0443Y-3.7972
X6.0443Y-3.8366
X6.0443Y-3.876
X6.0551Y-3.3661
X6.0591Y-3.4311
X6.0669Y-3.2482
X6.0787Y-3.8169
X6.0787Y-3.8563
X6.0846Y-3.9961
X6.0846Y-3.7382
X6.0945Y-3.3661
X6.0965Y-3.6909
X6.0965Y-3.5059
X6.1063Y-3.2283
X6.1319Y-2.9843
X6.1339Y-2.9311
X6.1496Y-3.1024
X6.1594Y-3.3661
X6.1634Y-2.9626
X6.1654Y-3.248
X6.1713Y-3.5709
X6.1732Y-2.9055
X6.1732Y-3.0157
X6.185Y-3.3878
X6.1909Y-3.8642
X6.1909Y-3.9193
X6.1929Y-4.2087
X6.2067Y-3.128
X6.2106Y-3.4114
X6.2126Y-4.2382
X6.2283Y-2.9016
X6.2283Y-3.6673
X6.2323Y-3.437
X6.2323Y-4.2677
X6.2441Y-3.5354
X6.2441Y-3.5669
X6.252Y-3.2752
X6.252Y-4.2382
X6.2657Y-4.0512
X6.2708Y-4.1091
X6.2738Y-4.3738
X6.2874Y-3.4232
X6.2933Y-4.2323
X6.2972Y-4.0709
X6.3051Y-3.2382
X6.311Y-3.372
X6.3209Y-3.7303
X6.3307Y-4.1083
X6.3307Y-4.2185
X6.3307Y-4.2579
X6.3406Y-3.4843
X6.3524Y-4.0807
X6.3602Y-3.7303
X6.3701Y-3.2618
X6.3701Y-3.372
X6.372Y-4.0413
X6.3878Y-3.2008
X6.3937Y-2.7913
X6.4193Y-3.9961
X6.4291Y-3.252
X6.4311Y-4.2402
X6.437Y-3.5354
X6.437Y-3.5669
X6.439Y-4.3425
X6.4429Y-3.4213
X6.4449Y-3.628
X6.4487Y-3.2244
X6.4488Y-4.1083
X6.4488Y-4.2185
X6.4685Y-3.252
X6.4783Y-4.2402
X6.4862Y-2.9272
X6.4883Y-3.2244
X6.4902Y-3.372
X6.4902Y-3.8642
X6.4902Y-3.9193
X6.5Y-3.0157
X6.5079Y-3.252
X6.5256Y-4.1024
X6.5394Y-3.7185
X6.5413Y-3.4449
X6.5492Y-4.1024
X6.5669Y-3.2756
X6.5689Y-3.4252
X6.5709Y-4.0394
X6.5748Y-3.9744
X6.5965Y-3.5728
X6.5965Y-3.4055
X6.5965Y-3.502
X6.6063Y-4.0846
X6.6102Y-3.2382
X6.6201Y-2.8661
X6.6261Y-3.3661
X6.628Y-4.2047
X6.6358Y-4.065
X6.6398Y-2.8051
X6.6407Y-4.2963
X6.6417Y-3.6358
X6.6417Y-3.878
X6.6417Y-4.0098
X6.6555Y-3.3858
X6.6594Y-3.5217
X6.6634Y-2.7559
X6.6654Y-4.1043
X6.6831Y-4.2283
X6.685Y-3.6909
X6.685Y-4.0453
X6.685Y-3.6122
X6.685Y-3.6516
X6.685Y-3.7697
X6.685Y-3.8287
X6.685Y-3.9272
X6.6949Y-3.2777
X6.6969Y-3.9862
X6.7047Y-3.5138
X6.7047Y-3.5728
X6.7146Y-3.6319
X6.7146Y-3.6713
X6.7146Y-3.7105
X6.7146Y-3.7894
X6.7146Y-3.8484
X6.7146Y-4.0256
X6.7146Y-4.124
X6.7146Y-4.248
X6.7146Y-3.9075
X6.7205Y-3.2323
X6.7598Y-2.9016
X6.7736Y-2.8602
X6.7815Y-2.7559
X6.8012Y-3.0787
X6.8051Y-4.0059
X6.8051Y-3.5728
X6.8189Y-2.9252
X6.8209Y-3.2323
X6.8209Y-3.5138
X6.8307Y-4.3583
X6.8346Y-4.1496
X6.8366Y-3.4705
X6.8622Y-4.3583
X6.8996Y-4.2087
X6.9055Y-4.3583
X6.9232Y-2.9843
X6.9252Y-2.9311
X6.9272Y-3.9469
X6.937Y-4.2087
X6.937Y-4.3583
X6.939Y-3.1024
X6.9409Y-3.2795
X6.9449Y-4.1496
X6.9646Y-2.9055
X6.9646Y-2.9685
X6.9921Y-4.2028
X7.0098Y-3.1437
X7.0197Y-2.9016
X7.0354Y-3.8819
X7.0433Y-3.315
X7.0472Y-3.9921
X7.0472Y-4.1447
X7.0591Y-3.752
X7.061Y-3.8209
X7.0748Y-3.2361
X7.0748Y-3.2677
X7.0807Y-3.7736
X7.0945Y-4.2028
X7.1614Y-4.3642
X7.1831Y-2.7795
X7.185Y-4.0128
X7.1969Y-3.1752
X7.1969Y-4.2028
X7.2087Y-3.2185
X7.2264Y-4.3642
X7.2835Y-3.1949
X7.2894Y-4.3602
X7.2913Y-2.9528
X7.2913Y-3.0157
X7.311Y-3.189
X7.3425Y-3.7421
X7.3465Y-2.8642
X7.3622Y-3.2067
X7.3661Y-4.185
X7.373Y-3.7776
X7.376Y-2.7795
X7.3799Y-3.315
X7.3839Y-3.9724
X7.3858Y-2.8327
X7.3878Y-3.7402
X7.3898Y-3.9213
X7.3917Y-4.1043
X7.3917Y-4.1634
X7.4213Y-4.3858
X7.5098Y-3.3071
X7.5098Y-3.9449
X7.5276Y-3.7677
X7.5492Y-4.1339
X7.5492Y-4.1929
X7.5787Y-2.9173
X7.5787Y-3.1919
X7.6161Y-3.3366
X7.6161Y-3.3996
X7.6161Y-3.4862
X7.6161Y-3.5492
X7.6161Y-3.6358
X7.6161Y-3.6988
X7.6161Y-3.8031
X7.6161Y-3.8661
X7.6161Y-3.9921
X7.6161Y-4.0551
X7.6299Y-3.3681
X7.6299Y-3.4311
X7.6299Y-3.5177
X7.6299Y-3.5807
X7.6299Y-3.6673
X7.6299Y-3.8346
X7.6299Y-3.8976
X7.6299Y-4.0236
X7.6299Y-4.0866
T2
X5.4492Y-4.4508
X5.4492Y-4.5508
X5.5492Y-4.4508
X5.5492Y-4.5508
X5.6492Y-4.4508
X5.6492Y-4.5508
X5.7492Y-4.4508
X5.7492Y-4.5508
X5.8492Y-4.4508
X5.8492Y-4.5508
X5.9492Y-4.4508
X5.9492Y-4.5508
X6.0492Y-4.4508
X6.0492Y-4.5508
X6.1492Y-4.4508
X6.1492Y-4.5508
X6.2492Y-4.4508
X6.2492Y-4.5508
X6.3492Y-4.4508
X6.3492Y-4.5508
X6.4492Y-4.4508
X6.4492Y-4.5508
X6.5492Y-4.4508
X6.5492Y-4.5508
X6.6492Y-4.4508
X6.6492Y-4.5508
X6.7492Y-4.4508
X6.7492Y-4.5508
X6.8492Y-4.4508
X6.8492Y-4.5508
X6.9492Y-4.4508
X6.9492Y-4.5508
X7.0492Y-4.4508
X7.0492Y-4.5508
X7.1492Y-4.4508
X7.1492Y-4.5508
X7.2492Y-4.4508
X7.2492Y-4.5508
X7.3492Y-4.4508
X7.3492Y-4.5508
T0
M30
