G04 #@! TF.GenerationSoftware,KiCad,Pcbnew,(5.1.6-0-10_14)*
G04 #@! TF.CreationDate,2020-08-15T08:11:16-07:00*
G04 #@! TF.ProjectId,fpga-ice40,66706761-2d69-4636-9534-302e6b696361,r0.1*
G04 #@! TF.SameCoordinates,Original*
G04 #@! TF.FileFunction,Soldermask,Bot*
G04 #@! TF.FilePolarity,Negative*
%FSLAX46Y46*%
G04 Gerber Fmt 4.6, Leading zero omitted, Abs format (unit mm)*
G04 Created by KiCad (PCBNEW (5.1.6-0-10_14)) date 2020-08-15 08:11:16*
%MOMM*%
%LPD*%
G01*
G04 APERTURE LIST*
%ADD10C,0.100000*%
G04 APERTURE END LIST*
D10*
G36*
X186932520Y-114724586D02*
G01*
X187096310Y-114792430D01*
X187243717Y-114890924D01*
X187369076Y-115016283D01*
X187467570Y-115163690D01*
X187535414Y-115327480D01*
X187570000Y-115501358D01*
X187570000Y-115678642D01*
X187535414Y-115852520D01*
X187467570Y-116016310D01*
X187369076Y-116163717D01*
X187243717Y-116289076D01*
X187096310Y-116387570D01*
X187096309Y-116387571D01*
X187096308Y-116387571D01*
X186932520Y-116455414D01*
X186758644Y-116490000D01*
X186581356Y-116490000D01*
X186407480Y-116455414D01*
X186243692Y-116387571D01*
X186243691Y-116387571D01*
X186243690Y-116387570D01*
X186096283Y-116289076D01*
X185970924Y-116163717D01*
X185872430Y-116016310D01*
X185804586Y-115852520D01*
X185770000Y-115678642D01*
X185770000Y-115501358D01*
X185804586Y-115327480D01*
X185872430Y-115163690D01*
X185970924Y-115016283D01*
X186096283Y-114890924D01*
X186243690Y-114792430D01*
X186407480Y-114724586D01*
X186581356Y-114690000D01*
X186758644Y-114690000D01*
X186932520Y-114724586D01*
G37*
G36*
X184392520Y-114724586D02*
G01*
X184556310Y-114792430D01*
X184703717Y-114890924D01*
X184829076Y-115016283D01*
X184927570Y-115163690D01*
X184995414Y-115327480D01*
X185030000Y-115501358D01*
X185030000Y-115678642D01*
X184995414Y-115852520D01*
X184927570Y-116016310D01*
X184829076Y-116163717D01*
X184703717Y-116289076D01*
X184556310Y-116387570D01*
X184556309Y-116387571D01*
X184556308Y-116387571D01*
X184392520Y-116455414D01*
X184218644Y-116490000D01*
X184041356Y-116490000D01*
X183867480Y-116455414D01*
X183703692Y-116387571D01*
X183703691Y-116387571D01*
X183703690Y-116387570D01*
X183556283Y-116289076D01*
X183430924Y-116163717D01*
X183332430Y-116016310D01*
X183264586Y-115852520D01*
X183230000Y-115678642D01*
X183230000Y-115501358D01*
X183264586Y-115327480D01*
X183332430Y-115163690D01*
X183430924Y-115016283D01*
X183556283Y-114890924D01*
X183703690Y-114792430D01*
X183867480Y-114724586D01*
X184041356Y-114690000D01*
X184218644Y-114690000D01*
X184392520Y-114724586D01*
G37*
G36*
X181852520Y-114724586D02*
G01*
X182016310Y-114792430D01*
X182163717Y-114890924D01*
X182289076Y-115016283D01*
X182387570Y-115163690D01*
X182455414Y-115327480D01*
X182490000Y-115501358D01*
X182490000Y-115678642D01*
X182455414Y-115852520D01*
X182387570Y-116016310D01*
X182289076Y-116163717D01*
X182163717Y-116289076D01*
X182016310Y-116387570D01*
X182016309Y-116387571D01*
X182016308Y-116387571D01*
X181852520Y-116455414D01*
X181678644Y-116490000D01*
X181501356Y-116490000D01*
X181327480Y-116455414D01*
X181163692Y-116387571D01*
X181163691Y-116387571D01*
X181163690Y-116387570D01*
X181016283Y-116289076D01*
X180890924Y-116163717D01*
X180792430Y-116016310D01*
X180724586Y-115852520D01*
X180690000Y-115678642D01*
X180690000Y-115501358D01*
X180724586Y-115327480D01*
X180792430Y-115163690D01*
X180890924Y-115016283D01*
X181016283Y-114890924D01*
X181163690Y-114792430D01*
X181327480Y-114724586D01*
X181501356Y-114690000D01*
X181678644Y-114690000D01*
X181852520Y-114724586D01*
G37*
G36*
X179312520Y-114724586D02*
G01*
X179476310Y-114792430D01*
X179623717Y-114890924D01*
X179749076Y-115016283D01*
X179847570Y-115163690D01*
X179915414Y-115327480D01*
X179950000Y-115501358D01*
X179950000Y-115678642D01*
X179915414Y-115852520D01*
X179847570Y-116016310D01*
X179749076Y-116163717D01*
X179623717Y-116289076D01*
X179476310Y-116387570D01*
X179476309Y-116387571D01*
X179476308Y-116387571D01*
X179312520Y-116455414D01*
X179138644Y-116490000D01*
X178961356Y-116490000D01*
X178787480Y-116455414D01*
X178623692Y-116387571D01*
X178623691Y-116387571D01*
X178623690Y-116387570D01*
X178476283Y-116289076D01*
X178350924Y-116163717D01*
X178252430Y-116016310D01*
X178184586Y-115852520D01*
X178150000Y-115678642D01*
X178150000Y-115501358D01*
X178184586Y-115327480D01*
X178252430Y-115163690D01*
X178350924Y-115016283D01*
X178476283Y-114890924D01*
X178623690Y-114792430D01*
X178787480Y-114724586D01*
X178961356Y-114690000D01*
X179138644Y-114690000D01*
X179312520Y-114724586D01*
G37*
G36*
X176772520Y-114724586D02*
G01*
X176936310Y-114792430D01*
X177083717Y-114890924D01*
X177209076Y-115016283D01*
X177307570Y-115163690D01*
X177375414Y-115327480D01*
X177410000Y-115501358D01*
X177410000Y-115678642D01*
X177375414Y-115852520D01*
X177307570Y-116016310D01*
X177209076Y-116163717D01*
X177083717Y-116289076D01*
X176936310Y-116387570D01*
X176936309Y-116387571D01*
X176936308Y-116387571D01*
X176772520Y-116455414D01*
X176598644Y-116490000D01*
X176421356Y-116490000D01*
X176247480Y-116455414D01*
X176083692Y-116387571D01*
X176083691Y-116387571D01*
X176083690Y-116387570D01*
X175936283Y-116289076D01*
X175810924Y-116163717D01*
X175712430Y-116016310D01*
X175644586Y-115852520D01*
X175610000Y-115678642D01*
X175610000Y-115501358D01*
X175644586Y-115327480D01*
X175712430Y-115163690D01*
X175810924Y-115016283D01*
X175936283Y-114890924D01*
X176083690Y-114792430D01*
X176247480Y-114724586D01*
X176421356Y-114690000D01*
X176598644Y-114690000D01*
X176772520Y-114724586D01*
G37*
G36*
X174232520Y-114724586D02*
G01*
X174396310Y-114792430D01*
X174543717Y-114890924D01*
X174669076Y-115016283D01*
X174767570Y-115163690D01*
X174835414Y-115327480D01*
X174870000Y-115501358D01*
X174870000Y-115678642D01*
X174835414Y-115852520D01*
X174767570Y-116016310D01*
X174669076Y-116163717D01*
X174543717Y-116289076D01*
X174396310Y-116387570D01*
X174396309Y-116387571D01*
X174396308Y-116387571D01*
X174232520Y-116455414D01*
X174058644Y-116490000D01*
X173881356Y-116490000D01*
X173707480Y-116455414D01*
X173543692Y-116387571D01*
X173543691Y-116387571D01*
X173543690Y-116387570D01*
X173396283Y-116289076D01*
X173270924Y-116163717D01*
X173172430Y-116016310D01*
X173104586Y-115852520D01*
X173070000Y-115678642D01*
X173070000Y-115501358D01*
X173104586Y-115327480D01*
X173172430Y-115163690D01*
X173270924Y-115016283D01*
X173396283Y-114890924D01*
X173543690Y-114792430D01*
X173707480Y-114724586D01*
X173881356Y-114690000D01*
X174058644Y-114690000D01*
X174232520Y-114724586D01*
G37*
G36*
X171692520Y-114724586D02*
G01*
X171856310Y-114792430D01*
X172003717Y-114890924D01*
X172129076Y-115016283D01*
X172227570Y-115163690D01*
X172295414Y-115327480D01*
X172330000Y-115501358D01*
X172330000Y-115678642D01*
X172295414Y-115852520D01*
X172227570Y-116016310D01*
X172129076Y-116163717D01*
X172003717Y-116289076D01*
X171856310Y-116387570D01*
X171856309Y-116387571D01*
X171856308Y-116387571D01*
X171692520Y-116455414D01*
X171518644Y-116490000D01*
X171341356Y-116490000D01*
X171167480Y-116455414D01*
X171003692Y-116387571D01*
X171003691Y-116387571D01*
X171003690Y-116387570D01*
X170856283Y-116289076D01*
X170730924Y-116163717D01*
X170632430Y-116016310D01*
X170564586Y-115852520D01*
X170530000Y-115678642D01*
X170530000Y-115501358D01*
X170564586Y-115327480D01*
X170632430Y-115163690D01*
X170730924Y-115016283D01*
X170856283Y-114890924D01*
X171003690Y-114792430D01*
X171167480Y-114724586D01*
X171341356Y-114690000D01*
X171518644Y-114690000D01*
X171692520Y-114724586D01*
G37*
G36*
X169152520Y-114724586D02*
G01*
X169316310Y-114792430D01*
X169463717Y-114890924D01*
X169589076Y-115016283D01*
X169687570Y-115163690D01*
X169755414Y-115327480D01*
X169790000Y-115501358D01*
X169790000Y-115678642D01*
X169755414Y-115852520D01*
X169687570Y-116016310D01*
X169589076Y-116163717D01*
X169463717Y-116289076D01*
X169316310Y-116387570D01*
X169316309Y-116387571D01*
X169316308Y-116387571D01*
X169152520Y-116455414D01*
X168978644Y-116490000D01*
X168801356Y-116490000D01*
X168627480Y-116455414D01*
X168463692Y-116387571D01*
X168463691Y-116387571D01*
X168463690Y-116387570D01*
X168316283Y-116289076D01*
X168190924Y-116163717D01*
X168092430Y-116016310D01*
X168024586Y-115852520D01*
X167990000Y-115678642D01*
X167990000Y-115501358D01*
X168024586Y-115327480D01*
X168092430Y-115163690D01*
X168190924Y-115016283D01*
X168316283Y-114890924D01*
X168463690Y-114792430D01*
X168627480Y-114724586D01*
X168801356Y-114690000D01*
X168978644Y-114690000D01*
X169152520Y-114724586D01*
G37*
G36*
X166612520Y-114724586D02*
G01*
X166776310Y-114792430D01*
X166923717Y-114890924D01*
X167049076Y-115016283D01*
X167147570Y-115163690D01*
X167215414Y-115327480D01*
X167250000Y-115501358D01*
X167250000Y-115678642D01*
X167215414Y-115852520D01*
X167147570Y-116016310D01*
X167049076Y-116163717D01*
X166923717Y-116289076D01*
X166776310Y-116387570D01*
X166776309Y-116387571D01*
X166776308Y-116387571D01*
X166612520Y-116455414D01*
X166438644Y-116490000D01*
X166261356Y-116490000D01*
X166087480Y-116455414D01*
X165923692Y-116387571D01*
X165923691Y-116387571D01*
X165923690Y-116387570D01*
X165776283Y-116289076D01*
X165650924Y-116163717D01*
X165552430Y-116016310D01*
X165484586Y-115852520D01*
X165450000Y-115678642D01*
X165450000Y-115501358D01*
X165484586Y-115327480D01*
X165552430Y-115163690D01*
X165650924Y-115016283D01*
X165776283Y-114890924D01*
X165923690Y-114792430D01*
X166087480Y-114724586D01*
X166261356Y-114690000D01*
X166438644Y-114690000D01*
X166612520Y-114724586D01*
G37*
G36*
X164072520Y-114724586D02*
G01*
X164236310Y-114792430D01*
X164383717Y-114890924D01*
X164509076Y-115016283D01*
X164607570Y-115163690D01*
X164675414Y-115327480D01*
X164710000Y-115501358D01*
X164710000Y-115678642D01*
X164675414Y-115852520D01*
X164607570Y-116016310D01*
X164509076Y-116163717D01*
X164383717Y-116289076D01*
X164236310Y-116387570D01*
X164236309Y-116387571D01*
X164236308Y-116387571D01*
X164072520Y-116455414D01*
X163898644Y-116490000D01*
X163721356Y-116490000D01*
X163547480Y-116455414D01*
X163383692Y-116387571D01*
X163383691Y-116387571D01*
X163383690Y-116387570D01*
X163236283Y-116289076D01*
X163110924Y-116163717D01*
X163012430Y-116016310D01*
X162944586Y-115852520D01*
X162910000Y-115678642D01*
X162910000Y-115501358D01*
X162944586Y-115327480D01*
X163012430Y-115163690D01*
X163110924Y-115016283D01*
X163236283Y-114890924D01*
X163383690Y-114792430D01*
X163547480Y-114724586D01*
X163721356Y-114690000D01*
X163898644Y-114690000D01*
X164072520Y-114724586D01*
G37*
G36*
X161532520Y-114724586D02*
G01*
X161696310Y-114792430D01*
X161843717Y-114890924D01*
X161969076Y-115016283D01*
X162067570Y-115163690D01*
X162135414Y-115327480D01*
X162170000Y-115501358D01*
X162170000Y-115678642D01*
X162135414Y-115852520D01*
X162067570Y-116016310D01*
X161969076Y-116163717D01*
X161843717Y-116289076D01*
X161696310Y-116387570D01*
X161696309Y-116387571D01*
X161696308Y-116387571D01*
X161532520Y-116455414D01*
X161358644Y-116490000D01*
X161181356Y-116490000D01*
X161007480Y-116455414D01*
X160843692Y-116387571D01*
X160843691Y-116387571D01*
X160843690Y-116387570D01*
X160696283Y-116289076D01*
X160570924Y-116163717D01*
X160472430Y-116016310D01*
X160404586Y-115852520D01*
X160370000Y-115678642D01*
X160370000Y-115501358D01*
X160404586Y-115327480D01*
X160472430Y-115163690D01*
X160570924Y-115016283D01*
X160696283Y-114890924D01*
X160843690Y-114792430D01*
X161007480Y-114724586D01*
X161181356Y-114690000D01*
X161358644Y-114690000D01*
X161532520Y-114724586D01*
G37*
G36*
X158992520Y-114724586D02*
G01*
X159156310Y-114792430D01*
X159303717Y-114890924D01*
X159429076Y-115016283D01*
X159527570Y-115163690D01*
X159595414Y-115327480D01*
X159630000Y-115501358D01*
X159630000Y-115678642D01*
X159595414Y-115852520D01*
X159527570Y-116016310D01*
X159429076Y-116163717D01*
X159303717Y-116289076D01*
X159156310Y-116387570D01*
X159156309Y-116387571D01*
X159156308Y-116387571D01*
X158992520Y-116455414D01*
X158818644Y-116490000D01*
X158641356Y-116490000D01*
X158467480Y-116455414D01*
X158303692Y-116387571D01*
X158303691Y-116387571D01*
X158303690Y-116387570D01*
X158156283Y-116289076D01*
X158030924Y-116163717D01*
X157932430Y-116016310D01*
X157864586Y-115852520D01*
X157830000Y-115678642D01*
X157830000Y-115501358D01*
X157864586Y-115327480D01*
X157932430Y-115163690D01*
X158030924Y-115016283D01*
X158156283Y-114890924D01*
X158303690Y-114792430D01*
X158467480Y-114724586D01*
X158641356Y-114690000D01*
X158818644Y-114690000D01*
X158992520Y-114724586D01*
G37*
G36*
X156452520Y-114724586D02*
G01*
X156616310Y-114792430D01*
X156763717Y-114890924D01*
X156889076Y-115016283D01*
X156987570Y-115163690D01*
X157055414Y-115327480D01*
X157090000Y-115501358D01*
X157090000Y-115678642D01*
X157055414Y-115852520D01*
X156987570Y-116016310D01*
X156889076Y-116163717D01*
X156763717Y-116289076D01*
X156616310Y-116387570D01*
X156616309Y-116387571D01*
X156616308Y-116387571D01*
X156452520Y-116455414D01*
X156278644Y-116490000D01*
X156101356Y-116490000D01*
X155927480Y-116455414D01*
X155763692Y-116387571D01*
X155763691Y-116387571D01*
X155763690Y-116387570D01*
X155616283Y-116289076D01*
X155490924Y-116163717D01*
X155392430Y-116016310D01*
X155324586Y-115852520D01*
X155290000Y-115678642D01*
X155290000Y-115501358D01*
X155324586Y-115327480D01*
X155392430Y-115163690D01*
X155490924Y-115016283D01*
X155616283Y-114890924D01*
X155763690Y-114792430D01*
X155927480Y-114724586D01*
X156101356Y-114690000D01*
X156278644Y-114690000D01*
X156452520Y-114724586D01*
G37*
G36*
X153912520Y-114724586D02*
G01*
X154076310Y-114792430D01*
X154223717Y-114890924D01*
X154349076Y-115016283D01*
X154447570Y-115163690D01*
X154515414Y-115327480D01*
X154550000Y-115501358D01*
X154550000Y-115678642D01*
X154515414Y-115852520D01*
X154447570Y-116016310D01*
X154349076Y-116163717D01*
X154223717Y-116289076D01*
X154076310Y-116387570D01*
X154076309Y-116387571D01*
X154076308Y-116387571D01*
X153912520Y-116455414D01*
X153738644Y-116490000D01*
X153561356Y-116490000D01*
X153387480Y-116455414D01*
X153223692Y-116387571D01*
X153223691Y-116387571D01*
X153223690Y-116387570D01*
X153076283Y-116289076D01*
X152950924Y-116163717D01*
X152852430Y-116016310D01*
X152784586Y-115852520D01*
X152750000Y-115678642D01*
X152750000Y-115501358D01*
X152784586Y-115327480D01*
X152852430Y-115163690D01*
X152950924Y-115016283D01*
X153076283Y-114890924D01*
X153223690Y-114792430D01*
X153387480Y-114724586D01*
X153561356Y-114690000D01*
X153738644Y-114690000D01*
X153912520Y-114724586D01*
G37*
G36*
X151372520Y-114724586D02*
G01*
X151536310Y-114792430D01*
X151683717Y-114890924D01*
X151809076Y-115016283D01*
X151907570Y-115163690D01*
X151975414Y-115327480D01*
X152010000Y-115501358D01*
X152010000Y-115678642D01*
X151975414Y-115852520D01*
X151907570Y-116016310D01*
X151809076Y-116163717D01*
X151683717Y-116289076D01*
X151536310Y-116387570D01*
X151536309Y-116387571D01*
X151536308Y-116387571D01*
X151372520Y-116455414D01*
X151198644Y-116490000D01*
X151021356Y-116490000D01*
X150847480Y-116455414D01*
X150683692Y-116387571D01*
X150683691Y-116387571D01*
X150683690Y-116387570D01*
X150536283Y-116289076D01*
X150410924Y-116163717D01*
X150312430Y-116016310D01*
X150244586Y-115852520D01*
X150210000Y-115678642D01*
X150210000Y-115501358D01*
X150244586Y-115327480D01*
X150312430Y-115163690D01*
X150410924Y-115016283D01*
X150536283Y-114890924D01*
X150683690Y-114792430D01*
X150847480Y-114724586D01*
X151021356Y-114690000D01*
X151198644Y-114690000D01*
X151372520Y-114724586D01*
G37*
G36*
X148832520Y-114724586D02*
G01*
X148996310Y-114792430D01*
X149143717Y-114890924D01*
X149269076Y-115016283D01*
X149367570Y-115163690D01*
X149435414Y-115327480D01*
X149470000Y-115501358D01*
X149470000Y-115678642D01*
X149435414Y-115852520D01*
X149367570Y-116016310D01*
X149269076Y-116163717D01*
X149143717Y-116289076D01*
X148996310Y-116387570D01*
X148996309Y-116387571D01*
X148996308Y-116387571D01*
X148832520Y-116455414D01*
X148658644Y-116490000D01*
X148481356Y-116490000D01*
X148307480Y-116455414D01*
X148143692Y-116387571D01*
X148143691Y-116387571D01*
X148143690Y-116387570D01*
X147996283Y-116289076D01*
X147870924Y-116163717D01*
X147772430Y-116016310D01*
X147704586Y-115852520D01*
X147670000Y-115678642D01*
X147670000Y-115501358D01*
X147704586Y-115327480D01*
X147772430Y-115163690D01*
X147870924Y-115016283D01*
X147996283Y-114890924D01*
X148143690Y-114792430D01*
X148307480Y-114724586D01*
X148481356Y-114690000D01*
X148658644Y-114690000D01*
X148832520Y-114724586D01*
G37*
G36*
X146292520Y-114724586D02*
G01*
X146456310Y-114792430D01*
X146603717Y-114890924D01*
X146729076Y-115016283D01*
X146827570Y-115163690D01*
X146895414Y-115327480D01*
X146930000Y-115501358D01*
X146930000Y-115678642D01*
X146895414Y-115852520D01*
X146827570Y-116016310D01*
X146729076Y-116163717D01*
X146603717Y-116289076D01*
X146456310Y-116387570D01*
X146456309Y-116387571D01*
X146456308Y-116387571D01*
X146292520Y-116455414D01*
X146118644Y-116490000D01*
X145941356Y-116490000D01*
X145767480Y-116455414D01*
X145603692Y-116387571D01*
X145603691Y-116387571D01*
X145603690Y-116387570D01*
X145456283Y-116289076D01*
X145330924Y-116163717D01*
X145232430Y-116016310D01*
X145164586Y-115852520D01*
X145130000Y-115678642D01*
X145130000Y-115501358D01*
X145164586Y-115327480D01*
X145232430Y-115163690D01*
X145330924Y-115016283D01*
X145456283Y-114890924D01*
X145603690Y-114792430D01*
X145767480Y-114724586D01*
X145941356Y-114690000D01*
X146118644Y-114690000D01*
X146292520Y-114724586D01*
G37*
G36*
X143752520Y-114724586D02*
G01*
X143916310Y-114792430D01*
X144063717Y-114890924D01*
X144189076Y-115016283D01*
X144287570Y-115163690D01*
X144355414Y-115327480D01*
X144390000Y-115501358D01*
X144390000Y-115678642D01*
X144355414Y-115852520D01*
X144287570Y-116016310D01*
X144189076Y-116163717D01*
X144063717Y-116289076D01*
X143916310Y-116387570D01*
X143916309Y-116387571D01*
X143916308Y-116387571D01*
X143752520Y-116455414D01*
X143578644Y-116490000D01*
X143401356Y-116490000D01*
X143227480Y-116455414D01*
X143063692Y-116387571D01*
X143063691Y-116387571D01*
X143063690Y-116387570D01*
X142916283Y-116289076D01*
X142790924Y-116163717D01*
X142692430Y-116016310D01*
X142624586Y-115852520D01*
X142590000Y-115678642D01*
X142590000Y-115501358D01*
X142624586Y-115327480D01*
X142692430Y-115163690D01*
X142790924Y-115016283D01*
X142916283Y-114890924D01*
X143063690Y-114792430D01*
X143227480Y-114724586D01*
X143401356Y-114690000D01*
X143578644Y-114690000D01*
X143752520Y-114724586D01*
G37*
G36*
X141212520Y-114724586D02*
G01*
X141376310Y-114792430D01*
X141523717Y-114890924D01*
X141649076Y-115016283D01*
X141747570Y-115163690D01*
X141815414Y-115327480D01*
X141850000Y-115501358D01*
X141850000Y-115678642D01*
X141815414Y-115852520D01*
X141747570Y-116016310D01*
X141649076Y-116163717D01*
X141523717Y-116289076D01*
X141376310Y-116387570D01*
X141376309Y-116387571D01*
X141376308Y-116387571D01*
X141212520Y-116455414D01*
X141038644Y-116490000D01*
X140861356Y-116490000D01*
X140687480Y-116455414D01*
X140523692Y-116387571D01*
X140523691Y-116387571D01*
X140523690Y-116387570D01*
X140376283Y-116289076D01*
X140250924Y-116163717D01*
X140152430Y-116016310D01*
X140084586Y-115852520D01*
X140050000Y-115678642D01*
X140050000Y-115501358D01*
X140084586Y-115327480D01*
X140152430Y-115163690D01*
X140250924Y-115016283D01*
X140376283Y-114890924D01*
X140523690Y-114792430D01*
X140687480Y-114724586D01*
X140861356Y-114690000D01*
X141038644Y-114690000D01*
X141212520Y-114724586D01*
G37*
G36*
X138672520Y-114724586D02*
G01*
X138836310Y-114792430D01*
X138983717Y-114890924D01*
X139109076Y-115016283D01*
X139207570Y-115163690D01*
X139275414Y-115327480D01*
X139310000Y-115501358D01*
X139310000Y-115678642D01*
X139275414Y-115852520D01*
X139207570Y-116016310D01*
X139109076Y-116163717D01*
X138983717Y-116289076D01*
X138836310Y-116387570D01*
X138836309Y-116387571D01*
X138836308Y-116387571D01*
X138672520Y-116455414D01*
X138498644Y-116490000D01*
X138321356Y-116490000D01*
X138147480Y-116455414D01*
X137983692Y-116387571D01*
X137983691Y-116387571D01*
X137983690Y-116387570D01*
X137836283Y-116289076D01*
X137710924Y-116163717D01*
X137612430Y-116016310D01*
X137544586Y-115852520D01*
X137510000Y-115678642D01*
X137510000Y-115501358D01*
X137544586Y-115327480D01*
X137612430Y-115163690D01*
X137710924Y-115016283D01*
X137836283Y-114890924D01*
X137983690Y-114792430D01*
X138147480Y-114724586D01*
X138321356Y-114690000D01*
X138498644Y-114690000D01*
X138672520Y-114724586D01*
G37*
G36*
X158992520Y-112184586D02*
G01*
X159156310Y-112252430D01*
X159303717Y-112350924D01*
X159429076Y-112476283D01*
X159527570Y-112623690D01*
X159595414Y-112787480D01*
X159630000Y-112961358D01*
X159630000Y-113138642D01*
X159595414Y-113312520D01*
X159527570Y-113476310D01*
X159429076Y-113623717D01*
X159303717Y-113749076D01*
X159156310Y-113847570D01*
X159156309Y-113847571D01*
X159156308Y-113847571D01*
X158992520Y-113915414D01*
X158818644Y-113950000D01*
X158641356Y-113950000D01*
X158467480Y-113915414D01*
X158303692Y-113847571D01*
X158303691Y-113847571D01*
X158303690Y-113847570D01*
X158156283Y-113749076D01*
X158030924Y-113623717D01*
X157932430Y-113476310D01*
X157864586Y-113312520D01*
X157830000Y-113138642D01*
X157830000Y-112961358D01*
X157864586Y-112787480D01*
X157932430Y-112623690D01*
X158030924Y-112476283D01*
X158156283Y-112350924D01*
X158303690Y-112252430D01*
X158467480Y-112184586D01*
X158641356Y-112150000D01*
X158818644Y-112150000D01*
X158992520Y-112184586D01*
G37*
G36*
X143752520Y-112184586D02*
G01*
X143916310Y-112252430D01*
X144063717Y-112350924D01*
X144189076Y-112476283D01*
X144287570Y-112623690D01*
X144355414Y-112787480D01*
X144390000Y-112961358D01*
X144390000Y-113138642D01*
X144355414Y-113312520D01*
X144287570Y-113476310D01*
X144189076Y-113623717D01*
X144063717Y-113749076D01*
X143916310Y-113847570D01*
X143916309Y-113847571D01*
X143916308Y-113847571D01*
X143752520Y-113915414D01*
X143578644Y-113950000D01*
X143401356Y-113950000D01*
X143227480Y-113915414D01*
X143063692Y-113847571D01*
X143063691Y-113847571D01*
X143063690Y-113847570D01*
X142916283Y-113749076D01*
X142790924Y-113623717D01*
X142692430Y-113476310D01*
X142624586Y-113312520D01*
X142590000Y-113138642D01*
X142590000Y-112961358D01*
X142624586Y-112787480D01*
X142692430Y-112623690D01*
X142790924Y-112476283D01*
X142916283Y-112350924D01*
X143063690Y-112252430D01*
X143227480Y-112184586D01*
X143401356Y-112150000D01*
X143578644Y-112150000D01*
X143752520Y-112184586D01*
G37*
G36*
X187570000Y-113950000D02*
G01*
X185770000Y-113950000D01*
X185770000Y-112150000D01*
X187570000Y-112150000D01*
X187570000Y-113950000D01*
G37*
G36*
X146292520Y-112184586D02*
G01*
X146456310Y-112252430D01*
X146603717Y-112350924D01*
X146729076Y-112476283D01*
X146827570Y-112623690D01*
X146895414Y-112787480D01*
X146930000Y-112961358D01*
X146930000Y-113138642D01*
X146895414Y-113312520D01*
X146827570Y-113476310D01*
X146729076Y-113623717D01*
X146603717Y-113749076D01*
X146456310Y-113847570D01*
X146456309Y-113847571D01*
X146456308Y-113847571D01*
X146292520Y-113915414D01*
X146118644Y-113950000D01*
X145941356Y-113950000D01*
X145767480Y-113915414D01*
X145603692Y-113847571D01*
X145603691Y-113847571D01*
X145603690Y-113847570D01*
X145456283Y-113749076D01*
X145330924Y-113623717D01*
X145232430Y-113476310D01*
X145164586Y-113312520D01*
X145130000Y-113138642D01*
X145130000Y-112961358D01*
X145164586Y-112787480D01*
X145232430Y-112623690D01*
X145330924Y-112476283D01*
X145456283Y-112350924D01*
X145603690Y-112252430D01*
X145767480Y-112184586D01*
X145941356Y-112150000D01*
X146118644Y-112150000D01*
X146292520Y-112184586D01*
G37*
G36*
X138672520Y-112184586D02*
G01*
X138836310Y-112252430D01*
X138983717Y-112350924D01*
X139109076Y-112476283D01*
X139207570Y-112623690D01*
X139275414Y-112787480D01*
X139310000Y-112961358D01*
X139310000Y-113138642D01*
X139275414Y-113312520D01*
X139207570Y-113476310D01*
X139109076Y-113623717D01*
X138983717Y-113749076D01*
X138836310Y-113847570D01*
X138836309Y-113847571D01*
X138836308Y-113847571D01*
X138672520Y-113915414D01*
X138498644Y-113950000D01*
X138321356Y-113950000D01*
X138147480Y-113915414D01*
X137983692Y-113847571D01*
X137983691Y-113847571D01*
X137983690Y-113847570D01*
X137836283Y-113749076D01*
X137710924Y-113623717D01*
X137612430Y-113476310D01*
X137544586Y-113312520D01*
X137510000Y-113138642D01*
X137510000Y-112961358D01*
X137544586Y-112787480D01*
X137612430Y-112623690D01*
X137710924Y-112476283D01*
X137836283Y-112350924D01*
X137983690Y-112252430D01*
X138147480Y-112184586D01*
X138321356Y-112150000D01*
X138498644Y-112150000D01*
X138672520Y-112184586D01*
G37*
G36*
X184392520Y-112184586D02*
G01*
X184556310Y-112252430D01*
X184703717Y-112350924D01*
X184829076Y-112476283D01*
X184927570Y-112623690D01*
X184995414Y-112787480D01*
X185030000Y-112961358D01*
X185030000Y-113138642D01*
X184995414Y-113312520D01*
X184927570Y-113476310D01*
X184829076Y-113623717D01*
X184703717Y-113749076D01*
X184556310Y-113847570D01*
X184556309Y-113847571D01*
X184556308Y-113847571D01*
X184392520Y-113915414D01*
X184218644Y-113950000D01*
X184041356Y-113950000D01*
X183867480Y-113915414D01*
X183703692Y-113847571D01*
X183703691Y-113847571D01*
X183703690Y-113847570D01*
X183556283Y-113749076D01*
X183430924Y-113623717D01*
X183332430Y-113476310D01*
X183264586Y-113312520D01*
X183230000Y-113138642D01*
X183230000Y-112961358D01*
X183264586Y-112787480D01*
X183332430Y-112623690D01*
X183430924Y-112476283D01*
X183556283Y-112350924D01*
X183703690Y-112252430D01*
X183867480Y-112184586D01*
X184041356Y-112150000D01*
X184218644Y-112150000D01*
X184392520Y-112184586D01*
G37*
G36*
X148832520Y-112184586D02*
G01*
X148996310Y-112252430D01*
X149143717Y-112350924D01*
X149269076Y-112476283D01*
X149367570Y-112623690D01*
X149435414Y-112787480D01*
X149470000Y-112961358D01*
X149470000Y-113138642D01*
X149435414Y-113312520D01*
X149367570Y-113476310D01*
X149269076Y-113623717D01*
X149143717Y-113749076D01*
X148996310Y-113847570D01*
X148996309Y-113847571D01*
X148996308Y-113847571D01*
X148832520Y-113915414D01*
X148658644Y-113950000D01*
X148481356Y-113950000D01*
X148307480Y-113915414D01*
X148143692Y-113847571D01*
X148143691Y-113847571D01*
X148143690Y-113847570D01*
X147996283Y-113749076D01*
X147870924Y-113623717D01*
X147772430Y-113476310D01*
X147704586Y-113312520D01*
X147670000Y-113138642D01*
X147670000Y-112961358D01*
X147704586Y-112787480D01*
X147772430Y-112623690D01*
X147870924Y-112476283D01*
X147996283Y-112350924D01*
X148143690Y-112252430D01*
X148307480Y-112184586D01*
X148481356Y-112150000D01*
X148658644Y-112150000D01*
X148832520Y-112184586D01*
G37*
G36*
X141212520Y-112184586D02*
G01*
X141376310Y-112252430D01*
X141523717Y-112350924D01*
X141649076Y-112476283D01*
X141747570Y-112623690D01*
X141815414Y-112787480D01*
X141850000Y-112961358D01*
X141850000Y-113138642D01*
X141815414Y-113312520D01*
X141747570Y-113476310D01*
X141649076Y-113623717D01*
X141523717Y-113749076D01*
X141376310Y-113847570D01*
X141376309Y-113847571D01*
X141376308Y-113847571D01*
X141212520Y-113915414D01*
X141038644Y-113950000D01*
X140861356Y-113950000D01*
X140687480Y-113915414D01*
X140523692Y-113847571D01*
X140523691Y-113847571D01*
X140523690Y-113847570D01*
X140376283Y-113749076D01*
X140250924Y-113623717D01*
X140152430Y-113476310D01*
X140084586Y-113312520D01*
X140050000Y-113138642D01*
X140050000Y-112961358D01*
X140084586Y-112787480D01*
X140152430Y-112623690D01*
X140250924Y-112476283D01*
X140376283Y-112350924D01*
X140523690Y-112252430D01*
X140687480Y-112184586D01*
X140861356Y-112150000D01*
X141038644Y-112150000D01*
X141212520Y-112184586D01*
G37*
G36*
X181852520Y-112184586D02*
G01*
X182016310Y-112252430D01*
X182163717Y-112350924D01*
X182289076Y-112476283D01*
X182387570Y-112623690D01*
X182455414Y-112787480D01*
X182490000Y-112961358D01*
X182490000Y-113138642D01*
X182455414Y-113312520D01*
X182387570Y-113476310D01*
X182289076Y-113623717D01*
X182163717Y-113749076D01*
X182016310Y-113847570D01*
X182016309Y-113847571D01*
X182016308Y-113847571D01*
X181852520Y-113915414D01*
X181678644Y-113950000D01*
X181501356Y-113950000D01*
X181327480Y-113915414D01*
X181163692Y-113847571D01*
X181163691Y-113847571D01*
X181163690Y-113847570D01*
X181016283Y-113749076D01*
X180890924Y-113623717D01*
X180792430Y-113476310D01*
X180724586Y-113312520D01*
X180690000Y-113138642D01*
X180690000Y-112961358D01*
X180724586Y-112787480D01*
X180792430Y-112623690D01*
X180890924Y-112476283D01*
X181016283Y-112350924D01*
X181163690Y-112252430D01*
X181327480Y-112184586D01*
X181501356Y-112150000D01*
X181678644Y-112150000D01*
X181852520Y-112184586D01*
G37*
G36*
X151372520Y-112184586D02*
G01*
X151536310Y-112252430D01*
X151683717Y-112350924D01*
X151809076Y-112476283D01*
X151907570Y-112623690D01*
X151975414Y-112787480D01*
X152010000Y-112961358D01*
X152010000Y-113138642D01*
X151975414Y-113312520D01*
X151907570Y-113476310D01*
X151809076Y-113623717D01*
X151683717Y-113749076D01*
X151536310Y-113847570D01*
X151536309Y-113847571D01*
X151536308Y-113847571D01*
X151372520Y-113915414D01*
X151198644Y-113950000D01*
X151021356Y-113950000D01*
X150847480Y-113915414D01*
X150683692Y-113847571D01*
X150683691Y-113847571D01*
X150683690Y-113847570D01*
X150536283Y-113749076D01*
X150410924Y-113623717D01*
X150312430Y-113476310D01*
X150244586Y-113312520D01*
X150210000Y-113138642D01*
X150210000Y-112961358D01*
X150244586Y-112787480D01*
X150312430Y-112623690D01*
X150410924Y-112476283D01*
X150536283Y-112350924D01*
X150683690Y-112252430D01*
X150847480Y-112184586D01*
X151021356Y-112150000D01*
X151198644Y-112150000D01*
X151372520Y-112184586D01*
G37*
G36*
X179312520Y-112184586D02*
G01*
X179476310Y-112252430D01*
X179623717Y-112350924D01*
X179749076Y-112476283D01*
X179847570Y-112623690D01*
X179915414Y-112787480D01*
X179950000Y-112961358D01*
X179950000Y-113138642D01*
X179915414Y-113312520D01*
X179847570Y-113476310D01*
X179749076Y-113623717D01*
X179623717Y-113749076D01*
X179476310Y-113847570D01*
X179476309Y-113847571D01*
X179476308Y-113847571D01*
X179312520Y-113915414D01*
X179138644Y-113950000D01*
X178961356Y-113950000D01*
X178787480Y-113915414D01*
X178623692Y-113847571D01*
X178623691Y-113847571D01*
X178623690Y-113847570D01*
X178476283Y-113749076D01*
X178350924Y-113623717D01*
X178252430Y-113476310D01*
X178184586Y-113312520D01*
X178150000Y-113138642D01*
X178150000Y-112961358D01*
X178184586Y-112787480D01*
X178252430Y-112623690D01*
X178350924Y-112476283D01*
X178476283Y-112350924D01*
X178623690Y-112252430D01*
X178787480Y-112184586D01*
X178961356Y-112150000D01*
X179138644Y-112150000D01*
X179312520Y-112184586D01*
G37*
G36*
X153912520Y-112184586D02*
G01*
X154076310Y-112252430D01*
X154223717Y-112350924D01*
X154349076Y-112476283D01*
X154447570Y-112623690D01*
X154515414Y-112787480D01*
X154550000Y-112961358D01*
X154550000Y-113138642D01*
X154515414Y-113312520D01*
X154447570Y-113476310D01*
X154349076Y-113623717D01*
X154223717Y-113749076D01*
X154076310Y-113847570D01*
X154076309Y-113847571D01*
X154076308Y-113847571D01*
X153912520Y-113915414D01*
X153738644Y-113950000D01*
X153561356Y-113950000D01*
X153387480Y-113915414D01*
X153223692Y-113847571D01*
X153223691Y-113847571D01*
X153223690Y-113847570D01*
X153076283Y-113749076D01*
X152950924Y-113623717D01*
X152852430Y-113476310D01*
X152784586Y-113312520D01*
X152750000Y-113138642D01*
X152750000Y-112961358D01*
X152784586Y-112787480D01*
X152852430Y-112623690D01*
X152950924Y-112476283D01*
X153076283Y-112350924D01*
X153223690Y-112252430D01*
X153387480Y-112184586D01*
X153561356Y-112150000D01*
X153738644Y-112150000D01*
X153912520Y-112184586D01*
G37*
G36*
X176772520Y-112184586D02*
G01*
X176936310Y-112252430D01*
X177083717Y-112350924D01*
X177209076Y-112476283D01*
X177307570Y-112623690D01*
X177375414Y-112787480D01*
X177410000Y-112961358D01*
X177410000Y-113138642D01*
X177375414Y-113312520D01*
X177307570Y-113476310D01*
X177209076Y-113623717D01*
X177083717Y-113749076D01*
X176936310Y-113847570D01*
X176936309Y-113847571D01*
X176936308Y-113847571D01*
X176772520Y-113915414D01*
X176598644Y-113950000D01*
X176421356Y-113950000D01*
X176247480Y-113915414D01*
X176083692Y-113847571D01*
X176083691Y-113847571D01*
X176083690Y-113847570D01*
X175936283Y-113749076D01*
X175810924Y-113623717D01*
X175712430Y-113476310D01*
X175644586Y-113312520D01*
X175610000Y-113138642D01*
X175610000Y-112961358D01*
X175644586Y-112787480D01*
X175712430Y-112623690D01*
X175810924Y-112476283D01*
X175936283Y-112350924D01*
X176083690Y-112252430D01*
X176247480Y-112184586D01*
X176421356Y-112150000D01*
X176598644Y-112150000D01*
X176772520Y-112184586D01*
G37*
G36*
X156452520Y-112184586D02*
G01*
X156616310Y-112252430D01*
X156763717Y-112350924D01*
X156889076Y-112476283D01*
X156987570Y-112623690D01*
X157055414Y-112787480D01*
X157090000Y-112961358D01*
X157090000Y-113138642D01*
X157055414Y-113312520D01*
X156987570Y-113476310D01*
X156889076Y-113623717D01*
X156763717Y-113749076D01*
X156616310Y-113847570D01*
X156616309Y-113847571D01*
X156616308Y-113847571D01*
X156452520Y-113915414D01*
X156278644Y-113950000D01*
X156101356Y-113950000D01*
X155927480Y-113915414D01*
X155763692Y-113847571D01*
X155763691Y-113847571D01*
X155763690Y-113847570D01*
X155616283Y-113749076D01*
X155490924Y-113623717D01*
X155392430Y-113476310D01*
X155324586Y-113312520D01*
X155290000Y-113138642D01*
X155290000Y-112961358D01*
X155324586Y-112787480D01*
X155392430Y-112623690D01*
X155490924Y-112476283D01*
X155616283Y-112350924D01*
X155763690Y-112252430D01*
X155927480Y-112184586D01*
X156101356Y-112150000D01*
X156278644Y-112150000D01*
X156452520Y-112184586D01*
G37*
G36*
X174232520Y-112184586D02*
G01*
X174396310Y-112252430D01*
X174543717Y-112350924D01*
X174669076Y-112476283D01*
X174767570Y-112623690D01*
X174835414Y-112787480D01*
X174870000Y-112961358D01*
X174870000Y-113138642D01*
X174835414Y-113312520D01*
X174767570Y-113476310D01*
X174669076Y-113623717D01*
X174543717Y-113749076D01*
X174396310Y-113847570D01*
X174396309Y-113847571D01*
X174396308Y-113847571D01*
X174232520Y-113915414D01*
X174058644Y-113950000D01*
X173881356Y-113950000D01*
X173707480Y-113915414D01*
X173543692Y-113847571D01*
X173543691Y-113847571D01*
X173543690Y-113847570D01*
X173396283Y-113749076D01*
X173270924Y-113623717D01*
X173172430Y-113476310D01*
X173104586Y-113312520D01*
X173070000Y-113138642D01*
X173070000Y-112961358D01*
X173104586Y-112787480D01*
X173172430Y-112623690D01*
X173270924Y-112476283D01*
X173396283Y-112350924D01*
X173543690Y-112252430D01*
X173707480Y-112184586D01*
X173881356Y-112150000D01*
X174058644Y-112150000D01*
X174232520Y-112184586D01*
G37*
G36*
X171692520Y-112184586D02*
G01*
X171856310Y-112252430D01*
X172003717Y-112350924D01*
X172129076Y-112476283D01*
X172227570Y-112623690D01*
X172295414Y-112787480D01*
X172330000Y-112961358D01*
X172330000Y-113138642D01*
X172295414Y-113312520D01*
X172227570Y-113476310D01*
X172129076Y-113623717D01*
X172003717Y-113749076D01*
X171856310Y-113847570D01*
X171856309Y-113847571D01*
X171856308Y-113847571D01*
X171692520Y-113915414D01*
X171518644Y-113950000D01*
X171341356Y-113950000D01*
X171167480Y-113915414D01*
X171003692Y-113847571D01*
X171003691Y-113847571D01*
X171003690Y-113847570D01*
X170856283Y-113749076D01*
X170730924Y-113623717D01*
X170632430Y-113476310D01*
X170564586Y-113312520D01*
X170530000Y-113138642D01*
X170530000Y-112961358D01*
X170564586Y-112787480D01*
X170632430Y-112623690D01*
X170730924Y-112476283D01*
X170856283Y-112350924D01*
X171003690Y-112252430D01*
X171167480Y-112184586D01*
X171341356Y-112150000D01*
X171518644Y-112150000D01*
X171692520Y-112184586D01*
G37*
G36*
X161532520Y-112184586D02*
G01*
X161696310Y-112252430D01*
X161843717Y-112350924D01*
X161969076Y-112476283D01*
X162067570Y-112623690D01*
X162135414Y-112787480D01*
X162170000Y-112961358D01*
X162170000Y-113138642D01*
X162135414Y-113312520D01*
X162067570Y-113476310D01*
X161969076Y-113623717D01*
X161843717Y-113749076D01*
X161696310Y-113847570D01*
X161696309Y-113847571D01*
X161696308Y-113847571D01*
X161532520Y-113915414D01*
X161358644Y-113950000D01*
X161181356Y-113950000D01*
X161007480Y-113915414D01*
X160843692Y-113847571D01*
X160843691Y-113847571D01*
X160843690Y-113847570D01*
X160696283Y-113749076D01*
X160570924Y-113623717D01*
X160472430Y-113476310D01*
X160404586Y-113312520D01*
X160370000Y-113138642D01*
X160370000Y-112961358D01*
X160404586Y-112787480D01*
X160472430Y-112623690D01*
X160570924Y-112476283D01*
X160696283Y-112350924D01*
X160843690Y-112252430D01*
X161007480Y-112184586D01*
X161181356Y-112150000D01*
X161358644Y-112150000D01*
X161532520Y-112184586D01*
G37*
G36*
X169152520Y-112184586D02*
G01*
X169316310Y-112252430D01*
X169463717Y-112350924D01*
X169589076Y-112476283D01*
X169687570Y-112623690D01*
X169755414Y-112787480D01*
X169790000Y-112961358D01*
X169790000Y-113138642D01*
X169755414Y-113312520D01*
X169687570Y-113476310D01*
X169589076Y-113623717D01*
X169463717Y-113749076D01*
X169316310Y-113847570D01*
X169316309Y-113847571D01*
X169316308Y-113847571D01*
X169152520Y-113915414D01*
X168978644Y-113950000D01*
X168801356Y-113950000D01*
X168627480Y-113915414D01*
X168463692Y-113847571D01*
X168463691Y-113847571D01*
X168463690Y-113847570D01*
X168316283Y-113749076D01*
X168190924Y-113623717D01*
X168092430Y-113476310D01*
X168024586Y-113312520D01*
X167990000Y-113138642D01*
X167990000Y-112961358D01*
X168024586Y-112787480D01*
X168092430Y-112623690D01*
X168190924Y-112476283D01*
X168316283Y-112350924D01*
X168463690Y-112252430D01*
X168627480Y-112184586D01*
X168801356Y-112150000D01*
X168978644Y-112150000D01*
X169152520Y-112184586D01*
G37*
G36*
X164072520Y-112184586D02*
G01*
X164236310Y-112252430D01*
X164383717Y-112350924D01*
X164509076Y-112476283D01*
X164607570Y-112623690D01*
X164675414Y-112787480D01*
X164710000Y-112961358D01*
X164710000Y-113138642D01*
X164675414Y-113312520D01*
X164607570Y-113476310D01*
X164509076Y-113623717D01*
X164383717Y-113749076D01*
X164236310Y-113847570D01*
X164236309Y-113847571D01*
X164236308Y-113847571D01*
X164072520Y-113915414D01*
X163898644Y-113950000D01*
X163721356Y-113950000D01*
X163547480Y-113915414D01*
X163383692Y-113847571D01*
X163383691Y-113847571D01*
X163383690Y-113847570D01*
X163236283Y-113749076D01*
X163110924Y-113623717D01*
X163012430Y-113476310D01*
X162944586Y-113312520D01*
X162910000Y-113138642D01*
X162910000Y-112961358D01*
X162944586Y-112787480D01*
X163012430Y-112623690D01*
X163110924Y-112476283D01*
X163236283Y-112350924D01*
X163383690Y-112252430D01*
X163547480Y-112184586D01*
X163721356Y-112150000D01*
X163898644Y-112150000D01*
X164072520Y-112184586D01*
G37*
G36*
X166612520Y-112184586D02*
G01*
X166776310Y-112252430D01*
X166923717Y-112350924D01*
X167049076Y-112476283D01*
X167147570Y-112623690D01*
X167215414Y-112787480D01*
X167250000Y-112961358D01*
X167250000Y-113138642D01*
X167215414Y-113312520D01*
X167147570Y-113476310D01*
X167049076Y-113623717D01*
X166923717Y-113749076D01*
X166776310Y-113847570D01*
X166776309Y-113847571D01*
X166776308Y-113847571D01*
X166612520Y-113915414D01*
X166438644Y-113950000D01*
X166261356Y-113950000D01*
X166087480Y-113915414D01*
X165923692Y-113847571D01*
X165923691Y-113847571D01*
X165923690Y-113847570D01*
X165776283Y-113749076D01*
X165650924Y-113623717D01*
X165552430Y-113476310D01*
X165484586Y-113312520D01*
X165450000Y-113138642D01*
X165450000Y-112961358D01*
X165484586Y-112787480D01*
X165552430Y-112623690D01*
X165650924Y-112476283D01*
X165776283Y-112350924D01*
X165923690Y-112252430D01*
X166087480Y-112184586D01*
X166261356Y-112150000D01*
X166438644Y-112150000D01*
X166612520Y-112184586D01*
G37*
G36*
X187683867Y-109204556D02*
G01*
X187722448Y-109216259D01*
X187758001Y-109235263D01*
X187789163Y-109260837D01*
X187814737Y-109291999D01*
X187833741Y-109327552D01*
X187845444Y-109366133D01*
X187850000Y-109412390D01*
X187850000Y-110062610D01*
X187845444Y-110108867D01*
X187833741Y-110147448D01*
X187814737Y-110183001D01*
X187789163Y-110214163D01*
X187758001Y-110239737D01*
X187722448Y-110258741D01*
X187683867Y-110270444D01*
X187637610Y-110275000D01*
X186562390Y-110275000D01*
X186516133Y-110270444D01*
X186477552Y-110258741D01*
X186441999Y-110239737D01*
X186410837Y-110214163D01*
X186385263Y-110183001D01*
X186366259Y-110147448D01*
X186354556Y-110108867D01*
X186350000Y-110062610D01*
X186350000Y-109412390D01*
X186354556Y-109366133D01*
X186366259Y-109327552D01*
X186385263Y-109291999D01*
X186410837Y-109260837D01*
X186441999Y-109235263D01*
X186477552Y-109216259D01*
X186516133Y-109204556D01*
X186562390Y-109200000D01*
X187637610Y-109200000D01*
X187683867Y-109204556D01*
G37*
G36*
X176383867Y-109204556D02*
G01*
X176422448Y-109216259D01*
X176458001Y-109235263D01*
X176489163Y-109260837D01*
X176514737Y-109291999D01*
X176533741Y-109327552D01*
X176545444Y-109366133D01*
X176550000Y-109412390D01*
X176550000Y-110062610D01*
X176545444Y-110108867D01*
X176533741Y-110147448D01*
X176514737Y-110183001D01*
X176489163Y-110214163D01*
X176458001Y-110239737D01*
X176422448Y-110258741D01*
X176383867Y-110270444D01*
X176337610Y-110275000D01*
X175262390Y-110275000D01*
X175216133Y-110270444D01*
X175177552Y-110258741D01*
X175141999Y-110239737D01*
X175110837Y-110214163D01*
X175085263Y-110183001D01*
X175066259Y-110147448D01*
X175054556Y-110108867D01*
X175050000Y-110062610D01*
X175050000Y-109412390D01*
X175054556Y-109366133D01*
X175066259Y-109327552D01*
X175085263Y-109291999D01*
X175110837Y-109260837D01*
X175141999Y-109235263D01*
X175177552Y-109216259D01*
X175216133Y-109204556D01*
X175262390Y-109200000D01*
X176337610Y-109200000D01*
X176383867Y-109204556D01*
G37*
G36*
X174483867Y-109204556D02*
G01*
X174522448Y-109216259D01*
X174558001Y-109235263D01*
X174589163Y-109260837D01*
X174614737Y-109291999D01*
X174633741Y-109327552D01*
X174645444Y-109366133D01*
X174650000Y-109412390D01*
X174650000Y-110062610D01*
X174645444Y-110108867D01*
X174633741Y-110147448D01*
X174614737Y-110183001D01*
X174589163Y-110214163D01*
X174558001Y-110239737D01*
X174522448Y-110258741D01*
X174483867Y-110270444D01*
X174437610Y-110275000D01*
X173362390Y-110275000D01*
X173316133Y-110270444D01*
X173277552Y-110258741D01*
X173241999Y-110239737D01*
X173210837Y-110214163D01*
X173185263Y-110183001D01*
X173166259Y-110147448D01*
X173154556Y-110108867D01*
X173150000Y-110062610D01*
X173150000Y-109412390D01*
X173154556Y-109366133D01*
X173166259Y-109327552D01*
X173185263Y-109291999D01*
X173210837Y-109260837D01*
X173241999Y-109235263D01*
X173277552Y-109216259D01*
X173316133Y-109204556D01*
X173362390Y-109200000D01*
X174437610Y-109200000D01*
X174483867Y-109204556D01*
G37*
G36*
X179709802Y-107525723D02*
G01*
X179719225Y-107528581D01*
X179719227Y-107528582D01*
X179727913Y-107533225D01*
X179727914Y-107533226D01*
X179727916Y-107533227D01*
X179735527Y-107539473D01*
X179741773Y-107547084D01*
X179746419Y-107555775D01*
X179749277Y-107565198D01*
X179750847Y-107581141D01*
X179750847Y-108718859D01*
X179750242Y-108725000D01*
X179749277Y-108734802D01*
X179746418Y-108744227D01*
X179741799Y-108752869D01*
X179741773Y-108752916D01*
X179735527Y-108760527D01*
X179723932Y-108770043D01*
X179712090Y-108777955D01*
X179694763Y-108795282D01*
X179681148Y-108815656D01*
X179671770Y-108838294D01*
X179666989Y-108862327D01*
X179666989Y-108886832D01*
X179671768Y-108910865D01*
X179681145Y-108933504D01*
X179694758Y-108953879D01*
X179712085Y-108971206D01*
X179722049Y-108978588D01*
X179723092Y-108979283D01*
X179735489Y-108989436D01*
X179741745Y-108997043D01*
X179743904Y-109001072D01*
X179746397Y-109005724D01*
X179747950Y-109010826D01*
X179749266Y-109015147D01*
X179750242Y-109025000D01*
X179750242Y-109025070D01*
X179750847Y-109031178D01*
X179750847Y-110018859D01*
X179749277Y-110034802D01*
X179746419Y-110044225D01*
X179741773Y-110052916D01*
X179735527Y-110060527D01*
X179727916Y-110066773D01*
X179727914Y-110066774D01*
X179727913Y-110066775D01*
X179719227Y-110071418D01*
X179719225Y-110071419D01*
X179709802Y-110074277D01*
X179693859Y-110075847D01*
X178206141Y-110075847D01*
X178190198Y-110074277D01*
X178180775Y-110071419D01*
X178180773Y-110071418D01*
X178172087Y-110066775D01*
X178172086Y-110066774D01*
X178172084Y-110066773D01*
X178164473Y-110060527D01*
X178158227Y-110052916D01*
X178153581Y-110044225D01*
X178150723Y-110034802D01*
X178149153Y-110018859D01*
X178149153Y-109031141D01*
X178150723Y-109015198D01*
X178153581Y-109005775D01*
X178158227Y-108997084D01*
X178164450Y-108989502D01*
X178164453Y-108989499D01*
X178164474Y-108989474D01*
X178172131Y-108983196D01*
X178172189Y-108983157D01*
X178176938Y-108979264D01*
X178177965Y-108978579D01*
X178196922Y-108963053D01*
X178212487Y-108944127D01*
X178224060Y-108922527D01*
X178231197Y-108899086D01*
X178233623Y-108874702D01*
X178231246Y-108850314D01*
X178224156Y-108826857D01*
X178212627Y-108805235D01*
X178197101Y-108786278D01*
X178181472Y-108774661D01*
X178181551Y-108774565D01*
X178164436Y-108760489D01*
X178158195Y-108752869D01*
X178153564Y-108744182D01*
X178153564Y-108744181D01*
X178153562Y-108744178D01*
X178150713Y-108734750D01*
X178150702Y-108734714D01*
X178149153Y-108718897D01*
X178149153Y-107581141D01*
X178150723Y-107565198D01*
X178153581Y-107555775D01*
X178158227Y-107547084D01*
X178164473Y-107539473D01*
X178172084Y-107533227D01*
X178172086Y-107533226D01*
X178172087Y-107533225D01*
X178180773Y-107528582D01*
X178180775Y-107528581D01*
X178190198Y-107525723D01*
X178206141Y-107524153D01*
X179693859Y-107524153D01*
X179709802Y-107525723D01*
G37*
G36*
X184809802Y-107525723D02*
G01*
X184819225Y-107528581D01*
X184819227Y-107528582D01*
X184827913Y-107533225D01*
X184827914Y-107533226D01*
X184827916Y-107533227D01*
X184835527Y-107539473D01*
X184841773Y-107547084D01*
X184846419Y-107555775D01*
X184849277Y-107565198D01*
X184850847Y-107581141D01*
X184850847Y-108718859D01*
X184850242Y-108725000D01*
X184849277Y-108734802D01*
X184846418Y-108744227D01*
X184841799Y-108752869D01*
X184841773Y-108752916D01*
X184835527Y-108760527D01*
X184823932Y-108770043D01*
X184812090Y-108777955D01*
X184794763Y-108795282D01*
X184781148Y-108815656D01*
X184771770Y-108838294D01*
X184766989Y-108862327D01*
X184766989Y-108886832D01*
X184771768Y-108910865D01*
X184781145Y-108933504D01*
X184794758Y-108953879D01*
X184812085Y-108971206D01*
X184822049Y-108978588D01*
X184823092Y-108979283D01*
X184835489Y-108989436D01*
X184841745Y-108997043D01*
X184843904Y-109001072D01*
X184846397Y-109005724D01*
X184847950Y-109010826D01*
X184849266Y-109015147D01*
X184850242Y-109025000D01*
X184850242Y-109025070D01*
X184850847Y-109031178D01*
X184850847Y-110018859D01*
X184849277Y-110034802D01*
X184846419Y-110044225D01*
X184841773Y-110052916D01*
X184835527Y-110060527D01*
X184827916Y-110066773D01*
X184827914Y-110066774D01*
X184827913Y-110066775D01*
X184819227Y-110071418D01*
X184819225Y-110071419D01*
X184809802Y-110074277D01*
X184793859Y-110075847D01*
X183306141Y-110075847D01*
X183290198Y-110074277D01*
X183280775Y-110071419D01*
X183280773Y-110071418D01*
X183272087Y-110066775D01*
X183272086Y-110066774D01*
X183272084Y-110066773D01*
X183264473Y-110060527D01*
X183258227Y-110052916D01*
X183253581Y-110044225D01*
X183250723Y-110034802D01*
X183249153Y-110018859D01*
X183249153Y-109031141D01*
X183250723Y-109015198D01*
X183253581Y-109005775D01*
X183258227Y-108997084D01*
X183264450Y-108989502D01*
X183264453Y-108989499D01*
X183264474Y-108989474D01*
X183272131Y-108983196D01*
X183272189Y-108983157D01*
X183276938Y-108979264D01*
X183277965Y-108978579D01*
X183296922Y-108963053D01*
X183312487Y-108944127D01*
X183324060Y-108922527D01*
X183331197Y-108899086D01*
X183333623Y-108874702D01*
X183331246Y-108850314D01*
X183324156Y-108826857D01*
X183312627Y-108805235D01*
X183297101Y-108786278D01*
X183281472Y-108774661D01*
X183281551Y-108774565D01*
X183264436Y-108760489D01*
X183258195Y-108752869D01*
X183253564Y-108744182D01*
X183253564Y-108744181D01*
X183253562Y-108744178D01*
X183250713Y-108734750D01*
X183250702Y-108734714D01*
X183249153Y-108718897D01*
X183249153Y-107581141D01*
X183250723Y-107565198D01*
X183253581Y-107555775D01*
X183258227Y-107547084D01*
X183264473Y-107539473D01*
X183272084Y-107533227D01*
X183272086Y-107533226D01*
X183272087Y-107533225D01*
X183280773Y-107528582D01*
X183280775Y-107528581D01*
X183290198Y-107525723D01*
X183306141Y-107524153D01*
X184793859Y-107524153D01*
X184809802Y-107525723D01*
G37*
G36*
X182259802Y-107525723D02*
G01*
X182269225Y-107528581D01*
X182269227Y-107528582D01*
X182277913Y-107533225D01*
X182277914Y-107533226D01*
X182277916Y-107533227D01*
X182285527Y-107539473D01*
X182291773Y-107547084D01*
X182296419Y-107555775D01*
X182299277Y-107565198D01*
X182300847Y-107581141D01*
X182300847Y-108718859D01*
X182300242Y-108725000D01*
X182299277Y-108734802D01*
X182296418Y-108744227D01*
X182291799Y-108752869D01*
X182291773Y-108752916D01*
X182285527Y-108760527D01*
X182273932Y-108770043D01*
X182262090Y-108777955D01*
X182244763Y-108795282D01*
X182231148Y-108815656D01*
X182221770Y-108838294D01*
X182216989Y-108862327D01*
X182216989Y-108886832D01*
X182221768Y-108910865D01*
X182231145Y-108933504D01*
X182244758Y-108953879D01*
X182262085Y-108971206D01*
X182272049Y-108978588D01*
X182273092Y-108979283D01*
X182285489Y-108989436D01*
X182291745Y-108997043D01*
X182293904Y-109001072D01*
X182296397Y-109005724D01*
X182297950Y-109010826D01*
X182299266Y-109015147D01*
X182300242Y-109025000D01*
X182300242Y-109025070D01*
X182300847Y-109031178D01*
X182300847Y-110018859D01*
X182299277Y-110034802D01*
X182296419Y-110044225D01*
X182291773Y-110052916D01*
X182285527Y-110060527D01*
X182277916Y-110066773D01*
X182277914Y-110066774D01*
X182277913Y-110066775D01*
X182269227Y-110071418D01*
X182269225Y-110071419D01*
X182259802Y-110074277D01*
X182243859Y-110075847D01*
X180756141Y-110075847D01*
X180740198Y-110074277D01*
X180730775Y-110071419D01*
X180730773Y-110071418D01*
X180722087Y-110066775D01*
X180722086Y-110066774D01*
X180722084Y-110066773D01*
X180714473Y-110060527D01*
X180708227Y-110052916D01*
X180703581Y-110044225D01*
X180700723Y-110034802D01*
X180699153Y-110018859D01*
X180699153Y-109031141D01*
X180700723Y-109015198D01*
X180703581Y-109005775D01*
X180708227Y-108997084D01*
X180714450Y-108989502D01*
X180714453Y-108989499D01*
X180714474Y-108989474D01*
X180722131Y-108983196D01*
X180722189Y-108983157D01*
X180726938Y-108979264D01*
X180727965Y-108978579D01*
X180746922Y-108963053D01*
X180762487Y-108944127D01*
X180774060Y-108922527D01*
X180781197Y-108899086D01*
X180783623Y-108874702D01*
X180781246Y-108850314D01*
X180774156Y-108826857D01*
X180762627Y-108805235D01*
X180747101Y-108786278D01*
X180731472Y-108774661D01*
X180731551Y-108774565D01*
X180714436Y-108760489D01*
X180708195Y-108752869D01*
X180703564Y-108744182D01*
X180703564Y-108744181D01*
X180703562Y-108744178D01*
X180700713Y-108734750D01*
X180700702Y-108734714D01*
X180699153Y-108718897D01*
X180699153Y-107581141D01*
X180700723Y-107565198D01*
X180703581Y-107555775D01*
X180708227Y-107547084D01*
X180714473Y-107539473D01*
X180722084Y-107533227D01*
X180722086Y-107533226D01*
X180722087Y-107533225D01*
X180730773Y-107528582D01*
X180730775Y-107528581D01*
X180740198Y-107525723D01*
X180756141Y-107524153D01*
X182243859Y-107524153D01*
X182259802Y-107525723D01*
G37*
G36*
X174483867Y-107329556D02*
G01*
X174522448Y-107341259D01*
X174558001Y-107360263D01*
X174589163Y-107385837D01*
X174614737Y-107416999D01*
X174633741Y-107452552D01*
X174645444Y-107491133D01*
X174650000Y-107537390D01*
X174650000Y-108187610D01*
X174645444Y-108233867D01*
X174633741Y-108272448D01*
X174614737Y-108308001D01*
X174589163Y-108339163D01*
X174558001Y-108364737D01*
X174522448Y-108383741D01*
X174483867Y-108395444D01*
X174437610Y-108400000D01*
X173362390Y-108400000D01*
X173316133Y-108395444D01*
X173277552Y-108383741D01*
X173241999Y-108364737D01*
X173210837Y-108339163D01*
X173185263Y-108308001D01*
X173166259Y-108272448D01*
X173154556Y-108233867D01*
X173150000Y-108187610D01*
X173150000Y-107537390D01*
X173154556Y-107491133D01*
X173166259Y-107452552D01*
X173185263Y-107416999D01*
X173210837Y-107385837D01*
X173241999Y-107360263D01*
X173277552Y-107341259D01*
X173316133Y-107329556D01*
X173362390Y-107325000D01*
X174437610Y-107325000D01*
X174483867Y-107329556D01*
G37*
G36*
X176383867Y-107329556D02*
G01*
X176422448Y-107341259D01*
X176458001Y-107360263D01*
X176489163Y-107385837D01*
X176514737Y-107416999D01*
X176533741Y-107452552D01*
X176545444Y-107491133D01*
X176550000Y-107537390D01*
X176550000Y-108187610D01*
X176545444Y-108233867D01*
X176533741Y-108272448D01*
X176514737Y-108308001D01*
X176489163Y-108339163D01*
X176458001Y-108364737D01*
X176422448Y-108383741D01*
X176383867Y-108395444D01*
X176337610Y-108400000D01*
X175262390Y-108400000D01*
X175216133Y-108395444D01*
X175177552Y-108383741D01*
X175141999Y-108364737D01*
X175110837Y-108339163D01*
X175085263Y-108308001D01*
X175066259Y-108272448D01*
X175054556Y-108233867D01*
X175050000Y-108187610D01*
X175050000Y-107537390D01*
X175054556Y-107491133D01*
X175066259Y-107452552D01*
X175085263Y-107416999D01*
X175110837Y-107385837D01*
X175141999Y-107360263D01*
X175177552Y-107341259D01*
X175216133Y-107329556D01*
X175262390Y-107325000D01*
X176337610Y-107325000D01*
X176383867Y-107329556D01*
G37*
G36*
X187683867Y-107329556D02*
G01*
X187722448Y-107341259D01*
X187758001Y-107360263D01*
X187789163Y-107385837D01*
X187814737Y-107416999D01*
X187833741Y-107452552D01*
X187845444Y-107491133D01*
X187850000Y-107537390D01*
X187850000Y-108187610D01*
X187845444Y-108233867D01*
X187833741Y-108272448D01*
X187814737Y-108308001D01*
X187789163Y-108339163D01*
X187758001Y-108364737D01*
X187722448Y-108383741D01*
X187683867Y-108395444D01*
X187637610Y-108400000D01*
X186562390Y-108400000D01*
X186516133Y-108395444D01*
X186477552Y-108383741D01*
X186441999Y-108364737D01*
X186410837Y-108339163D01*
X186385263Y-108308001D01*
X186366259Y-108272448D01*
X186354556Y-108233867D01*
X186350000Y-108187610D01*
X186350000Y-107537390D01*
X186354556Y-107491133D01*
X186366259Y-107452552D01*
X186385263Y-107416999D01*
X186410837Y-107385837D01*
X186441999Y-107360263D01*
X186477552Y-107341259D01*
X186516133Y-107329556D01*
X186562390Y-107325000D01*
X187637610Y-107325000D01*
X187683867Y-107329556D01*
G37*
G36*
X191228991Y-105979075D02*
G01*
X191262879Y-105989355D01*
X191294112Y-106006050D01*
X191321486Y-106028514D01*
X191343950Y-106055888D01*
X191360645Y-106087121D01*
X191370925Y-106121009D01*
X191375000Y-106162388D01*
X191375000Y-106837612D01*
X191370925Y-106878991D01*
X191360645Y-106912879D01*
X191343950Y-106944112D01*
X191321486Y-106971486D01*
X191294112Y-106993950D01*
X191262879Y-107010645D01*
X191228991Y-107020925D01*
X191187612Y-107025000D01*
X190587388Y-107025000D01*
X190546009Y-107020925D01*
X190512121Y-107010645D01*
X190480888Y-106993950D01*
X190453514Y-106971486D01*
X190431050Y-106944112D01*
X190414355Y-106912879D01*
X190404075Y-106878991D01*
X190400000Y-106837612D01*
X190400000Y-106162388D01*
X190404075Y-106121009D01*
X190414355Y-106087121D01*
X190431050Y-106055888D01*
X190453514Y-106028514D01*
X190480888Y-106006050D01*
X190512121Y-105989355D01*
X190546009Y-105979075D01*
X190587388Y-105975000D01*
X191187612Y-105975000D01*
X191228991Y-105979075D01*
G37*
G36*
X166428991Y-106054075D02*
G01*
X166462879Y-106064355D01*
X166494112Y-106081050D01*
X166521486Y-106103514D01*
X166543950Y-106130888D01*
X166560645Y-106162121D01*
X166570925Y-106196009D01*
X166575000Y-106237388D01*
X166575000Y-106837612D01*
X166570925Y-106878991D01*
X166560645Y-106912879D01*
X166543950Y-106944112D01*
X166521486Y-106971486D01*
X166494112Y-106993950D01*
X166462879Y-107010645D01*
X166428991Y-107020925D01*
X166387612Y-107025000D01*
X165712388Y-107025000D01*
X165671009Y-107020925D01*
X165637121Y-107010645D01*
X165605888Y-106993950D01*
X165578514Y-106971486D01*
X165556050Y-106944112D01*
X165539355Y-106912879D01*
X165529075Y-106878991D01*
X165525000Y-106837612D01*
X165525000Y-106237388D01*
X165529075Y-106196009D01*
X165539355Y-106162121D01*
X165556050Y-106130888D01*
X165578514Y-106103514D01*
X165605888Y-106081050D01*
X165637121Y-106064355D01*
X165671009Y-106054075D01*
X165712388Y-106050000D01*
X166387612Y-106050000D01*
X166428991Y-106054075D01*
G37*
G36*
X167928991Y-106054075D02*
G01*
X167962879Y-106064355D01*
X167994112Y-106081050D01*
X168021486Y-106103514D01*
X168043950Y-106130888D01*
X168060645Y-106162121D01*
X168070925Y-106196009D01*
X168075000Y-106237388D01*
X168075000Y-106837612D01*
X168070925Y-106878991D01*
X168060645Y-106912879D01*
X168043950Y-106944112D01*
X168021486Y-106971486D01*
X167994112Y-106993950D01*
X167962879Y-107010645D01*
X167928991Y-107020925D01*
X167887612Y-107025000D01*
X167212388Y-107025000D01*
X167171009Y-107020925D01*
X167137121Y-107010645D01*
X167105888Y-106993950D01*
X167078514Y-106971486D01*
X167056050Y-106944112D01*
X167039355Y-106912879D01*
X167029075Y-106878991D01*
X167025000Y-106837612D01*
X167025000Y-106237388D01*
X167029075Y-106196009D01*
X167039355Y-106162121D01*
X167056050Y-106130888D01*
X167078514Y-106103514D01*
X167105888Y-106081050D01*
X167137121Y-106064355D01*
X167171009Y-106054075D01*
X167212388Y-106050000D01*
X167887612Y-106050000D01*
X167928991Y-106054075D01*
G37*
G36*
X189653991Y-105979075D02*
G01*
X189687879Y-105989355D01*
X189719112Y-106006050D01*
X189746486Y-106028514D01*
X189768950Y-106055888D01*
X189785645Y-106087121D01*
X189795925Y-106121009D01*
X189800000Y-106162388D01*
X189800000Y-106837612D01*
X189795925Y-106878991D01*
X189785645Y-106912879D01*
X189768950Y-106944112D01*
X189746486Y-106971486D01*
X189719112Y-106993950D01*
X189687879Y-107010645D01*
X189653991Y-107020925D01*
X189612612Y-107025000D01*
X189012388Y-107025000D01*
X188971009Y-107020925D01*
X188937121Y-107010645D01*
X188905888Y-106993950D01*
X188878514Y-106971486D01*
X188856050Y-106944112D01*
X188839355Y-106912879D01*
X188829075Y-106878991D01*
X188825000Y-106837612D01*
X188825000Y-106162388D01*
X188829075Y-106121009D01*
X188839355Y-106087121D01*
X188856050Y-106055888D01*
X188878514Y-106028514D01*
X188905888Y-106006050D01*
X188937121Y-105989355D01*
X188971009Y-105979075D01*
X189012388Y-105975000D01*
X189612612Y-105975000D01*
X189653991Y-105979075D01*
G37*
G36*
X154428991Y-106054075D02*
G01*
X154462879Y-106064355D01*
X154494112Y-106081050D01*
X154521486Y-106103514D01*
X154543950Y-106130888D01*
X154560645Y-106162121D01*
X154570925Y-106196009D01*
X154575000Y-106237388D01*
X154575000Y-106837612D01*
X154570925Y-106878991D01*
X154560645Y-106912879D01*
X154543950Y-106944112D01*
X154521486Y-106971486D01*
X154494112Y-106993950D01*
X154462879Y-107010645D01*
X154428991Y-107020925D01*
X154387612Y-107025000D01*
X153712388Y-107025000D01*
X153671009Y-107020925D01*
X153637121Y-107010645D01*
X153605888Y-106993950D01*
X153578514Y-106971486D01*
X153556050Y-106944112D01*
X153539355Y-106912879D01*
X153529075Y-106878991D01*
X153525000Y-106837612D01*
X153525000Y-106237388D01*
X153529075Y-106196009D01*
X153539355Y-106162121D01*
X153556050Y-106130888D01*
X153578514Y-106103514D01*
X153605888Y-106081050D01*
X153637121Y-106064355D01*
X153671009Y-106054075D01*
X153712388Y-106050000D01*
X154387612Y-106050000D01*
X154428991Y-106054075D01*
G37*
G36*
X158928991Y-106054075D02*
G01*
X158962879Y-106064355D01*
X158994112Y-106081050D01*
X159021486Y-106103514D01*
X159043950Y-106130888D01*
X159060645Y-106162121D01*
X159070925Y-106196009D01*
X159075000Y-106237388D01*
X159075000Y-106837612D01*
X159070925Y-106878991D01*
X159060645Y-106912879D01*
X159043950Y-106944112D01*
X159021486Y-106971486D01*
X158994112Y-106993950D01*
X158962879Y-107010645D01*
X158928991Y-107020925D01*
X158887612Y-107025000D01*
X158212388Y-107025000D01*
X158171009Y-107020925D01*
X158137121Y-107010645D01*
X158105888Y-106993950D01*
X158078514Y-106971486D01*
X158056050Y-106944112D01*
X158039355Y-106912879D01*
X158029075Y-106878991D01*
X158025000Y-106837612D01*
X158025000Y-106237388D01*
X158029075Y-106196009D01*
X158039355Y-106162121D01*
X158056050Y-106130888D01*
X158078514Y-106103514D01*
X158105888Y-106081050D01*
X158137121Y-106064355D01*
X158171009Y-106054075D01*
X158212388Y-106050000D01*
X158887612Y-106050000D01*
X158928991Y-106054075D01*
G37*
G36*
X160428991Y-106054075D02*
G01*
X160462879Y-106064355D01*
X160494112Y-106081050D01*
X160521486Y-106103514D01*
X160543950Y-106130888D01*
X160560645Y-106162121D01*
X160570925Y-106196009D01*
X160575000Y-106237388D01*
X160575000Y-106837612D01*
X160570925Y-106878991D01*
X160560645Y-106912879D01*
X160543950Y-106944112D01*
X160521486Y-106971486D01*
X160494112Y-106993950D01*
X160462879Y-107010645D01*
X160428991Y-107020925D01*
X160387612Y-107025000D01*
X159712388Y-107025000D01*
X159671009Y-107020925D01*
X159637121Y-107010645D01*
X159605888Y-106993950D01*
X159578514Y-106971486D01*
X159556050Y-106944112D01*
X159539355Y-106912879D01*
X159529075Y-106878991D01*
X159525000Y-106837612D01*
X159525000Y-106237388D01*
X159529075Y-106196009D01*
X159539355Y-106162121D01*
X159556050Y-106130888D01*
X159578514Y-106103514D01*
X159605888Y-106081050D01*
X159637121Y-106064355D01*
X159671009Y-106054075D01*
X159712388Y-106050000D01*
X160387612Y-106050000D01*
X160428991Y-106054075D01*
G37*
G36*
X161928991Y-106054075D02*
G01*
X161962879Y-106064355D01*
X161994112Y-106081050D01*
X162021486Y-106103514D01*
X162043950Y-106130888D01*
X162060645Y-106162121D01*
X162070925Y-106196009D01*
X162075000Y-106237388D01*
X162075000Y-106837612D01*
X162070925Y-106878991D01*
X162060645Y-106912879D01*
X162043950Y-106944112D01*
X162021486Y-106971486D01*
X161994112Y-106993950D01*
X161962879Y-107010645D01*
X161928991Y-107020925D01*
X161887612Y-107025000D01*
X161212388Y-107025000D01*
X161171009Y-107020925D01*
X161137121Y-107010645D01*
X161105888Y-106993950D01*
X161078514Y-106971486D01*
X161056050Y-106944112D01*
X161039355Y-106912879D01*
X161029075Y-106878991D01*
X161025000Y-106837612D01*
X161025000Y-106237388D01*
X161029075Y-106196009D01*
X161039355Y-106162121D01*
X161056050Y-106130888D01*
X161078514Y-106103514D01*
X161105888Y-106081050D01*
X161137121Y-106064355D01*
X161171009Y-106054075D01*
X161212388Y-106050000D01*
X161887612Y-106050000D01*
X161928991Y-106054075D01*
G37*
G36*
X163428991Y-106054075D02*
G01*
X163462879Y-106064355D01*
X163494112Y-106081050D01*
X163521486Y-106103514D01*
X163543950Y-106130888D01*
X163560645Y-106162121D01*
X163570925Y-106196009D01*
X163575000Y-106237388D01*
X163575000Y-106837612D01*
X163570925Y-106878991D01*
X163560645Y-106912879D01*
X163543950Y-106944112D01*
X163521486Y-106971486D01*
X163494112Y-106993950D01*
X163462879Y-107010645D01*
X163428991Y-107020925D01*
X163387612Y-107025000D01*
X162712388Y-107025000D01*
X162671009Y-107020925D01*
X162637121Y-107010645D01*
X162605888Y-106993950D01*
X162578514Y-106971486D01*
X162556050Y-106944112D01*
X162539355Y-106912879D01*
X162529075Y-106878991D01*
X162525000Y-106837612D01*
X162525000Y-106237388D01*
X162529075Y-106196009D01*
X162539355Y-106162121D01*
X162556050Y-106130888D01*
X162578514Y-106103514D01*
X162605888Y-106081050D01*
X162637121Y-106064355D01*
X162671009Y-106054075D01*
X162712388Y-106050000D01*
X163387612Y-106050000D01*
X163428991Y-106054075D01*
G37*
G36*
X164928991Y-106054075D02*
G01*
X164962879Y-106064355D01*
X164994112Y-106081050D01*
X165021486Y-106103514D01*
X165043950Y-106130888D01*
X165060645Y-106162121D01*
X165070925Y-106196009D01*
X165075000Y-106237388D01*
X165075000Y-106837612D01*
X165070925Y-106878991D01*
X165060645Y-106912879D01*
X165043950Y-106944112D01*
X165021486Y-106971486D01*
X164994112Y-106993950D01*
X164962879Y-107010645D01*
X164928991Y-107020925D01*
X164887612Y-107025000D01*
X164212388Y-107025000D01*
X164171009Y-107020925D01*
X164137121Y-107010645D01*
X164105888Y-106993950D01*
X164078514Y-106971486D01*
X164056050Y-106944112D01*
X164039355Y-106912879D01*
X164029075Y-106878991D01*
X164025000Y-106837612D01*
X164025000Y-106237388D01*
X164029075Y-106196009D01*
X164039355Y-106162121D01*
X164056050Y-106130888D01*
X164078514Y-106103514D01*
X164105888Y-106081050D01*
X164137121Y-106064355D01*
X164171009Y-106054075D01*
X164212388Y-106050000D01*
X164887612Y-106050000D01*
X164928991Y-106054075D01*
G37*
G36*
X189653991Y-104479075D02*
G01*
X189687879Y-104489355D01*
X189719112Y-104506050D01*
X189746486Y-104528514D01*
X189768950Y-104555888D01*
X189785645Y-104587121D01*
X189795925Y-104621009D01*
X189800000Y-104662388D01*
X189800000Y-105337612D01*
X189795925Y-105378991D01*
X189785645Y-105412879D01*
X189768950Y-105444112D01*
X189746486Y-105471486D01*
X189719112Y-105493950D01*
X189687879Y-105510645D01*
X189653991Y-105520925D01*
X189612612Y-105525000D01*
X189012388Y-105525000D01*
X188971009Y-105520925D01*
X188937121Y-105510645D01*
X188905888Y-105493950D01*
X188878514Y-105471486D01*
X188856050Y-105444112D01*
X188839355Y-105412879D01*
X188829075Y-105378991D01*
X188825000Y-105337612D01*
X188825000Y-104662388D01*
X188829075Y-104621009D01*
X188839355Y-104587121D01*
X188856050Y-104555888D01*
X188878514Y-104528514D01*
X188905888Y-104506050D01*
X188937121Y-104489355D01*
X188971009Y-104479075D01*
X189012388Y-104475000D01*
X189612612Y-104475000D01*
X189653991Y-104479075D01*
G37*
G36*
X191228991Y-104479075D02*
G01*
X191262879Y-104489355D01*
X191294112Y-104506050D01*
X191321486Y-104528514D01*
X191343950Y-104555888D01*
X191360645Y-104587121D01*
X191370925Y-104621009D01*
X191375000Y-104662388D01*
X191375000Y-105337612D01*
X191370925Y-105378991D01*
X191360645Y-105412879D01*
X191343950Y-105444112D01*
X191321486Y-105471486D01*
X191294112Y-105493950D01*
X191262879Y-105510645D01*
X191228991Y-105520925D01*
X191187612Y-105525000D01*
X190587388Y-105525000D01*
X190546009Y-105520925D01*
X190512121Y-105510645D01*
X190480888Y-105493950D01*
X190453514Y-105471486D01*
X190431050Y-105444112D01*
X190414355Y-105412879D01*
X190404075Y-105378991D01*
X190400000Y-105337612D01*
X190400000Y-104662388D01*
X190404075Y-104621009D01*
X190414355Y-104587121D01*
X190431050Y-104555888D01*
X190453514Y-104528514D01*
X190480888Y-104506050D01*
X190512121Y-104489355D01*
X190546009Y-104479075D01*
X190587388Y-104475000D01*
X191187612Y-104475000D01*
X191228991Y-104479075D01*
G37*
G36*
X158928991Y-104479075D02*
G01*
X158962879Y-104489355D01*
X158994112Y-104506050D01*
X159021486Y-104528514D01*
X159043950Y-104555888D01*
X159060645Y-104587121D01*
X159070925Y-104621009D01*
X159075000Y-104662388D01*
X159075000Y-105262612D01*
X159070925Y-105303991D01*
X159060645Y-105337879D01*
X159043950Y-105369112D01*
X159021486Y-105396486D01*
X158994112Y-105418950D01*
X158962879Y-105435645D01*
X158928991Y-105445925D01*
X158887612Y-105450000D01*
X158212388Y-105450000D01*
X158171009Y-105445925D01*
X158137121Y-105435645D01*
X158105888Y-105418950D01*
X158078514Y-105396486D01*
X158056050Y-105369112D01*
X158039355Y-105337879D01*
X158029075Y-105303991D01*
X158025000Y-105262612D01*
X158025000Y-104662388D01*
X158029075Y-104621009D01*
X158039355Y-104587121D01*
X158056050Y-104555888D01*
X158078514Y-104528514D01*
X158105888Y-104506050D01*
X158137121Y-104489355D01*
X158171009Y-104479075D01*
X158212388Y-104475000D01*
X158887612Y-104475000D01*
X158928991Y-104479075D01*
G37*
G36*
X164928991Y-104479075D02*
G01*
X164962879Y-104489355D01*
X164994112Y-104506050D01*
X165021486Y-104528514D01*
X165043950Y-104555888D01*
X165060645Y-104587121D01*
X165070925Y-104621009D01*
X165075000Y-104662388D01*
X165075000Y-105262612D01*
X165070925Y-105303991D01*
X165060645Y-105337879D01*
X165043950Y-105369112D01*
X165021486Y-105396486D01*
X164994112Y-105418950D01*
X164962879Y-105435645D01*
X164928991Y-105445925D01*
X164887612Y-105450000D01*
X164212388Y-105450000D01*
X164171009Y-105445925D01*
X164137121Y-105435645D01*
X164105888Y-105418950D01*
X164078514Y-105396486D01*
X164056050Y-105369112D01*
X164039355Y-105337879D01*
X164029075Y-105303991D01*
X164025000Y-105262612D01*
X164025000Y-104662388D01*
X164029075Y-104621009D01*
X164039355Y-104587121D01*
X164056050Y-104555888D01*
X164078514Y-104528514D01*
X164105888Y-104506050D01*
X164137121Y-104489355D01*
X164171009Y-104479075D01*
X164212388Y-104475000D01*
X164887612Y-104475000D01*
X164928991Y-104479075D01*
G37*
G36*
X154428991Y-104479075D02*
G01*
X154462879Y-104489355D01*
X154494112Y-104506050D01*
X154521486Y-104528514D01*
X154543950Y-104555888D01*
X154560645Y-104587121D01*
X154570925Y-104621009D01*
X154575000Y-104662388D01*
X154575000Y-105262612D01*
X154570925Y-105303991D01*
X154560645Y-105337879D01*
X154543950Y-105369112D01*
X154521486Y-105396486D01*
X154494112Y-105418950D01*
X154462879Y-105435645D01*
X154428991Y-105445925D01*
X154387612Y-105450000D01*
X153712388Y-105450000D01*
X153671009Y-105445925D01*
X153637121Y-105435645D01*
X153605888Y-105418950D01*
X153578514Y-105396486D01*
X153556050Y-105369112D01*
X153539355Y-105337879D01*
X153529075Y-105303991D01*
X153525000Y-105262612D01*
X153525000Y-104662388D01*
X153529075Y-104621009D01*
X153539355Y-104587121D01*
X153556050Y-104555888D01*
X153578514Y-104528514D01*
X153605888Y-104506050D01*
X153637121Y-104489355D01*
X153671009Y-104479075D01*
X153712388Y-104475000D01*
X154387612Y-104475000D01*
X154428991Y-104479075D01*
G37*
G36*
X166428991Y-104479075D02*
G01*
X166462879Y-104489355D01*
X166494112Y-104506050D01*
X166521486Y-104528514D01*
X166543950Y-104555888D01*
X166560645Y-104587121D01*
X166570925Y-104621009D01*
X166575000Y-104662388D01*
X166575000Y-105262612D01*
X166570925Y-105303991D01*
X166560645Y-105337879D01*
X166543950Y-105369112D01*
X166521486Y-105396486D01*
X166494112Y-105418950D01*
X166462879Y-105435645D01*
X166428991Y-105445925D01*
X166387612Y-105450000D01*
X165712388Y-105450000D01*
X165671009Y-105445925D01*
X165637121Y-105435645D01*
X165605888Y-105418950D01*
X165578514Y-105396486D01*
X165556050Y-105369112D01*
X165539355Y-105337879D01*
X165529075Y-105303991D01*
X165525000Y-105262612D01*
X165525000Y-104662388D01*
X165529075Y-104621009D01*
X165539355Y-104587121D01*
X165556050Y-104555888D01*
X165578514Y-104528514D01*
X165605888Y-104506050D01*
X165637121Y-104489355D01*
X165671009Y-104479075D01*
X165712388Y-104475000D01*
X166387612Y-104475000D01*
X166428991Y-104479075D01*
G37*
G36*
X160428991Y-104479075D02*
G01*
X160462879Y-104489355D01*
X160494112Y-104506050D01*
X160521486Y-104528514D01*
X160543950Y-104555888D01*
X160560645Y-104587121D01*
X160570925Y-104621009D01*
X160575000Y-104662388D01*
X160575000Y-105262612D01*
X160570925Y-105303991D01*
X160560645Y-105337879D01*
X160543950Y-105369112D01*
X160521486Y-105396486D01*
X160494112Y-105418950D01*
X160462879Y-105435645D01*
X160428991Y-105445925D01*
X160387612Y-105450000D01*
X159712388Y-105450000D01*
X159671009Y-105445925D01*
X159637121Y-105435645D01*
X159605888Y-105418950D01*
X159578514Y-105396486D01*
X159556050Y-105369112D01*
X159539355Y-105337879D01*
X159529075Y-105303991D01*
X159525000Y-105262612D01*
X159525000Y-104662388D01*
X159529075Y-104621009D01*
X159539355Y-104587121D01*
X159556050Y-104555888D01*
X159578514Y-104528514D01*
X159605888Y-104506050D01*
X159637121Y-104489355D01*
X159671009Y-104479075D01*
X159712388Y-104475000D01*
X160387612Y-104475000D01*
X160428991Y-104479075D01*
G37*
G36*
X161928991Y-104479075D02*
G01*
X161962879Y-104489355D01*
X161994112Y-104506050D01*
X162021486Y-104528514D01*
X162043950Y-104555888D01*
X162060645Y-104587121D01*
X162070925Y-104621009D01*
X162075000Y-104662388D01*
X162075000Y-105262612D01*
X162070925Y-105303991D01*
X162060645Y-105337879D01*
X162043950Y-105369112D01*
X162021486Y-105396486D01*
X161994112Y-105418950D01*
X161962879Y-105435645D01*
X161928991Y-105445925D01*
X161887612Y-105450000D01*
X161212388Y-105450000D01*
X161171009Y-105445925D01*
X161137121Y-105435645D01*
X161105888Y-105418950D01*
X161078514Y-105396486D01*
X161056050Y-105369112D01*
X161039355Y-105337879D01*
X161029075Y-105303991D01*
X161025000Y-105262612D01*
X161025000Y-104662388D01*
X161029075Y-104621009D01*
X161039355Y-104587121D01*
X161056050Y-104555888D01*
X161078514Y-104528514D01*
X161105888Y-104506050D01*
X161137121Y-104489355D01*
X161171009Y-104479075D01*
X161212388Y-104475000D01*
X161887612Y-104475000D01*
X161928991Y-104479075D01*
G37*
G36*
X163428991Y-104479075D02*
G01*
X163462879Y-104489355D01*
X163494112Y-104506050D01*
X163521486Y-104528514D01*
X163543950Y-104555888D01*
X163560645Y-104587121D01*
X163570925Y-104621009D01*
X163575000Y-104662388D01*
X163575000Y-105262612D01*
X163570925Y-105303991D01*
X163560645Y-105337879D01*
X163543950Y-105369112D01*
X163521486Y-105396486D01*
X163494112Y-105418950D01*
X163462879Y-105435645D01*
X163428991Y-105445925D01*
X163387612Y-105450000D01*
X162712388Y-105450000D01*
X162671009Y-105445925D01*
X162637121Y-105435645D01*
X162605888Y-105418950D01*
X162578514Y-105396486D01*
X162556050Y-105369112D01*
X162539355Y-105337879D01*
X162529075Y-105303991D01*
X162525000Y-105262612D01*
X162525000Y-104662388D01*
X162529075Y-104621009D01*
X162539355Y-104587121D01*
X162556050Y-104555888D01*
X162578514Y-104528514D01*
X162605888Y-104506050D01*
X162637121Y-104489355D01*
X162671009Y-104479075D01*
X162712388Y-104475000D01*
X163387612Y-104475000D01*
X163428991Y-104479075D01*
G37*
G36*
X167928991Y-104479075D02*
G01*
X167962879Y-104489355D01*
X167994112Y-104506050D01*
X168021486Y-104528514D01*
X168043950Y-104555888D01*
X168060645Y-104587121D01*
X168070925Y-104621009D01*
X168075000Y-104662388D01*
X168075000Y-105262612D01*
X168070925Y-105303991D01*
X168060645Y-105337879D01*
X168043950Y-105369112D01*
X168021486Y-105396486D01*
X167994112Y-105418950D01*
X167962879Y-105435645D01*
X167928991Y-105445925D01*
X167887612Y-105450000D01*
X167212388Y-105450000D01*
X167171009Y-105445925D01*
X167137121Y-105435645D01*
X167105888Y-105418950D01*
X167078514Y-105396486D01*
X167056050Y-105369112D01*
X167039355Y-105337879D01*
X167029075Y-105303991D01*
X167025000Y-105262612D01*
X167025000Y-104662388D01*
X167029075Y-104621009D01*
X167039355Y-104587121D01*
X167056050Y-104555888D01*
X167078514Y-104528514D01*
X167105888Y-104506050D01*
X167137121Y-104489355D01*
X167171009Y-104479075D01*
X167212388Y-104475000D01*
X167887612Y-104475000D01*
X167928991Y-104479075D01*
G37*
G36*
X144700000Y-105250000D02*
G01*
X143500000Y-105250000D01*
X143500000Y-104050000D01*
X144700000Y-104050000D01*
X144700000Y-105250000D01*
G37*
G36*
X147500000Y-105250000D02*
G01*
X146300000Y-105250000D01*
X146300000Y-104050000D01*
X147500000Y-104050000D01*
X147500000Y-105250000D01*
G37*
G36*
X145703991Y-102229075D02*
G01*
X145737879Y-102239355D01*
X145769112Y-102256050D01*
X145796486Y-102278514D01*
X145818950Y-102305888D01*
X145835645Y-102337121D01*
X145845925Y-102371009D01*
X145850000Y-102412388D01*
X145850000Y-103087612D01*
X145845925Y-103128991D01*
X145835645Y-103162879D01*
X145818950Y-103194112D01*
X145796486Y-103221486D01*
X145769112Y-103243950D01*
X145737879Y-103260645D01*
X145703991Y-103270925D01*
X145662612Y-103275000D01*
X145062388Y-103275000D01*
X145021009Y-103270925D01*
X144987121Y-103260645D01*
X144955888Y-103243950D01*
X144928514Y-103221486D01*
X144906050Y-103194112D01*
X144889355Y-103162879D01*
X144879075Y-103128991D01*
X144875000Y-103087612D01*
X144875000Y-102412388D01*
X144879075Y-102371009D01*
X144889355Y-102337121D01*
X144906050Y-102305888D01*
X144928514Y-102278514D01*
X144955888Y-102256050D01*
X144987121Y-102239355D01*
X145021009Y-102229075D01*
X145062388Y-102225000D01*
X145662612Y-102225000D01*
X145703991Y-102229075D01*
G37*
G36*
X147278991Y-102229075D02*
G01*
X147312879Y-102239355D01*
X147344112Y-102256050D01*
X147371486Y-102278514D01*
X147393950Y-102305888D01*
X147410645Y-102337121D01*
X147420925Y-102371009D01*
X147425000Y-102412388D01*
X147425000Y-103087612D01*
X147420925Y-103128991D01*
X147410645Y-103162879D01*
X147393950Y-103194112D01*
X147371486Y-103221486D01*
X147344112Y-103243950D01*
X147312879Y-103260645D01*
X147278991Y-103270925D01*
X147237612Y-103275000D01*
X146637388Y-103275000D01*
X146596009Y-103270925D01*
X146562121Y-103260645D01*
X146530888Y-103243950D01*
X146503514Y-103221486D01*
X146481050Y-103194112D01*
X146464355Y-103162879D01*
X146454075Y-103128991D01*
X146450000Y-103087612D01*
X146450000Y-102412388D01*
X146454075Y-102371009D01*
X146464355Y-102337121D01*
X146481050Y-102305888D01*
X146503514Y-102278514D01*
X146530888Y-102256050D01*
X146562121Y-102239355D01*
X146596009Y-102229075D01*
X146637388Y-102225000D01*
X147237612Y-102225000D01*
X147278991Y-102229075D01*
G37*
G36*
X138503991Y-101779075D02*
G01*
X138537879Y-101789355D01*
X138569112Y-101806050D01*
X138596486Y-101828514D01*
X138618950Y-101855888D01*
X138635645Y-101887121D01*
X138645925Y-101921009D01*
X138650000Y-101962388D01*
X138650000Y-102637612D01*
X138645925Y-102678991D01*
X138635645Y-102712879D01*
X138618950Y-102744112D01*
X138596486Y-102771486D01*
X138569112Y-102793950D01*
X138537879Y-102810645D01*
X138503991Y-102820925D01*
X138462612Y-102825000D01*
X137862388Y-102825000D01*
X137821009Y-102820925D01*
X137787121Y-102810645D01*
X137755888Y-102793950D01*
X137728514Y-102771486D01*
X137706050Y-102744112D01*
X137689355Y-102712879D01*
X137679075Y-102678991D01*
X137675000Y-102637612D01*
X137675000Y-101962388D01*
X137679075Y-101921009D01*
X137689355Y-101887121D01*
X137706050Y-101855888D01*
X137728514Y-101828514D01*
X137755888Y-101806050D01*
X137787121Y-101789355D01*
X137821009Y-101779075D01*
X137862388Y-101775000D01*
X138462612Y-101775000D01*
X138503991Y-101779075D01*
G37*
G36*
X140078991Y-101779075D02*
G01*
X140112879Y-101789355D01*
X140144112Y-101806050D01*
X140171486Y-101828514D01*
X140193950Y-101855888D01*
X140210645Y-101887121D01*
X140220925Y-101921009D01*
X140225000Y-101962388D01*
X140225000Y-102637612D01*
X140220925Y-102678991D01*
X140210645Y-102712879D01*
X140193950Y-102744112D01*
X140171486Y-102771486D01*
X140144112Y-102793950D01*
X140112879Y-102810645D01*
X140078991Y-102820925D01*
X140037612Y-102825000D01*
X139437388Y-102825000D01*
X139396009Y-102820925D01*
X139362121Y-102810645D01*
X139330888Y-102793950D01*
X139303514Y-102771486D01*
X139281050Y-102744112D01*
X139264355Y-102712879D01*
X139254075Y-102678991D01*
X139250000Y-102637612D01*
X139250000Y-101962388D01*
X139254075Y-101921009D01*
X139264355Y-101887121D01*
X139281050Y-101855888D01*
X139303514Y-101828514D01*
X139330888Y-101806050D01*
X139362121Y-101789355D01*
X139396009Y-101779075D01*
X139437388Y-101775000D01*
X140037612Y-101775000D01*
X140078991Y-101779075D01*
G37*
G36*
X145703991Y-100729075D02*
G01*
X145737879Y-100739355D01*
X145769112Y-100756050D01*
X145796486Y-100778514D01*
X145818950Y-100805888D01*
X145835645Y-100837121D01*
X145845925Y-100871009D01*
X145850000Y-100912388D01*
X145850000Y-101587612D01*
X145845925Y-101628991D01*
X145835645Y-101662879D01*
X145818950Y-101694112D01*
X145796486Y-101721486D01*
X145769112Y-101743950D01*
X145737879Y-101760645D01*
X145703991Y-101770925D01*
X145662612Y-101775000D01*
X145062388Y-101775000D01*
X145021009Y-101770925D01*
X144987121Y-101760645D01*
X144955888Y-101743950D01*
X144928514Y-101721486D01*
X144906050Y-101694112D01*
X144889355Y-101662879D01*
X144879075Y-101628991D01*
X144875000Y-101587612D01*
X144875000Y-100912388D01*
X144879075Y-100871009D01*
X144889355Y-100837121D01*
X144906050Y-100805888D01*
X144928514Y-100778514D01*
X144955888Y-100756050D01*
X144987121Y-100739355D01*
X145021009Y-100729075D01*
X145062388Y-100725000D01*
X145662612Y-100725000D01*
X145703991Y-100729075D01*
G37*
G36*
X147278991Y-100729075D02*
G01*
X147312879Y-100739355D01*
X147344112Y-100756050D01*
X147371486Y-100778514D01*
X147393950Y-100805888D01*
X147410645Y-100837121D01*
X147420925Y-100871009D01*
X147425000Y-100912388D01*
X147425000Y-101587612D01*
X147420925Y-101628991D01*
X147410645Y-101662879D01*
X147393950Y-101694112D01*
X147371486Y-101721486D01*
X147344112Y-101743950D01*
X147312879Y-101760645D01*
X147278991Y-101770925D01*
X147237612Y-101775000D01*
X146637388Y-101775000D01*
X146596009Y-101770925D01*
X146562121Y-101760645D01*
X146530888Y-101743950D01*
X146503514Y-101721486D01*
X146481050Y-101694112D01*
X146464355Y-101662879D01*
X146454075Y-101628991D01*
X146450000Y-101587612D01*
X146450000Y-100912388D01*
X146454075Y-100871009D01*
X146464355Y-100837121D01*
X146481050Y-100805888D01*
X146503514Y-100778514D01*
X146530888Y-100756050D01*
X146562121Y-100739355D01*
X146596009Y-100729075D01*
X146637388Y-100725000D01*
X147237612Y-100725000D01*
X147278991Y-100729075D01*
G37*
G36*
X158583867Y-100054556D02*
G01*
X158622448Y-100066259D01*
X158658001Y-100085263D01*
X158689163Y-100110837D01*
X158714737Y-100141999D01*
X158733741Y-100177552D01*
X158745444Y-100216133D01*
X158750000Y-100262390D01*
X158750000Y-101337610D01*
X158745444Y-101383867D01*
X158733741Y-101422448D01*
X158714737Y-101458001D01*
X158689163Y-101489163D01*
X158658001Y-101514737D01*
X158622448Y-101533741D01*
X158583867Y-101545444D01*
X158537610Y-101550000D01*
X157887390Y-101550000D01*
X157841133Y-101545444D01*
X157802552Y-101533741D01*
X157766999Y-101514737D01*
X157735837Y-101489163D01*
X157710263Y-101458001D01*
X157691259Y-101422448D01*
X157679556Y-101383867D01*
X157675000Y-101337610D01*
X157675000Y-100262390D01*
X157679556Y-100216133D01*
X157691259Y-100177552D01*
X157710263Y-100141999D01*
X157735837Y-100110837D01*
X157766999Y-100085263D01*
X157802552Y-100066259D01*
X157841133Y-100054556D01*
X157887390Y-100050000D01*
X158537610Y-100050000D01*
X158583867Y-100054556D01*
G37*
G36*
X160458867Y-100054556D02*
G01*
X160497448Y-100066259D01*
X160533001Y-100085263D01*
X160564163Y-100110837D01*
X160589737Y-100141999D01*
X160608741Y-100177552D01*
X160620444Y-100216133D01*
X160625000Y-100262390D01*
X160625000Y-101337610D01*
X160620444Y-101383867D01*
X160608741Y-101422448D01*
X160589737Y-101458001D01*
X160564163Y-101489163D01*
X160533001Y-101514737D01*
X160497448Y-101533741D01*
X160458867Y-101545444D01*
X160412610Y-101550000D01*
X159762390Y-101550000D01*
X159716133Y-101545444D01*
X159677552Y-101533741D01*
X159641999Y-101514737D01*
X159610837Y-101489163D01*
X159585263Y-101458001D01*
X159566259Y-101422448D01*
X159554556Y-101383867D01*
X159550000Y-101337610D01*
X159550000Y-100262390D01*
X159554556Y-100216133D01*
X159566259Y-100177552D01*
X159585263Y-100141999D01*
X159610837Y-100110837D01*
X159641999Y-100085263D01*
X159677552Y-100066259D01*
X159716133Y-100054556D01*
X159762390Y-100050000D01*
X160412610Y-100050000D01*
X160458867Y-100054556D01*
G37*
G36*
X138503991Y-100279075D02*
G01*
X138537879Y-100289355D01*
X138569112Y-100306050D01*
X138596486Y-100328514D01*
X138618950Y-100355888D01*
X138635645Y-100387121D01*
X138645925Y-100421009D01*
X138650000Y-100462388D01*
X138650000Y-101137612D01*
X138645925Y-101178991D01*
X138635645Y-101212879D01*
X138618950Y-101244112D01*
X138596486Y-101271486D01*
X138569112Y-101293950D01*
X138537879Y-101310645D01*
X138503991Y-101320925D01*
X138462612Y-101325000D01*
X137862388Y-101325000D01*
X137821009Y-101320925D01*
X137787121Y-101310645D01*
X137755888Y-101293950D01*
X137728514Y-101271486D01*
X137706050Y-101244112D01*
X137689355Y-101212879D01*
X137679075Y-101178991D01*
X137675000Y-101137612D01*
X137675000Y-100462388D01*
X137679075Y-100421009D01*
X137689355Y-100387121D01*
X137706050Y-100355888D01*
X137728514Y-100328514D01*
X137755888Y-100306050D01*
X137787121Y-100289355D01*
X137821009Y-100279075D01*
X137862388Y-100275000D01*
X138462612Y-100275000D01*
X138503991Y-100279075D01*
G37*
G36*
X140078991Y-100279075D02*
G01*
X140112879Y-100289355D01*
X140144112Y-100306050D01*
X140171486Y-100328514D01*
X140193950Y-100355888D01*
X140210645Y-100387121D01*
X140220925Y-100421009D01*
X140225000Y-100462388D01*
X140225000Y-101137612D01*
X140220925Y-101178991D01*
X140210645Y-101212879D01*
X140193950Y-101244112D01*
X140171486Y-101271486D01*
X140144112Y-101293950D01*
X140112879Y-101310645D01*
X140078991Y-101320925D01*
X140037612Y-101325000D01*
X139437388Y-101325000D01*
X139396009Y-101320925D01*
X139362121Y-101310645D01*
X139330888Y-101293950D01*
X139303514Y-101271486D01*
X139281050Y-101244112D01*
X139264355Y-101212879D01*
X139254075Y-101178991D01*
X139250000Y-101137612D01*
X139250000Y-100462388D01*
X139254075Y-100421009D01*
X139264355Y-100387121D01*
X139281050Y-100355888D01*
X139303514Y-100328514D01*
X139330888Y-100306050D01*
X139362121Y-100289355D01*
X139396009Y-100279075D01*
X139437388Y-100275000D01*
X140037612Y-100275000D01*
X140078991Y-100279075D01*
G37*
G36*
X178728991Y-100229075D02*
G01*
X178762879Y-100239355D01*
X178794112Y-100256050D01*
X178821486Y-100278514D01*
X178843950Y-100305888D01*
X178860645Y-100337121D01*
X178870925Y-100371009D01*
X178875000Y-100412388D01*
X178875000Y-101087612D01*
X178870925Y-101128991D01*
X178860645Y-101162879D01*
X178843950Y-101194112D01*
X178821486Y-101221486D01*
X178794112Y-101243950D01*
X178762879Y-101260645D01*
X178728991Y-101270925D01*
X178687612Y-101275000D01*
X178087388Y-101275000D01*
X178046009Y-101270925D01*
X178012121Y-101260645D01*
X177980888Y-101243950D01*
X177953514Y-101221486D01*
X177931050Y-101194112D01*
X177914355Y-101162879D01*
X177904075Y-101128991D01*
X177900000Y-101087612D01*
X177900000Y-100412388D01*
X177904075Y-100371009D01*
X177914355Y-100337121D01*
X177931050Y-100305888D01*
X177953514Y-100278514D01*
X177980888Y-100256050D01*
X178012121Y-100239355D01*
X178046009Y-100229075D01*
X178087388Y-100225000D01*
X178687612Y-100225000D01*
X178728991Y-100229075D01*
G37*
G36*
X171303991Y-100229075D02*
G01*
X171337879Y-100239355D01*
X171369112Y-100256050D01*
X171396486Y-100278514D01*
X171418950Y-100305888D01*
X171435645Y-100337121D01*
X171445925Y-100371009D01*
X171450000Y-100412388D01*
X171450000Y-101087612D01*
X171445925Y-101128991D01*
X171435645Y-101162879D01*
X171418950Y-101194112D01*
X171396486Y-101221486D01*
X171369112Y-101243950D01*
X171337879Y-101260645D01*
X171303991Y-101270925D01*
X171262612Y-101275000D01*
X170662388Y-101275000D01*
X170621009Y-101270925D01*
X170587121Y-101260645D01*
X170555888Y-101243950D01*
X170528514Y-101221486D01*
X170506050Y-101194112D01*
X170489355Y-101162879D01*
X170479075Y-101128991D01*
X170475000Y-101087612D01*
X170475000Y-100412388D01*
X170479075Y-100371009D01*
X170489355Y-100337121D01*
X170506050Y-100305888D01*
X170528514Y-100278514D01*
X170555888Y-100256050D01*
X170587121Y-100239355D01*
X170621009Y-100229075D01*
X170662388Y-100225000D01*
X171262612Y-100225000D01*
X171303991Y-100229075D01*
G37*
G36*
X172878991Y-100229075D02*
G01*
X172912879Y-100239355D01*
X172944112Y-100256050D01*
X172971486Y-100278514D01*
X172993950Y-100305888D01*
X173010645Y-100337121D01*
X173020925Y-100371009D01*
X173025000Y-100412388D01*
X173025000Y-101087612D01*
X173020925Y-101128991D01*
X173010645Y-101162879D01*
X172993950Y-101194112D01*
X172971486Y-101221486D01*
X172944112Y-101243950D01*
X172912879Y-101260645D01*
X172878991Y-101270925D01*
X172837612Y-101275000D01*
X172237388Y-101275000D01*
X172196009Y-101270925D01*
X172162121Y-101260645D01*
X172130888Y-101243950D01*
X172103514Y-101221486D01*
X172081050Y-101194112D01*
X172064355Y-101162879D01*
X172054075Y-101128991D01*
X172050000Y-101087612D01*
X172050000Y-100412388D01*
X172054075Y-100371009D01*
X172064355Y-100337121D01*
X172081050Y-100305888D01*
X172103514Y-100278514D01*
X172130888Y-100256050D01*
X172162121Y-100239355D01*
X172196009Y-100229075D01*
X172237388Y-100225000D01*
X172837612Y-100225000D01*
X172878991Y-100229075D01*
G37*
G36*
X177153991Y-100229075D02*
G01*
X177187879Y-100239355D01*
X177219112Y-100256050D01*
X177246486Y-100278514D01*
X177268950Y-100305888D01*
X177285645Y-100337121D01*
X177295925Y-100371009D01*
X177300000Y-100412388D01*
X177300000Y-101087612D01*
X177295925Y-101128991D01*
X177285645Y-101162879D01*
X177268950Y-101194112D01*
X177246486Y-101221486D01*
X177219112Y-101243950D01*
X177187879Y-101260645D01*
X177153991Y-101270925D01*
X177112612Y-101275000D01*
X176512388Y-101275000D01*
X176471009Y-101270925D01*
X176437121Y-101260645D01*
X176405888Y-101243950D01*
X176378514Y-101221486D01*
X176356050Y-101194112D01*
X176339355Y-101162879D01*
X176329075Y-101128991D01*
X176325000Y-101087612D01*
X176325000Y-100412388D01*
X176329075Y-100371009D01*
X176339355Y-100337121D01*
X176356050Y-100305888D01*
X176378514Y-100278514D01*
X176405888Y-100256050D01*
X176437121Y-100239355D01*
X176471009Y-100229075D01*
X176512388Y-100225000D01*
X177112612Y-100225000D01*
X177153991Y-100229075D01*
G37*
G36*
X149853991Y-99979075D02*
G01*
X149887879Y-99989355D01*
X149919112Y-100006050D01*
X149946486Y-100028514D01*
X149968950Y-100055888D01*
X149985645Y-100087121D01*
X149995925Y-100121009D01*
X150000000Y-100162388D01*
X150000000Y-100837612D01*
X149995925Y-100878991D01*
X149985645Y-100912879D01*
X149968950Y-100944112D01*
X149946486Y-100971486D01*
X149919112Y-100993950D01*
X149887879Y-101010645D01*
X149853991Y-101020925D01*
X149812612Y-101025000D01*
X149212388Y-101025000D01*
X149171009Y-101020925D01*
X149137121Y-101010645D01*
X149105888Y-100993950D01*
X149078514Y-100971486D01*
X149056050Y-100944112D01*
X149039355Y-100912879D01*
X149029075Y-100878991D01*
X149025000Y-100837612D01*
X149025000Y-100162388D01*
X149029075Y-100121009D01*
X149039355Y-100087121D01*
X149056050Y-100055888D01*
X149078514Y-100028514D01*
X149105888Y-100006050D01*
X149137121Y-99989355D01*
X149171009Y-99979075D01*
X149212388Y-99975000D01*
X149812612Y-99975000D01*
X149853991Y-99979075D01*
G37*
G36*
X151428991Y-99979075D02*
G01*
X151462879Y-99989355D01*
X151494112Y-100006050D01*
X151521486Y-100028514D01*
X151543950Y-100055888D01*
X151560645Y-100087121D01*
X151570925Y-100121009D01*
X151575000Y-100162388D01*
X151575000Y-100837612D01*
X151570925Y-100878991D01*
X151560645Y-100912879D01*
X151543950Y-100944112D01*
X151521486Y-100971486D01*
X151494112Y-100993950D01*
X151462879Y-101010645D01*
X151428991Y-101020925D01*
X151387612Y-101025000D01*
X150787388Y-101025000D01*
X150746009Y-101020925D01*
X150712121Y-101010645D01*
X150680888Y-100993950D01*
X150653514Y-100971486D01*
X150631050Y-100944112D01*
X150614355Y-100912879D01*
X150604075Y-100878991D01*
X150600000Y-100837612D01*
X150600000Y-100162388D01*
X150604075Y-100121009D01*
X150614355Y-100087121D01*
X150631050Y-100055888D01*
X150653514Y-100028514D01*
X150680888Y-100006050D01*
X150712121Y-99989355D01*
X150746009Y-99979075D01*
X150787388Y-99975000D01*
X151387612Y-99975000D01*
X151428991Y-99979075D01*
G37*
G36*
X188653991Y-99679075D02*
G01*
X188687879Y-99689355D01*
X188719112Y-99706050D01*
X188746486Y-99728514D01*
X188768950Y-99755888D01*
X188785645Y-99787121D01*
X188795925Y-99821009D01*
X188800000Y-99862388D01*
X188800000Y-100537612D01*
X188795925Y-100578991D01*
X188785645Y-100612879D01*
X188768950Y-100644112D01*
X188746486Y-100671486D01*
X188719112Y-100693950D01*
X188687879Y-100710645D01*
X188653991Y-100720925D01*
X188612612Y-100725000D01*
X188012388Y-100725000D01*
X187971009Y-100720925D01*
X187937121Y-100710645D01*
X187905888Y-100693950D01*
X187878514Y-100671486D01*
X187856050Y-100644112D01*
X187839355Y-100612879D01*
X187829075Y-100578991D01*
X187825000Y-100537612D01*
X187825000Y-99862388D01*
X187829075Y-99821009D01*
X187839355Y-99787121D01*
X187856050Y-99755888D01*
X187878514Y-99728514D01*
X187905888Y-99706050D01*
X187937121Y-99689355D01*
X187971009Y-99679075D01*
X188012388Y-99675000D01*
X188612612Y-99675000D01*
X188653991Y-99679075D01*
G37*
G36*
X190228991Y-99679075D02*
G01*
X190262879Y-99689355D01*
X190294112Y-99706050D01*
X190321486Y-99728514D01*
X190343950Y-99755888D01*
X190360645Y-99787121D01*
X190370925Y-99821009D01*
X190375000Y-99862388D01*
X190375000Y-100537612D01*
X190370925Y-100578991D01*
X190360645Y-100612879D01*
X190343950Y-100644112D01*
X190321486Y-100671486D01*
X190294112Y-100693950D01*
X190262879Y-100710645D01*
X190228991Y-100720925D01*
X190187612Y-100725000D01*
X189587388Y-100725000D01*
X189546009Y-100720925D01*
X189512121Y-100710645D01*
X189480888Y-100693950D01*
X189453514Y-100671486D01*
X189431050Y-100644112D01*
X189414355Y-100612879D01*
X189404075Y-100578991D01*
X189400000Y-100537612D01*
X189400000Y-99862388D01*
X189404075Y-99821009D01*
X189414355Y-99787121D01*
X189431050Y-99755888D01*
X189453514Y-99728514D01*
X189480888Y-99706050D01*
X189512121Y-99689355D01*
X189546009Y-99679075D01*
X189587388Y-99675000D01*
X190187612Y-99675000D01*
X190228991Y-99679075D01*
G37*
G36*
X140078991Y-98779075D02*
G01*
X140112879Y-98789355D01*
X140144112Y-98806050D01*
X140171486Y-98828514D01*
X140193950Y-98855888D01*
X140210645Y-98887121D01*
X140220925Y-98921009D01*
X140225000Y-98962388D01*
X140225000Y-99637612D01*
X140220925Y-99678991D01*
X140210645Y-99712879D01*
X140193950Y-99744112D01*
X140171486Y-99771486D01*
X140144112Y-99793950D01*
X140112879Y-99810645D01*
X140078991Y-99820925D01*
X140037612Y-99825000D01*
X139437388Y-99825000D01*
X139396009Y-99820925D01*
X139362121Y-99810645D01*
X139330888Y-99793950D01*
X139303514Y-99771486D01*
X139281050Y-99744112D01*
X139264355Y-99712879D01*
X139254075Y-99678991D01*
X139250000Y-99637612D01*
X139250000Y-98962388D01*
X139254075Y-98921009D01*
X139264355Y-98887121D01*
X139281050Y-98855888D01*
X139303514Y-98828514D01*
X139330888Y-98806050D01*
X139362121Y-98789355D01*
X139396009Y-98779075D01*
X139437388Y-98775000D01*
X140037612Y-98775000D01*
X140078991Y-98779075D01*
G37*
G36*
X138503991Y-98779075D02*
G01*
X138537879Y-98789355D01*
X138569112Y-98806050D01*
X138596486Y-98828514D01*
X138618950Y-98855888D01*
X138635645Y-98887121D01*
X138645925Y-98921009D01*
X138650000Y-98962388D01*
X138650000Y-99637612D01*
X138645925Y-99678991D01*
X138635645Y-99712879D01*
X138618950Y-99744112D01*
X138596486Y-99771486D01*
X138569112Y-99793950D01*
X138537879Y-99810645D01*
X138503991Y-99820925D01*
X138462612Y-99825000D01*
X137862388Y-99825000D01*
X137821009Y-99820925D01*
X137787121Y-99810645D01*
X137755888Y-99793950D01*
X137728514Y-99771486D01*
X137706050Y-99744112D01*
X137689355Y-99712879D01*
X137679075Y-99678991D01*
X137675000Y-99637612D01*
X137675000Y-98962388D01*
X137679075Y-98921009D01*
X137689355Y-98887121D01*
X137706050Y-98855888D01*
X137728514Y-98828514D01*
X137755888Y-98806050D01*
X137787121Y-98789355D01*
X137821009Y-98779075D01*
X137862388Y-98775000D01*
X138462612Y-98775000D01*
X138503991Y-98779075D01*
G37*
G36*
X158583867Y-98104556D02*
G01*
X158622448Y-98116259D01*
X158658001Y-98135263D01*
X158689163Y-98160837D01*
X158714737Y-98191999D01*
X158733741Y-98227552D01*
X158745444Y-98266133D01*
X158750000Y-98312390D01*
X158750000Y-99387610D01*
X158745444Y-99433867D01*
X158733741Y-99472448D01*
X158714737Y-99508001D01*
X158689163Y-99539163D01*
X158658001Y-99564737D01*
X158622448Y-99583741D01*
X158583867Y-99595444D01*
X158537610Y-99600000D01*
X157887390Y-99600000D01*
X157841133Y-99595444D01*
X157802552Y-99583741D01*
X157766999Y-99564737D01*
X157735837Y-99539163D01*
X157710263Y-99508001D01*
X157691259Y-99472448D01*
X157679556Y-99433867D01*
X157675000Y-99387610D01*
X157675000Y-98312390D01*
X157679556Y-98266133D01*
X157691259Y-98227552D01*
X157710263Y-98191999D01*
X157735837Y-98160837D01*
X157766999Y-98135263D01*
X157802552Y-98116259D01*
X157841133Y-98104556D01*
X157887390Y-98100000D01*
X158537610Y-98100000D01*
X158583867Y-98104556D01*
G37*
G36*
X160458867Y-98104556D02*
G01*
X160497448Y-98116259D01*
X160533001Y-98135263D01*
X160564163Y-98160837D01*
X160589737Y-98191999D01*
X160608741Y-98227552D01*
X160620444Y-98266133D01*
X160625000Y-98312390D01*
X160625000Y-99387610D01*
X160620444Y-99433867D01*
X160608741Y-99472448D01*
X160589737Y-99508001D01*
X160564163Y-99539163D01*
X160533001Y-99564737D01*
X160497448Y-99583741D01*
X160458867Y-99595444D01*
X160412610Y-99600000D01*
X159762390Y-99600000D01*
X159716133Y-99595444D01*
X159677552Y-99583741D01*
X159641999Y-99564737D01*
X159610837Y-99539163D01*
X159585263Y-99508001D01*
X159566259Y-99472448D01*
X159554556Y-99433867D01*
X159550000Y-99387610D01*
X159550000Y-98312390D01*
X159554556Y-98266133D01*
X159566259Y-98227552D01*
X159585263Y-98191999D01*
X159610837Y-98160837D01*
X159641999Y-98135263D01*
X159677552Y-98116259D01*
X159716133Y-98104556D01*
X159762390Y-98100000D01*
X160412610Y-98100000D01*
X160458867Y-98104556D01*
G37*
G36*
X162507193Y-98279596D02*
G01*
X162546162Y-98291417D01*
X162582072Y-98310612D01*
X162613553Y-98336447D01*
X162639388Y-98367928D01*
X162658583Y-98403838D01*
X162670404Y-98442807D01*
X162675000Y-98489473D01*
X162675000Y-99210527D01*
X162670404Y-99257193D01*
X162658583Y-99296162D01*
X162639388Y-99332072D01*
X162613553Y-99363553D01*
X162582072Y-99389388D01*
X162546162Y-99408583D01*
X162507193Y-99420404D01*
X162460527Y-99425000D01*
X161664473Y-99425000D01*
X161617807Y-99420404D01*
X161578838Y-99408583D01*
X161542928Y-99389388D01*
X161511447Y-99363553D01*
X161485612Y-99332072D01*
X161466417Y-99296162D01*
X161454596Y-99257193D01*
X161450000Y-99210527D01*
X161450000Y-98489473D01*
X161454596Y-98442807D01*
X161466417Y-98403838D01*
X161485612Y-98367928D01*
X161511447Y-98336447D01*
X161542928Y-98310612D01*
X161578838Y-98291417D01*
X161617807Y-98279596D01*
X161664473Y-98275000D01*
X162460527Y-98275000D01*
X162507193Y-98279596D01*
G37*
G36*
X164282193Y-98279596D02*
G01*
X164321162Y-98291417D01*
X164357072Y-98310612D01*
X164388553Y-98336447D01*
X164414388Y-98367928D01*
X164433583Y-98403838D01*
X164445404Y-98442807D01*
X164450000Y-98489473D01*
X164450000Y-99210527D01*
X164445404Y-99257193D01*
X164433583Y-99296162D01*
X164414388Y-99332072D01*
X164388553Y-99363553D01*
X164357072Y-99389388D01*
X164321162Y-99408583D01*
X164282193Y-99420404D01*
X164235527Y-99425000D01*
X163439473Y-99425000D01*
X163392807Y-99420404D01*
X163353838Y-99408583D01*
X163317928Y-99389388D01*
X163286447Y-99363553D01*
X163260612Y-99332072D01*
X163241417Y-99296162D01*
X163229596Y-99257193D01*
X163225000Y-99210527D01*
X163225000Y-98489473D01*
X163229596Y-98442807D01*
X163241417Y-98403838D01*
X163260612Y-98367928D01*
X163286447Y-98336447D01*
X163317928Y-98310612D01*
X163353838Y-98291417D01*
X163392807Y-98279596D01*
X163439473Y-98275000D01*
X164235527Y-98275000D01*
X164282193Y-98279596D01*
G37*
G36*
X138503991Y-97279075D02*
G01*
X138537879Y-97289355D01*
X138569112Y-97306050D01*
X138596486Y-97328514D01*
X138618950Y-97355888D01*
X138635645Y-97387121D01*
X138645925Y-97421009D01*
X138650000Y-97462388D01*
X138650000Y-98137612D01*
X138645925Y-98178991D01*
X138635645Y-98212879D01*
X138618950Y-98244112D01*
X138596486Y-98271486D01*
X138569112Y-98293950D01*
X138537879Y-98310645D01*
X138503991Y-98320925D01*
X138462612Y-98325000D01*
X137862388Y-98325000D01*
X137821009Y-98320925D01*
X137787121Y-98310645D01*
X137755888Y-98293950D01*
X137728514Y-98271486D01*
X137706050Y-98244112D01*
X137689355Y-98212879D01*
X137679075Y-98178991D01*
X137675000Y-98137612D01*
X137675000Y-97462388D01*
X137679075Y-97421009D01*
X137689355Y-97387121D01*
X137706050Y-97355888D01*
X137728514Y-97328514D01*
X137755888Y-97306050D01*
X137787121Y-97289355D01*
X137821009Y-97279075D01*
X137862388Y-97275000D01*
X138462612Y-97275000D01*
X138503991Y-97279075D01*
G37*
G36*
X140078991Y-97279075D02*
G01*
X140112879Y-97289355D01*
X140144112Y-97306050D01*
X140171486Y-97328514D01*
X140193950Y-97355888D01*
X140210645Y-97387121D01*
X140220925Y-97421009D01*
X140225000Y-97462388D01*
X140225000Y-98137612D01*
X140220925Y-98178991D01*
X140210645Y-98212879D01*
X140193950Y-98244112D01*
X140171486Y-98271486D01*
X140144112Y-98293950D01*
X140112879Y-98310645D01*
X140078991Y-98320925D01*
X140037612Y-98325000D01*
X139437388Y-98325000D01*
X139396009Y-98320925D01*
X139362121Y-98310645D01*
X139330888Y-98293950D01*
X139303514Y-98271486D01*
X139281050Y-98244112D01*
X139264355Y-98212879D01*
X139254075Y-98178991D01*
X139250000Y-98137612D01*
X139250000Y-97462388D01*
X139254075Y-97421009D01*
X139264355Y-97387121D01*
X139281050Y-97355888D01*
X139303514Y-97328514D01*
X139330888Y-97306050D01*
X139362121Y-97289355D01*
X139396009Y-97279075D01*
X139437388Y-97275000D01*
X140037612Y-97275000D01*
X140078991Y-97279075D01*
G37*
G36*
X177153991Y-96829075D02*
G01*
X177187879Y-96839355D01*
X177219112Y-96856050D01*
X177246486Y-96878514D01*
X177268950Y-96905888D01*
X177285645Y-96937121D01*
X177295925Y-96971009D01*
X177300000Y-97012388D01*
X177300000Y-97687612D01*
X177295925Y-97728991D01*
X177285645Y-97762879D01*
X177268950Y-97794112D01*
X177246486Y-97821486D01*
X177219112Y-97843950D01*
X177187879Y-97860645D01*
X177153991Y-97870925D01*
X177112612Y-97875000D01*
X176512388Y-97875000D01*
X176471009Y-97870925D01*
X176437121Y-97860645D01*
X176405888Y-97843950D01*
X176378514Y-97821486D01*
X176356050Y-97794112D01*
X176339355Y-97762879D01*
X176329075Y-97728991D01*
X176325000Y-97687612D01*
X176325000Y-97012388D01*
X176329075Y-96971009D01*
X176339355Y-96937121D01*
X176356050Y-96905888D01*
X176378514Y-96878514D01*
X176405888Y-96856050D01*
X176437121Y-96839355D01*
X176471009Y-96829075D01*
X176512388Y-96825000D01*
X177112612Y-96825000D01*
X177153991Y-96829075D01*
G37*
G36*
X178728991Y-96829075D02*
G01*
X178762879Y-96839355D01*
X178794112Y-96856050D01*
X178821486Y-96878514D01*
X178843950Y-96905888D01*
X178860645Y-96937121D01*
X178870925Y-96971009D01*
X178875000Y-97012388D01*
X178875000Y-97687612D01*
X178870925Y-97728991D01*
X178860645Y-97762879D01*
X178843950Y-97794112D01*
X178821486Y-97821486D01*
X178794112Y-97843950D01*
X178762879Y-97860645D01*
X178728991Y-97870925D01*
X178687612Y-97875000D01*
X178087388Y-97875000D01*
X178046009Y-97870925D01*
X178012121Y-97860645D01*
X177980888Y-97843950D01*
X177953514Y-97821486D01*
X177931050Y-97794112D01*
X177914355Y-97762879D01*
X177904075Y-97728991D01*
X177900000Y-97687612D01*
X177900000Y-97012388D01*
X177904075Y-96971009D01*
X177914355Y-96937121D01*
X177931050Y-96905888D01*
X177953514Y-96878514D01*
X177980888Y-96856050D01*
X178012121Y-96839355D01*
X178046009Y-96829075D01*
X178087388Y-96825000D01*
X178687612Y-96825000D01*
X178728991Y-96829075D01*
G37*
G36*
X164150000Y-97550000D02*
G01*
X162550000Y-97550000D01*
X162550000Y-95450000D01*
X164150000Y-95450000D01*
X164150000Y-97550000D01*
G37*
G36*
X161850000Y-97550000D02*
G01*
X160250000Y-97550000D01*
X160250000Y-95450000D01*
X161850000Y-95450000D01*
X161850000Y-97550000D01*
G37*
G36*
X159550000Y-97550000D02*
G01*
X157950000Y-97550000D01*
X157950000Y-95450000D01*
X159550000Y-95450000D01*
X159550000Y-97550000D01*
G37*
G36*
X149853991Y-95979075D02*
G01*
X149887879Y-95989355D01*
X149919112Y-96006050D01*
X149946486Y-96028514D01*
X149968950Y-96055888D01*
X149985645Y-96087121D01*
X149995925Y-96121009D01*
X150000000Y-96162388D01*
X150000000Y-96837612D01*
X149995925Y-96878991D01*
X149985645Y-96912879D01*
X149968950Y-96944112D01*
X149946486Y-96971486D01*
X149919112Y-96993950D01*
X149887879Y-97010645D01*
X149853991Y-97020925D01*
X149812612Y-97025000D01*
X149212388Y-97025000D01*
X149171009Y-97020925D01*
X149137121Y-97010645D01*
X149105888Y-96993950D01*
X149078514Y-96971486D01*
X149056050Y-96944112D01*
X149039355Y-96912879D01*
X149029075Y-96878991D01*
X149025000Y-96837612D01*
X149025000Y-96162388D01*
X149029075Y-96121009D01*
X149039355Y-96087121D01*
X149056050Y-96055888D01*
X149078514Y-96028514D01*
X149105888Y-96006050D01*
X149137121Y-95989355D01*
X149171009Y-95979075D01*
X149212388Y-95975000D01*
X149812612Y-95975000D01*
X149853991Y-95979075D01*
G37*
G36*
X151428991Y-95979075D02*
G01*
X151462879Y-95989355D01*
X151494112Y-96006050D01*
X151521486Y-96028514D01*
X151543950Y-96055888D01*
X151560645Y-96087121D01*
X151570925Y-96121009D01*
X151575000Y-96162388D01*
X151575000Y-96837612D01*
X151570925Y-96878991D01*
X151560645Y-96912879D01*
X151543950Y-96944112D01*
X151521486Y-96971486D01*
X151494112Y-96993950D01*
X151462879Y-97010645D01*
X151428991Y-97020925D01*
X151387612Y-97025000D01*
X150787388Y-97025000D01*
X150746009Y-97020925D01*
X150712121Y-97010645D01*
X150680888Y-96993950D01*
X150653514Y-96971486D01*
X150631050Y-96944112D01*
X150614355Y-96912879D01*
X150604075Y-96878991D01*
X150600000Y-96837612D01*
X150600000Y-96162388D01*
X150604075Y-96121009D01*
X150614355Y-96087121D01*
X150631050Y-96055888D01*
X150653514Y-96028514D01*
X150680888Y-96006050D01*
X150712121Y-95989355D01*
X150746009Y-95979075D01*
X150787388Y-95975000D01*
X151387612Y-95975000D01*
X151428991Y-95979075D01*
G37*
G36*
X138503991Y-95779075D02*
G01*
X138537879Y-95789355D01*
X138569112Y-95806050D01*
X138596486Y-95828514D01*
X138618950Y-95855888D01*
X138635645Y-95887121D01*
X138645925Y-95921009D01*
X138650000Y-95962388D01*
X138650000Y-96637612D01*
X138645925Y-96678991D01*
X138635645Y-96712879D01*
X138618950Y-96744112D01*
X138596486Y-96771486D01*
X138569112Y-96793950D01*
X138537879Y-96810645D01*
X138503991Y-96820925D01*
X138462612Y-96825000D01*
X137862388Y-96825000D01*
X137821009Y-96820925D01*
X137787121Y-96810645D01*
X137755888Y-96793950D01*
X137728514Y-96771486D01*
X137706050Y-96744112D01*
X137689355Y-96712879D01*
X137679075Y-96678991D01*
X137675000Y-96637612D01*
X137675000Y-95962388D01*
X137679075Y-95921009D01*
X137689355Y-95887121D01*
X137706050Y-95855888D01*
X137728514Y-95828514D01*
X137755888Y-95806050D01*
X137787121Y-95789355D01*
X137821009Y-95779075D01*
X137862388Y-95775000D01*
X138462612Y-95775000D01*
X138503991Y-95779075D01*
G37*
G36*
X140078991Y-95779075D02*
G01*
X140112879Y-95789355D01*
X140144112Y-95806050D01*
X140171486Y-95828514D01*
X140193950Y-95855888D01*
X140210645Y-95887121D01*
X140220925Y-95921009D01*
X140225000Y-95962388D01*
X140225000Y-96637612D01*
X140220925Y-96678991D01*
X140210645Y-96712879D01*
X140193950Y-96744112D01*
X140171486Y-96771486D01*
X140144112Y-96793950D01*
X140112879Y-96810645D01*
X140078991Y-96820925D01*
X140037612Y-96825000D01*
X139437388Y-96825000D01*
X139396009Y-96820925D01*
X139362121Y-96810645D01*
X139330888Y-96793950D01*
X139303514Y-96771486D01*
X139281050Y-96744112D01*
X139264355Y-96712879D01*
X139254075Y-96678991D01*
X139250000Y-96637612D01*
X139250000Y-95962388D01*
X139254075Y-95921009D01*
X139264355Y-95887121D01*
X139281050Y-95855888D01*
X139303514Y-95828514D01*
X139330888Y-95806050D01*
X139362121Y-95789355D01*
X139396009Y-95779075D01*
X139437388Y-95775000D01*
X140037612Y-95775000D01*
X140078991Y-95779075D01*
G37*
G36*
X147328991Y-95479075D02*
G01*
X147362879Y-95489355D01*
X147394112Y-95506050D01*
X147421486Y-95528514D01*
X147443950Y-95555888D01*
X147460645Y-95587121D01*
X147470925Y-95621009D01*
X147475000Y-95662388D01*
X147475000Y-96337612D01*
X147470925Y-96378991D01*
X147460645Y-96412879D01*
X147443950Y-96444112D01*
X147421486Y-96471486D01*
X147394112Y-96493950D01*
X147362879Y-96510645D01*
X147328991Y-96520925D01*
X147287612Y-96525000D01*
X146687388Y-96525000D01*
X146646009Y-96520925D01*
X146612121Y-96510645D01*
X146580888Y-96493950D01*
X146553514Y-96471486D01*
X146531050Y-96444112D01*
X146514355Y-96412879D01*
X146504075Y-96378991D01*
X146500000Y-96337612D01*
X146500000Y-95662388D01*
X146504075Y-95621009D01*
X146514355Y-95587121D01*
X146531050Y-95555888D01*
X146553514Y-95528514D01*
X146580888Y-95506050D01*
X146612121Y-95489355D01*
X146646009Y-95479075D01*
X146687388Y-95475000D01*
X147287612Y-95475000D01*
X147328991Y-95479075D01*
G37*
G36*
X145753991Y-95479075D02*
G01*
X145787879Y-95489355D01*
X145819112Y-95506050D01*
X145846486Y-95528514D01*
X145868950Y-95555888D01*
X145885645Y-95587121D01*
X145895925Y-95621009D01*
X145900000Y-95662388D01*
X145900000Y-96337612D01*
X145895925Y-96378991D01*
X145885645Y-96412879D01*
X145868950Y-96444112D01*
X145846486Y-96471486D01*
X145819112Y-96493950D01*
X145787879Y-96510645D01*
X145753991Y-96520925D01*
X145712612Y-96525000D01*
X145112388Y-96525000D01*
X145071009Y-96520925D01*
X145037121Y-96510645D01*
X145005888Y-96493950D01*
X144978514Y-96471486D01*
X144956050Y-96444112D01*
X144939355Y-96412879D01*
X144929075Y-96378991D01*
X144925000Y-96337612D01*
X144925000Y-95662388D01*
X144929075Y-95621009D01*
X144939355Y-95587121D01*
X144956050Y-95555888D01*
X144978514Y-95528514D01*
X145005888Y-95506050D01*
X145037121Y-95489355D01*
X145071009Y-95479075D01*
X145112388Y-95475000D01*
X145712612Y-95475000D01*
X145753991Y-95479075D01*
G37*
G36*
X178728991Y-95329075D02*
G01*
X178762879Y-95339355D01*
X178794112Y-95356050D01*
X178821486Y-95378514D01*
X178843950Y-95405888D01*
X178860645Y-95437121D01*
X178870925Y-95471009D01*
X178875000Y-95512388D01*
X178875000Y-96187612D01*
X178870925Y-96228991D01*
X178860645Y-96262879D01*
X178843950Y-96294112D01*
X178821486Y-96321486D01*
X178794112Y-96343950D01*
X178762879Y-96360645D01*
X178728991Y-96370925D01*
X178687612Y-96375000D01*
X178087388Y-96375000D01*
X178046009Y-96370925D01*
X178012121Y-96360645D01*
X177980888Y-96343950D01*
X177953514Y-96321486D01*
X177931050Y-96294112D01*
X177914355Y-96262879D01*
X177904075Y-96228991D01*
X177900000Y-96187612D01*
X177900000Y-95512388D01*
X177904075Y-95471009D01*
X177914355Y-95437121D01*
X177931050Y-95405888D01*
X177953514Y-95378514D01*
X177980888Y-95356050D01*
X178012121Y-95339355D01*
X178046009Y-95329075D01*
X178087388Y-95325000D01*
X178687612Y-95325000D01*
X178728991Y-95329075D01*
G37*
G36*
X177153991Y-95329075D02*
G01*
X177187879Y-95339355D01*
X177219112Y-95356050D01*
X177246486Y-95378514D01*
X177268950Y-95405888D01*
X177285645Y-95437121D01*
X177295925Y-95471009D01*
X177300000Y-95512388D01*
X177300000Y-96187612D01*
X177295925Y-96228991D01*
X177285645Y-96262879D01*
X177268950Y-96294112D01*
X177246486Y-96321486D01*
X177219112Y-96343950D01*
X177187879Y-96360645D01*
X177153991Y-96370925D01*
X177112612Y-96375000D01*
X176512388Y-96375000D01*
X176471009Y-96370925D01*
X176437121Y-96360645D01*
X176405888Y-96343950D01*
X176378514Y-96321486D01*
X176356050Y-96294112D01*
X176339355Y-96262879D01*
X176329075Y-96228991D01*
X176325000Y-96187612D01*
X176325000Y-95512388D01*
X176329075Y-95471009D01*
X176339355Y-95437121D01*
X176356050Y-95405888D01*
X176378514Y-95378514D01*
X176405888Y-95356050D01*
X176437121Y-95339355D01*
X176471009Y-95329075D01*
X176512388Y-95325000D01*
X177112612Y-95325000D01*
X177153991Y-95329075D01*
G37*
G36*
X188653991Y-95179075D02*
G01*
X188687879Y-95189355D01*
X188719112Y-95206050D01*
X188746486Y-95228514D01*
X188768950Y-95255888D01*
X188785645Y-95287121D01*
X188795925Y-95321009D01*
X188800000Y-95362388D01*
X188800000Y-96037612D01*
X188795925Y-96078991D01*
X188785645Y-96112879D01*
X188768950Y-96144112D01*
X188746486Y-96171486D01*
X188719112Y-96193950D01*
X188687879Y-96210645D01*
X188653991Y-96220925D01*
X188612612Y-96225000D01*
X188012388Y-96225000D01*
X187971009Y-96220925D01*
X187937121Y-96210645D01*
X187905888Y-96193950D01*
X187878514Y-96171486D01*
X187856050Y-96144112D01*
X187839355Y-96112879D01*
X187829075Y-96078991D01*
X187825000Y-96037612D01*
X187825000Y-95362388D01*
X187829075Y-95321009D01*
X187839355Y-95287121D01*
X187856050Y-95255888D01*
X187878514Y-95228514D01*
X187905888Y-95206050D01*
X187937121Y-95189355D01*
X187971009Y-95179075D01*
X188012388Y-95175000D01*
X188612612Y-95175000D01*
X188653991Y-95179075D01*
G37*
G36*
X190228991Y-95179075D02*
G01*
X190262879Y-95189355D01*
X190294112Y-95206050D01*
X190321486Y-95228514D01*
X190343950Y-95255888D01*
X190360645Y-95287121D01*
X190370925Y-95321009D01*
X190375000Y-95362388D01*
X190375000Y-96037612D01*
X190370925Y-96078991D01*
X190360645Y-96112879D01*
X190343950Y-96144112D01*
X190321486Y-96171486D01*
X190294112Y-96193950D01*
X190262879Y-96210645D01*
X190228991Y-96220925D01*
X190187612Y-96225000D01*
X189587388Y-96225000D01*
X189546009Y-96220925D01*
X189512121Y-96210645D01*
X189480888Y-96193950D01*
X189453514Y-96171486D01*
X189431050Y-96144112D01*
X189414355Y-96112879D01*
X189404075Y-96078991D01*
X189400000Y-96037612D01*
X189400000Y-95362388D01*
X189404075Y-95321009D01*
X189414355Y-95287121D01*
X189431050Y-95255888D01*
X189453514Y-95228514D01*
X189480888Y-95206050D01*
X189512121Y-95189355D01*
X189546009Y-95179075D01*
X189587388Y-95175000D01*
X190187612Y-95175000D01*
X190228991Y-95179075D01*
G37*
G36*
X184403991Y-94529075D02*
G01*
X184437879Y-94539355D01*
X184469112Y-94556050D01*
X184496486Y-94578514D01*
X184518950Y-94605888D01*
X184535645Y-94637121D01*
X184545925Y-94671009D01*
X184550000Y-94712388D01*
X184550000Y-95387612D01*
X184545925Y-95428991D01*
X184535645Y-95462879D01*
X184518950Y-95494112D01*
X184496486Y-95521486D01*
X184469112Y-95543950D01*
X184437879Y-95560645D01*
X184403991Y-95570925D01*
X184362612Y-95575000D01*
X183762388Y-95575000D01*
X183721009Y-95570925D01*
X183687121Y-95560645D01*
X183655888Y-95543950D01*
X183628514Y-95521486D01*
X183606050Y-95494112D01*
X183589355Y-95462879D01*
X183579075Y-95428991D01*
X183575000Y-95387612D01*
X183575000Y-94712388D01*
X183579075Y-94671009D01*
X183589355Y-94637121D01*
X183606050Y-94605888D01*
X183628514Y-94578514D01*
X183655888Y-94556050D01*
X183687121Y-94539355D01*
X183721009Y-94529075D01*
X183762388Y-94525000D01*
X184362612Y-94525000D01*
X184403991Y-94529075D01*
G37*
G36*
X185978991Y-94529075D02*
G01*
X186012879Y-94539355D01*
X186044112Y-94556050D01*
X186071486Y-94578514D01*
X186093950Y-94605888D01*
X186110645Y-94637121D01*
X186120925Y-94671009D01*
X186125000Y-94712388D01*
X186125000Y-95387612D01*
X186120925Y-95428991D01*
X186110645Y-95462879D01*
X186093950Y-95494112D01*
X186071486Y-95521486D01*
X186044112Y-95543950D01*
X186012879Y-95560645D01*
X185978991Y-95570925D01*
X185937612Y-95575000D01*
X185337388Y-95575000D01*
X185296009Y-95570925D01*
X185262121Y-95560645D01*
X185230888Y-95543950D01*
X185203514Y-95521486D01*
X185181050Y-95494112D01*
X185164355Y-95462879D01*
X185154075Y-95428991D01*
X185150000Y-95387612D01*
X185150000Y-94712388D01*
X185154075Y-94671009D01*
X185164355Y-94637121D01*
X185181050Y-94605888D01*
X185203514Y-94578514D01*
X185230888Y-94556050D01*
X185262121Y-94539355D01*
X185296009Y-94529075D01*
X185337388Y-94525000D01*
X185937612Y-94525000D01*
X185978991Y-94529075D01*
G37*
G36*
X149853991Y-92979075D02*
G01*
X149887879Y-92989355D01*
X149919112Y-93006050D01*
X149946486Y-93028514D01*
X149968950Y-93055888D01*
X149985645Y-93087121D01*
X149995925Y-93121009D01*
X150000000Y-93162388D01*
X150000000Y-93837612D01*
X149995925Y-93878991D01*
X149985645Y-93912879D01*
X149968950Y-93944112D01*
X149946486Y-93971486D01*
X149919112Y-93993950D01*
X149887879Y-94010645D01*
X149853991Y-94020925D01*
X149812612Y-94025000D01*
X149212388Y-94025000D01*
X149171009Y-94020925D01*
X149137121Y-94010645D01*
X149105888Y-93993950D01*
X149078514Y-93971486D01*
X149056050Y-93944112D01*
X149039355Y-93912879D01*
X149029075Y-93878991D01*
X149025000Y-93837612D01*
X149025000Y-93162388D01*
X149029075Y-93121009D01*
X149039355Y-93087121D01*
X149056050Y-93055888D01*
X149078514Y-93028514D01*
X149105888Y-93006050D01*
X149137121Y-92989355D01*
X149171009Y-92979075D01*
X149212388Y-92975000D01*
X149812612Y-92975000D01*
X149853991Y-92979075D01*
G37*
G36*
X151428991Y-92979075D02*
G01*
X151462879Y-92989355D01*
X151494112Y-93006050D01*
X151521486Y-93028514D01*
X151543950Y-93055888D01*
X151560645Y-93087121D01*
X151570925Y-93121009D01*
X151575000Y-93162388D01*
X151575000Y-93837612D01*
X151570925Y-93878991D01*
X151560645Y-93912879D01*
X151543950Y-93944112D01*
X151521486Y-93971486D01*
X151494112Y-93993950D01*
X151462879Y-94010645D01*
X151428991Y-94020925D01*
X151387612Y-94025000D01*
X150787388Y-94025000D01*
X150746009Y-94020925D01*
X150712121Y-94010645D01*
X150680888Y-93993950D01*
X150653514Y-93971486D01*
X150631050Y-93944112D01*
X150614355Y-93912879D01*
X150604075Y-93878991D01*
X150600000Y-93837612D01*
X150600000Y-93162388D01*
X150604075Y-93121009D01*
X150614355Y-93087121D01*
X150631050Y-93055888D01*
X150653514Y-93028514D01*
X150680888Y-93006050D01*
X150712121Y-92989355D01*
X150746009Y-92979075D01*
X150787388Y-92975000D01*
X151387612Y-92975000D01*
X151428991Y-92979075D01*
G37*
G36*
X153603991Y-92379075D02*
G01*
X153637879Y-92389355D01*
X153669112Y-92406050D01*
X153696486Y-92428514D01*
X153718950Y-92455888D01*
X153735645Y-92487121D01*
X153745925Y-92521009D01*
X153750000Y-92562388D01*
X153750000Y-93237612D01*
X153745925Y-93278991D01*
X153735645Y-93312879D01*
X153718950Y-93344112D01*
X153696486Y-93371486D01*
X153669112Y-93393950D01*
X153637879Y-93410645D01*
X153603991Y-93420925D01*
X153562612Y-93425000D01*
X152962388Y-93425000D01*
X152921009Y-93420925D01*
X152887121Y-93410645D01*
X152855888Y-93393950D01*
X152828514Y-93371486D01*
X152806050Y-93344112D01*
X152789355Y-93312879D01*
X152779075Y-93278991D01*
X152775000Y-93237612D01*
X152775000Y-92562388D01*
X152779075Y-92521009D01*
X152789355Y-92487121D01*
X152806050Y-92455888D01*
X152828514Y-92428514D01*
X152855888Y-92406050D01*
X152887121Y-92389355D01*
X152921009Y-92379075D01*
X152962388Y-92375000D01*
X153562612Y-92375000D01*
X153603991Y-92379075D01*
G37*
G36*
X155178991Y-92379075D02*
G01*
X155212879Y-92389355D01*
X155244112Y-92406050D01*
X155271486Y-92428514D01*
X155293950Y-92455888D01*
X155310645Y-92487121D01*
X155320925Y-92521009D01*
X155325000Y-92562388D01*
X155325000Y-93237612D01*
X155320925Y-93278991D01*
X155310645Y-93312879D01*
X155293950Y-93344112D01*
X155271486Y-93371486D01*
X155244112Y-93393950D01*
X155212879Y-93410645D01*
X155178991Y-93420925D01*
X155137612Y-93425000D01*
X154537388Y-93425000D01*
X154496009Y-93420925D01*
X154462121Y-93410645D01*
X154430888Y-93393950D01*
X154403514Y-93371486D01*
X154381050Y-93344112D01*
X154364355Y-93312879D01*
X154354075Y-93278991D01*
X154350000Y-93237612D01*
X154350000Y-92562388D01*
X154354075Y-92521009D01*
X154364355Y-92487121D01*
X154381050Y-92455888D01*
X154403514Y-92428514D01*
X154430888Y-92406050D01*
X154462121Y-92389355D01*
X154496009Y-92379075D01*
X154537388Y-92375000D01*
X155137612Y-92375000D01*
X155178991Y-92379075D01*
G37*
G36*
X142058867Y-90904556D02*
G01*
X142097448Y-90916259D01*
X142133001Y-90935263D01*
X142164163Y-90960837D01*
X142189737Y-90991999D01*
X142208741Y-91027552D01*
X142220444Y-91066133D01*
X142225000Y-91112390D01*
X142225000Y-92187610D01*
X142220444Y-92233867D01*
X142208741Y-92272448D01*
X142189737Y-92308001D01*
X142164163Y-92339163D01*
X142133001Y-92364737D01*
X142097448Y-92383741D01*
X142058867Y-92395444D01*
X142012610Y-92400000D01*
X141362390Y-92400000D01*
X141316133Y-92395444D01*
X141277552Y-92383741D01*
X141241999Y-92364737D01*
X141210837Y-92339163D01*
X141185263Y-92308001D01*
X141166259Y-92272448D01*
X141154556Y-92233867D01*
X141150000Y-92187610D01*
X141150000Y-91112390D01*
X141154556Y-91066133D01*
X141166259Y-91027552D01*
X141185263Y-90991999D01*
X141210837Y-90960837D01*
X141241999Y-90935263D01*
X141277552Y-90916259D01*
X141316133Y-90904556D01*
X141362390Y-90900000D01*
X142012610Y-90900000D01*
X142058867Y-90904556D01*
G37*
G36*
X140183867Y-90904556D02*
G01*
X140222448Y-90916259D01*
X140258001Y-90935263D01*
X140289163Y-90960837D01*
X140314737Y-90991999D01*
X140333741Y-91027552D01*
X140345444Y-91066133D01*
X140350000Y-91112390D01*
X140350000Y-92187610D01*
X140345444Y-92233867D01*
X140333741Y-92272448D01*
X140314737Y-92308001D01*
X140289163Y-92339163D01*
X140258001Y-92364737D01*
X140222448Y-92383741D01*
X140183867Y-92395444D01*
X140137610Y-92400000D01*
X139487390Y-92400000D01*
X139441133Y-92395444D01*
X139402552Y-92383741D01*
X139366999Y-92364737D01*
X139335837Y-92339163D01*
X139310263Y-92308001D01*
X139291259Y-92272448D01*
X139279556Y-92233867D01*
X139275000Y-92187610D01*
X139275000Y-91112390D01*
X139279556Y-91066133D01*
X139291259Y-91027552D01*
X139310263Y-90991999D01*
X139335837Y-90960837D01*
X139366999Y-90935263D01*
X139402552Y-90916259D01*
X139441133Y-90904556D01*
X139487390Y-90900000D01*
X140137610Y-90900000D01*
X140183867Y-90904556D01*
G37*
G36*
X153603991Y-90879075D02*
G01*
X153637879Y-90889355D01*
X153669112Y-90906050D01*
X153696486Y-90928514D01*
X153718950Y-90955888D01*
X153735645Y-90987121D01*
X153745925Y-91021009D01*
X153750000Y-91062388D01*
X153750000Y-91737612D01*
X153745925Y-91778991D01*
X153735645Y-91812879D01*
X153718950Y-91844112D01*
X153696486Y-91871486D01*
X153669112Y-91893950D01*
X153637879Y-91910645D01*
X153603991Y-91920925D01*
X153562612Y-91925000D01*
X152962388Y-91925000D01*
X152921009Y-91920925D01*
X152887121Y-91910645D01*
X152855888Y-91893950D01*
X152828514Y-91871486D01*
X152806050Y-91844112D01*
X152789355Y-91812879D01*
X152779075Y-91778991D01*
X152775000Y-91737612D01*
X152775000Y-91062388D01*
X152779075Y-91021009D01*
X152789355Y-90987121D01*
X152806050Y-90955888D01*
X152828514Y-90928514D01*
X152855888Y-90906050D01*
X152887121Y-90889355D01*
X152921009Y-90879075D01*
X152962388Y-90875000D01*
X153562612Y-90875000D01*
X153603991Y-90879075D01*
G37*
G36*
X155178991Y-90879075D02*
G01*
X155212879Y-90889355D01*
X155244112Y-90906050D01*
X155271486Y-90928514D01*
X155293950Y-90955888D01*
X155310645Y-90987121D01*
X155320925Y-91021009D01*
X155325000Y-91062388D01*
X155325000Y-91737612D01*
X155320925Y-91778991D01*
X155310645Y-91812879D01*
X155293950Y-91844112D01*
X155271486Y-91871486D01*
X155244112Y-91893950D01*
X155212879Y-91910645D01*
X155178991Y-91920925D01*
X155137612Y-91925000D01*
X154537388Y-91925000D01*
X154496009Y-91920925D01*
X154462121Y-91910645D01*
X154430888Y-91893950D01*
X154403514Y-91871486D01*
X154381050Y-91844112D01*
X154364355Y-91812879D01*
X154354075Y-91778991D01*
X154350000Y-91737612D01*
X154350000Y-91062388D01*
X154354075Y-91021009D01*
X154364355Y-90987121D01*
X154381050Y-90955888D01*
X154403514Y-90928514D01*
X154430888Y-90906050D01*
X154462121Y-90889355D01*
X154496009Y-90879075D01*
X154537388Y-90875000D01*
X155137612Y-90875000D01*
X155178991Y-90879075D01*
G37*
G36*
X163000000Y-91250000D02*
G01*
X159100000Y-91250000D01*
X159100000Y-89150000D01*
X163000000Y-89150000D01*
X163000000Y-91250000D01*
G37*
G36*
X171353991Y-89479075D02*
G01*
X171387879Y-89489355D01*
X171419112Y-89506050D01*
X171446486Y-89528514D01*
X171468950Y-89555888D01*
X171485645Y-89587121D01*
X171495925Y-89621009D01*
X171500000Y-89662388D01*
X171500000Y-90337612D01*
X171495925Y-90378991D01*
X171485645Y-90412879D01*
X171468950Y-90444112D01*
X171446486Y-90471486D01*
X171419112Y-90493950D01*
X171387879Y-90510645D01*
X171353991Y-90520925D01*
X171312612Y-90525000D01*
X170712388Y-90525000D01*
X170671009Y-90520925D01*
X170637121Y-90510645D01*
X170605888Y-90493950D01*
X170578514Y-90471486D01*
X170556050Y-90444112D01*
X170539355Y-90412879D01*
X170529075Y-90378991D01*
X170525000Y-90337612D01*
X170525000Y-89662388D01*
X170529075Y-89621009D01*
X170539355Y-89587121D01*
X170556050Y-89555888D01*
X170578514Y-89528514D01*
X170605888Y-89506050D01*
X170637121Y-89489355D01*
X170671009Y-89479075D01*
X170712388Y-89475000D01*
X171312612Y-89475000D01*
X171353991Y-89479075D01*
G37*
G36*
X172928991Y-89479075D02*
G01*
X172962879Y-89489355D01*
X172994112Y-89506050D01*
X173021486Y-89528514D01*
X173043950Y-89555888D01*
X173060645Y-89587121D01*
X173070925Y-89621009D01*
X173075000Y-89662388D01*
X173075000Y-90337612D01*
X173070925Y-90378991D01*
X173060645Y-90412879D01*
X173043950Y-90444112D01*
X173021486Y-90471486D01*
X172994112Y-90493950D01*
X172962879Y-90510645D01*
X172928991Y-90520925D01*
X172887612Y-90525000D01*
X172287388Y-90525000D01*
X172246009Y-90520925D01*
X172212121Y-90510645D01*
X172180888Y-90493950D01*
X172153514Y-90471486D01*
X172131050Y-90444112D01*
X172114355Y-90412879D01*
X172104075Y-90378991D01*
X172100000Y-90337612D01*
X172100000Y-89662388D01*
X172104075Y-89621009D01*
X172114355Y-89587121D01*
X172131050Y-89555888D01*
X172153514Y-89528514D01*
X172180888Y-89506050D01*
X172212121Y-89489355D01*
X172246009Y-89479075D01*
X172287388Y-89475000D01*
X172887612Y-89475000D01*
X172928991Y-89479075D01*
G37*
G36*
X153603991Y-89379075D02*
G01*
X153637879Y-89389355D01*
X153669112Y-89406050D01*
X153696486Y-89428514D01*
X153718950Y-89455888D01*
X153735645Y-89487121D01*
X153745925Y-89521009D01*
X153750000Y-89562388D01*
X153750000Y-90237612D01*
X153745925Y-90278991D01*
X153735645Y-90312879D01*
X153718950Y-90344112D01*
X153696486Y-90371486D01*
X153669112Y-90393950D01*
X153637879Y-90410645D01*
X153603991Y-90420925D01*
X153562612Y-90425000D01*
X152962388Y-90425000D01*
X152921009Y-90420925D01*
X152887121Y-90410645D01*
X152855888Y-90393950D01*
X152828514Y-90371486D01*
X152806050Y-90344112D01*
X152789355Y-90312879D01*
X152779075Y-90278991D01*
X152775000Y-90237612D01*
X152775000Y-89562388D01*
X152779075Y-89521009D01*
X152789355Y-89487121D01*
X152806050Y-89455888D01*
X152828514Y-89428514D01*
X152855888Y-89406050D01*
X152887121Y-89389355D01*
X152921009Y-89379075D01*
X152962388Y-89375000D01*
X153562612Y-89375000D01*
X153603991Y-89379075D01*
G37*
G36*
X155178991Y-89379075D02*
G01*
X155212879Y-89389355D01*
X155244112Y-89406050D01*
X155271486Y-89428514D01*
X155293950Y-89455888D01*
X155310645Y-89487121D01*
X155320925Y-89521009D01*
X155325000Y-89562388D01*
X155325000Y-90237612D01*
X155320925Y-90278991D01*
X155310645Y-90312879D01*
X155293950Y-90344112D01*
X155271486Y-90371486D01*
X155244112Y-90393950D01*
X155212879Y-90410645D01*
X155178991Y-90420925D01*
X155137612Y-90425000D01*
X154537388Y-90425000D01*
X154496009Y-90420925D01*
X154462121Y-90410645D01*
X154430888Y-90393950D01*
X154403514Y-90371486D01*
X154381050Y-90344112D01*
X154364355Y-90312879D01*
X154354075Y-90278991D01*
X154350000Y-90237612D01*
X154350000Y-89562388D01*
X154354075Y-89521009D01*
X154364355Y-89487121D01*
X154381050Y-89455888D01*
X154403514Y-89428514D01*
X154430888Y-89406050D01*
X154462121Y-89389355D01*
X154496009Y-89379075D01*
X154537388Y-89375000D01*
X155137612Y-89375000D01*
X155178991Y-89379075D01*
G37*
G36*
X172928991Y-87979075D02*
G01*
X172962879Y-87989355D01*
X172994112Y-88006050D01*
X173021486Y-88028514D01*
X173043950Y-88055888D01*
X173060645Y-88087121D01*
X173070925Y-88121009D01*
X173075000Y-88162388D01*
X173075000Y-88837612D01*
X173070925Y-88878991D01*
X173060645Y-88912879D01*
X173043950Y-88944112D01*
X173021486Y-88971486D01*
X172994112Y-88993950D01*
X172962879Y-89010645D01*
X172928991Y-89020925D01*
X172887612Y-89025000D01*
X172287388Y-89025000D01*
X172246009Y-89020925D01*
X172212121Y-89010645D01*
X172180888Y-88993950D01*
X172153514Y-88971486D01*
X172131050Y-88944112D01*
X172114355Y-88912879D01*
X172104075Y-88878991D01*
X172100000Y-88837612D01*
X172100000Y-88162388D01*
X172104075Y-88121009D01*
X172114355Y-88087121D01*
X172131050Y-88055888D01*
X172153514Y-88028514D01*
X172180888Y-88006050D01*
X172212121Y-87989355D01*
X172246009Y-87979075D01*
X172287388Y-87975000D01*
X172887612Y-87975000D01*
X172928991Y-87979075D01*
G37*
G36*
X171353991Y-87979075D02*
G01*
X171387879Y-87989355D01*
X171419112Y-88006050D01*
X171446486Y-88028514D01*
X171468950Y-88055888D01*
X171485645Y-88087121D01*
X171495925Y-88121009D01*
X171500000Y-88162388D01*
X171500000Y-88837612D01*
X171495925Y-88878991D01*
X171485645Y-88912879D01*
X171468950Y-88944112D01*
X171446486Y-88971486D01*
X171419112Y-88993950D01*
X171387879Y-89010645D01*
X171353991Y-89020925D01*
X171312612Y-89025000D01*
X170712388Y-89025000D01*
X170671009Y-89020925D01*
X170637121Y-89010645D01*
X170605888Y-88993950D01*
X170578514Y-88971486D01*
X170556050Y-88944112D01*
X170539355Y-88912879D01*
X170529075Y-88878991D01*
X170525000Y-88837612D01*
X170525000Y-88162388D01*
X170529075Y-88121009D01*
X170539355Y-88087121D01*
X170556050Y-88055888D01*
X170578514Y-88028514D01*
X170605888Y-88006050D01*
X170637121Y-87989355D01*
X170671009Y-87979075D01*
X170712388Y-87975000D01*
X171312612Y-87975000D01*
X171353991Y-87979075D01*
G37*
G36*
X140403991Y-87079075D02*
G01*
X140437879Y-87089355D01*
X140469112Y-87106050D01*
X140496486Y-87128514D01*
X140518950Y-87155888D01*
X140535645Y-87187121D01*
X140545925Y-87221009D01*
X140550000Y-87262388D01*
X140550000Y-87937612D01*
X140545925Y-87978991D01*
X140535645Y-88012879D01*
X140518950Y-88044112D01*
X140496486Y-88071486D01*
X140469112Y-88093950D01*
X140437879Y-88110645D01*
X140403991Y-88120925D01*
X140362612Y-88125000D01*
X139762388Y-88125000D01*
X139721009Y-88120925D01*
X139687121Y-88110645D01*
X139655888Y-88093950D01*
X139628514Y-88071486D01*
X139606050Y-88044112D01*
X139589355Y-88012879D01*
X139579075Y-87978991D01*
X139575000Y-87937612D01*
X139575000Y-87262388D01*
X139579075Y-87221009D01*
X139589355Y-87187121D01*
X139606050Y-87155888D01*
X139628514Y-87128514D01*
X139655888Y-87106050D01*
X139687121Y-87089355D01*
X139721009Y-87079075D01*
X139762388Y-87075000D01*
X140362612Y-87075000D01*
X140403991Y-87079075D01*
G37*
G36*
X141978991Y-87079075D02*
G01*
X142012879Y-87089355D01*
X142044112Y-87106050D01*
X142071486Y-87128514D01*
X142093950Y-87155888D01*
X142110645Y-87187121D01*
X142120925Y-87221009D01*
X142125000Y-87262388D01*
X142125000Y-87937612D01*
X142120925Y-87978991D01*
X142110645Y-88012879D01*
X142093950Y-88044112D01*
X142071486Y-88071486D01*
X142044112Y-88093950D01*
X142012879Y-88110645D01*
X141978991Y-88120925D01*
X141937612Y-88125000D01*
X141337388Y-88125000D01*
X141296009Y-88120925D01*
X141262121Y-88110645D01*
X141230888Y-88093950D01*
X141203514Y-88071486D01*
X141181050Y-88044112D01*
X141164355Y-88012879D01*
X141154075Y-87978991D01*
X141150000Y-87937612D01*
X141150000Y-87262388D01*
X141154075Y-87221009D01*
X141164355Y-87187121D01*
X141181050Y-87155888D01*
X141203514Y-87128514D01*
X141230888Y-87106050D01*
X141262121Y-87089355D01*
X141296009Y-87079075D01*
X141337388Y-87075000D01*
X141937612Y-87075000D01*
X141978991Y-87079075D01*
G37*
G36*
X140400000Y-86500000D02*
G01*
X139500000Y-86500000D01*
X139500000Y-85900000D01*
X140400000Y-85900000D01*
X140400000Y-86500000D01*
G37*
G36*
X142200000Y-86500000D02*
G01*
X141300000Y-86500000D01*
X141300000Y-85900000D01*
X142200000Y-85900000D01*
X142200000Y-86500000D01*
G37*
G36*
X138828991Y-85304075D02*
G01*
X138862879Y-85314355D01*
X138894112Y-85331050D01*
X138921486Y-85353514D01*
X138943950Y-85380888D01*
X138960645Y-85412121D01*
X138970925Y-85446009D01*
X138975000Y-85487388D01*
X138975000Y-86087612D01*
X138970925Y-86128991D01*
X138960645Y-86162879D01*
X138943950Y-86194112D01*
X138921486Y-86221486D01*
X138894112Y-86243950D01*
X138862879Y-86260645D01*
X138828991Y-86270925D01*
X138787612Y-86275000D01*
X138112388Y-86275000D01*
X138071009Y-86270925D01*
X138037121Y-86260645D01*
X138005888Y-86243950D01*
X137978514Y-86221486D01*
X137956050Y-86194112D01*
X137939355Y-86162879D01*
X137929075Y-86128991D01*
X137925000Y-86087612D01*
X137925000Y-85487388D01*
X137929075Y-85446009D01*
X137939355Y-85412121D01*
X137956050Y-85380888D01*
X137978514Y-85353514D01*
X138005888Y-85331050D01*
X138037121Y-85314355D01*
X138071009Y-85304075D01*
X138112388Y-85300000D01*
X138787612Y-85300000D01*
X138828991Y-85304075D01*
G37*
G36*
X142200000Y-85650000D02*
G01*
X141300000Y-85650000D01*
X141300000Y-85150000D01*
X142200000Y-85150000D01*
X142200000Y-85650000D01*
G37*
G36*
X140400000Y-85650000D02*
G01*
X139500000Y-85650000D01*
X139500000Y-85150000D01*
X140400000Y-85150000D01*
X140400000Y-85650000D01*
G37*
G36*
X169428991Y-84636075D02*
G01*
X169462879Y-84646355D01*
X169494112Y-84663050D01*
X169521486Y-84685514D01*
X169543950Y-84712888D01*
X169560645Y-84744121D01*
X169570925Y-84778009D01*
X169575000Y-84819388D01*
X169575000Y-85419612D01*
X169570925Y-85460991D01*
X169560645Y-85494879D01*
X169543950Y-85526112D01*
X169521486Y-85553486D01*
X169494112Y-85575950D01*
X169462879Y-85592645D01*
X169428991Y-85602925D01*
X169387612Y-85607000D01*
X168712388Y-85607000D01*
X168671009Y-85602925D01*
X168637121Y-85592645D01*
X168605888Y-85575950D01*
X168578514Y-85553486D01*
X168556050Y-85526112D01*
X168539355Y-85494879D01*
X168529075Y-85460991D01*
X168525000Y-85419612D01*
X168525000Y-84819388D01*
X168529075Y-84778009D01*
X168539355Y-84744121D01*
X168556050Y-84712888D01*
X168578514Y-84685514D01*
X168605888Y-84663050D01*
X168637121Y-84646355D01*
X168671009Y-84636075D01*
X168712388Y-84632000D01*
X169387612Y-84632000D01*
X169428991Y-84636075D01*
G37*
G36*
X161428991Y-84554075D02*
G01*
X161462879Y-84564355D01*
X161494112Y-84581050D01*
X161521486Y-84603514D01*
X161543950Y-84630888D01*
X161560645Y-84662121D01*
X161570925Y-84696009D01*
X161575000Y-84737388D01*
X161575000Y-85337612D01*
X161570925Y-85378991D01*
X161560645Y-85412879D01*
X161543950Y-85444112D01*
X161521486Y-85471486D01*
X161494112Y-85493950D01*
X161462879Y-85510645D01*
X161428991Y-85520925D01*
X161387612Y-85525000D01*
X160712388Y-85525000D01*
X160671009Y-85520925D01*
X160637121Y-85510645D01*
X160605888Y-85493950D01*
X160578514Y-85471486D01*
X160556050Y-85444112D01*
X160539355Y-85412879D01*
X160529075Y-85378991D01*
X160525000Y-85337612D01*
X160525000Y-84737388D01*
X160529075Y-84696009D01*
X160539355Y-84662121D01*
X160556050Y-84630888D01*
X160578514Y-84603514D01*
X160605888Y-84581050D01*
X160637121Y-84564355D01*
X160671009Y-84554075D01*
X160712388Y-84550000D01*
X161387612Y-84550000D01*
X161428991Y-84554075D01*
G37*
G36*
X162928991Y-84554075D02*
G01*
X162962879Y-84564355D01*
X162994112Y-84581050D01*
X163021486Y-84603514D01*
X163043950Y-84630888D01*
X163060645Y-84662121D01*
X163070925Y-84696009D01*
X163075000Y-84737388D01*
X163075000Y-85337612D01*
X163070925Y-85378991D01*
X163060645Y-85412879D01*
X163043950Y-85444112D01*
X163021486Y-85471486D01*
X162994112Y-85493950D01*
X162962879Y-85510645D01*
X162928991Y-85520925D01*
X162887612Y-85525000D01*
X162212388Y-85525000D01*
X162171009Y-85520925D01*
X162137121Y-85510645D01*
X162105888Y-85493950D01*
X162078514Y-85471486D01*
X162056050Y-85444112D01*
X162039355Y-85412879D01*
X162029075Y-85378991D01*
X162025000Y-85337612D01*
X162025000Y-84737388D01*
X162029075Y-84696009D01*
X162039355Y-84662121D01*
X162056050Y-84630888D01*
X162078514Y-84603514D01*
X162105888Y-84581050D01*
X162137121Y-84564355D01*
X162171009Y-84554075D01*
X162212388Y-84550000D01*
X162887612Y-84550000D01*
X162928991Y-84554075D01*
G37*
G36*
X159928991Y-84554075D02*
G01*
X159962879Y-84564355D01*
X159994112Y-84581050D01*
X160021486Y-84603514D01*
X160043950Y-84630888D01*
X160060645Y-84662121D01*
X160070925Y-84696009D01*
X160075000Y-84737388D01*
X160075000Y-85337612D01*
X160070925Y-85378991D01*
X160060645Y-85412879D01*
X160043950Y-85444112D01*
X160021486Y-85471486D01*
X159994112Y-85493950D01*
X159962879Y-85510645D01*
X159928991Y-85520925D01*
X159887612Y-85525000D01*
X159212388Y-85525000D01*
X159171009Y-85520925D01*
X159137121Y-85510645D01*
X159105888Y-85493950D01*
X159078514Y-85471486D01*
X159056050Y-85444112D01*
X159039355Y-85412879D01*
X159029075Y-85378991D01*
X159025000Y-85337612D01*
X159025000Y-84737388D01*
X159029075Y-84696009D01*
X159039355Y-84662121D01*
X159056050Y-84630888D01*
X159078514Y-84603514D01*
X159105888Y-84581050D01*
X159137121Y-84564355D01*
X159171009Y-84554075D01*
X159212388Y-84550000D01*
X159887612Y-84550000D01*
X159928991Y-84554075D01*
G37*
G36*
X165928991Y-84554075D02*
G01*
X165962879Y-84564355D01*
X165994112Y-84581050D01*
X166021486Y-84603514D01*
X166043950Y-84630888D01*
X166060645Y-84662121D01*
X166070925Y-84696009D01*
X166075000Y-84737388D01*
X166075000Y-85337612D01*
X166070925Y-85378991D01*
X166060645Y-85412879D01*
X166043950Y-85444112D01*
X166021486Y-85471486D01*
X165994112Y-85493950D01*
X165962879Y-85510645D01*
X165928991Y-85520925D01*
X165887612Y-85525000D01*
X165212388Y-85525000D01*
X165171009Y-85520925D01*
X165137121Y-85510645D01*
X165105888Y-85493950D01*
X165078514Y-85471486D01*
X165056050Y-85444112D01*
X165039355Y-85412879D01*
X165029075Y-85378991D01*
X165025000Y-85337612D01*
X165025000Y-84737388D01*
X165029075Y-84696009D01*
X165039355Y-84662121D01*
X165056050Y-84630888D01*
X165078514Y-84603514D01*
X165105888Y-84581050D01*
X165137121Y-84564355D01*
X165171009Y-84554075D01*
X165212388Y-84550000D01*
X165887612Y-84550000D01*
X165928991Y-84554075D01*
G37*
G36*
X164428991Y-84554075D02*
G01*
X164462879Y-84564355D01*
X164494112Y-84581050D01*
X164521486Y-84603514D01*
X164543950Y-84630888D01*
X164560645Y-84662121D01*
X164570925Y-84696009D01*
X164575000Y-84737388D01*
X164575000Y-85337612D01*
X164570925Y-85378991D01*
X164560645Y-85412879D01*
X164543950Y-85444112D01*
X164521486Y-85471486D01*
X164494112Y-85493950D01*
X164462879Y-85510645D01*
X164428991Y-85520925D01*
X164387612Y-85525000D01*
X163712388Y-85525000D01*
X163671009Y-85520925D01*
X163637121Y-85510645D01*
X163605888Y-85493950D01*
X163578514Y-85471486D01*
X163556050Y-85444112D01*
X163539355Y-85412879D01*
X163529075Y-85378991D01*
X163525000Y-85337612D01*
X163525000Y-84737388D01*
X163529075Y-84696009D01*
X163539355Y-84662121D01*
X163556050Y-84630888D01*
X163578514Y-84603514D01*
X163605888Y-84581050D01*
X163637121Y-84564355D01*
X163671009Y-84554075D01*
X163712388Y-84550000D01*
X164387612Y-84550000D01*
X164428991Y-84554075D01*
G37*
G36*
X154128991Y-84029075D02*
G01*
X154162879Y-84039355D01*
X154194112Y-84056050D01*
X154221486Y-84078514D01*
X154243950Y-84105888D01*
X154260645Y-84137121D01*
X154270925Y-84171009D01*
X154275000Y-84212388D01*
X154275000Y-84887612D01*
X154270925Y-84928991D01*
X154260645Y-84962879D01*
X154243950Y-84994112D01*
X154221486Y-85021486D01*
X154194112Y-85043950D01*
X154162879Y-85060645D01*
X154128991Y-85070925D01*
X154087612Y-85075000D01*
X153487388Y-85075000D01*
X153446009Y-85070925D01*
X153412121Y-85060645D01*
X153380888Y-85043950D01*
X153353514Y-85021486D01*
X153331050Y-84994112D01*
X153314355Y-84962879D01*
X153304075Y-84928991D01*
X153300000Y-84887612D01*
X153300000Y-84212388D01*
X153304075Y-84171009D01*
X153314355Y-84137121D01*
X153331050Y-84105888D01*
X153353514Y-84078514D01*
X153380888Y-84056050D01*
X153412121Y-84039355D01*
X153446009Y-84029075D01*
X153487388Y-84025000D01*
X154087612Y-84025000D01*
X154128991Y-84029075D01*
G37*
G36*
X152553991Y-84029075D02*
G01*
X152587879Y-84039355D01*
X152619112Y-84056050D01*
X152646486Y-84078514D01*
X152668950Y-84105888D01*
X152685645Y-84137121D01*
X152695925Y-84171009D01*
X152700000Y-84212388D01*
X152700000Y-84887612D01*
X152695925Y-84928991D01*
X152685645Y-84962879D01*
X152668950Y-84994112D01*
X152646486Y-85021486D01*
X152619112Y-85043950D01*
X152587879Y-85060645D01*
X152553991Y-85070925D01*
X152512612Y-85075000D01*
X151912388Y-85075000D01*
X151871009Y-85070925D01*
X151837121Y-85060645D01*
X151805888Y-85043950D01*
X151778514Y-85021486D01*
X151756050Y-84994112D01*
X151739355Y-84962879D01*
X151729075Y-84928991D01*
X151725000Y-84887612D01*
X151725000Y-84212388D01*
X151729075Y-84171009D01*
X151739355Y-84137121D01*
X151756050Y-84105888D01*
X151778514Y-84078514D01*
X151805888Y-84056050D01*
X151837121Y-84039355D01*
X151871009Y-84029075D01*
X151912388Y-84025000D01*
X152512612Y-84025000D01*
X152553991Y-84029075D01*
G37*
G36*
X142200000Y-84850000D02*
G01*
X141300000Y-84850000D01*
X141300000Y-84350000D01*
X142200000Y-84350000D01*
X142200000Y-84850000D01*
G37*
G36*
X140400000Y-84850000D02*
G01*
X139500000Y-84850000D01*
X139500000Y-84350000D01*
X140400000Y-84350000D01*
X140400000Y-84850000D01*
G37*
G36*
X138828991Y-83729075D02*
G01*
X138862879Y-83739355D01*
X138894112Y-83756050D01*
X138921486Y-83778514D01*
X138943950Y-83805888D01*
X138960645Y-83837121D01*
X138970925Y-83871009D01*
X138975000Y-83912388D01*
X138975000Y-84512612D01*
X138970925Y-84553991D01*
X138960645Y-84587879D01*
X138943950Y-84619112D01*
X138921486Y-84646486D01*
X138894112Y-84668950D01*
X138862879Y-84685645D01*
X138828991Y-84695925D01*
X138787612Y-84700000D01*
X138112388Y-84700000D01*
X138071009Y-84695925D01*
X138037121Y-84685645D01*
X138005888Y-84668950D01*
X137978514Y-84646486D01*
X137956050Y-84619112D01*
X137939355Y-84587879D01*
X137929075Y-84553991D01*
X137925000Y-84512612D01*
X137925000Y-83912388D01*
X137929075Y-83871009D01*
X137939355Y-83837121D01*
X137956050Y-83805888D01*
X137978514Y-83778514D01*
X138005888Y-83756050D01*
X138037121Y-83739355D01*
X138071009Y-83729075D01*
X138112388Y-83725000D01*
X138787612Y-83725000D01*
X138828991Y-83729075D01*
G37*
G36*
X190228991Y-83479075D02*
G01*
X190262879Y-83489355D01*
X190294112Y-83506050D01*
X190321486Y-83528514D01*
X190343950Y-83555888D01*
X190360645Y-83587121D01*
X190370925Y-83621009D01*
X190375000Y-83662388D01*
X190375000Y-84337612D01*
X190370925Y-84378991D01*
X190360645Y-84412879D01*
X190343950Y-84444112D01*
X190321486Y-84471486D01*
X190294112Y-84493950D01*
X190262879Y-84510645D01*
X190228991Y-84520925D01*
X190187612Y-84525000D01*
X189587388Y-84525000D01*
X189546009Y-84520925D01*
X189512121Y-84510645D01*
X189480888Y-84493950D01*
X189453514Y-84471486D01*
X189431050Y-84444112D01*
X189414355Y-84412879D01*
X189404075Y-84378991D01*
X189400000Y-84337612D01*
X189400000Y-83662388D01*
X189404075Y-83621009D01*
X189414355Y-83587121D01*
X189431050Y-83555888D01*
X189453514Y-83528514D01*
X189480888Y-83506050D01*
X189512121Y-83489355D01*
X189546009Y-83479075D01*
X189587388Y-83475000D01*
X190187612Y-83475000D01*
X190228991Y-83479075D01*
G37*
G36*
X188653991Y-83479075D02*
G01*
X188687879Y-83489355D01*
X188719112Y-83506050D01*
X188746486Y-83528514D01*
X188768950Y-83555888D01*
X188785645Y-83587121D01*
X188795925Y-83621009D01*
X188800000Y-83662388D01*
X188800000Y-84337612D01*
X188795925Y-84378991D01*
X188785645Y-84412879D01*
X188768950Y-84444112D01*
X188746486Y-84471486D01*
X188719112Y-84493950D01*
X188687879Y-84510645D01*
X188653991Y-84520925D01*
X188612612Y-84525000D01*
X188012388Y-84525000D01*
X187971009Y-84520925D01*
X187937121Y-84510645D01*
X187905888Y-84493950D01*
X187878514Y-84471486D01*
X187856050Y-84444112D01*
X187839355Y-84412879D01*
X187829075Y-84378991D01*
X187825000Y-84337612D01*
X187825000Y-83662388D01*
X187829075Y-83621009D01*
X187839355Y-83587121D01*
X187856050Y-83555888D01*
X187878514Y-83528514D01*
X187905888Y-83506050D01*
X187937121Y-83489355D01*
X187971009Y-83479075D01*
X188012388Y-83475000D01*
X188612612Y-83475000D01*
X188653991Y-83479075D01*
G37*
G36*
X140400000Y-84100000D02*
G01*
X139500000Y-84100000D01*
X139500000Y-83500000D01*
X140400000Y-83500000D01*
X140400000Y-84100000D01*
G37*
G36*
X142200000Y-84100000D02*
G01*
X141300000Y-84100000D01*
X141300000Y-83500000D01*
X142200000Y-83500000D01*
X142200000Y-84100000D01*
G37*
G36*
X169428991Y-83061075D02*
G01*
X169462879Y-83071355D01*
X169494112Y-83088050D01*
X169521486Y-83110514D01*
X169543950Y-83137888D01*
X169560645Y-83169121D01*
X169570925Y-83203009D01*
X169575000Y-83244388D01*
X169575000Y-83844612D01*
X169570925Y-83885991D01*
X169560645Y-83919879D01*
X169543950Y-83951112D01*
X169521486Y-83978486D01*
X169494112Y-84000950D01*
X169462879Y-84017645D01*
X169428991Y-84027925D01*
X169387612Y-84032000D01*
X168712388Y-84032000D01*
X168671009Y-84027925D01*
X168637121Y-84017645D01*
X168605888Y-84000950D01*
X168578514Y-83978486D01*
X168556050Y-83951112D01*
X168539355Y-83919879D01*
X168529075Y-83885991D01*
X168525000Y-83844612D01*
X168525000Y-83244388D01*
X168529075Y-83203009D01*
X168539355Y-83169121D01*
X168556050Y-83137888D01*
X168578514Y-83110514D01*
X168605888Y-83088050D01*
X168637121Y-83071355D01*
X168671009Y-83061075D01*
X168712388Y-83057000D01*
X169387612Y-83057000D01*
X169428991Y-83061075D01*
G37*
G36*
X161428991Y-82979075D02*
G01*
X161462879Y-82989355D01*
X161494112Y-83006050D01*
X161521486Y-83028514D01*
X161543950Y-83055888D01*
X161560645Y-83087121D01*
X161570925Y-83121009D01*
X161575000Y-83162388D01*
X161575000Y-83762612D01*
X161570925Y-83803991D01*
X161560645Y-83837879D01*
X161543950Y-83869112D01*
X161521486Y-83896486D01*
X161494112Y-83918950D01*
X161462879Y-83935645D01*
X161428991Y-83945925D01*
X161387612Y-83950000D01*
X160712388Y-83950000D01*
X160671009Y-83945925D01*
X160637121Y-83935645D01*
X160605888Y-83918950D01*
X160578514Y-83896486D01*
X160556050Y-83869112D01*
X160539355Y-83837879D01*
X160529075Y-83803991D01*
X160525000Y-83762612D01*
X160525000Y-83162388D01*
X160529075Y-83121009D01*
X160539355Y-83087121D01*
X160556050Y-83055888D01*
X160578514Y-83028514D01*
X160605888Y-83006050D01*
X160637121Y-82989355D01*
X160671009Y-82979075D01*
X160712388Y-82975000D01*
X161387612Y-82975000D01*
X161428991Y-82979075D01*
G37*
G36*
X164428991Y-82979075D02*
G01*
X164462879Y-82989355D01*
X164494112Y-83006050D01*
X164521486Y-83028514D01*
X164543950Y-83055888D01*
X164560645Y-83087121D01*
X164570925Y-83121009D01*
X164575000Y-83162388D01*
X164575000Y-83762612D01*
X164570925Y-83803991D01*
X164560645Y-83837879D01*
X164543950Y-83869112D01*
X164521486Y-83896486D01*
X164494112Y-83918950D01*
X164462879Y-83935645D01*
X164428991Y-83945925D01*
X164387612Y-83950000D01*
X163712388Y-83950000D01*
X163671009Y-83945925D01*
X163637121Y-83935645D01*
X163605888Y-83918950D01*
X163578514Y-83896486D01*
X163556050Y-83869112D01*
X163539355Y-83837879D01*
X163529075Y-83803991D01*
X163525000Y-83762612D01*
X163525000Y-83162388D01*
X163529075Y-83121009D01*
X163539355Y-83087121D01*
X163556050Y-83055888D01*
X163578514Y-83028514D01*
X163605888Y-83006050D01*
X163637121Y-82989355D01*
X163671009Y-82979075D01*
X163712388Y-82975000D01*
X164387612Y-82975000D01*
X164428991Y-82979075D01*
G37*
G36*
X162928991Y-82979075D02*
G01*
X162962879Y-82989355D01*
X162994112Y-83006050D01*
X163021486Y-83028514D01*
X163043950Y-83055888D01*
X163060645Y-83087121D01*
X163070925Y-83121009D01*
X163075000Y-83162388D01*
X163075000Y-83762612D01*
X163070925Y-83803991D01*
X163060645Y-83837879D01*
X163043950Y-83869112D01*
X163021486Y-83896486D01*
X162994112Y-83918950D01*
X162962879Y-83935645D01*
X162928991Y-83945925D01*
X162887612Y-83950000D01*
X162212388Y-83950000D01*
X162171009Y-83945925D01*
X162137121Y-83935645D01*
X162105888Y-83918950D01*
X162078514Y-83896486D01*
X162056050Y-83869112D01*
X162039355Y-83837879D01*
X162029075Y-83803991D01*
X162025000Y-83762612D01*
X162025000Y-83162388D01*
X162029075Y-83121009D01*
X162039355Y-83087121D01*
X162056050Y-83055888D01*
X162078514Y-83028514D01*
X162105888Y-83006050D01*
X162137121Y-82989355D01*
X162171009Y-82979075D01*
X162212388Y-82975000D01*
X162887612Y-82975000D01*
X162928991Y-82979075D01*
G37*
G36*
X165928991Y-82979075D02*
G01*
X165962879Y-82989355D01*
X165994112Y-83006050D01*
X166021486Y-83028514D01*
X166043950Y-83055888D01*
X166060645Y-83087121D01*
X166070925Y-83121009D01*
X166075000Y-83162388D01*
X166075000Y-83762612D01*
X166070925Y-83803991D01*
X166060645Y-83837879D01*
X166043950Y-83869112D01*
X166021486Y-83896486D01*
X165994112Y-83918950D01*
X165962879Y-83935645D01*
X165928991Y-83945925D01*
X165887612Y-83950000D01*
X165212388Y-83950000D01*
X165171009Y-83945925D01*
X165137121Y-83935645D01*
X165105888Y-83918950D01*
X165078514Y-83896486D01*
X165056050Y-83869112D01*
X165039355Y-83837879D01*
X165029075Y-83803991D01*
X165025000Y-83762612D01*
X165025000Y-83162388D01*
X165029075Y-83121009D01*
X165039355Y-83087121D01*
X165056050Y-83055888D01*
X165078514Y-83028514D01*
X165105888Y-83006050D01*
X165137121Y-82989355D01*
X165171009Y-82979075D01*
X165212388Y-82975000D01*
X165887612Y-82975000D01*
X165928991Y-82979075D01*
G37*
G36*
X159928991Y-82979075D02*
G01*
X159962879Y-82989355D01*
X159994112Y-83006050D01*
X160021486Y-83028514D01*
X160043950Y-83055888D01*
X160060645Y-83087121D01*
X160070925Y-83121009D01*
X160075000Y-83162388D01*
X160075000Y-83762612D01*
X160070925Y-83803991D01*
X160060645Y-83837879D01*
X160043950Y-83869112D01*
X160021486Y-83896486D01*
X159994112Y-83918950D01*
X159962879Y-83935645D01*
X159928991Y-83945925D01*
X159887612Y-83950000D01*
X159212388Y-83950000D01*
X159171009Y-83945925D01*
X159137121Y-83935645D01*
X159105888Y-83918950D01*
X159078514Y-83896486D01*
X159056050Y-83869112D01*
X159039355Y-83837879D01*
X159029075Y-83803991D01*
X159025000Y-83762612D01*
X159025000Y-83162388D01*
X159029075Y-83121009D01*
X159039355Y-83087121D01*
X159056050Y-83055888D01*
X159078514Y-83028514D01*
X159105888Y-83006050D01*
X159137121Y-82989355D01*
X159171009Y-82979075D01*
X159212388Y-82975000D01*
X159887612Y-82975000D01*
X159928991Y-82979075D01*
G37*
G36*
X177353991Y-82079075D02*
G01*
X177387879Y-82089355D01*
X177419112Y-82106050D01*
X177446486Y-82128514D01*
X177468950Y-82155888D01*
X177485645Y-82187121D01*
X177495925Y-82221009D01*
X177500000Y-82262388D01*
X177500000Y-82937612D01*
X177495925Y-82978991D01*
X177485645Y-83012879D01*
X177468950Y-83044112D01*
X177446486Y-83071486D01*
X177419112Y-83093950D01*
X177387879Y-83110645D01*
X177353991Y-83120925D01*
X177312612Y-83125000D01*
X176712388Y-83125000D01*
X176671009Y-83120925D01*
X176637121Y-83110645D01*
X176605888Y-83093950D01*
X176578514Y-83071486D01*
X176556050Y-83044112D01*
X176539355Y-83012879D01*
X176529075Y-82978991D01*
X176525000Y-82937612D01*
X176525000Y-82262388D01*
X176529075Y-82221009D01*
X176539355Y-82187121D01*
X176556050Y-82155888D01*
X176578514Y-82128514D01*
X176605888Y-82106050D01*
X176637121Y-82089355D01*
X176671009Y-82079075D01*
X176712388Y-82075000D01*
X177312612Y-82075000D01*
X177353991Y-82079075D01*
G37*
G36*
X178928991Y-82079075D02*
G01*
X178962879Y-82089355D01*
X178994112Y-82106050D01*
X179021486Y-82128514D01*
X179043950Y-82155888D01*
X179060645Y-82187121D01*
X179070925Y-82221009D01*
X179075000Y-82262388D01*
X179075000Y-82937612D01*
X179070925Y-82978991D01*
X179060645Y-83012879D01*
X179043950Y-83044112D01*
X179021486Y-83071486D01*
X178994112Y-83093950D01*
X178962879Y-83110645D01*
X178928991Y-83120925D01*
X178887612Y-83125000D01*
X178287388Y-83125000D01*
X178246009Y-83120925D01*
X178212121Y-83110645D01*
X178180888Y-83093950D01*
X178153514Y-83071486D01*
X178131050Y-83044112D01*
X178114355Y-83012879D01*
X178104075Y-82978991D01*
X178100000Y-82937612D01*
X178100000Y-82262388D01*
X178104075Y-82221009D01*
X178114355Y-82187121D01*
X178131050Y-82155888D01*
X178153514Y-82128514D01*
X178180888Y-82106050D01*
X178212121Y-82089355D01*
X178246009Y-82079075D01*
X178287388Y-82075000D01*
X178887612Y-82075000D01*
X178928991Y-82079075D01*
G37*
G36*
X188050000Y-82950000D02*
G01*
X187150000Y-82950000D01*
X187150000Y-81950000D01*
X188050000Y-81950000D01*
X188050000Y-82950000D01*
G37*
G36*
X186150000Y-82950000D02*
G01*
X185250000Y-82950000D01*
X185250000Y-81950000D01*
X186150000Y-81950000D01*
X186150000Y-82950000D01*
G37*
G36*
X140403991Y-81879075D02*
G01*
X140437879Y-81889355D01*
X140469112Y-81906050D01*
X140496486Y-81928514D01*
X140518950Y-81955888D01*
X140535645Y-81987121D01*
X140545925Y-82021009D01*
X140550000Y-82062388D01*
X140550000Y-82737612D01*
X140545925Y-82778991D01*
X140535645Y-82812879D01*
X140518950Y-82844112D01*
X140496486Y-82871486D01*
X140469112Y-82893950D01*
X140437879Y-82910645D01*
X140403991Y-82920925D01*
X140362612Y-82925000D01*
X139762388Y-82925000D01*
X139721009Y-82920925D01*
X139687121Y-82910645D01*
X139655888Y-82893950D01*
X139628514Y-82871486D01*
X139606050Y-82844112D01*
X139589355Y-82812879D01*
X139579075Y-82778991D01*
X139575000Y-82737612D01*
X139575000Y-82062388D01*
X139579075Y-82021009D01*
X139589355Y-81987121D01*
X139606050Y-81955888D01*
X139628514Y-81928514D01*
X139655888Y-81906050D01*
X139687121Y-81889355D01*
X139721009Y-81879075D01*
X139762388Y-81875000D01*
X140362612Y-81875000D01*
X140403991Y-81879075D01*
G37*
G36*
X141978991Y-81879075D02*
G01*
X142012879Y-81889355D01*
X142044112Y-81906050D01*
X142071486Y-81928514D01*
X142093950Y-81955888D01*
X142110645Y-81987121D01*
X142120925Y-82021009D01*
X142125000Y-82062388D01*
X142125000Y-82737612D01*
X142120925Y-82778991D01*
X142110645Y-82812879D01*
X142093950Y-82844112D01*
X142071486Y-82871486D01*
X142044112Y-82893950D01*
X142012879Y-82910645D01*
X141978991Y-82920925D01*
X141937612Y-82925000D01*
X141337388Y-82925000D01*
X141296009Y-82920925D01*
X141262121Y-82910645D01*
X141230888Y-82893950D01*
X141203514Y-82871486D01*
X141181050Y-82844112D01*
X141164355Y-82812879D01*
X141154075Y-82778991D01*
X141150000Y-82737612D01*
X141150000Y-82062388D01*
X141154075Y-82021009D01*
X141164355Y-81987121D01*
X141181050Y-81955888D01*
X141203514Y-81928514D01*
X141230888Y-81906050D01*
X141262121Y-81889355D01*
X141296009Y-81879075D01*
X141337388Y-81875000D01*
X141937612Y-81875000D01*
X141978991Y-81879075D01*
G37*
G36*
X184528991Y-81954075D02*
G01*
X184562879Y-81964355D01*
X184594112Y-81981050D01*
X184621486Y-82003514D01*
X184643950Y-82030888D01*
X184660645Y-82062121D01*
X184670925Y-82096009D01*
X184675000Y-82137388D01*
X184675000Y-82737612D01*
X184670925Y-82778991D01*
X184660645Y-82812879D01*
X184643950Y-82844112D01*
X184621486Y-82871486D01*
X184594112Y-82893950D01*
X184562879Y-82910645D01*
X184528991Y-82920925D01*
X184487612Y-82925000D01*
X183812388Y-82925000D01*
X183771009Y-82920925D01*
X183737121Y-82910645D01*
X183705888Y-82893950D01*
X183678514Y-82871486D01*
X183656050Y-82844112D01*
X183639355Y-82812879D01*
X183629075Y-82778991D01*
X183625000Y-82737612D01*
X183625000Y-82137388D01*
X183629075Y-82096009D01*
X183639355Y-82062121D01*
X183656050Y-82030888D01*
X183678514Y-82003514D01*
X183705888Y-81981050D01*
X183737121Y-81964355D01*
X183771009Y-81954075D01*
X183812388Y-81950000D01*
X184487612Y-81950000D01*
X184528991Y-81954075D01*
G37*
G36*
X147200000Y-82250000D02*
G01*
X146600000Y-82250000D01*
X146600000Y-81350000D01*
X147200000Y-81350000D01*
X147200000Y-82250000D01*
G37*
G36*
X147950000Y-82250000D02*
G01*
X147450000Y-82250000D01*
X147450000Y-81350000D01*
X147950000Y-81350000D01*
X147950000Y-82250000D01*
G37*
G36*
X149600000Y-82250000D02*
G01*
X149000000Y-82250000D01*
X149000000Y-81350000D01*
X149600000Y-81350000D01*
X149600000Y-82250000D01*
G37*
G36*
X148750000Y-82250000D02*
G01*
X148250000Y-82250000D01*
X148250000Y-81350000D01*
X148750000Y-81350000D01*
X148750000Y-82250000D01*
G37*
G36*
X184528991Y-80379075D02*
G01*
X184562879Y-80389355D01*
X184594112Y-80406050D01*
X184621486Y-80428514D01*
X184643950Y-80455888D01*
X184660645Y-80487121D01*
X184670925Y-80521009D01*
X184675000Y-80562388D01*
X184675000Y-81162612D01*
X184670925Y-81203991D01*
X184660645Y-81237879D01*
X184643950Y-81269112D01*
X184621486Y-81296486D01*
X184594112Y-81318950D01*
X184562879Y-81335645D01*
X184528991Y-81345925D01*
X184487612Y-81350000D01*
X183812388Y-81350000D01*
X183771009Y-81345925D01*
X183737121Y-81335645D01*
X183705888Y-81318950D01*
X183678514Y-81296486D01*
X183656050Y-81269112D01*
X183639355Y-81237879D01*
X183629075Y-81203991D01*
X183625000Y-81162612D01*
X183625000Y-80562388D01*
X183629075Y-80521009D01*
X183639355Y-80487121D01*
X183656050Y-80455888D01*
X183678514Y-80428514D01*
X183705888Y-80406050D01*
X183737121Y-80389355D01*
X183771009Y-80379075D01*
X183812388Y-80375000D01*
X184487612Y-80375000D01*
X184528991Y-80379075D01*
G37*
G36*
X187100000Y-80950000D02*
G01*
X186200000Y-80950000D01*
X186200000Y-79950000D01*
X187100000Y-79950000D01*
X187100000Y-80950000D01*
G37*
G36*
X138533867Y-79354556D02*
G01*
X138572448Y-79366259D01*
X138608001Y-79385263D01*
X138639163Y-79410837D01*
X138664737Y-79441999D01*
X138683741Y-79477552D01*
X138695444Y-79516133D01*
X138700000Y-79562390D01*
X138700000Y-80637610D01*
X138695444Y-80683867D01*
X138683741Y-80722448D01*
X138664737Y-80758001D01*
X138639163Y-80789163D01*
X138608001Y-80814737D01*
X138572448Y-80833741D01*
X138533867Y-80845444D01*
X138487610Y-80850000D01*
X137837390Y-80850000D01*
X137791133Y-80845444D01*
X137752552Y-80833741D01*
X137716999Y-80814737D01*
X137685837Y-80789163D01*
X137660263Y-80758001D01*
X137641259Y-80722448D01*
X137629556Y-80683867D01*
X137625000Y-80637610D01*
X137625000Y-79562390D01*
X137629556Y-79516133D01*
X137641259Y-79477552D01*
X137660263Y-79441999D01*
X137685837Y-79410837D01*
X137716999Y-79385263D01*
X137752552Y-79366259D01*
X137791133Y-79354556D01*
X137837390Y-79350000D01*
X138487610Y-79350000D01*
X138533867Y-79354556D01*
G37*
G36*
X140408867Y-79354556D02*
G01*
X140447448Y-79366259D01*
X140483001Y-79385263D01*
X140514163Y-79410837D01*
X140539737Y-79441999D01*
X140558741Y-79477552D01*
X140570444Y-79516133D01*
X140575000Y-79562390D01*
X140575000Y-80637610D01*
X140570444Y-80683867D01*
X140558741Y-80722448D01*
X140539737Y-80758001D01*
X140514163Y-80789163D01*
X140483001Y-80814737D01*
X140447448Y-80833741D01*
X140408867Y-80845444D01*
X140362610Y-80850000D01*
X139712390Y-80850000D01*
X139666133Y-80845444D01*
X139627552Y-80833741D01*
X139591999Y-80814737D01*
X139560837Y-80789163D01*
X139535263Y-80758001D01*
X139516259Y-80722448D01*
X139504556Y-80683867D01*
X139500000Y-80637610D01*
X139500000Y-79562390D01*
X139504556Y-79516133D01*
X139516259Y-79477552D01*
X139535263Y-79441999D01*
X139560837Y-79410837D01*
X139591999Y-79385263D01*
X139627552Y-79366259D01*
X139666133Y-79354556D01*
X139712390Y-79350000D01*
X140362610Y-79350000D01*
X140408867Y-79354556D01*
G37*
G36*
X142407193Y-79529596D02*
G01*
X142446162Y-79541417D01*
X142482072Y-79560612D01*
X142513553Y-79586447D01*
X142539388Y-79617928D01*
X142558583Y-79653838D01*
X142570404Y-79692807D01*
X142575000Y-79739473D01*
X142575000Y-80460527D01*
X142570404Y-80507193D01*
X142558583Y-80546162D01*
X142539388Y-80582072D01*
X142513553Y-80613553D01*
X142482072Y-80639388D01*
X142446162Y-80658583D01*
X142407193Y-80670404D01*
X142360527Y-80675000D01*
X141564473Y-80675000D01*
X141517807Y-80670404D01*
X141478838Y-80658583D01*
X141442928Y-80639388D01*
X141411447Y-80613553D01*
X141385612Y-80582072D01*
X141366417Y-80546162D01*
X141354596Y-80507193D01*
X141350000Y-80460527D01*
X141350000Y-79739473D01*
X141354596Y-79692807D01*
X141366417Y-79653838D01*
X141385612Y-79617928D01*
X141411447Y-79586447D01*
X141442928Y-79560612D01*
X141478838Y-79541417D01*
X141517807Y-79529596D01*
X141564473Y-79525000D01*
X142360527Y-79525000D01*
X142407193Y-79529596D01*
G37*
G36*
X144182193Y-79529596D02*
G01*
X144221162Y-79541417D01*
X144257072Y-79560612D01*
X144288553Y-79586447D01*
X144314388Y-79617928D01*
X144333583Y-79653838D01*
X144345404Y-79692807D01*
X144350000Y-79739473D01*
X144350000Y-80460527D01*
X144345404Y-80507193D01*
X144333583Y-80546162D01*
X144314388Y-80582072D01*
X144288553Y-80613553D01*
X144257072Y-80639388D01*
X144221162Y-80658583D01*
X144182193Y-80670404D01*
X144135527Y-80675000D01*
X143339473Y-80675000D01*
X143292807Y-80670404D01*
X143253838Y-80658583D01*
X143217928Y-80639388D01*
X143186447Y-80613553D01*
X143160612Y-80582072D01*
X143141417Y-80546162D01*
X143129596Y-80507193D01*
X143125000Y-80460527D01*
X143125000Y-79739473D01*
X143129596Y-79692807D01*
X143141417Y-79653838D01*
X143160612Y-79617928D01*
X143186447Y-79586447D01*
X143217928Y-79560612D01*
X143253838Y-79541417D01*
X143292807Y-79529596D01*
X143339473Y-79525000D01*
X144135527Y-79525000D01*
X144182193Y-79529596D01*
G37*
G36*
X148750000Y-80450000D02*
G01*
X148250000Y-80450000D01*
X148250000Y-79550000D01*
X148750000Y-79550000D01*
X148750000Y-80450000D01*
G37*
G36*
X147950000Y-80450000D02*
G01*
X147450000Y-80450000D01*
X147450000Y-79550000D01*
X147950000Y-79550000D01*
X147950000Y-80450000D01*
G37*
G36*
X147200000Y-80450000D02*
G01*
X146600000Y-80450000D01*
X146600000Y-79550000D01*
X147200000Y-79550000D01*
X147200000Y-80450000D01*
G37*
G36*
X149600000Y-80450000D02*
G01*
X149000000Y-80450000D01*
X149000000Y-79550000D01*
X149600000Y-79550000D01*
X149600000Y-80450000D01*
G37*
G36*
X144100000Y-78900000D02*
G01*
X142500000Y-78900000D01*
X142500000Y-76800000D01*
X144100000Y-76800000D01*
X144100000Y-78900000D01*
G37*
G36*
X139500000Y-78900000D02*
G01*
X137900000Y-78900000D01*
X137900000Y-76800000D01*
X139500000Y-76800000D01*
X139500000Y-78900000D01*
G37*
G36*
X141800000Y-78900000D02*
G01*
X140200000Y-78900000D01*
X140200000Y-76800000D01*
X141800000Y-76800000D01*
X141800000Y-78900000D01*
G37*
G36*
X160000000Y-77702000D02*
G01*
X159100000Y-77702000D01*
X159100000Y-77102000D01*
X160000000Y-77102000D01*
X160000000Y-77702000D01*
G37*
G36*
X155268000Y-77702000D02*
G01*
X154368000Y-77702000D01*
X154368000Y-77102000D01*
X155268000Y-77102000D01*
X155268000Y-77702000D01*
G37*
G36*
X153468000Y-77702000D02*
G01*
X152568000Y-77702000D01*
X152568000Y-77102000D01*
X153468000Y-77102000D01*
X153468000Y-77702000D01*
G37*
G36*
X158200000Y-77702000D02*
G01*
X157300000Y-77702000D01*
X157300000Y-77102000D01*
X158200000Y-77102000D01*
X158200000Y-77702000D01*
G37*
G36*
X173550000Y-77700000D02*
G01*
X172650000Y-77700000D01*
X172650000Y-77100000D01*
X173550000Y-77100000D01*
X173550000Y-77700000D01*
G37*
G36*
X175350000Y-77700000D02*
G01*
X174450000Y-77700000D01*
X174450000Y-77100000D01*
X175350000Y-77100000D01*
X175350000Y-77700000D01*
G37*
G36*
X163830000Y-77525000D02*
G01*
X162670000Y-77525000D01*
X162670000Y-74875000D01*
X163830000Y-74875000D01*
X163830000Y-77525000D01*
G37*
G36*
X161630000Y-77525000D02*
G01*
X160470000Y-77525000D01*
X160470000Y-76775000D01*
X161630000Y-76775000D01*
X161630000Y-77525000D01*
G37*
G36*
X160000000Y-76852000D02*
G01*
X159100000Y-76852000D01*
X159100000Y-76352000D01*
X160000000Y-76352000D01*
X160000000Y-76852000D01*
G37*
G36*
X155268000Y-76852000D02*
G01*
X154368000Y-76852000D01*
X154368000Y-76352000D01*
X155268000Y-76352000D01*
X155268000Y-76852000D01*
G37*
G36*
X153468000Y-76852000D02*
G01*
X152568000Y-76852000D01*
X152568000Y-76352000D01*
X153468000Y-76352000D01*
X153468000Y-76852000D01*
G37*
G36*
X158200000Y-76852000D02*
G01*
X157300000Y-76852000D01*
X157300000Y-76352000D01*
X158200000Y-76352000D01*
X158200000Y-76852000D01*
G37*
G36*
X173550000Y-76850000D02*
G01*
X172650000Y-76850000D01*
X172650000Y-76350000D01*
X173550000Y-76350000D01*
X173550000Y-76850000D01*
G37*
G36*
X175350000Y-76850000D02*
G01*
X174450000Y-76850000D01*
X174450000Y-76350000D01*
X175350000Y-76350000D01*
X175350000Y-76850000D01*
G37*
G36*
X153468000Y-76052000D02*
G01*
X152568000Y-76052000D01*
X152568000Y-75552000D01*
X153468000Y-75552000D01*
X153468000Y-76052000D01*
G37*
G36*
X155268000Y-76052000D02*
G01*
X154368000Y-76052000D01*
X154368000Y-75552000D01*
X155268000Y-75552000D01*
X155268000Y-76052000D01*
G37*
G36*
X160000000Y-76052000D02*
G01*
X159100000Y-76052000D01*
X159100000Y-75552000D01*
X160000000Y-75552000D01*
X160000000Y-76052000D01*
G37*
G36*
X158200000Y-76052000D02*
G01*
X157300000Y-76052000D01*
X157300000Y-75552000D01*
X158200000Y-75552000D01*
X158200000Y-76052000D01*
G37*
G36*
X175350000Y-76050000D02*
G01*
X174450000Y-76050000D01*
X174450000Y-75550000D01*
X175350000Y-75550000D01*
X175350000Y-76050000D01*
G37*
G36*
X173550000Y-76050000D02*
G01*
X172650000Y-76050000D01*
X172650000Y-75550000D01*
X173550000Y-75550000D01*
X173550000Y-76050000D01*
G37*
G36*
X161630000Y-75625000D02*
G01*
X160470000Y-75625000D01*
X160470000Y-74875000D01*
X161630000Y-74875000D01*
X161630000Y-75625000D01*
G37*
G36*
X155268000Y-75302000D02*
G01*
X154368000Y-75302000D01*
X154368000Y-74702000D01*
X155268000Y-74702000D01*
X155268000Y-75302000D01*
G37*
G36*
X158200000Y-75302000D02*
G01*
X157300000Y-75302000D01*
X157300000Y-74702000D01*
X158200000Y-74702000D01*
X158200000Y-75302000D01*
G37*
G36*
X153468000Y-75302000D02*
G01*
X152568000Y-75302000D01*
X152568000Y-74702000D01*
X153468000Y-74702000D01*
X153468000Y-75302000D01*
G37*
G36*
X160000000Y-75302000D02*
G01*
X159100000Y-75302000D01*
X159100000Y-74702000D01*
X160000000Y-74702000D01*
X160000000Y-75302000D01*
G37*
G36*
X175350000Y-75300000D02*
G01*
X174450000Y-75300000D01*
X174450000Y-74700000D01*
X175350000Y-74700000D01*
X175350000Y-75300000D01*
G37*
G36*
X173550000Y-75300000D02*
G01*
X172650000Y-75300000D01*
X172650000Y-74700000D01*
X173550000Y-74700000D01*
X173550000Y-75300000D01*
G37*
G36*
X170728991Y-74104075D02*
G01*
X170762879Y-74114355D01*
X170794112Y-74131050D01*
X170821486Y-74153514D01*
X170843950Y-74180888D01*
X170860645Y-74212121D01*
X170870925Y-74246009D01*
X170875000Y-74287388D01*
X170875000Y-74887612D01*
X170870925Y-74928991D01*
X170860645Y-74962879D01*
X170843950Y-74994112D01*
X170821486Y-75021486D01*
X170794112Y-75043950D01*
X170762879Y-75060645D01*
X170728991Y-75070925D01*
X170687612Y-75075000D01*
X170012388Y-75075000D01*
X169971009Y-75070925D01*
X169937121Y-75060645D01*
X169905888Y-75043950D01*
X169878514Y-75021486D01*
X169856050Y-74994112D01*
X169839355Y-74962879D01*
X169829075Y-74928991D01*
X169825000Y-74887612D01*
X169825000Y-74287388D01*
X169829075Y-74246009D01*
X169839355Y-74212121D01*
X169856050Y-74180888D01*
X169878514Y-74153514D01*
X169905888Y-74131050D01*
X169937121Y-74114355D01*
X169971009Y-74104075D01*
X170012388Y-74100000D01*
X170687612Y-74100000D01*
X170728991Y-74104075D01*
G37*
G36*
X150678991Y-74104075D02*
G01*
X150712879Y-74114355D01*
X150744112Y-74131050D01*
X150771486Y-74153514D01*
X150793950Y-74180888D01*
X150810645Y-74212121D01*
X150820925Y-74246009D01*
X150825000Y-74287388D01*
X150825000Y-74887612D01*
X150820925Y-74928991D01*
X150810645Y-74962879D01*
X150793950Y-74994112D01*
X150771486Y-75021486D01*
X150744112Y-75043950D01*
X150712879Y-75060645D01*
X150678991Y-75070925D01*
X150637612Y-75075000D01*
X149962388Y-75075000D01*
X149921009Y-75070925D01*
X149887121Y-75060645D01*
X149855888Y-75043950D01*
X149828514Y-75021486D01*
X149806050Y-74994112D01*
X149789355Y-74962879D01*
X149779075Y-74928991D01*
X149775000Y-74887612D01*
X149775000Y-74287388D01*
X149779075Y-74246009D01*
X149789355Y-74212121D01*
X149806050Y-74180888D01*
X149828514Y-74153514D01*
X149855888Y-74131050D01*
X149887121Y-74114355D01*
X149921009Y-74104075D01*
X149962388Y-74100000D01*
X150637612Y-74100000D01*
X150678991Y-74104075D01*
G37*
G36*
X150678991Y-72529075D02*
G01*
X150712879Y-72539355D01*
X150744112Y-72556050D01*
X150771486Y-72578514D01*
X150793950Y-72605888D01*
X150810645Y-72637121D01*
X150820925Y-72671009D01*
X150825000Y-72712388D01*
X150825000Y-73312612D01*
X150820925Y-73353991D01*
X150810645Y-73387879D01*
X150793950Y-73419112D01*
X150771486Y-73446486D01*
X150744112Y-73468950D01*
X150712879Y-73485645D01*
X150678991Y-73495925D01*
X150637612Y-73500000D01*
X149962388Y-73500000D01*
X149921009Y-73495925D01*
X149887121Y-73485645D01*
X149855888Y-73468950D01*
X149828514Y-73446486D01*
X149806050Y-73419112D01*
X149789355Y-73387879D01*
X149779075Y-73353991D01*
X149775000Y-73312612D01*
X149775000Y-72712388D01*
X149779075Y-72671009D01*
X149789355Y-72637121D01*
X149806050Y-72605888D01*
X149828514Y-72578514D01*
X149855888Y-72556050D01*
X149887121Y-72539355D01*
X149921009Y-72529075D01*
X149962388Y-72525000D01*
X150637612Y-72525000D01*
X150678991Y-72529075D01*
G37*
G36*
X170728991Y-72529075D02*
G01*
X170762879Y-72539355D01*
X170794112Y-72556050D01*
X170821486Y-72578514D01*
X170843950Y-72605888D01*
X170860645Y-72637121D01*
X170870925Y-72671009D01*
X170875000Y-72712388D01*
X170875000Y-73312612D01*
X170870925Y-73353991D01*
X170860645Y-73387879D01*
X170843950Y-73419112D01*
X170821486Y-73446486D01*
X170794112Y-73468950D01*
X170762879Y-73485645D01*
X170728991Y-73495925D01*
X170687612Y-73500000D01*
X170012388Y-73500000D01*
X169971009Y-73495925D01*
X169937121Y-73485645D01*
X169905888Y-73468950D01*
X169878514Y-73446486D01*
X169856050Y-73419112D01*
X169839355Y-73387879D01*
X169829075Y-73353991D01*
X169825000Y-73312612D01*
X169825000Y-72712388D01*
X169829075Y-72671009D01*
X169839355Y-72637121D01*
X169856050Y-72605888D01*
X169878514Y-72578514D01*
X169905888Y-72556050D01*
X169937121Y-72539355D01*
X169971009Y-72529075D01*
X170012388Y-72525000D01*
X170687612Y-72525000D01*
X170728991Y-72529075D01*
G37*
G36*
X142950000Y-72600000D02*
G01*
X139050000Y-72600000D01*
X139050000Y-70500000D01*
X142950000Y-70500000D01*
X142950000Y-72600000D01*
G37*
M02*
