G04 #@! TF.GenerationSoftware,KiCad,Pcbnew,(5.1.6-0-10_14)*
G04 #@! TF.CreationDate,2020-08-15T08:11:16-07:00*
G04 #@! TF.ProjectId,fpga-ice40,66706761-2d69-4636-9534-302e6b696361,r0.1*
G04 #@! TF.SameCoordinates,Original*
G04 #@! TF.FileFunction,Paste,Bot*
G04 #@! TF.FilePolarity,Positive*
%FSLAX46Y46*%
G04 Gerber Fmt 4.6, Leading zero omitted, Abs format (unit mm)*
G04 Created by KiCad (PCBNEW (5.1.6-0-10_14)) date 2020-08-15 08:11:16*
%MOMM*%
%LPD*%
G01*
G04 APERTURE LIST*
%ADD10R,1.100000X1.100000*%
%ADD11R,0.800000X0.500000*%
%ADD12R,0.800000X0.400000*%
%ADD13R,1.060000X0.650000*%
%ADD14R,0.500000X0.800000*%
%ADD15R,0.400000X0.800000*%
%ADD16R,0.800000X0.900000*%
%ADD17R,1.500000X2.000000*%
%ADD18R,3.800000X2.000000*%
G04 APERTURE END LIST*
G36*
G01*
X177250000Y-95593750D02*
X177250000Y-96106250D01*
G75*
G02*
X177031250Y-96325000I-218750J0D01*
G01*
X176593750Y-96325000D01*
G75*
G02*
X176375000Y-96106250I0J218750D01*
G01*
X176375000Y-95593750D01*
G75*
G02*
X176593750Y-95375000I218750J0D01*
G01*
X177031250Y-95375000D01*
G75*
G02*
X177250000Y-95593750I0J-218750D01*
G01*
G37*
G36*
G01*
X178825000Y-95593750D02*
X178825000Y-96106250D01*
G75*
G02*
X178606250Y-96325000I-218750J0D01*
G01*
X178168750Y-96325000D01*
G75*
G02*
X177950000Y-96106250I0J218750D01*
G01*
X177950000Y-95593750D01*
G75*
G02*
X178168750Y-95375000I218750J0D01*
G01*
X178606250Y-95375000D01*
G75*
G02*
X178825000Y-95593750I0J-218750D01*
G01*
G37*
G36*
G01*
X184500000Y-94793750D02*
X184500000Y-95306250D01*
G75*
G02*
X184281250Y-95525000I-218750J0D01*
G01*
X183843750Y-95525000D01*
G75*
G02*
X183625000Y-95306250I0J218750D01*
G01*
X183625000Y-94793750D01*
G75*
G02*
X183843750Y-94575000I218750J0D01*
G01*
X184281250Y-94575000D01*
G75*
G02*
X184500000Y-94793750I0J-218750D01*
G01*
G37*
G36*
G01*
X186075000Y-94793750D02*
X186075000Y-95306250D01*
G75*
G02*
X185856250Y-95525000I-218750J0D01*
G01*
X185418750Y-95525000D01*
G75*
G02*
X185200000Y-95306250I0J218750D01*
G01*
X185200000Y-94793750D01*
G75*
G02*
X185418750Y-94575000I218750J0D01*
G01*
X185856250Y-94575000D01*
G75*
G02*
X186075000Y-94793750I0J-218750D01*
G01*
G37*
G36*
G01*
X190450000Y-106756250D02*
X190450000Y-106243750D01*
G75*
G02*
X190668750Y-106025000I218750J0D01*
G01*
X191106250Y-106025000D01*
G75*
G02*
X191325000Y-106243750I0J-218750D01*
G01*
X191325000Y-106756250D01*
G75*
G02*
X191106250Y-106975000I-218750J0D01*
G01*
X190668750Y-106975000D01*
G75*
G02*
X190450000Y-106756250I0J218750D01*
G01*
G37*
G36*
G01*
X188875000Y-106756250D02*
X188875000Y-106243750D01*
G75*
G02*
X189093750Y-106025000I218750J0D01*
G01*
X189531250Y-106025000D01*
G75*
G02*
X189750000Y-106243750I0J-218750D01*
G01*
X189750000Y-106756250D01*
G75*
G02*
X189531250Y-106975000I-218750J0D01*
G01*
X189093750Y-106975000D01*
G75*
G02*
X188875000Y-106756250I0J218750D01*
G01*
G37*
G36*
G01*
X187556250Y-108350000D02*
X186643750Y-108350000D01*
G75*
G02*
X186400000Y-108106250I0J243750D01*
G01*
X186400000Y-107618750D01*
G75*
G02*
X186643750Y-107375000I243750J0D01*
G01*
X187556250Y-107375000D01*
G75*
G02*
X187800000Y-107618750I0J-243750D01*
G01*
X187800000Y-108106250D01*
G75*
G02*
X187556250Y-108350000I-243750J0D01*
G01*
G37*
G36*
G01*
X187556250Y-110225000D02*
X186643750Y-110225000D01*
G75*
G02*
X186400000Y-109981250I0J243750D01*
G01*
X186400000Y-109493750D01*
G75*
G02*
X186643750Y-109250000I243750J0D01*
G01*
X187556250Y-109250000D01*
G75*
G02*
X187800000Y-109493750I0J-243750D01*
G01*
X187800000Y-109981250D01*
G75*
G02*
X187556250Y-110225000I-243750J0D01*
G01*
G37*
G36*
G01*
X146500000Y-101506250D02*
X146500000Y-100993750D01*
G75*
G02*
X146718750Y-100775000I218750J0D01*
G01*
X147156250Y-100775000D01*
G75*
G02*
X147375000Y-100993750I0J-218750D01*
G01*
X147375000Y-101506250D01*
G75*
G02*
X147156250Y-101725000I-218750J0D01*
G01*
X146718750Y-101725000D01*
G75*
G02*
X146500000Y-101506250I0J218750D01*
G01*
G37*
G36*
G01*
X144925000Y-101506250D02*
X144925000Y-100993750D01*
G75*
G02*
X145143750Y-100775000I218750J0D01*
G01*
X145581250Y-100775000D01*
G75*
G02*
X145800000Y-100993750I0J-218750D01*
G01*
X145800000Y-101506250D01*
G75*
G02*
X145581250Y-101725000I-218750J0D01*
G01*
X145143750Y-101725000D01*
G75*
G02*
X144925000Y-101506250I0J218750D01*
G01*
G37*
G36*
G01*
X163275000Y-99125001D02*
X163275000Y-98574999D01*
G75*
G02*
X163524999Y-98325000I249999J0D01*
G01*
X164150001Y-98325000D01*
G75*
G02*
X164400000Y-98574999I0J-249999D01*
G01*
X164400000Y-99125001D01*
G75*
G02*
X164150001Y-99375000I-249999J0D01*
G01*
X163524999Y-99375000D01*
G75*
G02*
X163275000Y-99125001I0J249999D01*
G01*
G37*
G36*
G01*
X161500000Y-99125001D02*
X161500000Y-98574999D01*
G75*
G02*
X161749999Y-98325000I249999J0D01*
G01*
X162375001Y-98325000D01*
G75*
G02*
X162625000Y-98574999I0J-249999D01*
G01*
X162625000Y-99125001D01*
G75*
G02*
X162375001Y-99375000I-249999J0D01*
G01*
X161749999Y-99375000D01*
G75*
G02*
X161500000Y-99125001I0J249999D01*
G01*
G37*
G36*
G01*
X143175000Y-80375001D02*
X143175000Y-79824999D01*
G75*
G02*
X143424999Y-79575000I249999J0D01*
G01*
X144050001Y-79575000D01*
G75*
G02*
X144300000Y-79824999I0J-249999D01*
G01*
X144300000Y-80375001D01*
G75*
G02*
X144050001Y-80625000I-249999J0D01*
G01*
X143424999Y-80625000D01*
G75*
G02*
X143175000Y-80375001I0J249999D01*
G01*
G37*
G36*
G01*
X141400000Y-80375001D02*
X141400000Y-79824999D01*
G75*
G02*
X141649999Y-79575000I249999J0D01*
G01*
X142275001Y-79575000D01*
G75*
G02*
X142525000Y-79824999I0J-249999D01*
G01*
X142525000Y-80375001D01*
G75*
G02*
X142275001Y-80625000I-249999J0D01*
G01*
X141649999Y-80625000D01*
G75*
G02*
X141400000Y-80375001I0J249999D01*
G01*
G37*
G36*
G01*
X153700000Y-89643750D02*
X153700000Y-90156250D01*
G75*
G02*
X153481250Y-90375000I-218750J0D01*
G01*
X153043750Y-90375000D01*
G75*
G02*
X152825000Y-90156250I0J218750D01*
G01*
X152825000Y-89643750D01*
G75*
G02*
X153043750Y-89425000I218750J0D01*
G01*
X153481250Y-89425000D01*
G75*
G02*
X153700000Y-89643750I0J-218750D01*
G01*
G37*
G36*
G01*
X155275000Y-89643750D02*
X155275000Y-90156250D01*
G75*
G02*
X155056250Y-90375000I-218750J0D01*
G01*
X154618750Y-90375000D01*
G75*
G02*
X154400000Y-90156250I0J218750D01*
G01*
X154400000Y-89643750D01*
G75*
G02*
X154618750Y-89425000I218750J0D01*
G01*
X155056250Y-89425000D01*
G75*
G02*
X155275000Y-89643750I0J-218750D01*
G01*
G37*
G36*
G01*
X141200000Y-92106250D02*
X141200000Y-91193750D01*
G75*
G02*
X141443750Y-90950000I243750J0D01*
G01*
X141931250Y-90950000D01*
G75*
G02*
X142175000Y-91193750I0J-243750D01*
G01*
X142175000Y-92106250D01*
G75*
G02*
X141931250Y-92350000I-243750J0D01*
G01*
X141443750Y-92350000D01*
G75*
G02*
X141200000Y-92106250I0J243750D01*
G01*
G37*
G36*
G01*
X139325000Y-92106250D02*
X139325000Y-91193750D01*
G75*
G02*
X139568750Y-90950000I243750J0D01*
G01*
X140056250Y-90950000D01*
G75*
G02*
X140300000Y-91193750I0J-243750D01*
G01*
X140300000Y-92106250D01*
G75*
G02*
X140056250Y-92350000I-243750J0D01*
G01*
X139568750Y-92350000D01*
G75*
G02*
X139325000Y-92106250I0J243750D01*
G01*
G37*
G36*
G01*
X158700000Y-98393750D02*
X158700000Y-99306250D01*
G75*
G02*
X158456250Y-99550000I-243750J0D01*
G01*
X157968750Y-99550000D01*
G75*
G02*
X157725000Y-99306250I0J243750D01*
G01*
X157725000Y-98393750D01*
G75*
G02*
X157968750Y-98150000I243750J0D01*
G01*
X158456250Y-98150000D01*
G75*
G02*
X158700000Y-98393750I0J-243750D01*
G01*
G37*
G36*
G01*
X160575000Y-98393750D02*
X160575000Y-99306250D01*
G75*
G02*
X160331250Y-99550000I-243750J0D01*
G01*
X159843750Y-99550000D01*
G75*
G02*
X159600000Y-99306250I0J243750D01*
G01*
X159600000Y-98393750D01*
G75*
G02*
X159843750Y-98150000I243750J0D01*
G01*
X160331250Y-98150000D01*
G75*
G02*
X160575000Y-98393750I0J-243750D01*
G01*
G37*
G36*
G01*
X138650000Y-79643750D02*
X138650000Y-80556250D01*
G75*
G02*
X138406250Y-80800000I-243750J0D01*
G01*
X137918750Y-80800000D01*
G75*
G02*
X137675000Y-80556250I0J243750D01*
G01*
X137675000Y-79643750D01*
G75*
G02*
X137918750Y-79400000I243750J0D01*
G01*
X138406250Y-79400000D01*
G75*
G02*
X138650000Y-79643750I0J-243750D01*
G01*
G37*
G36*
G01*
X140525000Y-79643750D02*
X140525000Y-80556250D01*
G75*
G02*
X140281250Y-80800000I-243750J0D01*
G01*
X139793750Y-80800000D01*
G75*
G02*
X139550000Y-80556250I0J243750D01*
G01*
X139550000Y-79643750D01*
G75*
G02*
X139793750Y-79400000I243750J0D01*
G01*
X140281250Y-79400000D01*
G75*
G02*
X140525000Y-79643750I0J-243750D01*
G01*
G37*
G36*
G01*
X139300000Y-102556250D02*
X139300000Y-102043750D01*
G75*
G02*
X139518750Y-101825000I218750J0D01*
G01*
X139956250Y-101825000D01*
G75*
G02*
X140175000Y-102043750I0J-218750D01*
G01*
X140175000Y-102556250D01*
G75*
G02*
X139956250Y-102775000I-218750J0D01*
G01*
X139518750Y-102775000D01*
G75*
G02*
X139300000Y-102556250I0J218750D01*
G01*
G37*
G36*
G01*
X137725000Y-102556250D02*
X137725000Y-102043750D01*
G75*
G02*
X137943750Y-101825000I218750J0D01*
G01*
X138381250Y-101825000D01*
G75*
G02*
X138600000Y-102043750I0J-218750D01*
G01*
X138600000Y-102556250D01*
G75*
G02*
X138381250Y-102775000I-218750J0D01*
G01*
X137943750Y-102775000D01*
G75*
G02*
X137725000Y-102556250I0J218750D01*
G01*
G37*
G36*
G01*
X177450000Y-82343750D02*
X177450000Y-82856250D01*
G75*
G02*
X177231250Y-83075000I-218750J0D01*
G01*
X176793750Y-83075000D01*
G75*
G02*
X176575000Y-82856250I0J218750D01*
G01*
X176575000Y-82343750D01*
G75*
G02*
X176793750Y-82125000I218750J0D01*
G01*
X177231250Y-82125000D01*
G75*
G02*
X177450000Y-82343750I0J-218750D01*
G01*
G37*
G36*
G01*
X179025000Y-82343750D02*
X179025000Y-82856250D01*
G75*
G02*
X178806250Y-83075000I-218750J0D01*
G01*
X178368750Y-83075000D01*
G75*
G02*
X178150000Y-82856250I0J218750D01*
G01*
X178150000Y-82343750D01*
G75*
G02*
X178368750Y-82125000I218750J0D01*
G01*
X178806250Y-82125000D01*
G75*
G02*
X179025000Y-82343750I0J-218750D01*
G01*
G37*
G36*
G01*
X165793750Y-106100000D02*
X166306250Y-106100000D01*
G75*
G02*
X166525000Y-106318750I0J-218750D01*
G01*
X166525000Y-106756250D01*
G75*
G02*
X166306250Y-106975000I-218750J0D01*
G01*
X165793750Y-106975000D01*
G75*
G02*
X165575000Y-106756250I0J218750D01*
G01*
X165575000Y-106318750D01*
G75*
G02*
X165793750Y-106100000I218750J0D01*
G01*
G37*
G36*
G01*
X165793750Y-104525000D02*
X166306250Y-104525000D01*
G75*
G02*
X166525000Y-104743750I0J-218750D01*
G01*
X166525000Y-105181250D01*
G75*
G02*
X166306250Y-105400000I-218750J0D01*
G01*
X165793750Y-105400000D01*
G75*
G02*
X165575000Y-105181250I0J218750D01*
G01*
X165575000Y-104743750D01*
G75*
G02*
X165793750Y-104525000I218750J0D01*
G01*
G37*
G36*
G01*
X167293750Y-106100000D02*
X167806250Y-106100000D01*
G75*
G02*
X168025000Y-106318750I0J-218750D01*
G01*
X168025000Y-106756250D01*
G75*
G02*
X167806250Y-106975000I-218750J0D01*
G01*
X167293750Y-106975000D01*
G75*
G02*
X167075000Y-106756250I0J218750D01*
G01*
X167075000Y-106318750D01*
G75*
G02*
X167293750Y-106100000I218750J0D01*
G01*
G37*
G36*
G01*
X167293750Y-104525000D02*
X167806250Y-104525000D01*
G75*
G02*
X168025000Y-104743750I0J-218750D01*
G01*
X168025000Y-105181250D01*
G75*
G02*
X167806250Y-105400000I-218750J0D01*
G01*
X167293750Y-105400000D01*
G75*
G02*
X167075000Y-105181250I0J218750D01*
G01*
X167075000Y-104743750D01*
G75*
G02*
X167293750Y-104525000I218750J0D01*
G01*
G37*
G36*
G01*
X141200000Y-87856250D02*
X141200000Y-87343750D01*
G75*
G02*
X141418750Y-87125000I218750J0D01*
G01*
X141856250Y-87125000D01*
G75*
G02*
X142075000Y-87343750I0J-218750D01*
G01*
X142075000Y-87856250D01*
G75*
G02*
X141856250Y-88075000I-218750J0D01*
G01*
X141418750Y-88075000D01*
G75*
G02*
X141200000Y-87856250I0J218750D01*
G01*
G37*
G36*
G01*
X139625000Y-87856250D02*
X139625000Y-87343750D01*
G75*
G02*
X139843750Y-87125000I218750J0D01*
G01*
X140281250Y-87125000D01*
G75*
G02*
X140500000Y-87343750I0J-218750D01*
G01*
X140500000Y-87856250D01*
G75*
G02*
X140281250Y-88075000I-218750J0D01*
G01*
X139843750Y-88075000D01*
G75*
G02*
X139625000Y-87856250I0J218750D01*
G01*
G37*
D10*
X144100000Y-104650000D03*
X146900000Y-104650000D03*
D11*
X157750000Y-77402000D03*
D12*
X157750000Y-76602000D03*
D11*
X157750000Y-75002000D03*
D12*
X157750000Y-75802000D03*
D11*
X159550000Y-77402000D03*
D12*
X159550000Y-75802000D03*
X159550000Y-76602000D03*
D11*
X159550000Y-75002000D03*
X174900000Y-75000000D03*
D12*
X174900000Y-75800000D03*
D11*
X174900000Y-77400000D03*
D12*
X174900000Y-76600000D03*
D11*
X173100000Y-75000000D03*
D12*
X173100000Y-76600000D03*
X173100000Y-75800000D03*
D11*
X173100000Y-77400000D03*
D13*
X161050000Y-75250000D03*
X161050000Y-77150000D03*
X163250000Y-77150000D03*
X163250000Y-76200000D03*
X163250000Y-75250000D03*
G36*
G01*
X176256250Y-108350000D02*
X175343750Y-108350000D01*
G75*
G02*
X175100000Y-108106250I0J243750D01*
G01*
X175100000Y-107618750D01*
G75*
G02*
X175343750Y-107375000I243750J0D01*
G01*
X176256250Y-107375000D01*
G75*
G02*
X176500000Y-107618750I0J-243750D01*
G01*
X176500000Y-108106250D01*
G75*
G02*
X176256250Y-108350000I-243750J0D01*
G01*
G37*
G36*
G01*
X176256250Y-110225000D02*
X175343750Y-110225000D01*
G75*
G02*
X175100000Y-109981250I0J243750D01*
G01*
X175100000Y-109493750D01*
G75*
G02*
X175343750Y-109250000I243750J0D01*
G01*
X176256250Y-109250000D01*
G75*
G02*
X176500000Y-109493750I0J-243750D01*
G01*
X176500000Y-109981250D01*
G75*
G02*
X176256250Y-110225000I-243750J0D01*
G01*
G37*
D14*
X149300000Y-81800000D03*
D15*
X148500000Y-81800000D03*
D14*
X146900000Y-81800000D03*
D15*
X147700000Y-81800000D03*
D14*
X149300000Y-80000000D03*
D15*
X147700000Y-80000000D03*
X148500000Y-80000000D03*
D14*
X146900000Y-80000000D03*
G36*
G01*
X138600000Y-97543750D02*
X138600000Y-98056250D01*
G75*
G02*
X138381250Y-98275000I-218750J0D01*
G01*
X137943750Y-98275000D01*
G75*
G02*
X137725000Y-98056250I0J218750D01*
G01*
X137725000Y-97543750D01*
G75*
G02*
X137943750Y-97325000I218750J0D01*
G01*
X138381250Y-97325000D01*
G75*
G02*
X138600000Y-97543750I0J-218750D01*
G01*
G37*
G36*
G01*
X140175000Y-97543750D02*
X140175000Y-98056250D01*
G75*
G02*
X139956250Y-98275000I-218750J0D01*
G01*
X139518750Y-98275000D01*
G75*
G02*
X139300000Y-98056250I0J218750D01*
G01*
X139300000Y-97543750D01*
G75*
G02*
X139518750Y-97325000I218750J0D01*
G01*
X139956250Y-97325000D01*
G75*
G02*
X140175000Y-97543750I0J-218750D01*
G01*
G37*
G36*
G01*
X184406250Y-81300000D02*
X183893750Y-81300000D01*
G75*
G02*
X183675000Y-81081250I0J218750D01*
G01*
X183675000Y-80643750D01*
G75*
G02*
X183893750Y-80425000I218750J0D01*
G01*
X184406250Y-80425000D01*
G75*
G02*
X184625000Y-80643750I0J-218750D01*
G01*
X184625000Y-81081250D01*
G75*
G02*
X184406250Y-81300000I-218750J0D01*
G01*
G37*
G36*
G01*
X184406250Y-82875000D02*
X183893750Y-82875000D01*
G75*
G02*
X183675000Y-82656250I0J218750D01*
G01*
X183675000Y-82218750D01*
G75*
G02*
X183893750Y-82000000I218750J0D01*
G01*
X184406250Y-82000000D01*
G75*
G02*
X184625000Y-82218750I0J-218750D01*
G01*
X184625000Y-82656250D01*
G75*
G02*
X184406250Y-82875000I-218750J0D01*
G01*
G37*
D16*
X186650000Y-80450000D03*
X185700000Y-82450000D03*
X187600000Y-82450000D03*
G36*
G01*
X158700000Y-100343750D02*
X158700000Y-101256250D01*
G75*
G02*
X158456250Y-101500000I-243750J0D01*
G01*
X157968750Y-101500000D01*
G75*
G02*
X157725000Y-101256250I0J243750D01*
G01*
X157725000Y-100343750D01*
G75*
G02*
X157968750Y-100100000I243750J0D01*
G01*
X158456250Y-100100000D01*
G75*
G02*
X158700000Y-100343750I0J-243750D01*
G01*
G37*
G36*
G01*
X160575000Y-100343750D02*
X160575000Y-101256250D01*
G75*
G02*
X160331250Y-101500000I-243750J0D01*
G01*
X159843750Y-101500000D01*
G75*
G02*
X159600000Y-101256250I0J243750D01*
G01*
X159600000Y-100343750D01*
G75*
G02*
X159843750Y-100100000I243750J0D01*
G01*
X160331250Y-100100000D01*
G75*
G02*
X160575000Y-100343750I0J-243750D01*
G01*
G37*
D17*
X163350000Y-96500000D03*
X158750000Y-96500000D03*
X161050000Y-96500000D03*
D18*
X161050000Y-90200000D03*
D17*
X143300000Y-77850000D03*
X138700000Y-77850000D03*
X141000000Y-77850000D03*
D18*
X141000000Y-71550000D03*
G36*
G01*
X174356250Y-108350000D02*
X173443750Y-108350000D01*
G75*
G02*
X173200000Y-108106250I0J243750D01*
G01*
X173200000Y-107618750D01*
G75*
G02*
X173443750Y-107375000I243750J0D01*
G01*
X174356250Y-107375000D01*
G75*
G02*
X174600000Y-107618750I0J-243750D01*
G01*
X174600000Y-108106250D01*
G75*
G02*
X174356250Y-108350000I-243750J0D01*
G01*
G37*
G36*
G01*
X174356250Y-110225000D02*
X173443750Y-110225000D01*
G75*
G02*
X173200000Y-109981250I0J243750D01*
G01*
X173200000Y-109493750D01*
G75*
G02*
X173443750Y-109250000I243750J0D01*
G01*
X174356250Y-109250000D01*
G75*
G02*
X174600000Y-109493750I0J-243750D01*
G01*
X174600000Y-109981250D01*
G75*
G02*
X174356250Y-110225000I-243750J0D01*
G01*
G37*
G36*
G01*
X139300000Y-101056250D02*
X139300000Y-100543750D01*
G75*
G02*
X139518750Y-100325000I218750J0D01*
G01*
X139956250Y-100325000D01*
G75*
G02*
X140175000Y-100543750I0J-218750D01*
G01*
X140175000Y-101056250D01*
G75*
G02*
X139956250Y-101275000I-218750J0D01*
G01*
X139518750Y-101275000D01*
G75*
G02*
X139300000Y-101056250I0J218750D01*
G01*
G37*
G36*
G01*
X137725000Y-101056250D02*
X137725000Y-100543750D01*
G75*
G02*
X137943750Y-100325000I218750J0D01*
G01*
X138381250Y-100325000D01*
G75*
G02*
X138600000Y-100543750I0J-218750D01*
G01*
X138600000Y-101056250D01*
G75*
G02*
X138381250Y-101275000I-218750J0D01*
G01*
X137943750Y-101275000D01*
G75*
G02*
X137725000Y-101056250I0J218750D01*
G01*
G37*
G36*
G01*
X138600000Y-99043750D02*
X138600000Y-99556250D01*
G75*
G02*
X138381250Y-99775000I-218750J0D01*
G01*
X137943750Y-99775000D01*
G75*
G02*
X137725000Y-99556250I0J218750D01*
G01*
X137725000Y-99043750D01*
G75*
G02*
X137943750Y-98825000I218750J0D01*
G01*
X138381250Y-98825000D01*
G75*
G02*
X138600000Y-99043750I0J-218750D01*
G01*
G37*
G36*
G01*
X140175000Y-99043750D02*
X140175000Y-99556250D01*
G75*
G02*
X139956250Y-99775000I-218750J0D01*
G01*
X139518750Y-99775000D01*
G75*
G02*
X139300000Y-99556250I0J218750D01*
G01*
X139300000Y-99043750D01*
G75*
G02*
X139518750Y-98825000I218750J0D01*
G01*
X139956250Y-98825000D01*
G75*
G02*
X140175000Y-99043750I0J-218750D01*
G01*
G37*
G36*
G01*
X153700000Y-91143750D02*
X153700000Y-91656250D01*
G75*
G02*
X153481250Y-91875000I-218750J0D01*
G01*
X153043750Y-91875000D01*
G75*
G02*
X152825000Y-91656250I0J218750D01*
G01*
X152825000Y-91143750D01*
G75*
G02*
X153043750Y-90925000I218750J0D01*
G01*
X153481250Y-90925000D01*
G75*
G02*
X153700000Y-91143750I0J-218750D01*
G01*
G37*
G36*
G01*
X155275000Y-91143750D02*
X155275000Y-91656250D01*
G75*
G02*
X155056250Y-91875000I-218750J0D01*
G01*
X154618750Y-91875000D01*
G75*
G02*
X154400000Y-91656250I0J218750D01*
G01*
X154400000Y-91143750D01*
G75*
G02*
X154618750Y-90925000I218750J0D01*
G01*
X155056250Y-90925000D01*
G75*
G02*
X155275000Y-91143750I0J-218750D01*
G01*
G37*
G36*
G01*
X153700000Y-92643750D02*
X153700000Y-93156250D01*
G75*
G02*
X153481250Y-93375000I-218750J0D01*
G01*
X153043750Y-93375000D01*
G75*
G02*
X152825000Y-93156250I0J218750D01*
G01*
X152825000Y-92643750D01*
G75*
G02*
X153043750Y-92425000I218750J0D01*
G01*
X153481250Y-92425000D01*
G75*
G02*
X153700000Y-92643750I0J-218750D01*
G01*
G37*
G36*
G01*
X155275000Y-92643750D02*
X155275000Y-93156250D01*
G75*
G02*
X155056250Y-93375000I-218750J0D01*
G01*
X154618750Y-93375000D01*
G75*
G02*
X154400000Y-93156250I0J218750D01*
G01*
X154400000Y-92643750D01*
G75*
G02*
X154618750Y-92425000I218750J0D01*
G01*
X155056250Y-92425000D01*
G75*
G02*
X155275000Y-92643750I0J-218750D01*
G01*
G37*
G36*
G01*
X145800000Y-102493750D02*
X145800000Y-103006250D01*
G75*
G02*
X145581250Y-103225000I-218750J0D01*
G01*
X145143750Y-103225000D01*
G75*
G02*
X144925000Y-103006250I0J218750D01*
G01*
X144925000Y-102493750D01*
G75*
G02*
X145143750Y-102275000I218750J0D01*
G01*
X145581250Y-102275000D01*
G75*
G02*
X145800000Y-102493750I0J-218750D01*
G01*
G37*
G36*
G01*
X147375000Y-102493750D02*
X147375000Y-103006250D01*
G75*
G02*
X147156250Y-103225000I-218750J0D01*
G01*
X146718750Y-103225000D01*
G75*
G02*
X146500000Y-103006250I0J218750D01*
G01*
X146500000Y-102493750D01*
G75*
G02*
X146718750Y-102275000I218750J0D01*
G01*
X147156250Y-102275000D01*
G75*
G02*
X147375000Y-102493750I0J-218750D01*
G01*
G37*
G36*
G01*
X153350000Y-84806250D02*
X153350000Y-84293750D01*
G75*
G02*
X153568750Y-84075000I218750J0D01*
G01*
X154006250Y-84075000D01*
G75*
G02*
X154225000Y-84293750I0J-218750D01*
G01*
X154225000Y-84806250D01*
G75*
G02*
X154006250Y-85025000I-218750J0D01*
G01*
X153568750Y-85025000D01*
G75*
G02*
X153350000Y-84806250I0J218750D01*
G01*
G37*
G36*
G01*
X151775000Y-84806250D02*
X151775000Y-84293750D01*
G75*
G02*
X151993750Y-84075000I218750J0D01*
G01*
X152431250Y-84075000D01*
G75*
G02*
X152650000Y-84293750I0J-218750D01*
G01*
X152650000Y-84806250D01*
G75*
G02*
X152431250Y-85025000I-218750J0D01*
G01*
X151993750Y-85025000D01*
G75*
G02*
X151775000Y-84806250I0J218750D01*
G01*
G37*
G36*
G01*
X145850000Y-95743750D02*
X145850000Y-96256250D01*
G75*
G02*
X145631250Y-96475000I-218750J0D01*
G01*
X145193750Y-96475000D01*
G75*
G02*
X144975000Y-96256250I0J218750D01*
G01*
X144975000Y-95743750D01*
G75*
G02*
X145193750Y-95525000I218750J0D01*
G01*
X145631250Y-95525000D01*
G75*
G02*
X145850000Y-95743750I0J-218750D01*
G01*
G37*
G36*
G01*
X147425000Y-95743750D02*
X147425000Y-96256250D01*
G75*
G02*
X147206250Y-96475000I-218750J0D01*
G01*
X146768750Y-96475000D01*
G75*
G02*
X146550000Y-96256250I0J218750D01*
G01*
X146550000Y-95743750D01*
G75*
G02*
X146768750Y-95525000I218750J0D01*
G01*
X147206250Y-95525000D01*
G75*
G02*
X147425000Y-95743750I0J-218750D01*
G01*
G37*
G36*
G01*
X138600000Y-96043750D02*
X138600000Y-96556250D01*
G75*
G02*
X138381250Y-96775000I-218750J0D01*
G01*
X137943750Y-96775000D01*
G75*
G02*
X137725000Y-96556250I0J218750D01*
G01*
X137725000Y-96043750D01*
G75*
G02*
X137943750Y-95825000I218750J0D01*
G01*
X138381250Y-95825000D01*
G75*
G02*
X138600000Y-96043750I0J-218750D01*
G01*
G37*
G36*
G01*
X140175000Y-96043750D02*
X140175000Y-96556250D01*
G75*
G02*
X139956250Y-96775000I-218750J0D01*
G01*
X139518750Y-96775000D01*
G75*
G02*
X139300000Y-96556250I0J218750D01*
G01*
X139300000Y-96043750D01*
G75*
G02*
X139518750Y-95825000I218750J0D01*
G01*
X139956250Y-95825000D01*
G75*
G02*
X140175000Y-96043750I0J-218750D01*
G01*
G37*
G36*
G01*
X161293750Y-104525000D02*
X161806250Y-104525000D01*
G75*
G02*
X162025000Y-104743750I0J-218750D01*
G01*
X162025000Y-105181250D01*
G75*
G02*
X161806250Y-105400000I-218750J0D01*
G01*
X161293750Y-105400000D01*
G75*
G02*
X161075000Y-105181250I0J218750D01*
G01*
X161075000Y-104743750D01*
G75*
G02*
X161293750Y-104525000I218750J0D01*
G01*
G37*
G36*
G01*
X161293750Y-106100000D02*
X161806250Y-106100000D01*
G75*
G02*
X162025000Y-106318750I0J-218750D01*
G01*
X162025000Y-106756250D01*
G75*
G02*
X161806250Y-106975000I-218750J0D01*
G01*
X161293750Y-106975000D01*
G75*
G02*
X161075000Y-106756250I0J218750D01*
G01*
X161075000Y-106318750D01*
G75*
G02*
X161293750Y-106100000I218750J0D01*
G01*
G37*
D11*
X139950000Y-86200000D03*
D12*
X139950000Y-85400000D03*
D11*
X139950000Y-83800000D03*
D12*
X139950000Y-84600000D03*
D11*
X141750000Y-86200000D03*
D12*
X141750000Y-84600000D03*
X141750000Y-85400000D03*
D11*
X141750000Y-83800000D03*
X154818000Y-75002000D03*
D12*
X154818000Y-75802000D03*
D11*
X154818000Y-77402000D03*
D12*
X154818000Y-76602000D03*
D11*
X153018000Y-75002000D03*
D12*
X153018000Y-76602000D03*
X153018000Y-75802000D03*
D11*
X153018000Y-77402000D03*
G36*
G01*
X163306250Y-106975000D02*
X162793750Y-106975000D01*
G75*
G02*
X162575000Y-106756250I0J218750D01*
G01*
X162575000Y-106318750D01*
G75*
G02*
X162793750Y-106100000I218750J0D01*
G01*
X163306250Y-106100000D01*
G75*
G02*
X163525000Y-106318750I0J-218750D01*
G01*
X163525000Y-106756250D01*
G75*
G02*
X163306250Y-106975000I-218750J0D01*
G01*
G37*
G36*
G01*
X163306250Y-105400000D02*
X162793750Y-105400000D01*
G75*
G02*
X162575000Y-105181250I0J218750D01*
G01*
X162575000Y-104743750D01*
G75*
G02*
X162793750Y-104525000I218750J0D01*
G01*
X163306250Y-104525000D01*
G75*
G02*
X163525000Y-104743750I0J-218750D01*
G01*
X163525000Y-105181250D01*
G75*
G02*
X163306250Y-105400000I-218750J0D01*
G01*
G37*
G36*
G01*
X160793750Y-83025000D02*
X161306250Y-83025000D01*
G75*
G02*
X161525000Y-83243750I0J-218750D01*
G01*
X161525000Y-83681250D01*
G75*
G02*
X161306250Y-83900000I-218750J0D01*
G01*
X160793750Y-83900000D01*
G75*
G02*
X160575000Y-83681250I0J218750D01*
G01*
X160575000Y-83243750D01*
G75*
G02*
X160793750Y-83025000I218750J0D01*
G01*
G37*
G36*
G01*
X160793750Y-84600000D02*
X161306250Y-84600000D01*
G75*
G02*
X161525000Y-84818750I0J-218750D01*
G01*
X161525000Y-85256250D01*
G75*
G02*
X161306250Y-85475000I-218750J0D01*
G01*
X160793750Y-85475000D01*
G75*
G02*
X160575000Y-85256250I0J218750D01*
G01*
X160575000Y-84818750D01*
G75*
G02*
X160793750Y-84600000I218750J0D01*
G01*
G37*
G36*
G01*
X139625000Y-82656250D02*
X139625000Y-82143750D01*
G75*
G02*
X139843750Y-81925000I218750J0D01*
G01*
X140281250Y-81925000D01*
G75*
G02*
X140500000Y-82143750I0J-218750D01*
G01*
X140500000Y-82656250D01*
G75*
G02*
X140281250Y-82875000I-218750J0D01*
G01*
X139843750Y-82875000D01*
G75*
G02*
X139625000Y-82656250I0J218750D01*
G01*
G37*
G36*
G01*
X141200000Y-82656250D02*
X141200000Y-82143750D01*
G75*
G02*
X141418750Y-81925000I218750J0D01*
G01*
X141856250Y-81925000D01*
G75*
G02*
X142075000Y-82143750I0J-218750D01*
G01*
X142075000Y-82656250D01*
G75*
G02*
X141856250Y-82875000I-218750J0D01*
G01*
X141418750Y-82875000D01*
G75*
G02*
X141200000Y-82656250I0J218750D01*
G01*
G37*
G36*
G01*
X159793750Y-104525000D02*
X160306250Y-104525000D01*
G75*
G02*
X160525000Y-104743750I0J-218750D01*
G01*
X160525000Y-105181250D01*
G75*
G02*
X160306250Y-105400000I-218750J0D01*
G01*
X159793750Y-105400000D01*
G75*
G02*
X159575000Y-105181250I0J218750D01*
G01*
X159575000Y-104743750D01*
G75*
G02*
X159793750Y-104525000I218750J0D01*
G01*
G37*
G36*
G01*
X159793750Y-106100000D02*
X160306250Y-106100000D01*
G75*
G02*
X160525000Y-106318750I0J-218750D01*
G01*
X160525000Y-106756250D01*
G75*
G02*
X160306250Y-106975000I-218750J0D01*
G01*
X159793750Y-106975000D01*
G75*
G02*
X159575000Y-106756250I0J218750D01*
G01*
X159575000Y-106318750D01*
G75*
G02*
X159793750Y-106100000I218750J0D01*
G01*
G37*
G36*
G01*
X138706250Y-86225000D02*
X138193750Y-86225000D01*
G75*
G02*
X137975000Y-86006250I0J218750D01*
G01*
X137975000Y-85568750D01*
G75*
G02*
X138193750Y-85350000I218750J0D01*
G01*
X138706250Y-85350000D01*
G75*
G02*
X138925000Y-85568750I0J-218750D01*
G01*
X138925000Y-86006250D01*
G75*
G02*
X138706250Y-86225000I-218750J0D01*
G01*
G37*
G36*
G01*
X138706250Y-84650000D02*
X138193750Y-84650000D01*
G75*
G02*
X137975000Y-84431250I0J218750D01*
G01*
X137975000Y-83993750D01*
G75*
G02*
X138193750Y-83775000I218750J0D01*
G01*
X138706250Y-83775000D01*
G75*
G02*
X138925000Y-83993750I0J-218750D01*
G01*
X138925000Y-84431250D01*
G75*
G02*
X138706250Y-84650000I-218750J0D01*
G01*
G37*
G36*
G01*
X170093750Y-74150000D02*
X170606250Y-74150000D01*
G75*
G02*
X170825000Y-74368750I0J-218750D01*
G01*
X170825000Y-74806250D01*
G75*
G02*
X170606250Y-75025000I-218750J0D01*
G01*
X170093750Y-75025000D01*
G75*
G02*
X169875000Y-74806250I0J218750D01*
G01*
X169875000Y-74368750D01*
G75*
G02*
X170093750Y-74150000I218750J0D01*
G01*
G37*
G36*
G01*
X170093750Y-72575000D02*
X170606250Y-72575000D01*
G75*
G02*
X170825000Y-72793750I0J-218750D01*
G01*
X170825000Y-73231250D01*
G75*
G02*
X170606250Y-73450000I-218750J0D01*
G01*
X170093750Y-73450000D01*
G75*
G02*
X169875000Y-73231250I0J218750D01*
G01*
X169875000Y-72793750D01*
G75*
G02*
X170093750Y-72575000I218750J0D01*
G01*
G37*
G36*
G01*
X150043750Y-74150000D02*
X150556250Y-74150000D01*
G75*
G02*
X150775000Y-74368750I0J-218750D01*
G01*
X150775000Y-74806250D01*
G75*
G02*
X150556250Y-75025000I-218750J0D01*
G01*
X150043750Y-75025000D01*
G75*
G02*
X149825000Y-74806250I0J218750D01*
G01*
X149825000Y-74368750D01*
G75*
G02*
X150043750Y-74150000I218750J0D01*
G01*
G37*
G36*
G01*
X150043750Y-72575000D02*
X150556250Y-72575000D01*
G75*
G02*
X150775000Y-72793750I0J-218750D01*
G01*
X150775000Y-73231250D01*
G75*
G02*
X150556250Y-73450000I-218750J0D01*
G01*
X150043750Y-73450000D01*
G75*
G02*
X149825000Y-73231250I0J218750D01*
G01*
X149825000Y-72793750D01*
G75*
G02*
X150043750Y-72575000I218750J0D01*
G01*
G37*
G36*
G01*
X178825000Y-97093750D02*
X178825000Y-97606250D01*
G75*
G02*
X178606250Y-97825000I-218750J0D01*
G01*
X178168750Y-97825000D01*
G75*
G02*
X177950000Y-97606250I0J218750D01*
G01*
X177950000Y-97093750D01*
G75*
G02*
X178168750Y-96875000I218750J0D01*
G01*
X178606250Y-96875000D01*
G75*
G02*
X178825000Y-97093750I0J-218750D01*
G01*
G37*
G36*
G01*
X177250000Y-97093750D02*
X177250000Y-97606250D01*
G75*
G02*
X177031250Y-97825000I-218750J0D01*
G01*
X176593750Y-97825000D01*
G75*
G02*
X176375000Y-97606250I0J218750D01*
G01*
X176375000Y-97093750D01*
G75*
G02*
X176593750Y-96875000I218750J0D01*
G01*
X177031250Y-96875000D01*
G75*
G02*
X177250000Y-97093750I0J-218750D01*
G01*
G37*
G36*
G01*
X178825000Y-100493750D02*
X178825000Y-101006250D01*
G75*
G02*
X178606250Y-101225000I-218750J0D01*
G01*
X178168750Y-101225000D01*
G75*
G02*
X177950000Y-101006250I0J218750D01*
G01*
X177950000Y-100493750D01*
G75*
G02*
X178168750Y-100275000I218750J0D01*
G01*
X178606250Y-100275000D01*
G75*
G02*
X178825000Y-100493750I0J-218750D01*
G01*
G37*
G36*
G01*
X177250000Y-100493750D02*
X177250000Y-101006250D01*
G75*
G02*
X177031250Y-101225000I-218750J0D01*
G01*
X176593750Y-101225000D01*
G75*
G02*
X176375000Y-101006250I0J218750D01*
G01*
X176375000Y-100493750D01*
G75*
G02*
X176593750Y-100275000I218750J0D01*
G01*
X177031250Y-100275000D01*
G75*
G02*
X177250000Y-100493750I0J-218750D01*
G01*
G37*
G36*
G01*
X189450000Y-100456250D02*
X189450000Y-99943750D01*
G75*
G02*
X189668750Y-99725000I218750J0D01*
G01*
X190106250Y-99725000D01*
G75*
G02*
X190325000Y-99943750I0J-218750D01*
G01*
X190325000Y-100456250D01*
G75*
G02*
X190106250Y-100675000I-218750J0D01*
G01*
X189668750Y-100675000D01*
G75*
G02*
X189450000Y-100456250I0J218750D01*
G01*
G37*
G36*
G01*
X187875000Y-100456250D02*
X187875000Y-99943750D01*
G75*
G02*
X188093750Y-99725000I218750J0D01*
G01*
X188531250Y-99725000D01*
G75*
G02*
X188750000Y-99943750I0J-218750D01*
G01*
X188750000Y-100456250D01*
G75*
G02*
X188531250Y-100675000I-218750J0D01*
G01*
X188093750Y-100675000D01*
G75*
G02*
X187875000Y-100456250I0J218750D01*
G01*
G37*
G36*
G01*
X190450000Y-105256250D02*
X190450000Y-104743750D01*
G75*
G02*
X190668750Y-104525000I218750J0D01*
G01*
X191106250Y-104525000D01*
G75*
G02*
X191325000Y-104743750I0J-218750D01*
G01*
X191325000Y-105256250D01*
G75*
G02*
X191106250Y-105475000I-218750J0D01*
G01*
X190668750Y-105475000D01*
G75*
G02*
X190450000Y-105256250I0J218750D01*
G01*
G37*
G36*
G01*
X188875000Y-105256250D02*
X188875000Y-104743750D01*
G75*
G02*
X189093750Y-104525000I218750J0D01*
G01*
X189531250Y-104525000D01*
G75*
G02*
X189750000Y-104743750I0J-218750D01*
G01*
X189750000Y-105256250D01*
G75*
G02*
X189531250Y-105475000I-218750J0D01*
G01*
X189093750Y-105475000D01*
G75*
G02*
X188875000Y-105256250I0J218750D01*
G01*
G37*
G36*
G01*
X187875000Y-84256250D02*
X187875000Y-83743750D01*
G75*
G02*
X188093750Y-83525000I218750J0D01*
G01*
X188531250Y-83525000D01*
G75*
G02*
X188750000Y-83743750I0J-218750D01*
G01*
X188750000Y-84256250D01*
G75*
G02*
X188531250Y-84475000I-218750J0D01*
G01*
X188093750Y-84475000D01*
G75*
G02*
X187875000Y-84256250I0J218750D01*
G01*
G37*
G36*
G01*
X189450000Y-84256250D02*
X189450000Y-83743750D01*
G75*
G02*
X189668750Y-83525000I218750J0D01*
G01*
X190106250Y-83525000D01*
G75*
G02*
X190325000Y-83743750I0J-218750D01*
G01*
X190325000Y-84256250D01*
G75*
G02*
X190106250Y-84475000I-218750J0D01*
G01*
X189668750Y-84475000D01*
G75*
G02*
X189450000Y-84256250I0J218750D01*
G01*
G37*
G36*
G01*
X189450000Y-95956250D02*
X189450000Y-95443750D01*
G75*
G02*
X189668750Y-95225000I218750J0D01*
G01*
X190106250Y-95225000D01*
G75*
G02*
X190325000Y-95443750I0J-218750D01*
G01*
X190325000Y-95956250D01*
G75*
G02*
X190106250Y-96175000I-218750J0D01*
G01*
X189668750Y-96175000D01*
G75*
G02*
X189450000Y-95956250I0J218750D01*
G01*
G37*
G36*
G01*
X187875000Y-95956250D02*
X187875000Y-95443750D01*
G75*
G02*
X188093750Y-95225000I218750J0D01*
G01*
X188531250Y-95225000D01*
G75*
G02*
X188750000Y-95443750I0J-218750D01*
G01*
X188750000Y-95956250D01*
G75*
G02*
X188531250Y-96175000I-218750J0D01*
G01*
X188093750Y-96175000D01*
G75*
G02*
X187875000Y-95956250I0J218750D01*
G01*
G37*
G36*
G01*
X172150000Y-88756250D02*
X172150000Y-88243750D01*
G75*
G02*
X172368750Y-88025000I218750J0D01*
G01*
X172806250Y-88025000D01*
G75*
G02*
X173025000Y-88243750I0J-218750D01*
G01*
X173025000Y-88756250D01*
G75*
G02*
X172806250Y-88975000I-218750J0D01*
G01*
X172368750Y-88975000D01*
G75*
G02*
X172150000Y-88756250I0J218750D01*
G01*
G37*
G36*
G01*
X170575000Y-88756250D02*
X170575000Y-88243750D01*
G75*
G02*
X170793750Y-88025000I218750J0D01*
G01*
X171231250Y-88025000D01*
G75*
G02*
X171450000Y-88243750I0J-218750D01*
G01*
X171450000Y-88756250D01*
G75*
G02*
X171231250Y-88975000I-218750J0D01*
G01*
X170793750Y-88975000D01*
G75*
G02*
X170575000Y-88756250I0J218750D01*
G01*
G37*
G36*
G01*
X172100000Y-101006250D02*
X172100000Y-100493750D01*
G75*
G02*
X172318750Y-100275000I218750J0D01*
G01*
X172756250Y-100275000D01*
G75*
G02*
X172975000Y-100493750I0J-218750D01*
G01*
X172975000Y-101006250D01*
G75*
G02*
X172756250Y-101225000I-218750J0D01*
G01*
X172318750Y-101225000D01*
G75*
G02*
X172100000Y-101006250I0J218750D01*
G01*
G37*
G36*
G01*
X170525000Y-101006250D02*
X170525000Y-100493750D01*
G75*
G02*
X170743750Y-100275000I218750J0D01*
G01*
X171181250Y-100275000D01*
G75*
G02*
X171400000Y-100493750I0J-218750D01*
G01*
X171400000Y-101006250D01*
G75*
G02*
X171181250Y-101225000I-218750J0D01*
G01*
X170743750Y-101225000D01*
G75*
G02*
X170525000Y-101006250I0J218750D01*
G01*
G37*
G36*
G01*
X159806250Y-85475000D02*
X159293750Y-85475000D01*
G75*
G02*
X159075000Y-85256250I0J218750D01*
G01*
X159075000Y-84818750D01*
G75*
G02*
X159293750Y-84600000I218750J0D01*
G01*
X159806250Y-84600000D01*
G75*
G02*
X160025000Y-84818750I0J-218750D01*
G01*
X160025000Y-85256250D01*
G75*
G02*
X159806250Y-85475000I-218750J0D01*
G01*
G37*
G36*
G01*
X159806250Y-83900000D02*
X159293750Y-83900000D01*
G75*
G02*
X159075000Y-83681250I0J218750D01*
G01*
X159075000Y-83243750D01*
G75*
G02*
X159293750Y-83025000I218750J0D01*
G01*
X159806250Y-83025000D01*
G75*
G02*
X160025000Y-83243750I0J-218750D01*
G01*
X160025000Y-83681250D01*
G75*
G02*
X159806250Y-83900000I-218750J0D01*
G01*
G37*
G36*
G01*
X165806250Y-83900000D02*
X165293750Y-83900000D01*
G75*
G02*
X165075000Y-83681250I0J218750D01*
G01*
X165075000Y-83243750D01*
G75*
G02*
X165293750Y-83025000I218750J0D01*
G01*
X165806250Y-83025000D01*
G75*
G02*
X166025000Y-83243750I0J-218750D01*
G01*
X166025000Y-83681250D01*
G75*
G02*
X165806250Y-83900000I-218750J0D01*
G01*
G37*
G36*
G01*
X165806250Y-85475000D02*
X165293750Y-85475000D01*
G75*
G02*
X165075000Y-85256250I0J218750D01*
G01*
X165075000Y-84818750D01*
G75*
G02*
X165293750Y-84600000I218750J0D01*
G01*
X165806250Y-84600000D01*
G75*
G02*
X166025000Y-84818750I0J-218750D01*
G01*
X166025000Y-85256250D01*
G75*
G02*
X165806250Y-85475000I-218750J0D01*
G01*
G37*
G36*
G01*
X149950000Y-100243750D02*
X149950000Y-100756250D01*
G75*
G02*
X149731250Y-100975000I-218750J0D01*
G01*
X149293750Y-100975000D01*
G75*
G02*
X149075000Y-100756250I0J218750D01*
G01*
X149075000Y-100243750D01*
G75*
G02*
X149293750Y-100025000I218750J0D01*
G01*
X149731250Y-100025000D01*
G75*
G02*
X149950000Y-100243750I0J-218750D01*
G01*
G37*
G36*
G01*
X151525000Y-100243750D02*
X151525000Y-100756250D01*
G75*
G02*
X151306250Y-100975000I-218750J0D01*
G01*
X150868750Y-100975000D01*
G75*
G02*
X150650000Y-100756250I0J218750D01*
G01*
X150650000Y-100243750D01*
G75*
G02*
X150868750Y-100025000I218750J0D01*
G01*
X151306250Y-100025000D01*
G75*
G02*
X151525000Y-100243750I0J-218750D01*
G01*
G37*
G36*
G01*
X149950000Y-93243750D02*
X149950000Y-93756250D01*
G75*
G02*
X149731250Y-93975000I-218750J0D01*
G01*
X149293750Y-93975000D01*
G75*
G02*
X149075000Y-93756250I0J218750D01*
G01*
X149075000Y-93243750D01*
G75*
G02*
X149293750Y-93025000I218750J0D01*
G01*
X149731250Y-93025000D01*
G75*
G02*
X149950000Y-93243750I0J-218750D01*
G01*
G37*
G36*
G01*
X151525000Y-93243750D02*
X151525000Y-93756250D01*
G75*
G02*
X151306250Y-93975000I-218750J0D01*
G01*
X150868750Y-93975000D01*
G75*
G02*
X150650000Y-93756250I0J218750D01*
G01*
X150650000Y-93243750D01*
G75*
G02*
X150868750Y-93025000I218750J0D01*
G01*
X151306250Y-93025000D01*
G75*
G02*
X151525000Y-93243750I0J-218750D01*
G01*
G37*
G36*
G01*
X164293750Y-106100000D02*
X164806250Y-106100000D01*
G75*
G02*
X165025000Y-106318750I0J-218750D01*
G01*
X165025000Y-106756250D01*
G75*
G02*
X164806250Y-106975000I-218750J0D01*
G01*
X164293750Y-106975000D01*
G75*
G02*
X164075000Y-106756250I0J218750D01*
G01*
X164075000Y-106318750D01*
G75*
G02*
X164293750Y-106100000I218750J0D01*
G01*
G37*
G36*
G01*
X164293750Y-104525000D02*
X164806250Y-104525000D01*
G75*
G02*
X165025000Y-104743750I0J-218750D01*
G01*
X165025000Y-105181250D01*
G75*
G02*
X164806250Y-105400000I-218750J0D01*
G01*
X164293750Y-105400000D01*
G75*
G02*
X164075000Y-105181250I0J218750D01*
G01*
X164075000Y-104743750D01*
G75*
G02*
X164293750Y-104525000I218750J0D01*
G01*
G37*
G36*
G01*
X158293750Y-106100000D02*
X158806250Y-106100000D01*
G75*
G02*
X159025000Y-106318750I0J-218750D01*
G01*
X159025000Y-106756250D01*
G75*
G02*
X158806250Y-106975000I-218750J0D01*
G01*
X158293750Y-106975000D01*
G75*
G02*
X158075000Y-106756250I0J218750D01*
G01*
X158075000Y-106318750D01*
G75*
G02*
X158293750Y-106100000I218750J0D01*
G01*
G37*
G36*
G01*
X158293750Y-104525000D02*
X158806250Y-104525000D01*
G75*
G02*
X159025000Y-104743750I0J-218750D01*
G01*
X159025000Y-105181250D01*
G75*
G02*
X158806250Y-105400000I-218750J0D01*
G01*
X158293750Y-105400000D01*
G75*
G02*
X158075000Y-105181250I0J218750D01*
G01*
X158075000Y-104743750D01*
G75*
G02*
X158293750Y-104525000I218750J0D01*
G01*
G37*
G36*
G01*
X162806250Y-83900000D02*
X162293750Y-83900000D01*
G75*
G02*
X162075000Y-83681250I0J218750D01*
G01*
X162075000Y-83243750D01*
G75*
G02*
X162293750Y-83025000I218750J0D01*
G01*
X162806250Y-83025000D01*
G75*
G02*
X163025000Y-83243750I0J-218750D01*
G01*
X163025000Y-83681250D01*
G75*
G02*
X162806250Y-83900000I-218750J0D01*
G01*
G37*
G36*
G01*
X162806250Y-85475000D02*
X162293750Y-85475000D01*
G75*
G02*
X162075000Y-85256250I0J218750D01*
G01*
X162075000Y-84818750D01*
G75*
G02*
X162293750Y-84600000I218750J0D01*
G01*
X162806250Y-84600000D01*
G75*
G02*
X163025000Y-84818750I0J-218750D01*
G01*
X163025000Y-85256250D01*
G75*
G02*
X162806250Y-85475000I-218750J0D01*
G01*
G37*
G36*
G01*
X164306250Y-83900000D02*
X163793750Y-83900000D01*
G75*
G02*
X163575000Y-83681250I0J218750D01*
G01*
X163575000Y-83243750D01*
G75*
G02*
X163793750Y-83025000I218750J0D01*
G01*
X164306250Y-83025000D01*
G75*
G02*
X164525000Y-83243750I0J-218750D01*
G01*
X164525000Y-83681250D01*
G75*
G02*
X164306250Y-83900000I-218750J0D01*
G01*
G37*
G36*
G01*
X164306250Y-85475000D02*
X163793750Y-85475000D01*
G75*
G02*
X163575000Y-85256250I0J218750D01*
G01*
X163575000Y-84818750D01*
G75*
G02*
X163793750Y-84600000I218750J0D01*
G01*
X164306250Y-84600000D01*
G75*
G02*
X164525000Y-84818750I0J-218750D01*
G01*
X164525000Y-85256250D01*
G75*
G02*
X164306250Y-85475000I-218750J0D01*
G01*
G37*
G36*
G01*
X153793750Y-106100000D02*
X154306250Y-106100000D01*
G75*
G02*
X154525000Y-106318750I0J-218750D01*
G01*
X154525000Y-106756250D01*
G75*
G02*
X154306250Y-106975000I-218750J0D01*
G01*
X153793750Y-106975000D01*
G75*
G02*
X153575000Y-106756250I0J218750D01*
G01*
X153575000Y-106318750D01*
G75*
G02*
X153793750Y-106100000I218750J0D01*
G01*
G37*
G36*
G01*
X153793750Y-104525000D02*
X154306250Y-104525000D01*
G75*
G02*
X154525000Y-104743750I0J-218750D01*
G01*
X154525000Y-105181250D01*
G75*
G02*
X154306250Y-105400000I-218750J0D01*
G01*
X153793750Y-105400000D01*
G75*
G02*
X153575000Y-105181250I0J218750D01*
G01*
X153575000Y-104743750D01*
G75*
G02*
X153793750Y-104525000I218750J0D01*
G01*
G37*
G36*
G01*
X149950000Y-96243750D02*
X149950000Y-96756250D01*
G75*
G02*
X149731250Y-96975000I-218750J0D01*
G01*
X149293750Y-96975000D01*
G75*
G02*
X149075000Y-96756250I0J218750D01*
G01*
X149075000Y-96243750D01*
G75*
G02*
X149293750Y-96025000I218750J0D01*
G01*
X149731250Y-96025000D01*
G75*
G02*
X149950000Y-96243750I0J-218750D01*
G01*
G37*
G36*
G01*
X151525000Y-96243750D02*
X151525000Y-96756250D01*
G75*
G02*
X151306250Y-96975000I-218750J0D01*
G01*
X150868750Y-96975000D01*
G75*
G02*
X150650000Y-96756250I0J218750D01*
G01*
X150650000Y-96243750D01*
G75*
G02*
X150868750Y-96025000I218750J0D01*
G01*
X151306250Y-96025000D01*
G75*
G02*
X151525000Y-96243750I0J-218750D01*
G01*
G37*
G36*
G01*
X169306250Y-83982000D02*
X168793750Y-83982000D01*
G75*
G02*
X168575000Y-83763250I0J218750D01*
G01*
X168575000Y-83325750D01*
G75*
G02*
X168793750Y-83107000I218750J0D01*
G01*
X169306250Y-83107000D01*
G75*
G02*
X169525000Y-83325750I0J-218750D01*
G01*
X169525000Y-83763250D01*
G75*
G02*
X169306250Y-83982000I-218750J0D01*
G01*
G37*
G36*
G01*
X169306250Y-85557000D02*
X168793750Y-85557000D01*
G75*
G02*
X168575000Y-85338250I0J218750D01*
G01*
X168575000Y-84900750D01*
G75*
G02*
X168793750Y-84682000I218750J0D01*
G01*
X169306250Y-84682000D01*
G75*
G02*
X169525000Y-84900750I0J-218750D01*
G01*
X169525000Y-85338250D01*
G75*
G02*
X169306250Y-85557000I-218750J0D01*
G01*
G37*
G36*
G01*
X172150000Y-90256250D02*
X172150000Y-89743750D01*
G75*
G02*
X172368750Y-89525000I218750J0D01*
G01*
X172806250Y-89525000D01*
G75*
G02*
X173025000Y-89743750I0J-218750D01*
G01*
X173025000Y-90256250D01*
G75*
G02*
X172806250Y-90475000I-218750J0D01*
G01*
X172368750Y-90475000D01*
G75*
G02*
X172150000Y-90256250I0J218750D01*
G01*
G37*
G36*
G01*
X170575000Y-90256250D02*
X170575000Y-89743750D01*
G75*
G02*
X170793750Y-89525000I218750J0D01*
G01*
X171231250Y-89525000D01*
G75*
G02*
X171450000Y-89743750I0J-218750D01*
G01*
X171450000Y-90256250D01*
G75*
G02*
X171231250Y-90475000I-218750J0D01*
G01*
X170793750Y-90475000D01*
G75*
G02*
X170575000Y-90256250I0J218750D01*
G01*
G37*
M02*
