G04 #@! TF.GenerationSoftware,KiCad,Pcbnew,(5.1.5-0-10_14)*
G04 #@! TF.CreationDate,2020-05-05T19:22:47-07:00*
G04 #@! TF.ProjectId,N64 EEPROM Breakout,4e363420-4545-4505-924f-4d2042726561,rev?*
G04 #@! TF.SameCoordinates,Original*
G04 #@! TF.FileFunction,Legend,Top*
G04 #@! TF.FilePolarity,Positive*
%FSLAX46Y46*%
G04 Gerber Fmt 4.6, Leading zero omitted, Abs format (unit mm)*
G04 Created by KiCad (PCBNEW (5.1.5-0-10_14)) date 2020-05-05 19:22:47*
%MOMM*%
%LPD*%
G04 APERTURE LIST*
%ADD10C,0.120000*%
G04 APERTURE END LIST*
D10*
X139954000Y-106172000D02*
G75*
G03X139954000Y-106172000I-254000J0D01*
G01*
X148590000Y-120650000D02*
X148590000Y-121920000D01*
X147320000Y-120650000D02*
X148590000Y-120650000D01*
X139320000Y-122962929D02*
X139320000Y-123417071D01*
X140080000Y-122962929D02*
X140080000Y-123417071D01*
X139320000Y-125502929D02*
X139320000Y-125900000D01*
X140080000Y-125502929D02*
X140080000Y-125900000D01*
X141860000Y-122962929D02*
X141860000Y-123417071D01*
X142620000Y-122962929D02*
X142620000Y-123417071D01*
X141860000Y-125502929D02*
X141860000Y-125900000D01*
X142620000Y-125502929D02*
X142620000Y-125900000D01*
X144400000Y-122962929D02*
X144400000Y-123417071D01*
X145160000Y-122962929D02*
X145160000Y-123417071D01*
X144400000Y-125502929D02*
X144400000Y-125900000D01*
X145160000Y-125502929D02*
X145160000Y-125900000D01*
X146940000Y-123030000D02*
X146940000Y-123417071D01*
X147700000Y-123030000D02*
X147700000Y-123417071D01*
X146940000Y-125502929D02*
X146940000Y-125900000D01*
X147700000Y-125502929D02*
X147700000Y-125900000D01*
X148650000Y-125900000D02*
X138370000Y-125900000D01*
X148650000Y-107068000D02*
X138370000Y-107068000D01*
X148650000Y-117468000D02*
X148650000Y-107068000D01*
X138370000Y-117468000D02*
X148650000Y-117468000D01*
X138370000Y-107068000D02*
X138370000Y-117468000D01*
X146160000Y-107128000D02*
X144510000Y-107128000D01*
X146160000Y-117408000D02*
X146160000Y-107128000D01*
X140860000Y-117408000D02*
X146160000Y-117408000D01*
X140860000Y-107128000D02*
X140860000Y-117408000D01*
X142510000Y-107128000D02*
X140860000Y-107128000D01*
X144510000Y-107128000D02*
G75*
G02X142510000Y-107128000I-1000000J0D01*
G01*
X146562578Y-118162000D02*
X146045422Y-118162000D01*
X146562578Y-119582000D02*
X146045422Y-119582000D01*
X140457422Y-119582000D02*
X140974578Y-119582000D01*
X140457422Y-118162000D02*
X140974578Y-118162000D01*
M02*
