M48
; DRILL file {KiCad (5.1.5-0-10_14)} date Tuesday, May 05, 2020 at 07:22:49 PM
; FORMAT={-:-/ absolute / inch / decimal}
; #@! TF.CreationDate,2020-05-05T19:22:49-07:00
; #@! TF.GenerationSoftware,Kicad,Pcbnew,(5.1.5-0-10_14)
; #@! TF.FileFunction,Plated,1,2,PTH
FMAT,2
INCH
T1C0.0118
T2C0.0315
T3C0.0394
%
G90
G05
T1
X5.43Y-4.27
X5.43Y-4.57
X5.5425Y-4.74
X5.62Y-4.66
X5.62Y-4.7
X5.68Y-4.66
X5.68Y-4.7
T2
X5.5Y-4.27
X5.5Y-4.37
X5.5Y-4.47
X5.5Y-4.57
X5.8Y-4.27
X5.8Y-4.37
X5.8Y-4.47
X5.8Y-4.57
T3
X5.5Y-4.8
X5.5Y-4.9
X5.6Y-4.8
X5.6Y-4.9
X5.7Y-4.8
X5.7Y-4.9
X5.8Y-4.8
X5.8Y-4.9
T0
M30
