G04 #@! TF.GenerationSoftware,KiCad,Pcbnew,(5.1.5-0-10_14)*
G04 #@! TF.CreationDate,2020-05-05T19:22:47-07:00*
G04 #@! TF.ProjectId,N64 EEPROM Breakout,4e363420-4545-4505-924f-4d2042726561,rev?*
G04 #@! TF.SameCoordinates,Original*
G04 #@! TF.FileFunction,Copper,L2,Bot*
G04 #@! TF.FilePolarity,Positive*
%FSLAX46Y46*%
G04 Gerber Fmt 4.6, Leading zero omitted, Abs format (unit mm)*
G04 Created by KiCad (PCBNEW (5.1.5-0-10_14)) date 2020-05-05 19:22:47*
%MOMM*%
%LPD*%
G04 APERTURE LIST*
%ADD10O,1.700000X1.700000*%
%ADD11R,1.700000X1.700000*%
%ADD12O,1.600000X1.600000*%
%ADD13R,1.600000X1.600000*%
%ADD14C,0.600000*%
%ADD15C,0.304800*%
%ADD16C,0.152400*%
G04 APERTURE END LIST*
D10*
X139700000Y-124460000D03*
X139700000Y-121920000D03*
X142240000Y-124460000D03*
X142240000Y-121920000D03*
X144780000Y-124460000D03*
X144780000Y-121920000D03*
X147320000Y-124460000D03*
D11*
X147320000Y-121920000D03*
D12*
X147320000Y-108458000D03*
X139700000Y-116078000D03*
X147320000Y-110998000D03*
X139700000Y-113538000D03*
X147320000Y-113538000D03*
X139700000Y-110998000D03*
X147320000Y-116078000D03*
D13*
X139700000Y-108458000D03*
D14*
X137922000Y-116078000D03*
X137922000Y-108458000D03*
X142748000Y-118364000D03*
X142748000Y-119380000D03*
X144272000Y-118364000D03*
X144272000Y-119380000D03*
X140778601Y-120396000D03*
D15*
X142748000Y-118364000D02*
X144272000Y-118364000D01*
X140462000Y-116078000D02*
X139700000Y-116078000D01*
X142748000Y-118364000D02*
X140462000Y-116078000D01*
X144272000Y-119804264D02*
X144863736Y-120396000D01*
X144272000Y-119380000D02*
X144272000Y-119804264D01*
X147320000Y-120765200D02*
X147320000Y-121920000D01*
X146950800Y-120396000D02*
X147320000Y-120765200D01*
X144863736Y-120396000D02*
X146950800Y-120396000D01*
X147320000Y-121920000D02*
X144780000Y-124460000D01*
D16*
X143256000Y-120396000D02*
X144780000Y-121920000D01*
X140778601Y-120396000D02*
X143256000Y-120396000D01*
G36*
X149758800Y-126898800D02*
G01*
X137261200Y-126898800D01*
X137261200Y-124353767D01*
X138621400Y-124353767D01*
X138621400Y-124566233D01*
X138662850Y-124774616D01*
X138744157Y-124970909D01*
X138862197Y-125147567D01*
X139012433Y-125297803D01*
X139189091Y-125415843D01*
X139385384Y-125497150D01*
X139593767Y-125538600D01*
X139806233Y-125538600D01*
X140014616Y-125497150D01*
X140210909Y-125415843D01*
X140387567Y-125297803D01*
X140537803Y-125147567D01*
X140655843Y-124970909D01*
X140737150Y-124774616D01*
X140778600Y-124566233D01*
X140778600Y-124353767D01*
X141161400Y-124353767D01*
X141161400Y-124566233D01*
X141202850Y-124774616D01*
X141284157Y-124970909D01*
X141402197Y-125147567D01*
X141552433Y-125297803D01*
X141729091Y-125415843D01*
X141925384Y-125497150D01*
X142133767Y-125538600D01*
X142346233Y-125538600D01*
X142554616Y-125497150D01*
X142750909Y-125415843D01*
X142927567Y-125297803D01*
X143077803Y-125147567D01*
X143195843Y-124970909D01*
X143242511Y-124858240D01*
X143402192Y-124858240D01*
X143506359Y-125119385D01*
X143659471Y-125355190D01*
X143855645Y-125556594D01*
X144087341Y-125715856D01*
X144345656Y-125826856D01*
X144381761Y-125837801D01*
X144602200Y-125735820D01*
X144602200Y-124637800D01*
X144957800Y-124637800D01*
X144957800Y-125735820D01*
X145178239Y-125837801D01*
X145214344Y-125826856D01*
X145472659Y-125715856D01*
X145704355Y-125556594D01*
X145900529Y-125355190D01*
X146053641Y-125119385D01*
X146157808Y-124858240D01*
X146057093Y-124637800D01*
X144957800Y-124637800D01*
X144602200Y-124637800D01*
X143502907Y-124637800D01*
X143402192Y-124858240D01*
X143242511Y-124858240D01*
X143277150Y-124774616D01*
X143318600Y-124566233D01*
X143318600Y-124353767D01*
X146241400Y-124353767D01*
X146241400Y-124566233D01*
X146282850Y-124774616D01*
X146364157Y-124970909D01*
X146482197Y-125147567D01*
X146632433Y-125297803D01*
X146809091Y-125415843D01*
X147005384Y-125497150D01*
X147213767Y-125538600D01*
X147426233Y-125538600D01*
X147634616Y-125497150D01*
X147830909Y-125415843D01*
X148007567Y-125297803D01*
X148157803Y-125147567D01*
X148275843Y-124970909D01*
X148357150Y-124774616D01*
X148398600Y-124566233D01*
X148398600Y-124353767D01*
X148357150Y-124145384D01*
X148275843Y-123949091D01*
X148157803Y-123772433D01*
X148007567Y-123622197D01*
X147830909Y-123504157D01*
X147634616Y-123422850D01*
X147426233Y-123381400D01*
X147213767Y-123381400D01*
X147005384Y-123422850D01*
X146809091Y-123504157D01*
X146632433Y-123622197D01*
X146482197Y-123772433D01*
X146364157Y-123949091D01*
X146282850Y-124145384D01*
X146241400Y-124353767D01*
X143318600Y-124353767D01*
X143277150Y-124145384D01*
X143242512Y-124061760D01*
X143402192Y-124061760D01*
X143502907Y-124282200D01*
X144602200Y-124282200D01*
X144602200Y-123184180D01*
X144957800Y-123184180D01*
X144957800Y-124282200D01*
X146057093Y-124282200D01*
X146157808Y-124061760D01*
X146053641Y-123800615D01*
X145900529Y-123564810D01*
X145704355Y-123363406D01*
X145472659Y-123204144D01*
X145214344Y-123093144D01*
X145178239Y-123082199D01*
X144957800Y-123184180D01*
X144602200Y-123184180D01*
X144381761Y-123082199D01*
X144345656Y-123093144D01*
X144087341Y-123204144D01*
X143855645Y-123363406D01*
X143659471Y-123564810D01*
X143506359Y-123800615D01*
X143402192Y-124061760D01*
X143242512Y-124061760D01*
X143195843Y-123949091D01*
X143077803Y-123772433D01*
X142927567Y-123622197D01*
X142750909Y-123504157D01*
X142554616Y-123422850D01*
X142346233Y-123381400D01*
X142133767Y-123381400D01*
X141925384Y-123422850D01*
X141729091Y-123504157D01*
X141552433Y-123622197D01*
X141402197Y-123772433D01*
X141284157Y-123949091D01*
X141202850Y-124145384D01*
X141161400Y-124353767D01*
X140778600Y-124353767D01*
X140737150Y-124145384D01*
X140655843Y-123949091D01*
X140537803Y-123772433D01*
X140387567Y-123622197D01*
X140210909Y-123504157D01*
X140014616Y-123422850D01*
X139806233Y-123381400D01*
X139593767Y-123381400D01*
X139385384Y-123422850D01*
X139189091Y-123504157D01*
X139012433Y-123622197D01*
X138862197Y-123772433D01*
X138744157Y-123949091D01*
X138662850Y-124145384D01*
X138621400Y-124353767D01*
X137261200Y-124353767D01*
X137261200Y-121813767D01*
X138621400Y-121813767D01*
X138621400Y-122026233D01*
X138662850Y-122234616D01*
X138744157Y-122430909D01*
X138862197Y-122607567D01*
X139012433Y-122757803D01*
X139189091Y-122875843D01*
X139385384Y-122957150D01*
X139593767Y-122998600D01*
X139806233Y-122998600D01*
X140014616Y-122957150D01*
X140210909Y-122875843D01*
X140387567Y-122757803D01*
X140537803Y-122607567D01*
X140655843Y-122430909D01*
X140737150Y-122234616D01*
X140778600Y-122026233D01*
X140778600Y-121813767D01*
X141161400Y-121813767D01*
X141161400Y-122026233D01*
X141202850Y-122234616D01*
X141284157Y-122430909D01*
X141402197Y-122607567D01*
X141552433Y-122757803D01*
X141729091Y-122875843D01*
X141925384Y-122957150D01*
X142133767Y-122998600D01*
X142346233Y-122998600D01*
X142554616Y-122957150D01*
X142750909Y-122875843D01*
X142927567Y-122757803D01*
X143077803Y-122607567D01*
X143195843Y-122430909D01*
X143277150Y-122234616D01*
X143318600Y-122026233D01*
X143318600Y-121813767D01*
X143277150Y-121605384D01*
X143195843Y-121409091D01*
X143077803Y-121232433D01*
X142927567Y-121082197D01*
X142750909Y-120964157D01*
X142554616Y-120882850D01*
X142346233Y-120841400D01*
X142133767Y-120841400D01*
X141925384Y-120882850D01*
X141729091Y-120964157D01*
X141552433Y-121082197D01*
X141402197Y-121232433D01*
X141284157Y-121409091D01*
X141202850Y-121605384D01*
X141161400Y-121813767D01*
X140778600Y-121813767D01*
X140737150Y-121605384D01*
X140655843Y-121409091D01*
X140537803Y-121232433D01*
X140387567Y-121082197D01*
X140210909Y-120964157D01*
X140014616Y-120882850D01*
X139806233Y-120841400D01*
X139593767Y-120841400D01*
X139385384Y-120882850D01*
X139189091Y-120964157D01*
X139012433Y-121082197D01*
X138862197Y-121232433D01*
X138744157Y-121409091D01*
X138662850Y-121605384D01*
X138621400Y-121813767D01*
X137261200Y-121813767D01*
X137261200Y-120343937D01*
X140250001Y-120343937D01*
X140250001Y-120448063D01*
X140270314Y-120550187D01*
X140310161Y-120646386D01*
X140368010Y-120732963D01*
X140441638Y-120806591D01*
X140528215Y-120864440D01*
X140624414Y-120904287D01*
X140726538Y-120924600D01*
X140830664Y-120924600D01*
X140932788Y-120904287D01*
X141028987Y-120864440D01*
X141115564Y-120806591D01*
X141189192Y-120732963D01*
X141210683Y-120700800D01*
X143129749Y-120700800D01*
X143829718Y-121400769D01*
X143824157Y-121409091D01*
X143742850Y-121605384D01*
X143701400Y-121813767D01*
X143701400Y-122026233D01*
X143742850Y-122234616D01*
X143824157Y-122430909D01*
X143942197Y-122607567D01*
X144092433Y-122757803D01*
X144269091Y-122875843D01*
X144465384Y-122957150D01*
X144673767Y-122998600D01*
X144886233Y-122998600D01*
X145094616Y-122957150D01*
X145290909Y-122875843D01*
X145449313Y-122770000D01*
X145882973Y-122770000D01*
X145894253Y-122884523D01*
X145927658Y-122994646D01*
X145981905Y-123096135D01*
X146054909Y-123185091D01*
X146143865Y-123258095D01*
X146245354Y-123312342D01*
X146355477Y-123345747D01*
X146470000Y-123357027D01*
X146996150Y-123354200D01*
X147142200Y-123208150D01*
X147142200Y-122097800D01*
X147497800Y-122097800D01*
X147497800Y-123208150D01*
X147643850Y-123354200D01*
X148170000Y-123357027D01*
X148284523Y-123345747D01*
X148394646Y-123312342D01*
X148496135Y-123258095D01*
X148585091Y-123185091D01*
X148658095Y-123096135D01*
X148712342Y-122994646D01*
X148745747Y-122884523D01*
X148757027Y-122770000D01*
X148754200Y-122243850D01*
X148608150Y-122097800D01*
X147497800Y-122097800D01*
X147142200Y-122097800D01*
X146031850Y-122097800D01*
X145885800Y-122243850D01*
X145882973Y-122770000D01*
X145449313Y-122770000D01*
X145467567Y-122757803D01*
X145617803Y-122607567D01*
X145735843Y-122430909D01*
X145817150Y-122234616D01*
X145858600Y-122026233D01*
X145858600Y-121813767D01*
X145817150Y-121605384D01*
X145735843Y-121409091D01*
X145617803Y-121232433D01*
X145467567Y-121082197D01*
X145449314Y-121070000D01*
X145882973Y-121070000D01*
X145885800Y-121596150D01*
X146031850Y-121742200D01*
X147142200Y-121742200D01*
X147142200Y-120631850D01*
X147497800Y-120631850D01*
X147497800Y-121742200D01*
X148608150Y-121742200D01*
X148754200Y-121596150D01*
X148757027Y-121070000D01*
X148745747Y-120955477D01*
X148712342Y-120845354D01*
X148658095Y-120743865D01*
X148585091Y-120654909D01*
X148496135Y-120581905D01*
X148394646Y-120527658D01*
X148284523Y-120494253D01*
X148170000Y-120482973D01*
X147643850Y-120485800D01*
X147497800Y-120631850D01*
X147142200Y-120631850D01*
X146996150Y-120485800D01*
X146470000Y-120482973D01*
X146355477Y-120494253D01*
X146245354Y-120527658D01*
X146143865Y-120581905D01*
X146054909Y-120654909D01*
X145981905Y-120743865D01*
X145927658Y-120845354D01*
X145894253Y-120955477D01*
X145882973Y-121070000D01*
X145449314Y-121070000D01*
X145290909Y-120964157D01*
X145094616Y-120882850D01*
X144886233Y-120841400D01*
X144673767Y-120841400D01*
X144465384Y-120882850D01*
X144269091Y-120964157D01*
X144260769Y-120969718D01*
X143482112Y-120191061D01*
X143472568Y-120179432D01*
X143426157Y-120141342D01*
X143373206Y-120113040D01*
X143315751Y-120095611D01*
X143270966Y-120091200D01*
X143270958Y-120091200D01*
X143256000Y-120089727D01*
X143241042Y-120091200D01*
X141210683Y-120091200D01*
X141189192Y-120059037D01*
X141115564Y-119985409D01*
X141028987Y-119927560D01*
X140932788Y-119887713D01*
X140830664Y-119867400D01*
X140726538Y-119867400D01*
X140624414Y-119887713D01*
X140528215Y-119927560D01*
X140441638Y-119985409D01*
X140368010Y-120059037D01*
X140310161Y-120145614D01*
X140270314Y-120241813D01*
X140250001Y-120343937D01*
X137261200Y-120343937D01*
X137261200Y-116468354D01*
X138371982Y-116468354D01*
X138378917Y-116491244D01*
X138484921Y-116741034D01*
X138637620Y-116965344D01*
X138831146Y-117155554D01*
X139058061Y-117304354D01*
X139309645Y-117406026D01*
X139522200Y-117304691D01*
X139522200Y-116255800D01*
X139877800Y-116255800D01*
X139877800Y-117304691D01*
X140090355Y-117406026D01*
X140341939Y-117304354D01*
X140568854Y-117155554D01*
X140762380Y-116965344D01*
X140915079Y-116741034D01*
X141021083Y-116491244D01*
X141028018Y-116468354D01*
X140925317Y-116255800D01*
X139877800Y-116255800D01*
X139522200Y-116255800D01*
X138474683Y-116255800D01*
X138371982Y-116468354D01*
X137261200Y-116468354D01*
X137261200Y-115976692D01*
X146291400Y-115976692D01*
X146291400Y-116179308D01*
X146330928Y-116378032D01*
X146408466Y-116565225D01*
X146521034Y-116733694D01*
X146664306Y-116876966D01*
X146832775Y-116989534D01*
X147019968Y-117067072D01*
X147218692Y-117106600D01*
X147421308Y-117106600D01*
X147620032Y-117067072D01*
X147807225Y-116989534D01*
X147975694Y-116876966D01*
X148118966Y-116733694D01*
X148231534Y-116565225D01*
X148309072Y-116378032D01*
X148348600Y-116179308D01*
X148348600Y-115976692D01*
X148309072Y-115777968D01*
X148231534Y-115590775D01*
X148118966Y-115422306D01*
X147975694Y-115279034D01*
X147807225Y-115166466D01*
X147620032Y-115088928D01*
X147421308Y-115049400D01*
X147218692Y-115049400D01*
X147019968Y-115088928D01*
X146832775Y-115166466D01*
X146664306Y-115279034D01*
X146521034Y-115422306D01*
X146408466Y-115590775D01*
X146330928Y-115777968D01*
X146291400Y-115976692D01*
X137261200Y-115976692D01*
X137261200Y-115687646D01*
X138371982Y-115687646D01*
X138474683Y-115900200D01*
X139522200Y-115900200D01*
X139522200Y-114851309D01*
X139877800Y-114851309D01*
X139877800Y-115900200D01*
X140925317Y-115900200D01*
X141028018Y-115687646D01*
X141021083Y-115664756D01*
X140915079Y-115414966D01*
X140762380Y-115190656D01*
X140568854Y-115000446D01*
X140341939Y-114851646D01*
X140090355Y-114749974D01*
X139877800Y-114851309D01*
X139522200Y-114851309D01*
X139309645Y-114749974D01*
X139058061Y-114851646D01*
X138831146Y-115000446D01*
X138637620Y-115190656D01*
X138484921Y-115414966D01*
X138378917Y-115664756D01*
X138371982Y-115687646D01*
X137261200Y-115687646D01*
X137261200Y-113436692D01*
X138671400Y-113436692D01*
X138671400Y-113639308D01*
X138710928Y-113838032D01*
X138788466Y-114025225D01*
X138901034Y-114193694D01*
X139044306Y-114336966D01*
X139212775Y-114449534D01*
X139399968Y-114527072D01*
X139598692Y-114566600D01*
X139801308Y-114566600D01*
X140000032Y-114527072D01*
X140187225Y-114449534D01*
X140355694Y-114336966D01*
X140498966Y-114193694D01*
X140611534Y-114025225D01*
X140689072Y-113838032D01*
X140728600Y-113639308D01*
X140728600Y-113436692D01*
X146291400Y-113436692D01*
X146291400Y-113639308D01*
X146330928Y-113838032D01*
X146408466Y-114025225D01*
X146521034Y-114193694D01*
X146664306Y-114336966D01*
X146832775Y-114449534D01*
X147019968Y-114527072D01*
X147218692Y-114566600D01*
X147421308Y-114566600D01*
X147620032Y-114527072D01*
X147807225Y-114449534D01*
X147975694Y-114336966D01*
X148118966Y-114193694D01*
X148231534Y-114025225D01*
X148309072Y-113838032D01*
X148348600Y-113639308D01*
X148348600Y-113436692D01*
X148309072Y-113237968D01*
X148231534Y-113050775D01*
X148118966Y-112882306D01*
X147975694Y-112739034D01*
X147807225Y-112626466D01*
X147620032Y-112548928D01*
X147421308Y-112509400D01*
X147218692Y-112509400D01*
X147019968Y-112548928D01*
X146832775Y-112626466D01*
X146664306Y-112739034D01*
X146521034Y-112882306D01*
X146408466Y-113050775D01*
X146330928Y-113237968D01*
X146291400Y-113436692D01*
X140728600Y-113436692D01*
X140689072Y-113237968D01*
X140611534Y-113050775D01*
X140498966Y-112882306D01*
X140355694Y-112739034D01*
X140187225Y-112626466D01*
X140000032Y-112548928D01*
X139801308Y-112509400D01*
X139598692Y-112509400D01*
X139399968Y-112548928D01*
X139212775Y-112626466D01*
X139044306Y-112739034D01*
X138901034Y-112882306D01*
X138788466Y-113050775D01*
X138710928Y-113237968D01*
X138671400Y-113436692D01*
X137261200Y-113436692D01*
X137261200Y-110896692D01*
X138671400Y-110896692D01*
X138671400Y-111099308D01*
X138710928Y-111298032D01*
X138788466Y-111485225D01*
X138901034Y-111653694D01*
X139044306Y-111796966D01*
X139212775Y-111909534D01*
X139399968Y-111987072D01*
X139598692Y-112026600D01*
X139801308Y-112026600D01*
X140000032Y-111987072D01*
X140187225Y-111909534D01*
X140355694Y-111796966D01*
X140498966Y-111653694D01*
X140611534Y-111485225D01*
X140689072Y-111298032D01*
X140728600Y-111099308D01*
X140728600Y-110896692D01*
X146291400Y-110896692D01*
X146291400Y-111099308D01*
X146330928Y-111298032D01*
X146408466Y-111485225D01*
X146521034Y-111653694D01*
X146664306Y-111796966D01*
X146832775Y-111909534D01*
X147019968Y-111987072D01*
X147218692Y-112026600D01*
X147421308Y-112026600D01*
X147620032Y-111987072D01*
X147807225Y-111909534D01*
X147975694Y-111796966D01*
X148118966Y-111653694D01*
X148231534Y-111485225D01*
X148309072Y-111298032D01*
X148348600Y-111099308D01*
X148348600Y-110896692D01*
X148309072Y-110697968D01*
X148231534Y-110510775D01*
X148118966Y-110342306D01*
X147975694Y-110199034D01*
X147807225Y-110086466D01*
X147620032Y-110008928D01*
X147421308Y-109969400D01*
X147218692Y-109969400D01*
X147019968Y-110008928D01*
X146832775Y-110086466D01*
X146664306Y-110199034D01*
X146521034Y-110342306D01*
X146408466Y-110510775D01*
X146330928Y-110697968D01*
X146291400Y-110896692D01*
X140728600Y-110896692D01*
X140689072Y-110697968D01*
X140611534Y-110510775D01*
X140498966Y-110342306D01*
X140355694Y-110199034D01*
X140187225Y-110086466D01*
X140000032Y-110008928D01*
X139801308Y-109969400D01*
X139598692Y-109969400D01*
X139399968Y-110008928D01*
X139212775Y-110086466D01*
X139044306Y-110199034D01*
X138901034Y-110342306D01*
X138788466Y-110510775D01*
X138710928Y-110697968D01*
X138671400Y-110896692D01*
X137261200Y-110896692D01*
X137261200Y-109258000D01*
X138312973Y-109258000D01*
X138324253Y-109372523D01*
X138357658Y-109482646D01*
X138411905Y-109584135D01*
X138484909Y-109673091D01*
X138573865Y-109746095D01*
X138675354Y-109800342D01*
X138785477Y-109833747D01*
X138900000Y-109845027D01*
X139376150Y-109842200D01*
X139522200Y-109696150D01*
X139522200Y-108635800D01*
X139877800Y-108635800D01*
X139877800Y-109696150D01*
X140023850Y-109842200D01*
X140500000Y-109845027D01*
X140614523Y-109833747D01*
X140724646Y-109800342D01*
X140826135Y-109746095D01*
X140915091Y-109673091D01*
X140988095Y-109584135D01*
X141042342Y-109482646D01*
X141075747Y-109372523D01*
X141087027Y-109258000D01*
X141084200Y-108781850D01*
X140938150Y-108635800D01*
X139877800Y-108635800D01*
X139522200Y-108635800D01*
X138461850Y-108635800D01*
X138315800Y-108781850D01*
X138312973Y-109258000D01*
X137261200Y-109258000D01*
X137261200Y-108356692D01*
X146291400Y-108356692D01*
X146291400Y-108559308D01*
X146330928Y-108758032D01*
X146408466Y-108945225D01*
X146521034Y-109113694D01*
X146664306Y-109256966D01*
X146832775Y-109369534D01*
X147019968Y-109447072D01*
X147218692Y-109486600D01*
X147421308Y-109486600D01*
X147620032Y-109447072D01*
X147807225Y-109369534D01*
X147975694Y-109256966D01*
X148118966Y-109113694D01*
X148231534Y-108945225D01*
X148309072Y-108758032D01*
X148348600Y-108559308D01*
X148348600Y-108356692D01*
X148309072Y-108157968D01*
X148231534Y-107970775D01*
X148118966Y-107802306D01*
X147975694Y-107659034D01*
X147807225Y-107546466D01*
X147620032Y-107468928D01*
X147421308Y-107429400D01*
X147218692Y-107429400D01*
X147019968Y-107468928D01*
X146832775Y-107546466D01*
X146664306Y-107659034D01*
X146521034Y-107802306D01*
X146408466Y-107970775D01*
X146330928Y-108157968D01*
X146291400Y-108356692D01*
X137261200Y-108356692D01*
X137261200Y-107658000D01*
X138312973Y-107658000D01*
X138315800Y-108134150D01*
X138461850Y-108280200D01*
X139522200Y-108280200D01*
X139522200Y-107219850D01*
X139877800Y-107219850D01*
X139877800Y-108280200D01*
X140938150Y-108280200D01*
X141084200Y-108134150D01*
X141087027Y-107658000D01*
X141075747Y-107543477D01*
X141042342Y-107433354D01*
X140988095Y-107331865D01*
X140915091Y-107242909D01*
X140826135Y-107169905D01*
X140724646Y-107115658D01*
X140614523Y-107082253D01*
X140500000Y-107070973D01*
X140023850Y-107073800D01*
X139877800Y-107219850D01*
X139522200Y-107219850D01*
X139376150Y-107073800D01*
X138900000Y-107070973D01*
X138785477Y-107082253D01*
X138675354Y-107115658D01*
X138573865Y-107169905D01*
X138484909Y-107242909D01*
X138411905Y-107331865D01*
X138357658Y-107433354D01*
X138324253Y-107543477D01*
X138312973Y-107658000D01*
X137261200Y-107658000D01*
X137261200Y-105511200D01*
X149758801Y-105511200D01*
X149758800Y-126898800D01*
G37*
X149758800Y-126898800D02*
X137261200Y-126898800D01*
X137261200Y-124353767D01*
X138621400Y-124353767D01*
X138621400Y-124566233D01*
X138662850Y-124774616D01*
X138744157Y-124970909D01*
X138862197Y-125147567D01*
X139012433Y-125297803D01*
X139189091Y-125415843D01*
X139385384Y-125497150D01*
X139593767Y-125538600D01*
X139806233Y-125538600D01*
X140014616Y-125497150D01*
X140210909Y-125415843D01*
X140387567Y-125297803D01*
X140537803Y-125147567D01*
X140655843Y-124970909D01*
X140737150Y-124774616D01*
X140778600Y-124566233D01*
X140778600Y-124353767D01*
X141161400Y-124353767D01*
X141161400Y-124566233D01*
X141202850Y-124774616D01*
X141284157Y-124970909D01*
X141402197Y-125147567D01*
X141552433Y-125297803D01*
X141729091Y-125415843D01*
X141925384Y-125497150D01*
X142133767Y-125538600D01*
X142346233Y-125538600D01*
X142554616Y-125497150D01*
X142750909Y-125415843D01*
X142927567Y-125297803D01*
X143077803Y-125147567D01*
X143195843Y-124970909D01*
X143242511Y-124858240D01*
X143402192Y-124858240D01*
X143506359Y-125119385D01*
X143659471Y-125355190D01*
X143855645Y-125556594D01*
X144087341Y-125715856D01*
X144345656Y-125826856D01*
X144381761Y-125837801D01*
X144602200Y-125735820D01*
X144602200Y-124637800D01*
X144957800Y-124637800D01*
X144957800Y-125735820D01*
X145178239Y-125837801D01*
X145214344Y-125826856D01*
X145472659Y-125715856D01*
X145704355Y-125556594D01*
X145900529Y-125355190D01*
X146053641Y-125119385D01*
X146157808Y-124858240D01*
X146057093Y-124637800D01*
X144957800Y-124637800D01*
X144602200Y-124637800D01*
X143502907Y-124637800D01*
X143402192Y-124858240D01*
X143242511Y-124858240D01*
X143277150Y-124774616D01*
X143318600Y-124566233D01*
X143318600Y-124353767D01*
X146241400Y-124353767D01*
X146241400Y-124566233D01*
X146282850Y-124774616D01*
X146364157Y-124970909D01*
X146482197Y-125147567D01*
X146632433Y-125297803D01*
X146809091Y-125415843D01*
X147005384Y-125497150D01*
X147213767Y-125538600D01*
X147426233Y-125538600D01*
X147634616Y-125497150D01*
X147830909Y-125415843D01*
X148007567Y-125297803D01*
X148157803Y-125147567D01*
X148275843Y-124970909D01*
X148357150Y-124774616D01*
X148398600Y-124566233D01*
X148398600Y-124353767D01*
X148357150Y-124145384D01*
X148275843Y-123949091D01*
X148157803Y-123772433D01*
X148007567Y-123622197D01*
X147830909Y-123504157D01*
X147634616Y-123422850D01*
X147426233Y-123381400D01*
X147213767Y-123381400D01*
X147005384Y-123422850D01*
X146809091Y-123504157D01*
X146632433Y-123622197D01*
X146482197Y-123772433D01*
X146364157Y-123949091D01*
X146282850Y-124145384D01*
X146241400Y-124353767D01*
X143318600Y-124353767D01*
X143277150Y-124145384D01*
X143242512Y-124061760D01*
X143402192Y-124061760D01*
X143502907Y-124282200D01*
X144602200Y-124282200D01*
X144602200Y-123184180D01*
X144957800Y-123184180D01*
X144957800Y-124282200D01*
X146057093Y-124282200D01*
X146157808Y-124061760D01*
X146053641Y-123800615D01*
X145900529Y-123564810D01*
X145704355Y-123363406D01*
X145472659Y-123204144D01*
X145214344Y-123093144D01*
X145178239Y-123082199D01*
X144957800Y-123184180D01*
X144602200Y-123184180D01*
X144381761Y-123082199D01*
X144345656Y-123093144D01*
X144087341Y-123204144D01*
X143855645Y-123363406D01*
X143659471Y-123564810D01*
X143506359Y-123800615D01*
X143402192Y-124061760D01*
X143242512Y-124061760D01*
X143195843Y-123949091D01*
X143077803Y-123772433D01*
X142927567Y-123622197D01*
X142750909Y-123504157D01*
X142554616Y-123422850D01*
X142346233Y-123381400D01*
X142133767Y-123381400D01*
X141925384Y-123422850D01*
X141729091Y-123504157D01*
X141552433Y-123622197D01*
X141402197Y-123772433D01*
X141284157Y-123949091D01*
X141202850Y-124145384D01*
X141161400Y-124353767D01*
X140778600Y-124353767D01*
X140737150Y-124145384D01*
X140655843Y-123949091D01*
X140537803Y-123772433D01*
X140387567Y-123622197D01*
X140210909Y-123504157D01*
X140014616Y-123422850D01*
X139806233Y-123381400D01*
X139593767Y-123381400D01*
X139385384Y-123422850D01*
X139189091Y-123504157D01*
X139012433Y-123622197D01*
X138862197Y-123772433D01*
X138744157Y-123949091D01*
X138662850Y-124145384D01*
X138621400Y-124353767D01*
X137261200Y-124353767D01*
X137261200Y-121813767D01*
X138621400Y-121813767D01*
X138621400Y-122026233D01*
X138662850Y-122234616D01*
X138744157Y-122430909D01*
X138862197Y-122607567D01*
X139012433Y-122757803D01*
X139189091Y-122875843D01*
X139385384Y-122957150D01*
X139593767Y-122998600D01*
X139806233Y-122998600D01*
X140014616Y-122957150D01*
X140210909Y-122875843D01*
X140387567Y-122757803D01*
X140537803Y-122607567D01*
X140655843Y-122430909D01*
X140737150Y-122234616D01*
X140778600Y-122026233D01*
X140778600Y-121813767D01*
X141161400Y-121813767D01*
X141161400Y-122026233D01*
X141202850Y-122234616D01*
X141284157Y-122430909D01*
X141402197Y-122607567D01*
X141552433Y-122757803D01*
X141729091Y-122875843D01*
X141925384Y-122957150D01*
X142133767Y-122998600D01*
X142346233Y-122998600D01*
X142554616Y-122957150D01*
X142750909Y-122875843D01*
X142927567Y-122757803D01*
X143077803Y-122607567D01*
X143195843Y-122430909D01*
X143277150Y-122234616D01*
X143318600Y-122026233D01*
X143318600Y-121813767D01*
X143277150Y-121605384D01*
X143195843Y-121409091D01*
X143077803Y-121232433D01*
X142927567Y-121082197D01*
X142750909Y-120964157D01*
X142554616Y-120882850D01*
X142346233Y-120841400D01*
X142133767Y-120841400D01*
X141925384Y-120882850D01*
X141729091Y-120964157D01*
X141552433Y-121082197D01*
X141402197Y-121232433D01*
X141284157Y-121409091D01*
X141202850Y-121605384D01*
X141161400Y-121813767D01*
X140778600Y-121813767D01*
X140737150Y-121605384D01*
X140655843Y-121409091D01*
X140537803Y-121232433D01*
X140387567Y-121082197D01*
X140210909Y-120964157D01*
X140014616Y-120882850D01*
X139806233Y-120841400D01*
X139593767Y-120841400D01*
X139385384Y-120882850D01*
X139189091Y-120964157D01*
X139012433Y-121082197D01*
X138862197Y-121232433D01*
X138744157Y-121409091D01*
X138662850Y-121605384D01*
X138621400Y-121813767D01*
X137261200Y-121813767D01*
X137261200Y-120343937D01*
X140250001Y-120343937D01*
X140250001Y-120448063D01*
X140270314Y-120550187D01*
X140310161Y-120646386D01*
X140368010Y-120732963D01*
X140441638Y-120806591D01*
X140528215Y-120864440D01*
X140624414Y-120904287D01*
X140726538Y-120924600D01*
X140830664Y-120924600D01*
X140932788Y-120904287D01*
X141028987Y-120864440D01*
X141115564Y-120806591D01*
X141189192Y-120732963D01*
X141210683Y-120700800D01*
X143129749Y-120700800D01*
X143829718Y-121400769D01*
X143824157Y-121409091D01*
X143742850Y-121605384D01*
X143701400Y-121813767D01*
X143701400Y-122026233D01*
X143742850Y-122234616D01*
X143824157Y-122430909D01*
X143942197Y-122607567D01*
X144092433Y-122757803D01*
X144269091Y-122875843D01*
X144465384Y-122957150D01*
X144673767Y-122998600D01*
X144886233Y-122998600D01*
X145094616Y-122957150D01*
X145290909Y-122875843D01*
X145449313Y-122770000D01*
X145882973Y-122770000D01*
X145894253Y-122884523D01*
X145927658Y-122994646D01*
X145981905Y-123096135D01*
X146054909Y-123185091D01*
X146143865Y-123258095D01*
X146245354Y-123312342D01*
X146355477Y-123345747D01*
X146470000Y-123357027D01*
X146996150Y-123354200D01*
X147142200Y-123208150D01*
X147142200Y-122097800D01*
X147497800Y-122097800D01*
X147497800Y-123208150D01*
X147643850Y-123354200D01*
X148170000Y-123357027D01*
X148284523Y-123345747D01*
X148394646Y-123312342D01*
X148496135Y-123258095D01*
X148585091Y-123185091D01*
X148658095Y-123096135D01*
X148712342Y-122994646D01*
X148745747Y-122884523D01*
X148757027Y-122770000D01*
X148754200Y-122243850D01*
X148608150Y-122097800D01*
X147497800Y-122097800D01*
X147142200Y-122097800D01*
X146031850Y-122097800D01*
X145885800Y-122243850D01*
X145882973Y-122770000D01*
X145449313Y-122770000D01*
X145467567Y-122757803D01*
X145617803Y-122607567D01*
X145735843Y-122430909D01*
X145817150Y-122234616D01*
X145858600Y-122026233D01*
X145858600Y-121813767D01*
X145817150Y-121605384D01*
X145735843Y-121409091D01*
X145617803Y-121232433D01*
X145467567Y-121082197D01*
X145449314Y-121070000D01*
X145882973Y-121070000D01*
X145885800Y-121596150D01*
X146031850Y-121742200D01*
X147142200Y-121742200D01*
X147142200Y-120631850D01*
X147497800Y-120631850D01*
X147497800Y-121742200D01*
X148608150Y-121742200D01*
X148754200Y-121596150D01*
X148757027Y-121070000D01*
X148745747Y-120955477D01*
X148712342Y-120845354D01*
X148658095Y-120743865D01*
X148585091Y-120654909D01*
X148496135Y-120581905D01*
X148394646Y-120527658D01*
X148284523Y-120494253D01*
X148170000Y-120482973D01*
X147643850Y-120485800D01*
X147497800Y-120631850D01*
X147142200Y-120631850D01*
X146996150Y-120485800D01*
X146470000Y-120482973D01*
X146355477Y-120494253D01*
X146245354Y-120527658D01*
X146143865Y-120581905D01*
X146054909Y-120654909D01*
X145981905Y-120743865D01*
X145927658Y-120845354D01*
X145894253Y-120955477D01*
X145882973Y-121070000D01*
X145449314Y-121070000D01*
X145290909Y-120964157D01*
X145094616Y-120882850D01*
X144886233Y-120841400D01*
X144673767Y-120841400D01*
X144465384Y-120882850D01*
X144269091Y-120964157D01*
X144260769Y-120969718D01*
X143482112Y-120191061D01*
X143472568Y-120179432D01*
X143426157Y-120141342D01*
X143373206Y-120113040D01*
X143315751Y-120095611D01*
X143270966Y-120091200D01*
X143270958Y-120091200D01*
X143256000Y-120089727D01*
X143241042Y-120091200D01*
X141210683Y-120091200D01*
X141189192Y-120059037D01*
X141115564Y-119985409D01*
X141028987Y-119927560D01*
X140932788Y-119887713D01*
X140830664Y-119867400D01*
X140726538Y-119867400D01*
X140624414Y-119887713D01*
X140528215Y-119927560D01*
X140441638Y-119985409D01*
X140368010Y-120059037D01*
X140310161Y-120145614D01*
X140270314Y-120241813D01*
X140250001Y-120343937D01*
X137261200Y-120343937D01*
X137261200Y-116468354D01*
X138371982Y-116468354D01*
X138378917Y-116491244D01*
X138484921Y-116741034D01*
X138637620Y-116965344D01*
X138831146Y-117155554D01*
X139058061Y-117304354D01*
X139309645Y-117406026D01*
X139522200Y-117304691D01*
X139522200Y-116255800D01*
X139877800Y-116255800D01*
X139877800Y-117304691D01*
X140090355Y-117406026D01*
X140341939Y-117304354D01*
X140568854Y-117155554D01*
X140762380Y-116965344D01*
X140915079Y-116741034D01*
X141021083Y-116491244D01*
X141028018Y-116468354D01*
X140925317Y-116255800D01*
X139877800Y-116255800D01*
X139522200Y-116255800D01*
X138474683Y-116255800D01*
X138371982Y-116468354D01*
X137261200Y-116468354D01*
X137261200Y-115976692D01*
X146291400Y-115976692D01*
X146291400Y-116179308D01*
X146330928Y-116378032D01*
X146408466Y-116565225D01*
X146521034Y-116733694D01*
X146664306Y-116876966D01*
X146832775Y-116989534D01*
X147019968Y-117067072D01*
X147218692Y-117106600D01*
X147421308Y-117106600D01*
X147620032Y-117067072D01*
X147807225Y-116989534D01*
X147975694Y-116876966D01*
X148118966Y-116733694D01*
X148231534Y-116565225D01*
X148309072Y-116378032D01*
X148348600Y-116179308D01*
X148348600Y-115976692D01*
X148309072Y-115777968D01*
X148231534Y-115590775D01*
X148118966Y-115422306D01*
X147975694Y-115279034D01*
X147807225Y-115166466D01*
X147620032Y-115088928D01*
X147421308Y-115049400D01*
X147218692Y-115049400D01*
X147019968Y-115088928D01*
X146832775Y-115166466D01*
X146664306Y-115279034D01*
X146521034Y-115422306D01*
X146408466Y-115590775D01*
X146330928Y-115777968D01*
X146291400Y-115976692D01*
X137261200Y-115976692D01*
X137261200Y-115687646D01*
X138371982Y-115687646D01*
X138474683Y-115900200D01*
X139522200Y-115900200D01*
X139522200Y-114851309D01*
X139877800Y-114851309D01*
X139877800Y-115900200D01*
X140925317Y-115900200D01*
X141028018Y-115687646D01*
X141021083Y-115664756D01*
X140915079Y-115414966D01*
X140762380Y-115190656D01*
X140568854Y-115000446D01*
X140341939Y-114851646D01*
X140090355Y-114749974D01*
X139877800Y-114851309D01*
X139522200Y-114851309D01*
X139309645Y-114749974D01*
X139058061Y-114851646D01*
X138831146Y-115000446D01*
X138637620Y-115190656D01*
X138484921Y-115414966D01*
X138378917Y-115664756D01*
X138371982Y-115687646D01*
X137261200Y-115687646D01*
X137261200Y-113436692D01*
X138671400Y-113436692D01*
X138671400Y-113639308D01*
X138710928Y-113838032D01*
X138788466Y-114025225D01*
X138901034Y-114193694D01*
X139044306Y-114336966D01*
X139212775Y-114449534D01*
X139399968Y-114527072D01*
X139598692Y-114566600D01*
X139801308Y-114566600D01*
X140000032Y-114527072D01*
X140187225Y-114449534D01*
X140355694Y-114336966D01*
X140498966Y-114193694D01*
X140611534Y-114025225D01*
X140689072Y-113838032D01*
X140728600Y-113639308D01*
X140728600Y-113436692D01*
X146291400Y-113436692D01*
X146291400Y-113639308D01*
X146330928Y-113838032D01*
X146408466Y-114025225D01*
X146521034Y-114193694D01*
X146664306Y-114336966D01*
X146832775Y-114449534D01*
X147019968Y-114527072D01*
X147218692Y-114566600D01*
X147421308Y-114566600D01*
X147620032Y-114527072D01*
X147807225Y-114449534D01*
X147975694Y-114336966D01*
X148118966Y-114193694D01*
X148231534Y-114025225D01*
X148309072Y-113838032D01*
X148348600Y-113639308D01*
X148348600Y-113436692D01*
X148309072Y-113237968D01*
X148231534Y-113050775D01*
X148118966Y-112882306D01*
X147975694Y-112739034D01*
X147807225Y-112626466D01*
X147620032Y-112548928D01*
X147421308Y-112509400D01*
X147218692Y-112509400D01*
X147019968Y-112548928D01*
X146832775Y-112626466D01*
X146664306Y-112739034D01*
X146521034Y-112882306D01*
X146408466Y-113050775D01*
X146330928Y-113237968D01*
X146291400Y-113436692D01*
X140728600Y-113436692D01*
X140689072Y-113237968D01*
X140611534Y-113050775D01*
X140498966Y-112882306D01*
X140355694Y-112739034D01*
X140187225Y-112626466D01*
X140000032Y-112548928D01*
X139801308Y-112509400D01*
X139598692Y-112509400D01*
X139399968Y-112548928D01*
X139212775Y-112626466D01*
X139044306Y-112739034D01*
X138901034Y-112882306D01*
X138788466Y-113050775D01*
X138710928Y-113237968D01*
X138671400Y-113436692D01*
X137261200Y-113436692D01*
X137261200Y-110896692D01*
X138671400Y-110896692D01*
X138671400Y-111099308D01*
X138710928Y-111298032D01*
X138788466Y-111485225D01*
X138901034Y-111653694D01*
X139044306Y-111796966D01*
X139212775Y-111909534D01*
X139399968Y-111987072D01*
X139598692Y-112026600D01*
X139801308Y-112026600D01*
X140000032Y-111987072D01*
X140187225Y-111909534D01*
X140355694Y-111796966D01*
X140498966Y-111653694D01*
X140611534Y-111485225D01*
X140689072Y-111298032D01*
X140728600Y-111099308D01*
X140728600Y-110896692D01*
X146291400Y-110896692D01*
X146291400Y-111099308D01*
X146330928Y-111298032D01*
X146408466Y-111485225D01*
X146521034Y-111653694D01*
X146664306Y-111796966D01*
X146832775Y-111909534D01*
X147019968Y-111987072D01*
X147218692Y-112026600D01*
X147421308Y-112026600D01*
X147620032Y-111987072D01*
X147807225Y-111909534D01*
X147975694Y-111796966D01*
X148118966Y-111653694D01*
X148231534Y-111485225D01*
X148309072Y-111298032D01*
X148348600Y-111099308D01*
X148348600Y-110896692D01*
X148309072Y-110697968D01*
X148231534Y-110510775D01*
X148118966Y-110342306D01*
X147975694Y-110199034D01*
X147807225Y-110086466D01*
X147620032Y-110008928D01*
X147421308Y-109969400D01*
X147218692Y-109969400D01*
X147019968Y-110008928D01*
X146832775Y-110086466D01*
X146664306Y-110199034D01*
X146521034Y-110342306D01*
X146408466Y-110510775D01*
X146330928Y-110697968D01*
X146291400Y-110896692D01*
X140728600Y-110896692D01*
X140689072Y-110697968D01*
X140611534Y-110510775D01*
X140498966Y-110342306D01*
X140355694Y-110199034D01*
X140187225Y-110086466D01*
X140000032Y-110008928D01*
X139801308Y-109969400D01*
X139598692Y-109969400D01*
X139399968Y-110008928D01*
X139212775Y-110086466D01*
X139044306Y-110199034D01*
X138901034Y-110342306D01*
X138788466Y-110510775D01*
X138710928Y-110697968D01*
X138671400Y-110896692D01*
X137261200Y-110896692D01*
X137261200Y-109258000D01*
X138312973Y-109258000D01*
X138324253Y-109372523D01*
X138357658Y-109482646D01*
X138411905Y-109584135D01*
X138484909Y-109673091D01*
X138573865Y-109746095D01*
X138675354Y-109800342D01*
X138785477Y-109833747D01*
X138900000Y-109845027D01*
X139376150Y-109842200D01*
X139522200Y-109696150D01*
X139522200Y-108635800D01*
X139877800Y-108635800D01*
X139877800Y-109696150D01*
X140023850Y-109842200D01*
X140500000Y-109845027D01*
X140614523Y-109833747D01*
X140724646Y-109800342D01*
X140826135Y-109746095D01*
X140915091Y-109673091D01*
X140988095Y-109584135D01*
X141042342Y-109482646D01*
X141075747Y-109372523D01*
X141087027Y-109258000D01*
X141084200Y-108781850D01*
X140938150Y-108635800D01*
X139877800Y-108635800D01*
X139522200Y-108635800D01*
X138461850Y-108635800D01*
X138315800Y-108781850D01*
X138312973Y-109258000D01*
X137261200Y-109258000D01*
X137261200Y-108356692D01*
X146291400Y-108356692D01*
X146291400Y-108559308D01*
X146330928Y-108758032D01*
X146408466Y-108945225D01*
X146521034Y-109113694D01*
X146664306Y-109256966D01*
X146832775Y-109369534D01*
X147019968Y-109447072D01*
X147218692Y-109486600D01*
X147421308Y-109486600D01*
X147620032Y-109447072D01*
X147807225Y-109369534D01*
X147975694Y-109256966D01*
X148118966Y-109113694D01*
X148231534Y-108945225D01*
X148309072Y-108758032D01*
X148348600Y-108559308D01*
X148348600Y-108356692D01*
X148309072Y-108157968D01*
X148231534Y-107970775D01*
X148118966Y-107802306D01*
X147975694Y-107659034D01*
X147807225Y-107546466D01*
X147620032Y-107468928D01*
X147421308Y-107429400D01*
X147218692Y-107429400D01*
X147019968Y-107468928D01*
X146832775Y-107546466D01*
X146664306Y-107659034D01*
X146521034Y-107802306D01*
X146408466Y-107970775D01*
X146330928Y-108157968D01*
X146291400Y-108356692D01*
X137261200Y-108356692D01*
X137261200Y-107658000D01*
X138312973Y-107658000D01*
X138315800Y-108134150D01*
X138461850Y-108280200D01*
X139522200Y-108280200D01*
X139522200Y-107219850D01*
X139877800Y-107219850D01*
X139877800Y-108280200D01*
X140938150Y-108280200D01*
X141084200Y-108134150D01*
X141087027Y-107658000D01*
X141075747Y-107543477D01*
X141042342Y-107433354D01*
X140988095Y-107331865D01*
X140915091Y-107242909D01*
X140826135Y-107169905D01*
X140724646Y-107115658D01*
X140614523Y-107082253D01*
X140500000Y-107070973D01*
X140023850Y-107073800D01*
X139877800Y-107219850D01*
X139522200Y-107219850D01*
X139376150Y-107073800D01*
X138900000Y-107070973D01*
X138785477Y-107082253D01*
X138675354Y-107115658D01*
X138573865Y-107169905D01*
X138484909Y-107242909D01*
X138411905Y-107331865D01*
X138357658Y-107433354D01*
X138324253Y-107543477D01*
X138312973Y-107658000D01*
X137261200Y-107658000D01*
X137261200Y-105511200D01*
X149758801Y-105511200D01*
X149758800Y-126898800D01*
M02*
