G04 #@! TF.GenerationSoftware,KiCad,Pcbnew,(5.1.5-0-10_14)*
G04 #@! TF.CreationDate,2020-05-05T19:22:47-07:00*
G04 #@! TF.ProjectId,N64 EEPROM Breakout,4e363420-4545-4505-924f-4d2042726561,rev?*
G04 #@! TF.SameCoordinates,Original*
G04 #@! TF.FileFunction,Copper,L1,Top*
G04 #@! TF.FilePolarity,Positive*
%FSLAX46Y46*%
G04 Gerber Fmt 4.6, Leading zero omitted, Abs format (unit mm)*
G04 Created by KiCad (PCBNEW (5.1.5-0-10_14)) date 2020-05-05 19:22:47*
%MOMM*%
%LPD*%
G04 APERTURE LIST*
%ADD10O,1.700000X1.700000*%
%ADD11R,1.700000X1.700000*%
%ADD12O,1.600000X1.600000*%
%ADD13R,1.600000X1.600000*%
%ADD14C,0.100000*%
%ADD15C,0.600000*%
%ADD16C,0.304800*%
%ADD17C,0.152400*%
G04 APERTURE END LIST*
D10*
X139700000Y-124460000D03*
X139700000Y-121920000D03*
X142240000Y-124460000D03*
X142240000Y-121920000D03*
X144780000Y-124460000D03*
X144780000Y-121920000D03*
X147320000Y-124460000D03*
D11*
X147320000Y-121920000D03*
D12*
X147320000Y-108458000D03*
X139700000Y-116078000D03*
X147320000Y-110998000D03*
X139700000Y-113538000D03*
X147320000Y-113538000D03*
X139700000Y-110998000D03*
X147320000Y-116078000D03*
D13*
X139700000Y-108458000D03*
G04 #@! TA.AperFunction,SMDPad,CuDef*
D14*
G36*
X145634142Y-118173174D02*
G01*
X145657803Y-118176684D01*
X145681007Y-118182496D01*
X145703529Y-118190554D01*
X145725153Y-118200782D01*
X145745670Y-118213079D01*
X145764883Y-118227329D01*
X145782607Y-118243393D01*
X145798671Y-118261117D01*
X145812921Y-118280330D01*
X145825218Y-118300847D01*
X145835446Y-118322471D01*
X145843504Y-118344993D01*
X145849316Y-118368197D01*
X145852826Y-118391858D01*
X145854000Y-118415750D01*
X145854000Y-119328250D01*
X145852826Y-119352142D01*
X145849316Y-119375803D01*
X145843504Y-119399007D01*
X145835446Y-119421529D01*
X145825218Y-119443153D01*
X145812921Y-119463670D01*
X145798671Y-119482883D01*
X145782607Y-119500607D01*
X145764883Y-119516671D01*
X145745670Y-119530921D01*
X145725153Y-119543218D01*
X145703529Y-119553446D01*
X145681007Y-119561504D01*
X145657803Y-119567316D01*
X145634142Y-119570826D01*
X145610250Y-119572000D01*
X145122750Y-119572000D01*
X145098858Y-119570826D01*
X145075197Y-119567316D01*
X145051993Y-119561504D01*
X145029471Y-119553446D01*
X145007847Y-119543218D01*
X144987330Y-119530921D01*
X144968117Y-119516671D01*
X144950393Y-119500607D01*
X144934329Y-119482883D01*
X144920079Y-119463670D01*
X144907782Y-119443153D01*
X144897554Y-119421529D01*
X144889496Y-119399007D01*
X144883684Y-119375803D01*
X144880174Y-119352142D01*
X144879000Y-119328250D01*
X144879000Y-118415750D01*
X144880174Y-118391858D01*
X144883684Y-118368197D01*
X144889496Y-118344993D01*
X144897554Y-118322471D01*
X144907782Y-118300847D01*
X144920079Y-118280330D01*
X144934329Y-118261117D01*
X144950393Y-118243393D01*
X144968117Y-118227329D01*
X144987330Y-118213079D01*
X145007847Y-118200782D01*
X145029471Y-118190554D01*
X145051993Y-118182496D01*
X145075197Y-118176684D01*
X145098858Y-118173174D01*
X145122750Y-118172000D01*
X145610250Y-118172000D01*
X145634142Y-118173174D01*
G37*
G04 #@! TD.AperFunction*
G04 #@! TA.AperFunction,SMDPad,CuDef*
G36*
X147509142Y-118173174D02*
G01*
X147532803Y-118176684D01*
X147556007Y-118182496D01*
X147578529Y-118190554D01*
X147600153Y-118200782D01*
X147620670Y-118213079D01*
X147639883Y-118227329D01*
X147657607Y-118243393D01*
X147673671Y-118261117D01*
X147687921Y-118280330D01*
X147700218Y-118300847D01*
X147710446Y-118322471D01*
X147718504Y-118344993D01*
X147724316Y-118368197D01*
X147727826Y-118391858D01*
X147729000Y-118415750D01*
X147729000Y-119328250D01*
X147727826Y-119352142D01*
X147724316Y-119375803D01*
X147718504Y-119399007D01*
X147710446Y-119421529D01*
X147700218Y-119443153D01*
X147687921Y-119463670D01*
X147673671Y-119482883D01*
X147657607Y-119500607D01*
X147639883Y-119516671D01*
X147620670Y-119530921D01*
X147600153Y-119543218D01*
X147578529Y-119553446D01*
X147556007Y-119561504D01*
X147532803Y-119567316D01*
X147509142Y-119570826D01*
X147485250Y-119572000D01*
X146997750Y-119572000D01*
X146973858Y-119570826D01*
X146950197Y-119567316D01*
X146926993Y-119561504D01*
X146904471Y-119553446D01*
X146882847Y-119543218D01*
X146862330Y-119530921D01*
X146843117Y-119516671D01*
X146825393Y-119500607D01*
X146809329Y-119482883D01*
X146795079Y-119463670D01*
X146782782Y-119443153D01*
X146772554Y-119421529D01*
X146764496Y-119399007D01*
X146758684Y-119375803D01*
X146755174Y-119352142D01*
X146754000Y-119328250D01*
X146754000Y-118415750D01*
X146755174Y-118391858D01*
X146758684Y-118368197D01*
X146764496Y-118344993D01*
X146772554Y-118322471D01*
X146782782Y-118300847D01*
X146795079Y-118280330D01*
X146809329Y-118261117D01*
X146825393Y-118243393D01*
X146843117Y-118227329D01*
X146862330Y-118213079D01*
X146882847Y-118200782D01*
X146904471Y-118190554D01*
X146926993Y-118182496D01*
X146950197Y-118176684D01*
X146973858Y-118173174D01*
X146997750Y-118172000D01*
X147485250Y-118172000D01*
X147509142Y-118173174D01*
G37*
G04 #@! TD.AperFunction*
G04 #@! TA.AperFunction,SMDPad,CuDef*
G36*
X141921142Y-118173174D02*
G01*
X141944803Y-118176684D01*
X141968007Y-118182496D01*
X141990529Y-118190554D01*
X142012153Y-118200782D01*
X142032670Y-118213079D01*
X142051883Y-118227329D01*
X142069607Y-118243393D01*
X142085671Y-118261117D01*
X142099921Y-118280330D01*
X142112218Y-118300847D01*
X142122446Y-118322471D01*
X142130504Y-118344993D01*
X142136316Y-118368197D01*
X142139826Y-118391858D01*
X142141000Y-118415750D01*
X142141000Y-119328250D01*
X142139826Y-119352142D01*
X142136316Y-119375803D01*
X142130504Y-119399007D01*
X142122446Y-119421529D01*
X142112218Y-119443153D01*
X142099921Y-119463670D01*
X142085671Y-119482883D01*
X142069607Y-119500607D01*
X142051883Y-119516671D01*
X142032670Y-119530921D01*
X142012153Y-119543218D01*
X141990529Y-119553446D01*
X141968007Y-119561504D01*
X141944803Y-119567316D01*
X141921142Y-119570826D01*
X141897250Y-119572000D01*
X141409750Y-119572000D01*
X141385858Y-119570826D01*
X141362197Y-119567316D01*
X141338993Y-119561504D01*
X141316471Y-119553446D01*
X141294847Y-119543218D01*
X141274330Y-119530921D01*
X141255117Y-119516671D01*
X141237393Y-119500607D01*
X141221329Y-119482883D01*
X141207079Y-119463670D01*
X141194782Y-119443153D01*
X141184554Y-119421529D01*
X141176496Y-119399007D01*
X141170684Y-119375803D01*
X141167174Y-119352142D01*
X141166000Y-119328250D01*
X141166000Y-118415750D01*
X141167174Y-118391858D01*
X141170684Y-118368197D01*
X141176496Y-118344993D01*
X141184554Y-118322471D01*
X141194782Y-118300847D01*
X141207079Y-118280330D01*
X141221329Y-118261117D01*
X141237393Y-118243393D01*
X141255117Y-118227329D01*
X141274330Y-118213079D01*
X141294847Y-118200782D01*
X141316471Y-118190554D01*
X141338993Y-118182496D01*
X141362197Y-118176684D01*
X141385858Y-118173174D01*
X141409750Y-118172000D01*
X141897250Y-118172000D01*
X141921142Y-118173174D01*
G37*
G04 #@! TD.AperFunction*
G04 #@! TA.AperFunction,SMDPad,CuDef*
G36*
X140046142Y-118173174D02*
G01*
X140069803Y-118176684D01*
X140093007Y-118182496D01*
X140115529Y-118190554D01*
X140137153Y-118200782D01*
X140157670Y-118213079D01*
X140176883Y-118227329D01*
X140194607Y-118243393D01*
X140210671Y-118261117D01*
X140224921Y-118280330D01*
X140237218Y-118300847D01*
X140247446Y-118322471D01*
X140255504Y-118344993D01*
X140261316Y-118368197D01*
X140264826Y-118391858D01*
X140266000Y-118415750D01*
X140266000Y-119328250D01*
X140264826Y-119352142D01*
X140261316Y-119375803D01*
X140255504Y-119399007D01*
X140247446Y-119421529D01*
X140237218Y-119443153D01*
X140224921Y-119463670D01*
X140210671Y-119482883D01*
X140194607Y-119500607D01*
X140176883Y-119516671D01*
X140157670Y-119530921D01*
X140137153Y-119543218D01*
X140115529Y-119553446D01*
X140093007Y-119561504D01*
X140069803Y-119567316D01*
X140046142Y-119570826D01*
X140022250Y-119572000D01*
X139534750Y-119572000D01*
X139510858Y-119570826D01*
X139487197Y-119567316D01*
X139463993Y-119561504D01*
X139441471Y-119553446D01*
X139419847Y-119543218D01*
X139399330Y-119530921D01*
X139380117Y-119516671D01*
X139362393Y-119500607D01*
X139346329Y-119482883D01*
X139332079Y-119463670D01*
X139319782Y-119443153D01*
X139309554Y-119421529D01*
X139301496Y-119399007D01*
X139295684Y-119375803D01*
X139292174Y-119352142D01*
X139291000Y-119328250D01*
X139291000Y-118415750D01*
X139292174Y-118391858D01*
X139295684Y-118368197D01*
X139301496Y-118344993D01*
X139309554Y-118322471D01*
X139319782Y-118300847D01*
X139332079Y-118280330D01*
X139346329Y-118261117D01*
X139362393Y-118243393D01*
X139380117Y-118227329D01*
X139399330Y-118213079D01*
X139419847Y-118200782D01*
X139441471Y-118190554D01*
X139463993Y-118182496D01*
X139487197Y-118176684D01*
X139510858Y-118173174D01*
X139534750Y-118172000D01*
X140022250Y-118172000D01*
X140046142Y-118173174D01*
G37*
G04 #@! TD.AperFunction*
D15*
X137922000Y-116078000D03*
X137922000Y-108458000D03*
X142748000Y-118364000D03*
X142748000Y-119380000D03*
X144272000Y-118364000D03*
X144272000Y-119380000D03*
X140778601Y-120396000D03*
D16*
X142748000Y-118364000D02*
X142240000Y-118872000D01*
X142240000Y-118872000D02*
X142748000Y-119380000D01*
X142240000Y-118872000D02*
X141653500Y-118872000D01*
X144272000Y-118364000D02*
X144780000Y-118872000D01*
X144780000Y-118872000D02*
X144272000Y-119380000D01*
X144780000Y-118872000D02*
X145366500Y-118872000D01*
X137922000Y-108458000D02*
X139700000Y-108458000D01*
X137922000Y-116078000D02*
X139700000Y-116078000D01*
X138430000Y-120220500D02*
X139778500Y-118872000D01*
X138430000Y-123190000D02*
X138430000Y-120220500D01*
X139700000Y-124460000D02*
X138430000Y-123190000D01*
X140549999Y-125309999D02*
X139700000Y-124460000D01*
X147828000Y-125730000D02*
X140970000Y-125730000D01*
X148590000Y-124968000D02*
X147828000Y-125730000D01*
X140970000Y-125730000D02*
X140549999Y-125309999D01*
X148590000Y-120220500D02*
X148590000Y-124968000D01*
X147241500Y-118872000D02*
X148590000Y-120220500D01*
X148119999Y-109257999D02*
X147320000Y-108458000D01*
X148590000Y-109728000D02*
X148119999Y-109257999D01*
X147241500Y-118172000D02*
X148590000Y-116823500D01*
X148590000Y-116823500D02*
X148590000Y-109728000D01*
X147241500Y-118872000D02*
X147241500Y-118172000D01*
D17*
X141390001Y-123610001D02*
X142240000Y-124460000D01*
X140970000Y-123190000D02*
X141390001Y-123610001D01*
X140970000Y-121412000D02*
X140970000Y-123190000D01*
X147320000Y-113538000D02*
X143510000Y-117348000D01*
X143510000Y-117348000D02*
X143510000Y-119888000D01*
X141732000Y-120650000D02*
X140970000Y-121412000D01*
X142748000Y-120650000D02*
X141732000Y-120650000D01*
X143510000Y-119888000D02*
X142748000Y-120650000D01*
X143510000Y-120650000D02*
X143089999Y-121070001D01*
X145542000Y-120650000D02*
X143510000Y-120650000D01*
X146304000Y-119888000D02*
X145542000Y-120650000D01*
X143089999Y-121070001D02*
X142240000Y-121920000D01*
X146304000Y-117094000D02*
X146304000Y-119888000D01*
X147320000Y-116078000D02*
X146304000Y-117094000D01*
X140499999Y-114337999D02*
X139700000Y-113538000D01*
X140778601Y-114616601D02*
X140499999Y-114337999D01*
X140778601Y-120396000D02*
X140778601Y-120396000D01*
X140778601Y-120396000D02*
X140778601Y-114616601D01*
G36*
X149758800Y-126898800D02*
G01*
X137261200Y-126898800D01*
X137261200Y-120220500D01*
X138047157Y-120220500D01*
X138049001Y-120239220D01*
X138049000Y-123171290D01*
X138047157Y-123190000D01*
X138049000Y-123208710D01*
X138049000Y-123208712D01*
X138054513Y-123264688D01*
X138067411Y-123307206D01*
X138076299Y-123336507D01*
X138111678Y-123402696D01*
X138113616Y-123405057D01*
X138159289Y-123460711D01*
X138173832Y-123472646D01*
X138716660Y-124015475D01*
X138662850Y-124145384D01*
X138621400Y-124353767D01*
X138621400Y-124566233D01*
X138662850Y-124774616D01*
X138744157Y-124970909D01*
X138862197Y-125147567D01*
X139012433Y-125297803D01*
X139189091Y-125415843D01*
X139385384Y-125497150D01*
X139593767Y-125538600D01*
X139806233Y-125538600D01*
X140014616Y-125497150D01*
X140144525Y-125443340D01*
X140293823Y-125592638D01*
X140293828Y-125592642D01*
X140687359Y-125986173D01*
X140699289Y-126000711D01*
X140713824Y-126012639D01*
X140757303Y-126048322D01*
X140823492Y-126083701D01*
X140895311Y-126105487D01*
X140951287Y-126111000D01*
X140951289Y-126111000D01*
X140969999Y-126112843D01*
X140988709Y-126111000D01*
X147809290Y-126111000D01*
X147828000Y-126112843D01*
X147846710Y-126111000D01*
X147846713Y-126111000D01*
X147902689Y-126105487D01*
X147974508Y-126083701D01*
X148040696Y-126048322D01*
X148098711Y-126000711D01*
X148110646Y-125986168D01*
X148846174Y-125250641D01*
X148860711Y-125238711D01*
X148884250Y-125210028D01*
X148908322Y-125180697D01*
X148943701Y-125114508D01*
X148948920Y-125097302D01*
X148965487Y-125042689D01*
X148971000Y-124986713D01*
X148971000Y-124986710D01*
X148972843Y-124968000D01*
X148971000Y-124949290D01*
X148971000Y-120239210D01*
X148972843Y-120220500D01*
X148968798Y-120179432D01*
X148965487Y-120145811D01*
X148943701Y-120073992D01*
X148935237Y-120058157D01*
X148908322Y-120007803D01*
X148872639Y-119964324D01*
X148860711Y-119949789D01*
X148846175Y-119937860D01*
X147958706Y-119050392D01*
X147958706Y-118415750D01*
X147949609Y-118323383D01*
X147922666Y-118234566D01*
X147878914Y-118152712D01*
X147843164Y-118109150D01*
X148846175Y-117106140D01*
X148860711Y-117094211D01*
X148884651Y-117065040D01*
X148908322Y-117036197D01*
X148943701Y-116970008D01*
X148945116Y-116965344D01*
X148965487Y-116898189D01*
X148971000Y-116842213D01*
X148971000Y-116842210D01*
X148972843Y-116823500D01*
X148971000Y-116804790D01*
X148971000Y-109746710D01*
X148972843Y-109728000D01*
X148969706Y-109696150D01*
X148965487Y-109653311D01*
X148943701Y-109581492D01*
X148921864Y-109540638D01*
X148908322Y-109515303D01*
X148872639Y-109471824D01*
X148860711Y-109457289D01*
X148846173Y-109445359D01*
X148402642Y-109001828D01*
X148402638Y-109001823D01*
X148265072Y-108864257D01*
X148309072Y-108758032D01*
X148348600Y-108559308D01*
X148348600Y-108356692D01*
X148309072Y-108157968D01*
X148231534Y-107970775D01*
X148118966Y-107802306D01*
X147975694Y-107659034D01*
X147807225Y-107546466D01*
X147620032Y-107468928D01*
X147421308Y-107429400D01*
X147218692Y-107429400D01*
X147019968Y-107468928D01*
X146832775Y-107546466D01*
X146664306Y-107659034D01*
X146521034Y-107802306D01*
X146408466Y-107970775D01*
X146330928Y-108157968D01*
X146291400Y-108356692D01*
X146291400Y-108559308D01*
X146330928Y-108758032D01*
X146408466Y-108945225D01*
X146521034Y-109113694D01*
X146664306Y-109256966D01*
X146832775Y-109369534D01*
X147019968Y-109447072D01*
X147218692Y-109486600D01*
X147421308Y-109486600D01*
X147620032Y-109447072D01*
X147726257Y-109403072D01*
X147863823Y-109540638D01*
X147863828Y-109540642D01*
X148209001Y-109885816D01*
X148209001Y-110477052D01*
X148118966Y-110342306D01*
X147975694Y-110199034D01*
X147807225Y-110086466D01*
X147620032Y-110008928D01*
X147421308Y-109969400D01*
X147218692Y-109969400D01*
X147019968Y-110008928D01*
X146832775Y-110086466D01*
X146664306Y-110199034D01*
X146521034Y-110342306D01*
X146408466Y-110510775D01*
X146330928Y-110697968D01*
X146291400Y-110896692D01*
X146291400Y-111099308D01*
X146330928Y-111298032D01*
X146408466Y-111485225D01*
X146521034Y-111653694D01*
X146664306Y-111796966D01*
X146832775Y-111909534D01*
X147019968Y-111987072D01*
X147218692Y-112026600D01*
X147421308Y-112026600D01*
X147620032Y-111987072D01*
X147807225Y-111909534D01*
X147975694Y-111796966D01*
X148118966Y-111653694D01*
X148209001Y-111518948D01*
X148209001Y-113017051D01*
X148118966Y-112882306D01*
X147975694Y-112739034D01*
X147807225Y-112626466D01*
X147620032Y-112548928D01*
X147421308Y-112509400D01*
X147218692Y-112509400D01*
X147019968Y-112548928D01*
X146832775Y-112626466D01*
X146664306Y-112739034D01*
X146521034Y-112882306D01*
X146408466Y-113050775D01*
X146330928Y-113237968D01*
X146291400Y-113436692D01*
X146291400Y-113639308D01*
X146330928Y-113838032D01*
X146406491Y-114020457D01*
X143305061Y-117121888D01*
X143293432Y-117131432D01*
X143255342Y-117177844D01*
X143227040Y-117230795D01*
X143209611Y-117288250D01*
X143205200Y-117333035D01*
X143205200Y-117333042D01*
X143203727Y-117348000D01*
X143205200Y-117362958D01*
X143205201Y-119761747D01*
X142621749Y-120345200D01*
X141746958Y-120345200D01*
X141732000Y-120343727D01*
X141717042Y-120345200D01*
X141717034Y-120345200D01*
X141677403Y-120349103D01*
X141672248Y-120349611D01*
X141614903Y-120367007D01*
X141614794Y-120367040D01*
X141561843Y-120395342D01*
X141515432Y-120433432D01*
X141505892Y-120445056D01*
X140765061Y-121185888D01*
X140753432Y-121195432D01*
X140715342Y-121241844D01*
X140687040Y-121294795D01*
X140669611Y-121352250D01*
X140665200Y-121397035D01*
X140665200Y-121397042D01*
X140663727Y-121412000D01*
X140665200Y-121426958D01*
X140665200Y-121431681D01*
X140655843Y-121409091D01*
X140537803Y-121232433D01*
X140387567Y-121082197D01*
X140210909Y-120964157D01*
X140014616Y-120882850D01*
X139806233Y-120841400D01*
X139593767Y-120841400D01*
X139385384Y-120882850D01*
X139189091Y-120964157D01*
X139012433Y-121082197D01*
X138862197Y-121232433D01*
X138811000Y-121309054D01*
X138811000Y-120378314D01*
X139407337Y-119781978D01*
X139442383Y-119792609D01*
X139534750Y-119801706D01*
X140022250Y-119801706D01*
X140114617Y-119792609D01*
X140203434Y-119765666D01*
X140285288Y-119721914D01*
X140357034Y-119663034D01*
X140415914Y-119591288D01*
X140459666Y-119509434D01*
X140473801Y-119462838D01*
X140473801Y-119963918D01*
X140441638Y-119985409D01*
X140368010Y-120059037D01*
X140310161Y-120145614D01*
X140270314Y-120241813D01*
X140250001Y-120343937D01*
X140250001Y-120448063D01*
X140270314Y-120550187D01*
X140310161Y-120646386D01*
X140368010Y-120732963D01*
X140441638Y-120806591D01*
X140528215Y-120864440D01*
X140624414Y-120904287D01*
X140726538Y-120924600D01*
X140830664Y-120924600D01*
X140932788Y-120904287D01*
X141028987Y-120864440D01*
X141115564Y-120806591D01*
X141189192Y-120732963D01*
X141247041Y-120646386D01*
X141286888Y-120550187D01*
X141307201Y-120448063D01*
X141307201Y-120343937D01*
X141286888Y-120241813D01*
X141251982Y-120157542D01*
X141329650Y-120156200D01*
X141475700Y-120010150D01*
X141475700Y-119049800D01*
X141831300Y-119049800D01*
X141831300Y-120010150D01*
X141977350Y-120156200D01*
X142141000Y-120159027D01*
X142255523Y-120147747D01*
X142365646Y-120114342D01*
X142467135Y-120060095D01*
X142556091Y-119987091D01*
X142629095Y-119898135D01*
X142683342Y-119796646D01*
X142716747Y-119686523D01*
X142728027Y-119572000D01*
X142725200Y-119195850D01*
X142579150Y-119049800D01*
X141831300Y-119049800D01*
X141475700Y-119049800D01*
X141455700Y-119049800D01*
X141455700Y-118694200D01*
X141475700Y-118694200D01*
X141475700Y-117733850D01*
X141831300Y-117733850D01*
X141831300Y-118694200D01*
X142579150Y-118694200D01*
X142725200Y-118548150D01*
X142728027Y-118172000D01*
X142716747Y-118057477D01*
X142683342Y-117947354D01*
X142629095Y-117845865D01*
X142556091Y-117756909D01*
X142467135Y-117683905D01*
X142365646Y-117629658D01*
X142255523Y-117596253D01*
X142141000Y-117584973D01*
X141977350Y-117587800D01*
X141831300Y-117733850D01*
X141475700Y-117733850D01*
X141329650Y-117587800D01*
X141166000Y-117584973D01*
X141083401Y-117593109D01*
X141083401Y-114631559D01*
X141084874Y-114616601D01*
X141083401Y-114601643D01*
X141083401Y-114601635D01*
X141078990Y-114556850D01*
X141078298Y-114554567D01*
X141061561Y-114499395D01*
X141033259Y-114446444D01*
X140995169Y-114400033D01*
X140983545Y-114390493D01*
X140726111Y-114133060D01*
X140726107Y-114133055D01*
X140613509Y-114020457D01*
X140689072Y-113838032D01*
X140728600Y-113639308D01*
X140728600Y-113436692D01*
X140689072Y-113237968D01*
X140611534Y-113050775D01*
X140498966Y-112882306D01*
X140355694Y-112739034D01*
X140187225Y-112626466D01*
X140000032Y-112548928D01*
X139801308Y-112509400D01*
X139598692Y-112509400D01*
X139399968Y-112548928D01*
X139212775Y-112626466D01*
X139044306Y-112739034D01*
X138901034Y-112882306D01*
X138788466Y-113050775D01*
X138710928Y-113237968D01*
X138671400Y-113436692D01*
X138671400Y-113639308D01*
X138710928Y-113838032D01*
X138788466Y-114025225D01*
X138901034Y-114193694D01*
X139044306Y-114336966D01*
X139212775Y-114449534D01*
X139399968Y-114527072D01*
X139598692Y-114566600D01*
X139801308Y-114566600D01*
X140000032Y-114527072D01*
X140182457Y-114451509D01*
X140295055Y-114564107D01*
X140295060Y-114564111D01*
X140473802Y-114742854D01*
X140473802Y-114938115D01*
X140341939Y-114851646D01*
X140090355Y-114749974D01*
X139877800Y-114851309D01*
X139877800Y-115900200D01*
X140473802Y-115900200D01*
X140473802Y-116255800D01*
X139877800Y-116255800D01*
X139877800Y-117304691D01*
X140090355Y-117406026D01*
X140341939Y-117304354D01*
X140473802Y-117217885D01*
X140473801Y-118281163D01*
X140459666Y-118234566D01*
X140415914Y-118152712D01*
X140357034Y-118080966D01*
X140285288Y-118022086D01*
X140203434Y-117978334D01*
X140114617Y-117951391D01*
X140022250Y-117942294D01*
X139534750Y-117942294D01*
X139442383Y-117951391D01*
X139353566Y-117978334D01*
X139271712Y-118022086D01*
X139199966Y-118080966D01*
X139141086Y-118152712D01*
X139097334Y-118234566D01*
X139070391Y-118323383D01*
X139061294Y-118415750D01*
X139061294Y-119050391D01*
X138173827Y-119937859D01*
X138159290Y-119949789D01*
X138147362Y-119964324D01*
X138147361Y-119964325D01*
X138111678Y-120007804D01*
X138076299Y-120073993D01*
X138071080Y-120091200D01*
X138055471Y-120142658D01*
X138054514Y-120145812D01*
X138047157Y-120220500D01*
X137261200Y-120220500D01*
X137261200Y-116468354D01*
X138371982Y-116468354D01*
X138378917Y-116491244D01*
X138484921Y-116741034D01*
X138637620Y-116965344D01*
X138831146Y-117155554D01*
X139058061Y-117304354D01*
X139309645Y-117406026D01*
X139522200Y-117304691D01*
X139522200Y-116255800D01*
X138474683Y-116255800D01*
X138371982Y-116468354D01*
X137261200Y-116468354D01*
X137261200Y-115687646D01*
X138371982Y-115687646D01*
X138474683Y-115900200D01*
X139522200Y-115900200D01*
X139522200Y-114851309D01*
X139309645Y-114749974D01*
X139058061Y-114851646D01*
X138831146Y-115000446D01*
X138637620Y-115190656D01*
X138484921Y-115414966D01*
X138378917Y-115664756D01*
X138371982Y-115687646D01*
X137261200Y-115687646D01*
X137261200Y-110896692D01*
X138671400Y-110896692D01*
X138671400Y-111099308D01*
X138710928Y-111298032D01*
X138788466Y-111485225D01*
X138901034Y-111653694D01*
X139044306Y-111796966D01*
X139212775Y-111909534D01*
X139399968Y-111987072D01*
X139598692Y-112026600D01*
X139801308Y-112026600D01*
X140000032Y-111987072D01*
X140187225Y-111909534D01*
X140355694Y-111796966D01*
X140498966Y-111653694D01*
X140611534Y-111485225D01*
X140689072Y-111298032D01*
X140728600Y-111099308D01*
X140728600Y-110896692D01*
X140689072Y-110697968D01*
X140611534Y-110510775D01*
X140498966Y-110342306D01*
X140355694Y-110199034D01*
X140187225Y-110086466D01*
X140000032Y-110008928D01*
X139801308Y-109969400D01*
X139598692Y-109969400D01*
X139399968Y-110008928D01*
X139212775Y-110086466D01*
X139044306Y-110199034D01*
X138901034Y-110342306D01*
X138788466Y-110510775D01*
X138710928Y-110697968D01*
X138671400Y-110896692D01*
X137261200Y-110896692D01*
X137261200Y-109258000D01*
X138312973Y-109258000D01*
X138324253Y-109372523D01*
X138357658Y-109482646D01*
X138411905Y-109584135D01*
X138484909Y-109673091D01*
X138573865Y-109746095D01*
X138675354Y-109800342D01*
X138785477Y-109833747D01*
X138900000Y-109845027D01*
X139376150Y-109842200D01*
X139522200Y-109696150D01*
X139522200Y-108635800D01*
X139877800Y-108635800D01*
X139877800Y-109696150D01*
X140023850Y-109842200D01*
X140500000Y-109845027D01*
X140614523Y-109833747D01*
X140724646Y-109800342D01*
X140826135Y-109746095D01*
X140915091Y-109673091D01*
X140988095Y-109584135D01*
X141042342Y-109482646D01*
X141075747Y-109372523D01*
X141087027Y-109258000D01*
X141084200Y-108781850D01*
X140938150Y-108635800D01*
X139877800Y-108635800D01*
X139522200Y-108635800D01*
X138461850Y-108635800D01*
X138315800Y-108781850D01*
X138312973Y-109258000D01*
X137261200Y-109258000D01*
X137261200Y-107658000D01*
X138312973Y-107658000D01*
X138315800Y-108134150D01*
X138461850Y-108280200D01*
X139522200Y-108280200D01*
X139522200Y-107219850D01*
X139877800Y-107219850D01*
X139877800Y-108280200D01*
X140938150Y-108280200D01*
X141084200Y-108134150D01*
X141087027Y-107658000D01*
X141075747Y-107543477D01*
X141042342Y-107433354D01*
X140988095Y-107331865D01*
X140915091Y-107242909D01*
X140826135Y-107169905D01*
X140724646Y-107115658D01*
X140614523Y-107082253D01*
X140500000Y-107070973D01*
X140023850Y-107073800D01*
X139877800Y-107219850D01*
X139522200Y-107219850D01*
X139376150Y-107073800D01*
X138900000Y-107070973D01*
X138785477Y-107082253D01*
X138675354Y-107115658D01*
X138573865Y-107169905D01*
X138484909Y-107242909D01*
X138411905Y-107331865D01*
X138357658Y-107433354D01*
X138324253Y-107543477D01*
X138312973Y-107658000D01*
X137261200Y-107658000D01*
X137261200Y-105511200D01*
X149758801Y-105511200D01*
X149758800Y-126898800D01*
G37*
X149758800Y-126898800D02*
X137261200Y-126898800D01*
X137261200Y-120220500D01*
X138047157Y-120220500D01*
X138049001Y-120239220D01*
X138049000Y-123171290D01*
X138047157Y-123190000D01*
X138049000Y-123208710D01*
X138049000Y-123208712D01*
X138054513Y-123264688D01*
X138067411Y-123307206D01*
X138076299Y-123336507D01*
X138111678Y-123402696D01*
X138113616Y-123405057D01*
X138159289Y-123460711D01*
X138173832Y-123472646D01*
X138716660Y-124015475D01*
X138662850Y-124145384D01*
X138621400Y-124353767D01*
X138621400Y-124566233D01*
X138662850Y-124774616D01*
X138744157Y-124970909D01*
X138862197Y-125147567D01*
X139012433Y-125297803D01*
X139189091Y-125415843D01*
X139385384Y-125497150D01*
X139593767Y-125538600D01*
X139806233Y-125538600D01*
X140014616Y-125497150D01*
X140144525Y-125443340D01*
X140293823Y-125592638D01*
X140293828Y-125592642D01*
X140687359Y-125986173D01*
X140699289Y-126000711D01*
X140713824Y-126012639D01*
X140757303Y-126048322D01*
X140823492Y-126083701D01*
X140895311Y-126105487D01*
X140951287Y-126111000D01*
X140951289Y-126111000D01*
X140969999Y-126112843D01*
X140988709Y-126111000D01*
X147809290Y-126111000D01*
X147828000Y-126112843D01*
X147846710Y-126111000D01*
X147846713Y-126111000D01*
X147902689Y-126105487D01*
X147974508Y-126083701D01*
X148040696Y-126048322D01*
X148098711Y-126000711D01*
X148110646Y-125986168D01*
X148846174Y-125250641D01*
X148860711Y-125238711D01*
X148884250Y-125210028D01*
X148908322Y-125180697D01*
X148943701Y-125114508D01*
X148948920Y-125097302D01*
X148965487Y-125042689D01*
X148971000Y-124986713D01*
X148971000Y-124986710D01*
X148972843Y-124968000D01*
X148971000Y-124949290D01*
X148971000Y-120239210D01*
X148972843Y-120220500D01*
X148968798Y-120179432D01*
X148965487Y-120145811D01*
X148943701Y-120073992D01*
X148935237Y-120058157D01*
X148908322Y-120007803D01*
X148872639Y-119964324D01*
X148860711Y-119949789D01*
X148846175Y-119937860D01*
X147958706Y-119050392D01*
X147958706Y-118415750D01*
X147949609Y-118323383D01*
X147922666Y-118234566D01*
X147878914Y-118152712D01*
X147843164Y-118109150D01*
X148846175Y-117106140D01*
X148860711Y-117094211D01*
X148884651Y-117065040D01*
X148908322Y-117036197D01*
X148943701Y-116970008D01*
X148945116Y-116965344D01*
X148965487Y-116898189D01*
X148971000Y-116842213D01*
X148971000Y-116842210D01*
X148972843Y-116823500D01*
X148971000Y-116804790D01*
X148971000Y-109746710D01*
X148972843Y-109728000D01*
X148969706Y-109696150D01*
X148965487Y-109653311D01*
X148943701Y-109581492D01*
X148921864Y-109540638D01*
X148908322Y-109515303D01*
X148872639Y-109471824D01*
X148860711Y-109457289D01*
X148846173Y-109445359D01*
X148402642Y-109001828D01*
X148402638Y-109001823D01*
X148265072Y-108864257D01*
X148309072Y-108758032D01*
X148348600Y-108559308D01*
X148348600Y-108356692D01*
X148309072Y-108157968D01*
X148231534Y-107970775D01*
X148118966Y-107802306D01*
X147975694Y-107659034D01*
X147807225Y-107546466D01*
X147620032Y-107468928D01*
X147421308Y-107429400D01*
X147218692Y-107429400D01*
X147019968Y-107468928D01*
X146832775Y-107546466D01*
X146664306Y-107659034D01*
X146521034Y-107802306D01*
X146408466Y-107970775D01*
X146330928Y-108157968D01*
X146291400Y-108356692D01*
X146291400Y-108559308D01*
X146330928Y-108758032D01*
X146408466Y-108945225D01*
X146521034Y-109113694D01*
X146664306Y-109256966D01*
X146832775Y-109369534D01*
X147019968Y-109447072D01*
X147218692Y-109486600D01*
X147421308Y-109486600D01*
X147620032Y-109447072D01*
X147726257Y-109403072D01*
X147863823Y-109540638D01*
X147863828Y-109540642D01*
X148209001Y-109885816D01*
X148209001Y-110477052D01*
X148118966Y-110342306D01*
X147975694Y-110199034D01*
X147807225Y-110086466D01*
X147620032Y-110008928D01*
X147421308Y-109969400D01*
X147218692Y-109969400D01*
X147019968Y-110008928D01*
X146832775Y-110086466D01*
X146664306Y-110199034D01*
X146521034Y-110342306D01*
X146408466Y-110510775D01*
X146330928Y-110697968D01*
X146291400Y-110896692D01*
X146291400Y-111099308D01*
X146330928Y-111298032D01*
X146408466Y-111485225D01*
X146521034Y-111653694D01*
X146664306Y-111796966D01*
X146832775Y-111909534D01*
X147019968Y-111987072D01*
X147218692Y-112026600D01*
X147421308Y-112026600D01*
X147620032Y-111987072D01*
X147807225Y-111909534D01*
X147975694Y-111796966D01*
X148118966Y-111653694D01*
X148209001Y-111518948D01*
X148209001Y-113017051D01*
X148118966Y-112882306D01*
X147975694Y-112739034D01*
X147807225Y-112626466D01*
X147620032Y-112548928D01*
X147421308Y-112509400D01*
X147218692Y-112509400D01*
X147019968Y-112548928D01*
X146832775Y-112626466D01*
X146664306Y-112739034D01*
X146521034Y-112882306D01*
X146408466Y-113050775D01*
X146330928Y-113237968D01*
X146291400Y-113436692D01*
X146291400Y-113639308D01*
X146330928Y-113838032D01*
X146406491Y-114020457D01*
X143305061Y-117121888D01*
X143293432Y-117131432D01*
X143255342Y-117177844D01*
X143227040Y-117230795D01*
X143209611Y-117288250D01*
X143205200Y-117333035D01*
X143205200Y-117333042D01*
X143203727Y-117348000D01*
X143205200Y-117362958D01*
X143205201Y-119761747D01*
X142621749Y-120345200D01*
X141746958Y-120345200D01*
X141732000Y-120343727D01*
X141717042Y-120345200D01*
X141717034Y-120345200D01*
X141677403Y-120349103D01*
X141672248Y-120349611D01*
X141614903Y-120367007D01*
X141614794Y-120367040D01*
X141561843Y-120395342D01*
X141515432Y-120433432D01*
X141505892Y-120445056D01*
X140765061Y-121185888D01*
X140753432Y-121195432D01*
X140715342Y-121241844D01*
X140687040Y-121294795D01*
X140669611Y-121352250D01*
X140665200Y-121397035D01*
X140665200Y-121397042D01*
X140663727Y-121412000D01*
X140665200Y-121426958D01*
X140665200Y-121431681D01*
X140655843Y-121409091D01*
X140537803Y-121232433D01*
X140387567Y-121082197D01*
X140210909Y-120964157D01*
X140014616Y-120882850D01*
X139806233Y-120841400D01*
X139593767Y-120841400D01*
X139385384Y-120882850D01*
X139189091Y-120964157D01*
X139012433Y-121082197D01*
X138862197Y-121232433D01*
X138811000Y-121309054D01*
X138811000Y-120378314D01*
X139407337Y-119781978D01*
X139442383Y-119792609D01*
X139534750Y-119801706D01*
X140022250Y-119801706D01*
X140114617Y-119792609D01*
X140203434Y-119765666D01*
X140285288Y-119721914D01*
X140357034Y-119663034D01*
X140415914Y-119591288D01*
X140459666Y-119509434D01*
X140473801Y-119462838D01*
X140473801Y-119963918D01*
X140441638Y-119985409D01*
X140368010Y-120059037D01*
X140310161Y-120145614D01*
X140270314Y-120241813D01*
X140250001Y-120343937D01*
X140250001Y-120448063D01*
X140270314Y-120550187D01*
X140310161Y-120646386D01*
X140368010Y-120732963D01*
X140441638Y-120806591D01*
X140528215Y-120864440D01*
X140624414Y-120904287D01*
X140726538Y-120924600D01*
X140830664Y-120924600D01*
X140932788Y-120904287D01*
X141028987Y-120864440D01*
X141115564Y-120806591D01*
X141189192Y-120732963D01*
X141247041Y-120646386D01*
X141286888Y-120550187D01*
X141307201Y-120448063D01*
X141307201Y-120343937D01*
X141286888Y-120241813D01*
X141251982Y-120157542D01*
X141329650Y-120156200D01*
X141475700Y-120010150D01*
X141475700Y-119049800D01*
X141831300Y-119049800D01*
X141831300Y-120010150D01*
X141977350Y-120156200D01*
X142141000Y-120159027D01*
X142255523Y-120147747D01*
X142365646Y-120114342D01*
X142467135Y-120060095D01*
X142556091Y-119987091D01*
X142629095Y-119898135D01*
X142683342Y-119796646D01*
X142716747Y-119686523D01*
X142728027Y-119572000D01*
X142725200Y-119195850D01*
X142579150Y-119049800D01*
X141831300Y-119049800D01*
X141475700Y-119049800D01*
X141455700Y-119049800D01*
X141455700Y-118694200D01*
X141475700Y-118694200D01*
X141475700Y-117733850D01*
X141831300Y-117733850D01*
X141831300Y-118694200D01*
X142579150Y-118694200D01*
X142725200Y-118548150D01*
X142728027Y-118172000D01*
X142716747Y-118057477D01*
X142683342Y-117947354D01*
X142629095Y-117845865D01*
X142556091Y-117756909D01*
X142467135Y-117683905D01*
X142365646Y-117629658D01*
X142255523Y-117596253D01*
X142141000Y-117584973D01*
X141977350Y-117587800D01*
X141831300Y-117733850D01*
X141475700Y-117733850D01*
X141329650Y-117587800D01*
X141166000Y-117584973D01*
X141083401Y-117593109D01*
X141083401Y-114631559D01*
X141084874Y-114616601D01*
X141083401Y-114601643D01*
X141083401Y-114601635D01*
X141078990Y-114556850D01*
X141078298Y-114554567D01*
X141061561Y-114499395D01*
X141033259Y-114446444D01*
X140995169Y-114400033D01*
X140983545Y-114390493D01*
X140726111Y-114133060D01*
X140726107Y-114133055D01*
X140613509Y-114020457D01*
X140689072Y-113838032D01*
X140728600Y-113639308D01*
X140728600Y-113436692D01*
X140689072Y-113237968D01*
X140611534Y-113050775D01*
X140498966Y-112882306D01*
X140355694Y-112739034D01*
X140187225Y-112626466D01*
X140000032Y-112548928D01*
X139801308Y-112509400D01*
X139598692Y-112509400D01*
X139399968Y-112548928D01*
X139212775Y-112626466D01*
X139044306Y-112739034D01*
X138901034Y-112882306D01*
X138788466Y-113050775D01*
X138710928Y-113237968D01*
X138671400Y-113436692D01*
X138671400Y-113639308D01*
X138710928Y-113838032D01*
X138788466Y-114025225D01*
X138901034Y-114193694D01*
X139044306Y-114336966D01*
X139212775Y-114449534D01*
X139399968Y-114527072D01*
X139598692Y-114566600D01*
X139801308Y-114566600D01*
X140000032Y-114527072D01*
X140182457Y-114451509D01*
X140295055Y-114564107D01*
X140295060Y-114564111D01*
X140473802Y-114742854D01*
X140473802Y-114938115D01*
X140341939Y-114851646D01*
X140090355Y-114749974D01*
X139877800Y-114851309D01*
X139877800Y-115900200D01*
X140473802Y-115900200D01*
X140473802Y-116255800D01*
X139877800Y-116255800D01*
X139877800Y-117304691D01*
X140090355Y-117406026D01*
X140341939Y-117304354D01*
X140473802Y-117217885D01*
X140473801Y-118281163D01*
X140459666Y-118234566D01*
X140415914Y-118152712D01*
X140357034Y-118080966D01*
X140285288Y-118022086D01*
X140203434Y-117978334D01*
X140114617Y-117951391D01*
X140022250Y-117942294D01*
X139534750Y-117942294D01*
X139442383Y-117951391D01*
X139353566Y-117978334D01*
X139271712Y-118022086D01*
X139199966Y-118080966D01*
X139141086Y-118152712D01*
X139097334Y-118234566D01*
X139070391Y-118323383D01*
X139061294Y-118415750D01*
X139061294Y-119050391D01*
X138173827Y-119937859D01*
X138159290Y-119949789D01*
X138147362Y-119964324D01*
X138147361Y-119964325D01*
X138111678Y-120007804D01*
X138076299Y-120073993D01*
X138071080Y-120091200D01*
X138055471Y-120142658D01*
X138054514Y-120145812D01*
X138047157Y-120220500D01*
X137261200Y-120220500D01*
X137261200Y-116468354D01*
X138371982Y-116468354D01*
X138378917Y-116491244D01*
X138484921Y-116741034D01*
X138637620Y-116965344D01*
X138831146Y-117155554D01*
X139058061Y-117304354D01*
X139309645Y-117406026D01*
X139522200Y-117304691D01*
X139522200Y-116255800D01*
X138474683Y-116255800D01*
X138371982Y-116468354D01*
X137261200Y-116468354D01*
X137261200Y-115687646D01*
X138371982Y-115687646D01*
X138474683Y-115900200D01*
X139522200Y-115900200D01*
X139522200Y-114851309D01*
X139309645Y-114749974D01*
X139058061Y-114851646D01*
X138831146Y-115000446D01*
X138637620Y-115190656D01*
X138484921Y-115414966D01*
X138378917Y-115664756D01*
X138371982Y-115687646D01*
X137261200Y-115687646D01*
X137261200Y-110896692D01*
X138671400Y-110896692D01*
X138671400Y-111099308D01*
X138710928Y-111298032D01*
X138788466Y-111485225D01*
X138901034Y-111653694D01*
X139044306Y-111796966D01*
X139212775Y-111909534D01*
X139399968Y-111987072D01*
X139598692Y-112026600D01*
X139801308Y-112026600D01*
X140000032Y-111987072D01*
X140187225Y-111909534D01*
X140355694Y-111796966D01*
X140498966Y-111653694D01*
X140611534Y-111485225D01*
X140689072Y-111298032D01*
X140728600Y-111099308D01*
X140728600Y-110896692D01*
X140689072Y-110697968D01*
X140611534Y-110510775D01*
X140498966Y-110342306D01*
X140355694Y-110199034D01*
X140187225Y-110086466D01*
X140000032Y-110008928D01*
X139801308Y-109969400D01*
X139598692Y-109969400D01*
X139399968Y-110008928D01*
X139212775Y-110086466D01*
X139044306Y-110199034D01*
X138901034Y-110342306D01*
X138788466Y-110510775D01*
X138710928Y-110697968D01*
X138671400Y-110896692D01*
X137261200Y-110896692D01*
X137261200Y-109258000D01*
X138312973Y-109258000D01*
X138324253Y-109372523D01*
X138357658Y-109482646D01*
X138411905Y-109584135D01*
X138484909Y-109673091D01*
X138573865Y-109746095D01*
X138675354Y-109800342D01*
X138785477Y-109833747D01*
X138900000Y-109845027D01*
X139376150Y-109842200D01*
X139522200Y-109696150D01*
X139522200Y-108635800D01*
X139877800Y-108635800D01*
X139877800Y-109696150D01*
X140023850Y-109842200D01*
X140500000Y-109845027D01*
X140614523Y-109833747D01*
X140724646Y-109800342D01*
X140826135Y-109746095D01*
X140915091Y-109673091D01*
X140988095Y-109584135D01*
X141042342Y-109482646D01*
X141075747Y-109372523D01*
X141087027Y-109258000D01*
X141084200Y-108781850D01*
X140938150Y-108635800D01*
X139877800Y-108635800D01*
X139522200Y-108635800D01*
X138461850Y-108635800D01*
X138315800Y-108781850D01*
X138312973Y-109258000D01*
X137261200Y-109258000D01*
X137261200Y-107658000D01*
X138312973Y-107658000D01*
X138315800Y-108134150D01*
X138461850Y-108280200D01*
X139522200Y-108280200D01*
X139522200Y-107219850D01*
X139877800Y-107219850D01*
X139877800Y-108280200D01*
X140938150Y-108280200D01*
X141084200Y-108134150D01*
X141087027Y-107658000D01*
X141075747Y-107543477D01*
X141042342Y-107433354D01*
X140988095Y-107331865D01*
X140915091Y-107242909D01*
X140826135Y-107169905D01*
X140724646Y-107115658D01*
X140614523Y-107082253D01*
X140500000Y-107070973D01*
X140023850Y-107073800D01*
X139877800Y-107219850D01*
X139522200Y-107219850D01*
X139376150Y-107073800D01*
X138900000Y-107070973D01*
X138785477Y-107082253D01*
X138675354Y-107115658D01*
X138573865Y-107169905D01*
X138484909Y-107242909D01*
X138411905Y-107331865D01*
X138357658Y-107433354D01*
X138324253Y-107543477D01*
X138312973Y-107658000D01*
X137261200Y-107658000D01*
X137261200Y-105511200D01*
X149758801Y-105511200D01*
X149758800Y-126898800D01*
G36*
X146662966Y-119663034D02*
G01*
X146734712Y-119721914D01*
X146816566Y-119765666D01*
X146905383Y-119792609D01*
X146997750Y-119801706D01*
X147485250Y-119801706D01*
X147577617Y-119792609D01*
X147612663Y-119781978D01*
X148209000Y-120378315D01*
X148209000Y-120486814D01*
X148170000Y-120482973D01*
X147643850Y-120485800D01*
X147497800Y-120631850D01*
X147497800Y-121742200D01*
X147517800Y-121742200D01*
X147517800Y-122097800D01*
X147497800Y-122097800D01*
X147497800Y-123208150D01*
X147643850Y-123354200D01*
X148170000Y-123357027D01*
X148209001Y-123353186D01*
X148209001Y-123849055D01*
X148157803Y-123772433D01*
X148007567Y-123622197D01*
X147830909Y-123504157D01*
X147634616Y-123422850D01*
X147426233Y-123381400D01*
X147213767Y-123381400D01*
X147005384Y-123422850D01*
X146809091Y-123504157D01*
X146632433Y-123622197D01*
X146482197Y-123772433D01*
X146364157Y-123949091D01*
X146282850Y-124145384D01*
X146241400Y-124353767D01*
X146241400Y-124566233D01*
X146282850Y-124774616D01*
X146364157Y-124970909D01*
X146482197Y-125147567D01*
X146632433Y-125297803D01*
X146709054Y-125349000D01*
X145904548Y-125349000D01*
X146053641Y-125119385D01*
X146157808Y-124858240D01*
X146057093Y-124637800D01*
X144957800Y-124637800D01*
X144957800Y-124657800D01*
X144602200Y-124657800D01*
X144602200Y-124637800D01*
X143502907Y-124637800D01*
X143402192Y-124858240D01*
X143506359Y-125119385D01*
X143655452Y-125349000D01*
X142850946Y-125349000D01*
X142927567Y-125297803D01*
X143077803Y-125147567D01*
X143195843Y-124970909D01*
X143277150Y-124774616D01*
X143318600Y-124566233D01*
X143318600Y-124353767D01*
X143277150Y-124145384D01*
X143242512Y-124061760D01*
X143402192Y-124061760D01*
X143502907Y-124282200D01*
X144602200Y-124282200D01*
X144602200Y-123184180D01*
X144957800Y-123184180D01*
X144957800Y-124282200D01*
X146057093Y-124282200D01*
X146157808Y-124061760D01*
X146053641Y-123800615D01*
X145900529Y-123564810D01*
X145704355Y-123363406D01*
X145472659Y-123204144D01*
X145214344Y-123093144D01*
X145178239Y-123082199D01*
X144957800Y-123184180D01*
X144602200Y-123184180D01*
X144381761Y-123082199D01*
X144345656Y-123093144D01*
X144087341Y-123204144D01*
X143855645Y-123363406D01*
X143659471Y-123564810D01*
X143506359Y-123800615D01*
X143402192Y-124061760D01*
X143242512Y-124061760D01*
X143195843Y-123949091D01*
X143077803Y-123772433D01*
X142927567Y-123622197D01*
X142750909Y-123504157D01*
X142554616Y-123422850D01*
X142346233Y-123381400D01*
X142133767Y-123381400D01*
X141925384Y-123422850D01*
X141729091Y-123504157D01*
X141720769Y-123509718D01*
X141616113Y-123405062D01*
X141616109Y-123405057D01*
X141274800Y-123063749D01*
X141274800Y-122408319D01*
X141284157Y-122430909D01*
X141402197Y-122607567D01*
X141552433Y-122757803D01*
X141729091Y-122875843D01*
X141925384Y-122957150D01*
X142133767Y-122998600D01*
X142346233Y-122998600D01*
X142554616Y-122957150D01*
X142750909Y-122875843D01*
X142927567Y-122757803D01*
X143077803Y-122607567D01*
X143195843Y-122430909D01*
X143277150Y-122234616D01*
X143318600Y-122026233D01*
X143318600Y-121813767D01*
X143277150Y-121605384D01*
X143195843Y-121409091D01*
X143190283Y-121400769D01*
X143316107Y-121274945D01*
X143316111Y-121274940D01*
X143636252Y-120954800D01*
X144291681Y-120954800D01*
X144269091Y-120964157D01*
X144092433Y-121082197D01*
X143942197Y-121232433D01*
X143824157Y-121409091D01*
X143742850Y-121605384D01*
X143701400Y-121813767D01*
X143701400Y-122026233D01*
X143742850Y-122234616D01*
X143824157Y-122430909D01*
X143942197Y-122607567D01*
X144092433Y-122757803D01*
X144269091Y-122875843D01*
X144465384Y-122957150D01*
X144673767Y-122998600D01*
X144886233Y-122998600D01*
X145094616Y-122957150D01*
X145290909Y-122875843D01*
X145449313Y-122770000D01*
X145882973Y-122770000D01*
X145894253Y-122884523D01*
X145927658Y-122994646D01*
X145981905Y-123096135D01*
X146054909Y-123185091D01*
X146143865Y-123258095D01*
X146245354Y-123312342D01*
X146355477Y-123345747D01*
X146470000Y-123357027D01*
X146996150Y-123354200D01*
X147142200Y-123208150D01*
X147142200Y-122097800D01*
X146031850Y-122097800D01*
X145885800Y-122243850D01*
X145882973Y-122770000D01*
X145449313Y-122770000D01*
X145467567Y-122757803D01*
X145617803Y-122607567D01*
X145735843Y-122430909D01*
X145817150Y-122234616D01*
X145858600Y-122026233D01*
X145858600Y-121813767D01*
X145817150Y-121605384D01*
X145735843Y-121409091D01*
X145617803Y-121232433D01*
X145467567Y-121082197D01*
X145449314Y-121070000D01*
X145882973Y-121070000D01*
X145885800Y-121596150D01*
X146031850Y-121742200D01*
X147142200Y-121742200D01*
X147142200Y-120631850D01*
X146996150Y-120485800D01*
X146470000Y-120482973D01*
X146355477Y-120494253D01*
X146245354Y-120527658D01*
X146143865Y-120581905D01*
X146054909Y-120654909D01*
X145981905Y-120743865D01*
X145927658Y-120845354D01*
X145894253Y-120955477D01*
X145882973Y-121070000D01*
X145449314Y-121070000D01*
X145290909Y-120964157D01*
X145268319Y-120954800D01*
X145527042Y-120954800D01*
X145542000Y-120956273D01*
X145556958Y-120954800D01*
X145556966Y-120954800D01*
X145601751Y-120950389D01*
X145659206Y-120932960D01*
X145712157Y-120904658D01*
X145758568Y-120866568D01*
X145768112Y-120854939D01*
X146508944Y-120114108D01*
X146520568Y-120104568D01*
X146558658Y-120058157D01*
X146586960Y-120005206D01*
X146592455Y-119987091D01*
X146604389Y-119947752D01*
X146604897Y-119942597D01*
X146608800Y-119902966D01*
X146608800Y-119902958D01*
X146610273Y-119888000D01*
X146608800Y-119873042D01*
X146608800Y-119597032D01*
X146662966Y-119663034D01*
G37*
X146662966Y-119663034D02*
X146734712Y-119721914D01*
X146816566Y-119765666D01*
X146905383Y-119792609D01*
X146997750Y-119801706D01*
X147485250Y-119801706D01*
X147577617Y-119792609D01*
X147612663Y-119781978D01*
X148209000Y-120378315D01*
X148209000Y-120486814D01*
X148170000Y-120482973D01*
X147643850Y-120485800D01*
X147497800Y-120631850D01*
X147497800Y-121742200D01*
X147517800Y-121742200D01*
X147517800Y-122097800D01*
X147497800Y-122097800D01*
X147497800Y-123208150D01*
X147643850Y-123354200D01*
X148170000Y-123357027D01*
X148209001Y-123353186D01*
X148209001Y-123849055D01*
X148157803Y-123772433D01*
X148007567Y-123622197D01*
X147830909Y-123504157D01*
X147634616Y-123422850D01*
X147426233Y-123381400D01*
X147213767Y-123381400D01*
X147005384Y-123422850D01*
X146809091Y-123504157D01*
X146632433Y-123622197D01*
X146482197Y-123772433D01*
X146364157Y-123949091D01*
X146282850Y-124145384D01*
X146241400Y-124353767D01*
X146241400Y-124566233D01*
X146282850Y-124774616D01*
X146364157Y-124970909D01*
X146482197Y-125147567D01*
X146632433Y-125297803D01*
X146709054Y-125349000D01*
X145904548Y-125349000D01*
X146053641Y-125119385D01*
X146157808Y-124858240D01*
X146057093Y-124637800D01*
X144957800Y-124637800D01*
X144957800Y-124657800D01*
X144602200Y-124657800D01*
X144602200Y-124637800D01*
X143502907Y-124637800D01*
X143402192Y-124858240D01*
X143506359Y-125119385D01*
X143655452Y-125349000D01*
X142850946Y-125349000D01*
X142927567Y-125297803D01*
X143077803Y-125147567D01*
X143195843Y-124970909D01*
X143277150Y-124774616D01*
X143318600Y-124566233D01*
X143318600Y-124353767D01*
X143277150Y-124145384D01*
X143242512Y-124061760D01*
X143402192Y-124061760D01*
X143502907Y-124282200D01*
X144602200Y-124282200D01*
X144602200Y-123184180D01*
X144957800Y-123184180D01*
X144957800Y-124282200D01*
X146057093Y-124282200D01*
X146157808Y-124061760D01*
X146053641Y-123800615D01*
X145900529Y-123564810D01*
X145704355Y-123363406D01*
X145472659Y-123204144D01*
X145214344Y-123093144D01*
X145178239Y-123082199D01*
X144957800Y-123184180D01*
X144602200Y-123184180D01*
X144381761Y-123082199D01*
X144345656Y-123093144D01*
X144087341Y-123204144D01*
X143855645Y-123363406D01*
X143659471Y-123564810D01*
X143506359Y-123800615D01*
X143402192Y-124061760D01*
X143242512Y-124061760D01*
X143195843Y-123949091D01*
X143077803Y-123772433D01*
X142927567Y-123622197D01*
X142750909Y-123504157D01*
X142554616Y-123422850D01*
X142346233Y-123381400D01*
X142133767Y-123381400D01*
X141925384Y-123422850D01*
X141729091Y-123504157D01*
X141720769Y-123509718D01*
X141616113Y-123405062D01*
X141616109Y-123405057D01*
X141274800Y-123063749D01*
X141274800Y-122408319D01*
X141284157Y-122430909D01*
X141402197Y-122607567D01*
X141552433Y-122757803D01*
X141729091Y-122875843D01*
X141925384Y-122957150D01*
X142133767Y-122998600D01*
X142346233Y-122998600D01*
X142554616Y-122957150D01*
X142750909Y-122875843D01*
X142927567Y-122757803D01*
X143077803Y-122607567D01*
X143195843Y-122430909D01*
X143277150Y-122234616D01*
X143318600Y-122026233D01*
X143318600Y-121813767D01*
X143277150Y-121605384D01*
X143195843Y-121409091D01*
X143190283Y-121400769D01*
X143316107Y-121274945D01*
X143316111Y-121274940D01*
X143636252Y-120954800D01*
X144291681Y-120954800D01*
X144269091Y-120964157D01*
X144092433Y-121082197D01*
X143942197Y-121232433D01*
X143824157Y-121409091D01*
X143742850Y-121605384D01*
X143701400Y-121813767D01*
X143701400Y-122026233D01*
X143742850Y-122234616D01*
X143824157Y-122430909D01*
X143942197Y-122607567D01*
X144092433Y-122757803D01*
X144269091Y-122875843D01*
X144465384Y-122957150D01*
X144673767Y-122998600D01*
X144886233Y-122998600D01*
X145094616Y-122957150D01*
X145290909Y-122875843D01*
X145449313Y-122770000D01*
X145882973Y-122770000D01*
X145894253Y-122884523D01*
X145927658Y-122994646D01*
X145981905Y-123096135D01*
X146054909Y-123185091D01*
X146143865Y-123258095D01*
X146245354Y-123312342D01*
X146355477Y-123345747D01*
X146470000Y-123357027D01*
X146996150Y-123354200D01*
X147142200Y-123208150D01*
X147142200Y-122097800D01*
X146031850Y-122097800D01*
X145885800Y-122243850D01*
X145882973Y-122770000D01*
X145449313Y-122770000D01*
X145467567Y-122757803D01*
X145617803Y-122607567D01*
X145735843Y-122430909D01*
X145817150Y-122234616D01*
X145858600Y-122026233D01*
X145858600Y-121813767D01*
X145817150Y-121605384D01*
X145735843Y-121409091D01*
X145617803Y-121232433D01*
X145467567Y-121082197D01*
X145449314Y-121070000D01*
X145882973Y-121070000D01*
X145885800Y-121596150D01*
X146031850Y-121742200D01*
X147142200Y-121742200D01*
X147142200Y-120631850D01*
X146996150Y-120485800D01*
X146470000Y-120482973D01*
X146355477Y-120494253D01*
X146245354Y-120527658D01*
X146143865Y-120581905D01*
X146054909Y-120654909D01*
X145981905Y-120743865D01*
X145927658Y-120845354D01*
X145894253Y-120955477D01*
X145882973Y-121070000D01*
X145449314Y-121070000D01*
X145290909Y-120964157D01*
X145268319Y-120954800D01*
X145527042Y-120954800D01*
X145542000Y-120956273D01*
X145556958Y-120954800D01*
X145556966Y-120954800D01*
X145601751Y-120950389D01*
X145659206Y-120932960D01*
X145712157Y-120904658D01*
X145758568Y-120866568D01*
X145768112Y-120854939D01*
X146508944Y-120114108D01*
X146520568Y-120104568D01*
X146558658Y-120058157D01*
X146586960Y-120005206D01*
X146592455Y-119987091D01*
X146604389Y-119947752D01*
X146604897Y-119942597D01*
X146608800Y-119902966D01*
X146608800Y-119902958D01*
X146610273Y-119888000D01*
X146608800Y-119873042D01*
X146608800Y-119597032D01*
X146662966Y-119663034D01*
G36*
X148209000Y-115557051D02*
G01*
X148118966Y-115422306D01*
X147975694Y-115279034D01*
X147807225Y-115166466D01*
X147620032Y-115088928D01*
X147421308Y-115049400D01*
X147218692Y-115049400D01*
X147019968Y-115088928D01*
X146832775Y-115166466D01*
X146664306Y-115279034D01*
X146521034Y-115422306D01*
X146408466Y-115590775D01*
X146330928Y-115777968D01*
X146291400Y-115976692D01*
X146291400Y-116179308D01*
X146330928Y-116378032D01*
X146406491Y-116560457D01*
X146099061Y-116867888D01*
X146087432Y-116877432D01*
X146049342Y-116923844D01*
X146021040Y-116976795D01*
X146003611Y-117034250D01*
X145999200Y-117079035D01*
X145999200Y-117079042D01*
X145997727Y-117094000D01*
X145999200Y-117108958D01*
X145999200Y-117605559D01*
X145968523Y-117596253D01*
X145854000Y-117584973D01*
X145690350Y-117587800D01*
X145544300Y-117733850D01*
X145544300Y-118694200D01*
X145564300Y-118694200D01*
X145564300Y-119049800D01*
X145544300Y-119049800D01*
X145544300Y-120010150D01*
X145647549Y-120113399D01*
X145415749Y-120345200D01*
X143524957Y-120345200D01*
X143509999Y-120343727D01*
X143495041Y-120345200D01*
X143495034Y-120345200D01*
X143482630Y-120346422D01*
X143714944Y-120114108D01*
X143726568Y-120104568D01*
X143764658Y-120058157D01*
X143792960Y-120005206D01*
X143798455Y-119987091D01*
X143810389Y-119947752D01*
X143810897Y-119942597D01*
X143814800Y-119902966D01*
X143814800Y-119902958D01*
X143816273Y-119888000D01*
X143814800Y-119873042D01*
X143814800Y-119572000D01*
X144291973Y-119572000D01*
X144303253Y-119686523D01*
X144336658Y-119796646D01*
X144390905Y-119898135D01*
X144463909Y-119987091D01*
X144552865Y-120060095D01*
X144654354Y-120114342D01*
X144764477Y-120147747D01*
X144879000Y-120159027D01*
X145042650Y-120156200D01*
X145188700Y-120010150D01*
X145188700Y-119049800D01*
X144440850Y-119049800D01*
X144294800Y-119195850D01*
X144291973Y-119572000D01*
X143814800Y-119572000D01*
X143814800Y-118172000D01*
X144291973Y-118172000D01*
X144294800Y-118548150D01*
X144440850Y-118694200D01*
X145188700Y-118694200D01*
X145188700Y-117733850D01*
X145042650Y-117587800D01*
X144879000Y-117584973D01*
X144764477Y-117596253D01*
X144654354Y-117629658D01*
X144552865Y-117683905D01*
X144463909Y-117756909D01*
X144390905Y-117845865D01*
X144336658Y-117947354D01*
X144303253Y-118057477D01*
X144291973Y-118172000D01*
X143814800Y-118172000D01*
X143814800Y-117474251D01*
X146837543Y-114451509D01*
X147019968Y-114527072D01*
X147218692Y-114566600D01*
X147421308Y-114566600D01*
X147620032Y-114527072D01*
X147807225Y-114449534D01*
X147975694Y-114336966D01*
X148118966Y-114193694D01*
X148209000Y-114058949D01*
X148209000Y-115557051D01*
G37*
X148209000Y-115557051D02*
X148118966Y-115422306D01*
X147975694Y-115279034D01*
X147807225Y-115166466D01*
X147620032Y-115088928D01*
X147421308Y-115049400D01*
X147218692Y-115049400D01*
X147019968Y-115088928D01*
X146832775Y-115166466D01*
X146664306Y-115279034D01*
X146521034Y-115422306D01*
X146408466Y-115590775D01*
X146330928Y-115777968D01*
X146291400Y-115976692D01*
X146291400Y-116179308D01*
X146330928Y-116378032D01*
X146406491Y-116560457D01*
X146099061Y-116867888D01*
X146087432Y-116877432D01*
X146049342Y-116923844D01*
X146021040Y-116976795D01*
X146003611Y-117034250D01*
X145999200Y-117079035D01*
X145999200Y-117079042D01*
X145997727Y-117094000D01*
X145999200Y-117108958D01*
X145999200Y-117605559D01*
X145968523Y-117596253D01*
X145854000Y-117584973D01*
X145690350Y-117587800D01*
X145544300Y-117733850D01*
X145544300Y-118694200D01*
X145564300Y-118694200D01*
X145564300Y-119049800D01*
X145544300Y-119049800D01*
X145544300Y-120010150D01*
X145647549Y-120113399D01*
X145415749Y-120345200D01*
X143524957Y-120345200D01*
X143509999Y-120343727D01*
X143495041Y-120345200D01*
X143495034Y-120345200D01*
X143482630Y-120346422D01*
X143714944Y-120114108D01*
X143726568Y-120104568D01*
X143764658Y-120058157D01*
X143792960Y-120005206D01*
X143798455Y-119987091D01*
X143810389Y-119947752D01*
X143810897Y-119942597D01*
X143814800Y-119902966D01*
X143814800Y-119902958D01*
X143816273Y-119888000D01*
X143814800Y-119873042D01*
X143814800Y-119572000D01*
X144291973Y-119572000D01*
X144303253Y-119686523D01*
X144336658Y-119796646D01*
X144390905Y-119898135D01*
X144463909Y-119987091D01*
X144552865Y-120060095D01*
X144654354Y-120114342D01*
X144764477Y-120147747D01*
X144879000Y-120159027D01*
X145042650Y-120156200D01*
X145188700Y-120010150D01*
X145188700Y-119049800D01*
X144440850Y-119049800D01*
X144294800Y-119195850D01*
X144291973Y-119572000D01*
X143814800Y-119572000D01*
X143814800Y-118172000D01*
X144291973Y-118172000D01*
X144294800Y-118548150D01*
X144440850Y-118694200D01*
X145188700Y-118694200D01*
X145188700Y-117733850D01*
X145042650Y-117587800D01*
X144879000Y-117584973D01*
X144764477Y-117596253D01*
X144654354Y-117629658D01*
X144552865Y-117683905D01*
X144463909Y-117756909D01*
X144390905Y-117845865D01*
X144336658Y-117947354D01*
X144303253Y-118057477D01*
X144291973Y-118172000D01*
X143814800Y-118172000D01*
X143814800Y-117474251D01*
X146837543Y-114451509D01*
X147019968Y-114527072D01*
X147218692Y-114566600D01*
X147421308Y-114566600D01*
X147620032Y-114527072D01*
X147807225Y-114449534D01*
X147975694Y-114336966D01*
X148118966Y-114193694D01*
X148209000Y-114058949D01*
X148209000Y-115557051D01*
M02*
