M48
; DRILL file {KiCad (5.1.5-0-10_14)} date Tuesday, May 05, 2020 at 07:19:44 PM
; FORMAT={-:-/ absolute / inch / decimal}
; #@! TF.CreationDate,2020-05-05T19:19:44-07:00
; #@! TF.GenerationSoftware,Kicad,Pcbnew,(5.1.5-0-10_14)
; #@! TF.FileFunction,Plated,1,2,PTH
FMAT,2
INCH
T1C0.0118
T2C0.0394
T3C0.0400
T4C0.1260
%
G90
G05
T1
X2.4921Y-4.0748
X2.5866Y-4.1142
X2.626Y-4.0276
X2.9409Y-4.0748
X3.0276Y-4.0394
X3.2874Y-4.1457
X3.3465Y-4.135
X3.6181Y-3.9646
X3.685Y-3.9488
X3.9134Y-4.0236
X3.9528Y-4.0169
X4.0866Y-4.7717
X4.2165Y-3.9685
X4.2441Y-4.7717
X4.2756Y-3.9961
X4.3268Y-4.0079
X4.3425Y-4.7717
X4.3504Y-4.1969
X4.3543Y-3.9409
X4.378Y-4.0276
X4.4724Y-4.7913
X4.4764Y-4.0315
X4.5276Y-4.0551
X4.55Y-3.985
X4.5512Y-4.1969
X4.5512Y-4.685
X4.5669Y-4.7913
X4.5748Y-4.0748
X4.5984Y-4.6693
X4.6024Y-4.7402
X4.6024Y-4.7795
X4.626Y-4.1024
X4.6457Y-4.752
X4.6772Y-4.1299
X4.7008Y-4.685
X4.7008Y-4.7795
X4.7244Y-3.7323
X4.7992Y-4.7677
X4.975Y-4.68
X4.9764Y-4.7953
X5.0315Y-4.7047
X5.0787Y-4.7913
X5.1693Y-4.7795
X5.1756Y-4.1094
X5.2Y-4.03
X5.225Y-3.925
X5.2559Y-4.7008
X5.2756Y-4.1344
X5.3268Y-3.9232
X5.35Y-4.05
X5.3504Y-4.6614
X5.3622Y-4.7717
X5.3756Y-4.1594
X5.4016Y-4.4606
X5.425Y-3.925
X5.4488Y-4.6969
X5.4606Y-4.7835
X5.4756Y-4.1994
X5.5Y-4.055
X5.5039Y-4.6969
X5.525Y-3.925
X5.5591Y-4.7835
X5.5756Y-4.0144
X5.62Y-4.78
X5.626Y-4.0394
X5.748Y-4.7835
X5.7756Y-4.0602
X5.8031Y-4.685
X5.8267Y-4.0833
X5.85Y-4.22
X5.8504Y-4.4646
X5.8543Y-4.7677
X5.8756Y-4.0886
X5.9134Y-4.7717
X5.9252Y-3.9898
X5.9528Y-4.6654
X5.9756Y-4.1144
X6.0Y-4.215
X6.0Y-4.4606
X6.0236Y-3.9664
X6.0433Y-4.7953
X6.0756Y-4.1342
X6.1024Y-4.6772
X6.126Y-3.9452
X6.1417Y-4.7953
X6.1535Y-4.6496
X6.1756Y-4.1692
X6.2Y-4.215
X6.225Y-3.9
X6.2402Y-4.7953
X6.311Y-4.7835
X6.3661Y-4.7835
T2
X2.3543Y-3.7701
X2.3543Y-3.8701
X2.4543Y-3.7701
X2.4543Y-3.8701
X2.5543Y-3.7701
X2.5543Y-3.8701
X2.6543Y-3.7701
X2.6543Y-3.8701
X2.9961Y-3.7701
X2.9961Y-3.8701
X3.0961Y-3.7701
X3.0961Y-3.8701
X3.1961Y-3.7701
X3.1961Y-3.8701
X3.2961Y-3.7701
X3.2961Y-3.8701
X6.5157Y-3.7701
X6.5157Y-3.8701
X6.6157Y-3.7701
X6.6157Y-3.8701
X6.7157Y-3.7701
X6.7157Y-3.8701
X6.8157Y-3.7701
X6.8157Y-3.8701
X6.9157Y-3.7701
X6.9157Y-3.8701
X7.0157Y-3.7701
X7.0157Y-3.8701
X7.1157Y-3.7701
X7.1157Y-3.8701
X7.2157Y-3.7701
X7.2157Y-3.8701
X7.3157Y-3.7701
X7.3157Y-3.8701
X7.4157Y-3.7701
X7.4157Y-3.8701
X7.5157Y-3.7701
X7.5157Y-3.8701
X3.6339Y-3.7701
X3.6339Y-3.8701
X3.7339Y-3.7701
X3.7339Y-3.8701
X3.8339Y-3.7701
X3.8339Y-3.8701
X3.9339Y-3.7701
X3.9339Y-3.8701
X4.2756Y-3.7701
X4.2756Y-3.8701
X4.3756Y-3.7701
X4.3756Y-3.8701
X4.4756Y-3.7701
X4.4756Y-3.8701
X4.5756Y-3.7701
X4.5756Y-3.8701
X4.6756Y-3.7701
X4.6756Y-3.8701
X4.7756Y-3.7701
X4.7756Y-3.8701
X4.8756Y-3.7701
X4.8756Y-3.8701
X4.9756Y-3.7701
X4.9756Y-3.8701
X5.0756Y-3.7701
X5.0756Y-3.8701
X5.1756Y-3.7701
X5.1756Y-3.8701
X5.2756Y-3.7701
X5.2756Y-3.8701
X5.3756Y-3.7701
X5.3756Y-3.8701
X5.4756Y-3.7701
X5.4756Y-3.8701
X5.5756Y-3.7701
X5.5756Y-3.8701
X5.6756Y-3.7701
X5.6756Y-3.8701
X5.7756Y-3.7701
X5.7756Y-3.8701
X5.8756Y-3.7701
X5.8756Y-3.8701
X5.9756Y-3.7701
X5.9756Y-3.8701
X6.0756Y-3.7701
X6.0756Y-3.8701
X6.1756Y-3.7701
X6.1756Y-3.8701
T3
X4.2756Y-4.2717
X4.2756Y-4.3717
X4.3756Y-4.2717
X4.3756Y-4.3717
X4.4756Y-4.2717
X4.4756Y-4.3717
X4.5756Y-4.2717
X4.5756Y-4.3717
X4.6756Y-4.2717
X4.6756Y-4.3717
X4.7756Y-4.2717
X4.7756Y-4.3717
X4.8756Y-4.2717
X4.8756Y-4.3717
X4.9756Y-4.2717
X4.9756Y-4.3717
X5.0756Y-4.2717
X5.0756Y-4.3717
X5.1756Y-4.2717
X5.1756Y-4.3717
X5.2756Y-4.2717
X5.2756Y-4.3717
X5.3756Y-4.2717
X5.3756Y-4.3717
X5.4756Y-4.2717
X5.4756Y-4.3717
X5.5756Y-4.2717
X5.5756Y-4.3717
X5.6756Y-4.2717
X5.6756Y-4.3717
X5.7756Y-4.2717
X5.7756Y-4.3717
X5.8756Y-4.2717
X5.8756Y-4.3717
X5.9756Y-4.2717
X5.9756Y-4.3717
X6.0756Y-4.2717
X6.0756Y-4.3717
X6.1756Y-4.2717
X6.1756Y-4.3717
T4
X6.8012Y-4.4094
X3.6516Y-4.4094
T0
M30
