G04 #@! TF.GenerationSoftware,KiCad,Pcbnew,(5.1.5-0-10_14)*
G04 #@! TF.CreationDate,2020-05-05T19:19:41-07:00*
G04 #@! TF.ProjectId,N64 Cart IDC Breakout,4e363420-4361-4727-9420-494443204272,rev?*
G04 #@! TF.SameCoordinates,Original*
G04 #@! TF.FileFunction,Legend,Bot*
G04 #@! TF.FilePolarity,Positive*
%FSLAX46Y46*%
G04 Gerber Fmt 4.6, Leading zero omitted, Abs format (unit mm)*
G04 Created by KiCad (PCBNEW (5.1.5-0-10_14)) date 2020-05-05 19:19:41*
%MOMM*%
%LPD*%
G04 APERTURE LIST*
%ADD10C,0.120000*%
%ADD11C,0.150000*%
%ADD12C,0.075000*%
G04 APERTURE END LIST*
D10*
X58470000Y-98300000D02*
X58470000Y-99410000D01*
X58470000Y-99410000D02*
X59800000Y-99410000D01*
X58470000Y-94300000D02*
X68750000Y-94300000D01*
X67780000Y-96810000D02*
X67780000Y-97250000D01*
X67780000Y-94300000D02*
X67780000Y-94710000D01*
X67060000Y-96810000D02*
X67060000Y-97250000D01*
X67060000Y-94300000D02*
X67060000Y-94710000D01*
X65240000Y-96810000D02*
X65240000Y-97250000D01*
X65240000Y-94300000D02*
X65240000Y-94710000D01*
X64520000Y-96810000D02*
X64520000Y-97250000D01*
X64520000Y-94300000D02*
X64520000Y-94710000D01*
X62700000Y-96810000D02*
X62700000Y-97250000D01*
X62700000Y-94300000D02*
X62700000Y-94710000D01*
X61980000Y-96810000D02*
X61980000Y-97250000D01*
X61980000Y-94300000D02*
X61980000Y-94710000D01*
X60160000Y-96810000D02*
X60160000Y-97190000D01*
X60160000Y-94300000D02*
X60160000Y-94710000D01*
X59440000Y-96810000D02*
X59440000Y-97190000D01*
X59440000Y-94300000D02*
X59440000Y-94710000D01*
X90970000Y-98300000D02*
X90970000Y-99410000D01*
X90970000Y-99410000D02*
X92300000Y-99410000D01*
X90970000Y-94300000D02*
X101250000Y-94300000D01*
X100280000Y-96810000D02*
X100280000Y-97250000D01*
X100280000Y-94300000D02*
X100280000Y-94710000D01*
X99560000Y-96810000D02*
X99560000Y-97250000D01*
X99560000Y-94300000D02*
X99560000Y-94710000D01*
X97740000Y-96810000D02*
X97740000Y-97250000D01*
X97740000Y-94300000D02*
X97740000Y-94710000D01*
X97020000Y-96810000D02*
X97020000Y-97250000D01*
X97020000Y-94300000D02*
X97020000Y-94710000D01*
X95200000Y-96810000D02*
X95200000Y-97250000D01*
X95200000Y-94300000D02*
X95200000Y-94710000D01*
X94480000Y-96810000D02*
X94480000Y-97250000D01*
X94480000Y-94300000D02*
X94480000Y-94710000D01*
X92660000Y-96810000D02*
X92660000Y-97190000D01*
X92660000Y-94300000D02*
X92660000Y-94710000D01*
X91940000Y-96810000D02*
X91940000Y-97190000D01*
X91940000Y-94300000D02*
X91940000Y-94710000D01*
X74770000Y-98300000D02*
X74770000Y-99410000D01*
X74770000Y-99410000D02*
X76100000Y-99410000D01*
X74770000Y-94300000D02*
X85050000Y-94300000D01*
X84080000Y-96810000D02*
X84080000Y-97250000D01*
X84080000Y-94300000D02*
X84080000Y-94710000D01*
X83360000Y-96810000D02*
X83360000Y-97250000D01*
X83360000Y-94300000D02*
X83360000Y-94710000D01*
X81540000Y-96810000D02*
X81540000Y-97250000D01*
X81540000Y-94300000D02*
X81540000Y-94710000D01*
X80820000Y-96810000D02*
X80820000Y-97250000D01*
X80820000Y-94300000D02*
X80820000Y-94710000D01*
X79000000Y-96810000D02*
X79000000Y-97250000D01*
X79000000Y-94300000D02*
X79000000Y-94710000D01*
X78280000Y-96810000D02*
X78280000Y-97250000D01*
X78280000Y-94300000D02*
X78280000Y-94710000D01*
X76460000Y-96810000D02*
X76460000Y-97190000D01*
X76460000Y-94300000D02*
X76460000Y-94710000D01*
X75740000Y-96810000D02*
X75740000Y-97190000D01*
X75740000Y-94300000D02*
X75740000Y-94710000D01*
X164170000Y-98300000D02*
X164170000Y-99410000D01*
X164170000Y-99410000D02*
X165500000Y-99410000D01*
X164170000Y-94300000D02*
X192230000Y-94300000D01*
X191260000Y-96810000D02*
X191260000Y-97250000D01*
X191260000Y-94300000D02*
X191260000Y-94710000D01*
X190540000Y-96810000D02*
X190540000Y-97250000D01*
X190540000Y-94300000D02*
X190540000Y-94710000D01*
X188720000Y-96810000D02*
X188720000Y-97250000D01*
X188720000Y-94300000D02*
X188720000Y-94710000D01*
X188000000Y-96810000D02*
X188000000Y-97250000D01*
X188000000Y-94300000D02*
X188000000Y-94710000D01*
X186180000Y-96810000D02*
X186180000Y-97250000D01*
X186180000Y-94300000D02*
X186180000Y-94710000D01*
X185460000Y-96810000D02*
X185460000Y-97250000D01*
X185460000Y-94300000D02*
X185460000Y-94710000D01*
X183640000Y-96810000D02*
X183640000Y-97250000D01*
X183640000Y-94300000D02*
X183640000Y-94710000D01*
X182920000Y-96810000D02*
X182920000Y-97250000D01*
X182920000Y-94300000D02*
X182920000Y-94710000D01*
X181100000Y-96810000D02*
X181100000Y-97250000D01*
X181100000Y-94300000D02*
X181100000Y-94710000D01*
X180380000Y-96810000D02*
X180380000Y-97250000D01*
X180380000Y-94300000D02*
X180380000Y-94710000D01*
X178560000Y-96810000D02*
X178560000Y-97250000D01*
X178560000Y-94300000D02*
X178560000Y-94710000D01*
X177840000Y-96810000D02*
X177840000Y-97250000D01*
X177840000Y-94300000D02*
X177840000Y-94710000D01*
X176020000Y-96810000D02*
X176020000Y-97250000D01*
X176020000Y-94300000D02*
X176020000Y-94710000D01*
X175300000Y-96810000D02*
X175300000Y-97250000D01*
X175300000Y-94300000D02*
X175300000Y-94710000D01*
X173480000Y-96810000D02*
X173480000Y-97250000D01*
X173480000Y-94300000D02*
X173480000Y-94710000D01*
X172760000Y-96810000D02*
X172760000Y-97250000D01*
X172760000Y-94300000D02*
X172760000Y-94710000D01*
X170940000Y-96810000D02*
X170940000Y-97250000D01*
X170940000Y-94300000D02*
X170940000Y-94710000D01*
X170220000Y-96810000D02*
X170220000Y-97250000D01*
X170220000Y-94300000D02*
X170220000Y-94710000D01*
X168400000Y-96810000D02*
X168400000Y-97250000D01*
X168400000Y-94300000D02*
X168400000Y-94710000D01*
X167680000Y-96810000D02*
X167680000Y-97250000D01*
X167680000Y-94300000D02*
X167680000Y-94710000D01*
X165860000Y-96810000D02*
X165860000Y-97190000D01*
X165860000Y-94300000D02*
X165860000Y-94710000D01*
X165140000Y-96810000D02*
X165140000Y-97190000D01*
X165140000Y-94300000D02*
X165140000Y-94710000D01*
X107270000Y-98300000D02*
X107270000Y-99410000D01*
X107270000Y-99410000D02*
X108600000Y-99410000D01*
X107270000Y-94300000D02*
X158190000Y-94300000D01*
X157220000Y-96810000D02*
X157220000Y-97250000D01*
X157220000Y-94300000D02*
X157220000Y-94710000D01*
X156500000Y-96810000D02*
X156500000Y-97250000D01*
X156500000Y-94300000D02*
X156500000Y-94710000D01*
X154680000Y-96810000D02*
X154680000Y-97250000D01*
X154680000Y-94300000D02*
X154680000Y-94710000D01*
X153960000Y-96810000D02*
X153960000Y-97250000D01*
X153960000Y-94300000D02*
X153960000Y-94710000D01*
X152140000Y-96810000D02*
X152140000Y-97250000D01*
X152140000Y-94300000D02*
X152140000Y-94710000D01*
X151420000Y-96810000D02*
X151420000Y-97250000D01*
X151420000Y-94300000D02*
X151420000Y-94710000D01*
X149600000Y-96810000D02*
X149600000Y-97250000D01*
X149600000Y-94300000D02*
X149600000Y-94710000D01*
X148880000Y-96810000D02*
X148880000Y-97250000D01*
X148880000Y-94300000D02*
X148880000Y-94710000D01*
X147060000Y-96810000D02*
X147060000Y-97250000D01*
X147060000Y-94300000D02*
X147060000Y-94710000D01*
X146340000Y-96810000D02*
X146340000Y-97250000D01*
X146340000Y-94300000D02*
X146340000Y-94710000D01*
X144520000Y-96810000D02*
X144520000Y-97250000D01*
X144520000Y-94300000D02*
X144520000Y-94710000D01*
X143800000Y-96810000D02*
X143800000Y-97250000D01*
X143800000Y-94300000D02*
X143800000Y-94710000D01*
X141980000Y-96810000D02*
X141980000Y-97250000D01*
X141980000Y-94300000D02*
X141980000Y-94710000D01*
X141260000Y-96810000D02*
X141260000Y-97250000D01*
X141260000Y-94300000D02*
X141260000Y-94710000D01*
X139440000Y-96810000D02*
X139440000Y-97250000D01*
X139440000Y-94300000D02*
X139440000Y-94710000D01*
X138720000Y-96810000D02*
X138720000Y-97250000D01*
X138720000Y-94300000D02*
X138720000Y-94710000D01*
X136900000Y-96810000D02*
X136900000Y-97250000D01*
X136900000Y-94300000D02*
X136900000Y-94710000D01*
X136180000Y-96810000D02*
X136180000Y-97250000D01*
X136180000Y-94300000D02*
X136180000Y-94710000D01*
X134360000Y-96810000D02*
X134360000Y-97250000D01*
X134360000Y-94300000D02*
X134360000Y-94710000D01*
X133640000Y-96810000D02*
X133640000Y-97250000D01*
X133640000Y-94300000D02*
X133640000Y-94710000D01*
X131820000Y-96810000D02*
X131820000Y-97250000D01*
X131820000Y-94300000D02*
X131820000Y-94710000D01*
X131100000Y-96810000D02*
X131100000Y-97250000D01*
X131100000Y-94300000D02*
X131100000Y-94710000D01*
X129280000Y-96810000D02*
X129280000Y-97250000D01*
X129280000Y-94300000D02*
X129280000Y-94710000D01*
X128560000Y-96810000D02*
X128560000Y-97250000D01*
X128560000Y-94300000D02*
X128560000Y-94710000D01*
X126740000Y-96810000D02*
X126740000Y-97250000D01*
X126740000Y-94300000D02*
X126740000Y-94710000D01*
X126020000Y-96810000D02*
X126020000Y-97250000D01*
X126020000Y-94300000D02*
X126020000Y-94710000D01*
X124200000Y-96810000D02*
X124200000Y-97250000D01*
X124200000Y-94300000D02*
X124200000Y-94710000D01*
X123480000Y-96810000D02*
X123480000Y-97250000D01*
X123480000Y-94300000D02*
X123480000Y-94710000D01*
X121660000Y-96810000D02*
X121660000Y-97250000D01*
X121660000Y-94300000D02*
X121660000Y-94710000D01*
X120940000Y-96810000D02*
X120940000Y-97250000D01*
X120940000Y-94300000D02*
X120940000Y-94710000D01*
X119120000Y-96810000D02*
X119120000Y-97250000D01*
X119120000Y-94300000D02*
X119120000Y-94710000D01*
X118400000Y-96810000D02*
X118400000Y-97250000D01*
X118400000Y-94300000D02*
X118400000Y-94710000D01*
X116580000Y-96810000D02*
X116580000Y-97250000D01*
X116580000Y-94300000D02*
X116580000Y-94710000D01*
X115860000Y-96810000D02*
X115860000Y-97250000D01*
X115860000Y-94300000D02*
X115860000Y-94710000D01*
X114040000Y-96810000D02*
X114040000Y-97250000D01*
X114040000Y-94300000D02*
X114040000Y-94710000D01*
X113320000Y-96810000D02*
X113320000Y-97250000D01*
X113320000Y-94300000D02*
X113320000Y-94710000D01*
X111500000Y-96810000D02*
X111500000Y-97250000D01*
X111500000Y-94300000D02*
X111500000Y-94710000D01*
X110780000Y-96810000D02*
X110780000Y-97250000D01*
X110780000Y-94300000D02*
X110780000Y-94710000D01*
X108960000Y-96810000D02*
X108960000Y-97190000D01*
X108960000Y-94300000D02*
X108960000Y-94710000D01*
X108240000Y-96810000D02*
X108240000Y-97190000D01*
X108240000Y-94300000D02*
X108240000Y-94710000D01*
X103000000Y-104845000D02*
X103000000Y-107385000D01*
X103000000Y-104845000D02*
X105540000Y-104845000D01*
X103250000Y-105095000D02*
X103250000Y-114445000D01*
X162210000Y-105095000D02*
X103250000Y-105095000D01*
X162210000Y-114445000D02*
X162210000Y-105095000D01*
X103250000Y-114445000D02*
X162210000Y-114445000D01*
D11*
X162535714Y-121739285D02*
X162964285Y-121739285D01*
X162750000Y-121739285D02*
X162750000Y-120989285D01*
X162821428Y-121096428D01*
X162892857Y-121167857D01*
X162964285Y-121203571D01*
X103321428Y-121060714D02*
X103285714Y-121025000D01*
X103214285Y-120989285D01*
X103035714Y-120989285D01*
X102964285Y-121025000D01*
X102928571Y-121060714D01*
X102892857Y-121132142D01*
X102892857Y-121203571D01*
X102928571Y-121310714D01*
X103357142Y-121739285D01*
X102892857Y-121739285D01*
X102214285Y-120989285D02*
X102571428Y-120989285D01*
X102607142Y-121346428D01*
X102571428Y-121310714D01*
X102500000Y-121275000D01*
X102321428Y-121275000D01*
X102250000Y-121310714D01*
X102214285Y-121346428D01*
X102178571Y-121417857D01*
X102178571Y-121596428D01*
X102214285Y-121667857D01*
X102250000Y-121703571D01*
X102321428Y-121739285D01*
X102500000Y-121739285D01*
X102571428Y-121703571D01*
X102607142Y-121667857D01*
D12*
X157833333Y-120165535D02*
X157833333Y-120403630D01*
X157976190Y-120117916D02*
X157476190Y-120284583D01*
X157976190Y-120451250D01*
X157976190Y-120617916D02*
X157476190Y-120617916D01*
X157476190Y-120736964D01*
X157500000Y-120808392D01*
X157547619Y-120856011D01*
X157595238Y-120879821D01*
X157690476Y-120903630D01*
X157761904Y-120903630D01*
X157857142Y-120879821D01*
X157904761Y-120856011D01*
X157952380Y-120808392D01*
X157976190Y-120736964D01*
X157976190Y-120617916D01*
X157976190Y-121379821D02*
X157976190Y-121094107D01*
X157976190Y-121236964D02*
X157476190Y-121236964D01*
X157547619Y-121189345D01*
X157595238Y-121141726D01*
X157619047Y-121094107D01*
X157476190Y-121832202D02*
X157476190Y-121594107D01*
X157714285Y-121570297D01*
X157690476Y-121594107D01*
X157666666Y-121641726D01*
X157666666Y-121760773D01*
X157690476Y-121808392D01*
X157714285Y-121832202D01*
X157761904Y-121856011D01*
X157880952Y-121856011D01*
X157928571Y-121832202D01*
X157952380Y-121808392D01*
X157976190Y-121760773D01*
X157976190Y-121641726D01*
X157952380Y-121594107D01*
X157928571Y-121570297D01*
X155333333Y-120165535D02*
X155333333Y-120403630D01*
X155476190Y-120117916D02*
X154976190Y-120284583D01*
X155476190Y-120451250D01*
X155476190Y-120617916D02*
X154976190Y-120617916D01*
X154976190Y-120736964D01*
X155000000Y-120808392D01*
X155047619Y-120856011D01*
X155095238Y-120879821D01*
X155190476Y-120903630D01*
X155261904Y-120903630D01*
X155357142Y-120879821D01*
X155404761Y-120856011D01*
X155452380Y-120808392D01*
X155476190Y-120736964D01*
X155476190Y-120617916D01*
X155476190Y-121379821D02*
X155476190Y-121094107D01*
X155476190Y-121236964D02*
X154976190Y-121236964D01*
X155047619Y-121189345D01*
X155095238Y-121141726D01*
X155119047Y-121094107D01*
X155142857Y-121808392D02*
X155476190Y-121808392D01*
X154952380Y-121689345D02*
X155309523Y-121570297D01*
X155309523Y-121879821D01*
X152833333Y-120165535D02*
X152833333Y-120403630D01*
X152976190Y-120117916D02*
X152476190Y-120284583D01*
X152976190Y-120451250D01*
X152976190Y-120617916D02*
X152476190Y-120617916D01*
X152476190Y-120736964D01*
X152500000Y-120808392D01*
X152547619Y-120856011D01*
X152595238Y-120879821D01*
X152690476Y-120903630D01*
X152761904Y-120903630D01*
X152857142Y-120879821D01*
X152904761Y-120856011D01*
X152952380Y-120808392D01*
X152976190Y-120736964D01*
X152976190Y-120617916D01*
X152976190Y-121379821D02*
X152976190Y-121094107D01*
X152976190Y-121236964D02*
X152476190Y-121236964D01*
X152547619Y-121189345D01*
X152595238Y-121141726D01*
X152619047Y-121094107D01*
X152476190Y-121546488D02*
X152476190Y-121856011D01*
X152666666Y-121689345D01*
X152666666Y-121760773D01*
X152690476Y-121808392D01*
X152714285Y-121832202D01*
X152761904Y-121856011D01*
X152880952Y-121856011D01*
X152928571Y-121832202D01*
X152952380Y-121808392D01*
X152976190Y-121760773D01*
X152976190Y-121617916D01*
X152952380Y-121570297D01*
X152928571Y-121546488D01*
X147833333Y-120165535D02*
X147833333Y-120403630D01*
X147976190Y-120117916D02*
X147476190Y-120284583D01*
X147976190Y-120451250D01*
X147976190Y-120617916D02*
X147476190Y-120617916D01*
X147476190Y-120736964D01*
X147500000Y-120808392D01*
X147547619Y-120856011D01*
X147595238Y-120879821D01*
X147690476Y-120903630D01*
X147761904Y-120903630D01*
X147857142Y-120879821D01*
X147904761Y-120856011D01*
X147952380Y-120808392D01*
X147976190Y-120736964D01*
X147976190Y-120617916D01*
X147976190Y-121379821D02*
X147976190Y-121094107D01*
X147976190Y-121236964D02*
X147476190Y-121236964D01*
X147547619Y-121189345D01*
X147595238Y-121141726D01*
X147619047Y-121094107D01*
X147523809Y-121570297D02*
X147500000Y-121594107D01*
X147476190Y-121641726D01*
X147476190Y-121760773D01*
X147500000Y-121808392D01*
X147523809Y-121832202D01*
X147571428Y-121856011D01*
X147619047Y-121856011D01*
X147690476Y-121832202D01*
X147976190Y-121546488D01*
X147976190Y-121856011D01*
X144792500Y-120879821D02*
X144792500Y-121451250D01*
X144976190Y-120951250D02*
X145476190Y-121070297D01*
X145119047Y-121165535D01*
X145476190Y-121260773D01*
X144976190Y-121379821D01*
X144792500Y-121451250D02*
X144792500Y-121951250D01*
X145476190Y-121856011D02*
X145238095Y-121689345D01*
X145476190Y-121570297D02*
X144976190Y-121570297D01*
X144976190Y-121760773D01*
X145000000Y-121808392D01*
X145023809Y-121832202D01*
X145071428Y-121856011D01*
X145142857Y-121856011D01*
X145190476Y-121832202D01*
X145214285Y-121808392D01*
X145238095Y-121760773D01*
X145238095Y-121570297D01*
X139792500Y-120951250D02*
X139792500Y-121451250D01*
X140476190Y-121356011D02*
X140238095Y-121189345D01*
X140476190Y-121070297D02*
X139976190Y-121070297D01*
X139976190Y-121260773D01*
X140000000Y-121308392D01*
X140023809Y-121332202D01*
X140071428Y-121356011D01*
X140142857Y-121356011D01*
X140190476Y-121332202D01*
X140214285Y-121308392D01*
X140238095Y-121260773D01*
X140238095Y-121070297D01*
X139792500Y-121451250D02*
X139792500Y-121951250D01*
X140476190Y-121570297D02*
X139976190Y-121570297D01*
X139976190Y-121689345D01*
X140000000Y-121760773D01*
X140047619Y-121808392D01*
X140095238Y-121832202D01*
X140190476Y-121856011D01*
X140261904Y-121856011D01*
X140357142Y-121832202D01*
X140404761Y-121808392D01*
X140452380Y-121760773D01*
X140476190Y-121689345D01*
X140476190Y-121570297D01*
X137833333Y-120165535D02*
X137833333Y-120403630D01*
X137976190Y-120117916D02*
X137476190Y-120284583D01*
X137976190Y-120451250D01*
X137976190Y-120617916D02*
X137476190Y-120617916D01*
X137476190Y-120736964D01*
X137500000Y-120808392D01*
X137547619Y-120856011D01*
X137595238Y-120879821D01*
X137690476Y-120903630D01*
X137761904Y-120903630D01*
X137857142Y-120879821D01*
X137904761Y-120856011D01*
X137952380Y-120808392D01*
X137976190Y-120736964D01*
X137976190Y-120617916D01*
X137976190Y-121379821D02*
X137976190Y-121094107D01*
X137976190Y-121236964D02*
X137476190Y-121236964D01*
X137547619Y-121189345D01*
X137595238Y-121141726D01*
X137619047Y-121094107D01*
X137976190Y-121856011D02*
X137976190Y-121570297D01*
X137976190Y-121713154D02*
X137476190Y-121713154D01*
X137547619Y-121665535D01*
X137595238Y-121617916D01*
X137619047Y-121570297D01*
X135333333Y-120165535D02*
X135333333Y-120403630D01*
X135476190Y-120117916D02*
X134976190Y-120284583D01*
X135476190Y-120451250D01*
X135476190Y-120617916D02*
X134976190Y-120617916D01*
X134976190Y-120736964D01*
X135000000Y-120808392D01*
X135047619Y-120856011D01*
X135095238Y-120879821D01*
X135190476Y-120903630D01*
X135261904Y-120903630D01*
X135357142Y-120879821D01*
X135404761Y-120856011D01*
X135452380Y-120808392D01*
X135476190Y-120736964D01*
X135476190Y-120617916D01*
X135476190Y-121379821D02*
X135476190Y-121094107D01*
X135476190Y-121236964D02*
X134976190Y-121236964D01*
X135047619Y-121189345D01*
X135095238Y-121141726D01*
X135119047Y-121094107D01*
X134976190Y-121689345D02*
X134976190Y-121736964D01*
X135000000Y-121784583D01*
X135023809Y-121808392D01*
X135071428Y-121832202D01*
X135166666Y-121856011D01*
X135285714Y-121856011D01*
X135380952Y-121832202D01*
X135428571Y-121808392D01*
X135452380Y-121784583D01*
X135476190Y-121736964D01*
X135476190Y-121689345D01*
X135452380Y-121641726D01*
X135428571Y-121617916D01*
X135380952Y-121594107D01*
X135285714Y-121570297D01*
X135166666Y-121570297D01*
X135071428Y-121594107D01*
X135023809Y-121617916D01*
X135000000Y-121641726D01*
X134976190Y-121689345D01*
X127833333Y-120641726D02*
X127833333Y-120879821D01*
X127976190Y-120594107D02*
X127476190Y-120760773D01*
X127976190Y-120927440D01*
X127976190Y-121094107D02*
X127476190Y-121094107D01*
X127476190Y-121213154D01*
X127500000Y-121284583D01*
X127547619Y-121332202D01*
X127595238Y-121356011D01*
X127690476Y-121379821D01*
X127761904Y-121379821D01*
X127857142Y-121356011D01*
X127904761Y-121332202D01*
X127952380Y-121284583D01*
X127976190Y-121213154D01*
X127976190Y-121094107D01*
X127976190Y-121617916D02*
X127976190Y-121713154D01*
X127952380Y-121760773D01*
X127928571Y-121784583D01*
X127857142Y-121832202D01*
X127761904Y-121856011D01*
X127571428Y-121856011D01*
X127523809Y-121832202D01*
X127500000Y-121808392D01*
X127476190Y-121760773D01*
X127476190Y-121665535D01*
X127500000Y-121617916D01*
X127523809Y-121594107D01*
X127571428Y-121570297D01*
X127690476Y-121570297D01*
X127738095Y-121594107D01*
X127761904Y-121617916D01*
X127785714Y-121665535D01*
X127785714Y-121760773D01*
X127761904Y-121808392D01*
X127738095Y-121832202D01*
X127690476Y-121856011D01*
X125333333Y-120641726D02*
X125333333Y-120879821D01*
X125476190Y-120594107D02*
X124976190Y-120760773D01*
X125476190Y-120927440D01*
X125476190Y-121094107D02*
X124976190Y-121094107D01*
X124976190Y-121213154D01*
X125000000Y-121284583D01*
X125047619Y-121332202D01*
X125095238Y-121356011D01*
X125190476Y-121379821D01*
X125261904Y-121379821D01*
X125357142Y-121356011D01*
X125404761Y-121332202D01*
X125452380Y-121284583D01*
X125476190Y-121213154D01*
X125476190Y-121094107D01*
X125190476Y-121665535D02*
X125166666Y-121617916D01*
X125142857Y-121594107D01*
X125095238Y-121570297D01*
X125071428Y-121570297D01*
X125023809Y-121594107D01*
X125000000Y-121617916D01*
X124976190Y-121665535D01*
X124976190Y-121760773D01*
X125000000Y-121808392D01*
X125023809Y-121832202D01*
X125071428Y-121856011D01*
X125095238Y-121856011D01*
X125142857Y-121832202D01*
X125166666Y-121808392D01*
X125190476Y-121760773D01*
X125190476Y-121665535D01*
X125214285Y-121617916D01*
X125238095Y-121594107D01*
X125285714Y-121570297D01*
X125380952Y-121570297D01*
X125428571Y-121594107D01*
X125452380Y-121617916D01*
X125476190Y-121665535D01*
X125476190Y-121760773D01*
X125452380Y-121808392D01*
X125428571Y-121832202D01*
X125380952Y-121856011D01*
X125285714Y-121856011D01*
X125238095Y-121832202D01*
X125214285Y-121808392D01*
X125190476Y-121760773D01*
X120428571Y-120641726D02*
X120452380Y-120617916D01*
X120476190Y-120546488D01*
X120476190Y-120498869D01*
X120452380Y-120427440D01*
X120404761Y-120379821D01*
X120357142Y-120356011D01*
X120261904Y-120332202D01*
X120190476Y-120332202D01*
X120095238Y-120356011D01*
X120047619Y-120379821D01*
X120000000Y-120427440D01*
X119976190Y-120498869D01*
X119976190Y-120546488D01*
X120000000Y-120617916D01*
X120023809Y-120641726D01*
X120476190Y-120856011D02*
X119976190Y-120856011D01*
X120428571Y-121379821D02*
X120452380Y-121356011D01*
X120476190Y-121284583D01*
X120476190Y-121236964D01*
X120452380Y-121165535D01*
X120404761Y-121117916D01*
X120357142Y-121094107D01*
X120261904Y-121070297D01*
X120190476Y-121070297D01*
X120095238Y-121094107D01*
X120047619Y-121117916D01*
X120000000Y-121165535D01*
X119976190Y-121236964D01*
X119976190Y-121284583D01*
X120000000Y-121356011D01*
X120023809Y-121379821D01*
X120476190Y-121856011D02*
X120476190Y-121570297D01*
X120476190Y-121713154D02*
X119976190Y-121713154D01*
X120047619Y-121665535D01*
X120095238Y-121617916D01*
X120119047Y-121570297D01*
X117952380Y-120165535D02*
X117976190Y-120236964D01*
X117976190Y-120356011D01*
X117952380Y-120403630D01*
X117928571Y-120427440D01*
X117880952Y-120451250D01*
X117833333Y-120451250D01*
X117785714Y-120427440D01*
X117761904Y-120403630D01*
X117738095Y-120356011D01*
X117714285Y-120260773D01*
X117690476Y-120213154D01*
X117666666Y-120189345D01*
X117619047Y-120165535D01*
X117571428Y-120165535D01*
X117523809Y-120189345D01*
X117500000Y-120213154D01*
X117476190Y-120260773D01*
X117476190Y-120379821D01*
X117500000Y-120451250D01*
X117928571Y-120951250D02*
X117952380Y-120927440D01*
X117976190Y-120856011D01*
X117976190Y-120808392D01*
X117952380Y-120736964D01*
X117904761Y-120689345D01*
X117857142Y-120665535D01*
X117761904Y-120641726D01*
X117690476Y-120641726D01*
X117595238Y-120665535D01*
X117547619Y-120689345D01*
X117500000Y-120736964D01*
X117476190Y-120808392D01*
X117476190Y-120856011D01*
X117500000Y-120927440D01*
X117523809Y-120951250D01*
X117976190Y-121403630D02*
X117976190Y-121165535D01*
X117476190Y-121165535D01*
X117976190Y-121570297D02*
X117476190Y-121570297D01*
X117976190Y-121856011D02*
X117690476Y-121641726D01*
X117476190Y-121856011D02*
X117761904Y-121570297D01*
X114792500Y-119689345D02*
X114792500Y-120189345D01*
X115476190Y-120094107D02*
X115238095Y-119927440D01*
X115476190Y-119808392D02*
X114976190Y-119808392D01*
X114976190Y-119998869D01*
X115000000Y-120046488D01*
X115023809Y-120070297D01*
X115071428Y-120094107D01*
X115142857Y-120094107D01*
X115190476Y-120070297D01*
X115214285Y-120046488D01*
X115238095Y-119998869D01*
X115238095Y-119808392D01*
X114792500Y-120189345D02*
X114792500Y-120641726D01*
X115214285Y-120308392D02*
X115214285Y-120475059D01*
X115476190Y-120546488D02*
X115476190Y-120308392D01*
X114976190Y-120308392D01*
X114976190Y-120546488D01*
X114792500Y-120641726D02*
X114792500Y-121117916D01*
X115452380Y-120736964D02*
X115476190Y-120808392D01*
X115476190Y-120927440D01*
X115452380Y-120975059D01*
X115428571Y-120998869D01*
X115380952Y-121022678D01*
X115333333Y-121022678D01*
X115285714Y-120998869D01*
X115261904Y-120975059D01*
X115238095Y-120927440D01*
X115214285Y-120832202D01*
X115190476Y-120784583D01*
X115166666Y-120760773D01*
X115119047Y-120736964D01*
X115071428Y-120736964D01*
X115023809Y-120760773D01*
X115000000Y-120784583D01*
X114976190Y-120832202D01*
X114976190Y-120951250D01*
X115000000Y-121022678D01*
X114792500Y-121117916D02*
X114792500Y-121570297D01*
X115214285Y-121236964D02*
X115214285Y-121403630D01*
X115476190Y-121475059D02*
X115476190Y-121236964D01*
X114976190Y-121236964D01*
X114976190Y-121475059D01*
X114792500Y-121570297D02*
X114792500Y-121951250D01*
X114976190Y-121617916D02*
X114976190Y-121903630D01*
X115476190Y-121760773D02*
X114976190Y-121760773D01*
X112952380Y-120260773D02*
X112976190Y-120332202D01*
X112976190Y-120451250D01*
X112952380Y-120498869D01*
X112928571Y-120522678D01*
X112880952Y-120546488D01*
X112833333Y-120546488D01*
X112785714Y-120522678D01*
X112761904Y-120498869D01*
X112738095Y-120451250D01*
X112714285Y-120356011D01*
X112690476Y-120308392D01*
X112666666Y-120284583D01*
X112619047Y-120260773D01*
X112571428Y-120260773D01*
X112523809Y-120284583D01*
X112500000Y-120308392D01*
X112476190Y-120356011D01*
X112476190Y-120475059D01*
X112500000Y-120546488D01*
X112976190Y-120760773D02*
X112476190Y-120760773D01*
X112476190Y-120879821D01*
X112500000Y-120951250D01*
X112547619Y-120998869D01*
X112595238Y-121022678D01*
X112690476Y-121046488D01*
X112761904Y-121046488D01*
X112857142Y-121022678D01*
X112904761Y-120998869D01*
X112952380Y-120951250D01*
X112976190Y-120879821D01*
X112976190Y-120760773D01*
X112833333Y-121236964D02*
X112833333Y-121475059D01*
X112976190Y-121189345D02*
X112476190Y-121356011D01*
X112976190Y-121522678D01*
X112476190Y-121617916D02*
X112476190Y-121903630D01*
X112976190Y-121760773D02*
X112476190Y-121760773D01*
X105333333Y-120189345D02*
X105333333Y-120427440D01*
X105476190Y-120141726D02*
X104976190Y-120308392D01*
X105476190Y-120475059D01*
X104976190Y-120641726D02*
X105380952Y-120641726D01*
X105428571Y-120665535D01*
X105452380Y-120689345D01*
X105476190Y-120736964D01*
X105476190Y-120832202D01*
X105452380Y-120879821D01*
X105428571Y-120903630D01*
X105380952Y-120927440D01*
X104976190Y-120927440D01*
X105476190Y-121165535D02*
X104976190Y-121165535D01*
X104976190Y-121284583D01*
X105000000Y-121356011D01*
X105047619Y-121403630D01*
X105095238Y-121427440D01*
X105190476Y-121451250D01*
X105261904Y-121451250D01*
X105357142Y-121427440D01*
X105404761Y-121403630D01*
X105452380Y-121356011D01*
X105476190Y-121284583D01*
X105476190Y-121165535D01*
X105476190Y-121903630D02*
X105476190Y-121665535D01*
X104976190Y-121665535D01*
X122476190Y-120641726D02*
X122476190Y-120951250D01*
X122666666Y-120784583D01*
X122666666Y-120856011D01*
X122690476Y-120903630D01*
X122714285Y-120927440D01*
X122761904Y-120951250D01*
X122880952Y-120951250D01*
X122928571Y-120927440D01*
X122952380Y-120903630D01*
X122976190Y-120856011D01*
X122976190Y-120713154D01*
X122952380Y-120665535D01*
X122928571Y-120641726D01*
X122476190Y-121094107D02*
X122976190Y-121260773D01*
X122476190Y-121427440D01*
X122476190Y-121546488D02*
X122476190Y-121856011D01*
X122666666Y-121689345D01*
X122666666Y-121760773D01*
X122690476Y-121808392D01*
X122714285Y-121832202D01*
X122761904Y-121856011D01*
X122880952Y-121856011D01*
X122928571Y-121832202D01*
X122952380Y-121808392D01*
X122976190Y-121760773D01*
X122976190Y-121617916D01*
X122952380Y-121570297D01*
X122928571Y-121546488D01*
X142476190Y-120641726D02*
X142476190Y-120951250D01*
X142666666Y-120784583D01*
X142666666Y-120856011D01*
X142690476Y-120903630D01*
X142714285Y-120927440D01*
X142761904Y-120951250D01*
X142880952Y-120951250D01*
X142928571Y-120927440D01*
X142952380Y-120903630D01*
X142976190Y-120856011D01*
X142976190Y-120713154D01*
X142952380Y-120665535D01*
X142928571Y-120641726D01*
X142476190Y-121094107D02*
X142976190Y-121260773D01*
X142476190Y-121427440D01*
X142476190Y-121546488D02*
X142476190Y-121856011D01*
X142666666Y-121689345D01*
X142666666Y-121760773D01*
X142690476Y-121808392D01*
X142714285Y-121832202D01*
X142761904Y-121856011D01*
X142880952Y-121856011D01*
X142928571Y-121832202D01*
X142952380Y-121808392D01*
X142976190Y-121760773D01*
X142976190Y-121617916D01*
X142952380Y-121570297D01*
X142928571Y-121546488D01*
X122476190Y-120641726D02*
X122476190Y-120951250D01*
X122666666Y-120784583D01*
X122666666Y-120856011D01*
X122690476Y-120903630D01*
X122714285Y-120927440D01*
X122761904Y-120951250D01*
X122880952Y-120951250D01*
X122928571Y-120927440D01*
X122952380Y-120903630D01*
X122976190Y-120856011D01*
X122976190Y-120713154D01*
X122952380Y-120665535D01*
X122928571Y-120641726D01*
X122476190Y-121094107D02*
X122976190Y-121260773D01*
X122476190Y-121427440D01*
X122476190Y-121546488D02*
X122476190Y-121856011D01*
X122666666Y-121689345D01*
X122666666Y-121760773D01*
X122690476Y-121808392D01*
X122714285Y-121832202D01*
X122761904Y-121856011D01*
X122880952Y-121856011D01*
X122928571Y-121832202D01*
X122952380Y-121808392D01*
X122976190Y-121760773D01*
X122976190Y-121617916D01*
X122952380Y-121570297D01*
X122928571Y-121546488D01*
X130476190Y-121046488D02*
X129976190Y-121046488D01*
X130476190Y-121332202D01*
X129976190Y-121332202D01*
X130428571Y-121856011D02*
X130452380Y-121832202D01*
X130476190Y-121760773D01*
X130476190Y-121713154D01*
X130452380Y-121641726D01*
X130404761Y-121594107D01*
X130357142Y-121570297D01*
X130261904Y-121546488D01*
X130190476Y-121546488D01*
X130095238Y-121570297D01*
X130047619Y-121594107D01*
X130000000Y-121641726D01*
X129976190Y-121713154D01*
X129976190Y-121760773D01*
X130000000Y-121832202D01*
X130023809Y-121856011D01*
D11*
X57533333Y-96152380D02*
X57533333Y-96866666D01*
X57580952Y-97009523D01*
X57676190Y-97104761D01*
X57819047Y-97152380D01*
X57914285Y-97152380D01*
X57152380Y-96152380D02*
X56485714Y-96152380D01*
X56914285Y-97152380D01*
X90033333Y-96152380D02*
X90033333Y-96866666D01*
X90080952Y-97009523D01*
X90176190Y-97104761D01*
X90319047Y-97152380D01*
X90414285Y-97152380D01*
X89128571Y-96152380D02*
X89319047Y-96152380D01*
X89414285Y-96200000D01*
X89461904Y-96247619D01*
X89557142Y-96390476D01*
X89604761Y-96580952D01*
X89604761Y-96961904D01*
X89557142Y-97057142D01*
X89509523Y-97104761D01*
X89414285Y-97152380D01*
X89223809Y-97152380D01*
X89128571Y-97104761D01*
X89080952Y-97057142D01*
X89033333Y-96961904D01*
X89033333Y-96723809D01*
X89080952Y-96628571D01*
X89128571Y-96580952D01*
X89223809Y-96533333D01*
X89414285Y-96533333D01*
X89509523Y-96580952D01*
X89557142Y-96628571D01*
X89604761Y-96723809D01*
X73833333Y-96152380D02*
X73833333Y-96866666D01*
X73880952Y-97009523D01*
X73976190Y-97104761D01*
X74119047Y-97152380D01*
X74214285Y-97152380D01*
X72880952Y-96152380D02*
X73357142Y-96152380D01*
X73404761Y-96628571D01*
X73357142Y-96580952D01*
X73261904Y-96533333D01*
X73023809Y-96533333D01*
X72928571Y-96580952D01*
X72880952Y-96628571D01*
X72833333Y-96723809D01*
X72833333Y-96961904D01*
X72880952Y-97057142D01*
X72928571Y-97104761D01*
X73023809Y-97152380D01*
X73261904Y-97152380D01*
X73357142Y-97104761D01*
X73404761Y-97057142D01*
X163233333Y-96152380D02*
X163233333Y-96866666D01*
X163280952Y-97009523D01*
X163376190Y-97104761D01*
X163519047Y-97152380D01*
X163614285Y-97152380D01*
X162328571Y-96485714D02*
X162328571Y-97152380D01*
X162566666Y-96104761D02*
X162804761Y-96819047D01*
X162185714Y-96819047D01*
X106333333Y-96152380D02*
X106333333Y-96866666D01*
X106380952Y-97009523D01*
X106476190Y-97104761D01*
X106619047Y-97152380D01*
X106714285Y-97152380D01*
X105952380Y-96152380D02*
X105333333Y-96152380D01*
X105666666Y-96533333D01*
X105523809Y-96533333D01*
X105428571Y-96580952D01*
X105380952Y-96628571D01*
X105333333Y-96723809D01*
X105333333Y-96961904D01*
X105380952Y-97057142D01*
X105428571Y-97104761D01*
X105523809Y-97152380D01*
X105809523Y-97152380D01*
X105904761Y-97104761D01*
X105952380Y-97057142D01*
X102329333Y-109222380D02*
X102329333Y-109936666D01*
X102376952Y-110079523D01*
X102472190Y-110174761D01*
X102615047Y-110222380D01*
X102710285Y-110222380D01*
X101900761Y-109317619D02*
X101853142Y-109270000D01*
X101757904Y-109222380D01*
X101519809Y-109222380D01*
X101424571Y-109270000D01*
X101376952Y-109317619D01*
X101329333Y-109412857D01*
X101329333Y-109508095D01*
X101376952Y-109650952D01*
X101948380Y-110222380D01*
X101329333Y-110222380D01*
M02*
