G04 #@! TF.GenerationSoftware,KiCad,Pcbnew,(5.1.5-0-10_14)*
G04 #@! TF.CreationDate,2020-05-05T19:19:41-07:00*
G04 #@! TF.ProjectId,N64 Cart IDC Breakout,4e363420-4361-4727-9420-494443204272,rev?*
G04 #@! TF.SameCoordinates,Original*
G04 #@! TF.FileFunction,Legend,Top*
G04 #@! TF.FilePolarity,Positive*
%FSLAX46Y46*%
G04 Gerber Fmt 4.6, Leading zero omitted, Abs format (unit mm)*
G04 Created by KiCad (PCBNEW (5.1.5-0-10_14)) date 2020-05-05 19:19:41*
%MOMM*%
%LPD*%
G04 APERTURE LIST*
%ADD10C,0.150000*%
%ADD11C,0.075000*%
G04 APERTURE END LIST*
D10*
X162178571Y-121060714D02*
X162214285Y-121025000D01*
X162285714Y-120989285D01*
X162464285Y-120989285D01*
X162535714Y-121025000D01*
X162571428Y-121060714D01*
X162607142Y-121132142D01*
X162607142Y-121203571D01*
X162571428Y-121310714D01*
X162142857Y-121739285D01*
X162607142Y-121739285D01*
X163250000Y-120989285D02*
X163107142Y-120989285D01*
X163035714Y-121025000D01*
X163000000Y-121060714D01*
X162928571Y-121167857D01*
X162892857Y-121310714D01*
X162892857Y-121596428D01*
X162928571Y-121667857D01*
X162964285Y-121703571D01*
X163035714Y-121739285D01*
X163178571Y-121739285D01*
X163250000Y-121703571D01*
X163285714Y-121667857D01*
X163321428Y-121596428D01*
X163321428Y-121417857D01*
X163285714Y-121346428D01*
X163250000Y-121310714D01*
X163178571Y-121275000D01*
X163035714Y-121275000D01*
X162964285Y-121310714D01*
X162928571Y-121346428D01*
X162892857Y-121417857D01*
X102571428Y-120989285D02*
X102214285Y-120989285D01*
X102178571Y-121346428D01*
X102214285Y-121310714D01*
X102285714Y-121275000D01*
X102464285Y-121275000D01*
X102535714Y-121310714D01*
X102571428Y-121346428D01*
X102607142Y-121417857D01*
X102607142Y-121596428D01*
X102571428Y-121667857D01*
X102535714Y-121703571D01*
X102464285Y-121739285D01*
X102285714Y-121739285D01*
X102214285Y-121703571D01*
X102178571Y-121667857D01*
X103071428Y-120989285D02*
X103142857Y-120989285D01*
X103214285Y-121025000D01*
X103250000Y-121060714D01*
X103285714Y-121132142D01*
X103321428Y-121275000D01*
X103321428Y-121453571D01*
X103285714Y-121596428D01*
X103250000Y-121667857D01*
X103214285Y-121703571D01*
X103142857Y-121739285D01*
X103071428Y-121739285D01*
X103000000Y-121703571D01*
X102964285Y-121667857D01*
X102928571Y-121596428D01*
X102892857Y-121453571D01*
X102892857Y-121275000D01*
X102928571Y-121132142D01*
X102964285Y-121060714D01*
X103000000Y-121025000D01*
X103071428Y-120989285D01*
D11*
X130476190Y-121832202D02*
X129976190Y-121832202D01*
X130476190Y-121546488D01*
X129976190Y-121546488D01*
X130428571Y-121022678D02*
X130452380Y-121046488D01*
X130476190Y-121117916D01*
X130476190Y-121165535D01*
X130452380Y-121236964D01*
X130404761Y-121284583D01*
X130357142Y-121308392D01*
X130261904Y-121332202D01*
X130190476Y-121332202D01*
X130095238Y-121308392D01*
X130047619Y-121284583D01*
X130000000Y-121236964D01*
X129976190Y-121165535D01*
X129976190Y-121117916D01*
X130000000Y-121046488D01*
X130023809Y-121022678D01*
X117976190Y-121832202D02*
X117476190Y-121832202D01*
X117976190Y-121546488D01*
X117476190Y-121546488D01*
X117928571Y-121022678D02*
X117952380Y-121046488D01*
X117976190Y-121117916D01*
X117976190Y-121165535D01*
X117952380Y-121236964D01*
X117904761Y-121284583D01*
X117857142Y-121308392D01*
X117761904Y-121332202D01*
X117690476Y-121332202D01*
X117595238Y-121308392D01*
X117547619Y-121284583D01*
X117500000Y-121236964D01*
X117476190Y-121165535D01*
X117476190Y-121117916D01*
X117500000Y-121046488D01*
X117523809Y-121022678D01*
X132976190Y-121570297D02*
X132976190Y-121856011D01*
X132976190Y-121713154D02*
X132476190Y-121713154D01*
X132547619Y-121760773D01*
X132595238Y-121808392D01*
X132619047Y-121856011D01*
X132523809Y-121379821D02*
X132500000Y-121356011D01*
X132476190Y-121308392D01*
X132476190Y-121189345D01*
X132500000Y-121141726D01*
X132523809Y-121117916D01*
X132571428Y-121094107D01*
X132619047Y-121094107D01*
X132690476Y-121117916D01*
X132976190Y-121403630D01*
X132976190Y-121094107D01*
X132476190Y-120951250D02*
X132976190Y-120784583D01*
X132476190Y-120617916D01*
X157833333Y-121856011D02*
X157833333Y-121617916D01*
X157976190Y-121903630D02*
X157476190Y-121736964D01*
X157976190Y-121570297D01*
X157976190Y-121403630D02*
X157476190Y-121403630D01*
X157476190Y-121284583D01*
X157500000Y-121213154D01*
X157547619Y-121165535D01*
X157595238Y-121141726D01*
X157690476Y-121117916D01*
X157761904Y-121117916D01*
X157857142Y-121141726D01*
X157904761Y-121165535D01*
X157952380Y-121213154D01*
X157976190Y-121284583D01*
X157976190Y-121403630D01*
X157476190Y-120808392D02*
X157476190Y-120760773D01*
X157500000Y-120713154D01*
X157523809Y-120689345D01*
X157571428Y-120665535D01*
X157666666Y-120641726D01*
X157785714Y-120641726D01*
X157880952Y-120665535D01*
X157928571Y-120689345D01*
X157952380Y-120713154D01*
X157976190Y-120760773D01*
X157976190Y-120808392D01*
X157952380Y-120856011D01*
X157928571Y-120879821D01*
X157880952Y-120903630D01*
X157785714Y-120927440D01*
X157666666Y-120927440D01*
X157571428Y-120903630D01*
X157523809Y-120879821D01*
X157500000Y-120856011D01*
X157476190Y-120808392D01*
X155333333Y-121856011D02*
X155333333Y-121617916D01*
X155476190Y-121903630D02*
X154976190Y-121736964D01*
X155476190Y-121570297D01*
X155476190Y-121403630D02*
X154976190Y-121403630D01*
X154976190Y-121284583D01*
X155000000Y-121213154D01*
X155047619Y-121165535D01*
X155095238Y-121141726D01*
X155190476Y-121117916D01*
X155261904Y-121117916D01*
X155357142Y-121141726D01*
X155404761Y-121165535D01*
X155452380Y-121213154D01*
X155476190Y-121284583D01*
X155476190Y-121403630D01*
X155476190Y-120641726D02*
X155476190Y-120927440D01*
X155476190Y-120784583D02*
X154976190Y-120784583D01*
X155047619Y-120832202D01*
X155095238Y-120879821D01*
X155119047Y-120927440D01*
X152833333Y-121856011D02*
X152833333Y-121617916D01*
X152976190Y-121903630D02*
X152476190Y-121736964D01*
X152976190Y-121570297D01*
X152976190Y-121403630D02*
X152476190Y-121403630D01*
X152476190Y-121284583D01*
X152500000Y-121213154D01*
X152547619Y-121165535D01*
X152595238Y-121141726D01*
X152690476Y-121117916D01*
X152761904Y-121117916D01*
X152857142Y-121141726D01*
X152904761Y-121165535D01*
X152952380Y-121213154D01*
X152976190Y-121284583D01*
X152976190Y-121403630D01*
X152523809Y-120927440D02*
X152500000Y-120903630D01*
X152476190Y-120856011D01*
X152476190Y-120736964D01*
X152500000Y-120689345D01*
X152523809Y-120665535D01*
X152571428Y-120641726D01*
X152619047Y-120641726D01*
X152690476Y-120665535D01*
X152976190Y-120951250D01*
X152976190Y-120641726D01*
X147833333Y-121856011D02*
X147833333Y-121617916D01*
X147976190Y-121903630D02*
X147476190Y-121736964D01*
X147976190Y-121570297D01*
X147976190Y-121403630D02*
X147476190Y-121403630D01*
X147476190Y-121284583D01*
X147500000Y-121213154D01*
X147547619Y-121165535D01*
X147595238Y-121141726D01*
X147690476Y-121117916D01*
X147761904Y-121117916D01*
X147857142Y-121141726D01*
X147904761Y-121165535D01*
X147952380Y-121213154D01*
X147976190Y-121284583D01*
X147976190Y-121403630D01*
X147476190Y-120951250D02*
X147476190Y-120641726D01*
X147666666Y-120808392D01*
X147666666Y-120736964D01*
X147690476Y-120689345D01*
X147714285Y-120665535D01*
X147761904Y-120641726D01*
X147880952Y-120641726D01*
X147928571Y-120665535D01*
X147952380Y-120689345D01*
X147976190Y-120736964D01*
X147976190Y-120879821D01*
X147952380Y-120927440D01*
X147928571Y-120951250D01*
X145333333Y-121856011D02*
X145333333Y-121617916D01*
X145476190Y-121903630D02*
X144976190Y-121736964D01*
X145476190Y-121570297D01*
X145476190Y-121165535D02*
X145476190Y-121403630D01*
X144976190Y-121403630D01*
X145214285Y-120998869D02*
X145214285Y-120832202D01*
X145476190Y-120760773D02*
X145476190Y-120998869D01*
X144976190Y-120998869D01*
X144976190Y-120760773D01*
X145476190Y-120308392D02*
X145476190Y-120546488D01*
X144976190Y-120546488D01*
X140333333Y-121856011D02*
X140333333Y-121617916D01*
X140476190Y-121903630D02*
X139976190Y-121736964D01*
X140476190Y-121570297D01*
X140476190Y-121165535D02*
X140476190Y-121403630D01*
X139976190Y-121403630D01*
X140214285Y-120998869D02*
X140214285Y-120832202D01*
X140476190Y-120760773D02*
X140476190Y-120998869D01*
X139976190Y-120998869D01*
X139976190Y-120760773D01*
X140476190Y-120546488D02*
X139976190Y-120546488D01*
X140214285Y-120546488D02*
X140214285Y-120260773D01*
X140476190Y-120260773D02*
X139976190Y-120260773D01*
X137833333Y-121856011D02*
X137833333Y-121617916D01*
X137976190Y-121903630D02*
X137476190Y-121736964D01*
X137976190Y-121570297D01*
X137976190Y-121403630D02*
X137476190Y-121403630D01*
X137476190Y-121284583D01*
X137500000Y-121213154D01*
X137547619Y-121165535D01*
X137595238Y-121141726D01*
X137690476Y-121117916D01*
X137761904Y-121117916D01*
X137857142Y-121141726D01*
X137904761Y-121165535D01*
X137952380Y-121213154D01*
X137976190Y-121284583D01*
X137976190Y-121403630D01*
X137642857Y-120689345D02*
X137976190Y-120689345D01*
X137452380Y-120808392D02*
X137809523Y-120927440D01*
X137809523Y-120617916D01*
X135333333Y-121856011D02*
X135333333Y-121617916D01*
X135476190Y-121903630D02*
X134976190Y-121736964D01*
X135476190Y-121570297D01*
X135476190Y-121403630D02*
X134976190Y-121403630D01*
X134976190Y-121284583D01*
X135000000Y-121213154D01*
X135047619Y-121165535D01*
X135095238Y-121141726D01*
X135190476Y-121117916D01*
X135261904Y-121117916D01*
X135357142Y-121141726D01*
X135404761Y-121165535D01*
X135452380Y-121213154D01*
X135476190Y-121284583D01*
X135476190Y-121403630D01*
X134976190Y-120665535D02*
X134976190Y-120903630D01*
X135214285Y-120927440D01*
X135190476Y-120903630D01*
X135166666Y-120856011D01*
X135166666Y-120736964D01*
X135190476Y-120689345D01*
X135214285Y-120665535D01*
X135261904Y-120641726D01*
X135380952Y-120641726D01*
X135428571Y-120665535D01*
X135452380Y-120689345D01*
X135476190Y-120736964D01*
X135476190Y-120856011D01*
X135452380Y-120903630D01*
X135428571Y-120927440D01*
X132976190Y-121570297D02*
X132976190Y-121856011D01*
X132976190Y-121713154D02*
X132476190Y-121713154D01*
X132547619Y-121760773D01*
X132595238Y-121808392D01*
X132619047Y-121856011D01*
X132523809Y-121379821D02*
X132500000Y-121356011D01*
X132476190Y-121308392D01*
X132476190Y-121189345D01*
X132500000Y-121141726D01*
X132523809Y-121117916D01*
X132571428Y-121094107D01*
X132619047Y-121094107D01*
X132690476Y-121117916D01*
X132976190Y-121403630D01*
X132976190Y-121094107D01*
X132476190Y-120951250D02*
X132976190Y-120784583D01*
X132476190Y-120617916D01*
X127833333Y-121856011D02*
X127833333Y-121617916D01*
X127976190Y-121903630D02*
X127476190Y-121736964D01*
X127976190Y-121570297D01*
X127976190Y-121403630D02*
X127476190Y-121403630D01*
X127476190Y-121284583D01*
X127500000Y-121213154D01*
X127547619Y-121165535D01*
X127595238Y-121141726D01*
X127690476Y-121117916D01*
X127761904Y-121117916D01*
X127857142Y-121141726D01*
X127904761Y-121165535D01*
X127952380Y-121213154D01*
X127976190Y-121284583D01*
X127976190Y-121403630D01*
X127476190Y-120689345D02*
X127476190Y-120784583D01*
X127500000Y-120832202D01*
X127523809Y-120856011D01*
X127595238Y-120903630D01*
X127690476Y-120927440D01*
X127880952Y-120927440D01*
X127928571Y-120903630D01*
X127952380Y-120879821D01*
X127976190Y-120832202D01*
X127976190Y-120736964D01*
X127952380Y-120689345D01*
X127928571Y-120665535D01*
X127880952Y-120641726D01*
X127761904Y-120641726D01*
X127714285Y-120665535D01*
X127690476Y-120689345D01*
X127666666Y-120736964D01*
X127666666Y-120832202D01*
X127690476Y-120879821D01*
X127714285Y-120903630D01*
X127761904Y-120927440D01*
X125333333Y-121856011D02*
X125333333Y-121617916D01*
X125476190Y-121903630D02*
X124976190Y-121736964D01*
X125476190Y-121570297D01*
X125476190Y-121403630D02*
X124976190Y-121403630D01*
X124976190Y-121284583D01*
X125000000Y-121213154D01*
X125047619Y-121165535D01*
X125095238Y-121141726D01*
X125190476Y-121117916D01*
X125261904Y-121117916D01*
X125357142Y-121141726D01*
X125404761Y-121165535D01*
X125452380Y-121213154D01*
X125476190Y-121284583D01*
X125476190Y-121403630D01*
X124976190Y-120951250D02*
X124976190Y-120617916D01*
X125476190Y-120832202D01*
X122476190Y-121879821D02*
X122476190Y-121570297D01*
X122666666Y-121736964D01*
X122666666Y-121665535D01*
X122690476Y-121617916D01*
X122714285Y-121594107D01*
X122761904Y-121570297D01*
X122880952Y-121570297D01*
X122928571Y-121594107D01*
X122952380Y-121617916D01*
X122976190Y-121665535D01*
X122976190Y-121808392D01*
X122952380Y-121856011D01*
X122928571Y-121879821D01*
X122476190Y-121427440D02*
X122976190Y-121260773D01*
X122476190Y-121094107D01*
X122476190Y-120975059D02*
X122476190Y-120665535D01*
X122666666Y-120832202D01*
X122666666Y-120760773D01*
X122690476Y-120713154D01*
X122714285Y-120689345D01*
X122761904Y-120665535D01*
X122880952Y-120665535D01*
X122928571Y-120689345D01*
X122952380Y-120713154D01*
X122976190Y-120760773D01*
X122976190Y-120903630D01*
X122952380Y-120951250D01*
X122928571Y-120975059D01*
X120428571Y-121546488D02*
X120452380Y-121570297D01*
X120476190Y-121641726D01*
X120476190Y-121689345D01*
X120452380Y-121760773D01*
X120404761Y-121808392D01*
X120357142Y-121832202D01*
X120261904Y-121856011D01*
X120190476Y-121856011D01*
X120095238Y-121832202D01*
X120047619Y-121808392D01*
X120000000Y-121760773D01*
X119976190Y-121689345D01*
X119976190Y-121641726D01*
X120000000Y-121570297D01*
X120023809Y-121546488D01*
X120476190Y-121332202D02*
X119976190Y-121332202D01*
X120428571Y-120808392D02*
X120452380Y-120832202D01*
X120476190Y-120903630D01*
X120476190Y-120951250D01*
X120452380Y-121022678D01*
X120404761Y-121070297D01*
X120357142Y-121094107D01*
X120261904Y-121117916D01*
X120190476Y-121117916D01*
X120095238Y-121094107D01*
X120047619Y-121070297D01*
X120000000Y-121022678D01*
X119976190Y-120951250D01*
X119976190Y-120903630D01*
X120000000Y-120832202D01*
X120023809Y-120808392D01*
X120023809Y-120617916D02*
X120000000Y-120594107D01*
X119976190Y-120546488D01*
X119976190Y-120427440D01*
X120000000Y-120379821D01*
X120023809Y-120356011D01*
X120071428Y-120332202D01*
X120119047Y-120332202D01*
X120190476Y-120356011D01*
X120476190Y-120641726D01*
X120476190Y-120332202D01*
X114792500Y-121951250D02*
X114792500Y-121427440D01*
X115476190Y-121832202D02*
X114976190Y-121832202D01*
X115476190Y-121546488D01*
X114976190Y-121546488D01*
X114792500Y-121427440D02*
X114792500Y-120856011D01*
X115476190Y-121308392D02*
X114976190Y-121308392D01*
X115333333Y-121141726D01*
X114976190Y-120975059D01*
X115476190Y-120975059D01*
X114792500Y-120856011D02*
X114792500Y-120617916D01*
X115476190Y-120736964D02*
X114976190Y-120736964D01*
X105333333Y-121856011D02*
X105333333Y-121617916D01*
X105476190Y-121903630D02*
X104976190Y-121736964D01*
X105476190Y-121570297D01*
X104976190Y-121403630D02*
X105380952Y-121403630D01*
X105428571Y-121379821D01*
X105452380Y-121356011D01*
X105476190Y-121308392D01*
X105476190Y-121213154D01*
X105452380Y-121165535D01*
X105428571Y-121141726D01*
X105380952Y-121117916D01*
X104976190Y-121117916D01*
X105476190Y-120879821D02*
X104976190Y-120879821D01*
X104976190Y-120760773D01*
X105000000Y-120689345D01*
X105047619Y-120641726D01*
X105095238Y-120617916D01*
X105190476Y-120594107D01*
X105261904Y-120594107D01*
X105357142Y-120617916D01*
X105404761Y-120641726D01*
X105452380Y-120689345D01*
X105476190Y-120760773D01*
X105476190Y-120879821D01*
X105476190Y-120094107D02*
X105238095Y-120260773D01*
X105476190Y-120379821D02*
X104976190Y-120379821D01*
X104976190Y-120189345D01*
X105000000Y-120141726D01*
X105023809Y-120117916D01*
X105071428Y-120094107D01*
X105142857Y-120094107D01*
X105190476Y-120117916D01*
X105214285Y-120141726D01*
X105238095Y-120189345D01*
X105238095Y-120379821D01*
X130476190Y-121832202D02*
X129976190Y-121832202D01*
X130476190Y-121546488D01*
X129976190Y-121546488D01*
X130428571Y-121022678D02*
X130452380Y-121046488D01*
X130476190Y-121117916D01*
X130476190Y-121165535D01*
X130452380Y-121236964D01*
X130404761Y-121284583D01*
X130357142Y-121308392D01*
X130261904Y-121332202D01*
X130190476Y-121332202D01*
X130095238Y-121308392D01*
X130047619Y-121284583D01*
X130000000Y-121236964D01*
X129976190Y-121165535D01*
X129976190Y-121117916D01*
X130000000Y-121046488D01*
X130023809Y-121022678D01*
M02*
