G04 #@! TF.GenerationSoftware,KiCad,Pcbnew,(5.1.5-0-10_14)*
G04 #@! TF.CreationDate,2020-05-05T19:25:00-07:00*
G04 #@! TF.ProjectId,N64 UltraCIC II Breakout,4e363420-556c-4747-9261-434943204949,rev?*
G04 #@! TF.SameCoordinates,Original*
G04 #@! TF.FileFunction,Legend,Top*
G04 #@! TF.FilePolarity,Positive*
%FSLAX46Y46*%
G04 Gerber Fmt 4.6, Leading zero omitted, Abs format (unit mm)*
G04 Created by KiCad (PCBNEW (5.1.5-0-10_14)) date 2020-05-05 19:25:00*
%MOMM*%
%LPD*%
G04 APERTURE LIST*
%ADD10C,0.120000*%
%ADD11C,0.150000*%
G04 APERTURE END LIST*
D10*
X159258000Y-108585000D02*
G75*
G03X159258000Y-108585000I-254000J0D01*
G01*
X158750000Y-113030000D02*
X158750000Y-114300000D01*
X157480000Y-113030000D02*
X158750000Y-113030000D01*
X149480000Y-115342929D02*
X149480000Y-115797071D01*
X150240000Y-115342929D02*
X150240000Y-115797071D01*
X149480000Y-117882929D02*
X149480000Y-118280000D01*
X150240000Y-117882929D02*
X150240000Y-118280000D01*
X152020000Y-115342929D02*
X152020000Y-115797071D01*
X152780000Y-115342929D02*
X152780000Y-115797071D01*
X152020000Y-117882929D02*
X152020000Y-118280000D01*
X152780000Y-117882929D02*
X152780000Y-118280000D01*
X154560000Y-115342929D02*
X154560000Y-115797071D01*
X155320000Y-115342929D02*
X155320000Y-115797071D01*
X154560000Y-117882929D02*
X154560000Y-118280000D01*
X155320000Y-117882929D02*
X155320000Y-118280000D01*
X157100000Y-115410000D02*
X157100000Y-115797071D01*
X157860000Y-115410000D02*
X157860000Y-115797071D01*
X157100000Y-117882929D02*
X157100000Y-118280000D01*
X157860000Y-117882929D02*
X157860000Y-118280000D01*
X158810000Y-118280000D02*
X148530000Y-118280000D01*
D11*
X156420000Y-109230000D02*
X158170000Y-109230000D01*
X156420000Y-103925000D02*
X150920000Y-103925000D01*
X156420000Y-109435000D02*
X150920000Y-109435000D01*
X156420000Y-103925000D02*
X156420000Y-104225000D01*
X150920000Y-103925000D02*
X150920000Y-104225000D01*
X150920000Y-109435000D02*
X150920000Y-109135000D01*
X156420000Y-109435000D02*
X156420000Y-109230000D01*
D10*
X156722578Y-110542000D02*
X156205422Y-110542000D01*
X156722578Y-111962000D02*
X156205422Y-111962000D01*
X150617422Y-111962000D02*
X151134578Y-111962000D01*
X150617422Y-110542000D02*
X151134578Y-110542000D01*
M02*
