G04 #@! TF.GenerationSoftware,KiCad,Pcbnew,(5.1.5-0-10_14)*
G04 #@! TF.CreationDate,2020-05-05T19:25:00-07:00*
G04 #@! TF.ProjectId,N64 UltraCIC II Breakout,4e363420-556c-4747-9261-434943204949,rev?*
G04 #@! TF.SameCoordinates,Original*
G04 #@! TF.FileFunction,Paste,Top*
G04 #@! TF.FilePolarity,Positive*
%FSLAX46Y46*%
G04 Gerber Fmt 4.6, Leading zero omitted, Abs format (unit mm)*
G04 Created by KiCad (PCBNEW (5.1.5-0-10_14)) date 2020-05-05 19:25:00*
%MOMM*%
%LPD*%
G04 APERTURE LIST*
%ADD10R,1.700000X0.650000*%
%ADD11C,0.100000*%
G04 APERTURE END LIST*
D10*
X150020000Y-108585000D03*
X150020000Y-107315000D03*
X150020000Y-106045000D03*
X150020000Y-104775000D03*
X157320000Y-104775000D03*
X157320000Y-106045000D03*
X157320000Y-107315000D03*
X157320000Y-108585000D03*
D11*
G36*
X155794142Y-110553174D02*
G01*
X155817803Y-110556684D01*
X155841007Y-110562496D01*
X155863529Y-110570554D01*
X155885153Y-110580782D01*
X155905670Y-110593079D01*
X155924883Y-110607329D01*
X155942607Y-110623393D01*
X155958671Y-110641117D01*
X155972921Y-110660330D01*
X155985218Y-110680847D01*
X155995446Y-110702471D01*
X156003504Y-110724993D01*
X156009316Y-110748197D01*
X156012826Y-110771858D01*
X156014000Y-110795750D01*
X156014000Y-111708250D01*
X156012826Y-111732142D01*
X156009316Y-111755803D01*
X156003504Y-111779007D01*
X155995446Y-111801529D01*
X155985218Y-111823153D01*
X155972921Y-111843670D01*
X155958671Y-111862883D01*
X155942607Y-111880607D01*
X155924883Y-111896671D01*
X155905670Y-111910921D01*
X155885153Y-111923218D01*
X155863529Y-111933446D01*
X155841007Y-111941504D01*
X155817803Y-111947316D01*
X155794142Y-111950826D01*
X155770250Y-111952000D01*
X155282750Y-111952000D01*
X155258858Y-111950826D01*
X155235197Y-111947316D01*
X155211993Y-111941504D01*
X155189471Y-111933446D01*
X155167847Y-111923218D01*
X155147330Y-111910921D01*
X155128117Y-111896671D01*
X155110393Y-111880607D01*
X155094329Y-111862883D01*
X155080079Y-111843670D01*
X155067782Y-111823153D01*
X155057554Y-111801529D01*
X155049496Y-111779007D01*
X155043684Y-111755803D01*
X155040174Y-111732142D01*
X155039000Y-111708250D01*
X155039000Y-110795750D01*
X155040174Y-110771858D01*
X155043684Y-110748197D01*
X155049496Y-110724993D01*
X155057554Y-110702471D01*
X155067782Y-110680847D01*
X155080079Y-110660330D01*
X155094329Y-110641117D01*
X155110393Y-110623393D01*
X155128117Y-110607329D01*
X155147330Y-110593079D01*
X155167847Y-110580782D01*
X155189471Y-110570554D01*
X155211993Y-110562496D01*
X155235197Y-110556684D01*
X155258858Y-110553174D01*
X155282750Y-110552000D01*
X155770250Y-110552000D01*
X155794142Y-110553174D01*
G37*
G36*
X157669142Y-110553174D02*
G01*
X157692803Y-110556684D01*
X157716007Y-110562496D01*
X157738529Y-110570554D01*
X157760153Y-110580782D01*
X157780670Y-110593079D01*
X157799883Y-110607329D01*
X157817607Y-110623393D01*
X157833671Y-110641117D01*
X157847921Y-110660330D01*
X157860218Y-110680847D01*
X157870446Y-110702471D01*
X157878504Y-110724993D01*
X157884316Y-110748197D01*
X157887826Y-110771858D01*
X157889000Y-110795750D01*
X157889000Y-111708250D01*
X157887826Y-111732142D01*
X157884316Y-111755803D01*
X157878504Y-111779007D01*
X157870446Y-111801529D01*
X157860218Y-111823153D01*
X157847921Y-111843670D01*
X157833671Y-111862883D01*
X157817607Y-111880607D01*
X157799883Y-111896671D01*
X157780670Y-111910921D01*
X157760153Y-111923218D01*
X157738529Y-111933446D01*
X157716007Y-111941504D01*
X157692803Y-111947316D01*
X157669142Y-111950826D01*
X157645250Y-111952000D01*
X157157750Y-111952000D01*
X157133858Y-111950826D01*
X157110197Y-111947316D01*
X157086993Y-111941504D01*
X157064471Y-111933446D01*
X157042847Y-111923218D01*
X157022330Y-111910921D01*
X157003117Y-111896671D01*
X156985393Y-111880607D01*
X156969329Y-111862883D01*
X156955079Y-111843670D01*
X156942782Y-111823153D01*
X156932554Y-111801529D01*
X156924496Y-111779007D01*
X156918684Y-111755803D01*
X156915174Y-111732142D01*
X156914000Y-111708250D01*
X156914000Y-110795750D01*
X156915174Y-110771858D01*
X156918684Y-110748197D01*
X156924496Y-110724993D01*
X156932554Y-110702471D01*
X156942782Y-110680847D01*
X156955079Y-110660330D01*
X156969329Y-110641117D01*
X156985393Y-110623393D01*
X157003117Y-110607329D01*
X157022330Y-110593079D01*
X157042847Y-110580782D01*
X157064471Y-110570554D01*
X157086993Y-110562496D01*
X157110197Y-110556684D01*
X157133858Y-110553174D01*
X157157750Y-110552000D01*
X157645250Y-110552000D01*
X157669142Y-110553174D01*
G37*
G36*
X152081142Y-110553174D02*
G01*
X152104803Y-110556684D01*
X152128007Y-110562496D01*
X152150529Y-110570554D01*
X152172153Y-110580782D01*
X152192670Y-110593079D01*
X152211883Y-110607329D01*
X152229607Y-110623393D01*
X152245671Y-110641117D01*
X152259921Y-110660330D01*
X152272218Y-110680847D01*
X152282446Y-110702471D01*
X152290504Y-110724993D01*
X152296316Y-110748197D01*
X152299826Y-110771858D01*
X152301000Y-110795750D01*
X152301000Y-111708250D01*
X152299826Y-111732142D01*
X152296316Y-111755803D01*
X152290504Y-111779007D01*
X152282446Y-111801529D01*
X152272218Y-111823153D01*
X152259921Y-111843670D01*
X152245671Y-111862883D01*
X152229607Y-111880607D01*
X152211883Y-111896671D01*
X152192670Y-111910921D01*
X152172153Y-111923218D01*
X152150529Y-111933446D01*
X152128007Y-111941504D01*
X152104803Y-111947316D01*
X152081142Y-111950826D01*
X152057250Y-111952000D01*
X151569750Y-111952000D01*
X151545858Y-111950826D01*
X151522197Y-111947316D01*
X151498993Y-111941504D01*
X151476471Y-111933446D01*
X151454847Y-111923218D01*
X151434330Y-111910921D01*
X151415117Y-111896671D01*
X151397393Y-111880607D01*
X151381329Y-111862883D01*
X151367079Y-111843670D01*
X151354782Y-111823153D01*
X151344554Y-111801529D01*
X151336496Y-111779007D01*
X151330684Y-111755803D01*
X151327174Y-111732142D01*
X151326000Y-111708250D01*
X151326000Y-110795750D01*
X151327174Y-110771858D01*
X151330684Y-110748197D01*
X151336496Y-110724993D01*
X151344554Y-110702471D01*
X151354782Y-110680847D01*
X151367079Y-110660330D01*
X151381329Y-110641117D01*
X151397393Y-110623393D01*
X151415117Y-110607329D01*
X151434330Y-110593079D01*
X151454847Y-110580782D01*
X151476471Y-110570554D01*
X151498993Y-110562496D01*
X151522197Y-110556684D01*
X151545858Y-110553174D01*
X151569750Y-110552000D01*
X152057250Y-110552000D01*
X152081142Y-110553174D01*
G37*
G36*
X150206142Y-110553174D02*
G01*
X150229803Y-110556684D01*
X150253007Y-110562496D01*
X150275529Y-110570554D01*
X150297153Y-110580782D01*
X150317670Y-110593079D01*
X150336883Y-110607329D01*
X150354607Y-110623393D01*
X150370671Y-110641117D01*
X150384921Y-110660330D01*
X150397218Y-110680847D01*
X150407446Y-110702471D01*
X150415504Y-110724993D01*
X150421316Y-110748197D01*
X150424826Y-110771858D01*
X150426000Y-110795750D01*
X150426000Y-111708250D01*
X150424826Y-111732142D01*
X150421316Y-111755803D01*
X150415504Y-111779007D01*
X150407446Y-111801529D01*
X150397218Y-111823153D01*
X150384921Y-111843670D01*
X150370671Y-111862883D01*
X150354607Y-111880607D01*
X150336883Y-111896671D01*
X150317670Y-111910921D01*
X150297153Y-111923218D01*
X150275529Y-111933446D01*
X150253007Y-111941504D01*
X150229803Y-111947316D01*
X150206142Y-111950826D01*
X150182250Y-111952000D01*
X149694750Y-111952000D01*
X149670858Y-111950826D01*
X149647197Y-111947316D01*
X149623993Y-111941504D01*
X149601471Y-111933446D01*
X149579847Y-111923218D01*
X149559330Y-111910921D01*
X149540117Y-111896671D01*
X149522393Y-111880607D01*
X149506329Y-111862883D01*
X149492079Y-111843670D01*
X149479782Y-111823153D01*
X149469554Y-111801529D01*
X149461496Y-111779007D01*
X149455684Y-111755803D01*
X149452174Y-111732142D01*
X149451000Y-111708250D01*
X149451000Y-110795750D01*
X149452174Y-110771858D01*
X149455684Y-110748197D01*
X149461496Y-110724993D01*
X149469554Y-110702471D01*
X149479782Y-110680847D01*
X149492079Y-110660330D01*
X149506329Y-110641117D01*
X149522393Y-110623393D01*
X149540117Y-110607329D01*
X149559330Y-110593079D01*
X149579847Y-110580782D01*
X149601471Y-110570554D01*
X149623993Y-110562496D01*
X149647197Y-110556684D01*
X149670858Y-110553174D01*
X149694750Y-110552000D01*
X150182250Y-110552000D01*
X150206142Y-110553174D01*
G37*
M02*
