G04 #@! TF.GenerationSoftware,KiCad,Pcbnew,(5.1.5-0-10_14)*
G04 #@! TF.CreationDate,2020-05-05T19:25:00-07:00*
G04 #@! TF.ProjectId,N64 UltraCIC II Breakout,4e363420-556c-4747-9261-434943204949,rev?*
G04 #@! TF.SameCoordinates,Original*
G04 #@! TF.FileFunction,Soldermask,Top*
G04 #@! TF.FilePolarity,Negative*
%FSLAX46Y46*%
G04 Gerber Fmt 4.6, Leading zero omitted, Abs format (unit mm)*
G04 Created by KiCad (PCBNEW (5.1.5-0-10_14)) date 2020-05-05 19:25:00*
%MOMM*%
%LPD*%
G04 APERTURE LIST*
%ADD10C,0.100000*%
G04 APERTURE END LIST*
D10*
G36*
X157593512Y-115943927D02*
G01*
X157742812Y-115973624D01*
X157906784Y-116041544D01*
X158054354Y-116140147D01*
X158179853Y-116265646D01*
X158278456Y-116413216D01*
X158346376Y-116577188D01*
X158381000Y-116751259D01*
X158381000Y-116928741D01*
X158346376Y-117102812D01*
X158278456Y-117266784D01*
X158179853Y-117414354D01*
X158054354Y-117539853D01*
X157906784Y-117638456D01*
X157742812Y-117706376D01*
X157593512Y-117736073D01*
X157568742Y-117741000D01*
X157391258Y-117741000D01*
X157366488Y-117736073D01*
X157217188Y-117706376D01*
X157053216Y-117638456D01*
X156905646Y-117539853D01*
X156780147Y-117414354D01*
X156681544Y-117266784D01*
X156613624Y-117102812D01*
X156579000Y-116928741D01*
X156579000Y-116751259D01*
X156613624Y-116577188D01*
X156681544Y-116413216D01*
X156780147Y-116265646D01*
X156905646Y-116140147D01*
X157053216Y-116041544D01*
X157217188Y-115973624D01*
X157366488Y-115943927D01*
X157391258Y-115939000D01*
X157568742Y-115939000D01*
X157593512Y-115943927D01*
G37*
G36*
X155053512Y-115943927D02*
G01*
X155202812Y-115973624D01*
X155366784Y-116041544D01*
X155514354Y-116140147D01*
X155639853Y-116265646D01*
X155738456Y-116413216D01*
X155806376Y-116577188D01*
X155841000Y-116751259D01*
X155841000Y-116928741D01*
X155806376Y-117102812D01*
X155738456Y-117266784D01*
X155639853Y-117414354D01*
X155514354Y-117539853D01*
X155366784Y-117638456D01*
X155202812Y-117706376D01*
X155053512Y-117736073D01*
X155028742Y-117741000D01*
X154851258Y-117741000D01*
X154826488Y-117736073D01*
X154677188Y-117706376D01*
X154513216Y-117638456D01*
X154365646Y-117539853D01*
X154240147Y-117414354D01*
X154141544Y-117266784D01*
X154073624Y-117102812D01*
X154039000Y-116928741D01*
X154039000Y-116751259D01*
X154073624Y-116577188D01*
X154141544Y-116413216D01*
X154240147Y-116265646D01*
X154365646Y-116140147D01*
X154513216Y-116041544D01*
X154677188Y-115973624D01*
X154826488Y-115943927D01*
X154851258Y-115939000D01*
X155028742Y-115939000D01*
X155053512Y-115943927D01*
G37*
G36*
X152513512Y-115943927D02*
G01*
X152662812Y-115973624D01*
X152826784Y-116041544D01*
X152974354Y-116140147D01*
X153099853Y-116265646D01*
X153198456Y-116413216D01*
X153266376Y-116577188D01*
X153301000Y-116751259D01*
X153301000Y-116928741D01*
X153266376Y-117102812D01*
X153198456Y-117266784D01*
X153099853Y-117414354D01*
X152974354Y-117539853D01*
X152826784Y-117638456D01*
X152662812Y-117706376D01*
X152513512Y-117736073D01*
X152488742Y-117741000D01*
X152311258Y-117741000D01*
X152286488Y-117736073D01*
X152137188Y-117706376D01*
X151973216Y-117638456D01*
X151825646Y-117539853D01*
X151700147Y-117414354D01*
X151601544Y-117266784D01*
X151533624Y-117102812D01*
X151499000Y-116928741D01*
X151499000Y-116751259D01*
X151533624Y-116577188D01*
X151601544Y-116413216D01*
X151700147Y-116265646D01*
X151825646Y-116140147D01*
X151973216Y-116041544D01*
X152137188Y-115973624D01*
X152286488Y-115943927D01*
X152311258Y-115939000D01*
X152488742Y-115939000D01*
X152513512Y-115943927D01*
G37*
G36*
X149973512Y-115943927D02*
G01*
X150122812Y-115973624D01*
X150286784Y-116041544D01*
X150434354Y-116140147D01*
X150559853Y-116265646D01*
X150658456Y-116413216D01*
X150726376Y-116577188D01*
X150761000Y-116751259D01*
X150761000Y-116928741D01*
X150726376Y-117102812D01*
X150658456Y-117266784D01*
X150559853Y-117414354D01*
X150434354Y-117539853D01*
X150286784Y-117638456D01*
X150122812Y-117706376D01*
X149973512Y-117736073D01*
X149948742Y-117741000D01*
X149771258Y-117741000D01*
X149746488Y-117736073D01*
X149597188Y-117706376D01*
X149433216Y-117638456D01*
X149285646Y-117539853D01*
X149160147Y-117414354D01*
X149061544Y-117266784D01*
X148993624Y-117102812D01*
X148959000Y-116928741D01*
X148959000Y-116751259D01*
X148993624Y-116577188D01*
X149061544Y-116413216D01*
X149160147Y-116265646D01*
X149285646Y-116140147D01*
X149433216Y-116041544D01*
X149597188Y-115973624D01*
X149746488Y-115943927D01*
X149771258Y-115939000D01*
X149948742Y-115939000D01*
X149973512Y-115943927D01*
G37*
G36*
X155053512Y-113403927D02*
G01*
X155202812Y-113433624D01*
X155366784Y-113501544D01*
X155514354Y-113600147D01*
X155639853Y-113725646D01*
X155738456Y-113873216D01*
X155806376Y-114037188D01*
X155841000Y-114211259D01*
X155841000Y-114388741D01*
X155806376Y-114562812D01*
X155738456Y-114726784D01*
X155639853Y-114874354D01*
X155514354Y-114999853D01*
X155366784Y-115098456D01*
X155202812Y-115166376D01*
X155053512Y-115196073D01*
X155028742Y-115201000D01*
X154851258Y-115201000D01*
X154826488Y-115196073D01*
X154677188Y-115166376D01*
X154513216Y-115098456D01*
X154365646Y-114999853D01*
X154240147Y-114874354D01*
X154141544Y-114726784D01*
X154073624Y-114562812D01*
X154039000Y-114388741D01*
X154039000Y-114211259D01*
X154073624Y-114037188D01*
X154141544Y-113873216D01*
X154240147Y-113725646D01*
X154365646Y-113600147D01*
X154513216Y-113501544D01*
X154677188Y-113433624D01*
X154826488Y-113403927D01*
X154851258Y-113399000D01*
X155028742Y-113399000D01*
X155053512Y-113403927D01*
G37*
G36*
X158381000Y-115201000D02*
G01*
X156579000Y-115201000D01*
X156579000Y-113399000D01*
X158381000Y-113399000D01*
X158381000Y-115201000D01*
G37*
G36*
X152513512Y-113403927D02*
G01*
X152662812Y-113433624D01*
X152826784Y-113501544D01*
X152974354Y-113600147D01*
X153099853Y-113725646D01*
X153198456Y-113873216D01*
X153266376Y-114037188D01*
X153301000Y-114211259D01*
X153301000Y-114388741D01*
X153266376Y-114562812D01*
X153198456Y-114726784D01*
X153099853Y-114874354D01*
X152974354Y-114999853D01*
X152826784Y-115098456D01*
X152662812Y-115166376D01*
X152513512Y-115196073D01*
X152488742Y-115201000D01*
X152311258Y-115201000D01*
X152286488Y-115196073D01*
X152137188Y-115166376D01*
X151973216Y-115098456D01*
X151825646Y-114999853D01*
X151700147Y-114874354D01*
X151601544Y-114726784D01*
X151533624Y-114562812D01*
X151499000Y-114388741D01*
X151499000Y-114211259D01*
X151533624Y-114037188D01*
X151601544Y-113873216D01*
X151700147Y-113725646D01*
X151825646Y-113600147D01*
X151973216Y-113501544D01*
X152137188Y-113433624D01*
X152286488Y-113403927D01*
X152311258Y-113399000D01*
X152488742Y-113399000D01*
X152513512Y-113403927D01*
G37*
G36*
X149973512Y-113403927D02*
G01*
X150122812Y-113433624D01*
X150286784Y-113501544D01*
X150434354Y-113600147D01*
X150559853Y-113725646D01*
X150658456Y-113873216D01*
X150726376Y-114037188D01*
X150761000Y-114211259D01*
X150761000Y-114388741D01*
X150726376Y-114562812D01*
X150658456Y-114726784D01*
X150559853Y-114874354D01*
X150434354Y-114999853D01*
X150286784Y-115098456D01*
X150122812Y-115166376D01*
X149973512Y-115196073D01*
X149948742Y-115201000D01*
X149771258Y-115201000D01*
X149746488Y-115196073D01*
X149597188Y-115166376D01*
X149433216Y-115098456D01*
X149285646Y-114999853D01*
X149160147Y-114874354D01*
X149061544Y-114726784D01*
X148993624Y-114562812D01*
X148959000Y-114388741D01*
X148959000Y-114211259D01*
X148993624Y-114037188D01*
X149061544Y-113873216D01*
X149160147Y-113725646D01*
X149285646Y-113600147D01*
X149433216Y-113501544D01*
X149597188Y-113433624D01*
X149746488Y-113403927D01*
X149771258Y-113399000D01*
X149948742Y-113399000D01*
X149973512Y-113403927D01*
G37*
G36*
X157773468Y-110505565D02*
G01*
X157812138Y-110517296D01*
X157847777Y-110536346D01*
X157879017Y-110561983D01*
X157904654Y-110593223D01*
X157923704Y-110628862D01*
X157935435Y-110667532D01*
X157940000Y-110713888D01*
X157940000Y-111790112D01*
X157935435Y-111836468D01*
X157923704Y-111875138D01*
X157904654Y-111910777D01*
X157879017Y-111942017D01*
X157847777Y-111967654D01*
X157812138Y-111986704D01*
X157773468Y-111998435D01*
X157727112Y-112003000D01*
X157075888Y-112003000D01*
X157029532Y-111998435D01*
X156990862Y-111986704D01*
X156955223Y-111967654D01*
X156923983Y-111942017D01*
X156898346Y-111910777D01*
X156879296Y-111875138D01*
X156867565Y-111836468D01*
X156863000Y-111790112D01*
X156863000Y-110713888D01*
X156867565Y-110667532D01*
X156879296Y-110628862D01*
X156898346Y-110593223D01*
X156923983Y-110561983D01*
X156955223Y-110536346D01*
X156990862Y-110517296D01*
X157029532Y-110505565D01*
X157075888Y-110501000D01*
X157727112Y-110501000D01*
X157773468Y-110505565D01*
G37*
G36*
X150310468Y-110505565D02*
G01*
X150349138Y-110517296D01*
X150384777Y-110536346D01*
X150416017Y-110561983D01*
X150441654Y-110593223D01*
X150460704Y-110628862D01*
X150472435Y-110667532D01*
X150477000Y-110713888D01*
X150477000Y-111790112D01*
X150472435Y-111836468D01*
X150460704Y-111875138D01*
X150441654Y-111910777D01*
X150416017Y-111942017D01*
X150384777Y-111967654D01*
X150349138Y-111986704D01*
X150310468Y-111998435D01*
X150264112Y-112003000D01*
X149612888Y-112003000D01*
X149566532Y-111998435D01*
X149527862Y-111986704D01*
X149492223Y-111967654D01*
X149460983Y-111942017D01*
X149435346Y-111910777D01*
X149416296Y-111875138D01*
X149404565Y-111836468D01*
X149400000Y-111790112D01*
X149400000Y-110713888D01*
X149404565Y-110667532D01*
X149416296Y-110628862D01*
X149435346Y-110593223D01*
X149460983Y-110561983D01*
X149492223Y-110536346D01*
X149527862Y-110517296D01*
X149566532Y-110505565D01*
X149612888Y-110501000D01*
X150264112Y-110501000D01*
X150310468Y-110505565D01*
G37*
G36*
X152185468Y-110505565D02*
G01*
X152224138Y-110517296D01*
X152259777Y-110536346D01*
X152291017Y-110561983D01*
X152316654Y-110593223D01*
X152335704Y-110628862D01*
X152347435Y-110667532D01*
X152352000Y-110713888D01*
X152352000Y-111790112D01*
X152347435Y-111836468D01*
X152335704Y-111875138D01*
X152316654Y-111910777D01*
X152291017Y-111942017D01*
X152259777Y-111967654D01*
X152224138Y-111986704D01*
X152185468Y-111998435D01*
X152139112Y-112003000D01*
X151487888Y-112003000D01*
X151441532Y-111998435D01*
X151402862Y-111986704D01*
X151367223Y-111967654D01*
X151335983Y-111942017D01*
X151310346Y-111910777D01*
X151291296Y-111875138D01*
X151279565Y-111836468D01*
X151275000Y-111790112D01*
X151275000Y-110713888D01*
X151279565Y-110667532D01*
X151291296Y-110628862D01*
X151310346Y-110593223D01*
X151335983Y-110561983D01*
X151367223Y-110536346D01*
X151402862Y-110517296D01*
X151441532Y-110505565D01*
X151487888Y-110501000D01*
X152139112Y-110501000D01*
X152185468Y-110505565D01*
G37*
G36*
X155898468Y-110505565D02*
G01*
X155937138Y-110517296D01*
X155972777Y-110536346D01*
X156004017Y-110561983D01*
X156029654Y-110593223D01*
X156048704Y-110628862D01*
X156060435Y-110667532D01*
X156065000Y-110713888D01*
X156065000Y-111790112D01*
X156060435Y-111836468D01*
X156048704Y-111875138D01*
X156029654Y-111910777D01*
X156004017Y-111942017D01*
X155972777Y-111967654D01*
X155937138Y-111986704D01*
X155898468Y-111998435D01*
X155852112Y-112003000D01*
X155200888Y-112003000D01*
X155154532Y-111998435D01*
X155115862Y-111986704D01*
X155080223Y-111967654D01*
X155048983Y-111942017D01*
X155023346Y-111910777D01*
X155004296Y-111875138D01*
X154992565Y-111836468D01*
X154988000Y-111790112D01*
X154988000Y-110713888D01*
X154992565Y-110667532D01*
X155004296Y-110628862D01*
X155023346Y-110593223D01*
X155048983Y-110561983D01*
X155080223Y-110536346D01*
X155115862Y-110517296D01*
X155154532Y-110505565D01*
X155200888Y-110501000D01*
X155852112Y-110501000D01*
X155898468Y-110505565D01*
G37*
G36*
X150921000Y-108961000D02*
G01*
X149119000Y-108961000D01*
X149119000Y-108209000D01*
X150921000Y-108209000D01*
X150921000Y-108961000D01*
G37*
G36*
X158221000Y-108961000D02*
G01*
X156419000Y-108961000D01*
X156419000Y-108209000D01*
X158221000Y-108209000D01*
X158221000Y-108961000D01*
G37*
G36*
X150921000Y-107691000D02*
G01*
X149119000Y-107691000D01*
X149119000Y-106939000D01*
X150921000Y-106939000D01*
X150921000Y-107691000D01*
G37*
G36*
X158221000Y-107691000D02*
G01*
X156419000Y-107691000D01*
X156419000Y-106939000D01*
X158221000Y-106939000D01*
X158221000Y-107691000D01*
G37*
G36*
X150921000Y-106421000D02*
G01*
X149119000Y-106421000D01*
X149119000Y-105669000D01*
X150921000Y-105669000D01*
X150921000Y-106421000D01*
G37*
G36*
X158221000Y-106421000D02*
G01*
X156419000Y-106421000D01*
X156419000Y-105669000D01*
X158221000Y-105669000D01*
X158221000Y-106421000D01*
G37*
G36*
X158221000Y-105151000D02*
G01*
X156419000Y-105151000D01*
X156419000Y-104399000D01*
X158221000Y-104399000D01*
X158221000Y-105151000D01*
G37*
G36*
X150921000Y-105151000D02*
G01*
X149119000Y-105151000D01*
X149119000Y-104399000D01*
X150921000Y-104399000D01*
X150921000Y-105151000D01*
G37*
M02*
