G04 #@! TF.GenerationSoftware,KiCad,Pcbnew,(5.1.5-0-10_14)*
G04 #@! TF.CreationDate,2020-05-05T19:25:00-07:00*
G04 #@! TF.ProjectId,N64 UltraCIC II Breakout,4e363420-556c-4747-9261-434943204949,rev?*
G04 #@! TF.SameCoordinates,Original*
G04 #@! TF.FileFunction,Copper,L1,Top*
G04 #@! TF.FilePolarity,Positive*
%FSLAX46Y46*%
G04 Gerber Fmt 4.6, Leading zero omitted, Abs format (unit mm)*
G04 Created by KiCad (PCBNEW (5.1.5-0-10_14)) date 2020-05-05 19:25:00*
%MOMM*%
%LPD*%
G04 APERTURE LIST*
%ADD10O,1.700000X1.700000*%
%ADD11R,1.700000X1.700000*%
%ADD12R,1.700000X0.650000*%
%ADD13C,0.100000*%
%ADD14C,0.600000*%
%ADD15C,0.304800*%
%ADD16C,0.152400*%
G04 APERTURE END LIST*
D10*
X149860000Y-116840000D03*
X149860000Y-114300000D03*
X152400000Y-116840000D03*
X152400000Y-114300000D03*
X154940000Y-116840000D03*
X154940000Y-114300000D03*
X157480000Y-116840000D03*
D11*
X157480000Y-114300000D03*
D12*
X150020000Y-108585000D03*
X150020000Y-107315000D03*
X150020000Y-106045000D03*
X150020000Y-104775000D03*
X157320000Y-104775000D03*
X157320000Y-106045000D03*
X157320000Y-107315000D03*
X157320000Y-108585000D03*
G04 #@! TA.AperFunction,SMDPad,CuDef*
D13*
G36*
X155794142Y-110553174D02*
G01*
X155817803Y-110556684D01*
X155841007Y-110562496D01*
X155863529Y-110570554D01*
X155885153Y-110580782D01*
X155905670Y-110593079D01*
X155924883Y-110607329D01*
X155942607Y-110623393D01*
X155958671Y-110641117D01*
X155972921Y-110660330D01*
X155985218Y-110680847D01*
X155995446Y-110702471D01*
X156003504Y-110724993D01*
X156009316Y-110748197D01*
X156012826Y-110771858D01*
X156014000Y-110795750D01*
X156014000Y-111708250D01*
X156012826Y-111732142D01*
X156009316Y-111755803D01*
X156003504Y-111779007D01*
X155995446Y-111801529D01*
X155985218Y-111823153D01*
X155972921Y-111843670D01*
X155958671Y-111862883D01*
X155942607Y-111880607D01*
X155924883Y-111896671D01*
X155905670Y-111910921D01*
X155885153Y-111923218D01*
X155863529Y-111933446D01*
X155841007Y-111941504D01*
X155817803Y-111947316D01*
X155794142Y-111950826D01*
X155770250Y-111952000D01*
X155282750Y-111952000D01*
X155258858Y-111950826D01*
X155235197Y-111947316D01*
X155211993Y-111941504D01*
X155189471Y-111933446D01*
X155167847Y-111923218D01*
X155147330Y-111910921D01*
X155128117Y-111896671D01*
X155110393Y-111880607D01*
X155094329Y-111862883D01*
X155080079Y-111843670D01*
X155067782Y-111823153D01*
X155057554Y-111801529D01*
X155049496Y-111779007D01*
X155043684Y-111755803D01*
X155040174Y-111732142D01*
X155039000Y-111708250D01*
X155039000Y-110795750D01*
X155040174Y-110771858D01*
X155043684Y-110748197D01*
X155049496Y-110724993D01*
X155057554Y-110702471D01*
X155067782Y-110680847D01*
X155080079Y-110660330D01*
X155094329Y-110641117D01*
X155110393Y-110623393D01*
X155128117Y-110607329D01*
X155147330Y-110593079D01*
X155167847Y-110580782D01*
X155189471Y-110570554D01*
X155211993Y-110562496D01*
X155235197Y-110556684D01*
X155258858Y-110553174D01*
X155282750Y-110552000D01*
X155770250Y-110552000D01*
X155794142Y-110553174D01*
G37*
G04 #@! TD.AperFunction*
G04 #@! TA.AperFunction,SMDPad,CuDef*
G36*
X157669142Y-110553174D02*
G01*
X157692803Y-110556684D01*
X157716007Y-110562496D01*
X157738529Y-110570554D01*
X157760153Y-110580782D01*
X157780670Y-110593079D01*
X157799883Y-110607329D01*
X157817607Y-110623393D01*
X157833671Y-110641117D01*
X157847921Y-110660330D01*
X157860218Y-110680847D01*
X157870446Y-110702471D01*
X157878504Y-110724993D01*
X157884316Y-110748197D01*
X157887826Y-110771858D01*
X157889000Y-110795750D01*
X157889000Y-111708250D01*
X157887826Y-111732142D01*
X157884316Y-111755803D01*
X157878504Y-111779007D01*
X157870446Y-111801529D01*
X157860218Y-111823153D01*
X157847921Y-111843670D01*
X157833671Y-111862883D01*
X157817607Y-111880607D01*
X157799883Y-111896671D01*
X157780670Y-111910921D01*
X157760153Y-111923218D01*
X157738529Y-111933446D01*
X157716007Y-111941504D01*
X157692803Y-111947316D01*
X157669142Y-111950826D01*
X157645250Y-111952000D01*
X157157750Y-111952000D01*
X157133858Y-111950826D01*
X157110197Y-111947316D01*
X157086993Y-111941504D01*
X157064471Y-111933446D01*
X157042847Y-111923218D01*
X157022330Y-111910921D01*
X157003117Y-111896671D01*
X156985393Y-111880607D01*
X156969329Y-111862883D01*
X156955079Y-111843670D01*
X156942782Y-111823153D01*
X156932554Y-111801529D01*
X156924496Y-111779007D01*
X156918684Y-111755803D01*
X156915174Y-111732142D01*
X156914000Y-111708250D01*
X156914000Y-110795750D01*
X156915174Y-110771858D01*
X156918684Y-110748197D01*
X156924496Y-110724993D01*
X156932554Y-110702471D01*
X156942782Y-110680847D01*
X156955079Y-110660330D01*
X156969329Y-110641117D01*
X156985393Y-110623393D01*
X157003117Y-110607329D01*
X157022330Y-110593079D01*
X157042847Y-110580782D01*
X157064471Y-110570554D01*
X157086993Y-110562496D01*
X157110197Y-110556684D01*
X157133858Y-110553174D01*
X157157750Y-110552000D01*
X157645250Y-110552000D01*
X157669142Y-110553174D01*
G37*
G04 #@! TD.AperFunction*
G04 #@! TA.AperFunction,SMDPad,CuDef*
G36*
X152081142Y-110553174D02*
G01*
X152104803Y-110556684D01*
X152128007Y-110562496D01*
X152150529Y-110570554D01*
X152172153Y-110580782D01*
X152192670Y-110593079D01*
X152211883Y-110607329D01*
X152229607Y-110623393D01*
X152245671Y-110641117D01*
X152259921Y-110660330D01*
X152272218Y-110680847D01*
X152282446Y-110702471D01*
X152290504Y-110724993D01*
X152296316Y-110748197D01*
X152299826Y-110771858D01*
X152301000Y-110795750D01*
X152301000Y-111708250D01*
X152299826Y-111732142D01*
X152296316Y-111755803D01*
X152290504Y-111779007D01*
X152282446Y-111801529D01*
X152272218Y-111823153D01*
X152259921Y-111843670D01*
X152245671Y-111862883D01*
X152229607Y-111880607D01*
X152211883Y-111896671D01*
X152192670Y-111910921D01*
X152172153Y-111923218D01*
X152150529Y-111933446D01*
X152128007Y-111941504D01*
X152104803Y-111947316D01*
X152081142Y-111950826D01*
X152057250Y-111952000D01*
X151569750Y-111952000D01*
X151545858Y-111950826D01*
X151522197Y-111947316D01*
X151498993Y-111941504D01*
X151476471Y-111933446D01*
X151454847Y-111923218D01*
X151434330Y-111910921D01*
X151415117Y-111896671D01*
X151397393Y-111880607D01*
X151381329Y-111862883D01*
X151367079Y-111843670D01*
X151354782Y-111823153D01*
X151344554Y-111801529D01*
X151336496Y-111779007D01*
X151330684Y-111755803D01*
X151327174Y-111732142D01*
X151326000Y-111708250D01*
X151326000Y-110795750D01*
X151327174Y-110771858D01*
X151330684Y-110748197D01*
X151336496Y-110724993D01*
X151344554Y-110702471D01*
X151354782Y-110680847D01*
X151367079Y-110660330D01*
X151381329Y-110641117D01*
X151397393Y-110623393D01*
X151415117Y-110607329D01*
X151434330Y-110593079D01*
X151454847Y-110580782D01*
X151476471Y-110570554D01*
X151498993Y-110562496D01*
X151522197Y-110556684D01*
X151545858Y-110553174D01*
X151569750Y-110552000D01*
X152057250Y-110552000D01*
X152081142Y-110553174D01*
G37*
G04 #@! TD.AperFunction*
G04 #@! TA.AperFunction,SMDPad,CuDef*
G36*
X150206142Y-110553174D02*
G01*
X150229803Y-110556684D01*
X150253007Y-110562496D01*
X150275529Y-110570554D01*
X150297153Y-110580782D01*
X150317670Y-110593079D01*
X150336883Y-110607329D01*
X150354607Y-110623393D01*
X150370671Y-110641117D01*
X150384921Y-110660330D01*
X150397218Y-110680847D01*
X150407446Y-110702471D01*
X150415504Y-110724993D01*
X150421316Y-110748197D01*
X150424826Y-110771858D01*
X150426000Y-110795750D01*
X150426000Y-111708250D01*
X150424826Y-111732142D01*
X150421316Y-111755803D01*
X150415504Y-111779007D01*
X150407446Y-111801529D01*
X150397218Y-111823153D01*
X150384921Y-111843670D01*
X150370671Y-111862883D01*
X150354607Y-111880607D01*
X150336883Y-111896671D01*
X150317670Y-111910921D01*
X150297153Y-111923218D01*
X150275529Y-111933446D01*
X150253007Y-111941504D01*
X150229803Y-111947316D01*
X150206142Y-111950826D01*
X150182250Y-111952000D01*
X149694750Y-111952000D01*
X149670858Y-111950826D01*
X149647197Y-111947316D01*
X149623993Y-111941504D01*
X149601471Y-111933446D01*
X149579847Y-111923218D01*
X149559330Y-111910921D01*
X149540117Y-111896671D01*
X149522393Y-111880607D01*
X149506329Y-111862883D01*
X149492079Y-111843670D01*
X149479782Y-111823153D01*
X149469554Y-111801529D01*
X149461496Y-111779007D01*
X149455684Y-111755803D01*
X149452174Y-111732142D01*
X149451000Y-111708250D01*
X149451000Y-110795750D01*
X149452174Y-110771858D01*
X149455684Y-110748197D01*
X149461496Y-110724993D01*
X149469554Y-110702471D01*
X149479782Y-110680847D01*
X149492079Y-110660330D01*
X149506329Y-110641117D01*
X149522393Y-110623393D01*
X149540117Y-110607329D01*
X149559330Y-110593079D01*
X149579847Y-110580782D01*
X149601471Y-110570554D01*
X149623993Y-110562496D01*
X149647197Y-110556684D01*
X149670858Y-110553174D01*
X149694750Y-110552000D01*
X150182250Y-110552000D01*
X150206142Y-110553174D01*
G37*
G04 #@! TD.AperFunction*
D14*
X152908000Y-111760000D03*
X152908000Y-110744000D03*
X154432000Y-110744000D03*
X154432000Y-111760000D03*
X151638000Y-104775000D03*
D15*
X152908000Y-110744000D02*
X152400000Y-111252000D01*
X152400000Y-111252000D02*
X152908000Y-111760000D01*
X152400000Y-111252000D02*
X151813500Y-111252000D01*
X154432000Y-110744000D02*
X154940000Y-111252000D01*
X154940000Y-111252000D02*
X154432000Y-111760000D01*
X154940000Y-111252000D02*
X155526500Y-111252000D01*
X150020000Y-104775000D02*
X151638000Y-104775000D01*
X151638000Y-104775000D02*
X157320000Y-104775000D01*
X148590000Y-115570000D02*
X149010001Y-115990001D01*
X148590000Y-112600500D02*
X148590000Y-115570000D01*
X149010001Y-115990001D02*
X149860000Y-116840000D01*
X149938500Y-111252000D02*
X148590000Y-112600500D01*
X149938500Y-108666500D02*
X150020000Y-108585000D01*
X158750000Y-117348000D02*
X158750000Y-112600500D01*
X158750000Y-112600500D02*
X157887027Y-111737527D01*
X157887027Y-111737527D02*
X157401500Y-111252000D01*
X157861000Y-118237000D02*
X158750000Y-117348000D01*
X151257000Y-118237000D02*
X157861000Y-118237000D01*
X149860000Y-116840000D02*
X151257000Y-118237000D01*
X149938500Y-111252000D02*
X149938500Y-108666500D01*
D16*
X151130000Y-109394741D02*
X151130000Y-107696000D01*
X150876000Y-109648741D02*
X151130000Y-109394741D01*
X149860000Y-113284000D02*
X150876000Y-112268000D01*
X150749000Y-107315000D02*
X150020000Y-107315000D01*
X151130000Y-107696000D02*
X150749000Y-107315000D01*
X149860000Y-114300000D02*
X149860000Y-113284000D01*
X150876000Y-112268000D02*
X150876000Y-109648741D01*
X153478601Y-108501201D02*
X151022400Y-106045000D01*
X151022400Y-106045000D02*
X150020000Y-106045000D01*
X152400000Y-116840000D02*
X153478601Y-115761399D01*
X153478601Y-115761399D02*
X153478601Y-108501201D01*
X153797000Y-109835600D02*
X156317600Y-107315000D01*
X156317600Y-107315000D02*
X157320000Y-107315000D01*
X154559000Y-112903000D02*
X153797000Y-112141000D01*
X155575000Y-112903000D02*
X154559000Y-112903000D01*
X156210000Y-113538000D02*
X155575000Y-112903000D01*
X156210000Y-115570000D02*
X156210000Y-113538000D01*
X157480000Y-116840000D02*
X156210000Y-115570000D01*
X153797000Y-112141000D02*
X153797000Y-109835600D01*
X157320000Y-109062400D02*
X157320000Y-108585000D01*
X156464000Y-109918400D02*
X157320000Y-109062400D01*
X157480000Y-113284000D02*
X156464000Y-112268000D01*
X157480000Y-114300000D02*
X157480000Y-113284000D01*
X156464000Y-112268000D02*
X156464000Y-109918400D01*
G36*
X159918800Y-119278800D02*
G01*
X147421200Y-119278800D01*
X147421200Y-112600500D01*
X148207157Y-112600500D01*
X148209000Y-112619210D01*
X148209001Y-115551280D01*
X148207157Y-115570000D01*
X148214514Y-115644688D01*
X148236299Y-115716507D01*
X148271678Y-115782696D01*
X148301010Y-115818437D01*
X148319290Y-115840711D01*
X148333827Y-115852641D01*
X148753825Y-116272640D01*
X148753830Y-116272644D01*
X148876660Y-116395474D01*
X148822850Y-116525384D01*
X148781400Y-116733767D01*
X148781400Y-116946233D01*
X148822850Y-117154616D01*
X148904157Y-117350909D01*
X149022197Y-117527567D01*
X149172433Y-117677803D01*
X149349091Y-117795843D01*
X149545384Y-117877150D01*
X149753767Y-117918600D01*
X149966233Y-117918600D01*
X150174616Y-117877150D01*
X150304525Y-117823340D01*
X150974359Y-118493174D01*
X150986289Y-118507711D01*
X151000824Y-118519639D01*
X151044303Y-118555322D01*
X151067359Y-118567645D01*
X151110492Y-118590701D01*
X151182311Y-118612487D01*
X151238287Y-118618000D01*
X151238296Y-118618000D01*
X151256999Y-118619842D01*
X151275702Y-118618000D01*
X157842290Y-118618000D01*
X157861000Y-118619843D01*
X157879710Y-118618000D01*
X157879713Y-118618000D01*
X157935689Y-118612487D01*
X158007508Y-118590701D01*
X158073696Y-118555322D01*
X158131711Y-118507711D01*
X158143646Y-118493168D01*
X159006175Y-117630640D01*
X159020711Y-117618711D01*
X159044250Y-117590028D01*
X159068322Y-117560697D01*
X159103701Y-117494508D01*
X159103701Y-117494507D01*
X159125487Y-117422689D01*
X159131000Y-117366713D01*
X159131000Y-117366710D01*
X159132843Y-117348000D01*
X159131000Y-117329290D01*
X159131000Y-112619209D01*
X159132843Y-112600499D01*
X159129680Y-112568389D01*
X159125487Y-112525811D01*
X159103701Y-112453992D01*
X159100110Y-112447274D01*
X159068322Y-112387803D01*
X159032639Y-112344324D01*
X159020711Y-112329789D01*
X159006174Y-112317859D01*
X158169670Y-111481356D01*
X158169666Y-111481351D01*
X158118706Y-111430391D01*
X158118706Y-110795750D01*
X158109609Y-110703383D01*
X158082666Y-110614566D01*
X158038914Y-110532712D01*
X157980034Y-110460966D01*
X157908288Y-110402086D01*
X157826434Y-110358334D01*
X157737617Y-110331391D01*
X157645250Y-110322294D01*
X157157750Y-110322294D01*
X157065383Y-110331391D01*
X156976566Y-110358334D01*
X156894712Y-110402086D01*
X156822966Y-110460966D01*
X156768800Y-110526968D01*
X156768800Y-110044651D01*
X157524945Y-109288507D01*
X157536568Y-109278968D01*
X157574658Y-109232557D01*
X157602960Y-109179606D01*
X157615064Y-109139706D01*
X158170000Y-109139706D01*
X158214813Y-109135292D01*
X158257905Y-109122221D01*
X158297618Y-109100994D01*
X158332427Y-109072427D01*
X158360994Y-109037618D01*
X158382221Y-108997905D01*
X158395292Y-108954813D01*
X158399706Y-108910000D01*
X158399706Y-108260000D01*
X158395292Y-108215187D01*
X158382221Y-108172095D01*
X158360994Y-108132382D01*
X158332427Y-108097573D01*
X158297618Y-108069006D01*
X158257905Y-108047779D01*
X158214813Y-108034708D01*
X158170000Y-108030294D01*
X156470000Y-108030294D01*
X156425187Y-108034708D01*
X156382095Y-108047779D01*
X156342382Y-108069006D01*
X156307573Y-108097573D01*
X156279006Y-108132382D01*
X156257779Y-108172095D01*
X156244708Y-108215187D01*
X156240294Y-108260000D01*
X156240294Y-108910000D01*
X156244708Y-108954813D01*
X156257779Y-108997905D01*
X156279006Y-109037618D01*
X156307573Y-109072427D01*
X156342382Y-109100994D01*
X156382095Y-109122221D01*
X156425187Y-109135292D01*
X156470000Y-109139706D01*
X156811642Y-109139706D01*
X156259057Y-109692292D01*
X156247433Y-109701832D01*
X156237893Y-109713456D01*
X156237892Y-109713457D01*
X156231449Y-109721307D01*
X156209343Y-109748243D01*
X156199881Y-109765946D01*
X156181040Y-109801195D01*
X156163611Y-109858649D01*
X156157727Y-109918400D01*
X156159201Y-109933368D01*
X156159201Y-109985559D01*
X156128523Y-109976253D01*
X156014000Y-109964973D01*
X155850350Y-109967800D01*
X155704300Y-110113850D01*
X155704300Y-111074200D01*
X155724300Y-111074200D01*
X155724300Y-111429800D01*
X155704300Y-111429800D01*
X155704300Y-112390150D01*
X155850350Y-112536200D01*
X156014000Y-112539027D01*
X156128523Y-112527747D01*
X156238646Y-112494342D01*
X156251179Y-112487643D01*
X156259061Y-112494112D01*
X156985242Y-113220294D01*
X156630000Y-113220294D01*
X156585187Y-113224708D01*
X156542095Y-113237779D01*
X156502382Y-113259006D01*
X156467573Y-113287573D01*
X156439006Y-113322382D01*
X156434408Y-113330985D01*
X156426568Y-113321432D01*
X156414944Y-113311892D01*
X155801112Y-112698061D01*
X155791568Y-112686432D01*
X155745157Y-112648342D01*
X155692206Y-112620040D01*
X155634751Y-112602611D01*
X155589966Y-112598200D01*
X155589958Y-112598200D01*
X155575000Y-112596727D01*
X155560042Y-112598200D01*
X154685252Y-112598200D01*
X154101800Y-112014749D01*
X154101800Y-111952000D01*
X154451973Y-111952000D01*
X154463253Y-112066523D01*
X154496658Y-112176646D01*
X154550905Y-112278135D01*
X154623909Y-112367091D01*
X154712865Y-112440095D01*
X154814354Y-112494342D01*
X154924477Y-112527747D01*
X155039000Y-112539027D01*
X155202650Y-112536200D01*
X155348700Y-112390150D01*
X155348700Y-111429800D01*
X154600850Y-111429800D01*
X154454800Y-111575850D01*
X154451973Y-111952000D01*
X154101800Y-111952000D01*
X154101800Y-110552000D01*
X154451973Y-110552000D01*
X154454800Y-110928150D01*
X154600850Y-111074200D01*
X155348700Y-111074200D01*
X155348700Y-110113850D01*
X155202650Y-109967800D01*
X155039000Y-109964973D01*
X154924477Y-109976253D01*
X154814354Y-110009658D01*
X154712865Y-110063905D01*
X154623909Y-110136909D01*
X154550905Y-110225865D01*
X154496658Y-110327354D01*
X154463253Y-110437477D01*
X154451973Y-110552000D01*
X154101800Y-110552000D01*
X154101800Y-109961851D01*
X156286681Y-107776971D01*
X156307573Y-107802427D01*
X156342382Y-107830994D01*
X156382095Y-107852221D01*
X156425187Y-107865292D01*
X156470000Y-107869706D01*
X158170000Y-107869706D01*
X158214813Y-107865292D01*
X158257905Y-107852221D01*
X158297618Y-107830994D01*
X158332427Y-107802427D01*
X158360994Y-107767618D01*
X158382221Y-107727905D01*
X158395292Y-107684813D01*
X158399706Y-107640000D01*
X158399706Y-106990000D01*
X158395292Y-106945187D01*
X158382221Y-106902095D01*
X158360994Y-106862382D01*
X158332427Y-106827573D01*
X158297618Y-106799006D01*
X158257905Y-106777779D01*
X158214813Y-106764708D01*
X158170000Y-106760294D01*
X156470000Y-106760294D01*
X156425187Y-106764708D01*
X156382095Y-106777779D01*
X156342382Y-106799006D01*
X156307573Y-106827573D01*
X156279006Y-106862382D01*
X156257779Y-106902095D01*
X156244708Y-106945187D01*
X156240294Y-106990000D01*
X156240294Y-107019936D01*
X156200394Y-107032040D01*
X156147443Y-107060342D01*
X156101032Y-107098432D01*
X156091492Y-107110056D01*
X153783401Y-109418148D01*
X153783401Y-108516159D01*
X153784874Y-108501201D01*
X153783401Y-108486243D01*
X153783401Y-108486235D01*
X153778990Y-108441450D01*
X153761561Y-108383995D01*
X153733259Y-108331044D01*
X153695169Y-108284633D01*
X153683545Y-108275093D01*
X151248512Y-105840061D01*
X151238968Y-105828432D01*
X151192557Y-105790342D01*
X151139606Y-105762040D01*
X151099706Y-105749936D01*
X151099706Y-105720000D01*
X151095292Y-105675187D01*
X151086114Y-105644930D01*
X151094646Y-105642342D01*
X151196135Y-105588095D01*
X151285091Y-105515091D01*
X151358095Y-105426135D01*
X151412342Y-105324646D01*
X151445747Y-105214523D01*
X151457027Y-105100000D01*
X155882973Y-105100000D01*
X155894253Y-105214523D01*
X155927658Y-105324646D01*
X155981905Y-105426135D01*
X156054909Y-105515091D01*
X156143865Y-105588095D01*
X156245354Y-105642342D01*
X156253886Y-105644930D01*
X156244708Y-105675187D01*
X156240294Y-105720000D01*
X156240294Y-106370000D01*
X156244708Y-106414813D01*
X156257779Y-106457905D01*
X156279006Y-106497618D01*
X156307573Y-106532427D01*
X156342382Y-106560994D01*
X156382095Y-106582221D01*
X156425187Y-106595292D01*
X156470000Y-106599706D01*
X158170000Y-106599706D01*
X158214813Y-106595292D01*
X158257905Y-106582221D01*
X158297618Y-106560994D01*
X158332427Y-106532427D01*
X158360994Y-106497618D01*
X158382221Y-106457905D01*
X158395292Y-106414813D01*
X158399706Y-106370000D01*
X158399706Y-105720000D01*
X158395292Y-105675187D01*
X158386114Y-105644930D01*
X158394646Y-105642342D01*
X158496135Y-105588095D01*
X158585091Y-105515091D01*
X158658095Y-105426135D01*
X158712342Y-105324646D01*
X158745747Y-105214523D01*
X158757027Y-105100000D01*
X158754200Y-105098850D01*
X158608150Y-104952800D01*
X157497800Y-104952800D01*
X157497800Y-104972800D01*
X157142200Y-104972800D01*
X157142200Y-104952800D01*
X156031850Y-104952800D01*
X155885800Y-105098850D01*
X155882973Y-105100000D01*
X151457027Y-105100000D01*
X151454200Y-105098850D01*
X151308150Y-104952800D01*
X150197800Y-104952800D01*
X150197800Y-104972800D01*
X149842200Y-104972800D01*
X149842200Y-104952800D01*
X148731850Y-104952800D01*
X148585800Y-105098850D01*
X148582973Y-105100000D01*
X148594253Y-105214523D01*
X148627658Y-105324646D01*
X148681905Y-105426135D01*
X148754909Y-105515091D01*
X148843865Y-105588095D01*
X148945354Y-105642342D01*
X148953886Y-105644930D01*
X148944708Y-105675187D01*
X148940294Y-105720000D01*
X148940294Y-106370000D01*
X148944708Y-106414813D01*
X148957779Y-106457905D01*
X148979006Y-106497618D01*
X149007573Y-106532427D01*
X149042382Y-106560994D01*
X149082095Y-106582221D01*
X149125187Y-106595292D01*
X149170000Y-106599706D01*
X150870000Y-106599706D01*
X150914813Y-106595292D01*
X150957905Y-106582221D01*
X150997618Y-106560994D01*
X151032427Y-106532427D01*
X151053319Y-106506970D01*
X153173802Y-108627454D01*
X153173801Y-113099919D01*
X153092659Y-113044144D01*
X152834344Y-112933144D01*
X152798239Y-112922199D01*
X152577800Y-113024180D01*
X152577800Y-114122200D01*
X153173801Y-114122200D01*
X153173801Y-114477800D01*
X152577800Y-114477800D01*
X152577800Y-115575820D01*
X152798239Y-115677801D01*
X152834344Y-115666856D01*
X153092659Y-115555856D01*
X153173801Y-115500081D01*
X153173801Y-115635147D01*
X152919231Y-115889718D01*
X152910909Y-115884157D01*
X152714616Y-115802850D01*
X152506233Y-115761400D01*
X152293767Y-115761400D01*
X152085384Y-115802850D01*
X151889091Y-115884157D01*
X151712433Y-116002197D01*
X151562197Y-116152433D01*
X151444157Y-116329091D01*
X151362850Y-116525384D01*
X151321400Y-116733767D01*
X151321400Y-116946233D01*
X151362850Y-117154616D01*
X151444157Y-117350909D01*
X151562197Y-117527567D01*
X151712433Y-117677803D01*
X151889091Y-117795843D01*
X152034323Y-117856000D01*
X151414815Y-117856000D01*
X150843340Y-117284525D01*
X150897150Y-117154616D01*
X150938600Y-116946233D01*
X150938600Y-116733767D01*
X150897150Y-116525384D01*
X150815843Y-116329091D01*
X150697803Y-116152433D01*
X150547567Y-116002197D01*
X150370909Y-115884157D01*
X150174616Y-115802850D01*
X149966233Y-115761400D01*
X149753767Y-115761400D01*
X149545384Y-115802850D01*
X149415474Y-115856660D01*
X149292644Y-115733830D01*
X149292640Y-115733825D01*
X148971000Y-115412186D01*
X148971000Y-114910946D01*
X149022197Y-114987567D01*
X149172433Y-115137803D01*
X149349091Y-115255843D01*
X149545384Y-115337150D01*
X149753767Y-115378600D01*
X149966233Y-115378600D01*
X150174616Y-115337150D01*
X150370909Y-115255843D01*
X150547567Y-115137803D01*
X150697803Y-114987567D01*
X150815843Y-114810909D01*
X150862511Y-114698240D01*
X151022192Y-114698240D01*
X151126359Y-114959385D01*
X151279471Y-115195190D01*
X151475645Y-115396594D01*
X151707341Y-115555856D01*
X151965656Y-115666856D01*
X152001761Y-115677801D01*
X152222200Y-115575820D01*
X152222200Y-114477800D01*
X151122907Y-114477800D01*
X151022192Y-114698240D01*
X150862511Y-114698240D01*
X150897150Y-114614616D01*
X150938600Y-114406233D01*
X150938600Y-114193767D01*
X150897150Y-113985384D01*
X150862512Y-113901760D01*
X151022192Y-113901760D01*
X151122907Y-114122200D01*
X152222200Y-114122200D01*
X152222200Y-113024180D01*
X152001761Y-112922199D01*
X151965656Y-112933144D01*
X151707341Y-113044144D01*
X151475645Y-113203406D01*
X151279471Y-113404810D01*
X151126359Y-113640615D01*
X151022192Y-113901760D01*
X150862512Y-113901760D01*
X150815843Y-113789091D01*
X150697803Y-113612433D01*
X150547567Y-113462197D01*
X150370909Y-113344157D01*
X150271904Y-113303148D01*
X151080945Y-112494107D01*
X151088821Y-112487643D01*
X151101354Y-112494342D01*
X151211477Y-112527747D01*
X151326000Y-112539027D01*
X151489650Y-112536200D01*
X151635700Y-112390150D01*
X151635700Y-111429800D01*
X151991300Y-111429800D01*
X151991300Y-112390150D01*
X152137350Y-112536200D01*
X152301000Y-112539027D01*
X152415523Y-112527747D01*
X152525646Y-112494342D01*
X152627135Y-112440095D01*
X152716091Y-112367091D01*
X152789095Y-112278135D01*
X152843342Y-112176646D01*
X152876747Y-112066523D01*
X152888027Y-111952000D01*
X152885200Y-111575850D01*
X152739150Y-111429800D01*
X151991300Y-111429800D01*
X151635700Y-111429800D01*
X151615700Y-111429800D01*
X151615700Y-111074200D01*
X151635700Y-111074200D01*
X151635700Y-110113850D01*
X151991300Y-110113850D01*
X151991300Y-111074200D01*
X152739150Y-111074200D01*
X152885200Y-110928150D01*
X152888027Y-110552000D01*
X152876747Y-110437477D01*
X152843342Y-110327354D01*
X152789095Y-110225865D01*
X152716091Y-110136909D01*
X152627135Y-110063905D01*
X152525646Y-110009658D01*
X152415523Y-109976253D01*
X152301000Y-109964973D01*
X152137350Y-109967800D01*
X151991300Y-110113850D01*
X151635700Y-110113850D01*
X151489650Y-109967800D01*
X151326000Y-109964973D01*
X151211477Y-109976253D01*
X151180800Y-109985559D01*
X151180800Y-109774992D01*
X151334945Y-109620848D01*
X151346568Y-109611309D01*
X151384658Y-109564898D01*
X151412960Y-109511947D01*
X151430389Y-109454492D01*
X151434800Y-109409707D01*
X151434800Y-109409700D01*
X151436273Y-109394742D01*
X151434800Y-109379784D01*
X151434800Y-107710957D01*
X151436273Y-107695999D01*
X151434800Y-107681041D01*
X151434800Y-107681034D01*
X151430389Y-107636249D01*
X151412960Y-107578794D01*
X151384658Y-107525843D01*
X151346568Y-107479432D01*
X151334944Y-107469892D01*
X151099706Y-107234655D01*
X151099706Y-106990000D01*
X151095292Y-106945187D01*
X151082221Y-106902095D01*
X151060994Y-106862382D01*
X151032427Y-106827573D01*
X150997618Y-106799006D01*
X150957905Y-106777779D01*
X150914813Y-106764708D01*
X150870000Y-106760294D01*
X149170000Y-106760294D01*
X149125187Y-106764708D01*
X149082095Y-106777779D01*
X149042382Y-106799006D01*
X149007573Y-106827573D01*
X148979006Y-106862382D01*
X148957779Y-106902095D01*
X148944708Y-106945187D01*
X148940294Y-106990000D01*
X148940294Y-107640000D01*
X148944708Y-107684813D01*
X148957779Y-107727905D01*
X148979006Y-107767618D01*
X149007573Y-107802427D01*
X149042382Y-107830994D01*
X149082095Y-107852221D01*
X149125187Y-107865292D01*
X149170000Y-107869706D01*
X150825201Y-107869706D01*
X150825201Y-108030294D01*
X149170000Y-108030294D01*
X149125187Y-108034708D01*
X149082095Y-108047779D01*
X149042382Y-108069006D01*
X149007573Y-108097573D01*
X148979006Y-108132382D01*
X148957779Y-108172095D01*
X148944708Y-108215187D01*
X148940294Y-108260000D01*
X148940294Y-108910000D01*
X148944708Y-108954813D01*
X148957779Y-108997905D01*
X148979006Y-109037618D01*
X149007573Y-109072427D01*
X149042382Y-109100994D01*
X149082095Y-109122221D01*
X149125187Y-109135292D01*
X149170000Y-109139706D01*
X149557501Y-109139706D01*
X149557500Y-110345006D01*
X149513566Y-110358334D01*
X149431712Y-110402086D01*
X149359966Y-110460966D01*
X149301086Y-110532712D01*
X149257334Y-110614566D01*
X149230391Y-110703383D01*
X149221294Y-110795750D01*
X149221294Y-111430391D01*
X148333832Y-112317854D01*
X148319289Y-112329789D01*
X148288677Y-112367091D01*
X148271678Y-112387804D01*
X148267480Y-112395658D01*
X148236299Y-112453993D01*
X148214513Y-112525812D01*
X148210320Y-112568389D01*
X148207157Y-112600500D01*
X147421200Y-112600500D01*
X147421200Y-104450000D01*
X148582973Y-104450000D01*
X148585800Y-104451150D01*
X148731850Y-104597200D01*
X149842200Y-104597200D01*
X149842200Y-104011850D01*
X150197800Y-104011850D01*
X150197800Y-104597200D01*
X151308150Y-104597200D01*
X151454200Y-104451150D01*
X151457027Y-104450000D01*
X155882973Y-104450000D01*
X155885800Y-104451150D01*
X156031850Y-104597200D01*
X157142200Y-104597200D01*
X157142200Y-104011850D01*
X157497800Y-104011850D01*
X157497800Y-104597200D01*
X158608150Y-104597200D01*
X158754200Y-104451150D01*
X158757027Y-104450000D01*
X158745747Y-104335477D01*
X158712342Y-104225354D01*
X158658095Y-104123865D01*
X158585091Y-104034909D01*
X158496135Y-103961905D01*
X158394646Y-103907658D01*
X158284523Y-103874253D01*
X158170000Y-103862973D01*
X157643850Y-103865800D01*
X157497800Y-104011850D01*
X157142200Y-104011850D01*
X156996150Y-103865800D01*
X156470000Y-103862973D01*
X156355477Y-103874253D01*
X156245354Y-103907658D01*
X156143865Y-103961905D01*
X156054909Y-104034909D01*
X155981905Y-104123865D01*
X155927658Y-104225354D01*
X155894253Y-104335477D01*
X155882973Y-104450000D01*
X151457027Y-104450000D01*
X151445747Y-104335477D01*
X151412342Y-104225354D01*
X151358095Y-104123865D01*
X151285091Y-104034909D01*
X151196135Y-103961905D01*
X151094646Y-103907658D01*
X150984523Y-103874253D01*
X150870000Y-103862973D01*
X150343850Y-103865800D01*
X150197800Y-104011850D01*
X149842200Y-104011850D01*
X149696150Y-103865800D01*
X149170000Y-103862973D01*
X149055477Y-103874253D01*
X148945354Y-103907658D01*
X148843865Y-103961905D01*
X148754909Y-104034909D01*
X148681905Y-104123865D01*
X148627658Y-104225354D01*
X148594253Y-104335477D01*
X148582973Y-104450000D01*
X147421200Y-104450000D01*
X147421200Y-102971200D01*
X159918801Y-102971200D01*
X159918800Y-119278800D01*
G37*
X159918800Y-119278800D02*
X147421200Y-119278800D01*
X147421200Y-112600500D01*
X148207157Y-112600500D01*
X148209000Y-112619210D01*
X148209001Y-115551280D01*
X148207157Y-115570000D01*
X148214514Y-115644688D01*
X148236299Y-115716507D01*
X148271678Y-115782696D01*
X148301010Y-115818437D01*
X148319290Y-115840711D01*
X148333827Y-115852641D01*
X148753825Y-116272640D01*
X148753830Y-116272644D01*
X148876660Y-116395474D01*
X148822850Y-116525384D01*
X148781400Y-116733767D01*
X148781400Y-116946233D01*
X148822850Y-117154616D01*
X148904157Y-117350909D01*
X149022197Y-117527567D01*
X149172433Y-117677803D01*
X149349091Y-117795843D01*
X149545384Y-117877150D01*
X149753767Y-117918600D01*
X149966233Y-117918600D01*
X150174616Y-117877150D01*
X150304525Y-117823340D01*
X150974359Y-118493174D01*
X150986289Y-118507711D01*
X151000824Y-118519639D01*
X151044303Y-118555322D01*
X151067359Y-118567645D01*
X151110492Y-118590701D01*
X151182311Y-118612487D01*
X151238287Y-118618000D01*
X151238296Y-118618000D01*
X151256999Y-118619842D01*
X151275702Y-118618000D01*
X157842290Y-118618000D01*
X157861000Y-118619843D01*
X157879710Y-118618000D01*
X157879713Y-118618000D01*
X157935689Y-118612487D01*
X158007508Y-118590701D01*
X158073696Y-118555322D01*
X158131711Y-118507711D01*
X158143646Y-118493168D01*
X159006175Y-117630640D01*
X159020711Y-117618711D01*
X159044250Y-117590028D01*
X159068322Y-117560697D01*
X159103701Y-117494508D01*
X159103701Y-117494507D01*
X159125487Y-117422689D01*
X159131000Y-117366713D01*
X159131000Y-117366710D01*
X159132843Y-117348000D01*
X159131000Y-117329290D01*
X159131000Y-112619209D01*
X159132843Y-112600499D01*
X159129680Y-112568389D01*
X159125487Y-112525811D01*
X159103701Y-112453992D01*
X159100110Y-112447274D01*
X159068322Y-112387803D01*
X159032639Y-112344324D01*
X159020711Y-112329789D01*
X159006174Y-112317859D01*
X158169670Y-111481356D01*
X158169666Y-111481351D01*
X158118706Y-111430391D01*
X158118706Y-110795750D01*
X158109609Y-110703383D01*
X158082666Y-110614566D01*
X158038914Y-110532712D01*
X157980034Y-110460966D01*
X157908288Y-110402086D01*
X157826434Y-110358334D01*
X157737617Y-110331391D01*
X157645250Y-110322294D01*
X157157750Y-110322294D01*
X157065383Y-110331391D01*
X156976566Y-110358334D01*
X156894712Y-110402086D01*
X156822966Y-110460966D01*
X156768800Y-110526968D01*
X156768800Y-110044651D01*
X157524945Y-109288507D01*
X157536568Y-109278968D01*
X157574658Y-109232557D01*
X157602960Y-109179606D01*
X157615064Y-109139706D01*
X158170000Y-109139706D01*
X158214813Y-109135292D01*
X158257905Y-109122221D01*
X158297618Y-109100994D01*
X158332427Y-109072427D01*
X158360994Y-109037618D01*
X158382221Y-108997905D01*
X158395292Y-108954813D01*
X158399706Y-108910000D01*
X158399706Y-108260000D01*
X158395292Y-108215187D01*
X158382221Y-108172095D01*
X158360994Y-108132382D01*
X158332427Y-108097573D01*
X158297618Y-108069006D01*
X158257905Y-108047779D01*
X158214813Y-108034708D01*
X158170000Y-108030294D01*
X156470000Y-108030294D01*
X156425187Y-108034708D01*
X156382095Y-108047779D01*
X156342382Y-108069006D01*
X156307573Y-108097573D01*
X156279006Y-108132382D01*
X156257779Y-108172095D01*
X156244708Y-108215187D01*
X156240294Y-108260000D01*
X156240294Y-108910000D01*
X156244708Y-108954813D01*
X156257779Y-108997905D01*
X156279006Y-109037618D01*
X156307573Y-109072427D01*
X156342382Y-109100994D01*
X156382095Y-109122221D01*
X156425187Y-109135292D01*
X156470000Y-109139706D01*
X156811642Y-109139706D01*
X156259057Y-109692292D01*
X156247433Y-109701832D01*
X156237893Y-109713456D01*
X156237892Y-109713457D01*
X156231449Y-109721307D01*
X156209343Y-109748243D01*
X156199881Y-109765946D01*
X156181040Y-109801195D01*
X156163611Y-109858649D01*
X156157727Y-109918400D01*
X156159201Y-109933368D01*
X156159201Y-109985559D01*
X156128523Y-109976253D01*
X156014000Y-109964973D01*
X155850350Y-109967800D01*
X155704300Y-110113850D01*
X155704300Y-111074200D01*
X155724300Y-111074200D01*
X155724300Y-111429800D01*
X155704300Y-111429800D01*
X155704300Y-112390150D01*
X155850350Y-112536200D01*
X156014000Y-112539027D01*
X156128523Y-112527747D01*
X156238646Y-112494342D01*
X156251179Y-112487643D01*
X156259061Y-112494112D01*
X156985242Y-113220294D01*
X156630000Y-113220294D01*
X156585187Y-113224708D01*
X156542095Y-113237779D01*
X156502382Y-113259006D01*
X156467573Y-113287573D01*
X156439006Y-113322382D01*
X156434408Y-113330985D01*
X156426568Y-113321432D01*
X156414944Y-113311892D01*
X155801112Y-112698061D01*
X155791568Y-112686432D01*
X155745157Y-112648342D01*
X155692206Y-112620040D01*
X155634751Y-112602611D01*
X155589966Y-112598200D01*
X155589958Y-112598200D01*
X155575000Y-112596727D01*
X155560042Y-112598200D01*
X154685252Y-112598200D01*
X154101800Y-112014749D01*
X154101800Y-111952000D01*
X154451973Y-111952000D01*
X154463253Y-112066523D01*
X154496658Y-112176646D01*
X154550905Y-112278135D01*
X154623909Y-112367091D01*
X154712865Y-112440095D01*
X154814354Y-112494342D01*
X154924477Y-112527747D01*
X155039000Y-112539027D01*
X155202650Y-112536200D01*
X155348700Y-112390150D01*
X155348700Y-111429800D01*
X154600850Y-111429800D01*
X154454800Y-111575850D01*
X154451973Y-111952000D01*
X154101800Y-111952000D01*
X154101800Y-110552000D01*
X154451973Y-110552000D01*
X154454800Y-110928150D01*
X154600850Y-111074200D01*
X155348700Y-111074200D01*
X155348700Y-110113850D01*
X155202650Y-109967800D01*
X155039000Y-109964973D01*
X154924477Y-109976253D01*
X154814354Y-110009658D01*
X154712865Y-110063905D01*
X154623909Y-110136909D01*
X154550905Y-110225865D01*
X154496658Y-110327354D01*
X154463253Y-110437477D01*
X154451973Y-110552000D01*
X154101800Y-110552000D01*
X154101800Y-109961851D01*
X156286681Y-107776971D01*
X156307573Y-107802427D01*
X156342382Y-107830994D01*
X156382095Y-107852221D01*
X156425187Y-107865292D01*
X156470000Y-107869706D01*
X158170000Y-107869706D01*
X158214813Y-107865292D01*
X158257905Y-107852221D01*
X158297618Y-107830994D01*
X158332427Y-107802427D01*
X158360994Y-107767618D01*
X158382221Y-107727905D01*
X158395292Y-107684813D01*
X158399706Y-107640000D01*
X158399706Y-106990000D01*
X158395292Y-106945187D01*
X158382221Y-106902095D01*
X158360994Y-106862382D01*
X158332427Y-106827573D01*
X158297618Y-106799006D01*
X158257905Y-106777779D01*
X158214813Y-106764708D01*
X158170000Y-106760294D01*
X156470000Y-106760294D01*
X156425187Y-106764708D01*
X156382095Y-106777779D01*
X156342382Y-106799006D01*
X156307573Y-106827573D01*
X156279006Y-106862382D01*
X156257779Y-106902095D01*
X156244708Y-106945187D01*
X156240294Y-106990000D01*
X156240294Y-107019936D01*
X156200394Y-107032040D01*
X156147443Y-107060342D01*
X156101032Y-107098432D01*
X156091492Y-107110056D01*
X153783401Y-109418148D01*
X153783401Y-108516159D01*
X153784874Y-108501201D01*
X153783401Y-108486243D01*
X153783401Y-108486235D01*
X153778990Y-108441450D01*
X153761561Y-108383995D01*
X153733259Y-108331044D01*
X153695169Y-108284633D01*
X153683545Y-108275093D01*
X151248512Y-105840061D01*
X151238968Y-105828432D01*
X151192557Y-105790342D01*
X151139606Y-105762040D01*
X151099706Y-105749936D01*
X151099706Y-105720000D01*
X151095292Y-105675187D01*
X151086114Y-105644930D01*
X151094646Y-105642342D01*
X151196135Y-105588095D01*
X151285091Y-105515091D01*
X151358095Y-105426135D01*
X151412342Y-105324646D01*
X151445747Y-105214523D01*
X151457027Y-105100000D01*
X155882973Y-105100000D01*
X155894253Y-105214523D01*
X155927658Y-105324646D01*
X155981905Y-105426135D01*
X156054909Y-105515091D01*
X156143865Y-105588095D01*
X156245354Y-105642342D01*
X156253886Y-105644930D01*
X156244708Y-105675187D01*
X156240294Y-105720000D01*
X156240294Y-106370000D01*
X156244708Y-106414813D01*
X156257779Y-106457905D01*
X156279006Y-106497618D01*
X156307573Y-106532427D01*
X156342382Y-106560994D01*
X156382095Y-106582221D01*
X156425187Y-106595292D01*
X156470000Y-106599706D01*
X158170000Y-106599706D01*
X158214813Y-106595292D01*
X158257905Y-106582221D01*
X158297618Y-106560994D01*
X158332427Y-106532427D01*
X158360994Y-106497618D01*
X158382221Y-106457905D01*
X158395292Y-106414813D01*
X158399706Y-106370000D01*
X158399706Y-105720000D01*
X158395292Y-105675187D01*
X158386114Y-105644930D01*
X158394646Y-105642342D01*
X158496135Y-105588095D01*
X158585091Y-105515091D01*
X158658095Y-105426135D01*
X158712342Y-105324646D01*
X158745747Y-105214523D01*
X158757027Y-105100000D01*
X158754200Y-105098850D01*
X158608150Y-104952800D01*
X157497800Y-104952800D01*
X157497800Y-104972800D01*
X157142200Y-104972800D01*
X157142200Y-104952800D01*
X156031850Y-104952800D01*
X155885800Y-105098850D01*
X155882973Y-105100000D01*
X151457027Y-105100000D01*
X151454200Y-105098850D01*
X151308150Y-104952800D01*
X150197800Y-104952800D01*
X150197800Y-104972800D01*
X149842200Y-104972800D01*
X149842200Y-104952800D01*
X148731850Y-104952800D01*
X148585800Y-105098850D01*
X148582973Y-105100000D01*
X148594253Y-105214523D01*
X148627658Y-105324646D01*
X148681905Y-105426135D01*
X148754909Y-105515091D01*
X148843865Y-105588095D01*
X148945354Y-105642342D01*
X148953886Y-105644930D01*
X148944708Y-105675187D01*
X148940294Y-105720000D01*
X148940294Y-106370000D01*
X148944708Y-106414813D01*
X148957779Y-106457905D01*
X148979006Y-106497618D01*
X149007573Y-106532427D01*
X149042382Y-106560994D01*
X149082095Y-106582221D01*
X149125187Y-106595292D01*
X149170000Y-106599706D01*
X150870000Y-106599706D01*
X150914813Y-106595292D01*
X150957905Y-106582221D01*
X150997618Y-106560994D01*
X151032427Y-106532427D01*
X151053319Y-106506970D01*
X153173802Y-108627454D01*
X153173801Y-113099919D01*
X153092659Y-113044144D01*
X152834344Y-112933144D01*
X152798239Y-112922199D01*
X152577800Y-113024180D01*
X152577800Y-114122200D01*
X153173801Y-114122200D01*
X153173801Y-114477800D01*
X152577800Y-114477800D01*
X152577800Y-115575820D01*
X152798239Y-115677801D01*
X152834344Y-115666856D01*
X153092659Y-115555856D01*
X153173801Y-115500081D01*
X153173801Y-115635147D01*
X152919231Y-115889718D01*
X152910909Y-115884157D01*
X152714616Y-115802850D01*
X152506233Y-115761400D01*
X152293767Y-115761400D01*
X152085384Y-115802850D01*
X151889091Y-115884157D01*
X151712433Y-116002197D01*
X151562197Y-116152433D01*
X151444157Y-116329091D01*
X151362850Y-116525384D01*
X151321400Y-116733767D01*
X151321400Y-116946233D01*
X151362850Y-117154616D01*
X151444157Y-117350909D01*
X151562197Y-117527567D01*
X151712433Y-117677803D01*
X151889091Y-117795843D01*
X152034323Y-117856000D01*
X151414815Y-117856000D01*
X150843340Y-117284525D01*
X150897150Y-117154616D01*
X150938600Y-116946233D01*
X150938600Y-116733767D01*
X150897150Y-116525384D01*
X150815843Y-116329091D01*
X150697803Y-116152433D01*
X150547567Y-116002197D01*
X150370909Y-115884157D01*
X150174616Y-115802850D01*
X149966233Y-115761400D01*
X149753767Y-115761400D01*
X149545384Y-115802850D01*
X149415474Y-115856660D01*
X149292644Y-115733830D01*
X149292640Y-115733825D01*
X148971000Y-115412186D01*
X148971000Y-114910946D01*
X149022197Y-114987567D01*
X149172433Y-115137803D01*
X149349091Y-115255843D01*
X149545384Y-115337150D01*
X149753767Y-115378600D01*
X149966233Y-115378600D01*
X150174616Y-115337150D01*
X150370909Y-115255843D01*
X150547567Y-115137803D01*
X150697803Y-114987567D01*
X150815843Y-114810909D01*
X150862511Y-114698240D01*
X151022192Y-114698240D01*
X151126359Y-114959385D01*
X151279471Y-115195190D01*
X151475645Y-115396594D01*
X151707341Y-115555856D01*
X151965656Y-115666856D01*
X152001761Y-115677801D01*
X152222200Y-115575820D01*
X152222200Y-114477800D01*
X151122907Y-114477800D01*
X151022192Y-114698240D01*
X150862511Y-114698240D01*
X150897150Y-114614616D01*
X150938600Y-114406233D01*
X150938600Y-114193767D01*
X150897150Y-113985384D01*
X150862512Y-113901760D01*
X151022192Y-113901760D01*
X151122907Y-114122200D01*
X152222200Y-114122200D01*
X152222200Y-113024180D01*
X152001761Y-112922199D01*
X151965656Y-112933144D01*
X151707341Y-113044144D01*
X151475645Y-113203406D01*
X151279471Y-113404810D01*
X151126359Y-113640615D01*
X151022192Y-113901760D01*
X150862512Y-113901760D01*
X150815843Y-113789091D01*
X150697803Y-113612433D01*
X150547567Y-113462197D01*
X150370909Y-113344157D01*
X150271904Y-113303148D01*
X151080945Y-112494107D01*
X151088821Y-112487643D01*
X151101354Y-112494342D01*
X151211477Y-112527747D01*
X151326000Y-112539027D01*
X151489650Y-112536200D01*
X151635700Y-112390150D01*
X151635700Y-111429800D01*
X151991300Y-111429800D01*
X151991300Y-112390150D01*
X152137350Y-112536200D01*
X152301000Y-112539027D01*
X152415523Y-112527747D01*
X152525646Y-112494342D01*
X152627135Y-112440095D01*
X152716091Y-112367091D01*
X152789095Y-112278135D01*
X152843342Y-112176646D01*
X152876747Y-112066523D01*
X152888027Y-111952000D01*
X152885200Y-111575850D01*
X152739150Y-111429800D01*
X151991300Y-111429800D01*
X151635700Y-111429800D01*
X151615700Y-111429800D01*
X151615700Y-111074200D01*
X151635700Y-111074200D01*
X151635700Y-110113850D01*
X151991300Y-110113850D01*
X151991300Y-111074200D01*
X152739150Y-111074200D01*
X152885200Y-110928150D01*
X152888027Y-110552000D01*
X152876747Y-110437477D01*
X152843342Y-110327354D01*
X152789095Y-110225865D01*
X152716091Y-110136909D01*
X152627135Y-110063905D01*
X152525646Y-110009658D01*
X152415523Y-109976253D01*
X152301000Y-109964973D01*
X152137350Y-109967800D01*
X151991300Y-110113850D01*
X151635700Y-110113850D01*
X151489650Y-109967800D01*
X151326000Y-109964973D01*
X151211477Y-109976253D01*
X151180800Y-109985559D01*
X151180800Y-109774992D01*
X151334945Y-109620848D01*
X151346568Y-109611309D01*
X151384658Y-109564898D01*
X151412960Y-109511947D01*
X151430389Y-109454492D01*
X151434800Y-109409707D01*
X151434800Y-109409700D01*
X151436273Y-109394742D01*
X151434800Y-109379784D01*
X151434800Y-107710957D01*
X151436273Y-107695999D01*
X151434800Y-107681041D01*
X151434800Y-107681034D01*
X151430389Y-107636249D01*
X151412960Y-107578794D01*
X151384658Y-107525843D01*
X151346568Y-107479432D01*
X151334944Y-107469892D01*
X151099706Y-107234655D01*
X151099706Y-106990000D01*
X151095292Y-106945187D01*
X151082221Y-106902095D01*
X151060994Y-106862382D01*
X151032427Y-106827573D01*
X150997618Y-106799006D01*
X150957905Y-106777779D01*
X150914813Y-106764708D01*
X150870000Y-106760294D01*
X149170000Y-106760294D01*
X149125187Y-106764708D01*
X149082095Y-106777779D01*
X149042382Y-106799006D01*
X149007573Y-106827573D01*
X148979006Y-106862382D01*
X148957779Y-106902095D01*
X148944708Y-106945187D01*
X148940294Y-106990000D01*
X148940294Y-107640000D01*
X148944708Y-107684813D01*
X148957779Y-107727905D01*
X148979006Y-107767618D01*
X149007573Y-107802427D01*
X149042382Y-107830994D01*
X149082095Y-107852221D01*
X149125187Y-107865292D01*
X149170000Y-107869706D01*
X150825201Y-107869706D01*
X150825201Y-108030294D01*
X149170000Y-108030294D01*
X149125187Y-108034708D01*
X149082095Y-108047779D01*
X149042382Y-108069006D01*
X149007573Y-108097573D01*
X148979006Y-108132382D01*
X148957779Y-108172095D01*
X148944708Y-108215187D01*
X148940294Y-108260000D01*
X148940294Y-108910000D01*
X148944708Y-108954813D01*
X148957779Y-108997905D01*
X148979006Y-109037618D01*
X149007573Y-109072427D01*
X149042382Y-109100994D01*
X149082095Y-109122221D01*
X149125187Y-109135292D01*
X149170000Y-109139706D01*
X149557501Y-109139706D01*
X149557500Y-110345006D01*
X149513566Y-110358334D01*
X149431712Y-110402086D01*
X149359966Y-110460966D01*
X149301086Y-110532712D01*
X149257334Y-110614566D01*
X149230391Y-110703383D01*
X149221294Y-110795750D01*
X149221294Y-111430391D01*
X148333832Y-112317854D01*
X148319289Y-112329789D01*
X148288677Y-112367091D01*
X148271678Y-112387804D01*
X148267480Y-112395658D01*
X148236299Y-112453993D01*
X148214513Y-112525812D01*
X148210320Y-112568389D01*
X148207157Y-112600500D01*
X147421200Y-112600500D01*
X147421200Y-104450000D01*
X148582973Y-104450000D01*
X148585800Y-104451150D01*
X148731850Y-104597200D01*
X149842200Y-104597200D01*
X149842200Y-104011850D01*
X150197800Y-104011850D01*
X150197800Y-104597200D01*
X151308150Y-104597200D01*
X151454200Y-104451150D01*
X151457027Y-104450000D01*
X155882973Y-104450000D01*
X155885800Y-104451150D01*
X156031850Y-104597200D01*
X157142200Y-104597200D01*
X157142200Y-104011850D01*
X157497800Y-104011850D01*
X157497800Y-104597200D01*
X158608150Y-104597200D01*
X158754200Y-104451150D01*
X158757027Y-104450000D01*
X158745747Y-104335477D01*
X158712342Y-104225354D01*
X158658095Y-104123865D01*
X158585091Y-104034909D01*
X158496135Y-103961905D01*
X158394646Y-103907658D01*
X158284523Y-103874253D01*
X158170000Y-103862973D01*
X157643850Y-103865800D01*
X157497800Y-104011850D01*
X157142200Y-104011850D01*
X156996150Y-103865800D01*
X156470000Y-103862973D01*
X156355477Y-103874253D01*
X156245354Y-103907658D01*
X156143865Y-103961905D01*
X156054909Y-104034909D01*
X155981905Y-104123865D01*
X155927658Y-104225354D01*
X155894253Y-104335477D01*
X155882973Y-104450000D01*
X151457027Y-104450000D01*
X151445747Y-104335477D01*
X151412342Y-104225354D01*
X151358095Y-104123865D01*
X151285091Y-104034909D01*
X151196135Y-103961905D01*
X151094646Y-103907658D01*
X150984523Y-103874253D01*
X150870000Y-103862973D01*
X150343850Y-103865800D01*
X150197800Y-104011850D01*
X149842200Y-104011850D01*
X149696150Y-103865800D01*
X149170000Y-103862973D01*
X149055477Y-103874253D01*
X148945354Y-103907658D01*
X148843865Y-103961905D01*
X148754909Y-104034909D01*
X148681905Y-104123865D01*
X148627658Y-104225354D01*
X148594253Y-104335477D01*
X148582973Y-104450000D01*
X147421200Y-104450000D01*
X147421200Y-102971200D01*
X159918801Y-102971200D01*
X159918800Y-119278800D01*
G36*
X155117800Y-114122200D02*
G01*
X155137800Y-114122200D01*
X155137800Y-114477800D01*
X155117800Y-114477800D01*
X155117800Y-116662200D01*
X156217093Y-116662200D01*
X156317808Y-116441760D01*
X156213641Y-116180615D01*
X156060529Y-115944810D01*
X155864355Y-115743406D01*
X155632659Y-115584144D01*
X155599744Y-115570000D01*
X155632659Y-115555856D01*
X155864355Y-115396594D01*
X155905200Y-115354660D01*
X155905200Y-115555042D01*
X155903727Y-115570000D01*
X155905200Y-115584958D01*
X155905200Y-115584965D01*
X155909055Y-115624110D01*
X155909611Y-115629751D01*
X155914142Y-115644688D01*
X155927040Y-115687205D01*
X155955342Y-115740156D01*
X155993432Y-115786568D01*
X156005061Y-115796112D01*
X156529718Y-116320769D01*
X156524157Y-116329091D01*
X156442850Y-116525384D01*
X156401400Y-116733767D01*
X156401400Y-116946233D01*
X156442850Y-117154616D01*
X156524157Y-117350909D01*
X156642197Y-117527567D01*
X156792433Y-117677803D01*
X156969091Y-117795843D01*
X157114323Y-117856000D01*
X155942856Y-117856000D01*
X156060529Y-117735190D01*
X156213641Y-117499385D01*
X156317808Y-117238240D01*
X156217093Y-117017800D01*
X155117800Y-117017800D01*
X155117800Y-117037800D01*
X154762200Y-117037800D01*
X154762200Y-117017800D01*
X153662907Y-117017800D01*
X153562192Y-117238240D01*
X153666359Y-117499385D01*
X153819471Y-117735190D01*
X153937144Y-117856000D01*
X152765677Y-117856000D01*
X152910909Y-117795843D01*
X153087567Y-117677803D01*
X153237803Y-117527567D01*
X153355843Y-117350909D01*
X153437150Y-117154616D01*
X153478600Y-116946233D01*
X153478600Y-116733767D01*
X153437150Y-116525384D01*
X153355843Y-116329091D01*
X153350282Y-116320769D01*
X153683546Y-115987506D01*
X153695169Y-115977967D01*
X153733259Y-115931556D01*
X153761561Y-115878605D01*
X153778990Y-115821150D01*
X153783401Y-115776365D01*
X153783401Y-115776358D01*
X153784874Y-115761400D01*
X153783401Y-115746442D01*
X153783401Y-115139639D01*
X153819471Y-115195190D01*
X154015645Y-115396594D01*
X154247341Y-115555856D01*
X154280256Y-115570000D01*
X154247341Y-115584144D01*
X154015645Y-115743406D01*
X153819471Y-115944810D01*
X153666359Y-116180615D01*
X153562192Y-116441760D01*
X153662907Y-116662200D01*
X154762200Y-116662200D01*
X154762200Y-114477800D01*
X154742200Y-114477800D01*
X154742200Y-114122200D01*
X154762200Y-114122200D01*
X154762200Y-114102200D01*
X155117800Y-114102200D01*
X155117800Y-114122200D01*
G37*
X155117800Y-114122200D02*
X155137800Y-114122200D01*
X155137800Y-114477800D01*
X155117800Y-114477800D01*
X155117800Y-116662200D01*
X156217093Y-116662200D01*
X156317808Y-116441760D01*
X156213641Y-116180615D01*
X156060529Y-115944810D01*
X155864355Y-115743406D01*
X155632659Y-115584144D01*
X155599744Y-115570000D01*
X155632659Y-115555856D01*
X155864355Y-115396594D01*
X155905200Y-115354660D01*
X155905200Y-115555042D01*
X155903727Y-115570000D01*
X155905200Y-115584958D01*
X155905200Y-115584965D01*
X155909055Y-115624110D01*
X155909611Y-115629751D01*
X155914142Y-115644688D01*
X155927040Y-115687205D01*
X155955342Y-115740156D01*
X155993432Y-115786568D01*
X156005061Y-115796112D01*
X156529718Y-116320769D01*
X156524157Y-116329091D01*
X156442850Y-116525384D01*
X156401400Y-116733767D01*
X156401400Y-116946233D01*
X156442850Y-117154616D01*
X156524157Y-117350909D01*
X156642197Y-117527567D01*
X156792433Y-117677803D01*
X156969091Y-117795843D01*
X157114323Y-117856000D01*
X155942856Y-117856000D01*
X156060529Y-117735190D01*
X156213641Y-117499385D01*
X156317808Y-117238240D01*
X156217093Y-117017800D01*
X155117800Y-117017800D01*
X155117800Y-117037800D01*
X154762200Y-117037800D01*
X154762200Y-117017800D01*
X153662907Y-117017800D01*
X153562192Y-117238240D01*
X153666359Y-117499385D01*
X153819471Y-117735190D01*
X153937144Y-117856000D01*
X152765677Y-117856000D01*
X152910909Y-117795843D01*
X153087567Y-117677803D01*
X153237803Y-117527567D01*
X153355843Y-117350909D01*
X153437150Y-117154616D01*
X153478600Y-116946233D01*
X153478600Y-116733767D01*
X153437150Y-116525384D01*
X153355843Y-116329091D01*
X153350282Y-116320769D01*
X153683546Y-115987506D01*
X153695169Y-115977967D01*
X153733259Y-115931556D01*
X153761561Y-115878605D01*
X153778990Y-115821150D01*
X153783401Y-115776365D01*
X153783401Y-115776358D01*
X153784874Y-115761400D01*
X153783401Y-115746442D01*
X153783401Y-115139639D01*
X153819471Y-115195190D01*
X154015645Y-115396594D01*
X154247341Y-115555856D01*
X154280256Y-115570000D01*
X154247341Y-115584144D01*
X154015645Y-115743406D01*
X153819471Y-115944810D01*
X153666359Y-116180615D01*
X153562192Y-116441760D01*
X153662907Y-116662200D01*
X154762200Y-116662200D01*
X154762200Y-114477800D01*
X154742200Y-114477800D01*
X154742200Y-114122200D01*
X154762200Y-114122200D01*
X154762200Y-114102200D01*
X155117800Y-114102200D01*
X155117800Y-114122200D01*
M02*
